M48
;Layer_Color=9474304
;FILE_FORMAT=2:5
INCH,LZ
;TYPE=PLATED
T1F00S00C0.02800
T2F00S00C0.06300
T3F00S00C0.12500
%
T01
X0068Y0052
Y0083
X0058Y0077
X0075Y0083
X0103
Y009
X0098Y0066
X0075Y0052
T02
X0037Y0044
X0063Y004
X0044Y0092
X0055Y0118
X0091
X0073Y0096
X0127Y0101
X0106Y0055
X0091Y004
T03
X014Y002
X002
Y017
X014
M30
