G04 Layer_Color=65535*
%FSLAX25Y25*%
%MOIN*%
G70*
G01*
G75*
%ADD38C,0.01000*%
%ADD46C,0.00800*%
%ADD56C,0.00500*%
%ADD57C,0.00600*%
%ADD58C,0.00984*%
%ADD59C,0.02362*%
%ADD60C,0.00700*%
%ADD61C,0.00787*%
%ADD62R,0.01969X0.07498*%
%ADD63R,0.08600X0.02000*%
%ADD64R,0.02000X0.06800*%
%ADD65R,0.06800X0.02000*%
%ADD66R,0.02000X0.08600*%
G54D38*
X156959Y342468D02*
G03*
X156959Y342468I-1000J0D01*
G01*
X156459D02*
G03*
X156459Y342468I-500J0D01*
G01*
X31344Y279950D02*
G03*
X31344Y279950I-1000J0D01*
G01*
X30844D02*
G03*
X30844Y279950I-500J0D01*
G01*
X121750Y342756D02*
G03*
X121750Y342756I-500J0D01*
G01*
X122250D02*
G03*
X122250Y342756I-1000J0D01*
G01*
X32232Y145009D02*
G03*
X32232Y145009I-1000J0D01*
G01*
X31732D02*
G03*
X31732Y145009I-500J0D01*
G01*
Y178009D02*
G03*
X31732Y178009I-500J0D01*
G01*
X32232D02*
G03*
X32232Y178009I-1000J0D01*
G01*
X165850Y29929D02*
G03*
X165850Y29929I-1000J0D01*
G01*
X165350D02*
G03*
X165350Y29929I-500J0D01*
G01*
X131350D02*
G03*
X131350Y29929I-500J0D01*
G01*
X131850D02*
G03*
X131850Y29929I-1000J0D01*
G01*
X100500Y30429D02*
G03*
X100500Y30429I-1000J0D01*
G01*
X100000D02*
G03*
X100000Y30429I-500J0D01*
G01*
X70000D02*
G03*
X70000Y30429I-500J0D01*
G01*
X70500D02*
G03*
X70500Y30429I-1000J0D01*
G01*
X32732Y77009D02*
G03*
X32732Y77009I-1000J0D01*
G01*
X32232D02*
G03*
X32232Y77009I-500J0D01*
G01*
X31732Y112764D02*
G03*
X31732Y112764I-500J0D01*
G01*
X32232D02*
G03*
X32232Y112764I-1000J0D01*
G01*
X224705Y263500D02*
G03*
X224705Y263500I-1000J0D01*
G01*
X224205D02*
G03*
X224205Y263500I-500J0D01*
G01*
X30844Y314450D02*
G03*
X30844Y314450I-500J0D01*
G01*
X31344D02*
G03*
X31344Y314450I-1000J0D01*
G01*
X84250Y343256D02*
G03*
X84250Y343256I-1000J0D01*
G01*
X83750D02*
G03*
X83750Y343256I-500J0D01*
G01*
X31426Y245259D02*
G03*
X31426Y245259I-500J0D01*
G01*
X31926D02*
G03*
X31926Y245259I-1000J0D01*
G01*
X32732Y211859D02*
G03*
X32732Y211859I-1000J0D01*
G01*
X32232D02*
G03*
X32232Y211859I-500J0D01*
G01*
X192787Y343230D02*
G03*
X192787Y343230I-500J0D01*
G01*
X193287D02*
G03*
X193287Y343230I-1000J0D01*
G01*
X428000Y-72683D02*
Y-52350D01*
X369000Y-73000D02*
Y-52667D01*
X-29200Y-72683D02*
X631000D01*
X-29200Y-93017D02*
X630800D01*
X-29200Y-113350D02*
X371300D01*
X-29150Y-52350D02*
X631000D01*
X-29150Y-113350D02*
Y-52350D01*
Y-113350D02*
X128400D01*
X-29200D02*
Y-52350D01*
X217300Y-113350D02*
Y-52350D01*
X631000Y-113350D02*
Y-52350D01*
X371300Y-113350D02*
X631000D01*
X490200Y-114000D02*
Y-93717D01*
G54D46*
X57700Y-79851D02*
X61699D01*
X59699D01*
Y-85849D01*
X64698D02*
X66697D01*
X67697Y-84850D01*
Y-82850D01*
X66697Y-81851D01*
X64698D01*
X63698Y-82850D01*
Y-84850D01*
X64698Y-85849D01*
X69696Y-87849D02*
Y-81851D01*
X72695D01*
X73695Y-82850D01*
Y-84850D01*
X72695Y-85849D01*
X69696D01*
X84691Y-79851D02*
X82692D01*
X81692Y-80851D01*
Y-84850D01*
X82692Y-85849D01*
X84691D01*
X85691Y-84850D01*
Y-80851D01*
X84691Y-79851D01*
X87690Y-81851D02*
X89690Y-85849D01*
X91689Y-81851D01*
X96687Y-85849D02*
X94688D01*
X93688Y-84850D01*
Y-82850D01*
X94688Y-81851D01*
X96687D01*
X97687Y-82850D01*
Y-83850D01*
X93688D01*
X99686Y-81851D02*
Y-85849D01*
Y-83850D01*
X100686Y-82850D01*
X101686Y-81851D01*
X102685D01*
X105684Y-85849D02*
X107684D01*
X106684D01*
Y-79851D01*
X105684D01*
X111682Y-81851D02*
X113682D01*
X114682Y-82850D01*
Y-85849D01*
X111682D01*
X110683Y-84850D01*
X111682Y-83850D01*
X114682D01*
X116681Y-81851D02*
Y-84850D01*
X117681Y-85849D01*
X120680D01*
Y-86849D01*
X119680Y-87849D01*
X118680D01*
X120680Y-85849D02*
Y-81851D01*
X498200Y-65567D02*
Y-59569D01*
X502199Y-65567D01*
Y-59569D01*
X505198Y-65567D02*
X507197D01*
X508197Y-64567D01*
Y-62568D01*
X507197Y-61568D01*
X505198D01*
X504198Y-62568D01*
Y-64567D01*
X505198Y-65567D01*
X511196Y-60568D02*
Y-61568D01*
X510196D01*
X512195D01*
X511196D01*
Y-64567D01*
X512195Y-65567D01*
X521193Y-59569D02*
X523192D01*
X522192D01*
Y-65567D01*
X521193D01*
X523192D01*
X526191D02*
Y-61568D01*
X529190D01*
X530190Y-62568D01*
Y-65567D01*
X538187Y-59569D02*
Y-63567D01*
X540186Y-65567D01*
X542186Y-63567D01*
Y-59569D01*
X547184Y-65567D02*
X545185D01*
X544185Y-64567D01*
Y-62568D01*
X545185Y-61568D01*
X547184D01*
X548184Y-62568D01*
Y-63567D01*
X544185D01*
X550183Y-61568D02*
Y-65567D01*
Y-63567D01*
X551183Y-62568D01*
X552182Y-61568D01*
X553182D01*
X556181Y-65567D02*
X559180D01*
X560180Y-64567D01*
X559180Y-63567D01*
X557181D01*
X556181Y-62568D01*
X557181Y-61568D01*
X560180D01*
X562179Y-65567D02*
X564179D01*
X563179D01*
Y-61568D01*
X562179D01*
X568177Y-65567D02*
X570177D01*
X571176Y-64567D01*
Y-62568D01*
X570177Y-61568D01*
X568177D01*
X567178Y-62568D01*
Y-64567D01*
X568177Y-65567D01*
X573176D02*
Y-61568D01*
X576175D01*
X577174Y-62568D01*
Y-65567D01*
X583173Y-60568D02*
X582173Y-59569D01*
X580173D01*
X579174Y-60568D01*
Y-64567D01*
X580173Y-65567D01*
X582173D01*
X583173Y-64567D01*
X586171Y-65567D02*
X588171D01*
X589171Y-64567D01*
Y-62568D01*
X588171Y-61568D01*
X586171D01*
X585172Y-62568D01*
Y-64567D01*
X586171Y-65567D01*
X591170D02*
Y-61568D01*
X594169D01*
X595169Y-62568D01*
Y-65567D01*
X598168Y-60568D02*
Y-61568D01*
X597168D01*
X599167D01*
X598168D01*
Y-64567D01*
X599167Y-65567D01*
X602166Y-61568D02*
Y-65567D01*
Y-63567D01*
X603166Y-62568D01*
X604166Y-61568D01*
X605165D01*
X609164Y-65567D02*
X611164D01*
X612163Y-64567D01*
Y-62568D01*
X611164Y-61568D01*
X609164D01*
X608164Y-62568D01*
Y-64567D01*
X609164Y-65567D01*
X614162D02*
X616162D01*
X615162D01*
Y-59569D01*
X614162D01*
X451599Y-60568D02*
X450599Y-59569D01*
X448600D01*
X447600Y-60568D01*
Y-61568D01*
X448600Y-62568D01*
X450599D01*
X451599Y-63567D01*
Y-64567D01*
X450599Y-65567D01*
X448600D01*
X447600Y-64567D01*
X453598Y-59569D02*
Y-63567D01*
X455597Y-65567D01*
X457597Y-63567D01*
Y-59569D01*
X459596Y-65567D02*
Y-59569D01*
X463595Y-65567D01*
Y-59569D01*
X471592Y-65567D02*
Y-59569D01*
X474591D01*
X475591Y-60568D01*
Y-62568D01*
X474591Y-63567D01*
X471592D01*
X473592D02*
X475591Y-65567D01*
X481589Y-59569D02*
X477590D01*
Y-65567D01*
X481589D01*
X477590Y-62568D02*
X479590D01*
X483588Y-59569D02*
Y-63567D01*
X485588Y-65567D01*
X487587Y-63567D01*
Y-59569D01*
X489586Y-61568D02*
X490586D01*
Y-62568D01*
X489586D01*
Y-61568D01*
Y-64567D02*
X490586D01*
Y-65567D01*
X489586D01*
Y-64567D01*
X378500Y-65700D02*
Y-59702D01*
X381499D01*
X382499Y-60702D01*
Y-62701D01*
X381499Y-63701D01*
X378500D01*
X380499D02*
X382499Y-65700D01*
X388497Y-59702D02*
X384498D01*
Y-65700D01*
X388497D01*
X384498Y-62701D02*
X386497D01*
X390496Y-59702D02*
Y-63701D01*
X392495Y-65700D01*
X394495Y-63701D01*
Y-59702D01*
X396494Y-61701D02*
X397494D01*
Y-62701D01*
X396494D01*
Y-61701D01*
Y-64700D02*
X397494D01*
Y-65700D01*
X396494D01*
Y-64700D01*
X411489Y-59702D02*
X407491D01*
Y-65700D01*
X411489D01*
X407491Y-62701D02*
X409490D01*
X417487Y-65700D02*
X413489D01*
X417487Y-61701D01*
Y-60702D01*
X416488Y-59702D01*
X414488D01*
X413489Y-60702D01*
X44300Y-100401D02*
X47299D01*
X45799D01*
Y-104900D01*
X48799Y-100401D02*
X50298D01*
X49548D01*
Y-104900D01*
X48799D01*
X50298D01*
X52547Y-100401D02*
Y-104900D01*
X54797D01*
X55546Y-104150D01*
Y-101151D01*
X54797Y-100401D01*
X52547D01*
X57046Y-104900D02*
Y-101901D01*
X58545Y-100401D01*
X60045Y-101901D01*
Y-104900D01*
Y-102651D01*
X57046D01*
X61544D02*
X64543D01*
X66043Y-101151D02*
X66793Y-100401D01*
X68292D01*
X69042Y-101151D01*
Y-104150D01*
X68292Y-104900D01*
X66793D01*
X66043Y-104150D01*
Y-101151D01*
X70542Y-104900D02*
X72041D01*
X71291D01*
Y-100401D01*
X70542Y-101151D01*
X77289Y-100401D02*
X74290D01*
Y-102651D01*
X75790Y-101901D01*
X76540D01*
X77289Y-102651D01*
Y-104150D01*
X76540Y-104900D01*
X75040D01*
X74290Y-104150D01*
X78789Y-100401D02*
X81788D01*
Y-101151D01*
X78789Y-104150D01*
Y-104900D01*
X86286Y-100401D02*
X84787Y-101151D01*
X83287Y-102651D01*
Y-104150D01*
X84037Y-104900D01*
X85537D01*
X86286Y-104150D01*
Y-103401D01*
X85537Y-102651D01*
X83287D01*
X87786Y-105650D02*
X90785D01*
X92285Y-100401D02*
Y-104900D01*
X94534D01*
X95284Y-104150D01*
Y-101151D01*
X94534Y-100401D01*
X92285D01*
X96783D02*
Y-104150D01*
X97533Y-104900D01*
X99032D01*
X99782Y-104150D01*
Y-100401D01*
X101282Y-104900D02*
Y-101901D01*
X102781Y-100401D01*
X104281Y-101901D01*
Y-104900D01*
Y-102651D01*
X101282D01*
X105780Y-100401D02*
Y-104900D01*
X108779D01*
X110279Y-105650D02*
X113278D01*
X117776Y-101151D02*
X117026Y-100401D01*
X115527D01*
X114777Y-101151D01*
Y-101901D01*
X115527Y-102651D01*
X117026D01*
X117776Y-103401D01*
Y-104150D01*
X117026Y-104900D01*
X115527D01*
X114777Y-104150D01*
X119276Y-100401D02*
Y-104900D01*
X121525D01*
X122275Y-104150D01*
Y-101151D01*
X121525Y-100401D01*
X119276D01*
X126024D02*
X124524D01*
X123774Y-101151D01*
Y-104150D01*
X124524Y-104900D01*
X126024D01*
X126773Y-104150D01*
Y-101151D01*
X126024Y-100401D01*
X131272D02*
X128273D01*
Y-104900D01*
X131272D01*
X128273Y-102651D02*
X129772D01*
X132772Y-104900D02*
X134271D01*
X133521D01*
Y-100401D01*
X132772Y-101151D01*
X136520Y-104900D02*
Y-104150D01*
X137270D01*
Y-104900D01*
X136520D01*
X143268Y-101151D02*
X142518Y-100401D01*
X141019D01*
X140269Y-101151D01*
Y-104150D01*
X141019Y-104900D01*
X142518D01*
X143268Y-104150D01*
Y-102651D01*
X141769D01*
X144768Y-100401D02*
X147767D01*
X146267D01*
Y-104900D01*
X151515Y-100401D02*
X150016D01*
X149266Y-101151D01*
Y-104150D01*
X150016Y-104900D01*
X151515D01*
X152265Y-104150D01*
Y-101151D01*
X151515Y-100401D01*
X311950Y-106433D02*
X313949D01*
X312950D01*
Y-100435D01*
X311950Y-101435D01*
X316948D02*
X317948Y-100435D01*
X319947D01*
X320947Y-101435D01*
Y-105434D01*
X319947Y-106433D01*
X317948D01*
X316948Y-105434D01*
Y-101435D01*
X322946Y-106433D02*
X326945Y-102435D01*
X328944Y-106433D02*
X330944D01*
X329944D01*
Y-100435D01*
X328944Y-101435D01*
X337942Y-106433D02*
X333943D01*
X337942Y-102435D01*
Y-101435D01*
X336942Y-100435D01*
X334943D01*
X333943Y-101435D01*
X339941Y-106433D02*
X343940Y-102435D01*
X349938Y-106433D02*
X345939D01*
X349938Y-102435D01*
Y-101435D01*
X348938Y-100435D01*
X346939D01*
X345939Y-101435D01*
X351937D02*
X352937Y-100435D01*
X354936D01*
X355936Y-101435D01*
Y-105434D01*
X354936Y-106433D01*
X352937D01*
X351937Y-105434D01*
Y-101435D01*
X357935Y-106433D02*
X359934D01*
X358935D01*
Y-100435D01*
X357935Y-101435D01*
X362933Y-100435D02*
X366932D01*
Y-101435D01*
X362933Y-105434D01*
Y-106433D01*
X228999Y-101435D02*
X227999Y-100435D01*
X226000D01*
X225000Y-101435D01*
Y-105434D01*
X226000Y-106433D01*
X227999D01*
X228999Y-105434D01*
Y-103435D01*
X226999D01*
X234997Y-100435D02*
X230998D01*
Y-106433D01*
X234997D01*
X230998Y-103435D02*
X232997D01*
X236996Y-106433D02*
Y-100435D01*
X240995Y-106433D01*
Y-100435D01*
X246993D02*
X242994D01*
Y-106433D01*
X246993D01*
X242994Y-103435D02*
X244993D01*
X248992Y-106433D02*
Y-100435D01*
X251991D01*
X252991Y-101435D01*
Y-103435D01*
X251991Y-104434D01*
X248992D01*
X250992D02*
X252991Y-106433D01*
X254990D02*
Y-102435D01*
X256990Y-100435D01*
X258989Y-102435D01*
Y-106433D01*
Y-103435D01*
X254990D01*
X260988Y-100435D02*
X264987D01*
X262988D01*
Y-106433D01*
X270985Y-100435D02*
X266986D01*
Y-106433D01*
X270985D01*
X266986Y-103435D02*
X268986D01*
X272985Y-100435D02*
Y-106433D01*
X275984D01*
X276983Y-105434D01*
Y-101435D01*
X275984Y-100435D01*
X272985D01*
X302975Y-102435D02*
X303975D01*
Y-103435D01*
X302975D01*
Y-102435D01*
Y-105434D02*
X303975D01*
Y-106433D01*
X302975D01*
Y-105434D01*
X-22850Y-65567D02*
Y-61568D01*
X-20851Y-59569D01*
X-18851Y-61568D01*
Y-65567D01*
Y-62568D01*
X-22850D01*
X-16852Y-59569D02*
Y-65567D01*
X-12853D01*
X-10854Y-59569D02*
Y-65567D01*
X-6855D01*
X1142D02*
Y-61568D01*
X3142Y-59569D01*
X5141Y-61568D01*
Y-65567D01*
Y-62568D01*
X1142D01*
X7140Y-65567D02*
Y-59569D01*
X10139D01*
X11139Y-60568D01*
Y-62568D01*
X10139Y-63567D01*
X7140D01*
X9140D02*
X11139Y-65567D01*
X13138Y-59569D02*
X17137D01*
X15138D01*
Y-65567D01*
X19136Y-59569D02*
Y-65567D01*
X21136Y-63567D01*
X23135Y-65567D01*
Y-59569D01*
X28133D02*
X26134D01*
X25135Y-60568D01*
Y-64567D01*
X26134Y-65567D01*
X28133D01*
X29133Y-64567D01*
Y-60568D01*
X28133Y-59569D01*
X31133Y-65567D02*
Y-59569D01*
X34132D01*
X35131Y-60568D01*
Y-62568D01*
X34132Y-63567D01*
X31133D01*
X33132D02*
X35131Y-65567D01*
X37131Y-59569D02*
Y-65567D01*
Y-63567D01*
X41129Y-59569D01*
X38130Y-62568D01*
X41129Y-65567D01*
X49127Y-59569D02*
Y-63567D01*
X51126Y-65567D01*
X53125Y-63567D01*
Y-59569D01*
X55125D02*
X57124D01*
X56125D01*
Y-65567D01*
X55125D01*
X57124D01*
X64122Y-59569D02*
X60123D01*
Y-65567D01*
X64122D01*
X60123Y-62568D02*
X62122D01*
X66121Y-59569D02*
Y-65567D01*
X68121Y-63567D01*
X70120Y-65567D01*
Y-59569D01*
X76118D02*
X72119D01*
Y-65567D01*
X76118D01*
X72119Y-62568D02*
X74119D01*
X78117Y-59569D02*
Y-65567D01*
X81116D01*
X82116Y-64567D01*
Y-60568D01*
X81116Y-59569D01*
X78117D01*
X94112D02*
X90114D01*
Y-62568D01*
X92113D01*
X90114D01*
Y-65567D01*
X96112D02*
Y-59569D01*
X99111D01*
X100110Y-60568D01*
Y-62568D01*
X99111Y-63567D01*
X96112D01*
X98111D02*
X100110Y-65567D01*
X105109Y-59569D02*
X103109D01*
X102110Y-60568D01*
Y-64567D01*
X103109Y-65567D01*
X105109D01*
X106108Y-64567D01*
Y-60568D01*
X105109Y-59569D01*
X108108Y-65567D02*
Y-59569D01*
X110107Y-61568D01*
X112106Y-59569D01*
Y-65567D01*
X120104Y-59569D02*
X124102D01*
X122103D01*
Y-65567D01*
X129101Y-59569D02*
X127102D01*
X126102Y-60568D01*
Y-64567D01*
X127102Y-65567D01*
X129101D01*
X130101Y-64567D01*
Y-60568D01*
X129101Y-59569D01*
X132100Y-65567D02*
Y-59569D01*
X135099D01*
X136099Y-60568D01*
Y-62568D01*
X135099Y-63567D01*
X132100D01*
X148095Y-60568D02*
X147095Y-59569D01*
X145096D01*
X144096Y-60568D01*
Y-61568D01*
X145096Y-62568D01*
X147095D01*
X148095Y-63567D01*
Y-64567D01*
X147095Y-65567D01*
X145096D01*
X144096Y-64567D01*
X150094Y-59569D02*
X152093D01*
X151094D01*
Y-65567D01*
X150094D01*
X152093D01*
X155092Y-59569D02*
Y-65567D01*
X158091D01*
X159091Y-64567D01*
Y-60568D01*
X158091Y-59569D01*
X155092D01*
X165089D02*
X161091D01*
Y-65567D01*
X165089D01*
X161091Y-62568D02*
X163090D01*
X272000Y-61002D02*
X275332D01*
X273666D01*
Y-66000D01*
X276998Y-61002D02*
X278664D01*
X277831D01*
Y-66000D01*
X276998D01*
X278664D01*
X281164Y-61002D02*
Y-66000D01*
X283663D01*
X284496Y-65167D01*
Y-61835D01*
X283663Y-61002D01*
X281164D01*
X286162Y-66000D02*
Y-62668D01*
X287828Y-61002D01*
X289494Y-62668D01*
Y-66000D01*
Y-63501D01*
X286162D01*
X291160D02*
X294493D01*
X296159Y-61835D02*
X296992Y-61002D01*
X298658D01*
X299491Y-61835D01*
Y-65167D01*
X298658Y-66000D01*
X296992D01*
X296159Y-65167D01*
Y-61835D01*
X301157Y-66000D02*
X302823D01*
X301990D01*
Y-61002D01*
X301157Y-61835D01*
X308655Y-61002D02*
X305323D01*
Y-63501D01*
X306989Y-62668D01*
X307822D01*
X308655Y-63501D01*
Y-65167D01*
X307822Y-66000D01*
X306156D01*
X305323Y-65167D01*
X310321Y-61002D02*
X313653D01*
Y-61835D01*
X310321Y-65167D01*
Y-66000D01*
X318652Y-61002D02*
X316985Y-61835D01*
X315319Y-63501D01*
Y-65167D01*
X316152Y-66000D01*
X317818D01*
X318652Y-65167D01*
Y-64334D01*
X317818Y-63501D01*
X315319D01*
X320318Y-66833D02*
X323650D01*
X325316Y-61002D02*
Y-66000D01*
X327815D01*
X328648Y-65167D01*
Y-61835D01*
X327815Y-61002D01*
X325316D01*
X330314D02*
Y-65167D01*
X331148Y-66000D01*
X332814D01*
X333647Y-65167D01*
Y-61002D01*
X335313Y-66000D02*
Y-62668D01*
X336979Y-61002D01*
X338645Y-62668D01*
Y-66000D01*
Y-63501D01*
X335313D01*
X340311Y-61002D02*
Y-66000D01*
X343643D01*
X345310Y-66833D02*
X348642D01*
X353640Y-61835D02*
X352807Y-61002D01*
X351141D01*
X350308Y-61835D01*
Y-62668D01*
X351141Y-63501D01*
X352807D01*
X353640Y-64334D01*
Y-65167D01*
X352807Y-66000D01*
X351141D01*
X350308Y-65167D01*
X355306Y-61002D02*
Y-66000D01*
X357805D01*
X358639Y-65167D01*
Y-61835D01*
X357805Y-61002D01*
X355306D01*
X362804D02*
X361138D01*
X360305Y-61835D01*
Y-65167D01*
X361138Y-66000D01*
X362804D01*
X363637Y-65167D01*
Y-61835D01*
X362804Y-61002D01*
X224800Y-59569D02*
Y-65567D01*
X227799D01*
X228799Y-64567D01*
Y-63567D01*
X227799Y-62568D01*
X224800D01*
X227799D01*
X228799Y-61568D01*
Y-60568D01*
X227799Y-59569D01*
X224800D01*
X233797D02*
X231798D01*
X230798Y-60568D01*
Y-64567D01*
X231798Y-65567D01*
X233797D01*
X234797Y-64567D01*
Y-60568D01*
X233797Y-59569D01*
X236796Y-65567D02*
Y-61568D01*
X238795Y-59569D01*
X240795Y-61568D01*
Y-65567D01*
Y-62568D01*
X236796D01*
X242794Y-65567D02*
Y-59569D01*
X245793D01*
X246793Y-60568D01*
Y-62568D01*
X245793Y-63567D01*
X242794D01*
X244794D02*
X246793Y-65567D01*
X248792Y-59569D02*
Y-65567D01*
X251791D01*
X252791Y-64567D01*
Y-60568D01*
X251791Y-59569D01*
X248792D01*
X261788Y-65567D02*
Y-59569D01*
X263787D02*
Y-65567D01*
X260788Y-61568D02*
X263787D01*
X264787D01*
X260788Y-63567D02*
X264787D01*
X266786Y-61568D02*
X267786D01*
Y-62568D01*
X266786D01*
Y-61568D01*
Y-64567D02*
X267786D01*
Y-65567D01*
X266786D01*
Y-64567D01*
X-22850Y-79851D02*
Y-85849D01*
X-18851D01*
X-16852D02*
Y-81851D01*
X-14853Y-79851D01*
X-12853Y-81851D01*
Y-85849D01*
Y-82850D01*
X-16852D01*
X-10854Y-79851D02*
Y-80851D01*
X-8855Y-82850D01*
X-6855Y-80851D01*
Y-79851D01*
X-8855Y-82850D02*
Y-85849D01*
X-857Y-79851D02*
X-4856D01*
Y-85849D01*
X-857D01*
X-4856Y-82850D02*
X-2857D01*
X1142Y-85849D02*
Y-79851D01*
X4141D01*
X5141Y-80851D01*
Y-82850D01*
X4141Y-83850D01*
X1142D01*
X3142D02*
X5141Y-85849D01*
X13138D02*
Y-79851D01*
X17137Y-85849D01*
Y-79851D01*
X19136Y-85849D02*
Y-81851D01*
X21136Y-79851D01*
X23135Y-81851D01*
Y-85849D01*
Y-82850D01*
X19136D01*
X25135Y-85849D02*
Y-79851D01*
X27134Y-81851D01*
X29133Y-79851D01*
Y-85849D01*
X35131Y-79851D02*
X31133D01*
Y-85849D01*
X35131D01*
X31133Y-82850D02*
X33132D01*
X43129Y-83850D02*
X47127D01*
X43129Y-81851D02*
X47127D01*
X-22850Y-106433D02*
Y-100435D01*
X-19851D01*
X-18851Y-101435D01*
Y-103435D01*
X-19851Y-104434D01*
X-22850D01*
X-16852Y-100435D02*
Y-106433D01*
X-12853D01*
X-7855Y-100435D02*
X-9854D01*
X-10854Y-101435D01*
Y-105434D01*
X-9854Y-106433D01*
X-7855D01*
X-6855Y-105434D01*
Y-101435D01*
X-7855Y-100435D01*
X-4856D02*
X-857D01*
X-2857D01*
Y-106433D01*
X7140D02*
Y-100435D01*
X11139Y-106433D01*
Y-100435D01*
X13138Y-106433D02*
Y-102435D01*
X15138Y-100435D01*
X17137Y-102435D01*
Y-106433D01*
Y-103435D01*
X13138D01*
X19136Y-106433D02*
Y-100435D01*
X21136Y-102435D01*
X23135Y-100435D01*
Y-106433D01*
X29133Y-100435D02*
X25135D01*
Y-106433D01*
X29133D01*
X25135Y-103435D02*
X27134D01*
X37131Y-104434D02*
X41129D01*
X37131Y-102435D02*
X41129D01*
X384850Y-101435D02*
X385850Y-100435D01*
X387849D01*
X388849Y-101435D01*
Y-102435D01*
X387849Y-103435D01*
X386849D01*
X387849D01*
X388849Y-104434D01*
Y-105434D01*
X387849Y-106433D01*
X385850D01*
X384850Y-105434D01*
X390848Y-102435D02*
X391848D01*
Y-103435D01*
X390848D01*
Y-102435D01*
Y-105434D02*
X391848D01*
Y-106433D01*
X390848D01*
Y-105434D01*
X399845Y-100435D02*
X395846D01*
Y-103435D01*
X397846Y-102435D01*
X398846D01*
X399845Y-103435D01*
Y-105434D01*
X398846Y-106433D01*
X396846D01*
X395846Y-105434D01*
X404844Y-106433D02*
Y-100435D01*
X401845Y-103435D01*
X405843D01*
X407843Y-102435D02*
X408842D01*
Y-103435D01*
X407843D01*
Y-102435D01*
Y-105434D02*
X408842D01*
Y-106433D01*
X407843D01*
Y-105434D01*
X412841Y-101435D02*
X413841Y-100435D01*
X415840D01*
X416840Y-101435D01*
Y-102435D01*
X415840Y-103435D01*
X414840D01*
X415840D01*
X416840Y-104434D01*
Y-105434D01*
X415840Y-106433D01*
X413841D01*
X412841Y-105434D01*
X418839Y-101435D02*
X419839Y-100435D01*
X421838D01*
X422838Y-101435D01*
Y-105434D01*
X421838Y-106433D01*
X419839D01*
X418839Y-105434D01*
Y-101435D01*
X430835Y-106433D02*
Y-100435D01*
X433834D01*
X434834Y-101435D01*
Y-103435D01*
X433834Y-104434D01*
X430835D01*
X436833Y-106433D02*
Y-100435D01*
X438833Y-102435D01*
X440832Y-100435D01*
Y-106433D01*
X511300Y-100435D02*
X515299D01*
X513299D01*
Y-106433D01*
X521297Y-100435D02*
X517298D01*
Y-106433D01*
X521297D01*
X517298Y-103435D02*
X519297D01*
X523296Y-100435D02*
X527295Y-106433D01*
Y-100435D02*
X523296Y-106433D01*
X529294D02*
Y-102435D01*
X531293Y-100435D01*
X533293Y-102435D01*
Y-106433D01*
Y-103435D01*
X529294D01*
X539291Y-101435D02*
X538291Y-100435D01*
X536292D01*
X535292Y-101435D01*
Y-102435D01*
X536292Y-103435D01*
X538291D01*
X539291Y-104434D01*
Y-105434D01*
X538291Y-106433D01*
X536292D01*
X535292Y-105434D01*
X547288Y-100435D02*
X549288D01*
X548288D01*
Y-106433D01*
X547288D01*
X549288D01*
X552287D02*
Y-100435D01*
X556285Y-106433D01*
Y-100435D01*
X562284Y-101435D02*
X561284Y-100435D01*
X559284D01*
X558285Y-101435D01*
Y-102435D01*
X559284Y-103435D01*
X561284D01*
X562284Y-104434D01*
Y-105434D01*
X561284Y-106433D01*
X559284D01*
X558285Y-105434D01*
X564283Y-100435D02*
X568282D01*
X566282D01*
Y-106433D01*
X570281D02*
Y-100435D01*
X573280D01*
X574280Y-101435D01*
Y-103435D01*
X573280Y-104434D01*
X570281D01*
X572280D02*
X574280Y-106433D01*
X576279Y-100435D02*
Y-105434D01*
X577279Y-106433D01*
X579278D01*
X580278Y-105434D01*
Y-100435D01*
X582277Y-106433D02*
Y-100435D01*
X584276Y-102435D01*
X586276Y-100435D01*
Y-106433D01*
X592274Y-100435D02*
X588275D01*
Y-106433D01*
X592274D01*
X588275Y-103435D02*
X590274D01*
X594273Y-106433D02*
Y-100435D01*
X598272Y-106433D01*
Y-100435D01*
X600271D02*
X604270D01*
X602271D01*
Y-106433D01*
X610268Y-101435D02*
X609268Y-100435D01*
X607269D01*
X606269Y-101435D01*
Y-102435D01*
X607269Y-103435D01*
X609268D01*
X610268Y-104434D01*
Y-105434D01*
X609268Y-106433D01*
X607269D01*
X606269Y-105434D01*
G54D56*
X153500Y253800D02*
G03*
X153500Y253800I-2500J0D01*
G01*
X170400Y122000D02*
G03*
X170400Y122000I-2500J0D01*
G01*
X92000Y78000D02*
G03*
X92000Y78000I-2500J0D01*
G01*
X204800Y36500D02*
G03*
X204800Y36500I-2500J0D01*
G01*
X177600Y107600D02*
G03*
X177600Y107600I-2500J0D01*
G01*
X213500Y104500D02*
G03*
X213500Y104500I-2500J0D01*
G01*
X210000Y110500D02*
G03*
X210000Y110500I-2500J0D01*
G01*
X69000Y194500D02*
G03*
X69000Y194500I-2500J0D01*
G01*
X197900Y65150D02*
G03*
X197900Y65150I-2500J0D01*
G01*
X214900Y264000D02*
G03*
X214900Y264000I-2500J0D01*
G01*
X189000Y218000D02*
G03*
X189000Y218000I-2500J0D01*
G01*
X238000Y243500D02*
G03*
X238000Y243500I-2500J0D01*
G01*
X176500Y269200D02*
G03*
X176500Y269200I-2500J0D01*
G01*
X115000Y134500D02*
G03*
X115000Y134500I-2500J0D01*
G01*
X171000Y136000D02*
G03*
X171000Y136000I-2500J0D01*
G01*
X167800Y97600D02*
G03*
X167800Y97600I-2500J0D01*
G01*
X164091Y104500D02*
G03*
X164091Y104500I-2500J0D01*
G01*
X196400Y83400D02*
G03*
X196400Y83400I-2500J0D01*
G01*
X114500Y163500D02*
G03*
X114500Y163500I-2500J0D01*
G01*
X108500Y246000D02*
G03*
X108500Y246000I-2500J0D01*
G01*
Y266500D02*
G03*
X108500Y266500I-2500J0D01*
G01*
X164000Y203500D02*
G03*
X164000Y203500I-2500J0D01*
G01*
X158133Y250111D02*
G03*
X158133Y250111I-2500J0D01*
G01*
X162650Y171500D02*
G03*
X162650Y171500I-2500J0D01*
G01*
G54D57*
X223618Y154500D02*
G03*
X223618Y154500I-1118J0D01*
G01*
X201500Y106500D02*
G03*
X201500Y106500I-500J0D01*
G01*
X205500Y143000D02*
G03*
X205500Y143000I-500J0D01*
G01*
X173400Y103300D02*
X174600Y104500D01*
X172700Y103300D02*
X173400D01*
X187600Y79200D02*
X191000D01*
Y75200D02*
Y79200D01*
Y71200D02*
Y75200D01*
X187600Y71200D02*
X191000D01*
X176200D02*
X179600D01*
X176200D02*
Y75200D01*
Y79200D01*
X179600D01*
X4996Y146450D02*
X10606D01*
Y152550D02*
X18100D01*
X4996D02*
X10606D01*
Y146450D02*
X18100D01*
X197750Y79568D02*
X204050D01*
X197750Y74032D02*
X204050D01*
X133459Y343173D02*
X153459D01*
X133459D02*
Y368763D01*
X153459D01*
Y343173D02*
Y368763D01*
X133459Y366992D02*
X153459D01*
X133459Y361480D02*
X153459D01*
X133459Y350456D02*
X153459D01*
X133459Y348094D02*
X153459D01*
X150506Y343173D02*
Y348094D01*
X146412Y343173D02*
Y348094D01*
X140506Y343173D02*
Y348094D01*
X136412Y343173D02*
Y348094D01*
X150546Y345338D02*
X153459D01*
X140703D02*
X146215D01*
X133459D02*
X136372D01*
X146609Y344157D02*
X150506D01*
X136766D02*
X140309D01*
X146609Y346125D02*
X150506D01*
X136766D02*
X140309D01*
X238858Y55575D02*
X241142D01*
X238858Y52425D02*
X241142D01*
X237550Y49150D02*
X240050D01*
X241900D02*
X244400D01*
X240000Y47200D02*
Y51200D01*
X241900Y47300D02*
Y51000D01*
X240050Y49150D02*
X241900Y51000D01*
X240050Y49150D02*
X241900Y47300D01*
X206000Y99500D02*
Y103500D01*
X204000Y101500D02*
X208000D01*
X222539Y289744D02*
X240532D01*
X222539Y305256D02*
X240532D01*
X214535Y303000D02*
Y306000D01*
Y303000D02*
X216035Y304500D01*
X214535Y306000D02*
X216035Y304500D01*
Y302500D02*
Y306500D01*
Y304500D02*
X217535Y306000D01*
Y303000D02*
Y306000D01*
X216035Y304500D02*
X217535Y303000D01*
Y304500D02*
X220035D01*
X212535Y305000D02*
X214535D01*
X215035Y307500D02*
X216035Y306500D01*
Y302500D02*
X217035Y301500D01*
X98000Y87000D02*
X100500D01*
Y89500D01*
X99000Y84500D02*
X101500Y87000D01*
X99000Y73000D02*
Y84500D01*
Y73000D02*
X100500Y71500D01*
X158500D01*
Y87000D01*
X101500D02*
X158500D01*
X96000Y91500D02*
X100500Y87000D01*
X96000Y91500D02*
Y93500D01*
X90830Y94500D02*
X100500D01*
X103000Y97000D01*
Y107000D01*
X102000Y108000D02*
X103000Y107000D01*
X101500Y108000D02*
X102000D01*
X61026Y96556D02*
X63082Y94500D01*
X63500D01*
X29639Y257450D02*
Y277450D01*
X4049Y257450D02*
X29639D01*
X4049D02*
Y277450D01*
X29639D01*
X5820Y257450D02*
Y277450D01*
X11332Y257450D02*
Y277450D01*
X22356Y257450D02*
Y277450D01*
X24718Y257450D02*
Y277450D01*
Y274497D02*
X29639D01*
X24718Y270403D02*
X29639D01*
X24718Y264497D02*
X29639D01*
X24718Y260403D02*
X29639D01*
X27474Y274537D02*
Y277450D01*
Y264694D02*
Y270206D01*
Y257450D02*
Y260363D01*
X28655Y270600D02*
Y274497D01*
Y260757D02*
Y264300D01*
X26687Y270600D02*
Y274497D01*
Y260757D02*
Y264300D01*
X102057Y346413D02*
X105600D01*
X111900D02*
X115797D01*
X102057Y344445D02*
X105600D01*
X111900D02*
X115797D01*
X98750Y345626D02*
X101663D01*
X105994D02*
X111506D01*
X115837D02*
X118750D01*
X101703Y343461D02*
Y348382D01*
X105797Y343461D02*
Y348382D01*
X111703Y343461D02*
Y348382D01*
X115797Y343461D02*
Y348382D01*
X98750D02*
X118750D01*
X98750Y350744D02*
X118750D01*
X98750Y361768D02*
X118750D01*
X98750Y367280D02*
X118750D01*
Y343461D02*
Y369051D01*
X98750D02*
X118750D01*
X98750Y343461D02*
Y369051D01*
Y343461D02*
X118750D01*
X30527Y122509D02*
Y142509D01*
X4937Y122509D02*
X30527D01*
X4937D02*
Y142509D01*
X30527D01*
X6708Y122509D02*
Y142509D01*
X12220Y122509D02*
Y142509D01*
X23244Y122509D02*
Y142509D01*
X25606Y122509D02*
Y142509D01*
Y139556D02*
X30527D01*
X25606Y135462D02*
X30527D01*
X25606Y129556D02*
X30527D01*
X25606Y125462D02*
X30527D01*
X28362Y139596D02*
Y142509D01*
Y129753D02*
Y135265D01*
Y122509D02*
Y125422D01*
X29543Y135659D02*
Y139556D01*
Y125816D02*
Y129359D01*
X27575Y135659D02*
Y139556D01*
Y125816D02*
Y129359D01*
Y158816D02*
Y162359D01*
Y168659D02*
Y172556D01*
X29543Y158816D02*
Y162359D01*
Y168659D02*
Y172556D01*
X28362Y155509D02*
Y158422D01*
Y162753D02*
Y168265D01*
Y172596D02*
Y175509D01*
X25606Y158462D02*
X30527D01*
X25606Y162556D02*
X30527D01*
X25606Y168462D02*
X30527D01*
X25606Y172556D02*
X30527D01*
X25606Y155509D02*
Y175509D01*
X23244Y155509D02*
Y175509D01*
X12220Y155509D02*
Y175509D01*
X6708Y155509D02*
Y175509D01*
X4937D02*
X30527D01*
X4937Y155509D02*
Y175509D01*
Y155509D02*
X30527D01*
Y175509D01*
X167350Y29224D02*
X187350D01*
Y3634D02*
Y29224D01*
X167350Y3634D02*
X187350D01*
X167350D02*
Y29224D01*
Y5405D02*
X187350D01*
X167350Y10917D02*
X187350D01*
X167350Y21941D02*
X187350D01*
X167350Y24303D02*
X187350D01*
X170303D02*
Y29224D01*
X174397Y24303D02*
Y29224D01*
X180303Y24303D02*
Y29224D01*
X184397Y24303D02*
Y29224D01*
X167350Y27059D02*
X170263D01*
X174594D02*
X180106D01*
X184437D02*
X187350D01*
X170303Y28240D02*
X174200D01*
X180500D02*
X184043D01*
X170303Y26272D02*
X174200D01*
X180500D02*
X184043D01*
X146500D02*
X150043D01*
X136303D02*
X140200D01*
X146500Y28240D02*
X150043D01*
X136303D02*
X140200D01*
X150437Y27059D02*
X153350D01*
X140594D02*
X146106D01*
X133350D02*
X136263D01*
X150397Y24303D02*
Y29224D01*
X146303Y24303D02*
Y29224D01*
X140397Y24303D02*
Y29224D01*
X136303Y24303D02*
Y29224D01*
X133350Y24303D02*
X153350D01*
X133350Y21941D02*
X153350D01*
X133350Y10917D02*
X153350D01*
X133350Y5405D02*
X153350D01*
X133350Y3634D02*
Y29224D01*
Y3634D02*
X153350D01*
Y29224D01*
X133350D02*
X153350D01*
X102000Y29724D02*
X122000D01*
Y4134D02*
Y29724D01*
X102000Y4134D02*
X122000D01*
X102000D02*
Y29724D01*
Y5905D02*
X122000D01*
X102000Y11417D02*
X122000D01*
X102000Y22441D02*
X122000D01*
X102000Y24803D02*
X122000D01*
X104953D02*
Y29724D01*
X109047Y24803D02*
Y29724D01*
X114953Y24803D02*
Y29724D01*
X119047Y24803D02*
Y29724D01*
X102000Y27559D02*
X104913D01*
X109244D02*
X114756D01*
X119087D02*
X122000D01*
X104953Y28740D02*
X108850D01*
X115150D02*
X118693D01*
X104953Y26772D02*
X108850D01*
X115150D02*
X118693D01*
X85150D02*
X88693D01*
X74953D02*
X78850D01*
X85150Y28740D02*
X88693D01*
X74953D02*
X78850D01*
X89087Y27559D02*
X92000D01*
X79244D02*
X84756D01*
X72000D02*
X74913D01*
X89047Y24803D02*
Y29724D01*
X84953Y24803D02*
Y29724D01*
X79047Y24803D02*
Y29724D01*
X74953Y24803D02*
Y29724D01*
X72000Y24803D02*
X92000D01*
X72000Y22441D02*
X92000D01*
X72000Y11417D02*
X92000D01*
X72000Y5905D02*
X92000D01*
X72000Y4134D02*
Y29724D01*
Y4134D02*
X92000D01*
Y29724D01*
X72000D02*
X92000D01*
X31027Y54509D02*
Y74509D01*
X5437Y54509D02*
X31027D01*
X5437D02*
Y74509D01*
X31027D01*
X7208Y54509D02*
Y74509D01*
X12720Y54509D02*
Y74509D01*
X23744Y54509D02*
Y74509D01*
X26106Y54509D02*
Y74509D01*
Y71556D02*
X31027D01*
X26106Y67462D02*
X31027D01*
X26106Y61556D02*
X31027D01*
X26106Y57462D02*
X31027D01*
X28862Y71596D02*
Y74509D01*
Y61753D02*
Y67265D01*
Y54509D02*
Y57422D01*
X30043Y67659D02*
Y71556D01*
Y57816D02*
Y61359D01*
X28075Y67659D02*
Y71556D01*
Y57816D02*
Y61359D01*
X27575Y93571D02*
Y97114D01*
Y103414D02*
Y107311D01*
X29543Y93571D02*
Y97114D01*
Y103414D02*
Y107311D01*
X28362Y90264D02*
Y93177D01*
Y97508D02*
Y103020D01*
Y107351D02*
Y110264D01*
X25606Y93217D02*
X30527D01*
X25606Y97311D02*
X30527D01*
X25606Y103217D02*
X30527D01*
X25606Y107311D02*
X30527D01*
X25606Y90264D02*
Y110264D01*
X23244Y90264D02*
Y110264D01*
X12220Y90264D02*
Y110264D01*
X6708Y90264D02*
Y110264D01*
X4937D02*
X30527D01*
X4937Y90264D02*
Y110264D01*
Y90264D02*
X30527D01*
Y110264D01*
X224410Y266000D02*
Y286000D01*
X250000D01*
Y266000D02*
Y286000D01*
X224410Y266000D02*
X250000D01*
X248229D02*
Y286000D01*
X242717Y266000D02*
Y286000D01*
X231693Y266000D02*
Y286000D01*
X229331Y266000D02*
Y286000D01*
X224410Y268953D02*
X229331D01*
X224410Y273047D02*
X229331D01*
X224410Y278953D02*
X229331D01*
X224410Y283047D02*
X229331D01*
X226575Y266000D02*
Y268913D01*
Y273244D02*
Y278756D01*
Y283087D02*
Y286000D01*
X225394Y268953D02*
Y272850D01*
Y279150D02*
Y282693D01*
X227362Y268953D02*
Y272850D01*
Y279150D02*
Y282693D01*
X26687Y295257D02*
Y298800D01*
Y305100D02*
Y308997D01*
X28655Y295257D02*
Y298800D01*
Y305100D02*
Y308997D01*
X27474Y291950D02*
Y294863D01*
Y299194D02*
Y304706D01*
Y309037D02*
Y311950D01*
X24718Y294903D02*
X29639D01*
X24718Y298997D02*
X29639D01*
X24718Y304903D02*
X29639D01*
X24718Y308997D02*
X29639D01*
X24718Y291950D02*
Y311950D01*
X22356Y291950D02*
Y311950D01*
X11332Y291950D02*
Y311950D01*
X5820Y291950D02*
Y311950D01*
X4049D02*
X29639D01*
X4049Y291950D02*
Y311950D01*
Y291950D02*
X29639D01*
Y311950D01*
X60750Y343961D02*
X80750D01*
X60750D02*
Y369551D01*
X80750D01*
Y343961D02*
Y369551D01*
X60750Y367780D02*
X80750D01*
X60750Y362268D02*
X80750D01*
X60750Y351244D02*
X80750D01*
X60750Y348882D02*
X80750D01*
X77797Y343961D02*
Y348882D01*
X73703Y343961D02*
Y348882D01*
X67797Y343961D02*
Y348882D01*
X63703Y343961D02*
Y348882D01*
X77837Y346126D02*
X80750D01*
X67994D02*
X73506D01*
X60750D02*
X63663D01*
X73900Y344945D02*
X77797D01*
X64057D02*
X67600D01*
X73900Y346913D02*
X77797D01*
X64057D02*
X67600D01*
X27269Y226066D02*
Y229609D01*
Y235909D02*
Y239806D01*
X29237Y226066D02*
Y229609D01*
Y235909D02*
Y239806D01*
X28056Y222759D02*
Y225672D01*
Y230003D02*
Y235515D01*
Y239846D02*
Y242759D01*
X25300Y225712D02*
X30221D01*
X25300Y229806D02*
X30221D01*
X25300Y235712D02*
X30221D01*
X25300Y239806D02*
X30221D01*
X25300Y222759D02*
Y242759D01*
X22938Y222759D02*
Y242759D01*
X11914Y222759D02*
Y242759D01*
X6402Y222759D02*
Y242759D01*
X4631D02*
X30221D01*
X4631Y222759D02*
Y242759D01*
Y222759D02*
X30221D01*
Y242759D01*
X31027Y189359D02*
Y209359D01*
X5437Y189359D02*
X31027D01*
X5437D02*
Y209359D01*
X31027D01*
X7208Y189359D02*
Y209359D01*
X12720Y189359D02*
Y209359D01*
X23744Y189359D02*
Y209359D01*
X26106Y189359D02*
Y209359D01*
Y206406D02*
X31027D01*
X26106Y202312D02*
X31027D01*
X26106Y196406D02*
X31027D01*
X26106Y192312D02*
X31027D01*
X28862Y206446D02*
Y209359D01*
Y196603D02*
Y202115D01*
Y189359D02*
Y192272D01*
X30043Y202509D02*
Y206406D01*
Y192666D02*
Y196209D01*
X28075Y202509D02*
Y206406D01*
Y192666D02*
Y196209D01*
X173094Y346887D02*
X176637D01*
X182937D02*
X186834D01*
X173094Y344919D02*
X176637D01*
X182937D02*
X186834D01*
X169787Y346100D02*
X172700D01*
X177031D02*
X182543D01*
X186874D02*
X189787D01*
X172740Y343935D02*
Y348856D01*
X176834Y343935D02*
Y348856D01*
X182740Y343935D02*
Y348856D01*
X186834Y343935D02*
Y348856D01*
X169787D02*
X189787D01*
X169787Y351218D02*
X189787D01*
X169787Y362242D02*
X189787D01*
X169787Y367754D02*
X189787D01*
Y343935D02*
Y369525D01*
X169787D02*
X189787D01*
X169787Y343935D02*
Y369525D01*
Y343935D02*
X189787D01*
X156350Y353900D02*
Y361394D01*
X162450D02*
Y367004D01*
Y353900D02*
Y361394D01*
X156350D02*
Y367004D01*
X192950Y353900D02*
Y361394D01*
X199050D02*
Y367004D01*
Y353900D02*
Y361394D01*
X192950D02*
Y367004D01*
X10606Y212950D02*
X18100D01*
X4996Y219050D02*
X10606D01*
X18100D01*
X4996Y212950D02*
X10606D01*
X10406Y245850D02*
X17900D01*
X4796Y251950D02*
X10406D01*
X17900D01*
X4796Y245850D02*
X10406D01*
X129850Y5196D02*
Y10806D01*
X123750D02*
Y18300D01*
Y5196D02*
Y10806D01*
X129850D02*
Y18300D01*
X163750Y4996D02*
Y10606D01*
X157650D02*
Y18100D01*
Y4996D02*
Y10606D01*
X163750D02*
Y18100D01*
X69050Y4996D02*
Y10606D01*
X62950D02*
Y18100D01*
Y4996D02*
Y10606D01*
X69050D02*
Y18100D01*
X100050Y4996D02*
Y10606D01*
X93950D02*
Y18100D01*
Y4996D02*
Y10606D01*
X100050D02*
Y18100D01*
X4996Y179250D02*
X10606D01*
Y185350D02*
X18100D01*
X4996D02*
X10606D01*
Y179250D02*
X18100D01*
X122250Y353800D02*
Y361294D01*
X128350D02*
Y366904D01*
Y353800D02*
Y361294D01*
X122250D02*
Y366904D01*
X84350Y353800D02*
Y361294D01*
X90450D02*
Y366904D01*
Y353800D02*
Y361294D01*
X84350D02*
Y366904D01*
X10506Y315250D02*
X18000D01*
X4896Y321350D02*
X10506D01*
X18000D01*
X4896Y315250D02*
X10506D01*
Y282900D02*
X18000D01*
X4896Y289000D02*
X10506D01*
X18000D01*
X4896Y282900D02*
X10506D01*
X4996Y113950D02*
X10606D01*
Y120050D02*
X18100D01*
X4996D02*
X10606D01*
Y113950D02*
X18100D01*
X5096Y78150D02*
X10706D01*
Y84250D02*
X18200D01*
X5096D02*
X10706D01*
Y78150D02*
X18200D01*
X180502Y171273D02*
X183100D01*
X180502D02*
Y176720D01*
X183100D01*
X189900D02*
X192498D01*
Y171273D02*
Y176720D01*
X189900Y171273D02*
X192498D01*
X185768Y179850D02*
Y186150D01*
X180231Y179850D02*
Y186150D01*
X190000Y158000D02*
Y162000D01*
X188000Y160000D02*
X192000D01*
X137000Y148000D02*
X141000D01*
X139000Y146000D02*
Y150000D01*
X196600Y180700D02*
X198450Y178850D01*
X196600Y177000D02*
X198450Y178850D01*
X196600Y177000D02*
Y180700D01*
X198500Y176800D02*
Y180800D01*
X194100Y178850D02*
X196600D01*
X198450D02*
X200950D01*
X197358Y175575D02*
X199642D01*
X197358Y172425D02*
X199642D01*
X213858Y72575D02*
X216142D01*
X213858Y69425D02*
X216142D01*
X212550Y66150D02*
X215050D01*
X216900D02*
X219400D01*
X215000Y64200D02*
Y68200D01*
X216900Y64300D02*
Y68000D01*
X215050Y66150D02*
X216900Y68000D01*
X215050Y66150D02*
X216900Y64300D01*
X240000Y260500D02*
X241850Y258650D01*
X240000Y260500D02*
X241850Y262350D01*
Y258650D02*
Y262350D01*
X240000Y258500D02*
Y262500D01*
X242000Y260500D02*
X244500D01*
X237500D02*
X240000D01*
X238858Y253925D02*
X241142D01*
X238858Y257075D02*
X241142D01*
X61026Y96556D02*
Y104056D01*
X63401Y106430D01*
X67928Y108000D02*
X101500D01*
X63500Y94500D02*
X83330D01*
X90830D01*
X76000Y248600D02*
Y279300D01*
X74100Y250500D02*
X76000Y248600D01*
X74000Y250500D02*
X74100D01*
X76000Y248600D02*
X77900Y250500D01*
X193700Y70600D02*
Y79600D01*
X191800Y68700D02*
X193700Y70600D01*
X184000Y204000D02*
X187400D01*
Y200000D02*
Y204000D01*
Y196000D02*
Y200000D01*
X184000Y196000D02*
X187400D01*
X172600D02*
X176000D01*
X172600D02*
Y200000D01*
Y204000D01*
X176000D01*
X145000Y195000D02*
X142001D01*
Y196500D01*
X142501Y196999D01*
X143500D01*
X144000Y196500D01*
Y195000D01*
Y196000D02*
X145000Y196999D01*
Y197999D02*
Y198999D01*
Y198499D01*
X142001D01*
X142501Y197999D01*
X142001Y202498D02*
Y200498D01*
X143500D01*
X143001Y201498D01*
Y201998D01*
X143500Y202498D01*
X144500D01*
X145000Y201998D01*
Y200998D01*
X144500Y200498D01*
Y203497D02*
X145000Y203997D01*
Y204997D01*
X144500Y205497D01*
X142501D01*
X142001Y204997D01*
Y203997D01*
X142501Y203497D01*
X143001D01*
X143500Y203997D01*
Y205497D01*
X191501Y217500D02*
X194000D01*
X194500Y218000D01*
Y219000D01*
X194000Y219499D01*
X191501D01*
Y222498D02*
Y220499D01*
X193000D01*
X192501Y221499D01*
Y221999D01*
X193000Y222498D01*
X194000D01*
X194500Y221999D01*
Y220999D01*
X194000Y220499D01*
X184500Y244000D02*
Y246999D01*
X186000D01*
X186499Y246499D01*
Y245499D01*
X186000Y245000D01*
X184500D01*
X185500D02*
X186499Y244000D01*
X187499D02*
X188499D01*
X187999D01*
Y246999D01*
X187499Y246499D01*
X191998Y246999D02*
X189998D01*
Y245499D01*
X190998Y245999D01*
X191498D01*
X191998Y245499D01*
Y244500D01*
X191498Y244000D01*
X190498D01*
X189998Y244500D01*
X192997Y246499D02*
X193497Y246999D01*
X194497D01*
X194997Y246499D01*
Y245999D01*
X194497Y245499D01*
X194997Y245000D01*
Y244500D01*
X194497Y244000D01*
X193497D01*
X192997Y244500D01*
Y245000D01*
X193497Y245499D01*
X192997Y245999D01*
Y246499D01*
X193497Y245499D02*
X194497D01*
X184500Y250500D02*
Y253499D01*
X186000D01*
X186499Y252999D01*
Y251999D01*
X186000Y251500D01*
X184500D01*
X185500D02*
X186499Y250500D01*
X187499D02*
X188499D01*
X187999D01*
Y253499D01*
X187499Y252999D01*
X191998Y253499D02*
X189998D01*
Y251999D01*
X190998Y252499D01*
X191498D01*
X191998Y251999D01*
Y251000D01*
X191498Y250500D01*
X190498D01*
X189998Y251000D01*
X192997Y252999D02*
X193497Y253499D01*
X194497D01*
X194997Y252999D01*
Y252499D01*
X194497Y251999D01*
X193997D01*
X194497D01*
X194997Y251500D01*
Y251000D01*
X194497Y250500D01*
X193497D01*
X192997Y251000D01*
X184500Y237500D02*
Y240499D01*
X186000D01*
X186499Y239999D01*
Y239000D01*
X186000Y238500D01*
X184500D01*
X185500D02*
X186499Y237500D01*
X187499D02*
X188499D01*
X187999D01*
Y240499D01*
X187499Y239999D01*
X191998Y240499D02*
X189998D01*
Y239000D01*
X190998Y239499D01*
X191498D01*
X191998Y239000D01*
Y238000D01*
X191498Y237500D01*
X190498D01*
X189998Y238000D01*
X194997Y237500D02*
X192997D01*
X194997Y239499D01*
Y239999D01*
X194497Y240499D01*
X193497D01*
X192997Y239999D01*
X213999Y204499D02*
X213499Y204999D01*
X212500D01*
X212000Y204499D01*
Y202500D01*
X212500Y202000D01*
X213499D01*
X213999Y202500D01*
X216998Y204999D02*
X215999Y204499D01*
X214999Y203500D01*
Y202500D01*
X215499Y202000D01*
X216498D01*
X216998Y202500D01*
Y203000D01*
X216498Y203500D01*
X214999D01*
X217998Y202500D02*
X218498Y202000D01*
X219498D01*
X219997Y202500D01*
Y204499D01*
X219498Y204999D01*
X218498D01*
X217998Y204499D01*
Y203999D01*
X218498Y203500D01*
X219997D01*
X215499Y195999D02*
X215000Y196499D01*
X214000D01*
X213500Y195999D01*
Y194000D01*
X214000Y193500D01*
X215000D01*
X215499Y194000D01*
X218498Y196499D02*
X217499Y195999D01*
X216499Y195000D01*
Y194000D01*
X216999Y193500D01*
X217999D01*
X218498Y194000D01*
Y194500D01*
X217999Y195000D01*
X216499D01*
X219498Y195999D02*
X219998Y196499D01*
X220998D01*
X221497Y195999D01*
Y195499D01*
X220998Y195000D01*
X221497Y194500D01*
Y194000D01*
X220998Y193500D01*
X219998D01*
X219498Y194000D01*
Y194500D01*
X219998Y195000D01*
X219498Y195499D01*
Y195999D01*
X219998Y195000D02*
X220998D01*
X214999Y232499D02*
X214499Y232999D01*
X213500D01*
X213000Y232499D01*
Y230500D01*
X213500Y230000D01*
X214499D01*
X214999Y230500D01*
X217998Y232999D02*
X216999Y232499D01*
X215999Y231500D01*
Y230500D01*
X216499Y230000D01*
X217498D01*
X217998Y230500D01*
Y231000D01*
X217498Y231500D01*
X215999D01*
X220997Y232999D02*
X219998Y232499D01*
X218998Y231500D01*
Y230500D01*
X219498Y230000D01*
X220498D01*
X220997Y230500D01*
Y231000D01*
X220498Y231500D01*
X218998D01*
X157500Y118099D02*
X159833D01*
X158666D01*
Y114600D01*
X160999D02*
Y118099D01*
X162748D01*
X163331Y117516D01*
Y116349D01*
X162748Y115766D01*
X160999D01*
X166830Y114600D02*
X164498D01*
X166830Y116933D01*
Y117516D01*
X166247Y118099D01*
X165081D01*
X164498Y117516D01*
X169746Y114600D02*
Y118099D01*
X167997Y116349D01*
X170329D01*
X145700Y261899D02*
X148033D01*
X146866D01*
Y258400D01*
X149199D02*
Y261899D01*
X150948D01*
X151531Y261316D01*
Y260149D01*
X150948Y259566D01*
X149199D01*
X155030Y258400D02*
X152698D01*
X155030Y260733D01*
Y261316D01*
X154447Y261899D01*
X153281D01*
X152698Y261316D01*
X156197D02*
X156780Y261899D01*
X157946D01*
X158529Y261316D01*
Y260733D01*
X157946Y260149D01*
X157363D01*
X157946D01*
X158529Y259566D01*
Y258983D01*
X157946Y258400D01*
X156780D01*
X156197Y258983D01*
X232400Y32700D02*
X228901D01*
Y34449D01*
X229484Y35033D01*
X230651D01*
X231234Y34449D01*
Y32700D01*
Y33866D02*
X232400Y35033D01*
Y36199D02*
Y37365D01*
Y36782D01*
X228901D01*
X229484Y36199D01*
X232400Y39115D02*
Y40281D01*
Y39698D01*
X228901D01*
X229484Y39115D01*
X228901Y44363D02*
Y42030D01*
X230651D01*
X230067Y43197D01*
Y43780D01*
X230651Y44363D01*
X231817D01*
X232400Y43780D01*
Y42614D01*
X231817Y42030D01*
X198200Y89399D02*
Y86483D01*
X198783Y85900D01*
X199949D01*
X200533Y86483D01*
Y89399D01*
X203448Y85900D02*
Y89399D01*
X201699Y87649D01*
X204031D01*
X83200Y73199D02*
X85533D01*
X84366D01*
Y69700D01*
X86699D02*
Y73199D01*
X88448D01*
X89031Y72616D01*
Y71449D01*
X88448Y70866D01*
X86699D01*
X92530Y69700D02*
X90198D01*
X92530Y72033D01*
Y72616D01*
X91947Y73199D01*
X90781D01*
X90198Y72616D01*
X93697Y69700D02*
X94863D01*
X94280D01*
Y73199D01*
X93697Y72616D01*
X213200Y109999D02*
X215533D01*
X214366D01*
Y106500D01*
X216699D02*
Y109999D01*
X218448D01*
X219031Y109416D01*
Y108249D01*
X218448Y107666D01*
X216699D01*
X220198Y106500D02*
X221364D01*
X220781D01*
Y109999D01*
X220198Y109416D01*
X223113Y109999D02*
X225446D01*
Y109416D01*
X223113Y107083D01*
Y106500D01*
X168501Y97000D02*
Y99333D01*
Y98166D01*
X172000D01*
Y100499D02*
X168501D01*
Y102248D01*
X169084Y102831D01*
X170251D01*
X170834Y102248D01*
Y100499D01*
X172000Y103998D02*
Y105164D01*
Y104581D01*
X168501D01*
X169084Y103998D01*
X171417Y106913D02*
X172000Y107497D01*
Y108663D01*
X171417Y109246D01*
X169084D01*
X168501Y108663D01*
Y107497D01*
X169084Y106913D01*
X169667D01*
X170251Y107497D01*
Y109246D01*
X194400Y32699D02*
X196733D01*
X195566D01*
Y29200D01*
X197899D02*
Y32699D01*
X199648D01*
X200231Y32116D01*
Y30949D01*
X199648Y30366D01*
X197899D01*
X203730Y29200D02*
X201398D01*
X203730Y31533D01*
Y32116D01*
X203147Y32699D01*
X201981D01*
X201398Y32116D01*
X207229Y29200D02*
X204897D01*
X207229Y31533D01*
Y32116D01*
X206646Y32699D01*
X205480D01*
X204897Y32116D01*
X209600Y115799D02*
X211933D01*
X210766D01*
Y112300D01*
X213099D02*
Y115799D01*
X214848D01*
X215431Y115216D01*
Y114049D01*
X214848Y113466D01*
X213099D01*
X216598Y112300D02*
X217764D01*
X217181D01*
Y115799D01*
X216598Y115216D01*
X221846Y115799D02*
X219514D01*
Y114049D01*
X220680Y114633D01*
X221263D01*
X221846Y114049D01*
Y112883D01*
X221263Y112300D01*
X220097D01*
X219514Y112883D01*
X225033Y85216D02*
X224449Y85799D01*
X223283D01*
X222700Y85216D01*
Y82883D01*
X223283Y82300D01*
X224449D01*
X225033Y82883D01*
X226199Y85216D02*
X226782Y85799D01*
X227948D01*
X228531Y85216D01*
Y84633D01*
X227948Y84049D01*
X227365D01*
X227948D01*
X228531Y83466D01*
Y82883D01*
X227948Y82300D01*
X226782D01*
X226199Y82883D01*
X232030Y82300D02*
X229698D01*
X232030Y84633D01*
Y85216D01*
X231447Y85799D01*
X230281D01*
X229698Y85216D01*
X167150Y71362D02*
X163651D01*
Y73111D01*
X164234Y73694D01*
X165400D01*
X165983Y73111D01*
Y71362D01*
Y72528D02*
X167150Y73694D01*
X166567Y74861D02*
X167150Y75444D01*
Y76610D01*
X166567Y77193D01*
X164234D01*
X163651Y76610D01*
Y75444D01*
X164234Y74861D01*
X164817D01*
X165400Y75444D01*
Y77193D01*
X167150Y80692D02*
Y78360D01*
X164817Y80692D01*
X164234D01*
X163651Y80109D01*
Y78943D01*
X164234Y78360D01*
X210735Y298599D02*
Y295100D01*
X212485D01*
X213068Y295683D01*
Y298016D01*
X212485Y298599D01*
X210735D01*
X214234D02*
X216567D01*
Y298016D01*
X214234Y295683D01*
Y295100D01*
X219533Y104916D02*
X218949Y105499D01*
X217783D01*
X217200Y104916D01*
Y102583D01*
X217783Y102000D01*
X218949D01*
X219533Y102583D01*
X220699Y104916D02*
X221282Y105499D01*
X222448D01*
X223031Y104916D01*
Y104333D01*
X222448Y103749D01*
X221865D01*
X222448D01*
X223031Y103166D01*
Y102583D01*
X222448Y102000D01*
X221282D01*
X220699Y102583D01*
X224198Y104916D02*
X224781Y105499D01*
X225947D01*
X226530Y104916D01*
Y102583D01*
X225947Y102000D01*
X224781D01*
X224198Y102583D01*
Y104916D01*
X187584Y107433D02*
X187001Y106849D01*
Y105683D01*
X187584Y105100D01*
X189917D01*
X190500Y105683D01*
Y106849D01*
X189917Y107433D01*
X190500Y110931D02*
Y108599D01*
X188167Y110931D01*
X187584D01*
X187001Y110348D01*
Y109182D01*
X187584Y108599D01*
X187001Y114430D02*
Y112098D01*
X188751D01*
X188167Y113264D01*
Y113847D01*
X188751Y114430D01*
X189917D01*
X190500Y113847D01*
Y112681D01*
X189917Y112098D01*
X221000Y64500D02*
Y67999D01*
X222749D01*
X223333Y67416D01*
Y66249D01*
X222749Y65666D01*
X221000D01*
X222166D02*
X223333Y64500D01*
X224499D02*
X225665D01*
X225082D01*
Y67999D01*
X224499Y67416D01*
X227415D02*
X227998Y67999D01*
X229164D01*
X229747Y67416D01*
Y65083D01*
X229164Y64500D01*
X227998D01*
X227415Y65083D01*
Y67416D01*
X230913Y64500D02*
X232080D01*
X231497D01*
Y67999D01*
X230913Y67416D01*
X239000Y234500D02*
Y237999D01*
X240749D01*
X241333Y237416D01*
Y236249D01*
X240749Y235666D01*
X239000D01*
X240166D02*
X241333Y234500D01*
X244248D02*
Y237999D01*
X242499Y236249D01*
X244831D01*
X245998Y237999D02*
X248330D01*
Y237416D01*
X245998Y235083D01*
Y234500D01*
X195900Y69400D02*
Y72899D01*
X197649D01*
X198233Y72316D01*
Y71149D01*
X197649Y70566D01*
X195900D01*
X197066D02*
X198233Y69400D01*
X199399D02*
X200565D01*
X199982D01*
Y72899D01*
X199399Y72316D01*
X202315D02*
X202898Y72899D01*
X204064D01*
X204647Y72316D01*
Y69983D01*
X204064Y69400D01*
X202898D01*
X202315Y69983D01*
Y72316D01*
X208146Y72899D02*
X206980Y72316D01*
X205814Y71149D01*
Y69983D01*
X206397Y69400D01*
X207563D01*
X208146Y69983D01*
Y70566D01*
X207563Y71149D01*
X205814D01*
X199400Y256600D02*
Y260099D01*
X201149D01*
X201733Y259516D01*
Y258349D01*
X201149Y257766D01*
X199400D01*
X200566D02*
X201733Y256600D01*
X204648D02*
Y260099D01*
X202899Y258349D01*
X205231D01*
X206398Y256600D02*
X207564D01*
X206981D01*
Y260099D01*
X206398Y259516D01*
X235300Y61099D02*
Y57600D01*
X237049D01*
X237633Y58183D01*
Y60516D01*
X237049Y61099D01*
X235300D01*
X241131Y57600D02*
X238799D01*
X241131Y59933D01*
Y60516D01*
X240548Y61099D01*
X239382D01*
X238799Y60516D01*
X242298D02*
X242881Y61099D01*
X244047D01*
X244630Y60516D01*
Y58183D01*
X244047Y57600D01*
X242881D01*
X242298Y58183D01*
Y60516D01*
X235501Y247000D02*
X239000D01*
Y248749D01*
X238417Y249333D01*
X236084D01*
X235501Y248749D01*
Y247000D01*
X238417Y250499D02*
X239000Y251082D01*
Y252248D01*
X238417Y252831D01*
X236084D01*
X235501Y252248D01*
Y251082D01*
X236084Y250499D01*
X236667D01*
X237251Y251082D01*
Y252831D01*
X194984Y43933D02*
X194401Y43349D01*
Y42183D01*
X194984Y41600D01*
X197317D01*
X197900Y42183D01*
Y43349D01*
X197317Y43933D01*
X194984Y45099D02*
X194401Y45682D01*
Y46848D01*
X194984Y47431D01*
X195567D01*
X196151Y46848D01*
Y46265D01*
Y46848D01*
X196734Y47431D01*
X197317D01*
X197900Y46848D01*
Y45682D01*
X197317Y45099D01*
X197900Y50347D02*
X194401D01*
X196151Y48598D01*
Y50930D01*
X211884Y246733D02*
X211301Y246149D01*
Y244983D01*
X211884Y244400D01*
X214217D01*
X214800Y244983D01*
Y246149D01*
X214217Y246733D01*
Y247899D02*
X214800Y248482D01*
Y249648D01*
X214217Y250231D01*
X211884D01*
X211301Y249648D01*
Y248482D01*
X211884Y247899D01*
X212467D01*
X213051Y248482D01*
Y250231D01*
X208033Y120416D02*
X207449Y120999D01*
X206283D01*
X205700Y120416D01*
Y118083D01*
X206283Y117500D01*
X207449D01*
X208033Y118083D01*
X211531Y117500D02*
X209199D01*
X211531Y119833D01*
Y120416D01*
X210948Y120999D01*
X209782D01*
X209199Y120416D01*
X214447Y117500D02*
Y120999D01*
X212698Y119249D01*
X215030D01*
X193901Y51400D02*
Y53399D01*
Y52400D01*
X196900D01*
Y54399D02*
X193901D01*
Y55899D01*
X194401Y56398D01*
X195401D01*
X195900Y55899D01*
Y54399D01*
X196900Y57398D02*
Y58398D01*
Y57898D01*
X193901D01*
X194401Y57398D01*
Y59897D02*
X193901Y60397D01*
Y61397D01*
X194401Y61897D01*
X196400D01*
X196900Y61397D01*
Y60397D01*
X196400Y59897D01*
X194401D01*
X207400Y270499D02*
X209733D01*
X208566D01*
Y267000D01*
X210899D02*
Y270499D01*
X212648D01*
X213231Y269916D01*
Y268749D01*
X212648Y268166D01*
X210899D01*
X214398Y269916D02*
X214981Y270499D01*
X216147D01*
X216730Y269916D01*
Y269333D01*
X216147Y268749D01*
X216730Y268166D01*
Y267583D01*
X216147Y267000D01*
X214981D01*
X214398Y267583D01*
Y268166D01*
X214981Y268749D01*
X214398Y269333D01*
Y269916D01*
X214981Y268749D02*
X216147D01*
X61500Y201499D02*
X63833D01*
X62666D01*
Y198000D01*
X64999D02*
Y201499D01*
X66748D01*
X67331Y200916D01*
Y199749D01*
X66748Y199166D01*
X64999D01*
X68498Y198583D02*
X69081Y198000D01*
X70247D01*
X70830Y198583D01*
Y200916D01*
X70247Y201499D01*
X69081D01*
X68498Y200916D01*
Y200333D01*
X69081Y199749D01*
X70830D01*
X181800Y224799D02*
X183799D01*
X182800D01*
Y221800D01*
X184799D02*
Y224799D01*
X186299D01*
X186798Y224299D01*
Y223300D01*
X186299Y222800D01*
X184799D01*
X189797Y224799D02*
X187798D01*
Y223300D01*
X188798Y223799D01*
X189298D01*
X189797Y223300D01*
Y222300D01*
X189298Y221800D01*
X188298D01*
X187798Y222300D01*
X106500Y54000D02*
Y57499D01*
X108249D01*
X108833Y56916D01*
Y55749D01*
X108249Y55166D01*
X106500D01*
X107666D02*
X108833Y54000D01*
X109999D02*
X111165D01*
X110582D01*
Y57499D01*
X109999Y56916D01*
X112915D02*
X113498Y57499D01*
X114664D01*
X115247Y56916D01*
Y54583D01*
X114664Y54000D01*
X113498D01*
X112915Y54583D01*
Y56916D01*
X116413D02*
X116997Y57499D01*
X118163D01*
X118746Y56916D01*
Y56333D01*
X118163Y55749D01*
X117580D01*
X118163D01*
X118746Y55166D01*
Y54583D01*
X118163Y54000D01*
X116997D01*
X116413Y54583D01*
X105500Y47000D02*
Y50499D01*
X107249D01*
X107833Y49916D01*
Y48749D01*
X107249Y48166D01*
X105500D01*
X106666D02*
X107833Y47000D01*
X108999D02*
X110165D01*
X109582D01*
Y50499D01*
X108999Y49916D01*
X111915D02*
X112498Y50499D01*
X113664D01*
X114247Y49916D01*
Y47583D01*
X113664Y47000D01*
X112498D01*
X111915Y47583D01*
Y49916D01*
X115413D02*
X115997Y50499D01*
X117163D01*
X117746Y49916D01*
Y49333D01*
X117163Y48749D01*
X117746Y48166D01*
Y47583D01*
X117163Y47000D01*
X115997D01*
X115413Y47583D01*
Y48166D01*
X115997Y48749D01*
X115413Y49333D01*
Y49916D01*
X115997Y48749D02*
X117163D01*
X65000Y152500D02*
X61501D01*
Y154249D01*
X62084Y154833D01*
X63251D01*
X63834Y154249D01*
Y152500D01*
Y153666D02*
X65000Y154833D01*
X61501Y155999D02*
Y158331D01*
X62084D01*
X64417Y155999D01*
X65000D01*
X62084Y159498D02*
X61501Y160081D01*
Y161247D01*
X62084Y161830D01*
X62667D01*
X63251Y161247D01*
Y160664D01*
Y161247D01*
X63834Y161830D01*
X64417D01*
X65000Y161247D01*
Y160081D01*
X64417Y159498D01*
X57500Y152500D02*
X54001D01*
Y154249D01*
X54584Y154833D01*
X55751D01*
X56334Y154249D01*
Y152500D01*
Y153666D02*
X57500Y154833D01*
X54001Y155999D02*
Y158331D01*
X54584D01*
X56917Y155999D01*
X57500D01*
Y161830D02*
Y159498D01*
X55167Y161830D01*
X54584D01*
X54001Y161247D01*
Y160081D01*
X54584Y159498D01*
X172000Y62500D02*
Y65999D01*
X173749D01*
X174333Y65416D01*
Y64249D01*
X173749Y63666D01*
X172000D01*
X173166D02*
X174333Y62500D01*
X175499D02*
X176665D01*
X176082D01*
Y65999D01*
X175499Y65416D01*
X178415D02*
X178998Y65999D01*
X180164D01*
X180747Y65416D01*
Y63083D01*
X180164Y62500D01*
X178998D01*
X178415Y63083D01*
Y65416D01*
X181913D02*
X182497Y65999D01*
X183663D01*
X184246Y65416D01*
Y63083D01*
X183663Y62500D01*
X182497D01*
X181913Y63083D01*
Y65416D01*
X106500Y61500D02*
Y64999D01*
X108249D01*
X108833Y64416D01*
Y63249D01*
X108249Y62666D01*
X106500D01*
X107666D02*
X108833Y61500D01*
X109999Y62083D02*
X110582Y61500D01*
X111748D01*
X112331Y62083D01*
Y64416D01*
X111748Y64999D01*
X110582D01*
X109999Y64416D01*
Y63833D01*
X110582Y63249D01*
X112331D01*
X113498Y64416D02*
X114081Y64999D01*
X115247D01*
X115830Y64416D01*
Y63833D01*
X115247Y63249D01*
X115830Y62666D01*
Y62083D01*
X115247Y61500D01*
X114081D01*
X113498Y62083D01*
Y62666D01*
X114081Y63249D01*
X113498Y63833D01*
Y64416D01*
X114081Y63249D02*
X115247D01*
X77500Y47000D02*
Y50499D01*
X79249D01*
X79833Y49916D01*
Y48749D01*
X79249Y48166D01*
X77500D01*
X78666D02*
X79833Y47000D01*
X80999D02*
X82165D01*
X81582D01*
Y50499D01*
X80999Y49916D01*
X83915D02*
X84498Y50499D01*
X85664D01*
X86247Y49916D01*
Y47583D01*
X85664Y47000D01*
X84498D01*
X83915Y47583D01*
Y49916D01*
X87414Y50499D02*
X89746D01*
Y49916D01*
X87414Y47583D01*
Y47000D01*
X76500Y54500D02*
Y57999D01*
X78249D01*
X78833Y57416D01*
Y56249D01*
X78249Y55666D01*
X76500D01*
X77666D02*
X78833Y54500D01*
X79999D02*
X81165D01*
X80582D01*
Y57999D01*
X79999Y57416D01*
X82915D02*
X83498Y57999D01*
X84664D01*
X85247Y57416D01*
Y55083D01*
X84664Y54500D01*
X83498D01*
X82915Y55083D01*
Y57416D01*
X88746Y54500D02*
X86414D01*
X88746Y56833D01*
Y57416D01*
X88163Y57999D01*
X86997D01*
X86414Y57416D01*
X76500Y62000D02*
Y65499D01*
X78249D01*
X78833Y64916D01*
Y63749D01*
X78249Y63166D01*
X76500D01*
X77666D02*
X78833Y62000D01*
X79999Y62583D02*
X80582Y62000D01*
X81748D01*
X82331Y62583D01*
Y64916D01*
X81748Y65499D01*
X80582D01*
X79999Y64916D01*
Y64333D01*
X80582Y63749D01*
X82331D01*
X83498Y65499D02*
X85830D01*
Y64916D01*
X83498Y62583D01*
Y62000D01*
X33800Y154000D02*
Y157499D01*
X35549D01*
X36133Y156916D01*
Y155749D01*
X35549Y155166D01*
X33800D01*
X34966D02*
X36133Y154000D01*
X39632Y157499D02*
X38465Y156916D01*
X37299Y155749D01*
Y154583D01*
X37882Y154000D01*
X39048D01*
X39632Y154583D01*
Y155166D01*
X39048Y155749D01*
X37299D01*
X40798Y154583D02*
X41381Y154000D01*
X42547D01*
X43130Y154583D01*
Y156916D01*
X42547Y157499D01*
X41381D01*
X40798Y156916D01*
Y156333D01*
X41381Y155749D01*
X43130D01*
X34000Y187400D02*
Y190899D01*
X35749D01*
X36333Y190316D01*
Y189149D01*
X35749Y188566D01*
X34000D01*
X35166D02*
X36333Y187400D01*
X39832Y190899D02*
X37499D01*
Y189149D01*
X38665Y189733D01*
X39248D01*
X39832Y189149D01*
Y187983D01*
X39248Y187400D01*
X38082D01*
X37499Y187983D01*
X40998Y190899D02*
X43330D01*
Y190316D01*
X40998Y187983D01*
Y187400D01*
X89800Y32000D02*
X86301D01*
Y33749D01*
X86884Y34333D01*
X88051D01*
X88634Y33749D01*
Y32000D01*
Y33166D02*
X89800Y34333D01*
Y35499D02*
Y36665D01*
Y36082D01*
X86301D01*
X86884Y35499D01*
X89800Y38415D02*
Y39581D01*
Y38998D01*
X86301D01*
X86884Y38415D01*
X89800Y43663D02*
Y41330D01*
X87467Y43663D01*
X86884D01*
X86301Y43080D01*
Y41914D01*
X86884Y41330D01*
X59600Y33800D02*
X56101D01*
Y35549D01*
X56684Y36133D01*
X57851D01*
X58434Y35549D01*
Y33800D01*
Y34966D02*
X59600Y36133D01*
Y37299D02*
Y38465D01*
Y37882D01*
X56101D01*
X56684Y37299D01*
X59600Y40215D02*
Y41381D01*
Y40798D01*
X56101D01*
X56684Y40215D01*
X59600Y43130D02*
Y44297D01*
Y43714D01*
X56101D01*
X56684Y43130D01*
X177500Y37500D02*
Y40999D01*
X179249D01*
X179833Y40416D01*
Y39249D01*
X179249Y38666D01*
X177500D01*
X178666D02*
X179833Y37500D01*
X180999D02*
X182165D01*
X181582D01*
Y40999D01*
X180999Y40416D01*
X183915Y37500D02*
X185081D01*
X184498D01*
Y40999D01*
X183915Y40416D01*
X188580Y37500D02*
Y40999D01*
X186830Y39249D01*
X189163D01*
X143000Y37500D02*
Y40999D01*
X144749D01*
X145333Y40416D01*
Y39249D01*
X144749Y38666D01*
X143000D01*
X144166D02*
X145333Y37500D01*
X146499D02*
X147665D01*
X147082D01*
Y40999D01*
X146499Y40416D01*
X149415Y37500D02*
X150581D01*
X149998D01*
Y40999D01*
X149415Y40416D01*
X152330D02*
X152913Y40999D01*
X154080D01*
X154663Y40416D01*
Y39833D01*
X154080Y39249D01*
X153497D01*
X154080D01*
X154663Y38666D01*
Y38083D01*
X154080Y37500D01*
X152913D01*
X152330Y38083D01*
X34500Y86600D02*
Y90099D01*
X36249D01*
X36833Y89516D01*
Y88349D01*
X36249Y87766D01*
X34500D01*
X35666D02*
X36833Y86600D01*
X37999Y87183D02*
X38582Y86600D01*
X39748D01*
X40332Y87183D01*
Y89516D01*
X39748Y90099D01*
X38582D01*
X37999Y89516D01*
Y88933D01*
X38582Y88349D01*
X40332D01*
X43247Y86600D02*
Y90099D01*
X41498Y88349D01*
X43830D01*
X34000Y122000D02*
Y125499D01*
X35749D01*
X36333Y124916D01*
Y123749D01*
X35749Y123166D01*
X34000D01*
X35166D02*
X36333Y122000D01*
X37499Y124916D02*
X38082Y125499D01*
X39248D01*
X39832Y124916D01*
Y124333D01*
X39248Y123749D01*
X39832Y123166D01*
Y122583D01*
X39248Y122000D01*
X38082D01*
X37499Y122583D01*
Y123166D01*
X38082Y123749D01*
X37499Y124333D01*
Y124916D01*
X38082Y123749D02*
X39248D01*
X40998Y124916D02*
X41581Y125499D01*
X42747D01*
X43330Y124916D01*
Y122583D01*
X42747Y122000D01*
X41581D01*
X40998Y122583D01*
Y124916D01*
X102800Y332200D02*
Y335699D01*
X104549D01*
X105133Y335116D01*
Y333949D01*
X104549Y333366D01*
X102800D01*
X103966D02*
X105133Y332200D01*
X108631D02*
X106299D01*
X108631Y334533D01*
Y335116D01*
X108048Y335699D01*
X106882D01*
X106299Y335116D01*
X67100Y125100D02*
Y128599D01*
X68849D01*
X69433Y128016D01*
Y126849D01*
X68849Y126266D01*
X67100D01*
X68266D02*
X69433Y125100D01*
X70599Y128599D02*
X72931D01*
Y128016D01*
X70599Y125683D01*
Y125100D01*
X76430Y128599D02*
X74098D01*
Y126849D01*
X75264Y127433D01*
X75847D01*
X76430Y126849D01*
Y125683D01*
X75847Y125100D01*
X74681D01*
X74098Y125683D01*
X50000Y152500D02*
X46501D01*
Y154249D01*
X47084Y154833D01*
X48251D01*
X48834Y154249D01*
Y152500D01*
Y153666D02*
X50000Y154833D01*
X46501Y155999D02*
Y158331D01*
X47084D01*
X49417Y155999D01*
X50000D01*
Y159498D02*
Y160664D01*
Y160081D01*
X46501D01*
X47084Y159498D01*
X65500Y163500D02*
X62001D01*
Y165249D01*
X62584Y165833D01*
X63751D01*
X64334Y165249D01*
Y163500D01*
Y164666D02*
X65500Y165833D01*
X62001Y169331D02*
X62584Y168165D01*
X63751Y166999D01*
X64917D01*
X65500Y167582D01*
Y168748D01*
X64917Y169331D01*
X64334D01*
X63751Y168748D01*
Y166999D01*
X65500Y170498D02*
Y171664D01*
Y171081D01*
X62001D01*
X62584Y170498D01*
X57500Y186600D02*
X54001D01*
Y188349D01*
X54584Y188933D01*
X55751D01*
X56334Y188349D01*
Y186600D01*
Y187766D02*
X57500Y188933D01*
X54001Y192431D02*
X54584Y191265D01*
X55751Y190099D01*
X56917D01*
X57500Y190682D01*
Y191848D01*
X56917Y192431D01*
X56334D01*
X55751Y191848D01*
Y190099D01*
X54584Y193598D02*
X54001Y194181D01*
Y195347D01*
X54584Y195930D01*
X56917D01*
X57500Y195347D01*
Y194181D01*
X56917Y193598D01*
X54584D01*
X50700Y187100D02*
X47201D01*
Y188849D01*
X47784Y189433D01*
X48951D01*
X49534Y188849D01*
Y187100D01*
Y188266D02*
X50700Y189433D01*
X47201Y192931D02*
Y190599D01*
X48951D01*
X48367Y191765D01*
Y192348D01*
X48951Y192931D01*
X50117D01*
X50700Y192348D01*
Y191182D01*
X50117Y190599D01*
Y194098D02*
X50700Y194681D01*
Y195847D01*
X50117Y196430D01*
X47784D01*
X47201Y195847D01*
Y194681D01*
X47784Y194098D01*
X48367D01*
X48951Y194681D01*
Y196430D01*
X222900Y75400D02*
Y78899D01*
X224649D01*
X225233Y78316D01*
Y77149D01*
X224649Y76566D01*
X222900D01*
X224066D02*
X225233Y75400D01*
X226399Y75983D02*
X226982Y75400D01*
X228148D01*
X228731Y75983D01*
Y78316D01*
X228148Y78899D01*
X226982D01*
X226399Y78316D01*
Y77733D01*
X226982Y77149D01*
X228731D01*
X229898Y78316D02*
X230481Y78899D01*
X231647D01*
X232230Y78316D01*
Y77733D01*
X231647Y77149D01*
X231064D01*
X231647D01*
X232230Y76566D01*
Y75983D01*
X231647Y75400D01*
X230481D01*
X229898Y75983D01*
X172000Y54000D02*
Y57499D01*
X173749D01*
X174333Y56916D01*
Y55749D01*
X173749Y55166D01*
X172000D01*
X173166D02*
X174333Y54000D01*
X175499D02*
X176665D01*
X176082D01*
Y57499D01*
X175499Y56916D01*
X178415D02*
X178998Y57499D01*
X180164D01*
X180747Y56916D01*
Y54583D01*
X180164Y54000D01*
X178998D01*
X178415Y54583D01*
Y56916D01*
X184246Y57499D02*
X181913D01*
Y55749D01*
X183080Y56333D01*
X183663D01*
X184246Y55749D01*
Y54583D01*
X183663Y54000D01*
X182497D01*
X181913Y54583D01*
X171500Y47000D02*
Y50499D01*
X173249D01*
X173833Y49916D01*
Y48749D01*
X173249Y48166D01*
X171500D01*
X172666D02*
X173833Y47000D01*
X174999D02*
X176165D01*
X175582D01*
Y50499D01*
X174999Y49916D01*
X177915Y47000D02*
X179081D01*
X178498D01*
Y50499D01*
X177915Y49916D01*
X180830D02*
X181413Y50499D01*
X182580D01*
X183163Y49916D01*
Y47583D01*
X182580Y47000D01*
X181413D01*
X180830Y47583D01*
Y49916D01*
X137500Y62000D02*
Y65499D01*
X139249D01*
X139833Y64916D01*
Y63749D01*
X139249Y63166D01*
X137500D01*
X138666D02*
X139833Y62000D01*
X140999Y62583D02*
X141582Y62000D01*
X142748D01*
X143331Y62583D01*
Y64916D01*
X142748Y65499D01*
X141582D01*
X140999Y64916D01*
Y64333D01*
X141582Y63749D01*
X143331D01*
X144498Y62583D02*
X145081Y62000D01*
X146247D01*
X146830Y62583D01*
Y64916D01*
X146247Y65499D01*
X145081D01*
X144498Y64916D01*
Y64333D01*
X145081Y63749D01*
X146830D01*
X137500Y54500D02*
Y57999D01*
X139249D01*
X139833Y57416D01*
Y56249D01*
X139249Y55666D01*
X137500D01*
X138666D02*
X139833Y54500D01*
X140999D02*
X142165D01*
X141582D01*
Y57999D01*
X140999Y57416D01*
X143915D02*
X144498Y57999D01*
X145664D01*
X146247Y57416D01*
Y55083D01*
X145664Y54500D01*
X144498D01*
X143915Y55083D01*
Y57416D01*
X149163Y54500D02*
Y57999D01*
X147414Y56249D01*
X149746D01*
X137500Y47000D02*
Y50499D01*
X139249D01*
X139833Y49916D01*
Y48749D01*
X139249Y48166D01*
X137500D01*
X138666D02*
X139833Y47000D01*
X140999D02*
X142165D01*
X141582D01*
Y50499D01*
X140999Y49916D01*
X143915D02*
X144498Y50499D01*
X145664D01*
X146247Y49916D01*
Y47583D01*
X145664Y47000D01*
X144498D01*
X143915Y47583D01*
Y49916D01*
X147414Y47583D02*
X147997Y47000D01*
X149163D01*
X149746Y47583D01*
Y49916D01*
X149163Y50499D01*
X147997D01*
X147414Y49916D01*
Y49333D01*
X147997Y48749D01*
X149746D01*
X71300Y73500D02*
X67801D01*
Y75249D01*
X68384Y75833D01*
X69551D01*
X70134Y75249D01*
Y73500D01*
Y74666D02*
X71300Y75833D01*
X68384Y76999D02*
X67801Y77582D01*
Y78748D01*
X68384Y79331D01*
X68967D01*
X69551Y78748D01*
X70134Y79331D01*
X70717D01*
X71300Y78748D01*
Y77582D01*
X70717Y76999D01*
X70134D01*
X69551Y77582D01*
X68967Y76999D01*
X68384D01*
X69551Y77582D02*
Y78748D01*
X68384Y80498D02*
X67801Y81081D01*
Y82247D01*
X68384Y82830D01*
X68967D01*
X69551Y82247D01*
Y81664D01*
Y82247D01*
X70134Y82830D01*
X70717D01*
X71300Y82247D01*
Y81081D01*
X70717Y80498D01*
X57900Y85400D02*
X54401D01*
Y87149D01*
X54984Y87733D01*
X56151D01*
X56734Y87149D01*
Y85400D01*
Y86566D02*
X57900Y87733D01*
X57317Y88899D02*
X57900Y89482D01*
Y90648D01*
X57317Y91231D01*
X54984D01*
X54401Y90648D01*
Y89482D01*
X54984Y88899D01*
X55567D01*
X56151Y89482D01*
Y91231D01*
X54401Y94730D02*
X54984Y93564D01*
X56151Y92398D01*
X57317D01*
X57900Y92981D01*
Y94147D01*
X57317Y94730D01*
X56734D01*
X56151Y94147D01*
Y92398D01*
X50500Y85300D02*
X47001D01*
Y87049D01*
X47584Y87633D01*
X48751D01*
X49334Y87049D01*
Y85300D01*
Y86466D02*
X50500Y87633D01*
X49917Y88799D02*
X50500Y89382D01*
Y90548D01*
X49917Y91131D01*
X47584D01*
X47001Y90548D01*
Y89382D01*
X47584Y88799D01*
X48167D01*
X48751Y89382D01*
Y91131D01*
X47001Y94630D02*
Y92298D01*
X48751D01*
X48167Y93464D01*
Y94047D01*
X48751Y94630D01*
X49917D01*
X50500Y94047D01*
Y92881D01*
X49917Y92298D01*
X64600Y120900D02*
X61101D01*
Y122649D01*
X61684Y123233D01*
X62851D01*
X63434Y122649D01*
Y120900D01*
Y122066D02*
X64600Y123233D01*
X61101Y124399D02*
Y126731D01*
X61684D01*
X64017Y124399D01*
X64600D01*
X61684Y127898D02*
X61101Y128481D01*
Y129647D01*
X61684Y130230D01*
X62267D01*
X62851Y129647D01*
X63434Y130230D01*
X64017D01*
X64600Y129647D01*
Y128481D01*
X64017Y127898D01*
X63434D01*
X62851Y128481D01*
X62267Y127898D01*
X61684D01*
X62851Y128481D02*
Y129647D01*
X57900Y121200D02*
X54401D01*
Y122949D01*
X54984Y123533D01*
X56151D01*
X56734Y122949D01*
Y121200D01*
Y122366D02*
X57900Y123533D01*
X54984Y124699D02*
X54401Y125282D01*
Y126448D01*
X54984Y127031D01*
X55567D01*
X56151Y126448D01*
X56734Y127031D01*
X57317D01*
X57900Y126448D01*
Y125282D01*
X57317Y124699D01*
X56734D01*
X56151Y125282D01*
X55567Y124699D01*
X54984D01*
X56151Y125282D02*
Y126448D01*
X57900Y130530D02*
Y128198D01*
X55567Y130530D01*
X54984D01*
X54401Y129947D01*
Y128781D01*
X54984Y128198D01*
X50600Y122200D02*
X47101D01*
Y123949D01*
X47684Y124533D01*
X48851D01*
X49434Y123949D01*
Y122200D01*
Y123366D02*
X50600Y124533D01*
X47684Y125699D02*
X47101Y126282D01*
Y127448D01*
X47684Y128031D01*
X48267D01*
X48851Y127448D01*
X49434Y128031D01*
X50017D01*
X50600Y127448D01*
Y126282D01*
X50017Y125699D01*
X49434D01*
X48851Y126282D01*
X48267Y125699D01*
X47684D01*
X48851Y126282D02*
Y127448D01*
X50600Y129198D02*
Y130364D01*
Y129781D01*
X47101D01*
X47684Y129198D01*
X135633Y341299D02*
X134466D01*
X135049D01*
Y338383D01*
X134466Y337800D01*
X133883D01*
X133300Y338383D01*
X136799Y340716D02*
X137382Y341299D01*
X138548D01*
X139131Y340716D01*
Y340133D01*
X138548Y339549D01*
X137965D01*
X138548D01*
X139131Y338966D01*
Y338383D01*
X138548Y337800D01*
X137382D01*
X136799Y338383D01*
X173933Y342099D02*
X172766D01*
X173349D01*
Y339183D01*
X172766Y338600D01*
X172183D01*
X171600Y339183D01*
X176848Y338600D02*
Y342099D01*
X175099Y340349D01*
X177431D01*
X34333Y197999D02*
X33166D01*
X33749D01*
Y195083D01*
X33166Y194500D01*
X32583D01*
X32000Y195083D01*
X35499D02*
X36082Y194500D01*
X37248D01*
X37832Y195083D01*
Y197416D01*
X37248Y197999D01*
X36082D01*
X35499Y197416D01*
Y196833D01*
X36082Y196249D01*
X37832D01*
X33633Y231599D02*
X32466D01*
X33049D01*
Y228683D01*
X32466Y228100D01*
X31883D01*
X31300Y228683D01*
X34799Y231016D02*
X35382Y231599D01*
X36548D01*
X37132Y231016D01*
Y230433D01*
X36548Y229849D01*
X37132Y229266D01*
Y228683D01*
X36548Y228100D01*
X35382D01*
X34799Y228683D01*
Y229266D01*
X35382Y229849D01*
X34799Y230433D01*
Y231016D01*
X35382Y229849D02*
X36548D01*
X63433Y342899D02*
X62266D01*
X62849D01*
Y339983D01*
X62266Y339400D01*
X61683D01*
X61100Y339983D01*
X64599Y339400D02*
X65765D01*
X65182D01*
Y342899D01*
X64599Y342316D01*
X33133Y299299D02*
X31966D01*
X32549D01*
Y296383D01*
X31966Y295800D01*
X31383D01*
X30800Y296383D01*
X36632Y299299D02*
X34299D01*
Y297549D01*
X35465Y298133D01*
X36048D01*
X36632Y297549D01*
Y296383D01*
X36048Y295800D01*
X34882D01*
X34299Y296383D01*
X199533Y84299D02*
X197200D01*
Y82549D01*
X198366D01*
X197200D01*
Y80800D01*
X200699Y84299D02*
Y80800D01*
X202448D01*
X203031Y81383D01*
Y81966D01*
X202448Y82549D01*
X200699D01*
X202448D01*
X203031Y83133D01*
Y83716D01*
X202448Y84299D01*
X200699D01*
X206530Y80800D02*
X204198D01*
X206530Y83133D01*
Y83716D01*
X205947Y84299D01*
X204781D01*
X204198Y83716D01*
X21200Y150899D02*
Y147400D01*
X22949D01*
X23533Y147983D01*
Y150316D01*
X22949Y150899D01*
X21200D01*
X24699Y147400D02*
X25865D01*
X25282D01*
Y150899D01*
X24699Y150316D01*
X29364Y147400D02*
Y150899D01*
X27615Y149149D01*
X29947D01*
X21200Y184199D02*
Y180700D01*
X22949D01*
X23533Y181283D01*
Y183616D01*
X22949Y184199D01*
X21200D01*
X24699Y180700D02*
X25865D01*
X25282D01*
Y184199D01*
X24699Y183616D01*
X29947Y180700D02*
X27615D01*
X29947Y183033D01*
Y183616D01*
X29364Y184199D01*
X28198D01*
X27615Y183616D01*
X93501Y20500D02*
X97000D01*
Y22249D01*
X96417Y22833D01*
X94084D01*
X93501Y22249D01*
Y20500D01*
X97000Y26331D02*
Y23999D01*
X94667Y26331D01*
X94084D01*
X93501Y25748D01*
Y24582D01*
X94084Y23999D01*
X97000Y29830D02*
Y27498D01*
X94667Y29830D01*
X94084D01*
X93501Y29247D01*
Y28081D01*
X94084Y27498D01*
X57501Y9000D02*
X61000D01*
Y10749D01*
X60417Y11333D01*
X58084D01*
X57501Y10749D01*
Y9000D01*
X61000Y14831D02*
Y12499D01*
X58667Y14831D01*
X58084D01*
X57501Y14248D01*
Y13082D01*
X58084Y12499D01*
X61000Y15998D02*
Y17164D01*
Y16581D01*
X57501D01*
X58084Y15998D01*
X155200Y24999D02*
Y21500D01*
X156949D01*
X157533Y22083D01*
Y24416D01*
X156949Y24999D01*
X155200D01*
X161031Y21500D02*
X158699D01*
X161031Y23833D01*
Y24416D01*
X160448Y24999D01*
X159282D01*
X158699Y24416D01*
X163947Y21500D02*
Y24999D01*
X162198Y23249D01*
X164530D01*
X123801Y21700D02*
X127300D01*
Y23449D01*
X126717Y24033D01*
X124384D01*
X123801Y23449D01*
Y21700D01*
X127300Y27531D02*
Y25199D01*
X124967Y27531D01*
X124384D01*
X123801Y26948D01*
Y25782D01*
X124384Y25199D01*
Y28698D02*
X123801Y29281D01*
Y30447D01*
X124384Y31030D01*
X124967D01*
X125551Y30447D01*
Y29864D01*
Y30447D01*
X126134Y31030D01*
X126717D01*
X127300Y30447D01*
Y29281D01*
X126717Y28698D01*
X20600Y83199D02*
Y79700D01*
X22349D01*
X22933Y80283D01*
Y82616D01*
X22349Y83199D01*
X20600D01*
X24099Y79700D02*
X25265D01*
X24682D01*
Y83199D01*
X24099Y82616D01*
X27015D02*
X27598Y83199D01*
X28764D01*
X29347Y82616D01*
Y82033D01*
X28764Y81449D01*
X29347Y80866D01*
Y80283D01*
X28764Y79700D01*
X27598D01*
X27015Y80283D01*
Y80866D01*
X27598Y81449D01*
X27015Y82033D01*
Y82616D01*
X27598Y81449D02*
X28764D01*
X21600Y118799D02*
Y115300D01*
X23349D01*
X23933Y115883D01*
Y118216D01*
X23349Y118799D01*
X21600D01*
X25099Y115300D02*
X26265D01*
X25682D01*
Y118799D01*
X25099Y118216D01*
X30347Y118799D02*
X29181Y118216D01*
X28015Y117049D01*
Y115883D01*
X28598Y115300D01*
X29764D01*
X30347Y115883D01*
Y116466D01*
X29764Y117049D01*
X28015D01*
X173401Y92500D02*
X176900D01*
Y94249D01*
X176317Y94833D01*
X173984D01*
X173401Y94249D01*
Y92500D01*
X176900Y95999D02*
Y97165D01*
Y96582D01*
X173401D01*
X173984Y95999D01*
X173401Y98915D02*
Y101247D01*
X173984D01*
X176317Y98915D01*
X176900D01*
X222200Y72999D02*
Y69500D01*
X223949D01*
X224533Y70083D01*
Y72416D01*
X223949Y72999D01*
X222200D01*
X225699Y69500D02*
X226865D01*
X226282D01*
Y72999D01*
X225699Y72416D01*
X228615Y70083D02*
X229198Y69500D01*
X230364D01*
X230947Y70083D01*
Y72416D01*
X230364Y72999D01*
X229198D01*
X228615Y72416D01*
Y71833D01*
X229198Y71249D01*
X230947D01*
X172684Y83333D02*
X172101Y82749D01*
Y81583D01*
X172684Y81000D01*
X175017D01*
X175600Y81583D01*
Y82749D01*
X175017Y83333D01*
X172684Y84499D02*
X172101Y85082D01*
Y86248D01*
X172684Y86831D01*
X173267D01*
X173851Y86248D01*
Y85665D01*
Y86248D01*
X174434Y86831D01*
X175017D01*
X175600Y86248D01*
Y85082D01*
X175017Y84499D01*
X175600Y87998D02*
Y89164D01*
Y88581D01*
X172101D01*
X172684Y87998D01*
X171684Y71833D02*
X171101Y71249D01*
Y70083D01*
X171684Y69500D01*
X174017D01*
X174600Y70083D01*
Y71249D01*
X174017Y71833D01*
X171684Y72999D02*
X171101Y73582D01*
Y74748D01*
X171684Y75331D01*
X172267D01*
X172851Y74748D01*
Y74165D01*
Y74748D01*
X173434Y75331D01*
X174017D01*
X174600Y74748D01*
Y73582D01*
X174017Y72999D01*
X171684Y76498D02*
X171101Y77081D01*
Y78247D01*
X171684Y78830D01*
X172267D01*
X172851Y78247D01*
Y77664D01*
Y78247D01*
X173434Y78830D01*
X174017D01*
X174600Y78247D01*
Y77081D01*
X174017Y76498D01*
X107500Y235399D02*
Y232483D01*
X108083Y231900D01*
X109249D01*
X109833Y232483D01*
Y235399D01*
X110999Y231900D02*
X112165D01*
X111582D01*
Y235399D01*
X110999Y234816D01*
X55800Y323400D02*
X52301D01*
Y325149D01*
X52884Y325733D01*
X54051D01*
X54634Y325149D01*
Y323400D01*
Y324566D02*
X55800Y325733D01*
Y329231D02*
Y326899D01*
X53467Y329231D01*
X52884D01*
X52301Y328648D01*
Y327482D01*
X52884Y326899D01*
Y330398D02*
X52301Y330981D01*
Y332147D01*
X52884Y332730D01*
X55217D01*
X55800Y332147D01*
Y330981D01*
X55217Y330398D01*
X52884D01*
X70900Y317900D02*
Y321399D01*
X72649D01*
X73233Y320816D01*
Y319649D01*
X72649Y319066D01*
X70900D01*
X72066D02*
X73233Y317900D01*
X76731Y321399D02*
X75565Y320816D01*
X74399Y319649D01*
Y318483D01*
X74982Y317900D01*
X76148D01*
X76731Y318483D01*
Y319066D01*
X76148Y319649D01*
X74399D01*
X107200Y317100D02*
Y320599D01*
X108949D01*
X109533Y320016D01*
Y318849D01*
X108949Y318266D01*
X107200D01*
X108366D02*
X109533Y317100D01*
X110699D02*
X111865D01*
X111282D01*
Y320599D01*
X110699Y320016D01*
X113615Y317100D02*
X114781D01*
X114198D01*
Y320599D01*
X113615Y320016D01*
X159800Y110100D02*
Y113599D01*
X161549D01*
X162133Y113016D01*
Y111849D01*
X161549Y111266D01*
X159800D01*
X160966D02*
X162133Y110100D01*
X163299Y113599D02*
X165631D01*
Y113016D01*
X163299Y110683D01*
Y110100D01*
X166798Y110683D02*
X167381Y110100D01*
X168547D01*
X169130Y110683D01*
Y113016D01*
X168547Y113599D01*
X167381D01*
X166798Y113016D01*
Y112433D01*
X167381Y111849D01*
X169130D01*
X160700Y129400D02*
Y132899D01*
X162449D01*
X163033Y132316D01*
Y131149D01*
X162449Y130566D01*
X160700D01*
X161866D02*
X163033Y129400D01*
X164199Y132899D02*
X166531D01*
Y132316D01*
X164199Y129983D01*
Y129400D01*
X167698Y132899D02*
X170030D01*
Y132316D01*
X167698Y129983D01*
Y129400D01*
X79600Y288600D02*
Y292099D01*
X81349D01*
X81933Y291516D01*
Y290349D01*
X81349Y289766D01*
X79600D01*
X80766D02*
X81933Y288600D01*
X83099Y291516D02*
X83682Y292099D01*
X84848D01*
X85431Y291516D01*
Y290933D01*
X84848Y290349D01*
X84265D01*
X84848D01*
X85431Y289766D01*
Y289183D01*
X84848Y288600D01*
X83682D01*
X83099Y289183D01*
X86598Y291516D02*
X87181Y292099D01*
X88347D01*
X88930Y291516D01*
Y290933D01*
X88347Y290349D01*
X87764D01*
X88347D01*
X88930Y289766D01*
Y289183D01*
X88347Y288600D01*
X87181D01*
X86598Y289183D01*
X79400Y283000D02*
Y286499D01*
X81149D01*
X81733Y285916D01*
Y284749D01*
X81149Y284166D01*
X79400D01*
X80566D02*
X81733Y283000D01*
X82899Y285916D02*
X83482Y286499D01*
X84648D01*
X85231Y285916D01*
Y285333D01*
X84648Y284749D01*
X84065D01*
X84648D01*
X85231Y284166D01*
Y283583D01*
X84648Y283000D01*
X83482D01*
X82899Y283583D01*
X86398D02*
X86981Y283000D01*
X88147D01*
X88730Y283583D01*
Y285916D01*
X88147Y286499D01*
X86981D01*
X86398Y285916D01*
Y285333D01*
X86981Y284749D01*
X88730D01*
X79600Y277800D02*
Y281299D01*
X81349D01*
X81933Y280716D01*
Y279549D01*
X81349Y278966D01*
X79600D01*
X80766D02*
X81933Y277800D01*
X84848D02*
Y281299D01*
X83099Y279549D01*
X85431D01*
X88347Y277800D02*
Y281299D01*
X86598Y279549D01*
X88930D01*
X79600Y272600D02*
Y276099D01*
X81349D01*
X81933Y275516D01*
Y274349D01*
X81349Y273766D01*
X79600D01*
X80766D02*
X81933Y272600D01*
X84848D02*
Y276099D01*
X83099Y274349D01*
X85431D01*
X86598Y275516D02*
X87181Y276099D01*
X88347D01*
X88930Y275516D01*
Y274933D01*
X88347Y274349D01*
X87764D01*
X88347D01*
X88930Y273766D01*
Y273183D01*
X88347Y272600D01*
X87181D01*
X86598Y273183D01*
X79700Y267100D02*
Y270599D01*
X81449D01*
X82033Y270016D01*
Y268849D01*
X81449Y268266D01*
X79700D01*
X80866D02*
X82033Y267100D01*
X84948D02*
Y270599D01*
X83199Y268849D01*
X85531D01*
X89030Y270599D02*
X87864Y270016D01*
X86698Y268849D01*
Y267683D01*
X87281Y267100D01*
X88447D01*
X89030Y267683D01*
Y268266D01*
X88447Y268849D01*
X86698D01*
X80000Y262100D02*
Y265599D01*
X81749D01*
X82333Y265016D01*
Y263849D01*
X81749Y263266D01*
X80000D01*
X81166D02*
X82333Y262100D01*
X85831Y265599D02*
X83499D01*
Y263849D01*
X84665Y264433D01*
X85248D01*
X85831Y263849D01*
Y262683D01*
X85248Y262100D01*
X84082D01*
X83499Y262683D01*
X86998Y262100D02*
X88164D01*
X87581D01*
Y265599D01*
X86998Y265016D01*
X79900Y256900D02*
Y260399D01*
X81649D01*
X82233Y259816D01*
Y258649D01*
X81649Y258066D01*
X79900D01*
X81066D02*
X82233Y256900D01*
X85731Y260399D02*
X83399D01*
Y258649D01*
X84565Y259233D01*
X85148D01*
X85731Y258649D01*
Y257483D01*
X85148Y256900D01*
X83982D01*
X83399Y257483D01*
X86898Y259816D02*
X87481Y260399D01*
X88647D01*
X89230Y259816D01*
Y257483D01*
X88647Y256900D01*
X87481D01*
X86898Y257483D01*
Y259816D01*
X80000Y251600D02*
Y255099D01*
X81749D01*
X82333Y254516D01*
Y253349D01*
X81749Y252766D01*
X80000D01*
X81166D02*
X82333Y251600D01*
X85831Y255099D02*
X83499D01*
Y253349D01*
X84665Y253933D01*
X85248D01*
X85831Y253349D01*
Y252183D01*
X85248Y251600D01*
X84082D01*
X83499Y252183D01*
X88747Y251600D02*
Y255099D01*
X86998Y253349D01*
X89330D01*
X145500Y182500D02*
X142001D01*
Y184249D01*
X142584Y184833D01*
X143751D01*
X144334Y184249D01*
Y182500D01*
Y183666D02*
X145500Y184833D01*
X142001Y188331D02*
Y185999D01*
X143751D01*
X143167Y187165D01*
Y187748D01*
X143751Y188331D01*
X144917D01*
X145500Y187748D01*
Y186582D01*
X144917Y185999D01*
X142001Y191830D02*
Y189498D01*
X143751D01*
X143167Y190664D01*
Y191247D01*
X143751Y191830D01*
X144917D01*
X145500Y191247D01*
Y190081D01*
X144917Y189498D01*
X157500Y182350D02*
X154001D01*
Y184100D01*
X154584Y184683D01*
X155751D01*
X156334Y184100D01*
Y182350D01*
Y183517D02*
X157500Y184683D01*
X154001Y188182D02*
Y185849D01*
X155751D01*
X155167Y187016D01*
Y187599D01*
X155751Y188182D01*
X156917D01*
X157500Y187599D01*
Y186432D01*
X156917Y185849D01*
X154001Y191681D02*
X154584Y190514D01*
X155751Y189348D01*
X156917D01*
X157500Y189931D01*
Y191098D01*
X156917Y191681D01*
X156334D01*
X155751Y191098D01*
Y189348D01*
X115100Y294000D02*
X111601D01*
Y295749D01*
X112184Y296333D01*
X113351D01*
X113934Y295749D01*
Y294000D01*
Y295166D02*
X115100Y296333D01*
Y299831D02*
Y297499D01*
X112767Y299831D01*
X112184D01*
X111601Y299248D01*
Y298082D01*
X112184Y297499D01*
X115100Y300998D02*
Y302164D01*
Y301581D01*
X111601D01*
X112184Y300998D01*
X122700Y293700D02*
X119201D01*
Y295449D01*
X119784Y296033D01*
X120951D01*
X121534Y295449D01*
Y293700D01*
Y294866D02*
X122700Y296033D01*
Y299531D02*
Y297199D01*
X120367Y299531D01*
X119784D01*
X119201Y298948D01*
Y297782D01*
X119784Y297199D01*
X122700Y303030D02*
Y300698D01*
X120367Y303030D01*
X119784D01*
X119201Y302447D01*
Y301281D01*
X119784Y300698D01*
X129600Y293700D02*
X126101D01*
Y295449D01*
X126684Y296033D01*
X127851D01*
X128434Y295449D01*
Y293700D01*
Y294866D02*
X129600Y296033D01*
Y299531D02*
Y297199D01*
X127267Y299531D01*
X126684D01*
X126101Y298948D01*
Y297782D01*
X126684Y297199D01*
Y300698D02*
X126101Y301281D01*
Y302447D01*
X126684Y303030D01*
X127267D01*
X127851Y302447D01*
Y301864D01*
Y302447D01*
X128434Y303030D01*
X129017D01*
X129600Y302447D01*
Y301281D01*
X129017Y300698D01*
X136800Y293800D02*
X133301D01*
Y295549D01*
X133884Y296133D01*
X135051D01*
X135634Y295549D01*
Y293800D01*
Y294966D02*
X136800Y296133D01*
Y299631D02*
Y297299D01*
X134467Y299631D01*
X133884D01*
X133301Y299048D01*
Y297882D01*
X133884Y297299D01*
X133301Y303130D02*
Y300798D01*
X135051D01*
X134467Y301964D01*
Y302547D01*
X135051Y303130D01*
X136217D01*
X136800Y302547D01*
Y301381D01*
X136217Y300798D01*
X144300Y294000D02*
X140801D01*
Y295749D01*
X141384Y296333D01*
X142551D01*
X143134Y295749D01*
Y294000D01*
Y295166D02*
X144300Y296333D01*
Y299831D02*
Y297499D01*
X141967Y299831D01*
X141384D01*
X140801Y299248D01*
Y298082D01*
X141384Y297499D01*
X144300Y302747D02*
X140801D01*
X142551Y300998D01*
Y303330D01*
X151700Y293700D02*
X148201D01*
Y295449D01*
X148784Y296033D01*
X149951D01*
X150534Y295449D01*
Y293700D01*
Y294866D02*
X151700Y296033D01*
Y299531D02*
Y297199D01*
X149367Y299531D01*
X148784D01*
X148201Y298948D01*
Y297782D01*
X148784Y297199D01*
X148201Y300698D02*
Y303030D01*
X148784D01*
X151117Y300698D01*
X151700D01*
X160000Y293900D02*
X156501D01*
Y295649D01*
X157084Y296233D01*
X158251D01*
X158834Y295649D01*
Y293900D01*
Y295066D02*
X160000Y296233D01*
Y299731D02*
Y297399D01*
X157667Y299731D01*
X157084D01*
X156501Y299148D01*
Y297982D01*
X157084Y297399D01*
X156501Y303230D02*
X157084Y302064D01*
X158251Y300898D01*
X159417D01*
X160000Y301481D01*
Y302647D01*
X159417Y303230D01*
X158834D01*
X158251Y302647D01*
Y300898D01*
X167200Y293800D02*
X163701D01*
Y295549D01*
X164284Y296133D01*
X165451D01*
X166034Y295549D01*
Y293800D01*
Y294966D02*
X167200Y296133D01*
Y299631D02*
Y297299D01*
X164867Y299631D01*
X164284D01*
X163701Y299048D01*
Y297882D01*
X164284Y297299D01*
Y300798D02*
X163701Y301381D01*
Y302547D01*
X164284Y303130D01*
X164867D01*
X165451Y302547D01*
X166034Y303130D01*
X166617D01*
X167200Y302547D01*
Y301381D01*
X166617Y300798D01*
X166034D01*
X165451Y301381D01*
X164867Y300798D01*
X164284D01*
X165451Y301381D02*
Y302547D01*
X161500Y219000D02*
Y222499D01*
X163249D01*
X163833Y221916D01*
Y220749D01*
X163249Y220166D01*
X161500D01*
X162666D02*
X163833Y219000D01*
X166748D02*
Y222499D01*
X164999Y220749D01*
X167331D01*
X170830Y222499D02*
X168498D01*
Y220749D01*
X169664Y221333D01*
X170247D01*
X170830Y220749D01*
Y219583D01*
X170247Y219000D01*
X169081D01*
X168498Y219583D01*
X172000Y231500D02*
Y234999D01*
X173749D01*
X174333Y234416D01*
Y233249D01*
X173749Y232666D01*
X172000D01*
X173166D02*
X174333Y231500D01*
X177248D02*
Y234999D01*
X175499Y233249D01*
X177831D01*
X178998Y234416D02*
X179581Y234999D01*
X180747D01*
X181330Y234416D01*
Y232083D01*
X180747Y231500D01*
X179581D01*
X178998Y232083D01*
Y234416D01*
X172000Y238000D02*
Y241499D01*
X173749D01*
X174333Y240916D01*
Y239749D01*
X173749Y239166D01*
X172000D01*
X173166D02*
X174333Y238000D01*
X175499Y240916D02*
X176082Y241499D01*
X177248D01*
X177831Y240916D01*
Y240333D01*
X177248Y239749D01*
X176665D01*
X177248D01*
X177831Y239166D01*
Y238583D01*
X177248Y238000D01*
X176082D01*
X175499Y238583D01*
X181330Y241499D02*
X178998D01*
Y239749D01*
X180164Y240333D01*
X180747D01*
X181330Y239749D01*
Y238583D01*
X180747Y238000D01*
X179581D01*
X178998Y238583D01*
X172000Y244500D02*
Y247999D01*
X173749D01*
X174333Y247416D01*
Y246249D01*
X173749Y245666D01*
X172000D01*
X173166D02*
X174333Y244500D01*
X175499Y247416D02*
X176082Y247999D01*
X177248D01*
X177831Y247416D01*
Y246833D01*
X177248Y246249D01*
X176665D01*
X177248D01*
X177831Y245666D01*
Y245083D01*
X177248Y244500D01*
X176082D01*
X175499Y245083D01*
X180747Y244500D02*
Y247999D01*
X178998Y246249D01*
X181330D01*
X226733Y235599D02*
X225566D01*
X226149D01*
Y232683D01*
X225566Y232100D01*
X224983D01*
X224400Y232683D01*
X227899Y232100D02*
X229065D01*
X228482D01*
Y235599D01*
X227899Y235016D01*
X230815Y232100D02*
X231981D01*
X231398D01*
Y235599D01*
X230815Y235016D01*
X98084Y238333D02*
X97501Y237749D01*
Y236583D01*
X98084Y236000D01*
X100417D01*
X101000Y236583D01*
Y237749D01*
X100417Y238333D01*
X97501Y239499D02*
Y241831D01*
X98084D01*
X100417Y239499D01*
X101000D01*
X98084Y224333D02*
X97501Y223749D01*
Y222583D01*
X98084Y222000D01*
X100417D01*
X101000Y222583D01*
Y223749D01*
X100417Y224333D01*
X98084Y225499D02*
X97501Y226082D01*
Y227248D01*
X98084Y227831D01*
X98667D01*
X99251Y227248D01*
X99834Y227831D01*
X100417D01*
X101000Y227248D01*
Y226082D01*
X100417Y225499D01*
X99834D01*
X99251Y226082D01*
X98667Y225499D01*
X98084D01*
X99251Y226082D02*
Y227248D01*
X98584Y209833D02*
X98001Y209249D01*
Y208083D01*
X98584Y207500D01*
X100917D01*
X101500Y208083D01*
Y209249D01*
X100917Y209833D01*
X101500Y210999D02*
Y212165D01*
Y211582D01*
X98001D01*
X98584Y210999D01*
Y213915D02*
X98001Y214498D01*
Y215664D01*
X98584Y216247D01*
X100917D01*
X101500Y215664D01*
Y214498D01*
X100917Y213915D01*
X98584D01*
X98084Y196833D02*
X97501Y196249D01*
Y195083D01*
X98084Y194500D01*
X100417D01*
X101000Y195083D01*
Y196249D01*
X100417Y196833D01*
X101000Y197999D02*
Y199165D01*
Y198582D01*
X97501D01*
X98084Y197999D01*
X101000Y203247D02*
Y200915D01*
X98667Y203247D01*
X98084D01*
X97501Y202664D01*
Y201498D01*
X98084Y200915D01*
X117433Y271216D02*
X116849Y271799D01*
X115683D01*
X115100Y271216D01*
Y268883D01*
X115683Y268300D01*
X116849D01*
X117433Y268883D01*
X118599Y271216D02*
X119182Y271799D01*
X120348D01*
X120931Y271216D01*
Y270633D01*
X120348Y270049D01*
X119765D01*
X120348D01*
X120931Y269466D01*
Y268883D01*
X120348Y268300D01*
X119182D01*
X118599Y268883D01*
X132033Y270716D02*
X131449Y271299D01*
X130283D01*
X129700Y270716D01*
Y268383D01*
X130283Y267800D01*
X131449D01*
X132033Y268383D01*
X134948Y267800D02*
Y271299D01*
X133199Y269549D01*
X135531D01*
X145933Y271016D02*
X145349Y271599D01*
X144183D01*
X143600Y271016D01*
Y268683D01*
X144183Y268100D01*
X145349D01*
X145933Y268683D01*
X149431Y271599D02*
X147099D01*
Y269849D01*
X148265Y270433D01*
X148848D01*
X149431Y269849D01*
Y268683D01*
X148848Y268100D01*
X147682D01*
X147099Y268683D01*
X161233Y271916D02*
X160649Y272499D01*
X159483D01*
X158900Y271916D01*
Y269583D01*
X159483Y269000D01*
X160649D01*
X161233Y269583D01*
X164731Y272499D02*
X163565Y271916D01*
X162399Y270749D01*
Y269583D01*
X162982Y269000D01*
X164148D01*
X164731Y269583D01*
Y270166D01*
X164148Y270749D01*
X162399D01*
X161800Y157100D02*
X158301D01*
Y158849D01*
X158884Y159433D01*
X160051D01*
X160634Y158849D01*
Y157100D01*
Y158266D02*
X161800Y159433D01*
X158301Y162931D02*
X158884Y161765D01*
X160051Y160599D01*
X161217D01*
X161800Y161182D01*
Y162348D01*
X161217Y162931D01*
X160634D01*
X160051Y162348D01*
Y160599D01*
X158301Y164098D02*
Y166430D01*
X158884D01*
X161217Y164098D01*
X161800D01*
X56200Y288600D02*
X52701D01*
Y290349D01*
X53284Y290933D01*
X54451D01*
X55034Y290349D01*
Y288600D01*
Y289766D02*
X56200Y290933D01*
X53284Y292099D02*
X52701Y292682D01*
Y293848D01*
X53284Y294431D01*
X53867D01*
X54451Y293848D01*
Y293265D01*
Y293848D01*
X55034Y294431D01*
X55617D01*
X56200Y293848D01*
Y292682D01*
X55617Y292099D01*
X56200Y297930D02*
Y295598D01*
X53867Y297930D01*
X53284D01*
X52701Y297347D01*
Y296181D01*
X53284Y295598D01*
X70800Y324700D02*
Y328199D01*
X72549D01*
X73133Y327616D01*
Y326449D01*
X72549Y325866D01*
X70800D01*
X71966D02*
X73133Y324700D01*
X76631Y328199D02*
X74299D01*
Y326449D01*
X75465Y327033D01*
X76048D01*
X76631Y326449D01*
Y325283D01*
X76048Y324700D01*
X74882D01*
X74299Y325283D01*
X49100Y323700D02*
X45601D01*
Y325449D01*
X46184Y326033D01*
X47351D01*
X47934Y325449D01*
Y323700D01*
Y324866D02*
X49100Y326033D01*
Y327199D02*
Y328365D01*
Y327782D01*
X45601D01*
X46184Y327199D01*
X45601Y330115D02*
Y332447D01*
X46184D01*
X48517Y330115D01*
X49100D01*
X108300Y324200D02*
Y327699D01*
X110049D01*
X110633Y327116D01*
Y325949D01*
X110049Y325366D01*
X108300D01*
X109466D02*
X110633Y324200D01*
X111799Y327699D02*
X114131D01*
Y327116D01*
X111799Y324783D01*
Y324200D01*
X194600Y158199D02*
Y155283D01*
X195183Y154700D01*
X196349D01*
X196933Y155283D01*
Y158199D01*
X200431Y154700D02*
X198099D01*
X200431Y157033D01*
Y157616D01*
X199848Y158199D01*
X198682D01*
X198099Y157616D01*
X112000Y125499D02*
Y122583D01*
X112583Y122000D01*
X113749D01*
X114333Y122583D01*
Y125499D01*
X115499Y124916D02*
X116082Y125499D01*
X117248D01*
X117831Y124916D01*
Y124333D01*
X117248Y123749D01*
X116665D01*
X117248D01*
X117831Y123166D01*
Y122583D01*
X117248Y122000D01*
X116082D01*
X115499Y122583D01*
X177600Y271099D02*
X179933D01*
X178766D01*
Y267600D01*
X181099D02*
Y271099D01*
X182848D01*
X183431Y270516D01*
Y269349D01*
X182848Y268766D01*
X181099D01*
X186930Y267600D02*
X184598D01*
X186930Y269933D01*
Y270516D01*
X186347Y271099D01*
X185181D01*
X184598Y270516D01*
X167000Y157100D02*
X163501D01*
Y158849D01*
X164084Y159433D01*
X165251D01*
X165834Y158849D01*
Y157100D01*
Y158266D02*
X167000Y159433D01*
X163501Y162931D02*
X164084Y161765D01*
X165251Y160599D01*
X166417D01*
X167000Y161182D01*
Y162348D01*
X166417Y162931D01*
X165834D01*
X165251Y162348D01*
Y160599D01*
X164084Y164098D02*
X163501Y164681D01*
Y165847D01*
X164084Y166430D01*
X164667D01*
X165251Y165847D01*
X165834Y166430D01*
X166417D01*
X167000Y165847D01*
Y164681D01*
X166417Y164098D01*
X165834D01*
X165251Y164681D01*
X164667Y164098D01*
X164084D01*
X165251Y164681D02*
Y165847D01*
X160500Y125100D02*
Y128599D01*
X162249D01*
X162833Y128016D01*
Y126849D01*
X162249Y126266D01*
X160500D01*
X161666D02*
X162833Y125100D01*
X163999Y128599D02*
X166331D01*
Y128016D01*
X163999Y125683D01*
Y125100D01*
X169830Y128599D02*
X168664Y128016D01*
X167498Y126849D01*
Y125683D01*
X168081Y125100D01*
X169247D01*
X169830Y125683D01*
Y126266D01*
X169247Y126849D01*
X167498D01*
X67600Y118400D02*
Y121899D01*
X69349D01*
X69933Y121316D01*
Y120149D01*
X69349Y119566D01*
X67600D01*
X68766D02*
X69933Y118400D01*
X71099Y121899D02*
X73431D01*
Y121316D01*
X71099Y118983D01*
Y118400D01*
X76347D02*
Y121899D01*
X74598Y120149D01*
X76930D01*
X67400Y132500D02*
Y135999D01*
X69149D01*
X69733Y135416D01*
Y134249D01*
X69149Y133666D01*
X67400D01*
X68566D02*
X69733Y132500D01*
X70899Y135999D02*
X73231D01*
Y135416D01*
X70899Y133083D01*
Y132500D01*
X74398Y135416D02*
X74981Y135999D01*
X76147D01*
X76730Y135416D01*
Y133083D01*
X76147Y132500D01*
X74981D01*
X74398Y133083D01*
Y135416D01*
X67400Y146000D02*
Y149499D01*
X69149D01*
X69733Y148916D01*
Y147749D01*
X69149Y147166D01*
X67400D01*
X68566D02*
X69733Y146000D01*
X73231Y149499D02*
X72065Y148916D01*
X70899Y147749D01*
Y146583D01*
X71482Y146000D01*
X72648D01*
X73231Y146583D01*
Y147166D01*
X72648Y147749D01*
X70899D01*
X76730Y149499D02*
X75564Y148916D01*
X74398Y147749D01*
Y146583D01*
X74981Y146000D01*
X76147D01*
X76730Y146583D01*
Y147166D01*
X76147Y147749D01*
X74398D01*
X67500Y159000D02*
Y162499D01*
X69249D01*
X69833Y161916D01*
Y160749D01*
X69249Y160166D01*
X67500D01*
X68666D02*
X69833Y159000D01*
X73331Y162499D02*
X72165Y161916D01*
X70999Y160749D01*
Y159583D01*
X71582Y159000D01*
X72748D01*
X73331Y159583D01*
Y160166D01*
X72748Y160749D01*
X70999D01*
X74498Y161916D02*
X75081Y162499D01*
X76247D01*
X76830Y161916D01*
Y161333D01*
X76247Y160749D01*
X75664D01*
X76247D01*
X76830Y160166D01*
Y159583D01*
X76247Y159000D01*
X75081D01*
X74498Y159583D01*
X67900Y139300D02*
Y142799D01*
X69649D01*
X70233Y142216D01*
Y141049D01*
X69649Y140466D01*
X67900D01*
X69066D02*
X70233Y139300D01*
X73731Y142799D02*
X72565Y142216D01*
X71399Y141049D01*
Y139883D01*
X71982Y139300D01*
X73148D01*
X73731Y139883D01*
Y140466D01*
X73148Y141049D01*
X71399D01*
X77230Y142799D02*
X74898D01*
Y141049D01*
X76064Y141633D01*
X76647D01*
X77230Y141049D01*
Y139883D01*
X76647Y139300D01*
X75481D01*
X74898Y139883D01*
X67500Y152000D02*
Y155499D01*
X69249D01*
X69833Y154916D01*
Y153749D01*
X69249Y153166D01*
X67500D01*
X68666D02*
X69833Y152000D01*
X73331Y155499D02*
X72165Y154916D01*
X70999Y153749D01*
Y152583D01*
X71582Y152000D01*
X72748D01*
X73331Y152583D01*
Y153166D01*
X72748Y153749D01*
X70999D01*
X76247Y152000D02*
Y155499D01*
X74498Y153749D01*
X76830D01*
X67500Y96500D02*
X64001D01*
Y98249D01*
X64584Y98833D01*
X65751D01*
X66334Y98249D01*
Y96500D01*
Y97666D02*
X67500Y98833D01*
X64584Y99999D02*
X64001Y100582D01*
Y101748D01*
X64584Y102331D01*
X65167D01*
X65751Y101748D01*
X66334Y102331D01*
X66917D01*
X67500Y101748D01*
Y100582D01*
X66917Y99999D01*
X66334D01*
X65751Y100582D01*
X65167Y99999D01*
X64584D01*
X65751Y100582D02*
Y101748D01*
X64001Y105830D02*
Y103498D01*
X65751D01*
X65167Y104664D01*
Y105247D01*
X65751Y105830D01*
X66917D01*
X67500Y105247D01*
Y104081D01*
X66917Y103498D01*
X77000Y96800D02*
X73501D01*
Y98549D01*
X74084Y99133D01*
X75251D01*
X75834Y98549D01*
Y96800D01*
Y97966D02*
X77000Y99133D01*
X74084Y100299D02*
X73501Y100882D01*
Y102048D01*
X74084Y102631D01*
X74667D01*
X75251Y102048D01*
X75834Y102631D01*
X76417D01*
X77000Y102048D01*
Y100882D01*
X76417Y100299D01*
X75834D01*
X75251Y100882D01*
X74667Y100299D01*
X74084D01*
X75251Y100882D02*
Y102048D01*
X73501Y103798D02*
Y106130D01*
X74084D01*
X76417Y103798D01*
X77000D01*
X72000Y96800D02*
X68501D01*
Y98549D01*
X69084Y99133D01*
X70251D01*
X70834Y98549D01*
Y96800D01*
Y97966D02*
X72000Y99133D01*
X69084Y100299D02*
X68501Y100882D01*
Y102048D01*
X69084Y102631D01*
X69667D01*
X70251Y102048D01*
X70834Y102631D01*
X71417D01*
X72000Y102048D01*
Y100882D01*
X71417Y100299D01*
X70834D01*
X70251Y100882D01*
X69667Y100299D01*
X69084D01*
X70251Y100882D02*
Y102048D01*
X72000Y105547D02*
X68501D01*
X70251Y103798D01*
Y106130D01*
X86400Y96400D02*
X82901D01*
Y98149D01*
X83484Y98733D01*
X84651D01*
X85234Y98149D01*
Y96400D01*
Y97566D02*
X86400Y98733D01*
X83484Y99899D02*
X82901Y100482D01*
Y101648D01*
X83484Y102231D01*
X84067D01*
X84651Y101648D01*
X85234Y102231D01*
X85817D01*
X86400Y101648D01*
Y100482D01*
X85817Y99899D01*
X85234D01*
X84651Y100482D01*
X84067Y99899D01*
X83484D01*
X84651Y100482D02*
Y101648D01*
X85817Y103398D02*
X86400Y103981D01*
Y105147D01*
X85817Y105730D01*
X83484D01*
X82901Y105147D01*
Y103981D01*
X83484Y103398D01*
X84067D01*
X84651Y103981D01*
Y105730D01*
X81700Y96800D02*
X78201D01*
Y98549D01*
X78784Y99133D01*
X79951D01*
X80534Y98549D01*
Y96800D01*
Y97966D02*
X81700Y99133D01*
X78784Y100299D02*
X78201Y100882D01*
Y102048D01*
X78784Y102631D01*
X79367D01*
X79951Y102048D01*
X80534Y102631D01*
X81117D01*
X81700Y102048D01*
Y100882D01*
X81117Y100299D01*
X80534D01*
X79951Y100882D01*
X79367Y100299D01*
X78784D01*
X79951Y100882D02*
Y102048D01*
X78201Y106130D02*
X78784Y104964D01*
X79951Y103798D01*
X81117D01*
X81700Y104381D01*
Y105547D01*
X81117Y106130D01*
X80534D01*
X79951Y105547D01*
Y103798D01*
X96500Y96900D02*
X93001D01*
Y98649D01*
X93584Y99233D01*
X94751D01*
X95334Y98649D01*
Y96900D01*
Y98066D02*
X96500Y99233D01*
X95917Y100399D02*
X96500Y100982D01*
Y102148D01*
X95917Y102731D01*
X93584D01*
X93001Y102148D01*
Y100982D01*
X93584Y100399D01*
X94167D01*
X94751Y100982D01*
Y102731D01*
X96500Y103898D02*
Y105064D01*
Y104481D01*
X93001D01*
X93584Y103898D01*
X91300Y96500D02*
X87801D01*
Y98249D01*
X88384Y98833D01*
X89551D01*
X90134Y98249D01*
Y96500D01*
Y97666D02*
X91300Y98833D01*
X88384Y99999D02*
X87801Y100582D01*
Y101748D01*
X88384Y102331D01*
X88967D01*
X89551Y101748D01*
X90134Y102331D01*
X90717D01*
X91300Y101748D01*
Y100582D01*
X90717Y99999D01*
X90134D01*
X89551Y100582D01*
X88967Y99999D01*
X88384D01*
X89551Y100582D02*
Y101748D01*
X88384Y103498D02*
X87801Y104081D01*
Y105247D01*
X88384Y105830D01*
X88967D01*
X89551Y105247D01*
X90134Y105830D01*
X90717D01*
X91300Y105247D01*
Y104081D01*
X90717Y103498D01*
X90134D01*
X89551Y104081D01*
X88967Y103498D01*
X88384D01*
X89551Y104081D02*
Y105247D01*
X101400Y96500D02*
X97901D01*
Y98249D01*
X98484Y98833D01*
X99651D01*
X100234Y98249D01*
Y96500D01*
Y97666D02*
X101400Y98833D01*
X100817Y99999D02*
X101400Y100582D01*
Y101748D01*
X100817Y102331D01*
X98484D01*
X97901Y101748D01*
Y100582D01*
X98484Y99999D01*
X99067D01*
X99651Y100582D01*
Y102331D01*
X98484Y103498D02*
X97901Y104081D01*
Y105247D01*
X98484Y105830D01*
X100817D01*
X101400Y105247D01*
Y104081D01*
X100817Y103498D01*
X98484D01*
X151484Y167633D02*
X150901Y167049D01*
Y165883D01*
X151484Y165300D01*
X153817D01*
X154400Y165883D01*
Y167049D01*
X153817Y167633D01*
X154400Y168799D02*
Y169965D01*
Y169382D01*
X150901D01*
X151484Y168799D01*
X150901Y174047D02*
Y171715D01*
X152651D01*
X152067Y172881D01*
Y173464D01*
X152651Y174047D01*
X153817D01*
X154400Y173464D01*
Y172298D01*
X153817Y171715D01*
X139933Y173916D02*
X139349Y174499D01*
X138183D01*
X137600Y173916D01*
Y171583D01*
X138183Y171000D01*
X139349D01*
X139933Y171583D01*
X141099Y171000D02*
X142265D01*
X141682D01*
Y174499D01*
X141099Y173916D01*
X144015D02*
X144598Y174499D01*
X145764D01*
X146347Y173916D01*
Y173333D01*
X145764Y172749D01*
X146347Y172166D01*
Y171583D01*
X145764Y171000D01*
X144598D01*
X144015Y171583D01*
Y172166D01*
X144598Y172749D01*
X144015Y173333D01*
Y173916D01*
X144598Y172749D02*
X145764D01*
X100284Y121933D02*
X99701Y121349D01*
Y120183D01*
X100284Y119600D01*
X102617D01*
X103200Y120183D01*
Y121349D01*
X102617Y121933D01*
X103200Y125431D02*
Y123099D01*
X100867Y125431D01*
X100284D01*
X99701Y124848D01*
Y123682D01*
X100284Y123099D01*
X103200Y128930D02*
Y126598D01*
X100867Y128930D01*
X100284D01*
X99701Y128347D01*
Y127181D01*
X100284Y126598D01*
X99884Y135033D02*
X99301Y134449D01*
Y133283D01*
X99884Y132700D01*
X102217D01*
X102800Y133283D01*
Y134449D01*
X102217Y135033D01*
X102800Y138531D02*
Y136199D01*
X100467Y138531D01*
X99884D01*
X99301Y137948D01*
Y136782D01*
X99884Y136199D01*
Y139698D02*
X99301Y140281D01*
Y141447D01*
X99884Y142030D01*
X102217D01*
X102800Y141447D01*
Y140281D01*
X102217Y139698D01*
X99884D01*
X100084Y149333D02*
X99501Y148749D01*
Y147583D01*
X100084Y147000D01*
X102417D01*
X103000Y147583D01*
Y148749D01*
X102417Y149333D01*
X103000Y150499D02*
Y151665D01*
Y151082D01*
X99501D01*
X100084Y150499D01*
X99501Y153415D02*
Y155747D01*
X100084D01*
X102417Y153415D01*
X103000D01*
X99884Y162033D02*
X99301Y161449D01*
Y160283D01*
X99884Y159700D01*
X102217D01*
X102800Y160283D01*
Y161449D01*
X102217Y162033D01*
X102800Y163199D02*
Y164365D01*
Y163782D01*
X99301D01*
X99884Y163199D01*
X102800Y167864D02*
X99301D01*
X101051Y166115D01*
Y168447D01*
X107683Y97416D02*
X107100Y97999D01*
X105933D01*
X105350Y97416D01*
Y95083D01*
X105933Y94500D01*
X107100D01*
X107683Y95083D01*
X111182Y94500D02*
X108849D01*
X111182Y96833D01*
Y97416D01*
X110599Y97999D01*
X109432D01*
X108849Y97416D01*
X114681Y97999D02*
X113514Y97416D01*
X112348Y96249D01*
Y95083D01*
X112931Y94500D01*
X114098D01*
X114681Y95083D01*
Y95666D01*
X114098Y96249D01*
X112348D01*
X106000Y142099D02*
X108333D01*
X107166D01*
Y138600D01*
X109499D02*
Y142099D01*
X111248D01*
X111831Y141516D01*
Y140349D01*
X111248Y139766D01*
X109499D01*
X112998Y138600D02*
X114164D01*
X113581D01*
Y142099D01*
X112998Y141516D01*
X115913D02*
X116497Y142099D01*
X117663D01*
X118246Y141516D01*
Y140933D01*
X117663Y140349D01*
X117080D01*
X117663D01*
X118246Y139766D01*
Y139183D01*
X117663Y138600D01*
X116497D01*
X115913Y139183D01*
X171600Y137899D02*
X173933D01*
X172766D01*
Y134400D01*
X175099D02*
Y137899D01*
X176848D01*
X177431Y137316D01*
Y136149D01*
X176848Y135566D01*
X175099D01*
X178598Y134400D02*
X179764D01*
X179181D01*
Y137899D01*
X178598Y137316D01*
X183263Y134400D02*
Y137899D01*
X181514Y136149D01*
X183846D01*
X158301Y88400D02*
Y90733D01*
Y89566D01*
X161800D01*
Y91899D02*
X158301D01*
Y93648D01*
X158884Y94231D01*
X160051D01*
X160634Y93648D01*
Y91899D01*
X161800Y95398D02*
Y96564D01*
Y95981D01*
X158301D01*
X158884Y95398D01*
Y98313D02*
X158301Y98897D01*
Y100063D01*
X158884Y100646D01*
X159467D01*
X160051Y100063D01*
X160634Y100646D01*
X161217D01*
X161800Y100063D01*
Y98897D01*
X161217Y98313D01*
X160634D01*
X160051Y98897D01*
X159467Y98313D01*
X158884D01*
X160051Y98897D02*
Y100063D01*
X146100Y106699D02*
X148433D01*
X147266D01*
Y103200D01*
X149599D02*
Y106699D01*
X151348D01*
X151931Y106116D01*
Y104949D01*
X151348Y104366D01*
X149599D01*
X153098Y103200D02*
X154264D01*
X153681D01*
Y106699D01*
X153098Y106116D01*
X158346Y106699D02*
X157180Y106116D01*
X156014Y104949D01*
Y103783D01*
X156597Y103200D01*
X157763D01*
X158346Y103783D01*
Y104366D01*
X157763Y104949D01*
X156014D01*
X187001Y55700D02*
Y58033D01*
Y56866D01*
X190500D01*
Y59199D02*
X187001D01*
Y60948D01*
X187584Y61531D01*
X188751D01*
X189334Y60948D01*
Y59199D01*
X190500Y65030D02*
Y62698D01*
X188167Y65030D01*
X187584D01*
X187001Y64447D01*
Y63281D01*
X187584Y62698D01*
Y66197D02*
X187001Y66780D01*
Y67946D01*
X187584Y68529D01*
X189917D01*
X190500Y67946D01*
Y66780D01*
X189917Y66197D01*
X187584D01*
X169400Y172600D02*
Y176099D01*
X171149D01*
X171733Y175516D01*
Y174349D01*
X171149Y173766D01*
X169400D01*
X170566D02*
X171733Y172600D01*
X175231Y176099D02*
X172899D01*
Y174349D01*
X174065Y174933D01*
X174648D01*
X175231Y174349D01*
Y173183D01*
X174648Y172600D01*
X173482D01*
X172899Y173183D01*
X176398Y175516D02*
X176981Y176099D01*
X178147D01*
X178730Y175516D01*
Y174933D01*
X178147Y174349D01*
X178730Y173766D01*
Y173183D01*
X178147Y172600D01*
X176981D01*
X176398Y173183D01*
Y173766D01*
X176981Y174349D01*
X176398Y174933D01*
Y175516D01*
X176981Y174349D02*
X178147D01*
X219338Y277499D02*
X218171D01*
X218754D01*
Y274583D01*
X218171Y274000D01*
X217588D01*
X217005Y274583D01*
X220504Y277499D02*
X222836D01*
Y276916D01*
X220504Y274583D01*
Y274000D01*
X174701Y182233D02*
Y179900D01*
X176451D01*
Y181066D01*
Y179900D01*
X178200D01*
X174701Y183399D02*
X178200D01*
Y185148D01*
X177617Y185731D01*
X177034D01*
X176451Y185148D01*
Y183399D01*
Y185148D01*
X175867Y185731D01*
X175284D01*
X174701Y185148D01*
Y183399D01*
X178200Y186898D02*
Y188064D01*
Y187481D01*
X174701D01*
X175284Y186898D01*
X122500Y351299D02*
Y347700D01*
X124299D01*
X124899Y348300D01*
Y350699D01*
X124299Y351299D01*
X122500D01*
X128498Y347700D02*
X126099D01*
X128498Y350099D01*
Y350699D01*
X127898Y351299D01*
X126699D01*
X126099Y350699D01*
X205100Y176099D02*
Y172600D01*
X206849D01*
X207433Y173183D01*
Y175516D01*
X206849Y176099D01*
X205100D01*
X208599Y172600D02*
X209765D01*
X209182D01*
Y176099D01*
X208599Y175516D01*
X211515D02*
X212098Y176099D01*
X213264D01*
X213847Y175516D01*
Y174933D01*
X213264Y174349D01*
X212681D01*
X213264D01*
X213847Y173766D01*
Y173183D01*
X213264Y172600D01*
X212098D01*
X211515Y173183D01*
X167584Y197833D02*
X167001Y197249D01*
Y196083D01*
X167584Y195500D01*
X169917D01*
X170500Y196083D01*
Y197249D01*
X169917Y197833D01*
X170500Y198999D02*
Y200165D01*
Y199582D01*
X167001D01*
X167584Y198999D01*
Y201915D02*
X167001Y202498D01*
Y203664D01*
X167584Y204247D01*
X168167D01*
X168751Y203664D01*
Y203081D01*
Y203664D01*
X169334Y204247D01*
X169917D01*
X170500Y203664D01*
Y202498D01*
X169917Y201915D01*
X167833Y192916D02*
X167249Y193499D01*
X166083D01*
X165500Y192916D01*
Y190583D01*
X166083Y190000D01*
X167249D01*
X167833Y190583D01*
X168999Y190000D02*
X170165D01*
X169582D01*
Y193499D01*
X168999Y192916D01*
X171915Y190000D02*
X173081D01*
X172498D01*
Y193499D01*
X171915Y192916D01*
X208233Y129316D02*
X207649Y129899D01*
X206483D01*
X205900Y129316D01*
Y126983D01*
X206483Y126400D01*
X207649D01*
X208233Y126983D01*
X211731Y126400D02*
X209399D01*
X211731Y128733D01*
Y129316D01*
X211148Y129899D01*
X209982D01*
X209399Y129316D01*
X212898D02*
X213481Y129899D01*
X214647D01*
X215230Y129316D01*
Y128733D01*
X214647Y128149D01*
X214064D01*
X214647D01*
X215230Y127566D01*
Y126983D01*
X214647Y126400D01*
X213481D01*
X212898Y126983D01*
X176733Y156016D02*
X176149Y156599D01*
X174983D01*
X174400Y156016D01*
Y153683D01*
X174983Y153100D01*
X176149D01*
X176733Y153683D01*
X177899Y153100D02*
X179065D01*
X178482D01*
Y156599D01*
X177899Y156016D01*
X183147Y156599D02*
X181981Y156016D01*
X180815Y154849D01*
Y153683D01*
X181398Y153100D01*
X182564D01*
X183147Y153683D01*
Y154266D01*
X182564Y154849D01*
X180815D01*
X208333Y137116D02*
X207749Y137699D01*
X206583D01*
X206000Y137116D01*
Y134783D01*
X206583Y134200D01*
X207749D01*
X208333Y134783D01*
X211831Y134200D02*
X209499D01*
X211831Y136533D01*
Y137116D01*
X211248Y137699D01*
X210082D01*
X209499Y137116D01*
X212998Y134200D02*
X214164D01*
X213581D01*
Y137699D01*
X212998Y137116D01*
X177033Y150116D02*
X176449Y150699D01*
X175283D01*
X174700Y150116D01*
Y147783D01*
X175283Y147200D01*
X176449D01*
X177033Y147783D01*
X178199Y147200D02*
X179365D01*
X178782D01*
Y150699D01*
X178199Y150116D01*
X181115Y147783D02*
X181698Y147200D01*
X182864D01*
X183447Y147783D01*
Y150116D01*
X182864Y150699D01*
X181698D01*
X181115Y150116D01*
Y149533D01*
X181698Y148949D01*
X183447D01*
X106000Y170499D02*
X108333D01*
X107166D01*
Y167000D01*
X109499D02*
Y170499D01*
X111248D01*
X111831Y169916D01*
Y168749D01*
X111248Y168166D01*
X109499D01*
X112998Y167000D02*
X114164D01*
X113581D01*
Y170499D01*
X112998Y169916D01*
X118246Y167000D02*
X115913D01*
X118246Y169333D01*
Y169916D01*
X117663Y170499D01*
X116497D01*
X115913Y169916D01*
X67500Y166000D02*
Y169499D01*
X69249D01*
X69833Y168916D01*
Y167749D01*
X69249Y167166D01*
X67500D01*
X68666D02*
X69833Y166000D01*
X73331Y169499D02*
X72165Y168916D01*
X70999Y167749D01*
Y166583D01*
X71582Y166000D01*
X72748D01*
X73331Y166583D01*
Y167166D01*
X72748Y167749D01*
X70999D01*
X76830Y166000D02*
X74498D01*
X76830Y168333D01*
Y168916D01*
X76247Y169499D01*
X75081D01*
X74498Y168916D01*
X166501Y206500D02*
X170000D01*
Y208249D01*
X169417Y208833D01*
X167084D01*
X166501Y208249D01*
Y206500D01*
X170000Y209999D02*
Y211165D01*
Y210582D01*
X166501D01*
X167084Y209999D01*
X170000Y212915D02*
Y214081D01*
Y213498D01*
X166501D01*
X167084Y212915D01*
X222800Y246799D02*
X225133D01*
X223966D01*
Y243300D01*
X226299D02*
Y246799D01*
X228048D01*
X228631Y246216D01*
Y245049D01*
X228048Y244466D01*
X226299D01*
X232130Y246799D02*
X230964Y246216D01*
X229798Y245049D01*
Y243883D01*
X230381Y243300D01*
X231547D01*
X232130Y243883D01*
Y244466D01*
X231547Y245049D01*
X229798D01*
X218738Y313316D02*
X218154Y313899D01*
X216988D01*
X216405Y313316D01*
Y310983D01*
X216988Y310400D01*
X218154D01*
X218738Y310983D01*
X222236Y310400D02*
X219904D01*
X222236Y312733D01*
Y313316D01*
X221653Y313899D01*
X220487D01*
X219904Y313316D01*
X233933Y332316D02*
X233349Y332899D01*
X232183D01*
X231600Y332316D01*
Y329983D01*
X232183Y329400D01*
X233349D01*
X233933Y329983D01*
X235099Y329400D02*
X236265D01*
X235682D01*
Y332899D01*
X235099Y332316D01*
X148833Y97916D02*
X148249Y98499D01*
X147083D01*
X146500Y97916D01*
Y95583D01*
X147083Y95000D01*
X148249D01*
X148833Y95583D01*
X152331Y95000D02*
X149999D01*
X152331Y97333D01*
Y97916D01*
X151748Y98499D01*
X150582D01*
X149999Y97916D01*
X153498Y95583D02*
X154081Y95000D01*
X155247D01*
X155830Y95583D01*
Y97916D01*
X155247Y98499D01*
X154081D01*
X153498Y97916D01*
Y97333D01*
X154081Y96749D01*
X155830D01*
X120333Y97416D02*
X119749Y97999D01*
X118583D01*
X118000Y97416D01*
Y95083D01*
X118583Y94500D01*
X119749D01*
X120333Y95083D01*
X123831Y94500D02*
X121499D01*
X123831Y96833D01*
Y97416D01*
X123248Y97999D01*
X122082D01*
X121499Y97416D01*
X124998Y97999D02*
X127330D01*
Y97416D01*
X124998Y95083D01*
Y94500D01*
X134333Y97416D02*
X133749Y97999D01*
X132583D01*
X132000Y97416D01*
Y95083D01*
X132583Y94500D01*
X133749D01*
X134333Y95083D01*
X137831Y94500D02*
X135499D01*
X137831Y96833D01*
Y97416D01*
X137248Y97999D01*
X136082D01*
X135499Y97416D01*
X138998D02*
X139581Y97999D01*
X140747D01*
X141330Y97416D01*
Y96833D01*
X140747Y96249D01*
X141330Y95666D01*
Y95083D01*
X140747Y94500D01*
X139581D01*
X138998Y95083D01*
Y95666D01*
X139581Y96249D01*
X138998Y96833D01*
Y97416D01*
X139581Y96249D02*
X140747D01*
X85400Y351499D02*
Y348000D01*
X87149D01*
X87733Y348583D01*
Y350916D01*
X87149Y351499D01*
X85400D01*
X88899Y348000D02*
X90065D01*
X89482D01*
Y351499D01*
X88899Y350916D01*
X11500Y326699D02*
Y323200D01*
X13249D01*
X13833Y323783D01*
Y326116D01*
X13249Y326699D01*
X11500D01*
X17332D02*
X14999D01*
Y324949D01*
X16165Y325533D01*
X16748D01*
X17332Y324949D01*
Y323783D01*
X16748Y323200D01*
X15582D01*
X14999Y323783D01*
X21000Y287099D02*
Y283600D01*
X22749D01*
X23333Y284183D01*
Y286516D01*
X22749Y287099D01*
X21000D01*
X26831D02*
X25665Y286516D01*
X24499Y285349D01*
Y284183D01*
X25082Y283600D01*
X26248D01*
X26831Y284183D01*
Y284766D01*
X26248Y285349D01*
X24499D01*
X20300Y250399D02*
Y246900D01*
X22049D01*
X22633Y247483D01*
Y249816D01*
X22049Y250399D01*
X20300D01*
X23799Y249816D02*
X24382Y250399D01*
X25548D01*
X26131Y249816D01*
Y249233D01*
X25548Y248649D01*
X26131Y248066D01*
Y247483D01*
X25548Y246900D01*
X24382D01*
X23799Y247483D01*
Y248066D01*
X24382Y248649D01*
X23799Y249233D01*
Y249816D01*
X24382Y248649D02*
X25548D01*
X20500Y217999D02*
Y214500D01*
X22249D01*
X22833Y215083D01*
Y217416D01*
X22249Y217999D01*
X20500D01*
X23999Y214500D02*
X25165D01*
X24582D01*
Y217999D01*
X23999Y217416D01*
X26915D02*
X27498Y217999D01*
X28664D01*
X29247Y217416D01*
Y215083D01*
X28664Y214500D01*
X27498D01*
X26915Y215083D01*
Y217416D01*
X193300Y351199D02*
Y347700D01*
X195049D01*
X195633Y348283D01*
Y350616D01*
X195049Y351199D01*
X193300D01*
X198548Y347700D02*
Y351199D01*
X196799Y349449D01*
X199131D01*
X156800Y351399D02*
Y347900D01*
X158549D01*
X159133Y348483D01*
Y350816D01*
X158549Y351399D01*
X156800D01*
X160299Y350816D02*
X160882Y351399D01*
X162048D01*
X162631Y350816D01*
Y350233D01*
X162048Y349649D01*
X161465D01*
X162048D01*
X162631Y349066D01*
Y348483D01*
X162048Y347900D01*
X160882D01*
X160299Y348483D01*
X34833Y97999D02*
X33666D01*
X34249D01*
Y95083D01*
X33666Y94500D01*
X33083D01*
X32500Y95083D01*
X35999Y94500D02*
X37165D01*
X36582D01*
Y97999D01*
X35999Y97416D01*
X38915D02*
X39498Y97999D01*
X40664D01*
X41247Y97416D01*
Y96833D01*
X40664Y96249D01*
X40081D01*
X40664D01*
X41247Y95666D01*
Y95083D01*
X40664Y94500D01*
X39498D01*
X38915Y95083D01*
X35233Y61099D02*
X34066D01*
X34649D01*
Y58183D01*
X34066Y57600D01*
X33483D01*
X32900Y58183D01*
X36399Y57600D02*
X37565D01*
X36982D01*
Y61099D01*
X36399Y60516D01*
X41064Y57600D02*
Y61099D01*
X39315Y59349D01*
X41647D01*
X63533Y25899D02*
X62366D01*
X62949D01*
Y22983D01*
X62366Y22400D01*
X61783D01*
X61200Y22983D01*
X64699Y22400D02*
X65865D01*
X65282D01*
Y25899D01*
X64699Y25316D01*
X69947Y25899D02*
X67615D01*
Y24149D01*
X68781Y24733D01*
X69364D01*
X69947Y24149D01*
Y22983D01*
X69364Y22400D01*
X68198D01*
X67615Y22983D01*
X114333Y34999D02*
X113166D01*
X113749D01*
Y32083D01*
X113166Y31500D01*
X112583D01*
X112000Y32083D01*
X115499Y31500D02*
X116665D01*
X116082D01*
Y34999D01*
X115499Y34416D01*
X120747Y34999D02*
X119581Y34416D01*
X118415Y33249D01*
Y32083D01*
X118998Y31500D01*
X120164D01*
X120747Y32083D01*
Y32666D01*
X120164Y33249D01*
X118415D01*
X149333Y34499D02*
X148166D01*
X148749D01*
Y31583D01*
X148166Y31000D01*
X147583D01*
X147000Y31583D01*
X150499Y31000D02*
X151665D01*
X151082D01*
Y34499D01*
X150499Y33916D01*
X153415Y34499D02*
X155747D01*
Y33916D01*
X153415Y31583D01*
Y31000D01*
X180733Y33999D02*
X179566D01*
X180149D01*
Y31083D01*
X179566Y30500D01*
X178983D01*
X178400Y31083D01*
X181899Y30500D02*
X183065D01*
X182482D01*
Y33999D01*
X181899Y33416D01*
X184815D02*
X185398Y33999D01*
X186564D01*
X187147Y33416D01*
Y32833D01*
X186564Y32249D01*
X187147Y31666D01*
Y31083D01*
X186564Y30500D01*
X185398D01*
X184815Y31083D01*
Y31666D01*
X185398Y32249D01*
X184815Y32833D01*
Y33416D01*
X185398Y32249D02*
X186564D01*
X34633Y164899D02*
X33466D01*
X34049D01*
Y161983D01*
X33466Y161400D01*
X32883D01*
X32300Y161983D01*
X35799Y161400D02*
X36965D01*
X36382D01*
Y164899D01*
X35799Y164316D01*
X38715D02*
X39298Y164899D01*
X40464D01*
X41047Y164316D01*
Y161983D01*
X40464Y161400D01*
X39298D01*
X38715Y161983D01*
Y164316D01*
X34433Y131199D02*
X33266D01*
X33849D01*
Y128283D01*
X33266Y127700D01*
X32683D01*
X32100Y128283D01*
X35599Y127700D02*
X36765D01*
X36182D01*
Y131199D01*
X35599Y130616D01*
X40847Y127700D02*
X38515D01*
X40847Y130033D01*
Y130616D01*
X40264Y131199D01*
X39098D01*
X38515Y130616D01*
X64700Y220000D02*
X61201D01*
Y221749D01*
X61784Y222333D01*
X62951D01*
X63534Y221749D01*
Y220000D01*
Y221166D02*
X64700Y222333D01*
Y225248D02*
X61201D01*
X62951Y223499D01*
Y225831D01*
X64117Y226998D02*
X64700Y227581D01*
Y228747D01*
X64117Y229330D01*
X61784D01*
X61201Y228747D01*
Y227581D01*
X61784Y226998D01*
X62367D01*
X62951Y227581D01*
Y229330D01*
X64700Y253900D02*
X61201D01*
Y255649D01*
X61784Y256233D01*
X62951D01*
X63534Y255649D01*
Y253900D01*
Y255066D02*
X64700Y256233D01*
X61784Y257399D02*
X61201Y257982D01*
Y259148D01*
X61784Y259731D01*
X62367D01*
X62951Y259148D01*
Y258565D01*
Y259148D01*
X63534Y259731D01*
X64117D01*
X64700Y259148D01*
Y257982D01*
X64117Y257399D01*
X61784Y260898D02*
X61201Y261481D01*
Y262647D01*
X61784Y263230D01*
X62367D01*
X62951Y262647D01*
X63534Y263230D01*
X64117D01*
X64700Y262647D01*
Y261481D01*
X64117Y260898D01*
X63534D01*
X62951Y261481D01*
X62367Y260898D01*
X61784D01*
X62951Y261481D02*
Y262647D01*
X64000Y288900D02*
X60501D01*
Y290649D01*
X61084Y291233D01*
X62251D01*
X62834Y290649D01*
Y288900D01*
Y290066D02*
X64000Y291233D01*
X61084Y292399D02*
X60501Y292982D01*
Y294148D01*
X61084Y294731D01*
X61667D01*
X62251Y294148D01*
Y293565D01*
Y294148D01*
X62834Y294731D01*
X63417D01*
X64000Y294148D01*
Y292982D01*
X63417Y292399D01*
X64000Y295898D02*
Y297064D01*
Y296481D01*
X60501D01*
X61084Y295898D01*
X62400Y323800D02*
X58901D01*
Y325549D01*
X59484Y326133D01*
X60651D01*
X61234Y325549D01*
Y323800D01*
Y324966D02*
X62400Y326133D01*
Y327299D02*
Y328465D01*
Y327882D01*
X58901D01*
X59484Y327299D01*
Y330215D02*
X58901Y330798D01*
Y331964D01*
X59484Y332547D01*
X60067D01*
X60651Y331964D01*
X61234Y332547D01*
X61817D01*
X62400Y331964D01*
Y330798D01*
X61817Y330215D01*
X61234D01*
X60651Y330798D01*
X60067Y330215D01*
X59484D01*
X60651Y330798D02*
Y331964D01*
X66200Y333400D02*
Y336899D01*
X67949D01*
X68533Y336316D01*
Y335149D01*
X67949Y334566D01*
X66200D01*
X67366D02*
X68533Y333400D01*
X69699D02*
X70865D01*
X70282D01*
Y336899D01*
X69699Y336316D01*
X105700Y309700D02*
Y313199D01*
X107449D01*
X108033Y312616D01*
Y311449D01*
X107449Y310866D01*
X105700D01*
X106866D02*
X108033Y309700D01*
X109199D02*
X110365D01*
X109782D01*
Y313199D01*
X109199Y312616D01*
X114447Y309700D02*
X112115D01*
X114447Y312033D01*
Y312616D01*
X113864Y313199D01*
X112698D01*
X112115Y312616D01*
X40500Y323700D02*
X37001D01*
Y325449D01*
X37584Y326033D01*
X38751D01*
X39334Y325449D01*
Y323700D01*
Y324866D02*
X40500Y326033D01*
Y327199D02*
Y328365D01*
Y327782D01*
X37001D01*
X37584Y327199D01*
X39917Y330115D02*
X40500Y330698D01*
Y331864D01*
X39917Y332447D01*
X37584D01*
X37001Y331864D01*
Y330698D01*
X37584Y330115D01*
X38167D01*
X38751Y330698D01*
Y332447D01*
X49200Y289100D02*
X45701D01*
Y290849D01*
X46284Y291433D01*
X47451D01*
X48034Y290849D01*
Y289100D01*
Y290266D02*
X49200Y291433D01*
X46284Y292599D02*
X45701Y293182D01*
Y294348D01*
X46284Y294931D01*
X46867D01*
X47451Y294348D01*
Y293765D01*
Y294348D01*
X48034Y294931D01*
X48617D01*
X49200Y294348D01*
Y293182D01*
X48617Y292599D01*
X46284Y296098D02*
X45701Y296681D01*
Y297847D01*
X46284Y298430D01*
X48617D01*
X49200Y297847D01*
Y296681D01*
X48617Y296098D01*
X46284D01*
X33300Y288600D02*
Y292099D01*
X35049D01*
X35633Y291516D01*
Y290349D01*
X35049Y289766D01*
X33300D01*
X34466D02*
X35633Y288600D01*
X39132D02*
X36799D01*
X39132Y290933D01*
Y291516D01*
X38548Y292099D01*
X37382D01*
X36799Y291516D01*
X40298Y289183D02*
X40881Y288600D01*
X42047D01*
X42630Y289183D01*
Y291516D01*
X42047Y292099D01*
X40881D01*
X40298Y291516D01*
Y290933D01*
X40881Y290349D01*
X42630D01*
X34400Y254400D02*
Y257899D01*
X36149D01*
X36733Y257316D01*
Y256149D01*
X36149Y255566D01*
X34400D01*
X35566D02*
X36733Y254400D01*
X37899Y257316D02*
X38482Y257899D01*
X39648D01*
X40231Y257316D01*
Y256733D01*
X39648Y256149D01*
X39065D01*
X39648D01*
X40231Y255566D01*
Y254983D01*
X39648Y254400D01*
X38482D01*
X37899Y254983D01*
X43730Y257899D02*
X42564Y257316D01*
X41398Y256149D01*
Y254983D01*
X41981Y254400D01*
X43147D01*
X43730Y254983D01*
Y255566D01*
X43147Y256149D01*
X41398D01*
X49600Y254500D02*
X46101D01*
Y256249D01*
X46684Y256833D01*
X47851D01*
X48434Y256249D01*
Y254500D01*
Y255666D02*
X49600Y256833D01*
X46684Y257999D02*
X46101Y258582D01*
Y259748D01*
X46684Y260331D01*
X47267D01*
X47851Y259748D01*
Y259165D01*
Y259748D01*
X48434Y260331D01*
X49017D01*
X49600Y259748D01*
Y258582D01*
X49017Y257999D01*
X46101Y261498D02*
Y263830D01*
X46684D01*
X49017Y261498D01*
X49600D01*
X67700Y310500D02*
Y313999D01*
X69449D01*
X70033Y313416D01*
Y312249D01*
X69449Y311666D01*
X67700D01*
X68866D02*
X70033Y310500D01*
X71199D02*
X72365D01*
X71782D01*
Y313999D01*
X71199Y313416D01*
X74115D02*
X74698Y313999D01*
X75864D01*
X76447Y313416D01*
Y311083D01*
X75864Y310500D01*
X74698D01*
X74115Y311083D01*
Y313416D01*
X35000Y221000D02*
Y224499D01*
X36749D01*
X37333Y223916D01*
Y222749D01*
X36749Y222166D01*
X35000D01*
X36166D02*
X37333Y221000D01*
X40248D02*
Y224499D01*
X38499Y222749D01*
X40832D01*
X41998Y223916D02*
X42581Y224499D01*
X43747D01*
X44330Y223916D01*
Y223333D01*
X43747Y222749D01*
X44330Y222166D01*
Y221583D01*
X43747Y221000D01*
X42581D01*
X41998Y221583D01*
Y222166D01*
X42581Y222749D01*
X41998Y223333D01*
Y223916D01*
X42581Y222749D02*
X43747D01*
X50900Y220500D02*
X47401D01*
Y222249D01*
X47984Y222833D01*
X49151D01*
X49734Y222249D01*
Y220500D01*
Y221666D02*
X50900Y222833D01*
X47401Y226331D02*
Y223999D01*
X49151D01*
X48567Y225165D01*
Y225748D01*
X49151Y226331D01*
X50317D01*
X50900Y225748D01*
Y224582D01*
X50317Y223999D01*
X50900Y229830D02*
Y227498D01*
X48567Y229830D01*
X47984D01*
X47401Y229247D01*
Y228081D01*
X47984Y227498D01*
X174000Y332300D02*
Y335799D01*
X175749D01*
X176333Y335216D01*
Y334049D01*
X175749Y333466D01*
X174000D01*
X175166D02*
X176333Y332300D01*
X179248D02*
Y335799D01*
X177499Y334049D01*
X179831D01*
X179200Y323900D02*
Y327399D01*
X180949D01*
X181533Y326816D01*
Y325649D01*
X180949Y325066D01*
X179200D01*
X180366D02*
X181533Y323900D01*
X182699Y324483D02*
X183282Y323900D01*
X184448D01*
X185031Y324483D01*
Y326816D01*
X184448Y327399D01*
X183282D01*
X182699Y326816D01*
Y326233D01*
X183282Y325649D01*
X185031D01*
X176500Y308900D02*
Y312399D01*
X178249D01*
X178833Y311816D01*
Y310649D01*
X178249Y310066D01*
X176500D01*
X177666D02*
X178833Y308900D01*
X179999D02*
X181165D01*
X180582D01*
Y312399D01*
X179999Y311816D01*
X185247Y312399D02*
X184081Y311816D01*
X182915Y310649D01*
Y309483D01*
X183498Y308900D01*
X184664D01*
X185247Y309483D01*
Y310066D01*
X184664Y310649D01*
X182915D01*
X140100Y308800D02*
Y312299D01*
X141849D01*
X142433Y311716D01*
Y310549D01*
X141849Y309966D01*
X140100D01*
X141266D02*
X142433Y308800D01*
X143599D02*
X144765D01*
X144182D01*
Y312299D01*
X143599Y311716D01*
X148264Y308800D02*
Y312299D01*
X146515Y310549D01*
X148847D01*
X137300Y332200D02*
Y335699D01*
X139049D01*
X139633Y335116D01*
Y333949D01*
X139049Y333366D01*
X137300D01*
X138466D02*
X139633Y332200D01*
X140799Y335116D02*
X141382Y335699D01*
X142548D01*
X143131Y335116D01*
Y334533D01*
X142548Y333949D01*
X141965D01*
X142548D01*
X143131Y333366D01*
Y332783D01*
X142548Y332200D01*
X141382D01*
X140799Y332783D01*
X142500Y323300D02*
Y326799D01*
X144249D01*
X144833Y326216D01*
Y325049D01*
X144249Y324466D01*
X142500D01*
X143666D02*
X144833Y323300D01*
X145999Y326216D02*
X146582Y326799D01*
X147748D01*
X148331Y326216D01*
Y325633D01*
X147748Y325049D01*
X148331Y324466D01*
Y323883D01*
X147748Y323300D01*
X146582D01*
X145999Y323883D01*
Y324466D01*
X146582Y325049D01*
X145999Y325633D01*
Y326216D01*
X146582Y325049D02*
X147748D01*
X58000Y254000D02*
X54501D01*
Y255749D01*
X55084Y256333D01*
X56251D01*
X56834Y255749D01*
Y254000D01*
Y255166D02*
X58000Y256333D01*
Y259248D02*
X54501D01*
X56251Y257499D01*
Y259831D01*
X58000Y263330D02*
Y260998D01*
X55667Y263330D01*
X55084D01*
X54501Y262747D01*
Y261581D01*
X55084Y260998D01*
X58000Y220500D02*
X54501D01*
Y222249D01*
X55084Y222833D01*
X56251D01*
X56834Y222249D01*
Y220500D01*
Y221666D02*
X58000Y222833D01*
X54501Y226331D02*
Y223999D01*
X56251D01*
X55667Y225165D01*
Y225748D01*
X56251Y226331D01*
X57417D01*
X58000Y225748D01*
Y224582D01*
X57417Y223999D01*
X55084Y227498D02*
X54501Y228081D01*
Y229247D01*
X55084Y229830D01*
X55667D01*
X56251Y229247D01*
Y228664D01*
Y229247D01*
X56834Y229830D01*
X57417D01*
X58000Y229247D01*
Y228081D01*
X57417Y227498D01*
X176300Y315700D02*
Y319199D01*
X178049D01*
X178633Y318616D01*
Y317449D01*
X178049Y316866D01*
X176300D01*
X177466D02*
X178633Y315700D01*
X179799D02*
X180965D01*
X180382D01*
Y319199D01*
X179799Y318616D01*
X185047Y319199D02*
X182715D01*
Y317449D01*
X183881Y318033D01*
X184464D01*
X185047Y317449D01*
Y316283D01*
X184464Y315700D01*
X183298D01*
X182715Y316283D01*
X139300Y316500D02*
Y319999D01*
X141049D01*
X141633Y319416D01*
Y318249D01*
X141049Y317666D01*
X139300D01*
X140466D02*
X141633Y316500D01*
X142799D02*
X143965D01*
X143382D01*
Y319999D01*
X142799Y319416D01*
X145715D02*
X146298Y319999D01*
X147464D01*
X148047Y319416D01*
Y318833D01*
X147464Y318249D01*
X146881D01*
X147464D01*
X148047Y317666D01*
Y317083D01*
X147464Y316500D01*
X146298D01*
X145715Y317083D01*
X160001Y207350D02*
Y209350D01*
Y208350D01*
X163000D01*
Y210349D02*
X160001D01*
Y211849D01*
X160501Y212349D01*
X161501D01*
X162000Y211849D01*
Y210349D01*
X160001Y213349D02*
Y215348D01*
X160501D01*
X162500Y213349D01*
X163000D01*
X159500Y253699D02*
X161833D01*
X160666D01*
Y250200D01*
X162999D02*
Y253699D01*
X164748D01*
X165331Y253116D01*
Y251949D01*
X164748Y251366D01*
X162999D01*
X166498Y253116D02*
X167081Y253699D01*
X168247D01*
X168830Y253116D01*
Y252533D01*
X168247Y251949D01*
X167664D01*
X168247D01*
X168830Y251366D01*
Y250783D01*
X168247Y250200D01*
X167081D01*
X166498Y250783D01*
X102300Y253699D02*
X104633D01*
X103466D01*
Y250200D01*
X105799D02*
Y253699D01*
X107548D01*
X108131Y253116D01*
Y251949D01*
X107548Y251366D01*
X105799D01*
X111047Y250200D02*
Y253699D01*
X109298Y251949D01*
X111630D01*
X94200Y268499D02*
X96533D01*
X95366D01*
Y265000D01*
X97699D02*
Y268499D01*
X99448D01*
X100031Y267916D01*
Y266749D01*
X99448Y266166D01*
X97699D01*
X101198Y265000D02*
X102364D01*
X101781D01*
Y268499D01*
X101198Y267916D01*
X99433Y341599D02*
X98266D01*
X98849D01*
Y338683D01*
X98266Y338100D01*
X97683D01*
X97100Y338683D01*
X102931Y338100D02*
X100599D01*
X102931Y340433D01*
Y341016D01*
X102348Y341599D01*
X101182D01*
X100599Y341016D01*
X33033Y265799D02*
X31866D01*
X32449D01*
Y262883D01*
X31866Y262300D01*
X31283D01*
X30700Y262883D01*
X36531Y265799D02*
X35365Y265216D01*
X34199Y264049D01*
Y262883D01*
X34782Y262300D01*
X35948D01*
X36531Y262883D01*
Y263466D01*
X35948Y264049D01*
X34199D01*
X154550Y177799D02*
X156882D01*
X155716D01*
Y174300D01*
X158048D02*
Y177799D01*
X159798D01*
X160381Y177216D01*
Y176049D01*
X159798Y175466D01*
X158048D01*
X161547Y174300D02*
X162714D01*
X162130D01*
Y177799D01*
X161547Y177216D01*
X164463Y174300D02*
X165629D01*
X165046D01*
Y177799D01*
X164463Y177216D01*
X136001Y198999D02*
X135501Y198500D01*
Y197500D01*
X136001Y197000D01*
X138000D01*
X138500Y197500D01*
Y198500D01*
X138000Y198999D01*
X135501Y199999D02*
Y201998D01*
X136001D01*
X138000Y199999D01*
X138500D01*
Y202998D02*
Y203998D01*
Y203498D01*
X135501D01*
X136001Y202998D01*
X87333Y176916D02*
X86749Y177499D01*
X85583D01*
X85000Y176916D01*
Y174583D01*
X85583Y174000D01*
X86749D01*
X87333Y174583D01*
X88499Y177499D02*
X90831D01*
Y176916D01*
X88499Y174583D01*
Y174000D01*
X94330D02*
X91998D01*
X94330Y176333D01*
Y176916D01*
X93747Y177499D01*
X92581D01*
X91998Y176916D01*
X70000Y186500D02*
Y189999D01*
X71749D01*
X72333Y189416D01*
Y188249D01*
X71749Y187666D01*
X70000D01*
X71166D02*
X72333Y186500D01*
X73499D02*
X74665D01*
X74082D01*
Y189999D01*
X73499Y189416D01*
X78747Y189999D02*
X77581Y189416D01*
X76415Y188249D01*
Y187083D01*
X76998Y186500D01*
X78164D01*
X78747Y187083D01*
Y187666D01*
X78164Y188249D01*
X76415D01*
X79914Y189416D02*
X80497Y189999D01*
X81663D01*
X82246Y189416D01*
Y187083D01*
X81663Y186500D01*
X80497D01*
X79914Y187083D01*
Y189416D01*
X68501Y170500D02*
Y172499D01*
Y171500D01*
X71500D01*
Y173499D02*
X68501D01*
Y174999D01*
X69001Y175498D01*
X70000D01*
X70500Y174999D01*
Y173499D01*
X71500Y178497D02*
Y176498D01*
X69501Y178497D01*
X69001D01*
X68501Y177998D01*
Y176998D01*
X69001Y176498D01*
X68501Y181496D02*
Y179497D01*
X70000D01*
X69501Y180497D01*
Y180997D01*
X70000Y181496D01*
X71000D01*
X71500Y180997D01*
Y179997D01*
X71000Y179497D01*
X210833Y45783D02*
Y48116D01*
X210249Y48699D01*
X209083D01*
X208500Y48116D01*
Y45783D01*
X209083Y45200D01*
X210249D01*
X209666Y46366D02*
X210833Y45200D01*
X210249D02*
X210833Y45783D01*
X214331Y45200D02*
X211999D01*
X214331Y47533D01*
Y48116D01*
X213748Y48699D01*
X212582D01*
X211999Y48116D01*
X231433Y259783D02*
Y262116D01*
X230849Y262699D01*
X229683D01*
X229100Y262116D01*
Y259783D01*
X229683Y259200D01*
X230849D01*
X230266Y260366D02*
X231433Y259200D01*
X230849D02*
X231433Y259783D01*
X232599Y259200D02*
X233765D01*
X233182D01*
Y262699D01*
X232599Y262116D01*
G54D58*
X154898Y244921D02*
G03*
X154898Y244921I-492J0D01*
G01*
X159965Y135622D02*
G03*
X159965Y135622I-492J0D01*
G01*
X107043Y196346D02*
G03*
X107043Y196346I-492J0D01*
G01*
G54D59*
X150469Y235374D02*
G03*
X150469Y235374I-1181J0D01*
G01*
X155535Y126075D02*
G03*
X155535Y126075I-1181J0D01*
G01*
G54D60*
X209400Y60300D02*
G03*
X209400Y60300I-1100J0D01*
G01*
X227032Y259500D02*
G03*
X227032Y259500I-1100J0D01*
G01*
X82750Y177000D02*
G03*
X82750Y177000I-5250J0D01*
G01*
X246795Y149095D02*
Y230906D01*
X225295Y149062D02*
X249705Y149038D01*
X225295Y230945D02*
X249705D01*
X225295Y149062D02*
Y230945D01*
X249705Y149038D02*
Y230945D01*
X186050Y89000D02*
Y107525D01*
X178150Y89000D02*
Y107525D01*
X190810Y115190D02*
X194500D01*
X190740Y115260D02*
X190810Y115190D01*
X190740Y122810D02*
X194500D01*
X190740Y115260D02*
Y122810D01*
X204260Y115260D02*
Y122810D01*
X200500D02*
X204260D01*
X204190Y115190D02*
X204260Y115260D01*
X200500Y115190D02*
X204190D01*
X207563Y49669D02*
X215437D01*
X207563Y58331D02*
X215437D01*
X208920Y88695D02*
X223880D01*
X208920Y100505D02*
X223880D01*
X208902Y86927D02*
X211500D01*
X208902Y81480D02*
Y86927D01*
Y81480D02*
X211500D01*
X218300D02*
X220898D01*
Y86927D01*
X218300D02*
X220898D01*
X208051Y33736D02*
X211595D01*
X208051D02*
Y43264D01*
X211595D01*
X223406D02*
X226949D01*
Y33736D02*
Y43264D01*
X223406Y33736D02*
X226949D01*
X170227Y143002D02*
Y145600D01*
X164780Y143002D02*
X170227D01*
X164780D02*
Y145600D01*
Y152400D02*
Y154998D01*
X170227D01*
Y152400D02*
Y154998D01*
X157773Y152495D02*
Y155093D01*
X163220D01*
Y152495D02*
Y155093D01*
Y143096D02*
Y145694D01*
X157773Y143096D02*
X163220D01*
X157773D02*
Y145694D01*
X168233Y230184D02*
X170831D01*
Y235631D01*
X168233D02*
X170831D01*
X158835D02*
X161433D01*
X158835Y230184D02*
Y235631D01*
Y230184D02*
X161433D01*
X168533Y223584D02*
X171131D01*
Y229031D01*
X168533D02*
X171131D01*
X159135D02*
X161733D01*
X159135Y223584D02*
Y229031D01*
Y223584D02*
X161733D01*
X200900Y107773D02*
X203498D01*
Y113220D01*
X200900D02*
X203498D01*
X191502D02*
X194100D01*
X191502Y107773D02*
Y113220D01*
Y107773D02*
X194100D01*
X218900Y260227D02*
X221498D01*
Y254780D02*
Y260227D01*
X218900Y254780D02*
X221498D01*
X209502D02*
X212100D01*
X209502D02*
Y260227D01*
X212100D01*
X204727Y56002D02*
Y58600D01*
X199280Y56002D02*
X204727D01*
X199280D02*
Y58600D01*
Y65400D02*
Y67998D01*
X204727D01*
Y65400D02*
Y67998D01*
Y42002D02*
Y44600D01*
X199280Y42002D02*
X204727D01*
X199280D02*
Y44600D01*
Y51400D02*
Y53998D01*
X204727D01*
Y51400D02*
Y53998D01*
X221527Y241502D02*
Y244100D01*
X216080Y241502D02*
X221527D01*
X216080D02*
Y244100D01*
Y250900D02*
Y253498D01*
X221527D01*
Y250900D02*
Y253498D01*
X72400Y66227D02*
X74998D01*
Y60780D02*
Y66227D01*
X72400Y60780D02*
X74998D01*
X63002D02*
X65600D01*
X63002D02*
Y66227D01*
X65600D01*
X77406Y43264D02*
X80949D01*
Y33736D02*
Y43264D01*
X77406Y33736D02*
X80949D01*
X62051D02*
X65595D01*
X62051D02*
Y43264D01*
X65595D01*
X66227Y107502D02*
Y110100D01*
X60780Y107502D02*
X66227D01*
X60780D02*
Y110100D01*
Y116900D02*
Y119498D01*
X66227D01*
Y116900D02*
Y119498D01*
X43264Y101551D02*
Y105095D01*
X33736Y101551D02*
X43264D01*
X33736D02*
Y105095D01*
Y116905D02*
Y120449D01*
X43264D01*
Y116905D02*
Y120449D01*
X63002Y53273D02*
X65600D01*
X63002D02*
Y58720D01*
X65600D01*
X72400D02*
X74998D01*
Y53273D02*
Y58720D01*
X72400Y53273D02*
X74998D01*
X53273Y116900D02*
Y119498D01*
X58720D01*
Y116900D02*
Y119498D01*
Y107502D02*
Y110100D01*
X53273Y107502D02*
X58720D01*
X53273D02*
Y110100D01*
X45773Y116900D02*
Y119498D01*
X51220D01*
Y116900D02*
Y119498D01*
Y107502D02*
Y110100D01*
X45773Y107502D02*
X51220D01*
X45773D02*
Y110100D01*
X63002Y45773D02*
X65600D01*
X63002D02*
Y51220D01*
X65600D01*
X72400D02*
X74998D01*
Y45773D02*
Y51220D01*
X72400Y45773D02*
X74998D01*
X101900Y66227D02*
X104498D01*
Y60780D02*
Y66227D01*
X101900Y60780D02*
X104498D01*
X92502D02*
X95100D01*
X92502D02*
Y66227D01*
X95100D01*
X106905Y43264D02*
X110449D01*
Y33736D02*
Y43264D01*
X106905Y33736D02*
X110449D01*
X91551D02*
X95095D01*
X91551D02*
Y43264D01*
X95095D01*
X66227Y72002D02*
Y74600D01*
X60780Y72002D02*
X66227D01*
X60780D02*
Y74600D01*
Y81400D02*
Y83998D01*
X66227D01*
Y81400D02*
Y83998D01*
X43264Y66051D02*
Y69595D01*
X33736Y66051D02*
X43264D01*
X33736D02*
Y69595D01*
Y81406D02*
Y84949D01*
X43264D01*
Y81406D02*
Y84949D01*
X92502Y53273D02*
X95100D01*
X92502D02*
Y58720D01*
X95100D01*
X101900D02*
X104498D01*
Y53273D02*
Y58720D01*
X101900Y53273D02*
X104498D01*
X92502Y45773D02*
X95100D01*
X92502D02*
Y51220D01*
X95100D01*
X101900D02*
X104498D01*
Y45773D02*
Y51220D01*
X101900Y45773D02*
X104498D01*
X53273Y81400D02*
Y83998D01*
X58720D01*
Y81400D02*
Y83998D01*
Y72002D02*
Y74600D01*
X53273Y72002D02*
X58720D01*
X53273D02*
Y74600D01*
X45773Y81400D02*
Y83998D01*
X51220D01*
Y81400D02*
Y83998D01*
Y72002D02*
Y74600D01*
X45773Y72002D02*
X51220D01*
X45773D02*
Y74600D01*
X66227Y173002D02*
Y175600D01*
X60780Y173002D02*
X66227D01*
X60780D02*
Y175600D01*
Y182400D02*
Y184998D01*
X66227D01*
Y182400D02*
Y184998D01*
X43264Y167051D02*
Y170595D01*
X33736Y167051D02*
X43264D01*
X33736D02*
Y170595D01*
Y182405D02*
Y185949D01*
X43264D01*
Y182405D02*
Y185949D01*
X133400Y66227D02*
X135998D01*
Y60780D02*
Y66227D01*
X133400Y60780D02*
X135998D01*
X124002D02*
X126600D01*
X124002D02*
Y66227D01*
X126600D01*
X138406Y43264D02*
X141949D01*
Y33736D02*
Y43264D01*
X138406Y33736D02*
X141949D01*
X123051D02*
X126594D01*
X123051D02*
Y43264D01*
X126594D01*
X53273Y182400D02*
Y184998D01*
X58720D01*
Y182400D02*
Y184998D01*
Y173002D02*
Y175600D01*
X53273Y173002D02*
X58720D01*
X53273D02*
Y175600D01*
X45773Y182400D02*
Y184998D01*
X51220D01*
Y182400D02*
Y184998D01*
Y173002D02*
Y175600D01*
X45773Y173002D02*
X51220D01*
X45773D02*
Y175600D01*
X124002Y53273D02*
X126600D01*
X124002D02*
Y58720D01*
X126600D01*
X133400D02*
X135998D01*
Y53273D02*
Y58720D01*
X133400Y53273D02*
X135998D01*
X124002Y45773D02*
X126600D01*
X124002D02*
Y51220D01*
X126600D01*
X133400D02*
X135998D01*
Y45773D02*
Y51220D01*
X133400Y45773D02*
X135998D01*
X66227Y139502D02*
Y142100D01*
X60780Y139502D02*
X66227D01*
X60780D02*
Y142100D01*
Y148900D02*
Y151498D01*
X66227D01*
Y148900D02*
Y151498D01*
X43264Y133551D02*
Y137094D01*
X33736Y133551D02*
X43264D01*
X33736D02*
Y137094D01*
Y148906D02*
Y152449D01*
X43264D01*
Y148906D02*
Y152449D01*
X167400Y66227D02*
X169998D01*
Y60780D02*
Y66227D01*
X167400Y60780D02*
X169998D01*
X158002D02*
X160600D01*
X158002D02*
Y66227D01*
X160600D01*
X172406Y43264D02*
X175949D01*
Y33736D02*
Y43264D01*
X172406Y33736D02*
X175949D01*
X157051D02*
X160594D01*
X157051D02*
Y43264D01*
X160594D01*
X53273Y148900D02*
Y151498D01*
X58720D01*
Y148900D02*
Y151498D01*
Y139502D02*
Y142100D01*
X53273Y139502D02*
X58720D01*
X53273D02*
Y142100D01*
X45773Y148900D02*
Y151498D01*
X51220D01*
Y148900D02*
Y151498D01*
Y139502D02*
Y142100D01*
X45773Y139502D02*
X51220D01*
X45773D02*
Y142100D01*
X158002Y53273D02*
X160600D01*
X158002D02*
Y58720D01*
X160600D01*
X167400D02*
X169998D01*
Y53273D02*
Y58720D01*
X167400Y53273D02*
X169998D01*
X158002Y45773D02*
X160600D01*
X158002D02*
Y51220D01*
X160600D01*
X167400D02*
X169998D01*
Y45773D02*
Y51220D01*
X167400Y45773D02*
X169998D01*
X110201Y330236D02*
X113744D01*
X110201D02*
Y339764D01*
X113744D01*
X125555D02*
X129098D01*
Y330236D02*
Y339764D01*
X125555Y330236D02*
X129098D01*
X87400Y129500D02*
X89998D01*
Y124053D02*
Y129500D01*
X87400Y124053D02*
X89998D01*
X78002D02*
X80600D01*
X78002D02*
Y129500D01*
X80600D01*
X209202Y74373D02*
X211800D01*
X209202D02*
Y79820D01*
X211800D01*
X218600D02*
X221198D01*
Y74373D02*
Y79820D01*
X218600Y74373D02*
X221198D01*
X177402Y80973D02*
X180000D01*
X177402D02*
Y86420D01*
X180000D01*
X186800D02*
X189398D01*
Y80973D02*
Y86420D01*
X186800Y80973D02*
X189398D01*
X196400Y320727D02*
X198998D01*
Y315280D02*
Y320727D01*
X196400Y315280D02*
X198998D01*
X187002D02*
X189600D01*
X187002D02*
Y320727D01*
X189600D01*
X53773Y215900D02*
Y218498D01*
X59220D01*
Y215900D02*
Y218498D01*
Y206502D02*
Y209100D01*
X53773Y206502D02*
X59220D01*
X53773D02*
Y209100D01*
X53073Y249300D02*
Y251898D01*
X58520D01*
Y249300D02*
Y251898D01*
Y239902D02*
Y242500D01*
X53073Y239902D02*
X58520D01*
X53073D02*
Y242500D01*
X51373Y284250D02*
Y286848D01*
X56820D01*
Y284250D02*
Y286848D01*
Y274851D02*
Y277450D01*
X51373Y274851D02*
X56820D01*
X51373D02*
Y277450D01*
Y319250D02*
Y321848D01*
X56820D01*
Y319250D02*
Y321848D01*
Y309851D02*
Y312450D01*
X51373Y309851D02*
X56820D01*
X51373D02*
Y312450D01*
X87550Y322727D02*
X90148D01*
Y317280D02*
Y322727D01*
X87550Y317280D02*
X90148D01*
X78151D02*
X80750D01*
X78151D02*
Y322727D01*
X80750D01*
X125550Y322227D02*
X128148D01*
Y316780D02*
Y322227D01*
X125550Y316780D02*
X128148D01*
X116151D02*
X118750D01*
X116151D02*
Y322227D01*
X118750D01*
X159900Y328227D02*
X162498D01*
Y322780D02*
Y328227D01*
X159900Y322780D02*
X162498D01*
X150502D02*
X153100D01*
X150502D02*
Y328227D01*
X153100D01*
X196400D02*
X198998D01*
Y322780D02*
Y328227D01*
X196400Y322780D02*
X198998D01*
X187002D02*
X189600D01*
X187002D02*
Y328227D01*
X189600D01*
X46273Y215900D02*
Y218498D01*
X51720D01*
Y215900D02*
Y218498D01*
Y206502D02*
Y209100D01*
X46273Y206502D02*
X51720D01*
X46273D02*
Y209100D01*
X45573Y249300D02*
Y251898D01*
X51020D01*
Y249300D02*
Y251898D01*
Y239902D02*
Y242500D01*
X45573Y239902D02*
X51020D01*
X45573D02*
Y242500D01*
X44873Y284250D02*
Y286848D01*
X50320D01*
Y284250D02*
Y286848D01*
Y274851D02*
Y277450D01*
X44873Y274851D02*
X50320D01*
X44873D02*
Y277450D01*
Y319250D02*
Y321848D01*
X50320D01*
Y319250D02*
Y321848D01*
Y309851D02*
Y312450D01*
X44873Y309851D02*
X50320D01*
X44873D02*
Y312450D01*
X87550Y329227D02*
X90148D01*
Y323780D02*
Y329227D01*
X87550Y323780D02*
X90148D01*
X78151D02*
X80750D01*
X78151D02*
Y329227D01*
X80750D01*
X125550Y328727D02*
X128148D01*
Y323280D02*
Y328727D01*
X125550Y323280D02*
X128148D01*
X116151D02*
X118750D01*
X116151D02*
Y328727D01*
X118750D01*
X76636Y192494D02*
X79234D01*
X76636D02*
Y197941D01*
X79234D01*
X86034D02*
X88632D01*
Y192494D02*
Y197941D01*
X86034Y192494D02*
X88632D01*
X167849Y280313D02*
Y282911D01*
X162402Y280313D02*
X167849D01*
X162402D02*
Y282911D01*
Y289711D02*
Y292309D01*
X167849D01*
Y289711D02*
Y292309D01*
X90407Y202120D02*
Y204719D01*
X95854D01*
Y202120D02*
Y204719D01*
Y192722D02*
Y195320D01*
X90407Y192722D02*
X95854D01*
X90407D02*
Y195320D01*
X155624Y273584D02*
X158222D01*
X155624D02*
Y279031D01*
X158222D01*
X165022D02*
X167620D01*
Y273584D02*
Y279031D01*
X165022Y273584D02*
X167620D01*
X76636Y198994D02*
X79234D01*
X76636D02*
Y204440D01*
X79234D01*
X86034D02*
X88632D01*
Y198994D02*
Y204440D01*
X86034Y198994D02*
X88632D01*
X160849Y280313D02*
Y282911D01*
X155402Y280313D02*
X160849D01*
X155402D02*
Y282911D01*
Y289711D02*
Y292309D01*
X160849D01*
Y289711D02*
Y292309D01*
X76636Y205994D02*
X79234D01*
X76636D02*
Y211440D01*
X79234D01*
X86034D02*
X88632D01*
Y205994D02*
Y211440D01*
X86034Y205994D02*
X88632D01*
X152349Y280313D02*
Y282911D01*
X146902Y280313D02*
X152349D01*
X146902D02*
Y282911D01*
Y289711D02*
Y292309D01*
X152349D01*
Y289711D02*
Y292309D01*
X90407Y215620D02*
Y218219D01*
X95854D01*
Y215620D02*
Y218219D01*
Y206222D02*
Y208821D01*
X90407Y206222D02*
X95854D01*
X90407D02*
Y208821D01*
X140124Y273084D02*
X142722D01*
X140124D02*
Y278531D01*
X142722D01*
X149522D02*
X152120D01*
Y273084D02*
Y278531D01*
X149522Y273084D02*
X152120D01*
X76636Y212494D02*
X79234D01*
X76636D02*
Y217940D01*
X79234D01*
X86034D02*
X88632D01*
Y212494D02*
Y217940D01*
X86034Y212494D02*
X88632D01*
X76636Y218994D02*
X79234D01*
X76636D02*
Y224441D01*
X79234D01*
X86034D02*
X88632D01*
Y218994D02*
Y224441D01*
X86034Y218994D02*
X88632D01*
X137849Y280313D02*
Y282911D01*
X132402Y280313D02*
X137849D01*
X132402D02*
Y282911D01*
Y289711D02*
Y292309D01*
X137849D01*
Y289711D02*
Y292309D01*
X90407Y228621D02*
Y231219D01*
X95854D01*
Y228621D02*
Y231219D01*
Y219222D02*
Y221820D01*
X90407Y219222D02*
X95854D01*
X90407D02*
Y221820D01*
X126124Y273084D02*
X128722D01*
X126124D02*
Y278531D01*
X128722D01*
X135522D02*
X138120D01*
Y273084D02*
Y278531D01*
X135522Y273084D02*
X138120D01*
X76636Y225994D02*
X79234D01*
X76636D02*
Y231440D01*
X79234D01*
X86034D02*
X88632D01*
Y225994D02*
Y231440D01*
X86034Y225994D02*
X88632D01*
X130849Y280313D02*
Y282911D01*
X125402Y280313D02*
X130849D01*
X125402D02*
Y282911D01*
Y289711D02*
Y292309D01*
X130849D01*
Y289711D02*
Y292309D01*
X76636Y232994D02*
X79234D01*
X76636D02*
Y238440D01*
X79234D01*
X86034D02*
X88632D01*
Y232994D02*
Y238440D01*
X86034Y232994D02*
X88632D01*
X123349Y280313D02*
Y282911D01*
X117902Y280313D02*
X123349D01*
X117902D02*
Y282911D01*
Y289711D02*
Y292309D01*
X123349D01*
Y289711D02*
Y292309D01*
X90407Y242121D02*
Y244719D01*
X95854D01*
Y242121D02*
Y244719D01*
Y232722D02*
Y235320D01*
X90407Y232722D02*
X95854D01*
X90407D02*
Y235320D01*
X111124Y273084D02*
X113722D01*
X111124D02*
Y278531D01*
X113722D01*
X120522D02*
X123120D01*
Y273084D02*
Y278531D01*
X120522Y273084D02*
X123120D01*
X76636Y239494D02*
X79234D01*
X76636D02*
Y244940D01*
X79234D01*
X86034D02*
X88632D01*
Y239494D02*
Y244940D01*
X86034Y239494D02*
X88632D01*
X116349Y280313D02*
Y282911D01*
X110902Y280313D02*
X116349D01*
X110902D02*
Y282911D01*
Y289711D02*
Y292309D01*
X116349D01*
Y289711D02*
Y292309D01*
X87400Y122500D02*
X89998D01*
Y117053D02*
Y122500D01*
X87400Y117053D02*
X89998D01*
X78002D02*
X80600D01*
X78002D02*
Y122500D01*
X80600D01*
X87400Y136727D02*
X89998D01*
Y131280D02*
Y136727D01*
X87400Y131280D02*
X89998D01*
X78002D02*
X80600D01*
X78002D02*
Y136727D01*
X80600D01*
X87400Y150227D02*
X89998D01*
Y144780D02*
Y150227D01*
X87400Y144780D02*
X89998D01*
X78002D02*
X80600D01*
X78002D02*
Y150227D01*
X80600D01*
X87400Y163727D02*
X89998D01*
Y158280D02*
Y163727D01*
X87400Y158280D02*
X89998D01*
X78002D02*
X80600D01*
X78002D02*
Y163727D01*
X80600D01*
X87400Y143727D02*
X89998D01*
Y138280D02*
Y143727D01*
X87400Y138280D02*
X89998D01*
X78002D02*
X80600D01*
X78002D02*
Y143727D01*
X80600D01*
X87400Y156727D02*
X89998D01*
Y151280D02*
Y156727D01*
X87400Y151280D02*
X89998D01*
X78002D02*
X80600D01*
X78002D02*
Y156727D01*
X80600D01*
X107227Y74002D02*
Y76600D01*
X101780Y74002D02*
X107227D01*
X101780D02*
Y76600D01*
Y83400D02*
Y85998D01*
X107227D01*
Y83400D02*
Y85998D01*
X121227Y74002D02*
Y76600D01*
X115780Y74002D02*
X121227D01*
X115780D02*
Y76600D01*
Y83400D02*
Y85998D01*
X121227D01*
Y83400D02*
Y85998D01*
X114227Y74002D02*
Y76600D01*
X108780Y74002D02*
X114227D01*
X108780D02*
Y76600D01*
Y83400D02*
Y85998D01*
X114227D01*
Y83400D02*
Y85998D01*
X135727Y74002D02*
Y76600D01*
X130280Y74002D02*
X135727D01*
X130280D02*
Y76600D01*
Y83400D02*
Y85998D01*
X135727D01*
Y83400D02*
Y85998D01*
X128227Y74002D02*
Y76600D01*
X122780Y74002D02*
X128227D01*
X122780D02*
Y76600D01*
Y83400D02*
Y85998D01*
X128227D01*
Y83400D02*
Y85998D01*
X149727Y74002D02*
Y76600D01*
X144280Y74002D02*
X149727D01*
X144280D02*
Y76600D01*
Y83400D02*
Y85998D01*
X149727D01*
Y83400D02*
Y85998D01*
X142727Y74002D02*
Y76600D01*
X137280Y74002D02*
X142727D01*
X137280D02*
Y76600D01*
Y83400D02*
Y85998D01*
X142727D01*
Y83400D02*
Y85998D01*
X157227Y74002D02*
Y76600D01*
X151780Y74002D02*
X157227D01*
X151780D02*
Y76600D01*
Y83400D02*
Y85998D01*
X157227D01*
Y83400D02*
Y85998D01*
X97728Y117775D02*
Y120373D01*
X92282Y117775D02*
X97728D01*
X92282D02*
Y120373D01*
Y127173D02*
Y129772D01*
X97728D01*
Y127173D02*
Y129772D01*
X97727Y131502D02*
Y134100D01*
X92280Y131502D02*
X97727D01*
X92280D02*
Y134100D01*
Y140900D02*
Y143498D01*
X97727D01*
Y140900D02*
Y143498D01*
Y145002D02*
Y147600D01*
X92280Y145002D02*
X97727D01*
X92280D02*
Y147600D01*
Y154400D02*
Y156998D01*
X97727D01*
Y154400D02*
Y156998D01*
Y158502D02*
Y161100D01*
X92280Y158502D02*
X97727D01*
X92280D02*
Y161100D01*
Y167900D02*
Y170498D01*
X97727D01*
Y167900D02*
Y170498D01*
X102502Y87773D02*
X105100D01*
X102502D02*
Y93220D01*
X105100D01*
X111900D02*
X114498D01*
Y87773D02*
Y93220D01*
X111900Y87773D02*
X114498D01*
X191502Y133273D02*
X194100D01*
X191502D02*
Y138720D01*
X194100D01*
X200900D02*
X203498D01*
Y133273D02*
Y138720D01*
X200900Y133273D02*
X203498D01*
X182400Y140773D02*
X184998D01*
Y146220D01*
X182400D02*
X184998D01*
X173002D02*
X175600D01*
X173002Y140773D02*
Y146220D01*
Y140773D02*
X175600D01*
X87400Y170727D02*
X89998D01*
Y165280D02*
Y170727D01*
X87400Y165280D02*
X89998D01*
X78002D02*
X80600D01*
X78002D02*
Y170727D01*
X80600D01*
X144502Y87773D02*
X147100D01*
X144502D02*
Y93220D01*
X147100D01*
X153900D02*
X156498D01*
Y87773D02*
Y93220D01*
X153900Y87773D02*
X156498D01*
X116002D02*
X118600D01*
X116002D02*
Y93220D01*
X118600D01*
X125400D02*
X127998D01*
Y87773D02*
Y93220D01*
X125400Y87773D02*
X127998D01*
X130502D02*
X133100D01*
X130502D02*
Y93220D01*
X133100D01*
X139900D02*
X142498D01*
Y87773D02*
Y93220D01*
X139900Y87773D02*
X142498D01*
X43764Y215905D02*
Y219449D01*
X34236D02*
X43764D01*
X34236Y215905D02*
Y219449D01*
Y200551D02*
Y204095D01*
Y200551D02*
X43764D01*
Y204095D01*
X66727Y215900D02*
Y218498D01*
X61280D02*
X66727D01*
X61280Y215900D02*
Y218498D01*
Y206502D02*
Y209100D01*
Y206502D02*
X66727D01*
Y209100D01*
X159900Y307773D02*
X162498D01*
Y313220D01*
X159900D02*
X162498D01*
X150502D02*
X153100D01*
X150502Y307773D02*
Y313220D01*
Y307773D02*
X153100D01*
X43064Y249306D02*
Y252849D01*
X33536D02*
X43064D01*
X33536Y249306D02*
Y252849D01*
Y233951D02*
Y237494D01*
Y233951D02*
X43064D01*
Y237494D01*
X66027Y249300D02*
Y251898D01*
X60580D02*
X66027D01*
X60580Y249300D02*
Y251898D01*
Y239902D02*
Y242500D01*
Y239902D02*
X66027D01*
Y242500D01*
X196405Y330736D02*
X199949D01*
Y340264D01*
X196405D02*
X199949D01*
X181051D02*
X184595D01*
X181051Y330736D02*
Y340264D01*
Y330736D02*
X184595D01*
X196400Y307773D02*
X198998D01*
Y313220D01*
X196400D02*
X198998D01*
X187002D02*
X189600D01*
X187002Y307773D02*
Y313220D01*
Y307773D02*
X189600D01*
X87555Y330736D02*
X91098D01*
Y340264D01*
X87555D02*
X91098D01*
X72201D02*
X75744D01*
X72201Y330736D02*
Y340264D01*
Y330736D02*
X75744D01*
X87550Y309273D02*
X90148D01*
Y314720D01*
X87550D02*
X90148D01*
X78151D02*
X80750D01*
X78151Y309273D02*
Y314720D01*
Y309273D02*
X80750D01*
X43364Y284255D02*
Y287798D01*
X33836D02*
X43364D01*
X33836Y284255D02*
Y287798D01*
Y268901D02*
Y272444D01*
Y268901D02*
X43364D01*
Y272444D01*
X65127Y284200D02*
Y286798D01*
X59680D02*
X65127D01*
X59680Y284200D02*
Y286798D01*
Y274802D02*
Y277400D01*
Y274802D02*
X65127D01*
Y277400D01*
X125550Y308773D02*
X128148D01*
Y314220D01*
X125550D02*
X128148D01*
X116151D02*
X118750D01*
X116151Y308773D02*
Y314220D01*
Y308773D02*
X118750D01*
X43364Y318755D02*
Y322298D01*
X33836D02*
X43364D01*
X33836Y318755D02*
Y322298D01*
Y303401D02*
Y306944D01*
Y303401D02*
X43364D01*
Y306944D01*
X63827Y319400D02*
Y321998D01*
X58380D02*
X63827D01*
X58380Y319400D02*
Y321998D01*
Y310002D02*
Y312600D01*
Y310002D02*
X63827D01*
Y312600D01*
X224256Y307236D02*
X227800D01*
X224256D02*
Y316764D01*
X227800D01*
X239611D02*
X243154D01*
Y307236D02*
Y316764D01*
X239611Y307236D02*
X243154D01*
X224256Y318236D02*
X227800D01*
X224256D02*
Y327764D01*
X227800D01*
X239611D02*
X243154D01*
Y318236D02*
Y327764D01*
X239611Y318236D02*
X243154D01*
X145349Y280313D02*
Y282911D01*
X139902Y280313D02*
X145349D01*
X139902D02*
Y282911D01*
Y289711D02*
Y292309D01*
X145349D01*
Y289711D02*
Y292309D01*
X155227Y161400D02*
Y163998D01*
X149780D02*
X155227D01*
X149780Y161400D02*
Y163998D01*
Y152002D02*
Y154600D01*
Y152002D02*
X155227D01*
Y154600D01*
X168627Y81802D02*
Y84400D01*
X163180Y81802D02*
X168627D01*
X163180D02*
Y84400D01*
Y91200D02*
Y93798D01*
X168627D01*
Y91200D02*
Y93798D01*
X158735Y243384D02*
X161333D01*
X158735D02*
Y248831D01*
X161333D01*
X168133D02*
X170731D01*
Y243384D02*
Y248831D01*
X168133Y243384D02*
X170731D01*
X168133Y236984D02*
X170731D01*
Y242431D01*
X168133D02*
X170731D01*
X158735D02*
X161333D01*
X158735Y236984D02*
Y242431D01*
Y236984D02*
X161333D01*
X158227Y194352D02*
Y196950D01*
X152780Y194352D02*
X158227D01*
X152780D02*
Y196950D01*
Y203750D02*
Y206349D01*
X158227D01*
Y203750D02*
Y206349D01*
X151727Y181002D02*
Y183600D01*
X146280Y181002D02*
X151727D01*
X146280D02*
Y183600D01*
Y190400D02*
Y192998D01*
X151727D01*
Y190400D02*
Y192998D01*
X246227Y239502D02*
Y242100D01*
X240780Y239502D02*
X246227D01*
X240780D02*
Y242100D01*
Y248900D02*
Y251498D01*
X246227D01*
Y248900D02*
Y251498D01*
X217002Y57773D02*
X219600D01*
X217002D02*
Y63220D01*
X219600D01*
X226400D02*
X228998D01*
Y57773D02*
Y63220D01*
X226400Y57773D02*
X228998D01*
X180900Y126273D02*
X183498D01*
Y131720D01*
X180900D02*
X183498D01*
X171502D02*
X174100D01*
X171502Y126273D02*
Y131720D01*
Y126273D02*
X174100D01*
X180900Y119273D02*
X183498D01*
Y124720D01*
X180900D02*
X183498D01*
X171502D02*
X174100D01*
X171502Y119273D02*
Y124720D01*
Y119273D02*
X174100D01*
X171002Y110773D02*
X173600D01*
X171002D02*
Y116220D01*
X173600D01*
X180400D02*
X182998D01*
Y110773D02*
Y116220D01*
X180400Y110773D02*
X182998D01*
X159900Y320727D02*
X162498D01*
Y315280D02*
Y320727D01*
X159900Y315280D02*
X162498D01*
X150502D02*
X153100D01*
X150502D02*
Y320727D01*
X153100D01*
X159906Y330736D02*
X163449D01*
Y340264D01*
X159906D02*
X163449D01*
X144551D02*
X148094D01*
X144551Y330736D02*
Y340264D01*
Y330736D02*
X148094D01*
X200500Y124190D02*
X204190D01*
X204260Y124260D01*
X200500Y131810D02*
X204260D01*
Y124260D02*
Y131810D01*
X190740Y124260D02*
Y131810D01*
X194500D01*
X190740Y124260D02*
X190810Y124190D01*
X194500D01*
X225195Y248869D02*
X233069D01*
X225195Y257531D02*
X233069D01*
X170520Y169405D02*
X185480D01*
X170520Y157595D02*
X185480D01*
X148406Y152520D02*
Y167480D01*
X136594Y152520D02*
Y167480D01*
X174002Y189273D02*
X176600D01*
X174002D02*
Y194720D01*
X176600D01*
X183400D02*
X185998D01*
Y189273D02*
Y194720D01*
X183400Y189273D02*
X185998D01*
X172075Y213950D02*
X190600D01*
X172075Y206050D02*
X190600D01*
X151727Y194352D02*
Y196950D01*
X146280Y194352D02*
X151727D01*
X146280D02*
Y196950D01*
Y203750D02*
Y206349D01*
X151727D01*
Y203750D02*
Y206349D01*
X205400Y248227D02*
X207998D01*
Y242780D02*
Y248227D01*
X205400Y242780D02*
X207998D01*
X196002D02*
X198600D01*
X196002D02*
Y248227D01*
X198600D01*
X196002Y249273D02*
X198600D01*
X196002D02*
Y254720D01*
X198600D01*
X205400D02*
X207998D01*
Y249273D02*
Y254720D01*
X205400Y249273D02*
X207998D01*
X196002Y236273D02*
X198600D01*
X196002D02*
Y241720D01*
X198600D01*
X205400D02*
X207998D01*
Y236273D02*
Y241720D01*
X205400Y236273D02*
X207998D01*
X207400Y206227D02*
X209998D01*
Y200780D02*
Y206227D01*
X207400Y200780D02*
X209998D01*
X198002D02*
X200600D01*
X198002D02*
Y206227D01*
X200600D01*
X196600Y191000D02*
X200000D01*
X196600D02*
Y195000D01*
Y199000D01*
X200000D01*
X208000D02*
X211400D01*
Y195000D02*
Y199000D01*
Y191000D02*
Y195000D01*
X208000Y191000D02*
X211400D01*
X213000Y225500D02*
Y228900D01*
X217000D01*
X221000D01*
Y225500D02*
Y228900D01*
Y214100D02*
Y217500D01*
X217000Y214100D02*
X221000D01*
X213000D02*
X217000D01*
X213000D02*
Y217500D01*
X139727Y192900D02*
Y195498D01*
X134280D02*
X139727D01*
X134280Y192900D02*
Y195498D01*
Y183502D02*
Y186100D01*
Y183502D02*
X139727D01*
Y186100D01*
X93400Y178773D02*
X95998D01*
Y184220D01*
X93400D02*
X95998D01*
X84002D02*
X86600D01*
X84002Y178773D02*
Y184220D01*
Y178773D02*
X86600D01*
X93400Y185273D02*
X95998D01*
Y190720D01*
X93400D02*
X95998D01*
X84002D02*
X86600D01*
X84002Y185273D02*
Y190720D01*
Y185273D02*
X86600D01*
X113000Y201499D02*
Y198167D01*
X113666Y197500D01*
X114999D01*
X115666Y198167D01*
Y201499D01*
X119665D02*
X118332Y200832D01*
X116999Y199499D01*
Y198167D01*
X117665Y197500D01*
X118998D01*
X119665Y198167D01*
Y198833D01*
X118998Y199499D01*
X116999D01*
G54D61*
X114642Y239311D02*
X153224D01*
X114642Y228287D02*
X153224D01*
Y239311D01*
X114642Y228287D02*
Y239311D01*
X190898Y96516D02*
X203102D01*
X190898Y98484D02*
X203102D01*
X190898Y96516D02*
Y98484D01*
X203102Y96516D02*
Y98484D01*
X119709Y130012D02*
X158291D01*
X119709Y118988D02*
X158291D01*
Y130012D01*
X119709Y118988D02*
Y130012D01*
X195016Y140898D02*
X196984D01*
X195016Y153102D02*
X196984D01*
Y140898D02*
Y153102D01*
X195016Y140898D02*
Y153102D01*
X209102Y217760D02*
Y225240D01*
X196898D02*
X196898Y210673D01*
X112457Y175657D02*
Y195343D01*
X119543Y175657D02*
Y195343D01*
X112457D02*
X119543D01*
X112457Y175657D02*
X119543D01*
G54D62*
X250689Y152436D02*
D03*
G54D63*
X182100Y89400D02*
D03*
G54D64*
X18100Y149500D02*
D03*
X18100Y216000D02*
D03*
X17900Y248900D02*
D03*
X18100Y182300D02*
D03*
X18000Y318300D02*
D03*
X18000Y285950D02*
D03*
X18103Y117000D02*
D03*
X18200Y81200D02*
D03*
G54D65*
X159400Y353900D02*
D03*
X196000D02*
D03*
X126800Y18300D02*
D03*
X160700Y18100D02*
D03*
X66000Y18100D02*
D03*
X97000D02*
D03*
X125300Y353789D02*
D03*
X87400Y353817D02*
D03*
G54D66*
X190200Y210000D02*
D03*
M02*
