M48
;Layer_Color=9474304
;FILE_FORMAT=2:5
INCH,LZ
;TYPE=PLATED
T1F00S00C0.01200
T2F00S00C0.01600
T3F00S00C0.02000
T4F00S00C0.04000
T5F00S00C0.04331
T6F00S00C0.04400
T7F00S00C0.12800
%
T01
X01105Y0049
X0117
Y00555
X01105
X01045Y0072
X01185
X0133
X0147
X01475Y00555
Y0049
X01405
Y00555
X0175Y0054
Y00485
X01815
X0181Y0054
X017Y00845
X01698Y011755
X01695Y0129
X0148843Y01045
X0148Y01005
X0143Y0102
X0140969Y0105032
X0138Y01435
X01383Y01474
X0191Y01555
X0199Y0156
X0215942Y0114442
X01885Y01023
X008085Y011515
X00755Y0134
Y01475
X0054Y01343
X00539Y01289
X00481Y01287
X00479Y01343
X00495Y01025
Y00965
X0057
Y01025
X00565Y00665
Y00605
X005
Y00665
X00252Y00812
X00795Y00555
X0086
Y0049
X00795
X0075Y0161
X00541Y01604
X00542Y01663
X00482Y01661
X00481Y01603
X005Y01945
Y01995
X0057
Y01945
X007272Y020172
X00538Y02269
X00483
Y02329
X00543
X00556Y026135
X00511
Y026785
X00556
X00551Y029635
X00506
Y030335
X00551
X0113622Y0295811
X0128122
X0142622Y0296311
X0158122Y0295811
X01466Y02521
X0136533Y0255011
X0132733Y0254211
X0135902Y0216342
X0138833Y0214411
X0143933Y0213311
X0144Y02095
X0187Y0241
X02127Y01625
X02435Y02365
X0181Y03175
Y0324
X0174
Y03175
X0145Y0318
X0139
Y03245
X0145
X011115Y03225
Y03185
X010365
Y03225
X007115Y03235
Y03185
X006515
Y03235
T02
X0097Y0024
X0126791Y0024709
X0160791Y00259
X02023Y00365
X02021Y00404
X02066Y00407
X02067Y00365
X02135Y0045
X0213Y0063
X02065Y0071
X02231Y00833
X02293Y00835
X02292Y00913
X0229Y00977
Y01044
X0211Y01045
X02075Y01105
X02065Y01195
X01886Y01188
Y01241
X01856Y01277
X01853Y01329
X01889Y01363
X02048Y0139789
X0212Y0144
X0175Y01495
Y0155
X0153Y0146
X0143Y01477
Y0125
X0137
X01315
X01485Y0122
X01679
X01751Y01076
Y00975
X01746Y0089
X0174Y00805
Y0075
X0189Y01135
X01141Y01152
X0109
X01089Y01085
X0114
X0101Y01415
Y0151
X00895Y0078
X0086Y0006669
X0066Y00255
X00245Y0117
X0025Y01495
X0025709Y0182209
X00255Y0216
X00238Y02489
X00281Y028585
X00867Y02662
X00795Y02486
X00733Y02287
X00738Y02153
X0072Y01905
Y0185
X0078
Y01905
X0091Y01765
X0095Y0174
X01215Y0172
X0127
Y01655
X01215
X0137Y0181
X01445Y0175
X01535Y018385
X0167Y01825
X01725Y0181
X0173Y0174
X0177Y01765
X0165Y01631
X01915Y0162
X02015Y01785
X0214Y0196
Y0204
X02145Y02115
X022
X02195Y02
X02035Y02215
X01905Y02245
Y0236
X0179Y02365
X0173833Y0239811
Y0233011
X0173Y02255
X0171Y0221
X01665
X01695Y02125
Y02075
Y0202
Y01965
X0146Y0231
X0135433Y0233111
X0129533
X0123933
X0117333
X0138433Y0251811
X0142333Y02575
X0151Y02538
X01543Y02563
X01824Y02572
X01834Y02521
X01829Y02478
X0194Y02455
Y0252
X020515Y025685
X021Y02455
X02245Y02435
X023
X0221205Y0307
Y03145
X01755Y0286
X01705
X017Y0281
X0176
X0111Y0268
X0094Y02595
Y0253
X009265Y027785
X0087358Y0344209
X0125358Y0344791
X01595Y03465
X0196Y03485
X0221205Y03215
X00291Y031835
T03
X01125Y01345
X01685Y0136
X0161591Y01045
X01653Y00976
X01939Y00834
X01954Y006515
X00665Y01945
X0112Y01635
X016015Y01715
X01615Y02035
X01865Y0218
X0155633Y0250111
X0174Y02692
X02124Y0264
X02355Y02435
X0106Y0246
Y02665
T04
X00775Y0177
T05
X02375Y0155
Y0165
Y0175
Y0185
Y0195
Y0205
Y0215
Y0225
T06
X0107Y0016929
X0117
X013835Y0016429
X014835
X017235
X018235
X0087Y0016929
X0077
X0018232Y0059509
Y0069509
X0017732Y0095264
Y0105264
Y0127509
Y0137509
Y0160509
Y0170509
X0018232Y0194359
Y0204359
X0017426Y0227759
Y0237759
X0016844Y026245
Y027245
Y029695
Y030695
X0237205Y0281
Y0271
X0184787Y035673
X0174787
X0148459Y0355968
X0138459
X011375Y0356256
X010375
X007575Y0356756
X006575
T07
X0232Y00175
X00175
X02325Y0355
X00175
M30
