G04 Layer_Color=32896*
%FSLAX25Y25*%
%MOIN*%
G70*
G01*
G75*
%ADD38C,0.01000*%
%ADD46C,0.00800*%
%ADD57C,0.00600*%
%ADD60C,0.00700*%
G36*
X94926Y74683D02*
X94708D01*
Y74611D01*
X94562D01*
Y74538D01*
X94490D01*
Y74465D01*
X94417D01*
Y74320D01*
X94344D01*
Y69813D01*
X94417D01*
Y69594D01*
X94490D01*
Y69522D01*
X94635D01*
Y69449D01*
X94780D01*
Y69376D01*
X94926D01*
Y69158D01*
X90200D01*
Y69304D01*
X90127D01*
Y69522D01*
X90055D01*
Y69667D01*
X89982D01*
Y69885D01*
X89909D01*
Y70031D01*
X89837D01*
Y70249D01*
X89764D01*
Y70394D01*
X89691D01*
Y70539D01*
X89764D01*
Y70612D01*
X89909D01*
Y70539D01*
X89982D01*
Y70467D01*
X90055D01*
Y70394D01*
X90127D01*
Y70321D01*
X90200D01*
Y70249D01*
X90273D01*
Y70176D01*
X90346D01*
Y70103D01*
X90491D01*
Y70031D01*
X90636D01*
Y69958D01*
X90927D01*
Y69885D01*
X93036D01*
Y70031D01*
X93108D01*
Y71848D01*
X91291D01*
Y71775D01*
X91073D01*
Y71703D01*
X91000D01*
Y71557D01*
X90927D01*
Y71412D01*
X90709D01*
Y73011D01*
X90927D01*
Y72866D01*
X91000D01*
Y72720D01*
X91073D01*
Y72648D01*
X91145D01*
Y72575D01*
X91364D01*
Y72502D01*
X93108D01*
Y74029D01*
X93036D01*
Y74174D01*
X92817D01*
Y74247D01*
X91291D01*
Y74174D01*
X91000D01*
Y74102D01*
X90782D01*
Y74029D01*
X90636D01*
Y73956D01*
X90564D01*
Y73884D01*
X90491D01*
Y73811D01*
X90418D01*
Y73738D01*
X90273D01*
Y73666D01*
X90200D01*
Y73593D01*
X90127D01*
Y73520D01*
X90055D01*
Y73593D01*
X89982D01*
Y73811D01*
X90055D01*
Y74029D01*
X90127D01*
Y74174D01*
X90200D01*
Y74393D01*
X90273D01*
Y74611D01*
X90346D01*
Y74756D01*
X90418D01*
Y74901D01*
X94926D01*
Y74683D01*
D02*
G37*
G36*
X130985D02*
X130840D01*
Y74611D01*
X130694D01*
Y74538D01*
X130622D01*
Y74465D01*
X130549D01*
Y74320D01*
X130476D01*
Y69740D01*
X130549D01*
Y69594D01*
X130622D01*
Y69522D01*
X130694D01*
Y69449D01*
X130912D01*
Y69376D01*
X130985D01*
Y69158D01*
X129095D01*
Y69376D01*
X129167D01*
Y69449D01*
X129313D01*
Y69522D01*
X129458D01*
Y69594D01*
X129531D01*
Y69667D01*
X129604D01*
Y69885D01*
X129676D01*
Y73448D01*
X129604D01*
Y73302D01*
X129531D01*
Y73229D01*
X129458D01*
Y73157D01*
X129385D01*
Y73084D01*
X129313D01*
Y73011D01*
X129240D01*
Y72939D01*
X129167D01*
Y72866D01*
X129095D01*
Y72793D01*
X129022D01*
Y72648D01*
X128949D01*
Y72575D01*
X128877D01*
Y72502D01*
X128804D01*
Y72430D01*
X128731D01*
Y72357D01*
X128658D01*
Y72284D01*
X128586D01*
Y72212D01*
X128513D01*
Y72066D01*
X128440D01*
Y71993D01*
X128368D01*
Y71921D01*
X128295D01*
Y71848D01*
X128222D01*
Y71775D01*
X128150D01*
Y71703D01*
X128077D01*
Y71630D01*
X128004D01*
Y71485D01*
X127931D01*
Y71412D01*
X127859D01*
Y71339D01*
X127786D01*
Y71267D01*
X127713D01*
Y71194D01*
X127641D01*
Y71121D01*
X127568D01*
Y71048D01*
X127495D01*
Y70903D01*
X127423D01*
Y70830D01*
X127350D01*
Y70758D01*
X127277D01*
Y70685D01*
X127205D01*
Y70612D01*
X127132D01*
Y70539D01*
X127059D01*
Y70467D01*
X126986D01*
Y70321D01*
X126914D01*
Y70249D01*
X126841D01*
Y70176D01*
X126768D01*
Y70103D01*
X126696D01*
Y70031D01*
X126623D01*
Y69958D01*
X126550D01*
Y69885D01*
X126478D01*
Y69740D01*
X126405D01*
Y69667D01*
X126332D01*
Y69594D01*
X126259D01*
Y69522D01*
X126187D01*
Y69449D01*
X126114D01*
Y69376D01*
X126041D01*
Y69304D01*
X125969D01*
Y69158D01*
X125896D01*
Y69086D01*
X125678D01*
Y74102D01*
X125605D01*
Y74393D01*
X125532D01*
Y74465D01*
X125460D01*
Y74538D01*
X125387D01*
Y74611D01*
X125314D01*
Y74683D01*
X125169D01*
Y74901D01*
X126914D01*
Y74683D01*
X126768D01*
Y74611D01*
X126623D01*
Y74538D01*
X126550D01*
Y74465D01*
X126478D01*
Y74247D01*
X126405D01*
Y71703D01*
X126550D01*
Y71848D01*
X126623D01*
Y71921D01*
X126696D01*
Y71993D01*
X126768D01*
Y72066D01*
X126841D01*
Y72139D01*
X126914D01*
Y72212D01*
X126986D01*
Y72284D01*
X127059D01*
Y72430D01*
X127132D01*
Y72502D01*
X127205D01*
Y72575D01*
X127277D01*
Y72648D01*
X127350D01*
Y72720D01*
X127423D01*
Y72793D01*
X127495D01*
Y72866D01*
X127568D01*
Y73011D01*
X127641D01*
Y73084D01*
X127713D01*
Y73157D01*
X127786D01*
Y73229D01*
X127859D01*
Y73302D01*
X127931D01*
Y73375D01*
X128004D01*
Y73448D01*
X128077D01*
Y73593D01*
X128150D01*
Y73666D01*
X128222D01*
Y73738D01*
X128295D01*
Y73811D01*
X128368D01*
Y73884D01*
X128440D01*
Y73956D01*
X128513D01*
Y74029D01*
X128586D01*
Y74102D01*
X128658D01*
Y74247D01*
X128731D01*
Y74320D01*
X128804D01*
Y74393D01*
X128877D01*
Y74465D01*
X128949D01*
Y74538D01*
X129022D01*
Y74611D01*
X129095D01*
Y74683D01*
X129167D01*
Y74829D01*
X129240D01*
Y74901D01*
X130985D01*
Y74683D01*
D02*
G37*
G36*
X119934D02*
X120007D01*
Y74465D01*
X120080D01*
Y74174D01*
X120153D01*
Y73956D01*
X120225D01*
Y73738D01*
X120298D01*
Y73520D01*
X120371D01*
Y73448D01*
X120298D01*
Y73375D01*
X120153D01*
Y73448D01*
X120080D01*
Y73520D01*
X120007D01*
Y73593D01*
X119934D01*
Y73666D01*
X119862D01*
Y73811D01*
X119789D01*
Y73884D01*
X119717D01*
Y73956D01*
X119571D01*
Y74029D01*
X119498D01*
Y74102D01*
X119353D01*
Y74174D01*
X119062D01*
Y74247D01*
X118408D01*
Y74174D01*
X118262D01*
Y69740D01*
X118335D01*
Y69594D01*
X118408D01*
Y69522D01*
X118553D01*
Y69449D01*
X118771D01*
Y69376D01*
X118844D01*
Y69158D01*
X116372D01*
Y69376D01*
X116518D01*
Y69449D01*
X116736D01*
Y69522D01*
X116881D01*
Y69594D01*
X116954D01*
Y69813D01*
X117026D01*
Y74102D01*
X116954D01*
Y74174D01*
X116881D01*
Y74247D01*
X116227D01*
Y74174D01*
X115936D01*
Y74102D01*
X115718D01*
Y74029D01*
X115645D01*
Y73956D01*
X115573D01*
Y73884D01*
X115500D01*
Y73811D01*
X115427D01*
Y73738D01*
X115354D01*
Y73666D01*
X115282D01*
Y73593D01*
X115209D01*
Y73520D01*
X115136D01*
Y73448D01*
X115064D01*
Y73375D01*
X114918D01*
Y73738D01*
X114991D01*
Y73956D01*
X115064D01*
Y74174D01*
X115136D01*
Y74393D01*
X115209D01*
Y74683D01*
X115282D01*
Y74901D01*
X119934D01*
Y74683D01*
D02*
G37*
G36*
X83221D02*
X83294D01*
Y74465D01*
X83366D01*
Y74247D01*
X83439D01*
Y74029D01*
X83512D01*
Y73738D01*
X83585D01*
Y73520D01*
X83657D01*
Y73448D01*
X83585D01*
Y73375D01*
X83439D01*
Y73448D01*
X83366D01*
Y73520D01*
X83294D01*
Y73593D01*
X83221D01*
Y73738D01*
X83148D01*
Y73811D01*
X83076D01*
Y73884D01*
X83003D01*
Y73956D01*
X82930D01*
Y74029D01*
X82785D01*
Y74102D01*
X82639D01*
Y74174D01*
X82349D01*
Y74247D01*
X81694D01*
Y74174D01*
X81622D01*
Y74102D01*
X81549D01*
Y69740D01*
X81622D01*
Y69594D01*
X81694D01*
Y69522D01*
X81840D01*
Y69449D01*
X82058D01*
Y69376D01*
X82131D01*
Y69158D01*
X79731D01*
Y69376D01*
X79804D01*
Y69449D01*
X80022D01*
Y69522D01*
X80168D01*
Y69594D01*
X80240D01*
Y69740D01*
X80313D01*
Y74102D01*
X80240D01*
Y74174D01*
X80168D01*
Y74247D01*
X79513D01*
Y74174D01*
X79223D01*
Y74102D01*
X79004D01*
Y74029D01*
X78932D01*
Y73956D01*
X78859D01*
Y73884D01*
X78786D01*
Y73811D01*
X78714D01*
Y73738D01*
X78641D01*
Y73666D01*
X78568D01*
Y73593D01*
X78496D01*
Y73520D01*
X78423D01*
Y73375D01*
X78205D01*
Y73666D01*
X78277D01*
Y73884D01*
X78350D01*
Y74174D01*
X78423D01*
Y74393D01*
X78496D01*
Y74611D01*
X78568D01*
Y74829D01*
X78641D01*
Y74901D01*
X83221D01*
Y74683D01*
D02*
G37*
G36*
X89546D02*
X89401D01*
Y74611D01*
X89255D01*
Y74538D01*
X89182D01*
Y74465D01*
X89110D01*
Y74320D01*
X89037D01*
Y74029D01*
X88964D01*
Y70103D01*
X89037D01*
Y69740D01*
X89110D01*
Y69594D01*
X89182D01*
Y69522D01*
X89255D01*
Y69449D01*
X89473D01*
Y69376D01*
X89546D01*
Y69158D01*
X87656D01*
Y69376D01*
X87728D01*
Y69449D01*
X87874D01*
Y69522D01*
X88019D01*
Y69594D01*
X88092D01*
Y69667D01*
X88165D01*
Y69885D01*
X88237D01*
Y73448D01*
X88165D01*
Y73375D01*
X88092D01*
Y73229D01*
X88019D01*
Y73157D01*
X87947D01*
Y73084D01*
X87874D01*
Y73011D01*
X87801D01*
Y72939D01*
X87728D01*
Y72866D01*
X87656D01*
Y72793D01*
X87583D01*
Y72648D01*
X87510D01*
Y72575D01*
X87438D01*
Y72502D01*
X87365D01*
Y72430D01*
X87292D01*
Y72357D01*
X87220D01*
Y72284D01*
X87147D01*
Y72212D01*
X87074D01*
Y72066D01*
X87001D01*
Y71993D01*
X86929D01*
Y71921D01*
X86856D01*
Y71848D01*
X86783D01*
Y71775D01*
X86711D01*
Y71703D01*
X86638D01*
Y71630D01*
X86565D01*
Y71485D01*
X86493D01*
Y71412D01*
X86420D01*
Y71339D01*
X86347D01*
Y71267D01*
X86274D01*
Y71194D01*
X86202D01*
Y71121D01*
X86129D01*
Y71048D01*
X86056D01*
Y70903D01*
X85984D01*
Y70830D01*
X85911D01*
Y70758D01*
X85838D01*
Y70685D01*
X85765D01*
Y70612D01*
X85693D01*
Y70539D01*
X85620D01*
Y70467D01*
X85548D01*
Y70321D01*
X85475D01*
Y70249D01*
X85402D01*
Y70176D01*
X85329D01*
Y70103D01*
X85257D01*
Y70031D01*
X85184D01*
Y69958D01*
X85111D01*
Y69885D01*
X85039D01*
Y69740D01*
X84966D01*
Y69667D01*
X84893D01*
Y69594D01*
X84820D01*
Y69522D01*
X84748D01*
Y69449D01*
X84675D01*
Y69376D01*
X84602D01*
Y69304D01*
X84530D01*
Y69158D01*
X84457D01*
Y69086D01*
X84239D01*
Y74029D01*
X84166D01*
Y74393D01*
X84093D01*
Y74465D01*
X84021D01*
Y74538D01*
X83948D01*
Y74611D01*
X83875D01*
Y74683D01*
X83730D01*
Y74901D01*
X85475D01*
Y74683D01*
X85329D01*
Y74611D01*
X85184D01*
Y74538D01*
X85111D01*
Y74465D01*
X85039D01*
Y74320D01*
X84966D01*
Y71630D01*
X85039D01*
Y71703D01*
X85111D01*
Y71848D01*
X85184D01*
Y71921D01*
X85257D01*
Y71993D01*
X85329D01*
Y72066D01*
X85402D01*
Y72139D01*
X85475D01*
Y72212D01*
X85548D01*
Y72284D01*
X85620D01*
Y72430D01*
X85693D01*
Y72502D01*
X85765D01*
Y72575D01*
X85838D01*
Y72648D01*
X85911D01*
Y72720D01*
X85984D01*
Y72793D01*
X86056D01*
Y72866D01*
X86129D01*
Y73011D01*
X86202D01*
Y73084D01*
X86274D01*
Y73157D01*
X86347D01*
Y73229D01*
X86420D01*
Y73302D01*
X86493D01*
Y73375D01*
X86565D01*
Y73448D01*
X86638D01*
Y73593D01*
X86711D01*
Y73666D01*
X86783D01*
Y73738D01*
X86856D01*
Y73811D01*
X86929D01*
Y73884D01*
X87001D01*
Y73956D01*
X87074D01*
Y74029D01*
X87147D01*
Y74174D01*
X87220D01*
Y74247D01*
X87292D01*
Y74320D01*
X87365D01*
Y74393D01*
X87438D01*
Y74465D01*
X87510D01*
Y74538D01*
X87583D01*
Y74611D01*
X87656D01*
Y74756D01*
X87728D01*
Y74829D01*
X87801D01*
Y74901D01*
X89546D01*
Y74683D01*
D02*
G37*
G36*
X134038Y76501D02*
X133966D01*
Y76428D01*
X133748D01*
Y76355D01*
X133675D01*
Y76283D01*
X133529D01*
Y76137D01*
X133457D01*
Y75919D01*
X133384D01*
Y69958D01*
X133457D01*
Y69740D01*
X133529D01*
Y69594D01*
X133602D01*
Y69522D01*
X133748D01*
Y69449D01*
X133966D01*
Y69376D01*
X134038D01*
Y69158D01*
X131421D01*
Y69376D01*
X131494D01*
Y69449D01*
X131712D01*
Y69522D01*
X131857D01*
Y69594D01*
X131930D01*
Y69667D01*
X132003D01*
Y69885D01*
X132076D01*
Y75992D01*
X132003D01*
Y76210D01*
X131930D01*
Y76283D01*
X131857D01*
Y76355D01*
X131712D01*
Y76428D01*
X131494D01*
Y76501D01*
X131421D01*
Y76646D01*
X134038D01*
Y76501D01*
D02*
G37*
G36*
X114773Y74683D02*
X114627D01*
Y74611D01*
X114482D01*
Y74538D01*
X114409D01*
Y74465D01*
X114337D01*
Y74393D01*
X114264D01*
Y69740D01*
X114337D01*
Y69594D01*
X114409D01*
Y69522D01*
X114482D01*
Y69449D01*
X114700D01*
Y69376D01*
X114773D01*
Y69158D01*
X112374D01*
Y69376D01*
X112446D01*
Y69449D01*
X112665D01*
Y69522D01*
X112810D01*
Y69594D01*
X112883D01*
Y69813D01*
X112955D01*
Y71557D01*
X112083D01*
Y71485D01*
X111865D01*
Y71412D01*
X111792D01*
Y71339D01*
X111720D01*
Y71267D01*
X111647D01*
Y71194D01*
X111574D01*
Y71121D01*
X111501D01*
Y70976D01*
X111429D01*
Y70830D01*
X111356D01*
Y70685D01*
X111283D01*
Y70539D01*
X111211D01*
Y70394D01*
X111138D01*
Y70249D01*
X111065D01*
Y70103D01*
X110993D01*
Y69958D01*
X110920D01*
Y69885D01*
X110847D01*
Y69740D01*
X110774D01*
Y69667D01*
X110702D01*
Y69594D01*
X110629D01*
Y69522D01*
X110556D01*
Y69449D01*
X110484D01*
Y69376D01*
X110338D01*
Y69304D01*
X110193D01*
Y69231D01*
X110047D01*
Y69158D01*
X109757D01*
Y69086D01*
X108884D01*
Y69158D01*
X108666D01*
Y69231D01*
X108521D01*
Y69449D01*
X108666D01*
Y69522D01*
X108884D01*
Y69594D01*
X109029D01*
Y69667D01*
X109102D01*
Y69740D01*
X109175D01*
Y69813D01*
X109248D01*
Y69885D01*
X109320D01*
Y69958D01*
X109393D01*
Y70031D01*
X109466D01*
Y70176D01*
X109538D01*
Y70249D01*
X109611D01*
Y70394D01*
X109684D01*
Y70539D01*
X109757D01*
Y70612D01*
X109829D01*
Y70758D01*
X109902D01*
Y70903D01*
X109975D01*
Y70976D01*
X110047D01*
Y71121D01*
X110120D01*
Y71194D01*
X110193D01*
Y71267D01*
X110266D01*
Y71339D01*
X110338D01*
Y71412D01*
X110411D01*
Y71485D01*
X110484D01*
Y71557D01*
X110556D01*
Y71630D01*
X110702D01*
Y71703D01*
X110847D01*
Y71775D01*
X110993D01*
Y71848D01*
X110702D01*
Y71921D01*
X110484D01*
Y71993D01*
X110338D01*
Y72066D01*
X110193D01*
Y72139D01*
X110120D01*
Y72212D01*
X109975D01*
Y72284D01*
X109902D01*
Y72357D01*
X109829D01*
Y72430D01*
X109757D01*
Y72575D01*
X109684D01*
Y72720D01*
X109611D01*
Y72939D01*
X109538D01*
Y73738D01*
X109611D01*
Y73956D01*
X109684D01*
Y74102D01*
X109757D01*
Y74247D01*
X109829D01*
Y74320D01*
X109902D01*
Y74393D01*
X109975D01*
Y74465D01*
X110120D01*
Y74538D01*
X110193D01*
Y74611D01*
X110338D01*
Y74683D01*
X110484D01*
Y74756D01*
X110774D01*
Y74829D01*
X111138D01*
Y74901D01*
X114773D01*
Y74683D01*
D02*
G37*
G36*
X102632D02*
X102487D01*
Y74611D01*
X102341D01*
Y74538D01*
X102268D01*
Y74465D01*
X102196D01*
Y74393D01*
X102123D01*
Y69813D01*
X102196D01*
Y69667D01*
X102268D01*
Y69594D01*
X102341D01*
Y69522D01*
X102414D01*
Y69449D01*
X102632D01*
Y69158D01*
X100814D01*
Y69376D01*
X100887D01*
Y69449D01*
X101105D01*
Y69522D01*
X101178D01*
Y69594D01*
X101251D01*
Y69667D01*
X101323D01*
Y69885D01*
X101396D01*
Y73593D01*
X101323D01*
Y73448D01*
X101251D01*
Y73302D01*
X101178D01*
Y73157D01*
X101105D01*
Y73011D01*
X101033D01*
Y72793D01*
X100960D01*
Y72648D01*
X100887D01*
Y72502D01*
X100814D01*
Y72357D01*
X100742D01*
Y72212D01*
X100669D01*
Y71993D01*
X100596D01*
Y71848D01*
X100524D01*
Y71703D01*
X100451D01*
Y71557D01*
X100378D01*
Y71339D01*
X100306D01*
Y71194D01*
X100233D01*
Y71048D01*
X100160D01*
Y70903D01*
X100087D01*
Y70685D01*
X100015D01*
Y70539D01*
X99942D01*
Y70394D01*
X99869D01*
Y70249D01*
X99797D01*
Y70031D01*
X99724D01*
Y69885D01*
X99651D01*
Y69740D01*
X99578D01*
Y69594D01*
X99506D01*
Y69376D01*
X99433D01*
Y69231D01*
X99361D01*
Y69086D01*
X99142D01*
Y69231D01*
X99070D01*
Y69376D01*
X98997D01*
Y69522D01*
X98924D01*
Y69740D01*
X98852D01*
Y69885D01*
X98779D01*
Y70031D01*
X98706D01*
Y70249D01*
X98633D01*
Y70394D01*
X98561D01*
Y70539D01*
X98488D01*
Y70685D01*
X98415D01*
Y70903D01*
X98343D01*
Y71048D01*
X98270D01*
Y71194D01*
X98197D01*
Y71412D01*
X98124D01*
Y71557D01*
X98052D01*
Y71703D01*
X97979D01*
Y71921D01*
X97906D01*
Y72066D01*
X97834D01*
Y72212D01*
X97761D01*
Y72357D01*
X97688D01*
Y72575D01*
X97616D01*
Y72720D01*
X97543D01*
Y72866D01*
X97470D01*
Y73084D01*
X97398D01*
Y73229D01*
X97325D01*
Y73375D01*
X97252D01*
Y73593D01*
X97179D01*
Y69740D01*
X97252D01*
Y69594D01*
X97325D01*
Y69522D01*
X97470D01*
Y69449D01*
X97616D01*
Y69376D01*
X97688D01*
Y69158D01*
X95362D01*
Y69376D01*
X95435D01*
Y69449D01*
X95653D01*
Y69522D01*
X95726D01*
Y69594D01*
X95798D01*
Y69740D01*
X95871D01*
Y74393D01*
X95798D01*
Y74465D01*
X95726D01*
Y74538D01*
X95653D01*
Y74611D01*
X95507D01*
Y74683D01*
X95362D01*
Y74901D01*
X97398D01*
Y74756D01*
X97470D01*
Y74611D01*
X97543D01*
Y74393D01*
X97616D01*
Y74247D01*
X97688D01*
Y74102D01*
X97761D01*
Y73884D01*
X97834D01*
Y73738D01*
X97906D01*
Y73593D01*
X97979D01*
Y73375D01*
X98052D01*
Y73229D01*
X98124D01*
Y73084D01*
X98197D01*
Y72866D01*
X98270D01*
Y72720D01*
X98343D01*
Y72575D01*
X98415D01*
Y72357D01*
X98488D01*
Y72212D01*
X98561D01*
Y72066D01*
X98633D01*
Y71848D01*
X98706D01*
Y71703D01*
X98779D01*
Y71557D01*
X98852D01*
Y71339D01*
X98924D01*
Y71267D01*
X98997D01*
Y71412D01*
X99070D01*
Y71557D01*
X99142D01*
Y71703D01*
X99215D01*
Y71921D01*
X99288D01*
Y72066D01*
X99361D01*
Y72212D01*
X99433D01*
Y72357D01*
X99506D01*
Y72575D01*
X99578D01*
Y72720D01*
X99651D01*
Y72866D01*
X99724D01*
Y73011D01*
X99797D01*
Y73229D01*
X99869D01*
Y73375D01*
X99942D01*
Y73520D01*
X100015D01*
Y73666D01*
X100087D01*
Y73884D01*
X100160D01*
Y74029D01*
X100233D01*
Y74174D01*
X100306D01*
Y74320D01*
X100378D01*
Y74538D01*
X100451D01*
Y74683D01*
X100524D01*
Y74829D01*
X100596D01*
Y74901D01*
X102632D01*
Y74683D01*
D02*
G37*
G36*
X109029D02*
X108811D01*
Y74611D01*
X108666D01*
Y74538D01*
X108593D01*
Y74393D01*
X108521D01*
Y74174D01*
X108448D01*
Y70467D01*
X108375D01*
Y70249D01*
X108302D01*
Y70103D01*
X108230D01*
Y70031D01*
X108157D01*
Y69885D01*
X108084D01*
Y69813D01*
X108012D01*
Y69740D01*
X107939D01*
Y69667D01*
X107866D01*
Y69594D01*
X107721D01*
Y69522D01*
X107648D01*
Y69449D01*
X107503D01*
Y69376D01*
X107357D01*
Y69304D01*
X107139D01*
Y69231D01*
X106921D01*
Y69158D01*
X106485D01*
Y69086D01*
X105322D01*
Y69158D01*
X104886D01*
Y69231D01*
X104668D01*
Y69304D01*
X104449D01*
Y69376D01*
X104304D01*
Y69449D01*
X104231D01*
Y69522D01*
X104086D01*
Y69594D01*
X104013D01*
Y69667D01*
X103941D01*
Y69813D01*
X103868D01*
Y69885D01*
X103795D01*
Y70031D01*
X103723D01*
Y70176D01*
X103650D01*
Y70321D01*
X103577D01*
Y70685D01*
X103504D01*
Y74320D01*
X103432D01*
Y74465D01*
X103359D01*
Y74538D01*
X103286D01*
Y74611D01*
X103214D01*
Y74683D01*
X102996D01*
Y74901D01*
X104886D01*
Y74683D01*
X104668D01*
Y74611D01*
X104522D01*
Y74538D01*
X104449D01*
Y74393D01*
X104377D01*
Y74174D01*
X104304D01*
Y70830D01*
X104377D01*
Y70539D01*
X104449D01*
Y70321D01*
X104522D01*
Y70249D01*
X104595D01*
Y70176D01*
X104668D01*
Y70103D01*
X104740D01*
Y70031D01*
X104813D01*
Y69958D01*
X104958D01*
Y69885D01*
X105249D01*
Y69813D01*
X106267D01*
Y69885D01*
X106558D01*
Y69958D01*
X106703D01*
Y70031D01*
X106849D01*
Y70103D01*
X106921D01*
Y70176D01*
X106994D01*
Y70249D01*
X107067D01*
Y70394D01*
X107139D01*
Y70612D01*
X107212D01*
Y70976D01*
X107285D01*
Y74102D01*
X107212D01*
Y74393D01*
X107139D01*
Y74538D01*
X107067D01*
Y74611D01*
X106921D01*
Y74683D01*
X106703D01*
Y74901D01*
X109029D01*
Y74683D01*
D02*
G37*
G36*
X76460Y74901D02*
X76751D01*
Y74829D01*
X76896D01*
Y74756D01*
X77042D01*
Y74683D01*
X77187D01*
Y74611D01*
X77260D01*
Y74538D01*
X77405D01*
Y74465D01*
X77478D01*
Y74320D01*
X77551D01*
Y74247D01*
X77623D01*
Y74174D01*
X77696D01*
Y74029D01*
X77769D01*
Y73811D01*
X77841D01*
Y72793D01*
X77769D01*
Y72575D01*
X77696D01*
Y72502D01*
X77623D01*
Y72357D01*
X77551D01*
Y72284D01*
X77478D01*
Y72212D01*
X77405D01*
Y72139D01*
X77260D01*
Y72066D01*
X77187D01*
Y71993D01*
X77042D01*
Y71921D01*
X76896D01*
Y71848D01*
X76751D01*
Y71775D01*
X76460D01*
Y71703D01*
X76169D01*
Y71630D01*
X75878D01*
Y71557D01*
X75515D01*
Y71485D01*
X75224D01*
Y71412D01*
X75006D01*
Y71339D01*
X74788D01*
Y71267D01*
X74715D01*
Y71194D01*
X74570D01*
Y71048D01*
X74497D01*
Y70976D01*
X74424D01*
Y70394D01*
X74497D01*
Y70249D01*
X74570D01*
Y70176D01*
X74642D01*
Y70103D01*
X74715D01*
Y70031D01*
X74788D01*
Y69958D01*
X75006D01*
Y69885D01*
X75224D01*
Y69813D01*
X76024D01*
Y69885D01*
X76315D01*
Y69958D01*
X76533D01*
Y70031D01*
X76751D01*
Y70103D01*
X76896D01*
Y70176D01*
X76969D01*
Y70249D01*
X77114D01*
Y70321D01*
X77187D01*
Y70394D01*
X77260D01*
Y70467D01*
X77405D01*
Y70539D01*
X77478D01*
Y70612D01*
X77551D01*
Y70685D01*
X77623D01*
Y70758D01*
X77696D01*
Y70830D01*
X77769D01*
Y70903D01*
X77841D01*
Y70976D01*
X77987D01*
Y70612D01*
X77914D01*
Y70321D01*
X77841D01*
Y70031D01*
X77769D01*
Y69813D01*
X77696D01*
Y69522D01*
X77623D01*
Y69231D01*
X77551D01*
Y69158D01*
X77260D01*
Y69376D01*
X77187D01*
Y69449D01*
X76969D01*
Y69376D01*
X76824D01*
Y69304D01*
X76678D01*
Y69231D01*
X76460D01*
Y69158D01*
X76096D01*
Y69086D01*
X75079D01*
Y69158D01*
X74715D01*
Y69231D01*
X74497D01*
Y69304D01*
X74279D01*
Y69376D01*
X74134D01*
Y69449D01*
X74061D01*
Y69522D01*
X73915D01*
Y69594D01*
X73843D01*
Y69667D01*
X73770D01*
Y69740D01*
X73697D01*
Y69813D01*
X73625D01*
Y69885D01*
X73552D01*
Y70031D01*
X73479D01*
Y70176D01*
X73407D01*
Y70321D01*
X73334D01*
Y70758D01*
X73261D01*
Y71048D01*
X73334D01*
Y71557D01*
X73407D01*
Y71703D01*
X73479D01*
Y71848D01*
X73552D01*
Y71921D01*
X73625D01*
Y71993D01*
X73697D01*
Y72066D01*
X73770D01*
Y72139D01*
X73843D01*
Y72212D01*
X73915D01*
Y72284D01*
X74061D01*
Y72357D01*
X74206D01*
Y72430D01*
X74352D01*
Y72502D01*
X74570D01*
Y72575D01*
X74788D01*
Y72648D01*
X75079D01*
Y72720D01*
X75442D01*
Y72793D01*
X75733D01*
Y72866D01*
X76096D01*
Y72939D01*
X76315D01*
Y73011D01*
X76533D01*
Y73084D01*
X76605D01*
Y73157D01*
X76678D01*
Y73229D01*
X76751D01*
Y73302D01*
X76824D01*
Y73811D01*
X76751D01*
Y73956D01*
X76678D01*
Y74029D01*
X76605D01*
Y74102D01*
X76460D01*
Y74174D01*
X76242D01*
Y74247D01*
X75297D01*
Y74174D01*
X75006D01*
Y74102D01*
X74861D01*
Y74029D01*
X74642D01*
Y73956D01*
X74570D01*
Y73884D01*
X74424D01*
Y73811D01*
X74352D01*
Y73738D01*
X74206D01*
Y73666D01*
X74134D01*
Y73593D01*
X74061D01*
Y73520D01*
X73988D01*
Y73448D01*
X73915D01*
Y73375D01*
X73697D01*
Y73666D01*
X73770D01*
Y73884D01*
X73843D01*
Y74174D01*
X73915D01*
Y74393D01*
X73988D01*
Y74683D01*
X74061D01*
Y74901D01*
X74352D01*
Y74829D01*
X74424D01*
Y74683D01*
X74642D01*
Y74756D01*
X74788D01*
Y74829D01*
X74933D01*
Y74901D01*
X75224D01*
Y74974D01*
X76460D01*
Y74901D01*
D02*
G37*
G36*
X130622Y83407D02*
X130476D01*
Y83335D01*
X130258D01*
Y83262D01*
X130185D01*
Y83189D01*
X130113D01*
Y83044D01*
X130040D01*
Y78464D01*
X130113D01*
Y78318D01*
X130185D01*
Y78246D01*
X130258D01*
Y78173D01*
X130403D01*
Y78100D01*
X130622D01*
Y77882D01*
X125896D01*
Y78028D01*
X125823D01*
Y78173D01*
X125751D01*
Y78391D01*
X125678D01*
Y78536D01*
X125605D01*
Y78755D01*
X125532D01*
Y78900D01*
X125460D01*
Y79118D01*
X125387D01*
Y79264D01*
X125460D01*
Y79336D01*
X125532D01*
Y79264D01*
X125605D01*
Y79191D01*
X125678D01*
Y79118D01*
X125751D01*
Y79045D01*
X125823D01*
Y78973D01*
X125896D01*
Y78900D01*
X126041D01*
Y78827D01*
X126114D01*
Y78755D01*
X126259D01*
Y78682D01*
X126478D01*
Y78609D01*
X126986D01*
Y78536D01*
X128513D01*
Y78609D01*
X128731D01*
Y78755D01*
X128804D01*
Y80572D01*
X127059D01*
Y80499D01*
X126841D01*
Y80427D01*
X126768D01*
Y80354D01*
X126696D01*
Y80281D01*
X126623D01*
Y80063D01*
X126405D01*
Y81663D01*
X126623D01*
Y81517D01*
X126696D01*
Y81372D01*
X126768D01*
Y81299D01*
X126914D01*
Y81226D01*
X128804D01*
Y82753D01*
X128731D01*
Y82826D01*
X128658D01*
Y82898D01*
X126768D01*
Y82826D01*
X126550D01*
Y82753D01*
X126405D01*
Y82680D01*
X126259D01*
Y82608D01*
X126187D01*
Y82535D01*
X126114D01*
Y82462D01*
X126041D01*
Y82390D01*
X125969D01*
Y82317D01*
X125896D01*
Y82244D01*
X125678D01*
Y82535D01*
X125751D01*
Y82680D01*
X125823D01*
Y82898D01*
X125896D01*
Y83117D01*
X125969D01*
Y83335D01*
X126041D01*
Y83480D01*
X126114D01*
Y83626D01*
X130622D01*
Y83407D01*
D02*
G37*
G36*
X135783Y85225D02*
X135856D01*
Y85007D01*
X135928D01*
Y84789D01*
X136001D01*
Y84571D01*
X136074D01*
Y84352D01*
X136147D01*
Y84207D01*
X136219D01*
Y83989D01*
X136147D01*
Y83916D01*
X136074D01*
Y83989D01*
X136001D01*
Y84062D01*
X135928D01*
Y84134D01*
X135856D01*
Y84207D01*
X135783D01*
Y84280D01*
X135638D01*
Y84352D01*
X135565D01*
Y84425D01*
X135347D01*
Y84498D01*
X135056D01*
Y84571D01*
X133602D01*
Y84498D01*
X133457D01*
Y84280D01*
X133384D01*
Y78682D01*
X133457D01*
Y78391D01*
X133529D01*
Y78318D01*
X133602D01*
Y78246D01*
X133675D01*
Y78173D01*
X133820D01*
Y78100D01*
X133966D01*
Y77882D01*
X131494D01*
Y78100D01*
X131639D01*
Y78173D01*
X131785D01*
Y78246D01*
X131857D01*
Y78318D01*
X131930D01*
Y78391D01*
X132003D01*
Y78609D01*
X132076D01*
Y84352D01*
X132003D01*
Y84498D01*
X131930D01*
Y84571D01*
X130403D01*
Y84498D01*
X130113D01*
Y84425D01*
X129894D01*
Y84352D01*
X129822D01*
Y84280D01*
X129676D01*
Y84207D01*
X129604D01*
Y84134D01*
X129531D01*
Y84062D01*
X129458D01*
Y83916D01*
X129313D01*
Y83989D01*
X129240D01*
Y84062D01*
X129313D01*
Y84280D01*
X129385D01*
Y84498D01*
X129458D01*
Y84716D01*
X129531D01*
Y84934D01*
X129604D01*
Y85152D01*
X129676D01*
Y85370D01*
X135783D01*
Y85225D01*
D02*
G37*
G36*
X112156Y83626D02*
X112519D01*
Y83553D01*
X112737D01*
Y83480D01*
X112883D01*
Y83407D01*
X113028D01*
Y83335D01*
X113101D01*
Y83262D01*
X113173D01*
Y83189D01*
X113246D01*
Y83117D01*
X113319D01*
Y83044D01*
X113392D01*
Y82971D01*
X113464D01*
Y82898D01*
X113537D01*
Y82753D01*
X113610D01*
Y82608D01*
X113682D01*
Y82317D01*
X113755D01*
Y81735D01*
X113682D01*
Y81445D01*
X113610D01*
Y81299D01*
X113537D01*
Y81154D01*
X113464D01*
Y81081D01*
X113392D01*
Y80936D01*
X113246D01*
Y80863D01*
X113173D01*
Y80790D01*
X113101D01*
Y80717D01*
X112955D01*
Y80645D01*
X112810D01*
Y80572D01*
X112665D01*
Y80499D01*
X112446D01*
Y80427D01*
X112156D01*
Y80354D01*
X111865D01*
Y80281D01*
X111501D01*
Y80209D01*
X111211D01*
Y80136D01*
X110920D01*
Y80063D01*
X110702D01*
Y79991D01*
X110556D01*
Y79918D01*
X110484D01*
Y79845D01*
X110411D01*
Y79772D01*
X110338D01*
Y79554D01*
X110266D01*
Y79191D01*
X110338D01*
Y78973D01*
X110411D01*
Y78900D01*
X110484D01*
Y78827D01*
X110556D01*
Y78755D01*
X110629D01*
Y78682D01*
X110774D01*
Y78609D01*
X110993D01*
Y78536D01*
X112010D01*
Y78609D01*
X112301D01*
Y78682D01*
X112446D01*
Y78755D01*
X112665D01*
Y78827D01*
X112737D01*
Y78900D01*
X112883D01*
Y78973D01*
X113028D01*
Y79045D01*
X113101D01*
Y79118D01*
X113173D01*
Y79191D01*
X113246D01*
Y79264D01*
X113319D01*
Y79336D01*
X113392D01*
Y79409D01*
X113464D01*
Y79482D01*
X113537D01*
Y79554D01*
X113610D01*
Y79627D01*
X113682D01*
Y79700D01*
X113828D01*
Y79627D01*
X113900D01*
Y79482D01*
X113828D01*
Y79264D01*
X113755D01*
Y78973D01*
X113682D01*
Y78682D01*
X113610D01*
Y78391D01*
X113537D01*
Y78173D01*
X113464D01*
Y77882D01*
X113101D01*
Y78100D01*
X113028D01*
Y78173D01*
X112883D01*
Y78100D01*
X112737D01*
Y78028D01*
X112592D01*
Y77955D01*
X112374D01*
Y77882D01*
X112083D01*
Y77810D01*
X110774D01*
Y77882D01*
X110484D01*
Y77955D01*
X110266D01*
Y78028D01*
X110120D01*
Y78100D01*
X109975D01*
Y78173D01*
X109829D01*
Y78246D01*
X109757D01*
Y78318D01*
X109684D01*
Y78391D01*
X109611D01*
Y78464D01*
X109538D01*
Y78536D01*
X109466D01*
Y78609D01*
X109393D01*
Y78755D01*
X109320D01*
Y78900D01*
X109248D01*
Y79118D01*
X109175D01*
Y80136D01*
X109248D01*
Y80354D01*
X109320D01*
Y80499D01*
X109393D01*
Y80645D01*
X109466D01*
Y80717D01*
X109538D01*
Y80790D01*
X109611D01*
Y80863D01*
X109684D01*
Y80936D01*
X109829D01*
Y81008D01*
X109975D01*
Y81081D01*
X110120D01*
Y81154D01*
X110266D01*
Y81226D01*
X110484D01*
Y81299D01*
X110774D01*
Y81372D01*
X111065D01*
Y81445D01*
X111429D01*
Y81517D01*
X111720D01*
Y81590D01*
X112010D01*
Y81663D01*
X112228D01*
Y81735D01*
X112446D01*
Y81808D01*
X112519D01*
Y81881D01*
X112592D01*
Y81953D01*
X112665D01*
Y82535D01*
X112592D01*
Y82680D01*
X112519D01*
Y82753D01*
X112374D01*
Y82826D01*
X112228D01*
Y82898D01*
X111938D01*
Y82971D01*
X111283D01*
Y82898D01*
X110993D01*
Y82826D01*
X110774D01*
Y82753D01*
X110556D01*
Y82680D01*
X110411D01*
Y82608D01*
X110338D01*
Y82535D01*
X110193D01*
Y82462D01*
X110120D01*
Y82390D01*
X110047D01*
Y82317D01*
X109975D01*
Y82244D01*
X109902D01*
Y82171D01*
X109829D01*
Y82099D01*
X109757D01*
Y82026D01*
X109611D01*
Y82099D01*
X109538D01*
Y82244D01*
X109611D01*
Y82535D01*
X109684D01*
Y82753D01*
X109757D01*
Y83044D01*
X109829D01*
Y83262D01*
X109902D01*
Y83553D01*
X109975D01*
Y83626D01*
X110266D01*
Y83407D01*
X110338D01*
Y83335D01*
X110411D01*
Y83407D01*
X110556D01*
Y83480D01*
X110702D01*
Y83553D01*
X110920D01*
Y83626D01*
X111211D01*
Y83698D01*
X112156D01*
Y83626D01*
D02*
G37*
G36*
X125460Y83407D02*
X125314D01*
Y83335D01*
X125169D01*
Y83262D01*
X125024D01*
Y83189D01*
X124951D01*
Y83117D01*
X124878D01*
Y83044D01*
X124805D01*
Y82971D01*
X124733D01*
Y82898D01*
X124660D01*
Y82826D01*
X124587D01*
Y82680D01*
X124515D01*
Y82608D01*
X124442D01*
Y82462D01*
X124369D01*
Y82390D01*
X124297D01*
Y82317D01*
X124224D01*
Y82171D01*
X124151D01*
Y82099D01*
X124078D01*
Y81953D01*
X124006D01*
Y81881D01*
X123933D01*
Y81808D01*
X123860D01*
Y81663D01*
X123788D01*
Y81590D01*
X123715D01*
Y81445D01*
X123642D01*
Y81372D01*
X123570D01*
Y81226D01*
X123497D01*
Y81154D01*
X123424D01*
Y81081D01*
X123351D01*
Y80936D01*
X123279D01*
Y80863D01*
X123206D01*
Y80645D01*
X123279D01*
Y80499D01*
X123351D01*
Y80427D01*
X123424D01*
Y80354D01*
X123497D01*
Y80209D01*
X123570D01*
Y80136D01*
X123642D01*
Y79991D01*
X123715D01*
Y79918D01*
X123788D01*
Y79772D01*
X123860D01*
Y79700D01*
X123933D01*
Y79627D01*
X124006D01*
Y79482D01*
X124078D01*
Y79409D01*
X124151D01*
Y79264D01*
X124224D01*
Y79191D01*
X124297D01*
Y79118D01*
X124369D01*
Y78973D01*
X124442D01*
Y78900D01*
X124515D01*
Y78755D01*
X124587D01*
Y78682D01*
X124660D01*
Y78609D01*
X124733D01*
Y78536D01*
X124805D01*
Y78464D01*
X124878D01*
Y78391D01*
X124951D01*
Y78318D01*
X125024D01*
Y78246D01*
X125169D01*
Y78173D01*
X125387D01*
Y78100D01*
X125532D01*
Y77882D01*
X123351D01*
Y78100D01*
X123570D01*
Y78173D01*
X123715D01*
Y78246D01*
X123788D01*
Y78609D01*
X123715D01*
Y78755D01*
X123642D01*
Y78827D01*
X123570D01*
Y78973D01*
X123497D01*
Y79118D01*
X123424D01*
Y79191D01*
X123351D01*
Y79336D01*
X123279D01*
Y79409D01*
X123206D01*
Y79554D01*
X123133D01*
Y79627D01*
X123061D01*
Y79772D01*
X122988D01*
Y79845D01*
X122915D01*
Y79991D01*
X122843D01*
Y80136D01*
X122770D01*
Y80209D01*
X122697D01*
Y80063D01*
X122625D01*
Y79991D01*
X122552D01*
Y79845D01*
X122479D01*
Y79772D01*
X122406D01*
Y79700D01*
X122334D01*
Y79554D01*
X122261D01*
Y79482D01*
X122188D01*
Y79336D01*
X122116D01*
Y79264D01*
X122043D01*
Y79118D01*
X121970D01*
Y79045D01*
X121897D01*
Y78900D01*
X121825D01*
Y78827D01*
X121752D01*
Y78755D01*
X121679D01*
Y78609D01*
X121607D01*
Y78318D01*
X121679D01*
Y78246D01*
X121752D01*
Y78173D01*
X121897D01*
Y78100D01*
X122116D01*
Y77882D01*
X118190D01*
Y78100D01*
X118408D01*
Y78173D01*
X118553D01*
Y78246D01*
X118626D01*
Y78682D01*
X118553D01*
Y78900D01*
X118481D01*
Y79118D01*
X118408D01*
Y79264D01*
X118335D01*
Y79482D01*
X115936D01*
Y79264D01*
X115863D01*
Y79045D01*
X115791D01*
Y78900D01*
X115718D01*
Y78682D01*
X115645D01*
Y78318D01*
X115718D01*
Y78246D01*
X115791D01*
Y78173D01*
X115863D01*
Y78100D01*
X116081D01*
Y77882D01*
X113682D01*
Y78100D01*
X113755D01*
Y78173D01*
X113900D01*
Y78246D01*
X113973D01*
Y78318D01*
X114046D01*
Y78391D01*
X114119D01*
Y78464D01*
X114191D01*
Y78536D01*
X114264D01*
Y78682D01*
X114337D01*
Y78900D01*
X114409D01*
Y79045D01*
X114482D01*
Y79264D01*
X114555D01*
Y79482D01*
X114627D01*
Y79627D01*
X114700D01*
Y79845D01*
X114773D01*
Y79991D01*
X114846D01*
Y80209D01*
X114918D01*
Y80427D01*
X114991D01*
Y80572D01*
X115064D01*
Y80790D01*
X115136D01*
Y81008D01*
X115209D01*
Y81154D01*
X115282D01*
Y81372D01*
X115354D01*
Y81517D01*
X115427D01*
Y81735D01*
X115500D01*
Y81953D01*
X115573D01*
Y82099D01*
X115645D01*
Y82317D01*
X115718D01*
Y82535D01*
X115791D01*
Y82680D01*
X115863D01*
Y82898D01*
X115936D01*
Y83044D01*
X116009D01*
Y83262D01*
X116081D01*
Y83480D01*
X116154D01*
Y83626D01*
X117463D01*
Y83553D01*
X117535D01*
Y83335D01*
X117608D01*
Y83189D01*
X117681D01*
Y82971D01*
X117754D01*
Y82753D01*
X117826D01*
Y82608D01*
X117899D01*
Y82390D01*
X117972D01*
Y82244D01*
X118044D01*
Y82026D01*
X118117D01*
Y81881D01*
X118190D01*
Y81663D01*
X118262D01*
Y81517D01*
X118335D01*
Y81299D01*
X118408D01*
Y81154D01*
X118481D01*
Y80936D01*
X118553D01*
Y80717D01*
X118626D01*
Y80572D01*
X118699D01*
Y80354D01*
X118771D01*
Y80209D01*
X118844D01*
Y79991D01*
X118917D01*
Y79845D01*
X118990D01*
Y79627D01*
X119062D01*
Y79482D01*
X119135D01*
Y79264D01*
X119208D01*
Y79045D01*
X119280D01*
Y78900D01*
X119353D01*
Y78755D01*
X119426D01*
Y78609D01*
X119498D01*
Y78536D01*
X119571D01*
Y78391D01*
X119644D01*
Y78318D01*
X119717D01*
Y78246D01*
X119862D01*
Y78318D01*
X119934D01*
Y78391D01*
X120007D01*
Y78464D01*
X120080D01*
Y78536D01*
X120153D01*
Y78682D01*
X120225D01*
Y78755D01*
X120298D01*
Y78827D01*
X120371D01*
Y78973D01*
X120443D01*
Y79045D01*
X120516D01*
Y79191D01*
X120589D01*
Y79264D01*
X120662D01*
Y79336D01*
X120734D01*
Y79482D01*
X120807D01*
Y79554D01*
X120880D01*
Y79700D01*
X120952D01*
Y79772D01*
X121025D01*
Y79918D01*
X121098D01*
Y79991D01*
X121170D01*
Y80063D01*
X121243D01*
Y80209D01*
X121316D01*
Y80281D01*
X121389D01*
Y80427D01*
X121461D01*
Y80499D01*
X121534D01*
Y80572D01*
X121607D01*
Y80717D01*
X121679D01*
Y80790D01*
X121752D01*
Y80936D01*
X121825D01*
Y81008D01*
X121752D01*
Y81081D01*
X121679D01*
Y81154D01*
X121607D01*
Y81299D01*
X121534D01*
Y81372D01*
X121461D01*
Y81517D01*
X121389D01*
Y81590D01*
X121316D01*
Y81663D01*
X121243D01*
Y81808D01*
X121170D01*
Y81881D01*
X121098D01*
Y82026D01*
X121025D01*
Y82099D01*
X120952D01*
Y82244D01*
X120880D01*
Y82317D01*
X120807D01*
Y82390D01*
X120734D01*
Y82535D01*
X120662D01*
Y82608D01*
X120589D01*
Y82753D01*
X120516D01*
Y82826D01*
X120443D01*
Y82898D01*
X120371D01*
Y82971D01*
X120298D01*
Y83044D01*
X120225D01*
Y83117D01*
X120153D01*
Y83189D01*
X120080D01*
Y83262D01*
X119934D01*
Y83335D01*
X119717D01*
Y83407D01*
X119644D01*
Y83626D01*
X121679D01*
Y83407D01*
X121461D01*
Y83335D01*
X121316D01*
Y83262D01*
X121243D01*
Y82898D01*
X121316D01*
Y82826D01*
X121389D01*
Y82680D01*
X121461D01*
Y82608D01*
X121534D01*
Y82462D01*
X121607D01*
Y82390D01*
X121679D01*
Y82244D01*
X121752D01*
Y82171D01*
X121825D01*
Y82026D01*
X121897D01*
Y81953D01*
X121970D01*
Y81808D01*
X122043D01*
Y81735D01*
X122116D01*
Y81590D01*
X122188D01*
Y81517D01*
X122261D01*
Y81590D01*
X122334D01*
Y81663D01*
X122406D01*
Y81808D01*
X122479D01*
Y81881D01*
X122552D01*
Y82026D01*
X122625D01*
Y82099D01*
X122697D01*
Y82244D01*
X122770D01*
Y82317D01*
X122843D01*
Y82462D01*
X122915D01*
Y82535D01*
X122988D01*
Y82680D01*
X123061D01*
Y82826D01*
X123133D01*
Y82971D01*
X123206D01*
Y83117D01*
X123133D01*
Y83262D01*
X123061D01*
Y83335D01*
X122915D01*
Y83407D01*
X122770D01*
Y83626D01*
X125460D01*
Y83407D01*
D02*
G37*
G36*
X151923Y81953D02*
X156939D01*
Y81590D01*
X156866D01*
Y81299D01*
X156793D01*
Y81154D01*
X156721D01*
Y81008D01*
X156648D01*
Y80863D01*
X156575D01*
Y80717D01*
X156503D01*
Y80645D01*
X156430D01*
Y80499D01*
X156357D01*
Y80427D01*
X156284D01*
Y80354D01*
X156212D01*
Y80281D01*
X156139D01*
Y80209D01*
X156067D01*
Y80136D01*
X155994D01*
Y80063D01*
X155921D01*
Y79991D01*
X155848D01*
Y79918D01*
X155703D01*
Y79845D01*
X155630D01*
Y79772D01*
X155558D01*
Y79700D01*
X155485D01*
Y79627D01*
X155412D01*
Y79554D01*
X155340D01*
Y79482D01*
X155267D01*
Y79409D01*
X155194D01*
Y79336D01*
X155121D01*
Y79264D01*
X155049D01*
Y79191D01*
X154976D01*
Y79045D01*
X154903D01*
Y78973D01*
X154831D01*
Y78827D01*
X154758D01*
Y78755D01*
X154685D01*
Y78536D01*
X154612D01*
Y78391D01*
X154540D01*
Y78173D01*
X154467D01*
Y78028D01*
X154394D01*
Y77810D01*
X154322D01*
Y77664D01*
X154249D01*
Y77519D01*
X154176D01*
Y77373D01*
X154104D01*
Y77228D01*
X154031D01*
Y77083D01*
X153958D01*
Y76937D01*
X153885D01*
Y76864D01*
X153813D01*
Y76792D01*
X153740D01*
Y76646D01*
X153595D01*
Y76574D01*
X153522D01*
Y76501D01*
X153449D01*
Y76428D01*
X153304D01*
Y76355D01*
X153086D01*
Y76283D01*
X152504D01*
Y76355D01*
X152359D01*
Y76428D01*
X152286D01*
Y76501D01*
X152213D01*
Y76574D01*
X152141D01*
Y76646D01*
X152068D01*
Y76719D01*
X151995D01*
Y76792D01*
X151923D01*
Y76864D01*
X151850D01*
Y76937D01*
X151777D01*
Y77010D01*
X151704D01*
Y77083D01*
X151632D01*
Y77155D01*
X151559D01*
Y77228D01*
X151414D01*
Y77301D01*
X151268D01*
Y77373D01*
X150905D01*
Y77446D01*
X150759D01*
Y77373D01*
X150469D01*
Y77301D01*
X150323D01*
Y77228D01*
X150250D01*
Y77155D01*
X150178D01*
Y77083D01*
X150105D01*
Y77010D01*
X150032D01*
Y76937D01*
X149960D01*
Y76864D01*
X149887D01*
Y76792D01*
X149814D01*
Y76646D01*
X149742D01*
Y76574D01*
X149669D01*
Y76428D01*
X149596D01*
Y76283D01*
X149523D01*
Y76137D01*
X149451D01*
Y75992D01*
X149378D01*
Y75847D01*
X149305D01*
Y75701D01*
X149233D01*
Y75556D01*
X149160D01*
Y75410D01*
X149087D01*
Y75265D01*
X149015D01*
Y75120D01*
X148942D01*
Y74901D01*
X148869D01*
Y74756D01*
X148796D01*
Y74611D01*
X148724D01*
Y74465D01*
X148651D01*
Y74320D01*
X148578D01*
Y74174D01*
X148506D01*
Y74029D01*
X148433D01*
Y73884D01*
X148360D01*
Y73738D01*
X148288D01*
Y73593D01*
X148215D01*
Y73448D01*
X148142D01*
Y73375D01*
X148070D01*
Y73229D01*
X147997D01*
Y73084D01*
X147924D01*
Y73011D01*
X147851D01*
Y72866D01*
X147779D01*
Y72793D01*
X147706D01*
Y72720D01*
X147633D01*
Y72648D01*
X147561D01*
Y72502D01*
X147488D01*
Y72430D01*
X147415D01*
Y72357D01*
X147343D01*
Y72284D01*
X147270D01*
Y72212D01*
X147197D01*
Y72139D01*
X147124D01*
Y72066D01*
X147052D01*
Y71993D01*
X146906D01*
Y71921D01*
X146834D01*
Y71848D01*
X146761D01*
Y71775D01*
X146616D01*
Y71703D01*
X146543D01*
Y71630D01*
X146397D01*
Y71557D01*
X146325D01*
Y71485D01*
X146179D01*
Y71412D01*
X146034D01*
Y71339D01*
X145816D01*
Y71267D01*
X145598D01*
Y71194D01*
X145234D01*
Y71121D01*
X144434D01*
Y71194D01*
X144071D01*
Y71267D01*
X143853D01*
Y71339D01*
X143707D01*
Y71485D01*
X143780D01*
Y71630D01*
X143853D01*
Y71848D01*
X143925D01*
Y72139D01*
X143998D01*
Y72502D01*
X144071D01*
Y73593D01*
X143998D01*
Y73884D01*
X143925D01*
Y74102D01*
X143853D01*
Y74247D01*
X143780D01*
Y74393D01*
X143707D01*
Y74538D01*
X143635D01*
Y74683D01*
X143562D01*
Y74756D01*
X143489D01*
Y74901D01*
X143417D01*
Y74974D01*
X143344D01*
Y75047D01*
X143271D01*
Y75192D01*
X143199D01*
Y75265D01*
X143126D01*
Y75338D01*
X143053D01*
Y75410D01*
X142980D01*
Y75483D01*
X142908D01*
Y75556D01*
X142835D01*
Y75629D01*
X142762D01*
Y75701D01*
X142690D01*
Y75774D01*
X142617D01*
Y75847D01*
X142544D01*
Y75919D01*
X142472D01*
Y75992D01*
X142326D01*
Y76065D01*
X142253D01*
Y76137D01*
X142181D01*
Y76210D01*
X142035D01*
Y76283D01*
X141963D01*
Y76355D01*
X141890D01*
Y76428D01*
X141745D01*
Y76501D01*
X141599D01*
Y76574D01*
X141526D01*
Y76646D01*
X141381D01*
Y76719D01*
X141236D01*
Y76792D01*
X141090D01*
Y76864D01*
X140945D01*
Y76937D01*
X140799D01*
Y77010D01*
X140654D01*
Y77083D01*
X140509D01*
Y77155D01*
X140291D01*
Y77228D01*
X140145D01*
Y77301D01*
X139927D01*
Y77373D01*
X139709D01*
Y77446D01*
X139491D01*
Y77519D01*
X139200D01*
Y77591D01*
X138982D01*
Y77664D01*
X138837D01*
Y81226D01*
X138909D01*
Y81299D01*
X139055D01*
Y81372D01*
X139127D01*
Y81445D01*
X139200D01*
Y81517D01*
X139273D01*
Y81590D01*
X139346D01*
Y81735D01*
X139418D01*
Y81808D01*
X139491D01*
Y81953D01*
X139564D01*
Y82099D01*
X139636D01*
Y82244D01*
X139709D01*
Y82535D01*
X139782D01*
Y82898D01*
X139854D01*
Y85370D01*
X143344D01*
Y85225D01*
X143417D01*
Y84861D01*
X143489D01*
Y84498D01*
X143562D01*
Y84134D01*
X143635D01*
Y83771D01*
X143707D01*
Y83407D01*
X143780D01*
Y83189D01*
X142544D01*
Y82971D01*
X142617D01*
Y82608D01*
X142690D01*
Y82244D01*
X142762D01*
Y81881D01*
X142835D01*
Y81517D01*
X142908D01*
Y81154D01*
X144216D01*
Y80863D01*
X144289D01*
Y80499D01*
X144362D01*
Y80136D01*
X144434D01*
Y79772D01*
X144507D01*
Y79409D01*
X144580D01*
Y79045D01*
X144652D01*
Y78755D01*
X144725D01*
Y78100D01*
X144652D01*
Y78028D01*
X144507D01*
Y77955D01*
X143562D01*
Y77810D01*
X143635D01*
Y77446D01*
X143707D01*
Y77083D01*
X143780D01*
Y76719D01*
X143853D01*
Y76355D01*
X143925D01*
Y75992D01*
X143998D01*
Y75774D01*
X146834D01*
Y75847D01*
X147270D01*
Y75919D01*
X147561D01*
Y75992D01*
X147706D01*
Y76065D01*
X147851D01*
Y76137D01*
X147924D01*
Y76210D01*
X147997D01*
Y76283D01*
X148070D01*
Y76428D01*
X148142D01*
Y76646D01*
X148215D01*
Y77228D01*
X148142D01*
Y77591D01*
X148070D01*
Y77955D01*
X147997D01*
Y78318D01*
X147924D01*
Y78682D01*
X147851D01*
Y79045D01*
X147779D01*
Y79409D01*
X147706D01*
Y79772D01*
X147633D01*
Y80136D01*
X147561D01*
Y80499D01*
X147488D01*
Y80863D01*
X147415D01*
Y81154D01*
X148578D01*
Y81517D01*
X148506D01*
Y81881D01*
X148433D01*
Y82244D01*
X148360D01*
Y82608D01*
X148288D01*
Y82971D01*
X148215D01*
Y83189D01*
X146979D01*
Y83480D01*
X146906D01*
Y83844D01*
X146834D01*
Y84207D01*
X146761D01*
Y84571D01*
X146688D01*
Y84934D01*
X146616D01*
Y85298D01*
X146543D01*
Y85370D01*
X147706D01*
Y88714D01*
X151923D01*
Y81953D01*
D02*
G37*
G36*
X123424Y74901D02*
X123642D01*
Y74829D01*
X123860D01*
Y74756D01*
X124006D01*
Y74683D01*
X124078D01*
Y74611D01*
X124224D01*
Y74538D01*
X124297D01*
Y74465D01*
X124369D01*
Y74393D01*
X124442D01*
Y74320D01*
X124515D01*
Y74174D01*
X124587D01*
Y74102D01*
X124660D01*
Y73956D01*
X124733D01*
Y73666D01*
X124805D01*
Y72939D01*
X124733D01*
Y72720D01*
X124660D01*
Y72575D01*
X124587D01*
Y72430D01*
X124515D01*
Y72357D01*
X124442D01*
Y72284D01*
X124369D01*
Y72212D01*
X124297D01*
Y72139D01*
X124224D01*
Y72066D01*
X124078D01*
Y71993D01*
X124006D01*
Y71921D01*
X123860D01*
Y71848D01*
X123642D01*
Y71775D01*
X123424D01*
Y71703D01*
X123061D01*
Y71630D01*
X122770D01*
Y71557D01*
X122479D01*
Y71485D01*
X122116D01*
Y71412D01*
X121897D01*
Y71339D01*
X121752D01*
Y71267D01*
X121607D01*
Y71194D01*
X121534D01*
Y71121D01*
X121461D01*
Y71048D01*
X121389D01*
Y70830D01*
X121316D01*
Y70539D01*
X121389D01*
Y70321D01*
X121461D01*
Y70176D01*
X121534D01*
Y70103D01*
X121607D01*
Y70031D01*
X121752D01*
Y69958D01*
X121897D01*
Y69885D01*
X122188D01*
Y69813D01*
X122915D01*
Y69885D01*
X123279D01*
Y69958D01*
X123497D01*
Y70031D01*
X123642D01*
Y70103D01*
X123788D01*
Y70176D01*
X123933D01*
Y70249D01*
X124006D01*
Y70321D01*
X124151D01*
Y70394D01*
X124224D01*
Y70467D01*
X124297D01*
Y70539D01*
X124369D01*
Y70612D01*
X124442D01*
Y70685D01*
X124515D01*
Y70758D01*
X124587D01*
Y70830D01*
X124660D01*
Y70903D01*
X124733D01*
Y70976D01*
X124878D01*
Y70903D01*
X124951D01*
Y70758D01*
X124878D01*
Y70467D01*
X124805D01*
Y70176D01*
X124733D01*
Y69958D01*
X124660D01*
Y69667D01*
X124587D01*
Y69376D01*
X124515D01*
Y69158D01*
X124224D01*
Y69231D01*
X124151D01*
Y69376D01*
X124078D01*
Y69449D01*
X123933D01*
Y69376D01*
X123788D01*
Y69304D01*
X123570D01*
Y69231D01*
X123351D01*
Y69158D01*
X122988D01*
Y69086D01*
X121970D01*
Y69158D01*
X121607D01*
Y69231D01*
X121389D01*
Y69304D01*
X121243D01*
Y69376D01*
X121098D01*
Y69449D01*
X120952D01*
Y69522D01*
X120880D01*
Y69594D01*
X120734D01*
Y69667D01*
X120662D01*
Y69740D01*
X120589D01*
Y69885D01*
X120516D01*
Y69958D01*
X120443D01*
Y70103D01*
X120371D01*
Y70249D01*
X120298D01*
Y70467D01*
X120225D01*
Y71412D01*
X120298D01*
Y71630D01*
X120371D01*
Y71775D01*
X120443D01*
Y71921D01*
X120516D01*
Y71993D01*
X120589D01*
Y72066D01*
X120662D01*
Y72139D01*
X120734D01*
Y72212D01*
X120880D01*
Y72284D01*
X120952D01*
Y72357D01*
X121098D01*
Y72430D01*
X121243D01*
Y72502D01*
X121461D01*
Y72575D01*
X121752D01*
Y72648D01*
X122043D01*
Y72720D01*
X122334D01*
Y72793D01*
X122697D01*
Y72866D01*
X122988D01*
Y72939D01*
X123279D01*
Y73011D01*
X123424D01*
Y73084D01*
X123570D01*
Y73157D01*
X123642D01*
Y73229D01*
X123715D01*
Y73448D01*
X123788D01*
Y73666D01*
X123715D01*
Y73884D01*
X123642D01*
Y73956D01*
X123570D01*
Y74029D01*
X123497D01*
Y74102D01*
X123351D01*
Y74174D01*
X123133D01*
Y74247D01*
X122188D01*
Y74174D01*
X121970D01*
Y74102D01*
X121752D01*
Y74029D01*
X121607D01*
Y73956D01*
X121461D01*
Y73884D01*
X121316D01*
Y73811D01*
X121243D01*
Y73738D01*
X121170D01*
Y73666D01*
X121098D01*
Y73593D01*
X120952D01*
Y73520D01*
X120880D01*
Y73448D01*
X120807D01*
Y73375D01*
X120662D01*
Y73448D01*
X120589D01*
Y73520D01*
X120662D01*
Y73811D01*
X120734D01*
Y74029D01*
X120807D01*
Y74320D01*
X120880D01*
Y74538D01*
X120952D01*
Y74756D01*
X121025D01*
Y74901D01*
X121316D01*
Y74756D01*
X121389D01*
Y74683D01*
X121607D01*
Y74756D01*
X121752D01*
Y74829D01*
X121897D01*
Y74901D01*
X122116D01*
Y74974D01*
X123424D01*
Y74901D01*
D02*
G37*
G36*
X145307Y87697D02*
X145379D01*
Y87333D01*
X145452D01*
Y86970D01*
X145525D01*
Y86606D01*
X145598D01*
Y86243D01*
X145670D01*
Y86097D01*
X143925D01*
Y86388D01*
X143853D01*
Y86752D01*
X143780D01*
Y87115D01*
X143707D01*
Y87479D01*
X143635D01*
Y87769D01*
X145307D01*
Y87697D01*
D02*
G37*
G36*
X145816Y85079D02*
X145888D01*
Y84716D01*
X145961D01*
Y84352D01*
X146034D01*
Y83989D01*
X146107D01*
Y83626D01*
X146179D01*
Y83262D01*
X146252D01*
Y82898D01*
X146325D01*
Y82535D01*
X146397D01*
Y82171D01*
X146470D01*
Y81808D01*
X146543D01*
Y81445D01*
X146616D01*
Y81081D01*
X146688D01*
Y80717D01*
X146761D01*
Y80354D01*
X146834D01*
Y79991D01*
X146906D01*
Y79627D01*
X146979D01*
Y79264D01*
X147052D01*
Y78900D01*
X147124D01*
Y78536D01*
X147197D01*
Y78173D01*
X147270D01*
Y77955D01*
X145525D01*
Y78318D01*
X145452D01*
Y78682D01*
X145379D01*
Y79045D01*
X145307D01*
Y79409D01*
X145234D01*
Y79772D01*
X145161D01*
Y80136D01*
X145089D01*
Y80499D01*
X145016D01*
Y80863D01*
X144943D01*
Y81226D01*
X144871D01*
Y81590D01*
X144798D01*
Y81953D01*
X144725D01*
Y82317D01*
X144652D01*
Y82680D01*
X144580D01*
Y83044D01*
X144507D01*
Y83407D01*
X144434D01*
Y83771D01*
X144362D01*
Y84134D01*
X144289D01*
Y84498D01*
X144216D01*
Y84861D01*
X144144D01*
Y85225D01*
X144071D01*
Y85370D01*
X145816D01*
Y85079D01*
D02*
G37*
%LPC*%
G36*
X112883Y74174D02*
X111501D01*
Y74102D01*
X111283D01*
Y74029D01*
X111211D01*
Y73956D01*
X111138D01*
Y73884D01*
X111065D01*
Y73811D01*
X110993D01*
Y73738D01*
Y73666D01*
X110920D01*
Y73593D01*
Y73520D01*
Y73448D01*
Y73375D01*
X110847D01*
Y73302D01*
Y73229D01*
X110920D01*
Y73157D01*
Y73084D01*
Y73011D01*
Y72939D01*
Y72866D01*
X110993D01*
Y72793D01*
Y72720D01*
X111065D01*
Y72648D01*
Y72575D01*
X111138D01*
Y72502D01*
X111211D01*
Y72430D01*
X111356D01*
Y72357D01*
X111501D01*
Y72284D01*
X111720D01*
Y72212D01*
X112955D01*
Y72284D01*
Y72357D01*
Y72430D01*
Y72502D01*
Y72575D01*
Y72648D01*
Y72720D01*
Y72793D01*
Y72866D01*
Y72939D01*
Y73011D01*
Y73084D01*
Y73157D01*
Y73229D01*
Y73302D01*
Y73375D01*
Y73448D01*
Y73520D01*
Y73593D01*
Y73666D01*
Y73738D01*
Y73811D01*
Y73884D01*
Y73956D01*
Y74029D01*
X112883D01*
Y74102D01*
Y74174D01*
D02*
G37*
G36*
X117172Y82535D02*
X117099D01*
Y82462D01*
X117026D01*
Y82390D01*
Y82317D01*
Y82244D01*
X116954D01*
Y82171D01*
Y82099D01*
Y82026D01*
X116881D01*
Y81953D01*
Y81881D01*
X116808D01*
Y81808D01*
Y81735D01*
Y81663D01*
X116736D01*
Y81590D01*
Y81517D01*
Y81445D01*
X116663D01*
Y81372D01*
Y81299D01*
Y81226D01*
X116590D01*
Y81154D01*
Y81081D01*
X116518D01*
Y81008D01*
Y80936D01*
Y80863D01*
X116445D01*
Y80790D01*
Y80717D01*
Y80645D01*
X116372D01*
Y80572D01*
Y80499D01*
X116299D01*
Y80427D01*
Y80354D01*
Y80281D01*
X116227D01*
Y80209D01*
Y80136D01*
X118044D01*
Y80209D01*
X117972D01*
Y80281D01*
Y80354D01*
Y80427D01*
X117899D01*
Y80499D01*
Y80572D01*
Y80645D01*
X117826D01*
Y80717D01*
Y80790D01*
X117754D01*
Y80863D01*
Y80936D01*
Y81008D01*
X117681D01*
Y81081D01*
Y81154D01*
X117608D01*
Y81226D01*
Y81299D01*
Y81372D01*
X117535D01*
Y81445D01*
Y81517D01*
Y81590D01*
X117463D01*
Y81663D01*
Y81735D01*
X117390D01*
Y81808D01*
Y81881D01*
Y81953D01*
X117317D01*
Y82026D01*
Y82099D01*
Y82171D01*
X117245D01*
Y82244D01*
Y82317D01*
X117172D01*
Y82390D01*
Y82462D01*
Y82535D01*
D02*
G37*
%LPD*%
G54D38*
X428000Y-72683D02*
Y-52350D01*
X369000Y-73000D02*
Y-52667D01*
X-29200Y-72683D02*
X631000D01*
X-29200Y-93017D02*
X630800D01*
X-29200Y-113350D02*
X371300D01*
X-29150Y-52350D02*
X631000D01*
X-29150Y-113350D02*
Y-52350D01*
Y-113350D02*
X128400D01*
X-29200D02*
Y-52350D01*
X217300Y-113350D02*
Y-52350D01*
X631000Y-113350D02*
Y-52350D01*
X371300Y-113350D02*
X631000D01*
X490200Y-114000D02*
Y-93717D01*
G54D46*
X57700Y-79851D02*
Y-85849D01*
X60699D01*
X61699Y-84850D01*
Y-83850D01*
X60699Y-82850D01*
X57700D01*
X60699D01*
X61699Y-81851D01*
Y-80851D01*
X60699Y-79851D01*
X57700D01*
X64698Y-85849D02*
X66697D01*
X67697Y-84850D01*
Y-82850D01*
X66697Y-81851D01*
X64698D01*
X63698Y-82850D01*
Y-84850D01*
X64698Y-85849D01*
X70696Y-80851D02*
Y-81851D01*
X69696D01*
X71696D01*
X70696D01*
Y-84850D01*
X71696Y-85849D01*
X75694Y-80851D02*
Y-81851D01*
X74695D01*
X76694D01*
X75694D01*
Y-84850D01*
X76694Y-85849D01*
X80693D02*
X82692D01*
X83692Y-84850D01*
Y-82850D01*
X82692Y-81851D01*
X80693D01*
X79693Y-82850D01*
Y-84850D01*
X80693Y-85849D01*
X85691D02*
Y-81851D01*
X86691D01*
X87690Y-82850D01*
Y-85849D01*
Y-82850D01*
X88690Y-81851D01*
X89690Y-82850D01*
Y-85849D01*
X100686Y-79851D02*
X98687D01*
X97687Y-80851D01*
Y-84850D01*
X98687Y-85849D01*
X100686D01*
X101686Y-84850D01*
Y-80851D01*
X100686Y-79851D01*
X103685Y-81851D02*
X105684Y-85849D01*
X107684Y-81851D01*
X112682Y-85849D02*
X110683D01*
X109683Y-84850D01*
Y-82850D01*
X110683Y-81851D01*
X112682D01*
X113682Y-82850D01*
Y-83850D01*
X109683D01*
X115681Y-81851D02*
Y-85849D01*
Y-83850D01*
X116681Y-82850D01*
X117681Y-81851D01*
X118680D01*
X121679Y-85849D02*
X123679D01*
X122679D01*
Y-79851D01*
X121679D01*
X127677Y-81851D02*
X129677D01*
X130676Y-82850D01*
Y-85849D01*
X127677D01*
X126678Y-84850D01*
X127677Y-83850D01*
X130676D01*
X132676Y-81851D02*
Y-84850D01*
X133675Y-85849D01*
X136674D01*
Y-86849D01*
X135675Y-87849D01*
X134675D01*
X136674Y-85849D02*
Y-81851D01*
X498200Y-65567D02*
Y-59569D01*
X502199Y-65567D01*
Y-59569D01*
X505198Y-65567D02*
X507197D01*
X508197Y-64567D01*
Y-62568D01*
X507197Y-61568D01*
X505198D01*
X504198Y-62568D01*
Y-64567D01*
X505198Y-65567D01*
X511196Y-60568D02*
Y-61568D01*
X510196D01*
X512195D01*
X511196D01*
Y-64567D01*
X512195Y-65567D01*
X521193Y-59569D02*
X523192D01*
X522192D01*
Y-65567D01*
X521193D01*
X523192D01*
X526191D02*
Y-61568D01*
X529190D01*
X530190Y-62568D01*
Y-65567D01*
X538187Y-59569D02*
Y-63567D01*
X540186Y-65567D01*
X542186Y-63567D01*
Y-59569D01*
X547184Y-65567D02*
X545185D01*
X544185Y-64567D01*
Y-62568D01*
X545185Y-61568D01*
X547184D01*
X548184Y-62568D01*
Y-63567D01*
X544185D01*
X550183Y-61568D02*
Y-65567D01*
Y-63567D01*
X551183Y-62568D01*
X552182Y-61568D01*
X553182D01*
X556181Y-65567D02*
X559180D01*
X560180Y-64567D01*
X559180Y-63567D01*
X557181D01*
X556181Y-62568D01*
X557181Y-61568D01*
X560180D01*
X562179Y-65567D02*
X564179D01*
X563179D01*
Y-61568D01*
X562179D01*
X568177Y-65567D02*
X570177D01*
X571176Y-64567D01*
Y-62568D01*
X570177Y-61568D01*
X568177D01*
X567178Y-62568D01*
Y-64567D01*
X568177Y-65567D01*
X573176D02*
Y-61568D01*
X576175D01*
X577174Y-62568D01*
Y-65567D01*
X583173Y-60568D02*
X582173Y-59569D01*
X580173D01*
X579174Y-60568D01*
Y-64567D01*
X580173Y-65567D01*
X582173D01*
X583173Y-64567D01*
X586171Y-65567D02*
X588171D01*
X589171Y-64567D01*
Y-62568D01*
X588171Y-61568D01*
X586171D01*
X585172Y-62568D01*
Y-64567D01*
X586171Y-65567D01*
X591170D02*
Y-61568D01*
X594169D01*
X595169Y-62568D01*
Y-65567D01*
X598168Y-60568D02*
Y-61568D01*
X597168D01*
X599167D01*
X598168D01*
Y-64567D01*
X599167Y-65567D01*
X602166Y-61568D02*
Y-65567D01*
Y-63567D01*
X603166Y-62568D01*
X604166Y-61568D01*
X605165D01*
X609164Y-65567D02*
X611164D01*
X612163Y-64567D01*
Y-62568D01*
X611164Y-61568D01*
X609164D01*
X608164Y-62568D01*
Y-64567D01*
X609164Y-65567D01*
X614162D02*
X616162D01*
X615162D01*
Y-59569D01*
X614162D01*
X451599Y-60568D02*
X450599Y-59569D01*
X448600D01*
X447600Y-60568D01*
Y-61568D01*
X448600Y-62568D01*
X450599D01*
X451599Y-63567D01*
Y-64567D01*
X450599Y-65567D01*
X448600D01*
X447600Y-64567D01*
X453598Y-59569D02*
Y-63567D01*
X455597Y-65567D01*
X457597Y-63567D01*
Y-59569D01*
X459596Y-65567D02*
Y-59569D01*
X463595Y-65567D01*
Y-59569D01*
X471592Y-65567D02*
Y-59569D01*
X474591D01*
X475591Y-60568D01*
Y-62568D01*
X474591Y-63567D01*
X471592D01*
X473592D02*
X475591Y-65567D01*
X481589Y-59569D02*
X477590D01*
Y-65567D01*
X481589D01*
X477590Y-62568D02*
X479590D01*
X483588Y-59569D02*
Y-63567D01*
X485588Y-65567D01*
X487587Y-63567D01*
Y-59569D01*
X489586Y-61568D02*
X490586D01*
Y-62568D01*
X489586D01*
Y-61568D01*
Y-64567D02*
X490586D01*
Y-65567D01*
X489586D01*
Y-64567D01*
X378500Y-65700D02*
Y-59702D01*
X381499D01*
X382499Y-60702D01*
Y-62701D01*
X381499Y-63701D01*
X378500D01*
X380499D02*
X382499Y-65700D01*
X388497Y-59702D02*
X384498D01*
Y-65700D01*
X388497D01*
X384498Y-62701D02*
X386497D01*
X390496Y-59702D02*
Y-63701D01*
X392495Y-65700D01*
X394495Y-63701D01*
Y-59702D01*
X396494Y-61701D02*
X397494D01*
Y-62701D01*
X396494D01*
Y-61701D01*
Y-64700D02*
X397494D01*
Y-65700D01*
X396494D01*
Y-64700D01*
X411489Y-59702D02*
X407491D01*
Y-65700D01*
X411489D01*
X407491Y-62701D02*
X409490D01*
X417487Y-65700D02*
X413489D01*
X417487Y-61701D01*
Y-60702D01*
X416488Y-59702D01*
X414488D01*
X413489Y-60702D01*
X44300Y-100401D02*
X47299D01*
X45799D01*
Y-104900D01*
X48799Y-100401D02*
X50298D01*
X49548D01*
Y-104900D01*
X48799D01*
X50298D01*
X52547Y-100401D02*
Y-104900D01*
X54797D01*
X55546Y-104150D01*
Y-101151D01*
X54797Y-100401D01*
X52547D01*
X57046Y-104900D02*
Y-101901D01*
X58545Y-100401D01*
X60045Y-101901D01*
Y-104900D01*
Y-102651D01*
X57046D01*
X61544D02*
X64543D01*
X66043Y-101151D02*
X66793Y-100401D01*
X68292D01*
X69042Y-101151D01*
Y-104150D01*
X68292Y-104900D01*
X66793D01*
X66043Y-104150D01*
Y-101151D01*
X70542Y-104900D02*
X72041D01*
X71291D01*
Y-100401D01*
X70542Y-101151D01*
X77289Y-100401D02*
X74290D01*
Y-102651D01*
X75790Y-101901D01*
X76540D01*
X77289Y-102651D01*
Y-104150D01*
X76540Y-104900D01*
X75040D01*
X74290Y-104150D01*
X78789Y-100401D02*
X81788D01*
Y-101151D01*
X78789Y-104150D01*
Y-104900D01*
X86286Y-100401D02*
X84787Y-101151D01*
X83287Y-102651D01*
Y-104150D01*
X84037Y-104900D01*
X85537D01*
X86286Y-104150D01*
Y-103401D01*
X85537Y-102651D01*
X83287D01*
X87786Y-105650D02*
X90785D01*
X92285Y-100401D02*
Y-104900D01*
X94534D01*
X95284Y-104150D01*
Y-101151D01*
X94534Y-100401D01*
X92285D01*
X96783D02*
Y-104150D01*
X97533Y-104900D01*
X99032D01*
X99782Y-104150D01*
Y-100401D01*
X101282Y-104900D02*
Y-101901D01*
X102781Y-100401D01*
X104281Y-101901D01*
Y-104900D01*
Y-102651D01*
X101282D01*
X105780Y-100401D02*
Y-104900D01*
X108779D01*
X110279Y-105650D02*
X113278D01*
X117776Y-101151D02*
X117026Y-100401D01*
X115527D01*
X114777Y-101151D01*
Y-101901D01*
X115527Y-102651D01*
X117026D01*
X117776Y-103401D01*
Y-104150D01*
X117026Y-104900D01*
X115527D01*
X114777Y-104150D01*
X119276Y-100401D02*
Y-104900D01*
X121525D01*
X122275Y-104150D01*
Y-101151D01*
X121525Y-100401D01*
X119276D01*
X126024D02*
X124524D01*
X123774Y-101151D01*
Y-104150D01*
X124524Y-104900D01*
X126024D01*
X126773Y-104150D01*
Y-101151D01*
X126024Y-100401D01*
X131272D02*
X128273D01*
Y-104900D01*
X131272D01*
X128273Y-102651D02*
X129772D01*
X132772Y-104900D02*
X134271D01*
X133521D01*
Y-100401D01*
X132772Y-101151D01*
X136520Y-104900D02*
Y-104150D01*
X137270D01*
Y-104900D01*
X136520D01*
X143268Y-101151D02*
X142518Y-100401D01*
X141019D01*
X140269Y-101151D01*
Y-104150D01*
X141019Y-104900D01*
X142518D01*
X143268Y-104150D01*
Y-102651D01*
X141769D01*
X144768Y-100401D02*
Y-104900D01*
X147017D01*
X147767Y-104150D01*
Y-103401D01*
X147017Y-102651D01*
X144768D01*
X147017D01*
X147767Y-101901D01*
Y-101151D01*
X147017Y-100401D01*
X144768D01*
X151515D02*
X150016D01*
X149266Y-101151D01*
Y-104150D01*
X150016Y-104900D01*
X151515D01*
X152265Y-104150D01*
Y-101151D01*
X151515Y-100401D01*
X311950Y-106433D02*
X313949D01*
X312950D01*
Y-100435D01*
X311950Y-101435D01*
X316948D02*
X317948Y-100435D01*
X319947D01*
X320947Y-101435D01*
Y-105434D01*
X319947Y-106433D01*
X317948D01*
X316948Y-105434D01*
Y-101435D01*
X322946Y-106433D02*
X326945Y-102435D01*
X328944Y-106433D02*
X330944D01*
X329944D01*
Y-100435D01*
X328944Y-101435D01*
X337942Y-106433D02*
X333943D01*
X337942Y-102435D01*
Y-101435D01*
X336942Y-100435D01*
X334943D01*
X333943Y-101435D01*
X339941Y-106433D02*
X343940Y-102435D01*
X349938Y-106433D02*
X345939D01*
X349938Y-102435D01*
Y-101435D01*
X348938Y-100435D01*
X346939D01*
X345939Y-101435D01*
X351937D02*
X352937Y-100435D01*
X354936D01*
X355936Y-101435D01*
Y-105434D01*
X354936Y-106433D01*
X352937D01*
X351937Y-105434D01*
Y-101435D01*
X357935Y-106433D02*
X359934D01*
X358935D01*
Y-100435D01*
X357935Y-101435D01*
X362933Y-100435D02*
X366932D01*
Y-101435D01*
X362933Y-105434D01*
Y-106433D01*
X228999Y-101435D02*
X227999Y-100435D01*
X226000D01*
X225000Y-101435D01*
Y-105434D01*
X226000Y-106433D01*
X227999D01*
X228999Y-105434D01*
Y-103435D01*
X226999D01*
X234997Y-100435D02*
X230998D01*
Y-106433D01*
X234997D01*
X230998Y-103435D02*
X232997D01*
X236996Y-106433D02*
Y-100435D01*
X240995Y-106433D01*
Y-100435D01*
X246993D02*
X242994D01*
Y-106433D01*
X246993D01*
X242994Y-103435D02*
X244993D01*
X248992Y-106433D02*
Y-100435D01*
X251991D01*
X252991Y-101435D01*
Y-103435D01*
X251991Y-104434D01*
X248992D01*
X250992D02*
X252991Y-106433D01*
X254990D02*
Y-102435D01*
X256990Y-100435D01*
X258989Y-102435D01*
Y-106433D01*
Y-103435D01*
X254990D01*
X260988Y-100435D02*
X264987D01*
X262988D01*
Y-106433D01*
X270985Y-100435D02*
X266986D01*
Y-106433D01*
X270985D01*
X266986Y-103435D02*
X268986D01*
X272985Y-100435D02*
Y-106433D01*
X275984D01*
X276983Y-105434D01*
Y-101435D01*
X275984Y-100435D01*
X272985D01*
X302975Y-102435D02*
X303975D01*
Y-103435D01*
X302975D01*
Y-102435D01*
Y-105434D02*
X303975D01*
Y-106433D01*
X302975D01*
Y-105434D01*
X-22850Y-65567D02*
Y-61568D01*
X-20851Y-59569D01*
X-18851Y-61568D01*
Y-65567D01*
Y-62568D01*
X-22850D01*
X-16852Y-59569D02*
Y-65567D01*
X-12853D01*
X-10854Y-59569D02*
Y-65567D01*
X-6855D01*
X1142D02*
Y-61568D01*
X3142Y-59569D01*
X5141Y-61568D01*
Y-65567D01*
Y-62568D01*
X1142D01*
X7140Y-65567D02*
Y-59569D01*
X10139D01*
X11139Y-60568D01*
Y-62568D01*
X10139Y-63567D01*
X7140D01*
X9140D02*
X11139Y-65567D01*
X13138Y-59569D02*
X17137D01*
X15138D01*
Y-65567D01*
X19136Y-59569D02*
Y-65567D01*
X21136Y-63567D01*
X23135Y-65567D01*
Y-59569D01*
X28133D02*
X26134D01*
X25135Y-60568D01*
Y-64567D01*
X26134Y-65567D01*
X28133D01*
X29133Y-64567D01*
Y-60568D01*
X28133Y-59569D01*
X31133Y-65567D02*
Y-59569D01*
X34132D01*
X35131Y-60568D01*
Y-62568D01*
X34132Y-63567D01*
X31133D01*
X33132D02*
X35131Y-65567D01*
X37131Y-59569D02*
Y-65567D01*
Y-63567D01*
X41129Y-59569D01*
X38130Y-62568D01*
X41129Y-65567D01*
X49127Y-59569D02*
Y-63567D01*
X51126Y-65567D01*
X53125Y-63567D01*
Y-59569D01*
X55125D02*
X57124D01*
X56125D01*
Y-65567D01*
X55125D01*
X57124D01*
X64122Y-59569D02*
X60123D01*
Y-65567D01*
X64122D01*
X60123Y-62568D02*
X62122D01*
X66121Y-59569D02*
Y-65567D01*
X68121Y-63567D01*
X70120Y-65567D01*
Y-59569D01*
X76118D02*
X72119D01*
Y-65567D01*
X76118D01*
X72119Y-62568D02*
X74119D01*
X78117Y-59569D02*
Y-65567D01*
X81116D01*
X82116Y-64567D01*
Y-60568D01*
X81116Y-59569D01*
X78117D01*
X94112D02*
X90114D01*
Y-62568D01*
X92113D01*
X90114D01*
Y-65567D01*
X96112D02*
Y-59569D01*
X99111D01*
X100110Y-60568D01*
Y-62568D01*
X99111Y-63567D01*
X96112D01*
X98111D02*
X100110Y-65567D01*
X105109Y-59569D02*
X103109D01*
X102110Y-60568D01*
Y-64567D01*
X103109Y-65567D01*
X105109D01*
X106108Y-64567D01*
Y-60568D01*
X105109Y-59569D01*
X108108Y-65567D02*
Y-59569D01*
X110107Y-61568D01*
X112106Y-59569D01*
Y-65567D01*
X120104Y-59569D02*
X124102D01*
X122103D01*
Y-65567D01*
X129101Y-59569D02*
X127102D01*
X126102Y-60568D01*
Y-64567D01*
X127102Y-65567D01*
X129101D01*
X130101Y-64567D01*
Y-60568D01*
X129101Y-59569D01*
X132100Y-65567D02*
Y-59569D01*
X135099D01*
X136099Y-60568D01*
Y-62568D01*
X135099Y-63567D01*
X132100D01*
X148095Y-60568D02*
X147095Y-59569D01*
X145096D01*
X144096Y-60568D01*
Y-61568D01*
X145096Y-62568D01*
X147095D01*
X148095Y-63567D01*
Y-64567D01*
X147095Y-65567D01*
X145096D01*
X144096Y-64567D01*
X150094Y-59569D02*
X152093D01*
X151094D01*
Y-65567D01*
X150094D01*
X152093D01*
X155092Y-59569D02*
Y-65567D01*
X158091D01*
X159091Y-64567D01*
Y-60568D01*
X158091Y-59569D01*
X155092D01*
X165089D02*
X161091D01*
Y-65567D01*
X165089D01*
X161091Y-62568D02*
X163090D01*
X272000Y-61002D02*
X275332D01*
X273666D01*
Y-66000D01*
X276998Y-61002D02*
X278664D01*
X277831D01*
Y-66000D01*
X276998D01*
X278664D01*
X281164Y-61002D02*
Y-66000D01*
X283663D01*
X284496Y-65167D01*
Y-61835D01*
X283663Y-61002D01*
X281164D01*
X286162Y-66000D02*
Y-62668D01*
X287828Y-61002D01*
X289494Y-62668D01*
Y-66000D01*
Y-63501D01*
X286162D01*
X291160D02*
X294493D01*
X296159Y-61835D02*
X296992Y-61002D01*
X298658D01*
X299491Y-61835D01*
Y-65167D01*
X298658Y-66000D01*
X296992D01*
X296159Y-65167D01*
Y-61835D01*
X301157Y-66000D02*
X302823D01*
X301990D01*
Y-61002D01*
X301157Y-61835D01*
X308655Y-61002D02*
X305323D01*
Y-63501D01*
X306989Y-62668D01*
X307822D01*
X308655Y-63501D01*
Y-65167D01*
X307822Y-66000D01*
X306156D01*
X305323Y-65167D01*
X310321Y-61002D02*
X313653D01*
Y-61835D01*
X310321Y-65167D01*
Y-66000D01*
X318652Y-61002D02*
X316985Y-61835D01*
X315319Y-63501D01*
Y-65167D01*
X316152Y-66000D01*
X317818D01*
X318652Y-65167D01*
Y-64334D01*
X317818Y-63501D01*
X315319D01*
X320318Y-66833D02*
X323650D01*
X325316Y-61002D02*
Y-66000D01*
X327815D01*
X328648Y-65167D01*
Y-61835D01*
X327815Y-61002D01*
X325316D01*
X330314D02*
Y-65167D01*
X331148Y-66000D01*
X332814D01*
X333647Y-65167D01*
Y-61002D01*
X335313Y-66000D02*
Y-62668D01*
X336979Y-61002D01*
X338645Y-62668D01*
Y-66000D01*
Y-63501D01*
X335313D01*
X340311Y-61002D02*
Y-66000D01*
X343643D01*
X345310Y-66833D02*
X348642D01*
X353640Y-61835D02*
X352807Y-61002D01*
X351141D01*
X350308Y-61835D01*
Y-62668D01*
X351141Y-63501D01*
X352807D01*
X353640Y-64334D01*
Y-65167D01*
X352807Y-66000D01*
X351141D01*
X350308Y-65167D01*
X355306Y-61002D02*
Y-66000D01*
X357805D01*
X358639Y-65167D01*
Y-61835D01*
X357805Y-61002D01*
X355306D01*
X362804D02*
X361138D01*
X360305Y-61835D01*
Y-65167D01*
X361138Y-66000D01*
X362804D01*
X363637Y-65167D01*
Y-61835D01*
X362804Y-61002D01*
X224800Y-59569D02*
Y-65567D01*
X227799D01*
X228799Y-64567D01*
Y-63567D01*
X227799Y-62568D01*
X224800D01*
X227799D01*
X228799Y-61568D01*
Y-60568D01*
X227799Y-59569D01*
X224800D01*
X233797D02*
X231798D01*
X230798Y-60568D01*
Y-64567D01*
X231798Y-65567D01*
X233797D01*
X234797Y-64567D01*
Y-60568D01*
X233797Y-59569D01*
X236796Y-65567D02*
Y-61568D01*
X238795Y-59569D01*
X240795Y-61568D01*
Y-65567D01*
Y-62568D01*
X236796D01*
X242794Y-65567D02*
Y-59569D01*
X245793D01*
X246793Y-60568D01*
Y-62568D01*
X245793Y-63567D01*
X242794D01*
X244794D02*
X246793Y-65567D01*
X248792Y-59569D02*
Y-65567D01*
X251791D01*
X252791Y-64567D01*
Y-60568D01*
X251791Y-59569D01*
X248792D01*
X261788Y-65567D02*
Y-59569D01*
X263787D02*
Y-65567D01*
X260788Y-61568D02*
X263787D01*
X264787D01*
X260788Y-63567D02*
X264787D01*
X266786Y-61568D02*
X267786D01*
Y-62568D01*
X266786D01*
Y-61568D01*
Y-64567D02*
X267786D01*
Y-65567D01*
X266786D01*
Y-64567D01*
X-22850Y-79851D02*
Y-85849D01*
X-18851D01*
X-16852D02*
Y-81851D01*
X-14853Y-79851D01*
X-12853Y-81851D01*
Y-85849D01*
Y-82850D01*
X-16852D01*
X-10854Y-79851D02*
Y-80851D01*
X-8855Y-82850D01*
X-6855Y-80851D01*
Y-79851D01*
X-8855Y-82850D02*
Y-85849D01*
X-857Y-79851D02*
X-4856D01*
Y-85849D01*
X-857D01*
X-4856Y-82850D02*
X-2857D01*
X1142Y-85849D02*
Y-79851D01*
X4141D01*
X5141Y-80851D01*
Y-82850D01*
X4141Y-83850D01*
X1142D01*
X3142D02*
X5141Y-85849D01*
X13138D02*
Y-79851D01*
X17137Y-85849D01*
Y-79851D01*
X19136Y-85849D02*
Y-81851D01*
X21136Y-79851D01*
X23135Y-81851D01*
Y-85849D01*
Y-82850D01*
X19136D01*
X25135Y-85849D02*
Y-79851D01*
X27134Y-81851D01*
X29133Y-79851D01*
Y-85849D01*
X35131Y-79851D02*
X31133D01*
Y-85849D01*
X35131D01*
X31133Y-82850D02*
X33132D01*
X43129Y-83850D02*
X47127D01*
X43129Y-81851D02*
X47127D01*
X-22850Y-106433D02*
Y-100435D01*
X-19851D01*
X-18851Y-101435D01*
Y-103435D01*
X-19851Y-104434D01*
X-22850D01*
X-16852Y-100435D02*
Y-106433D01*
X-12853D01*
X-7855Y-100435D02*
X-9854D01*
X-10854Y-101435D01*
Y-105434D01*
X-9854Y-106433D01*
X-7855D01*
X-6855Y-105434D01*
Y-101435D01*
X-7855Y-100435D01*
X-4856D02*
X-857D01*
X-2857D01*
Y-106433D01*
X7140D02*
Y-100435D01*
X11139Y-106433D01*
Y-100435D01*
X13138Y-106433D02*
Y-102435D01*
X15138Y-100435D01*
X17137Y-102435D01*
Y-106433D01*
Y-103435D01*
X13138D01*
X19136Y-106433D02*
Y-100435D01*
X21136Y-102435D01*
X23135Y-100435D01*
Y-106433D01*
X29133Y-100435D02*
X25135D01*
Y-106433D01*
X29133D01*
X25135Y-103435D02*
X27134D01*
X37131Y-104434D02*
X41129D01*
X37131Y-102435D02*
X41129D01*
X384850Y-101435D02*
X385850Y-100435D01*
X387849D01*
X388849Y-101435D01*
Y-102435D01*
X387849Y-103435D01*
X386849D01*
X387849D01*
X388849Y-104434D01*
Y-105434D01*
X387849Y-106433D01*
X385850D01*
X384850Y-105434D01*
X390848Y-102435D02*
X391848D01*
Y-103435D01*
X390848D01*
Y-102435D01*
Y-105434D02*
X391848D01*
Y-106433D01*
X390848D01*
Y-105434D01*
X399845Y-100435D02*
X395846D01*
Y-103435D01*
X397846Y-102435D01*
X398846D01*
X399845Y-103435D01*
Y-105434D01*
X398846Y-106433D01*
X396846D01*
X395846Y-105434D01*
X404844Y-106433D02*
Y-100435D01*
X401845Y-103435D01*
X405843D01*
X407843Y-102435D02*
X408842D01*
Y-103435D01*
X407843D01*
Y-102435D01*
Y-105434D02*
X408842D01*
Y-106433D01*
X407843D01*
Y-105434D01*
X412841Y-101435D02*
X413841Y-100435D01*
X415840D01*
X416840Y-101435D01*
Y-102435D01*
X415840Y-103435D01*
X414840D01*
X415840D01*
X416840Y-104434D01*
Y-105434D01*
X415840Y-106433D01*
X413841D01*
X412841Y-105434D01*
X418839Y-106433D02*
X420838D01*
X419839D01*
Y-100435D01*
X418839Y-101435D01*
X429835Y-106433D02*
Y-100435D01*
X432834D01*
X433834Y-101435D01*
Y-103435D01*
X432834Y-104434D01*
X429835D01*
X435834Y-106433D02*
Y-100435D01*
X437833Y-102435D01*
X439832Y-100435D01*
Y-106433D01*
X511300Y-100435D02*
X515299D01*
X513299D01*
Y-106433D01*
X521297Y-100435D02*
X517298D01*
Y-106433D01*
X521297D01*
X517298Y-103435D02*
X519297D01*
X523296Y-100435D02*
X527295Y-106433D01*
Y-100435D02*
X523296Y-106433D01*
X529294D02*
Y-102435D01*
X531293Y-100435D01*
X533293Y-102435D01*
Y-106433D01*
Y-103435D01*
X529294D01*
X539291Y-101435D02*
X538291Y-100435D01*
X536292D01*
X535292Y-101435D01*
Y-102435D01*
X536292Y-103435D01*
X538291D01*
X539291Y-104434D01*
Y-105434D01*
X538291Y-106433D01*
X536292D01*
X535292Y-105434D01*
X547288Y-100435D02*
X549288D01*
X548288D01*
Y-106433D01*
X547288D01*
X549288D01*
X552287D02*
Y-100435D01*
X556285Y-106433D01*
Y-100435D01*
X562284Y-101435D02*
X561284Y-100435D01*
X559284D01*
X558285Y-101435D01*
Y-102435D01*
X559284Y-103435D01*
X561284D01*
X562284Y-104434D01*
Y-105434D01*
X561284Y-106433D01*
X559284D01*
X558285Y-105434D01*
X564283Y-100435D02*
X568282D01*
X566282D01*
Y-106433D01*
X570281D02*
Y-100435D01*
X573280D01*
X574280Y-101435D01*
Y-103435D01*
X573280Y-104434D01*
X570281D01*
X572280D02*
X574280Y-106433D01*
X576279Y-100435D02*
Y-105434D01*
X577279Y-106433D01*
X579278D01*
X580278Y-105434D01*
Y-100435D01*
X582277Y-106433D02*
Y-100435D01*
X584276Y-102435D01*
X586276Y-100435D01*
Y-106433D01*
X592274Y-100435D02*
X588275D01*
Y-106433D01*
X592274D01*
X588275Y-103435D02*
X590274D01*
X594273Y-106433D02*
Y-100435D01*
X598272Y-106433D01*
Y-100435D01*
X600271D02*
X604270D01*
X602271D01*
Y-106433D01*
X610268Y-101435D02*
X609268Y-100435D01*
X607269D01*
X606269Y-101435D01*
Y-102435D01*
X607269Y-103435D01*
X609268D01*
X610268Y-104434D01*
Y-105434D01*
X609268Y-106433D01*
X607269D01*
X606269Y-105434D01*
G54D57*
X205400Y270600D02*
G03*
X207900Y273100I0J2500D01*
G01*
Y333100D02*
G03*
X205400Y335600I-2500J0D01*
G01*
X190400D02*
G03*
X187900Y333100I0J-2500D01*
G01*
Y273100D02*
G03*
X190400Y270600I2500J0D01*
G01*
X205400D01*
X207900Y273100D02*
Y333100D01*
X190400Y335600D02*
X205400D01*
X187900Y273100D02*
Y333100D01*
X141732Y158350D02*
Y164650D01*
X147268Y158350D02*
Y164650D01*
X117850Y265231D02*
X124150D01*
X117850Y270768D02*
X124150D01*
X138000Y105500D02*
X142000D01*
X140000Y103500D02*
Y107500D01*
X151500Y145500D02*
X155500D01*
X153500Y143500D02*
Y147500D01*
X139000Y152500D02*
X143000D01*
X141000Y150500D02*
Y154500D01*
X146000Y108000D02*
Y112000D01*
X144000Y110000D02*
X148000D01*
X147900Y261000D02*
X151900D01*
X149900Y259000D02*
Y263000D01*
X135500Y259100D02*
Y263100D01*
X133400Y261500D02*
X137400D01*
X128433Y222311D02*
Y226311D01*
X126433Y224311D02*
X130433D01*
X140433Y216811D02*
X144433D01*
X142433Y214811D02*
Y218811D01*
X139500Y116500D02*
Y120500D01*
X137500Y118500D02*
X141500D01*
X126100Y210900D02*
X130100D01*
X128100Y208900D02*
Y212900D01*
X156400Y259200D02*
X160400D01*
X158000Y257000D02*
Y261000D01*
X183100Y140300D02*
Y143799D01*
X181351D01*
X180767Y143216D01*
Y142049D01*
X181351Y141466D01*
X183100D01*
X181934D02*
X180767Y140300D01*
X179601D02*
X178435D01*
X179018D01*
Y143799D01*
X179601Y143216D01*
X174936Y140300D02*
Y143799D01*
X176685Y142049D01*
X174353D01*
X173187Y143216D02*
X172603Y143799D01*
X171437D01*
X170854Y143216D01*
Y140883D01*
X171437Y140300D01*
X172603D01*
X173187Y140883D01*
Y143216D01*
X102167Y208516D02*
X102751Y209099D01*
X103917D01*
X104500Y208516D01*
Y206183D01*
X103917Y205600D01*
X102751D01*
X102167Y206183D01*
X98669Y209099D02*
X101001D01*
Y207349D01*
X99835Y207933D01*
X99252D01*
X98669Y207349D01*
Y206183D01*
X99252Y205600D01*
X100418D01*
X101001Y206183D01*
X97502Y208516D02*
X96919Y209099D01*
X95753D01*
X95170Y208516D01*
Y206183D01*
X95753Y205600D01*
X96919D01*
X97502Y206183D01*
Y208516D01*
X113067Y116616D02*
X113651Y117199D01*
X114817D01*
X115400Y116616D01*
Y114283D01*
X114817Y113700D01*
X113651D01*
X113067Y114283D01*
X109569Y117199D02*
X111901D01*
Y115449D01*
X110735Y116033D01*
X110152D01*
X109569Y115449D01*
Y114283D01*
X110152Y113700D01*
X111318D01*
X111901Y114283D01*
X108402Y116616D02*
X107819Y117199D01*
X106653D01*
X106070Y116616D01*
Y116033D01*
X106653Y115449D01*
X106070Y114866D01*
Y114283D01*
X106653Y113700D01*
X107819D01*
X108402Y114283D01*
Y114866D01*
X107819Y115449D01*
X108402Y116033D01*
Y116616D01*
X107819Y115449D02*
X106653D01*
X212699Y306700D02*
X209200D01*
Y309033D01*
X212699Y310199D02*
X209200D01*
Y311948D01*
X209783Y312531D01*
X210366D01*
X210949Y311948D01*
Y310199D01*
Y311948D01*
X211533Y312531D01*
X212116D01*
X212699Y311948D01*
Y310199D01*
Y313698D02*
X209200D01*
Y316030D01*
Y317197D02*
Y318363D01*
Y317780D01*
X212699D01*
X212116Y317197D01*
X40800Y233600D02*
Y237099D01*
X39051D01*
X38467Y236516D01*
Y235349D01*
X39051Y234766D01*
X40800D01*
X39634D02*
X38467Y233600D01*
X37301D02*
X36135D01*
X36718D01*
Y237099D01*
X37301Y236516D01*
X32053Y233600D02*
X34385D01*
X32053Y235933D01*
Y236516D01*
X32636Y237099D01*
X33802D01*
X34385Y236516D01*
X30887Y234183D02*
X30303Y233600D01*
X29137D01*
X28554Y234183D01*
Y236516D01*
X29137Y237099D01*
X30303D01*
X30887Y236516D01*
Y235933D01*
X30303Y235349D01*
X28554D01*
X71400Y320700D02*
Y324199D01*
X69651D01*
X69067Y323616D01*
Y322449D01*
X69651Y321866D01*
X71400D01*
X70234D02*
X69067Y320700D01*
X67901D02*
X66735D01*
X67318D01*
Y324199D01*
X67901Y323616D01*
X64985Y320700D02*
X63819D01*
X64402D01*
Y324199D01*
X64985Y323616D01*
X62070D02*
X61487Y324199D01*
X60320D01*
X59737Y323616D01*
Y323033D01*
X60320Y322449D01*
X59737Y321866D01*
Y321283D01*
X60320Y320700D01*
X61487D01*
X62070Y321283D01*
Y321866D01*
X61487Y322449D01*
X62070Y323033D01*
Y323616D01*
X61487Y322449D02*
X60320D01*
X143700Y322400D02*
Y325899D01*
X141951D01*
X141367Y325316D01*
Y324149D01*
X141951Y323566D01*
X143700D01*
X142534D02*
X141367Y322400D01*
X140201D02*
X139035D01*
X139618D01*
Y325899D01*
X140201Y325316D01*
X137285Y322400D02*
X136119D01*
X136702D01*
Y325899D01*
X137285Y325316D01*
X132037Y325899D02*
X133203Y325316D01*
X134370Y324149D01*
Y322983D01*
X133787Y322400D01*
X132620D01*
X132037Y322983D01*
Y323566D01*
X132620Y324149D01*
X134370D01*
X43900Y200500D02*
Y203999D01*
X42151D01*
X41567Y203416D01*
Y202249D01*
X42151Y201666D01*
X43900D01*
X42734D02*
X41567Y200500D01*
X40401D02*
X39235D01*
X39818D01*
Y203999D01*
X40401Y203416D01*
X37485D02*
X36902Y203999D01*
X35736D01*
X35153Y203416D01*
Y202833D01*
X35736Y202249D01*
X36319D01*
X35736D01*
X35153Y201666D01*
Y201083D01*
X35736Y200500D01*
X36902D01*
X37485Y201083D01*
X33986Y203416D02*
X33403Y203999D01*
X32237D01*
X31654Y203416D01*
Y201083D01*
X32237Y200500D01*
X33403D01*
X33986Y201083D01*
Y203416D01*
X45000Y303000D02*
Y306499D01*
X43251D01*
X42667Y305916D01*
Y304749D01*
X43251Y304166D01*
X45000D01*
X43834D02*
X42667Y303000D01*
X41501D02*
X40335D01*
X40918D01*
Y306499D01*
X41501Y305916D01*
X36253Y303000D02*
X38585D01*
X36253Y305333D01*
Y305916D01*
X36836Y306499D01*
X38002D01*
X38585Y305916D01*
X35087D02*
X34503Y306499D01*
X33337D01*
X32754Y305916D01*
Y303583D01*
X33337Y303000D01*
X34503D01*
X35087Y303583D01*
Y305916D01*
X110000Y319600D02*
Y323099D01*
X108251D01*
X107667Y322516D01*
Y321349D01*
X108251Y320766D01*
X110000D01*
X108834D02*
X107667Y319600D01*
X106501D02*
X105335D01*
X105918D01*
Y323099D01*
X106501Y322516D01*
X103585Y319600D02*
X102419D01*
X103002D01*
Y323099D01*
X103585Y322516D01*
X100670Y320183D02*
X100086Y319600D01*
X98920D01*
X98337Y320183D01*
Y322516D01*
X98920Y323099D01*
X100086D01*
X100670Y322516D01*
Y321933D01*
X100086Y321349D01*
X98337D01*
X43400Y269300D02*
Y272799D01*
X41651D01*
X41067Y272216D01*
Y271049D01*
X41651Y270466D01*
X43400D01*
X42234D02*
X41067Y269300D01*
X39901D02*
X38735D01*
X39318D01*
Y272799D01*
X39901Y272216D01*
X34653Y269300D02*
X36985D01*
X34653Y271633D01*
Y272216D01*
X35236Y272799D01*
X36402D01*
X36985Y272216D01*
X33487Y269300D02*
X32320D01*
X32903D01*
Y272799D01*
X33487Y272216D01*
X202400Y94000D02*
Y97499D01*
X200651D01*
X200067Y96916D01*
Y95749D01*
X200651Y95166D01*
X202400D01*
X201234D02*
X200067Y94000D01*
X198901D02*
X197735D01*
X198318D01*
Y97499D01*
X198901Y96916D01*
X194236Y94000D02*
Y97499D01*
X195985Y95749D01*
X193653D01*
X190154Y97499D02*
X192487D01*
Y95749D01*
X191320Y96333D01*
X190737D01*
X190154Y95749D01*
Y94583D01*
X190737Y94000D01*
X191903D01*
X192487Y94583D01*
X179500Y322700D02*
Y326199D01*
X177751D01*
X177167Y325616D01*
Y324449D01*
X177751Y323866D01*
X179500D01*
X178334D02*
X177167Y322700D01*
X176001D02*
X174835D01*
X175418D01*
Y326199D01*
X176001Y325616D01*
X173085Y322700D02*
X171919D01*
X172502D01*
Y326199D01*
X173085Y325616D01*
X170170Y326199D02*
X167837D01*
Y325616D01*
X170170Y323283D01*
Y322700D01*
X215600Y142100D02*
Y145599D01*
X213851D01*
X213267Y145016D01*
Y143849D01*
X213851Y143266D01*
X215600D01*
X214434D02*
X213267Y142100D01*
X212101D02*
X210935D01*
X211518D01*
Y145599D01*
X212101Y145016D01*
X209185D02*
X208602Y145599D01*
X207436D01*
X206853Y145016D01*
Y144433D01*
X207436Y143849D01*
X208019D01*
X207436D01*
X206853Y143266D01*
Y142683D01*
X207436Y142100D01*
X208602D01*
X209185Y142683D01*
X205686Y145016D02*
X205103Y145599D01*
X203937D01*
X203354Y145016D01*
Y144433D01*
X203937Y143849D01*
X203354Y143266D01*
Y142683D01*
X203937Y142100D01*
X205103D01*
X205686Y142683D01*
Y143266D01*
X205103Y143849D01*
X205686Y144433D01*
Y145016D01*
X205103Y143849D02*
X203937D01*
X175800Y162500D02*
Y165999D01*
X174051D01*
X173467Y165416D01*
Y164249D01*
X174051Y163666D01*
X175800D01*
X174634D02*
X173467Y162500D01*
X172301D02*
X171135D01*
X171718D01*
Y165999D01*
X172301Y165416D01*
X169385D02*
X168802Y165999D01*
X167636D01*
X167053Y165416D01*
Y164833D01*
X167636Y164249D01*
X168219D01*
X167636D01*
X167053Y163666D01*
Y163083D01*
X167636Y162500D01*
X168802D01*
X169385Y163083D01*
X165886Y162500D02*
X164720D01*
X165303D01*
Y165999D01*
X165886Y165416D01*
X191000Y260500D02*
Y263999D01*
X189251D01*
X188667Y263416D01*
Y262249D01*
X189251Y261666D01*
X191000D01*
X189834D02*
X188667Y260500D01*
X187501D02*
X186335D01*
X186918D01*
Y263999D01*
X187501Y263416D01*
X182253Y260500D02*
X184585D01*
X182253Y262833D01*
Y263416D01*
X182836Y263999D01*
X184002D01*
X184585Y263416D01*
X181087Y263999D02*
X178754D01*
Y263416D01*
X181087Y261083D01*
Y260500D01*
X32167Y150216D02*
X32751Y150799D01*
X33917D01*
X34500Y150216D01*
Y147883D01*
X33917Y147300D01*
X32751D01*
X32167Y147883D01*
X28668Y150799D02*
X31001D01*
Y149049D01*
X29835Y149633D01*
X29252D01*
X28668Y149049D01*
Y147883D01*
X29252Y147300D01*
X30418D01*
X31001Y147883D01*
X27502Y150216D02*
X26919Y150799D01*
X25753D01*
X25170Y150216D01*
Y149633D01*
X25753Y149049D01*
X26336D01*
X25753D01*
X25170Y148466D01*
Y147883D01*
X25753Y147300D01*
X26919D01*
X27502Y147883D01*
X28767Y182816D02*
X29351Y183399D01*
X30517D01*
X31100Y182816D01*
Y180483D01*
X30517Y179900D01*
X29351D01*
X28767Y180483D01*
X25269Y183399D02*
X27601D01*
Y181649D01*
X26435Y182233D01*
X25852D01*
X25269Y181649D01*
Y180483D01*
X25852Y179900D01*
X27018D01*
X27601Y180483D01*
X24102Y179900D02*
X22936D01*
X23519D01*
Y183399D01*
X24102Y182816D01*
X101167Y26816D02*
X101751Y27399D01*
X102917D01*
X103500Y26816D01*
Y24483D01*
X102917Y23900D01*
X101751D01*
X101167Y24483D01*
X97669Y27399D02*
X98835Y26816D01*
X100001Y25649D01*
Y24483D01*
X99418Y23900D01*
X98252D01*
X97669Y24483D01*
Y25066D01*
X98252Y25649D01*
X100001D01*
X96502Y26816D02*
X95919Y27399D01*
X94753D01*
X94170Y26816D01*
Y26233D01*
X94753Y25649D01*
X95336D01*
X94753D01*
X94170Y25066D01*
Y24483D01*
X94753Y23900D01*
X95919D01*
X96502Y24483D01*
X68367Y26616D02*
X68951Y27199D01*
X70117D01*
X70700Y26616D01*
Y24283D01*
X70117Y23700D01*
X68951D01*
X68367Y24283D01*
X64869Y27199D02*
X66035Y26616D01*
X67201Y25449D01*
Y24283D01*
X66618Y23700D01*
X65452D01*
X64869Y24283D01*
Y24866D01*
X65452Y25449D01*
X67201D01*
X61370Y23700D02*
X63702D01*
X61370Y26033D01*
Y26616D01*
X61953Y27199D01*
X63119D01*
X63702Y26616D01*
X164267Y26216D02*
X164851Y26799D01*
X166017D01*
X166600Y26216D01*
Y23883D01*
X166017Y23300D01*
X164851D01*
X164267Y23883D01*
X160769Y26799D02*
X161935Y26216D01*
X163101Y25049D01*
Y23883D01*
X162518Y23300D01*
X161352D01*
X160769Y23883D01*
Y24466D01*
X161352Y25049D01*
X163101D01*
X157270Y26799D02*
X159602D01*
Y25049D01*
X158436Y25633D01*
X157853D01*
X157270Y25049D01*
Y23883D01*
X157853Y23300D01*
X159019D01*
X159602Y23883D01*
X130867Y26616D02*
X131451Y27199D01*
X132617D01*
X133200Y26616D01*
Y24283D01*
X132617Y23700D01*
X131451D01*
X130867Y24283D01*
X127369Y27199D02*
X128535Y26616D01*
X129701Y25449D01*
Y24283D01*
X129118Y23700D01*
X127952D01*
X127369Y24283D01*
Y24866D01*
X127952Y25449D01*
X129701D01*
X124453Y23700D02*
Y27199D01*
X126202Y25449D01*
X123870D01*
X29367Y82816D02*
X29951Y83399D01*
X31117D01*
X31700Y82816D01*
Y80483D01*
X31117Y79900D01*
X29951D01*
X29367Y80483D01*
X25868Y83399D02*
X27035Y82816D01*
X28201Y81649D01*
Y80483D01*
X27618Y79900D01*
X26452D01*
X25868Y80483D01*
Y81066D01*
X26452Y81649D01*
X28201D01*
X24702Y79900D02*
X23536D01*
X24119D01*
Y83399D01*
X24702Y82816D01*
X30667Y117916D02*
X31251Y118499D01*
X32417D01*
X33000Y117916D01*
Y115583D01*
X32417Y115000D01*
X31251D01*
X30667Y115583D01*
X27169Y118499D02*
X29501D01*
Y116749D01*
X28335Y117333D01*
X27752D01*
X27169Y116749D01*
Y115583D01*
X27752Y115000D01*
X28918D01*
X29501Y115583D01*
X26002Y118499D02*
X23670D01*
Y117916D01*
X26002Y115583D01*
Y115000D01*
X94200Y251700D02*
Y255199D01*
X92451D01*
X91867Y254616D01*
Y253449D01*
X92451Y252866D01*
X94200D01*
X93034D02*
X91867Y251700D01*
X90701D02*
X89535D01*
X90118D01*
Y255199D01*
X90701Y254616D01*
X85453Y251700D02*
X87785D01*
X85453Y254033D01*
Y254616D01*
X86036Y255199D01*
X87202D01*
X87785Y254616D01*
X82537Y251700D02*
Y255199D01*
X84286Y253449D01*
X81954D01*
X122600Y245200D02*
Y248699D01*
X120851D01*
X120267Y248116D01*
Y246949D01*
X120851Y246366D01*
X122600D01*
X121434D02*
X120267Y245200D01*
X119101D02*
X117935D01*
X118518D01*
Y248699D01*
X119101Y248116D01*
X113853Y245200D02*
X116185D01*
X113853Y247533D01*
Y248116D01*
X114436Y248699D01*
X115602D01*
X116185Y248116D01*
X110354Y248699D02*
X112687D01*
Y246949D01*
X111520Y247533D01*
X110937D01*
X110354Y246949D01*
Y245783D01*
X110937Y245200D01*
X112103D01*
X112687Y245783D01*
X94500Y258300D02*
Y261799D01*
X92751D01*
X92167Y261216D01*
Y260049D01*
X92751Y259466D01*
X94500D01*
X93334D02*
X92167Y258300D01*
X91001D02*
X89835D01*
X90418D01*
Y261799D01*
X91001Y261216D01*
X85753Y258300D02*
X88085D01*
X85753Y260633D01*
Y261216D01*
X86336Y261799D01*
X87502D01*
X88085Y261216D01*
X84587D02*
X84003Y261799D01*
X82837D01*
X82254Y261216D01*
Y260633D01*
X82837Y260049D01*
X83420D01*
X82837D01*
X82254Y259466D01*
Y258883D01*
X82837Y258300D01*
X84003D01*
X84587Y258883D01*
X110400Y263700D02*
X113899D01*
Y265449D01*
X113316Y266033D01*
X112149D01*
X111566Y265449D01*
Y263700D01*
Y264866D02*
X110400Y266033D01*
Y267199D02*
Y268365D01*
Y267782D01*
X113899D01*
X113316Y267199D01*
X110400Y272447D02*
Y270115D01*
X112733Y272447D01*
X113316D01*
X113899Y271864D01*
Y270698D01*
X113316Y270115D01*
X110400Y275946D02*
Y273614D01*
X112733Y275946D01*
X113316D01*
X113899Y275363D01*
Y274197D01*
X113316Y273614D01*
X151600Y232200D02*
X155099D01*
Y233949D01*
X154516Y234533D01*
X153349D01*
X152766Y233949D01*
Y232200D01*
Y233366D02*
X151600Y234533D01*
Y235699D02*
Y236865D01*
Y236282D01*
X155099D01*
X154516Y235699D01*
X151600Y240947D02*
Y238615D01*
X153933Y240947D01*
X154516D01*
X155099Y240364D01*
Y239198D01*
X154516Y238615D01*
X155099Y244446D02*
X154516Y243280D01*
X153349Y242113D01*
X152183D01*
X151600Y242697D01*
Y243863D01*
X152183Y244446D01*
X152766D01*
X153349Y243863D01*
Y242113D01*
X170900Y232700D02*
X174399D01*
Y234449D01*
X173816Y235033D01*
X172649D01*
X172066Y234449D01*
Y232700D01*
Y233866D02*
X170900Y235033D01*
Y236199D02*
Y237365D01*
Y236782D01*
X174399D01*
X173816Y236199D01*
X170900Y241447D02*
Y239115D01*
X173233Y241447D01*
X173816D01*
X174399Y240864D01*
Y239698D01*
X173816Y239115D01*
Y242614D02*
X174399Y243197D01*
Y244363D01*
X173816Y244946D01*
X173233D01*
X172649Y244363D01*
X172066Y244946D01*
X171483D01*
X170900Y244363D01*
Y243197D01*
X171483Y242614D01*
X172066D01*
X172649Y243197D01*
X173233Y242614D01*
X173816D01*
X172649Y243197D02*
Y244363D01*
X122967Y276099D02*
X125300D01*
Y274349D01*
X124134D01*
X125300D01*
Y272600D01*
X121801Y276099D02*
Y272600D01*
X120052D01*
X119469Y273183D01*
Y273766D01*
X120052Y274349D01*
X121801D01*
X120052D01*
X119469Y274933D01*
Y275516D01*
X120052Y276099D01*
X121801D01*
X118302Y275516D02*
X117719Y276099D01*
X116553D01*
X115970Y275516D01*
Y274933D01*
X116553Y274349D01*
X117136D01*
X116553D01*
X115970Y273766D01*
Y273183D01*
X116553Y272600D01*
X117719D01*
X118302Y273183D01*
X154967Y211916D02*
X155551Y212499D01*
X156717D01*
X157300Y211916D01*
Y209583D01*
X156717Y209000D01*
X155551D01*
X154967Y209583D01*
X152052Y209000D02*
Y212499D01*
X153801Y210749D01*
X151469D01*
X150302Y209583D02*
X149719Y209000D01*
X148553D01*
X147970Y209583D01*
Y211916D01*
X148553Y212499D01*
X149719D01*
X150302Y211916D01*
Y211333D01*
X149719Y210749D01*
X147970D01*
X102167Y221616D02*
X102751Y222199D01*
X103917D01*
X104500Y221616D01*
Y219283D01*
X103917Y218700D01*
X102751D01*
X102167Y219283D01*
X99252Y218700D02*
Y222199D01*
X101001Y220449D01*
X98669D01*
X97502Y221616D02*
X96919Y222199D01*
X95753D01*
X95170Y221616D01*
Y221033D01*
X95753Y220449D01*
X95170Y219866D01*
Y219283D01*
X95753Y218700D01*
X96919D01*
X97502Y219283D01*
Y219866D01*
X96919Y220449D01*
X97502Y221033D01*
Y221616D01*
X96919Y220449D02*
X95753D01*
X135767Y287216D02*
X136351Y287799D01*
X137517D01*
X138100Y287216D01*
Y284883D01*
X137517Y284300D01*
X136351D01*
X135767Y284883D01*
X132852Y284300D02*
Y287799D01*
X134601Y286049D01*
X132269D01*
X131102Y284300D02*
X129936D01*
X130519D01*
Y287799D01*
X131102Y287216D01*
X129716Y241133D02*
X130299Y240549D01*
Y239383D01*
X129716Y238800D01*
X127383D01*
X126800Y239383D01*
Y240549D01*
X127383Y241133D01*
X126800Y244048D02*
X130299D01*
X128549Y242299D01*
Y244631D01*
X130299Y248130D02*
Y245798D01*
X128549D01*
X129133Y246964D01*
Y247547D01*
X128549Y248130D01*
X127383D01*
X126800Y247547D01*
Y246381D01*
X127383Y245798D01*
X145816Y280833D02*
X146399Y280249D01*
Y279083D01*
X145816Y278500D01*
X143483D01*
X142900Y279083D01*
Y280249D01*
X143483Y280833D01*
X142900Y283748D02*
X146399D01*
X144649Y281999D01*
Y284331D01*
X145816Y285498D02*
X146399Y286081D01*
Y287247D01*
X145816Y287830D01*
X145233D01*
X144649Y287247D01*
Y286664D01*
Y287247D01*
X144066Y287830D01*
X143483D01*
X142900Y287247D01*
Y286081D01*
X143483Y285498D01*
X158216Y286433D02*
X158799Y285849D01*
Y284683D01*
X158216Y284100D01*
X155883D01*
X155300Y284683D01*
Y285849D01*
X155883Y286433D01*
X155300Y289348D02*
X158799D01*
X157049Y287599D01*
Y289931D01*
X155300Y293430D02*
Y291098D01*
X157633Y293430D01*
X158216D01*
X158799Y292847D01*
Y291681D01*
X158216Y291098D01*
X88767Y346816D02*
X89351Y347399D01*
X90517D01*
X91100Y346816D01*
Y344483D01*
X90517Y343900D01*
X89351D01*
X88767Y344483D01*
X87601Y346816D02*
X87018Y347399D01*
X85852D01*
X85269Y346816D01*
Y346233D01*
X85852Y345649D01*
X86435D01*
X85852D01*
X85269Y345066D01*
Y344483D01*
X85852Y343900D01*
X87018D01*
X87601Y344483D01*
X81770Y347399D02*
X84102D01*
Y345649D01*
X82936Y346233D01*
X82353D01*
X81770Y345649D01*
Y344483D01*
X82353Y343900D01*
X83519D01*
X84102Y344483D01*
X101000Y146300D02*
Y149799D01*
X99251D01*
X98667Y149216D01*
Y148049D01*
X99251Y147466D01*
X101000D01*
X99834D02*
X98667Y146300D01*
X97501D02*
X96335D01*
X96918D01*
Y149799D01*
X97501Y149216D01*
X94585D02*
X94002Y149799D01*
X92836D01*
X92253Y149216D01*
Y148633D01*
X92836Y148049D01*
X93419D01*
X92836D01*
X92253Y147466D01*
Y146883D01*
X92836Y146300D01*
X94002D01*
X94585Y146883D01*
X88754Y149799D02*
X91087D01*
Y148049D01*
X89920Y148633D01*
X89337D01*
X88754Y148049D01*
Y146883D01*
X89337Y146300D01*
X90503D01*
X91087Y146883D01*
X182300Y117800D02*
Y121299D01*
X180551D01*
X179967Y120716D01*
Y119549D01*
X180551Y118966D01*
X182300D01*
X181134D02*
X179967Y117800D01*
X178801D02*
X177635D01*
X178218D01*
Y121299D01*
X178801Y120716D01*
X174136Y117800D02*
Y121299D01*
X175885Y119549D01*
X173553D01*
X172387Y120716D02*
X171803Y121299D01*
X170637D01*
X170054Y120716D01*
Y120133D01*
X170637Y119549D01*
X171220D01*
X170637D01*
X170054Y118966D01*
Y118383D01*
X170637Y117800D01*
X171803D01*
X172387Y118383D01*
X168500Y127600D02*
Y131099D01*
X166751D01*
X166167Y130516D01*
Y129349D01*
X166751Y128766D01*
X168500D01*
X167334D02*
X166167Y127600D01*
X165001D02*
X163835D01*
X164418D01*
Y131099D01*
X165001Y130516D01*
X160336Y127600D02*
Y131099D01*
X162085Y129349D01*
X159753D01*
X156254Y127600D02*
X158587D01*
X156254Y129933D01*
Y130516D01*
X156837Y131099D01*
X158003D01*
X158587Y130516D01*
X100900Y140100D02*
Y143599D01*
X99151D01*
X98567Y143016D01*
Y141849D01*
X99151Y141266D01*
X100900D01*
X99734D02*
X98567Y140100D01*
X97401D02*
X96235D01*
X96818D01*
Y143599D01*
X97401Y143016D01*
X94485D02*
X93902Y143599D01*
X92736D01*
X92153Y143016D01*
Y142433D01*
X92736Y141849D01*
X93319D01*
X92736D01*
X92153Y141266D01*
Y140683D01*
X92736Y140100D01*
X93902D01*
X94485Y140683D01*
X89237Y140100D02*
Y143599D01*
X90987Y141849D01*
X88654D01*
X128900Y133800D02*
Y137299D01*
X127151D01*
X126567Y136716D01*
Y135549D01*
X127151Y134966D01*
X128900D01*
X127734D02*
X126567Y133800D01*
X125401D02*
X124235D01*
X124818D01*
Y137299D01*
X125401Y136716D01*
X122485D02*
X121902Y137299D01*
X120736D01*
X120153Y136716D01*
Y136133D01*
X120736Y135549D01*
X121319D01*
X120736D01*
X120153Y134966D01*
Y134383D01*
X120736Y133800D01*
X121902D01*
X122485Y134383D01*
X118986D02*
X118403Y133800D01*
X117237D01*
X116654Y134383D01*
Y136716D01*
X117237Y137299D01*
X118403D01*
X118986Y136716D01*
Y136133D01*
X118403Y135549D01*
X116654D01*
X119700Y152500D02*
Y155999D01*
X117951D01*
X117367Y155416D01*
Y154249D01*
X117951Y153666D01*
X119700D01*
X118534D02*
X117367Y152500D01*
X116201D02*
X115035D01*
X115618D01*
Y155999D01*
X116201Y155416D01*
X113285D02*
X112702Y155999D01*
X111536D01*
X110953Y155416D01*
Y154833D01*
X111536Y154249D01*
X112119D01*
X111536D01*
X110953Y153666D01*
Y153083D01*
X111536Y152500D01*
X112702D01*
X113285Y153083D01*
X107454Y155999D02*
X108620Y155416D01*
X109786Y154249D01*
Y153083D01*
X109203Y152500D01*
X108037D01*
X107454Y153083D01*
Y153666D01*
X108037Y154249D01*
X109786D01*
X160067Y123916D02*
X160651Y124499D01*
X161817D01*
X162400Y123916D01*
Y121583D01*
X161817Y121000D01*
X160651D01*
X160067Y121583D01*
X156569Y124499D02*
X158901D01*
Y122749D01*
X157735Y123333D01*
X157152D01*
X156569Y122749D01*
Y121583D01*
X157152Y121000D01*
X158318D01*
X158901Y121583D01*
X155402D02*
X154819Y121000D01*
X153653D01*
X153070Y121583D01*
Y123916D01*
X153653Y124499D01*
X154819D01*
X155402Y123916D01*
Y123333D01*
X154819Y122749D01*
X153070D01*
X132667Y168916D02*
X133251Y169499D01*
X134417D01*
X135000Y168916D01*
Y166583D01*
X134417Y166000D01*
X133251D01*
X132667Y166583D01*
X129169Y169499D02*
X131501D01*
Y167749D01*
X130335Y168333D01*
X129752D01*
X129169Y167749D01*
Y166583D01*
X129752Y166000D01*
X130918D01*
X131501Y166583D01*
X125670Y166000D02*
X128002D01*
X125670Y168333D01*
Y168916D01*
X126253Y169499D01*
X127419D01*
X128002Y168916D01*
X175967Y155016D02*
X176551Y155599D01*
X177717D01*
X178300Y155016D01*
Y152683D01*
X177717Y152100D01*
X176551D01*
X175967Y152683D01*
X172469Y155599D02*
X174801D01*
Y153849D01*
X173635Y154433D01*
X173052D01*
X172469Y153849D01*
Y152683D01*
X173052Y152100D01*
X174218D01*
X174801Y152683D01*
X169553Y152100D02*
Y155599D01*
X171302Y153849D01*
X168970D01*
X134416Y130033D02*
X134999Y129449D01*
Y128283D01*
X134416Y127700D01*
X132083D01*
X131500Y128283D01*
Y129449D01*
X132083Y130033D01*
X134999Y133531D02*
Y131199D01*
X133249D01*
X133833Y132365D01*
Y132948D01*
X133249Y133531D01*
X132083D01*
X131500Y132948D01*
Y131782D01*
X132083Y131199D01*
X134999Y137030D02*
X134416Y135864D01*
X133249Y134698D01*
X132083D01*
X131500Y135281D01*
Y136447D01*
X132083Y137030D01*
X132666D01*
X133249Y136447D01*
Y134698D01*
X146099Y170533D02*
Y168200D01*
X144349D01*
Y169366D01*
Y168200D01*
X142600D01*
X146099Y171699D02*
X142600D01*
Y173448D01*
X143183Y174031D01*
X143766D01*
X144349Y173448D01*
Y171699D01*
Y173448D01*
X144933Y174031D01*
X145516D01*
X146099Y173448D01*
Y171699D01*
X142600Y176947D02*
X146099D01*
X144349Y175198D01*
Y177530D01*
X30867Y250016D02*
X31451Y250599D01*
X32617D01*
X33200Y250016D01*
Y247683D01*
X32617Y247100D01*
X31451D01*
X30867Y247683D01*
X27952Y247100D02*
Y250599D01*
X29701Y248849D01*
X27369D01*
X24453Y247100D02*
Y250599D01*
X26202Y248849D01*
X23870D01*
X14667Y327916D02*
X15251Y328499D01*
X16417D01*
X17000Y327916D01*
Y325583D01*
X16417Y325000D01*
X15251D01*
X14667Y325583D01*
X13501Y327916D02*
X12918Y328499D01*
X11752D01*
X11169Y327916D01*
Y327333D01*
X11752Y326749D01*
X12335D01*
X11752D01*
X11169Y326166D01*
Y325583D01*
X11752Y325000D01*
X12918D01*
X13501Y325583D01*
X10002D02*
X9419Y325000D01*
X8253D01*
X7670Y325583D01*
Y327916D01*
X8253Y328499D01*
X9419D01*
X10002Y327916D01*
Y327333D01*
X9419Y326749D01*
X7670D01*
X126667Y347516D02*
X127251Y348099D01*
X128417D01*
X129000Y347516D01*
Y345183D01*
X128417Y344600D01*
X127251D01*
X126667Y345183D01*
X125501Y347516D02*
X124918Y348099D01*
X123752D01*
X123169Y347516D01*
Y346933D01*
X123752Y346349D01*
X124335D01*
X123752D01*
X123169Y345766D01*
Y345183D01*
X123752Y344600D01*
X124918D01*
X125501Y345183D01*
X119670Y348099D02*
X120836Y347516D01*
X122002Y346349D01*
Y345183D01*
X121419Y344600D01*
X120253D01*
X119670Y345183D01*
Y345766D01*
X120253Y346349D01*
X122002D01*
X114067Y103016D02*
X114651Y103599D01*
X115817D01*
X116400Y103016D01*
Y100683D01*
X115817Y100100D01*
X114651D01*
X114067Y100683D01*
X110569Y103599D02*
X111735Y103016D01*
X112901Y101849D01*
Y100683D01*
X112318Y100100D01*
X111152D01*
X110569Y100683D01*
Y101266D01*
X111152Y101849D01*
X112901D01*
X109402Y103016D02*
X108819Y103599D01*
X107653D01*
X107070Y103016D01*
Y100683D01*
X107653Y100100D01*
X108819D01*
X109402Y100683D01*
Y103016D01*
X30167Y287216D02*
X30751Y287799D01*
X31917D01*
X32500Y287216D01*
Y284883D01*
X31917Y284300D01*
X30751D01*
X30167Y284883D01*
X27252Y284300D02*
Y287799D01*
X29001Y286049D01*
X26669D01*
X25502Y287216D02*
X24919Y287799D01*
X23753D01*
X23170Y287216D01*
Y284883D01*
X23753Y284300D01*
X24919D01*
X25502Y284883D01*
Y287216D01*
X191416Y157733D02*
X191999Y157149D01*
Y155983D01*
X191416Y155400D01*
X189083D01*
X188500Y155983D01*
Y157149D01*
X189083Y157733D01*
X191999Y161231D02*
Y158899D01*
X190249D01*
X190833Y160065D01*
Y160648D01*
X190249Y161231D01*
X189083D01*
X188500Y160648D01*
Y159482D01*
X189083Y158899D01*
X191999Y164730D02*
Y162398D01*
X190249D01*
X190833Y163564D01*
Y164147D01*
X190249Y164730D01*
X189083D01*
X188500Y164147D01*
Y162981D01*
X189083Y162398D01*
X196200Y154900D02*
X199699D01*
Y156649D01*
X199116Y157233D01*
X197949D01*
X197366Y156649D01*
Y154900D01*
Y156066D02*
X196200Y157233D01*
Y158399D02*
Y159565D01*
Y158982D01*
X199699D01*
X199116Y158399D01*
Y161315D02*
X199699Y161898D01*
Y163064D01*
X199116Y163647D01*
X198533D01*
X197949Y163064D01*
Y162481D01*
Y163064D01*
X197366Y163647D01*
X196783D01*
X196200Y163064D01*
Y161898D01*
X196783Y161315D01*
X199699Y164813D02*
Y167146D01*
X199116D01*
X196783Y164813D01*
X196200D01*
X30267Y215916D02*
X30851Y216499D01*
X32017D01*
X32600Y215916D01*
Y213583D01*
X32017Y213000D01*
X30851D01*
X30267Y213583D01*
X27352Y213000D02*
Y216499D01*
X29101Y214749D01*
X26768D01*
X25602Y216499D02*
X23270D01*
Y215916D01*
X25602Y213583D01*
Y213000D01*
X198167Y346516D02*
X198751Y347099D01*
X199917D01*
X200500Y346516D01*
Y344183D01*
X199917Y343600D01*
X198751D01*
X198167Y344183D01*
X197001Y346516D02*
X196418Y347099D01*
X195252D01*
X194669Y346516D01*
Y345933D01*
X195252Y345349D01*
X195835D01*
X195252D01*
X194669Y344766D01*
Y344183D01*
X195252Y343600D01*
X196418D01*
X197001Y344183D01*
X193502Y346516D02*
X192919Y347099D01*
X191753D01*
X191170Y346516D01*
Y345933D01*
X191753Y345349D01*
X191170Y344766D01*
Y344183D01*
X191753Y343600D01*
X192919D01*
X193502Y344183D01*
Y344766D01*
X192919Y345349D01*
X193502Y345933D01*
Y346516D01*
X192919Y345349D02*
X191753D01*
X159467Y346316D02*
X160051Y346899D01*
X161217D01*
X161800Y346316D01*
Y343983D01*
X161217Y343400D01*
X160051D01*
X159467Y343983D01*
X158301Y346316D02*
X157718Y346899D01*
X156552D01*
X155969Y346316D01*
Y345733D01*
X156552Y345149D01*
X157135D01*
X156552D01*
X155969Y344566D01*
Y343983D01*
X156552Y343400D01*
X157718D01*
X158301Y343983D01*
X154802Y346899D02*
X152470D01*
Y346316D01*
X154802Y343983D01*
Y343400D01*
X214200Y161700D02*
Y165199D01*
X212451D01*
X211867Y164616D01*
Y163449D01*
X212451Y162866D01*
X214200D01*
X213034D02*
X211867Y161700D01*
X210701D02*
X209535D01*
X210118D01*
Y165199D01*
X210701Y164616D01*
X207785D02*
X207202Y165199D01*
X206036D01*
X205453Y164616D01*
Y164033D01*
X206036Y163449D01*
X206619D01*
X206036D01*
X205453Y162866D01*
Y162283D01*
X206036Y161700D01*
X207202D01*
X207785Y162283D01*
X204287Y164616D02*
X203703Y165199D01*
X202537D01*
X201954Y164616D01*
Y164033D01*
X202537Y163449D01*
X203120D01*
X202537D01*
X201954Y162866D01*
Y162283D01*
X202537Y161700D01*
X203703D01*
X204287Y162283D01*
X42000Y101500D02*
Y104999D01*
X40251D01*
X39667Y104416D01*
Y103249D01*
X40251Y102666D01*
X42000D01*
X40834D02*
X39667Y101500D01*
X38501D02*
X37335D01*
X37918D01*
Y104999D01*
X38501Y104416D01*
X33836Y101500D02*
Y104999D01*
X35585Y103249D01*
X33253D01*
X29754Y104999D02*
X30920Y104416D01*
X32087Y103249D01*
Y102083D01*
X31503Y101500D01*
X30337D01*
X29754Y102083D01*
Y102666D01*
X30337Y103249D01*
X32087D01*
X41500Y66000D02*
Y69499D01*
X39751D01*
X39167Y68916D01*
Y67749D01*
X39751Y67166D01*
X41500D01*
X40334D02*
X39167Y66000D01*
X38001D02*
X36835D01*
X37418D01*
Y69499D01*
X38001Y68916D01*
X33336Y66000D02*
Y69499D01*
X35085Y67749D01*
X32753D01*
X31587Y69499D02*
X29254D01*
Y68916D01*
X31587Y66583D01*
Y66000D01*
X92100Y44200D02*
Y47699D01*
X90351D01*
X89767Y47116D01*
Y45949D01*
X90351Y45366D01*
X92100D01*
X90934D02*
X89767Y44200D01*
X88601D02*
X87435D01*
X88018D01*
Y47699D01*
X88601Y47116D01*
X83936Y44200D02*
Y47699D01*
X85685Y45949D01*
X83353D01*
X82187Y47116D02*
X81603Y47699D01*
X80437D01*
X79854Y47116D01*
Y46533D01*
X80437Y45949D01*
X79854Y45366D01*
Y44783D01*
X80437Y44200D01*
X81603D01*
X82187Y44783D01*
Y45366D01*
X81603Y45949D01*
X82187Y46533D01*
Y47116D01*
X81603Y45949D02*
X80437D01*
X122900Y44500D02*
Y47999D01*
X121151D01*
X120567Y47416D01*
Y46249D01*
X121151Y45666D01*
X122900D01*
X121734D02*
X120567Y44500D01*
X119401D02*
X118235D01*
X118818D01*
Y47999D01*
X119401Y47416D01*
X114736Y44500D02*
Y47999D01*
X116485Y46249D01*
X114153D01*
X112987Y45083D02*
X112403Y44500D01*
X111237D01*
X110654Y45083D01*
Y47416D01*
X111237Y47999D01*
X112403D01*
X112987Y47416D01*
Y46833D01*
X112403Y46249D01*
X110654D01*
X152800Y44300D02*
Y47799D01*
X151051D01*
X150467Y47216D01*
Y46049D01*
X151051Y45466D01*
X152800D01*
X151634D02*
X150467Y44300D01*
X149301D02*
X148135D01*
X148718D01*
Y47799D01*
X149301Y47216D01*
X144053Y47799D02*
X146385D01*
Y46049D01*
X145219Y46633D01*
X144636D01*
X144053Y46049D01*
Y44883D01*
X144636Y44300D01*
X145802D01*
X146385Y44883D01*
X142886Y47216D02*
X142303Y47799D01*
X141137D01*
X140554Y47216D01*
Y44883D01*
X141137Y44300D01*
X142303D01*
X142886Y44883D01*
Y47216D01*
X188400Y44300D02*
Y47799D01*
X186651D01*
X186067Y47216D01*
Y46049D01*
X186651Y45466D01*
X188400D01*
X187234D02*
X186067Y44300D01*
X184901D02*
X183735D01*
X184318D01*
Y47799D01*
X184901Y47216D01*
X179653Y47799D02*
X181985D01*
Y46049D01*
X180819Y46633D01*
X180236D01*
X179653Y46049D01*
Y44883D01*
X180236Y44300D01*
X181402D01*
X181985Y44883D01*
X178487Y44300D02*
X177320D01*
X177903D01*
Y47799D01*
X178487Y47216D01*
X41700Y167500D02*
Y170999D01*
X39951D01*
X39367Y170416D01*
Y169249D01*
X39951Y168666D01*
X41700D01*
X40534D02*
X39367Y167500D01*
X38201D02*
X37035D01*
X37618D01*
Y170999D01*
X38201Y170416D01*
X35285D02*
X34702Y170999D01*
X33536D01*
X32953Y170416D01*
Y169833D01*
X33536Y169249D01*
X34119D01*
X33536D01*
X32953Y168666D01*
Y168083D01*
X33536Y167500D01*
X34702D01*
X35285Y168083D01*
X29454Y167500D02*
X31787D01*
X29454Y169833D01*
Y170416D01*
X30037Y170999D01*
X31203D01*
X31787Y170416D01*
X41500Y133500D02*
Y136999D01*
X39751D01*
X39167Y136416D01*
Y135249D01*
X39751Y134666D01*
X41500D01*
X40334D02*
X39167Y133500D01*
X38001D02*
X36835D01*
X37418D01*
Y136999D01*
X38001Y136416D01*
X33336Y133500D02*
Y136999D01*
X35085Y135249D01*
X32753D01*
X31587Y133500D02*
X30420D01*
X31003D01*
Y136999D01*
X31587Y136416D01*
X202100Y117400D02*
X205599D01*
Y119149D01*
X205016Y119733D01*
X203849D01*
X203266Y119149D01*
Y117400D01*
Y118566D02*
X202100Y119733D01*
Y120899D02*
Y122065D01*
Y121482D01*
X205599D01*
X205016Y120899D01*
X202100Y125564D02*
X205599D01*
X203849Y123815D01*
Y126147D01*
X202100Y129063D02*
X205599D01*
X203849Y127313D01*
Y129646D01*
X187167Y254416D02*
X187751Y254999D01*
X188917D01*
X189500Y254416D01*
Y252083D01*
X188917Y251500D01*
X187751D01*
X187167Y252083D01*
X184252Y251500D02*
Y254999D01*
X186001Y253249D01*
X183669D01*
X180170Y254999D02*
X181336Y254416D01*
X182502Y253249D01*
Y252083D01*
X181919Y251500D01*
X180753D01*
X180170Y252083D01*
Y252666D01*
X180753Y253249D01*
X182502D01*
X86500Y264500D02*
Y267999D01*
X84751D01*
X84167Y267416D01*
Y266249D01*
X84751Y265666D01*
X86500D01*
X85334D02*
X84167Y264500D01*
X83001D02*
X81835D01*
X82418D01*
Y267999D01*
X83001Y267416D01*
X77753Y267999D02*
X80085D01*
Y266249D01*
X78919Y266833D01*
X78336D01*
X77753Y266249D01*
Y265083D01*
X78336Y264500D01*
X79502D01*
X80085Y265083D01*
X74837Y264500D02*
Y267999D01*
X76587Y266249D01*
X74254D01*
X86300Y271100D02*
Y274599D01*
X84551D01*
X83967Y274016D01*
Y272849D01*
X84551Y272266D01*
X86300D01*
X85134D02*
X83967Y271100D01*
X82801D02*
X81635D01*
X82218D01*
Y274599D01*
X82801Y274016D01*
X77553Y274599D02*
X79885D01*
Y272849D01*
X78719Y273433D01*
X78136D01*
X77553Y272849D01*
Y271683D01*
X78136Y271100D01*
X79302D01*
X79885Y271683D01*
X74054Y274599D02*
X76386D01*
Y272849D01*
X75220Y273433D01*
X74637D01*
X74054Y272849D01*
Y271683D01*
X74637Y271100D01*
X75803D01*
X76386Y271683D01*
X98500Y186350D02*
X101999D01*
Y188099D01*
X101416Y188682D01*
X100249D01*
X99666Y188099D01*
Y186350D01*
Y187516D02*
X98500Y188682D01*
Y189848D02*
Y191015D01*
Y190432D01*
X101999D01*
X101416Y189848D01*
X101999Y195097D02*
Y192764D01*
X100249D01*
X100833Y193930D01*
Y194514D01*
X100249Y195097D01*
X99083D01*
X98500Y194514D01*
Y193347D01*
X99083Y192764D01*
X101999Y198596D02*
X101416Y197429D01*
X100249Y196263D01*
X99083D01*
X98500Y196846D01*
Y198012D01*
X99083Y198596D01*
X99666D01*
X100249Y198012D01*
Y196263D01*
X92500Y157500D02*
X95999D01*
Y159249D01*
X95416Y159833D01*
X94249D01*
X93666Y159249D01*
Y157500D01*
Y158666D02*
X92500Y159833D01*
Y160999D02*
Y162165D01*
Y161582D01*
X95999D01*
X95416Y160999D01*
X95999Y166247D02*
Y163915D01*
X94249D01*
X94833Y165081D01*
Y165664D01*
X94249Y166247D01*
X93083D01*
X92500Y165664D01*
Y164498D01*
X93083Y163915D01*
X95999Y167413D02*
Y169746D01*
X95416D01*
X93083Y167413D01*
X92500D01*
X116000Y175000D02*
Y178499D01*
X114251D01*
X113667Y177916D01*
Y176749D01*
X114251Y176166D01*
X116000D01*
X114834D02*
X113667Y175000D01*
X112501D02*
X111335D01*
X111918D01*
Y178499D01*
X112501Y177916D01*
X107253Y178499D02*
X108419Y177916D01*
X109585Y176749D01*
Y175583D01*
X109002Y175000D01*
X107836D01*
X107253Y175583D01*
Y176166D01*
X107836Y176749D01*
X109585D01*
X106087Y175000D02*
X104920D01*
X105503D01*
Y178499D01*
X106087Y177916D01*
X217434Y200499D02*
Y195500D01*
X219100Y200499D02*
X215767D01*
X212078D02*
X215172D01*
Y195500D01*
X212078D01*
X215172Y198118D02*
X213268D01*
X211245Y200499D02*
Y195500D01*
Y200499D02*
X209102D01*
X208388Y200261D01*
X208150Y200023D01*
X207912Y199547D01*
Y199071D01*
X208150Y198595D01*
X208388Y198356D01*
X209102Y198118D01*
X211245D01*
X209578D02*
X207912Y195500D01*
X206793Y200499D02*
Y195500D01*
Y200499D02*
X204889Y195500D01*
X202984Y200499D02*
X204889Y195500D01*
X202984Y200499D02*
Y195500D01*
X201556Y200499D02*
Y195500D01*
X200509Y200499D02*
Y195500D01*
Y200499D02*
X197176Y195500D01*
Y200499D02*
Y195500D01*
X191987D02*
X193891Y200499D01*
X195796Y195500D01*
X195081Y197166D02*
X192701D01*
X190820Y200499D02*
Y195500D01*
X187964D01*
X183489Y200499D02*
Y196928D01*
X183250Y196214D01*
X182774Y195738D01*
X182060Y195500D01*
X181584D01*
X180870Y195738D01*
X180394Y196214D01*
X180156Y196928D01*
Y200499D01*
X178775D02*
Y195500D01*
Y200499D02*
X175443Y195500D01*
Y200499D02*
Y195500D01*
X174062Y200499D02*
Y195500D01*
X171348Y200499D02*
Y195500D01*
X173015Y200499D02*
X169682D01*
X129205Y191899D02*
X132300D01*
Y186900D01*
X129205D01*
X132300Y189518D02*
X130396D01*
X128372Y190947D02*
X127896Y191185D01*
X127182Y191899D01*
Y186900D01*
X217534Y191799D02*
Y186800D01*
X219200Y191799D02*
X215867D01*
X215272D02*
Y186800D01*
X214225Y191799D02*
Y186800D01*
Y191799D02*
X212559D01*
X211844Y191561D01*
X211368Y191085D01*
X211130Y190609D01*
X210892Y189895D01*
Y188704D01*
X211130Y187990D01*
X211368Y187514D01*
X211844Y187038D01*
X212559Y186800D01*
X214225D01*
X205965D02*
X207869Y191799D01*
X209773Y186800D01*
X209059Y188466D02*
X206679D01*
X204798Y188942D02*
X200514D01*
X197609Y191799D02*
X198324Y191561D01*
X198800Y190847D01*
X199038Y189656D01*
Y188942D01*
X198800Y187752D01*
X198324Y187038D01*
X197609Y186800D01*
X197133D01*
X196419Y187038D01*
X195943Y187752D01*
X195705Y188942D01*
Y189656D01*
X195943Y190847D01*
X196419Y191561D01*
X197133Y191799D01*
X197609D01*
X194586Y190847D02*
X194110Y191085D01*
X193396Y191799D01*
Y186800D01*
X188064Y191799D02*
X190444D01*
X190682Y189656D01*
X190444Y189895D01*
X189730Y190133D01*
X189016D01*
X188302Y189895D01*
X187826Y189418D01*
X187588Y188704D01*
Y188228D01*
X187826Y187514D01*
X188302Y187038D01*
X189016Y186800D01*
X189730D01*
X190444Y187038D01*
X190682Y187276D01*
X190920Y187752D01*
X183136Y191799D02*
X185517Y186800D01*
X186469Y191799D02*
X183136D01*
X179161Y191085D02*
X179399Y191561D01*
X180113Y191799D01*
X180589D01*
X181303Y191561D01*
X181779Y190847D01*
X182018Y189656D01*
Y188466D01*
X181779Y187514D01*
X181303Y187038D01*
X180589Y186800D01*
X180351D01*
X179637Y187038D01*
X179161Y187514D01*
X178923Y188228D01*
Y188466D01*
X179161Y189180D01*
X179637Y189656D01*
X180351Y189895D01*
X180589D01*
X181303Y189656D01*
X181779Y189180D01*
X182018Y188466D01*
X177828Y185134D02*
X174019D01*
X173377Y191799D02*
Y186800D01*
Y191799D02*
X171710D01*
X170996Y191561D01*
X170520Y191085D01*
X170282Y190609D01*
X170044Y189895D01*
Y188704D01*
X170282Y187990D01*
X170520Y187514D01*
X170996Y187038D01*
X171710Y186800D01*
X173377D01*
X168925Y191799D02*
Y188228D01*
X168687Y187514D01*
X168211Y187038D01*
X167497Y186800D01*
X167021D01*
X166307Y187038D01*
X165831Y187514D01*
X165592Y188228D01*
Y191799D01*
X160403Y186800D02*
X162307Y191799D01*
X164212Y186800D01*
X163498Y188466D02*
X161117D01*
X159237Y191799D02*
Y186800D01*
X156380D01*
X155833Y185134D02*
X152024D01*
X148049Y191085D02*
X148525Y191561D01*
X149239Y191799D01*
X150191D01*
X150905Y191561D01*
X151381Y191085D01*
Y190609D01*
X151143Y190133D01*
X150905Y189895D01*
X150429Y189656D01*
X149001Y189180D01*
X148525Y188942D01*
X148287Y188704D01*
X148049Y188228D01*
Y187514D01*
X148525Y187038D01*
X149239Y186800D01*
X150191D01*
X150905Y187038D01*
X151381Y187514D01*
X146930Y191799D02*
Y186800D01*
Y191799D02*
X145263D01*
X144549Y191561D01*
X144073Y191085D01*
X143835Y190609D01*
X143597Y189895D01*
Y188704D01*
X143835Y187990D01*
X144073Y187514D01*
X144549Y187038D01*
X145263Y186800D01*
X146930D01*
X141050Y191799D02*
X141526Y191561D01*
X142002Y191085D01*
X142240Y190609D01*
X142478Y189895D01*
Y188704D01*
X142240Y187990D01*
X142002Y187514D01*
X141526Y187038D01*
X141050Y186800D01*
X140098D01*
X139622Y187038D01*
X139146Y187514D01*
X138908Y187990D01*
X138670Y188704D01*
Y189895D01*
X138908Y190609D01*
X139146Y191085D01*
X139622Y191561D01*
X140098Y191799D01*
X141050D01*
G54D60*
X104502Y168273D02*
X107100D01*
X104502D02*
Y173720D01*
X107100D01*
X113900D02*
X116498D01*
Y168273D02*
Y173720D01*
X113900Y168273D02*
X116498D01*
X205400Y249273D02*
X207998D01*
Y254720D01*
X205400D02*
X207998D01*
X196002D02*
X198600D01*
X196002Y249273D02*
Y254720D01*
Y249273D02*
X198600D01*
X196002Y248227D02*
X198600D01*
X196002Y242780D02*
Y248227D01*
Y242780D02*
X198600D01*
X205400D02*
X207998D01*
Y248227D01*
X205400D02*
X207998D01*
X180900Y131727D02*
X183498D01*
Y126280D02*
Y131727D01*
X180900Y126280D02*
X183498D01*
X171502D02*
X174100D01*
X171502D02*
Y131727D01*
X174100D01*
X171502Y138727D02*
X174100D01*
X171502Y133280D02*
Y138727D01*
Y133280D02*
X174100D01*
X180900D02*
X183498D01*
Y138727D01*
X180900D02*
X183498D01*
X141773Y265002D02*
Y267600D01*
Y265002D02*
X147220D01*
Y267600D01*
Y274400D02*
Y276998D01*
X141773D02*
X147220D01*
X141773Y274400D02*
Y276998D01*
X105900Y256773D02*
X108498D01*
Y262220D01*
X105900D02*
X108498D01*
X96502D02*
X99100D01*
X96502Y256773D02*
Y262220D01*
Y256773D02*
X99100D01*
X105900Y250273D02*
X108498D01*
Y255720D01*
X105900D02*
X108498D01*
X96502D02*
X99100D01*
X96502Y250273D02*
Y255720D01*
Y250273D02*
X99100D01*
X17906Y314086D02*
X21449D01*
Y323613D01*
X17906D02*
X21449D01*
X2551D02*
X6095D01*
X2551Y314086D02*
Y323613D01*
Y314086D02*
X6095D01*
X121764Y23551D02*
Y27095D01*
X112236Y23551D02*
X121764D01*
X112236D02*
Y27095D01*
Y38906D02*
Y42449D01*
X121764D01*
Y38906D02*
Y42449D01*
X152764Y23551D02*
Y27095D01*
X143236Y23551D02*
X152764D01*
X143236D02*
Y27095D01*
Y38906D02*
Y42449D01*
X152764D01*
Y38906D02*
Y42449D01*
X187264Y23551D02*
Y27095D01*
X177736Y23551D02*
X187264D01*
X177736D02*
Y27095D01*
Y38906D02*
Y42449D01*
X187264D01*
Y38906D02*
Y42449D01*
X26551Y155736D02*
X30095D01*
X26551D02*
Y165264D01*
X30095D01*
X41906D02*
X45449D01*
Y155736D02*
Y165264D01*
X41906Y155736D02*
X45449D01*
X26551Y122736D02*
X30095D01*
X26551D02*
Y132264D01*
X30095D01*
X41906D02*
X45449D01*
Y122736D02*
Y132264D01*
X41906Y122736D02*
X45449D01*
X91764Y23551D02*
Y27095D01*
X82236Y23551D02*
X91764D01*
X82236D02*
Y27095D01*
Y38906D02*
Y42449D01*
X91764D01*
Y38906D02*
Y42449D01*
X26551Y54736D02*
X30095D01*
X26551D02*
Y64264D01*
X30095D01*
X41906D02*
X45449D01*
Y54736D02*
Y64264D01*
X41906Y54736D02*
X45449D01*
X26551Y90236D02*
X30095D01*
X26551D02*
Y99764D01*
X30095D01*
X41906D02*
X45449D01*
Y90236D02*
Y99764D01*
X41906Y90236D02*
X45449D01*
X133736Y328551D02*
Y332095D01*
Y328551D02*
X143264D01*
Y332095D01*
Y343905D02*
Y347449D01*
X133736D02*
X143264D01*
X133736Y343905D02*
Y347449D01*
X169736Y328551D02*
Y332095D01*
Y328551D02*
X179264D01*
Y332095D01*
Y343905D02*
Y347449D01*
X169736D02*
X179264D01*
X169736Y343905D02*
Y347449D01*
X42406Y189236D02*
X45949D01*
Y198764D01*
X42406D02*
X45949D01*
X27051D02*
X30595D01*
X27051Y189236D02*
Y198764D01*
Y189236D02*
X30595D01*
X41706Y222636D02*
X45249D01*
Y232164D01*
X41706D02*
X45249D01*
X26351D02*
X29895D01*
X26351Y222636D02*
Y232164D01*
Y222636D02*
X29895D01*
X99386Y325551D02*
Y329095D01*
Y325551D02*
X108913D01*
Y329095D01*
Y340905D02*
Y344449D01*
X99386D02*
X108913D01*
X99386Y340905D02*
Y344449D01*
X44506Y292086D02*
X48049D01*
Y301613D01*
X44506D02*
X48049D01*
X29151D02*
X32695D01*
X29151Y292086D02*
Y301613D01*
Y292086D02*
X32695D01*
X60886Y326051D02*
Y329594D01*
Y326051D02*
X70413D01*
Y329594D01*
Y341406D02*
Y344949D01*
X60886D02*
X70413D01*
X60886Y341406D02*
Y344949D01*
X44506Y257586D02*
X48049D01*
Y267113D01*
X44506D02*
X48049D01*
X29151D02*
X32695D01*
X29151Y257586D02*
Y267113D01*
Y257586D02*
X32695D01*
X119886Y350051D02*
Y353594D01*
Y350051D02*
X129413D01*
Y353594D01*
Y365406D02*
Y368949D01*
X119886D02*
X129413D01*
X119886Y365406D02*
Y368949D01*
X83386Y365406D02*
Y368949D01*
X92913D01*
Y365406D02*
Y368949D01*
Y350051D02*
Y353594D01*
X83386Y350051D02*
X92913D01*
X83386D02*
Y353594D01*
X2551Y281186D02*
X6095D01*
X2551D02*
Y290713D01*
X6095D01*
X17906D02*
X21449D01*
Y281186D02*
Y290713D01*
X17906Y281186D02*
X21449D01*
X17906Y244136D02*
X21449D01*
Y253664D01*
X17906D02*
X21449D01*
X2551D02*
X6095D01*
X2551Y244136D02*
Y253664D01*
Y244136D02*
X6095D01*
X2551Y210236D02*
X6095D01*
X2551D02*
Y219764D01*
X6095D01*
X17906D02*
X21449D01*
Y210236D02*
Y219764D01*
X17906Y210236D02*
X21449D01*
X192236Y365406D02*
Y368949D01*
X201764D01*
Y365406D02*
Y368949D01*
Y350051D02*
Y353594D01*
X192236Y350051D02*
X201764D01*
X192236D02*
Y353594D01*
X153736Y365406D02*
Y368949D01*
X163264D01*
Y365406D02*
Y368949D01*
Y350051D02*
Y353594D01*
X153736Y350051D02*
X163264D01*
X153736D02*
Y353594D01*
X2551Y112236D02*
X6095D01*
X2551D02*
Y121764D01*
X6095D01*
X17906D02*
X21449D01*
Y112236D02*
Y121764D01*
X17906Y112236D02*
X21449D01*
X2551Y76736D02*
X6095D01*
X2551D02*
Y86264D01*
X6095D01*
X17906D02*
X21449D01*
Y76736D02*
Y86264D01*
X17906Y76736D02*
X21449D01*
X70764Y2551D02*
Y6095D01*
X61236Y2551D02*
X70764D01*
X61236D02*
Y6095D01*
Y17906D02*
Y21449D01*
X70764D01*
Y17906D02*
Y21449D01*
X101764Y2551D02*
Y6095D01*
X92236Y2551D02*
X101764D01*
X92236D02*
Y6095D01*
Y17906D02*
Y21449D01*
X101764D01*
Y17906D02*
Y21449D01*
X132264Y2551D02*
Y6095D01*
X122736Y2551D02*
X132264D01*
X122736D02*
Y6095D01*
Y17906D02*
Y21449D01*
X132264D01*
Y17906D02*
Y21449D01*
X166264Y17906D02*
Y21449D01*
X156736D02*
X166264D01*
X156736Y17906D02*
Y21449D01*
Y2551D02*
Y6095D01*
Y2551D02*
X166264D01*
Y6095D01*
X17906Y176236D02*
X21449D01*
Y185764D01*
X17906D02*
X21449D01*
X2551D02*
X6095D01*
X2551Y176236D02*
Y185764D01*
Y176236D02*
X6095D01*
X17906Y144736D02*
X21449D01*
Y154264D01*
X17906D02*
X21449D01*
X2551D02*
X6095D01*
X2551Y144736D02*
Y154264D01*
Y144736D02*
X6095D01*
X125273Y250502D02*
Y253100D01*
Y250502D02*
X130720D01*
Y253100D01*
Y259900D02*
Y262498D01*
X125273D02*
X130720D01*
X125273Y259900D02*
Y262498D01*
X119533Y250584D02*
X122131D01*
Y256031D01*
X119533D02*
X122131D01*
X110135D02*
X112733D01*
X110135Y250584D02*
Y256031D01*
Y250584D02*
X112733D01*
X119533Y256984D02*
X122131D01*
Y262431D01*
X119533D02*
X122131D01*
X110135D02*
X112733D01*
X110135Y256984D02*
Y262431D01*
Y256984D02*
X112733D01*
X164802Y265127D02*
X167400D01*
X164802Y259680D02*
Y265127D01*
Y259680D02*
X167400D01*
X174200D02*
X176798D01*
Y265127D01*
X174200D02*
X176798D01*
X169227Y241900D02*
Y244498D01*
X163780D02*
X169227D01*
X163780Y241900D02*
Y244498D01*
Y232502D02*
Y235100D01*
Y232502D02*
X169227D01*
Y235100D01*
X157273Y232502D02*
Y235100D01*
Y232502D02*
X162720D01*
Y235100D01*
Y241900D02*
Y244498D01*
X157273D02*
X162720D01*
X157273Y241900D02*
Y244498D01*
X196273Y150400D02*
Y152998D01*
X201720D01*
Y150400D02*
Y152998D01*
Y141002D02*
Y143600D01*
X196273Y141002D02*
X201720D01*
X196273D02*
Y143600D01*
X188273Y150400D02*
Y152998D01*
X193720D01*
Y150400D02*
Y152998D01*
Y141002D02*
Y143600D01*
X188273Y141002D02*
X193720D01*
X188273D02*
Y143600D01*
X200281Y99617D02*
X202879D01*
Y105063D01*
X200281D02*
X202879D01*
X190883D02*
X193481D01*
X190883Y99617D02*
Y105063D01*
Y99617D02*
X193481D01*
X129773Y139002D02*
Y141600D01*
Y139002D02*
X135220D01*
Y141600D01*
Y148400D02*
Y150998D01*
X129773D02*
X135220D01*
X129773Y148400D02*
Y150998D01*
X125900Y139273D02*
X128498D01*
Y144720D01*
X125900D02*
X128498D01*
X116502D02*
X119100D01*
X116502Y139273D02*
Y144720D01*
Y139273D02*
X119100D01*
X125900Y145773D02*
X128498D01*
Y151220D01*
X125900D02*
X128498D01*
X116502D02*
X119100D01*
X116502Y145773D02*
Y151220D01*
Y145773D02*
X119100D01*
X151002Y167727D02*
X153600D01*
X151002Y162280D02*
Y167727D01*
Y162280D02*
X153600D01*
X160400D02*
X162998D01*
Y167727D01*
X160400D02*
X162998D01*
X112400Y145773D02*
X114998D01*
Y151220D01*
X112400D02*
X114998D01*
X103002D02*
X105600D01*
X103002Y145773D02*
Y151220D01*
Y145773D02*
X105600D01*
X112400Y139273D02*
X114998D01*
Y144720D01*
X112400D02*
X114998D01*
X103002D02*
X105600D01*
X103002Y139273D02*
Y144720D01*
Y139273D02*
X105600D01*
X203602Y152527D02*
X206200D01*
X203602Y147080D02*
Y152527D01*
Y147080D02*
X206200D01*
X213000D02*
X215598D01*
Y152527D01*
X213000D02*
X215598D01*
X213000Y159927D02*
X215598D01*
Y154480D02*
Y159927D01*
X213000Y154480D02*
X215598D01*
X203602D02*
X206200D01*
X203602D02*
Y159927D01*
X206200D01*
X180400Y110773D02*
X182998D01*
Y116220D01*
X180400D02*
X182998D01*
X171002D02*
X173600D01*
X171002Y110773D02*
Y116220D01*
Y110773D02*
X173600D01*
X192690Y116310D02*
Y120000D01*
Y116310D02*
X192760Y116240D01*
X200310D02*
Y120000D01*
X192760Y116240D02*
X200310D01*
X192760Y129760D02*
X200310D01*
Y126000D02*
Y129760D01*
X192690Y129690D02*
X192760Y129760D01*
X192690Y126000D02*
Y129690D01*
X120520Y107905D02*
X135480D01*
X120520Y96095D02*
X135480D01*
X151020Y149094D02*
X165980D01*
X151020Y160906D02*
X165980D01*
X123020Y164406D02*
X137980D01*
X123020Y152594D02*
X137980D01*
X150520Y119405D02*
X165480D01*
X150520Y107595D02*
X165480D01*
X150094Y265020D02*
Y279980D01*
X161906Y265020D02*
Y279980D01*
X139406Y266020D02*
Y280980D01*
X127594Y266020D02*
Y280980D01*
X108953Y214906D02*
X123913D01*
X108953Y226716D02*
X123913D01*
X146953Y214405D02*
X161913D01*
X146953Y226217D02*
X161913D01*
X120020Y109095D02*
X134980D01*
X120020Y120905D02*
X134980D01*
X108620Y213305D02*
X123580D01*
X108620Y201495D02*
X123580D01*
X161220Y246495D02*
X176180D01*
X161220Y258306D02*
X176180D01*
X103227Y157502D02*
Y160100D01*
X97780Y157502D02*
X103227D01*
X97780D02*
Y160100D01*
Y166900D02*
Y169498D01*
X103227D01*
Y166900D02*
Y169498D01*
Y172651D02*
Y175250D01*
X97780Y172651D02*
X103227D01*
X97780D02*
Y175250D01*
Y182050D02*
Y184648D01*
X103227D01*
Y182050D02*
Y184648D01*
X89802Y270073D02*
X92400D01*
X89802D02*
Y275520D01*
X92400D01*
X99200D02*
X101798D01*
Y270073D02*
Y275520D01*
X99200Y270073D02*
X101798D01*
X99100Y268927D02*
X101698D01*
Y263480D02*
Y268927D01*
X99100Y263480D02*
X101698D01*
X89702D02*
X92300D01*
X89702D02*
Y268927D01*
X92300D01*
X217834Y246832D02*
X218501Y247499D01*
X219834D01*
X220500Y246832D01*
Y244166D01*
X219834Y243500D01*
X218501D01*
X217834Y244166D01*
X216501Y247499D02*
X213836D01*
Y246832D01*
X216501Y244166D01*
Y243500D01*
X212503Y246832D02*
X211836Y247499D01*
X210503D01*
X209837Y246832D01*
Y244166D01*
X210503Y243500D01*
X211836D01*
X212503Y244166D01*
Y246832D01*
X217834Y253832D02*
X218501Y254499D01*
X219834D01*
X220500Y253832D01*
Y251166D01*
X219834Y250500D01*
X218501D01*
X217834Y251166D01*
X213836Y254499D02*
X215168Y253832D01*
X216501Y252499D01*
Y251166D01*
X215835Y250500D01*
X214502D01*
X213836Y251166D01*
Y251833D01*
X214502Y252499D01*
X216501D01*
X212503Y254499D02*
X209837D01*
Y253832D01*
X212503Y251166D01*
Y250500D01*
M02*
