G04 Layer_Physical_Order=2*
G04 Layer_Color=128*
%FSLAX25Y25*%
%MOIN*%
G70*
G01*
G75*
%ADD25C,0.04000*%
%ADD38C,0.01000*%
%ADD46C,0.00800*%
%ADD47C,0.03000*%
%ADD48C,0.07008*%
%ADD54C,0.02400*%
G36*
X197500Y357500D02*
Y351375D01*
X196500Y350746D01*
X196000Y350845D01*
X195103Y350667D01*
X194342Y350158D01*
X193833Y349397D01*
X193655Y348500D01*
X193833Y347603D01*
X194342Y346842D01*
X195103Y346333D01*
X196000Y346155D01*
X196500Y346254D01*
X197500Y345625D01*
Y262800D01*
X198800Y261500D01*
X211119D01*
X211669Y261272D01*
X212400Y261176D01*
X213131Y261272D01*
X213681Y261500D01*
X244200Y261500D01*
X245000Y260700D01*
Y239106D01*
X244786Y238892D01*
X244000Y238440D01*
X243500Y238539D01*
X242720Y238384D01*
X242058Y237942D01*
X241616Y237280D01*
X241461Y236500D01*
X241616Y235720D01*
X242058Y235058D01*
X242720Y234616D01*
X243500Y234461D01*
X244000Y234560D01*
X244786Y234108D01*
X245000Y233894D01*
X245000Y37500D01*
X242500Y35000D01*
X202500D01*
X200000Y32500D01*
Y15000D01*
X197500Y12500D01*
X187221D01*
Y15124D01*
X187221Y15124D01*
X187147Y16093D01*
X187191Y16429D01*
X187026Y17682D01*
X186543Y18850D01*
X185773Y19852D01*
X184771Y20622D01*
X183603Y21106D01*
X182350Y21271D01*
Y21472D01*
X172350D01*
Y21271D01*
X171097Y21106D01*
X169929Y20622D01*
X168927Y19852D01*
X168157Y18850D01*
X167674Y17682D01*
X167509Y16429D01*
X167674Y15176D01*
X167721Y15062D01*
X168018Y14185D01*
X167827Y13264D01*
X167097Y12500D01*
X153221D01*
Y15124D01*
X153221Y15124D01*
X153147Y16093D01*
X153191Y16429D01*
X153026Y17682D01*
X152543Y18850D01*
X151773Y19852D01*
X150771Y20622D01*
X149603Y21106D01*
X148350Y21271D01*
Y21472D01*
X138350D01*
Y21271D01*
X137097Y21106D01*
X135929Y20622D01*
X134927Y19852D01*
X134157Y18850D01*
X133674Y17682D01*
X133509Y16429D01*
X133674Y15176D01*
X133721Y15062D01*
X134018Y14185D01*
X133827Y13264D01*
X133097Y12500D01*
X121871D01*
Y15624D01*
X121871Y15624D01*
X121797Y16593D01*
X121841Y16929D01*
X121676Y18182D01*
X121193Y19350D01*
X120423Y20353D01*
X119421Y21122D01*
X118253Y21606D01*
X117000Y21771D01*
Y21972D01*
X107000D01*
Y21771D01*
X105747Y21606D01*
X104579Y21122D01*
X103577Y20353D01*
X102807Y19350D01*
X102324Y18182D01*
X102159Y16929D01*
X102324Y15676D01*
X102371Y15562D01*
X102668Y14685D01*
X102704Y13700D01*
X102706Y13484D01*
X101958Y12500D01*
X91871D01*
Y15624D01*
X91871Y15624D01*
X91797Y16593D01*
X91841Y16929D01*
X91676Y18182D01*
X91193Y19350D01*
X90423Y20353D01*
X89421Y21122D01*
X88253Y21606D01*
X87000Y21771D01*
Y21972D01*
X77000D01*
Y21771D01*
X75747Y21606D01*
X74579Y21122D01*
X73577Y20353D01*
X72807Y19350D01*
X72324Y18182D01*
X72159Y16929D01*
X72324Y15676D01*
X72371Y15562D01*
X72668Y14685D01*
X72704Y13700D01*
X72706Y13484D01*
X71958Y12500D01*
X40000D01*
X35000Y17500D01*
X35000Y27500D01*
X27500Y35000D01*
X15000D01*
X12500Y37500D01*
Y53844D01*
X13000Y54637D01*
X13500Y54637D01*
X16927D01*
X16927Y54637D01*
X17896Y54712D01*
X18232Y54667D01*
X19485Y54832D01*
X20653Y55316D01*
X21656Y56085D01*
X22425Y57088D01*
X22909Y58256D01*
X23074Y59509D01*
X23275D01*
Y69509D01*
X23074D01*
X22909Y70762D01*
X22425Y71929D01*
X21656Y72932D01*
X20653Y73701D01*
X19485Y74185D01*
X18232Y74350D01*
X16979Y74185D01*
X16865Y74138D01*
X15988Y73841D01*
X15003Y73804D01*
X14400Y73800D01*
X13000Y73900D01*
X12500Y74707D01*
Y90393D01*
X16427D01*
X16427Y90393D01*
X17396Y90467D01*
X17732Y90423D01*
X18985Y90588D01*
X20153Y91071D01*
X21156Y91841D01*
X21925Y92844D01*
X22409Y94011D01*
X22574Y95264D01*
X22775D01*
Y105264D01*
X22574D01*
X22409Y106517D01*
X21925Y107685D01*
X21156Y108688D01*
X20153Y109457D01*
X18985Y109941D01*
X17732Y110106D01*
X16479Y109941D01*
X16365Y109893D01*
X15488Y109597D01*
X14503Y109560D01*
X13900Y109555D01*
X12500Y109655D01*
Y122637D01*
X16427D01*
X16427Y122637D01*
X17396Y122712D01*
X17732Y122667D01*
X18985Y122832D01*
X20153Y123316D01*
X21156Y124085D01*
X21925Y125088D01*
X22409Y126256D01*
X22574Y127509D01*
X22775D01*
Y137509D01*
X22574D01*
X22409Y138762D01*
X21925Y139929D01*
X21156Y140932D01*
X20153Y141701D01*
X18985Y142185D01*
X17732Y142350D01*
X16479Y142185D01*
X16365Y142138D01*
X15488Y141841D01*
X14503Y141804D01*
X13900Y141800D01*
X12500Y141900D01*
Y155637D01*
X16427D01*
X16427Y155637D01*
X17396Y155711D01*
X17732Y155667D01*
X18985Y155832D01*
X20153Y156316D01*
X21156Y157085D01*
X21925Y158088D01*
X22409Y159256D01*
X22574Y160509D01*
X22775D01*
Y170509D01*
X22574D01*
X22409Y171762D01*
X21925Y172929D01*
X21156Y173932D01*
X20153Y174701D01*
X18985Y175185D01*
X17732Y175350D01*
X16479Y175185D01*
X16365Y175138D01*
X15488Y174841D01*
X14503Y174804D01*
X13900Y174800D01*
X12500Y174900D01*
Y188695D01*
X13000Y189487D01*
X13500Y189487D01*
X16927D01*
X16927Y189487D01*
X17896Y189561D01*
X18232Y189517D01*
X19485Y189682D01*
X20653Y190166D01*
X21656Y190935D01*
X22425Y191938D01*
X22909Y193106D01*
X23074Y194359D01*
X23275D01*
Y204359D01*
X23074D01*
X22909Y205612D01*
X22425Y206779D01*
X21656Y207782D01*
X20653Y208552D01*
X19485Y209035D01*
X18232Y209200D01*
X16979Y209035D01*
X16865Y208988D01*
X15988Y208691D01*
X15003Y208654D01*
X14400Y208650D01*
X13000Y208750D01*
X12500Y209557D01*
Y222887D01*
X16121D01*
X16121Y222887D01*
X17090Y222961D01*
X17426Y222917D01*
X18679Y223082D01*
X19847Y223566D01*
X20849Y224335D01*
X21619Y225338D01*
X22102Y226506D01*
X22267Y227759D01*
X22469D01*
Y237759D01*
X22267D01*
X22102Y239012D01*
X21619Y240179D01*
X20849Y241182D01*
X19847Y241951D01*
X18679Y242435D01*
X17426Y242600D01*
X16173Y242435D01*
X16059Y242388D01*
X15182Y242091D01*
X14197Y242054D01*
X13594Y242050D01*
X12500Y242128D01*
Y257578D01*
X15539D01*
X15539Y257578D01*
X16508Y257652D01*
X16844Y257608D01*
X18097Y257773D01*
X19265Y258257D01*
X20267Y259026D01*
X21037Y260029D01*
X21520Y261197D01*
X21686Y262450D01*
X21887D01*
Y272450D01*
X21686D01*
X21520Y273703D01*
X21037Y274870D01*
X20267Y275873D01*
X19265Y276642D01*
X18097Y277126D01*
X16844Y277291D01*
X15591Y277126D01*
X15477Y277079D01*
X14600Y276782D01*
X13615Y276745D01*
X13486Y276744D01*
X12548Y277464D01*
X12500Y277528D01*
Y292078D01*
X15539D01*
X15539Y292078D01*
X16508Y292152D01*
X16844Y292108D01*
X18097Y292273D01*
X19265Y292757D01*
X20267Y293526D01*
X21037Y294529D01*
X21520Y295697D01*
X21686Y296950D01*
X21887D01*
Y306950D01*
X21686D01*
X21520Y308203D01*
X21037Y309370D01*
X20267Y310373D01*
X19265Y311142D01*
X18097Y311626D01*
X16844Y311791D01*
X15591Y311626D01*
X15477Y311579D01*
X14600Y311282D01*
X13615Y311245D01*
X13486Y311244D01*
X12500Y312028D01*
Y332500D01*
X17500Y337500D01*
X30000D01*
X35000Y342500D01*
Y357500D01*
X37500Y360000D01*
X60878D01*
Y358061D01*
X60878Y358061D01*
X60952Y357092D01*
X60908Y356756D01*
X61073Y355503D01*
X61557Y354335D01*
X62326Y353332D01*
X63329Y352563D01*
X64497Y352080D01*
X65750Y351915D01*
Y351713D01*
X75750D01*
Y351915D01*
X77003Y352080D01*
X78170Y352563D01*
X79173Y353332D01*
X79942Y354335D01*
X80426Y355503D01*
X80591Y356756D01*
X80426Y358009D01*
X80379Y358123D01*
X80082Y359000D01*
X80559Y359802D01*
X80755Y360000D01*
X98878D01*
Y357561D01*
X98878Y357561D01*
X98952Y356592D01*
X98908Y356256D01*
X99073Y355003D01*
X99557Y353835D01*
X100326Y352833D01*
X101329Y352063D01*
X102497Y351579D01*
X103750Y351414D01*
Y351213D01*
X113750D01*
Y351414D01*
X115003Y351579D01*
X116170Y352063D01*
X117173Y352833D01*
X117942Y353835D01*
X118426Y355003D01*
X118591Y356256D01*
X118426Y357509D01*
X118379Y357623D01*
X118082Y358500D01*
X118047Y359290D01*
X118751Y360000D01*
X133587D01*
Y357273D01*
X133587Y357273D01*
X133661Y356304D01*
X133617Y355968D01*
X133782Y354715D01*
X134266Y353547D01*
X135035Y352544D01*
X136038Y351775D01*
X137206Y351291D01*
X138459Y351126D01*
Y350925D01*
X148459D01*
Y351126D01*
X149712Y351291D01*
X150879Y351775D01*
X151882Y352544D01*
X152651Y353547D01*
X153135Y354715D01*
X153300Y355968D01*
X153135Y357221D01*
X153088Y357335D01*
X152791Y358212D01*
X152756Y359003D01*
X153668Y360000D01*
X169916D01*
Y358035D01*
X169916Y358035D01*
X169990Y357066D01*
X169946Y356730D01*
X170110Y355477D01*
X170594Y354309D01*
X171364Y353307D01*
X172366Y352537D01*
X173534Y352053D01*
X174787Y351889D01*
Y351687D01*
X184787D01*
Y351889D01*
X186040Y352053D01*
X187208Y352537D01*
X188210Y353307D01*
X188980Y354309D01*
X189463Y355477D01*
X189628Y356730D01*
X189463Y357983D01*
X189416Y358097D01*
X189119Y358974D01*
X189578Y359784D01*
X189792Y360000D01*
X195000D01*
X197500Y357500D01*
D02*
G37*
%LPC*%
G36*
X168500Y138824D02*
X167769Y138728D01*
X167088Y138446D01*
X166503Y137997D01*
X166054Y137412D01*
X165772Y136731D01*
X165676Y136000D01*
X165772Y135269D01*
X166054Y134588D01*
X166503Y134003D01*
X167088Y133554D01*
X167769Y133272D01*
X168500Y133176D01*
X169231Y133272D01*
X169912Y133554D01*
X170497Y134003D01*
X170946Y134588D01*
X171228Y135269D01*
X171324Y136000D01*
X171228Y136731D01*
X170946Y137412D01*
X170497Y137997D01*
X169912Y138446D01*
X169231Y138728D01*
X168500Y138824D01*
D02*
G37*
G36*
X75500Y136039D02*
X74720Y135884D01*
X74058Y135442D01*
X73616Y134780D01*
X73461Y134000D01*
X73616Y133220D01*
X74058Y132558D01*
X74720Y132116D01*
X75500Y131961D01*
X76280Y132116D01*
X76942Y132558D01*
X77384Y133220D01*
X77539Y134000D01*
X77384Y134780D01*
X76942Y135442D01*
X76280Y135884D01*
X75500Y136039D01*
D02*
G37*
G36*
X112500Y137324D02*
X111769Y137228D01*
X111088Y136946D01*
X110503Y136497D01*
X110054Y135912D01*
X109772Y135231D01*
X109676Y134500D01*
X109772Y133769D01*
X110054Y133088D01*
X110503Y132503D01*
X111088Y132054D01*
X111769Y131772D01*
X112500Y131676D01*
X113231Y131772D01*
X113912Y132054D01*
X114497Y132503D01*
X114946Y133088D01*
X115228Y133769D01*
X115324Y134500D01*
X115228Y135231D01*
X114946Y135912D01*
X114497Y136497D01*
X113912Y136946D01*
X113231Y137228D01*
X112500Y137324D01*
D02*
G37*
G36*
X75500Y149539D02*
X74720Y149384D01*
X74058Y148942D01*
X73616Y148280D01*
X73461Y147500D01*
X73616Y146720D01*
X74058Y146058D01*
X74720Y145616D01*
X75500Y145461D01*
X76280Y145616D01*
X76942Y146058D01*
X77384Y146720D01*
X77539Y147500D01*
X77384Y148280D01*
X76942Y148942D01*
X76280Y149384D01*
X75500Y149539D01*
D02*
G37*
G36*
X153000Y148345D02*
X152103Y148167D01*
X151342Y147658D01*
X150833Y146897D01*
X150655Y146000D01*
X150833Y145103D01*
X151342Y144342D01*
X152103Y143833D01*
X153000Y143655D01*
X153897Y143833D01*
X154658Y144342D01*
X155167Y145103D01*
X155345Y146000D01*
X155167Y146897D01*
X154658Y147658D01*
X153897Y148167D01*
X153000Y148345D01*
D02*
G37*
G36*
X204800Y142134D02*
X203903Y141956D01*
X203142Y141448D01*
X202634Y140687D01*
X202455Y139789D01*
X202634Y138892D01*
X203142Y138131D01*
X203903Y137623D01*
X204800Y137444D01*
X205697Y137623D01*
X206458Y138131D01*
X206967Y138892D01*
X207145Y139789D01*
X206967Y140687D01*
X206458Y141448D01*
X205697Y141956D01*
X204800Y142134D01*
D02*
G37*
G36*
X206500Y121845D02*
X205603Y121667D01*
X204842Y121158D01*
X204333Y120397D01*
X204155Y119500D01*
X204333Y118603D01*
X204842Y117842D01*
X205603Y117333D01*
X206500Y117155D01*
X207397Y117333D01*
X208158Y117842D01*
X208667Y118603D01*
X208845Y119500D01*
X208667Y120397D01*
X208158Y121158D01*
X207397Y121667D01*
X206500Y121845D01*
D02*
G37*
G36*
X167900Y124345D02*
X167003Y124167D01*
X166242Y123658D01*
X165733Y122897D01*
X165555Y122000D01*
X165733Y121103D01*
X166242Y120342D01*
X167003Y119833D01*
X167714Y119692D01*
X167759Y119644D01*
X168047Y119093D01*
X168153Y118686D01*
X167916Y118331D01*
X167761Y117550D01*
X167916Y116770D01*
X168358Y116109D01*
X169020Y115666D01*
X169800Y115511D01*
X170580Y115666D01*
X171242Y116109D01*
X171684Y116770D01*
X171839Y117550D01*
X171684Y118331D01*
X171242Y118992D01*
X170580Y119434D01*
X170124Y119525D01*
X169930Y119805D01*
X169718Y120371D01*
X169699Y120552D01*
X170067Y121103D01*
X170245Y122000D01*
X170067Y122897D01*
X169558Y123658D01*
X168797Y124167D01*
X167900Y124345D01*
D02*
G37*
G36*
X24500Y119345D02*
X23603Y119167D01*
X22842Y118658D01*
X22333Y117897D01*
X22155Y117000D01*
X22333Y116103D01*
X22842Y115342D01*
X23603Y114833D01*
X24500Y114655D01*
X25397Y114833D01*
X26158Y115342D01*
X26667Y116103D01*
X26845Y117000D01*
X26667Y117897D01*
X26158Y118658D01*
X25397Y119167D01*
X24500Y119345D01*
D02*
G37*
G36*
X169500Y131039D02*
X168720Y130884D01*
X168058Y130442D01*
X167616Y129780D01*
X167461Y129000D01*
X167616Y128220D01*
X168058Y127558D01*
X168720Y127116D01*
X169500Y126961D01*
X170280Y127116D01*
X170942Y127558D01*
X171384Y128220D01*
X171539Y129000D01*
X171384Y129780D01*
X170942Y130442D01*
X170280Y130884D01*
X169500Y131039D01*
D02*
G37*
G36*
X185300Y135245D02*
X184403Y135067D01*
X183642Y134558D01*
X183133Y133797D01*
X182955Y132900D01*
X183133Y132003D01*
X183642Y131242D01*
X184370Y130755D01*
X184394Y130692D01*
X184410Y130592D01*
X184458Y129703D01*
X183942Y129358D01*
X183433Y128597D01*
X183255Y127700D01*
X183433Y126803D01*
X183942Y126042D01*
X184703Y125533D01*
X185600Y125355D01*
X186497Y125533D01*
X187258Y126042D01*
X187767Y126803D01*
X187945Y127700D01*
X187767Y128597D01*
X187258Y129358D01*
X186530Y129845D01*
X186506Y129908D01*
X186490Y130008D01*
X186442Y130897D01*
X186958Y131242D01*
X187467Y132003D01*
X187645Y132900D01*
X187467Y133797D01*
X186958Y134558D01*
X186197Y135067D01*
X185300Y135245D01*
D02*
G37*
G36*
X149500Y124000D02*
X146500D01*
X146000Y123500D01*
Y120500D01*
X147000Y119500D01*
X149500D01*
X150500Y120500D01*
Y123000D01*
X149500Y124000D01*
D02*
G37*
G36*
X237500Y169341D02*
X236377Y169193D01*
X235330Y168760D01*
X234430Y168070D01*
X233740Y167171D01*
X233307Y166124D01*
X233159Y165000D01*
X233307Y163876D01*
X233740Y162829D01*
X234430Y161930D01*
X235330Y161240D01*
X236377Y160807D01*
X237500Y160659D01*
X238623Y160807D01*
X239670Y161240D01*
X240570Y161930D01*
X241260Y162829D01*
X241693Y163876D01*
X241841Y165000D01*
X241693Y166124D01*
X241260Y167171D01*
X240570Y168070D01*
X239670Y168760D01*
X238623Y169193D01*
X237500Y169341D01*
D02*
G37*
G36*
X212700Y164539D02*
X211920Y164384D01*
X211258Y163942D01*
X210816Y163280D01*
X210661Y162500D01*
X210816Y161720D01*
X211258Y161058D01*
X211920Y160616D01*
X212700Y160461D01*
X213480Y160616D01*
X214142Y161058D01*
X214584Y161720D01*
X214739Y162500D01*
X214584Y163280D01*
X214142Y163942D01*
X213480Y164384D01*
X212700Y164539D01*
D02*
G37*
G36*
X191500Y164345D02*
X190603Y164167D01*
X189842Y163658D01*
X189333Y162897D01*
X189155Y162000D01*
X189333Y161103D01*
X189842Y160342D01*
X190603Y159833D01*
X191500Y159655D01*
X192397Y159833D01*
X193158Y160342D01*
X193667Y161103D01*
X193845Y162000D01*
X193667Y162897D01*
X193158Y163658D01*
X192397Y164167D01*
X191500Y164345D01*
D02*
G37*
G36*
X160150Y174324D02*
X159419Y174228D01*
X158738Y173946D01*
X158153Y173497D01*
X157704Y172912D01*
X157422Y172231D01*
X157325Y171500D01*
X157422Y170769D01*
X157704Y170088D01*
X158153Y169503D01*
X158738Y169054D01*
X159419Y168772D01*
X160150Y168676D01*
X160881Y168772D01*
X161562Y169054D01*
X162147Y169503D01*
X162595Y170088D01*
X162878Y170769D01*
X162974Y171500D01*
X162878Y172231D01*
X162595Y172912D01*
X162147Y173497D01*
X161562Y173946D01*
X160881Y174228D01*
X160150Y174324D01*
D02*
G37*
G36*
X165000Y165445D02*
X164103Y165267D01*
X163342Y164758D01*
X162833Y163997D01*
X162655Y163100D01*
X162833Y162203D01*
X163342Y161442D01*
X164103Y160933D01*
X165000Y160755D01*
X165897Y160933D01*
X166658Y161442D01*
X167167Y162203D01*
X167345Y163100D01*
X167167Y163997D01*
X166658Y164758D01*
X165897Y165267D01*
X165000Y165445D01*
D02*
G37*
G36*
X112000Y166324D02*
X111269Y166228D01*
X110588Y165946D01*
X110003Y165497D01*
X109554Y164912D01*
X109272Y164231D01*
X109176Y163500D01*
X109272Y162769D01*
X109554Y162088D01*
X110003Y161503D01*
X110588Y161054D01*
X111269Y160772D01*
X112000Y160676D01*
X112731Y160772D01*
X113412Y161054D01*
X113997Y161503D01*
X114446Y162088D01*
X114728Y162769D01*
X114824Y163500D01*
X114728Y164231D01*
X114446Y164912D01*
X113997Y165497D01*
X113412Y165946D01*
X112731Y166228D01*
X112000Y166324D01*
D02*
G37*
G36*
X241804Y159304D02*
X233196D01*
Y150696D01*
X241804D01*
Y159304D01*
D02*
G37*
G36*
X143000Y150045D02*
X142103Y149867D01*
X141342Y149358D01*
X140971Y148803D01*
X140190Y148665D01*
X139835Y148703D01*
X139742Y148842D01*
X139080Y149284D01*
X138300Y149439D01*
X137520Y149284D01*
X136858Y148842D01*
X136416Y148180D01*
X136261Y147400D01*
X136416Y146620D01*
X136722Y146162D01*
X136856Y145952D01*
X136568Y144949D01*
X136558Y144942D01*
X136116Y144280D01*
X135961Y143500D01*
X136116Y142720D01*
X136558Y142058D01*
X137220Y141616D01*
X138000Y141461D01*
X138780Y141616D01*
X139442Y142058D01*
X139884Y142720D01*
X140039Y143500D01*
X139884Y144280D01*
X139578Y144738D01*
X139444Y144948D01*
X139732Y145951D01*
X139742Y145958D01*
X139987Y146324D01*
X140956Y146412D01*
X141125Y146366D01*
X141342Y146042D01*
X142103Y145533D01*
X143000Y145355D01*
X143897Y145533D01*
X144658Y146042D01*
X145167Y146803D01*
X145345Y147700D01*
X145167Y148597D01*
X144658Y149358D01*
X143897Y149867D01*
X143000Y150045D01*
D02*
G37*
G36*
X25000Y151845D02*
X24103Y151667D01*
X23342Y151158D01*
X22833Y150397D01*
X22655Y149500D01*
X22833Y148603D01*
X23342Y147842D01*
X24103Y147333D01*
X25000Y147155D01*
X25897Y147333D01*
X26658Y147842D01*
X27167Y148603D01*
X27345Y149500D01*
X27167Y150397D01*
X26658Y151158D01*
X25897Y151667D01*
X25000Y151845D01*
D02*
G37*
G36*
X75000Y163039D02*
X74220Y162884D01*
X73558Y162442D01*
X73116Y161780D01*
X72961Y161000D01*
X73116Y160220D01*
X73558Y159558D01*
X74220Y159116D01*
X75000Y158961D01*
X75780Y159116D01*
X76442Y159558D01*
X76884Y160220D01*
X77039Y161000D01*
X76884Y161780D01*
X76442Y162442D01*
X75780Y162884D01*
X75000Y163039D01*
D02*
G37*
G36*
X199000Y158039D02*
X198220Y157884D01*
X197558Y157442D01*
X197116Y156780D01*
X196961Y156000D01*
X197116Y155220D01*
X197558Y154558D01*
X198220Y154116D01*
X199000Y153961D01*
X199780Y154116D01*
X200442Y154558D01*
X200884Y155220D01*
X201039Y156000D01*
X200884Y156780D01*
X200442Y157442D01*
X199780Y157884D01*
X199000Y158039D01*
D02*
G37*
G36*
X191000Y157539D02*
X190220Y157384D01*
X189558Y156942D01*
X189116Y156280D01*
X188961Y155500D01*
X189116Y154720D01*
X189558Y154058D01*
X190220Y153616D01*
X191000Y153461D01*
X191780Y153616D01*
X192442Y154058D01*
X192884Y154720D01*
X193039Y155500D01*
X192884Y156280D01*
X192442Y156942D01*
X191780Y157384D01*
X191000Y157539D01*
D02*
G37*
G36*
X80850Y117189D02*
X80070Y117034D01*
X79409Y116592D01*
X78966Y115930D01*
X78811Y115150D01*
X78966Y114369D01*
X79409Y113708D01*
X80070Y113266D01*
X80850Y113110D01*
X81631Y113266D01*
X82292Y113708D01*
X82734Y114369D01*
X82890Y115150D01*
X82734Y115930D01*
X82292Y116592D01*
X81631Y117034D01*
X80850Y117189D01*
D02*
G37*
G36*
X133000Y74039D02*
X132220Y73884D01*
X131558Y73442D01*
X131116Y72780D01*
X130961Y72000D01*
X131116Y71220D01*
X131558Y70558D01*
X132220Y70116D01*
X133000Y69961D01*
X133780Y70116D01*
X134442Y70558D01*
X134884Y71220D01*
X135039Y72000D01*
X134884Y72780D01*
X134442Y73442D01*
X133780Y73884D01*
X133000Y74039D01*
D02*
G37*
G36*
X118500D02*
X117720Y73884D01*
X117058Y73442D01*
X116616Y72780D01*
X116461Y72000D01*
X116616Y71220D01*
X117058Y70558D01*
X117720Y70116D01*
X118500Y69961D01*
X119280Y70116D01*
X119942Y70558D01*
X120384Y71220D01*
X120539Y72000D01*
X120384Y72780D01*
X119942Y73442D01*
X119280Y73884D01*
X118500Y74039D01*
D02*
G37*
G36*
X104500D02*
X103720Y73884D01*
X103058Y73442D01*
X102616Y72780D01*
X102461Y72000D01*
X102616Y71220D01*
X103058Y70558D01*
X103720Y70116D01*
X104500Y69961D01*
X105280Y70116D01*
X105942Y70558D01*
X106384Y71220D01*
X106539Y72000D01*
X106384Y72780D01*
X105942Y73442D01*
X105280Y73884D01*
X104500Y74039D01*
D02*
G37*
G36*
X193900Y86224D02*
X193169Y86128D01*
X192488Y85846D01*
X191903Y85397D01*
X191454Y84812D01*
X191172Y84131D01*
X191076Y83400D01*
X191172Y82669D01*
X191454Y81988D01*
X191903Y81403D01*
X192488Y80954D01*
X193169Y80672D01*
X193900Y80576D01*
X194631Y80672D01*
X195312Y80954D01*
X195897Y81403D01*
X196346Y81988D01*
X196628Y82669D01*
X196724Y83400D01*
X196628Y84131D01*
X196346Y84812D01*
X195897Y85397D01*
X195312Y85846D01*
X194631Y86128D01*
X193900Y86224D01*
D02*
G37*
G36*
X25200Y83239D02*
X24420Y83084D01*
X23758Y82642D01*
X23316Y81980D01*
X23161Y81200D01*
X23316Y80420D01*
X23758Y79758D01*
X24420Y79316D01*
X25200Y79161D01*
X25980Y79316D01*
X26642Y79758D01*
X27084Y80420D01*
X27239Y81200D01*
X27084Y81980D01*
X26642Y82642D01*
X25980Y83084D01*
X25200Y83239D01*
D02*
G37*
G36*
X147000Y74039D02*
X146220Y73884D01*
X145558Y73442D01*
X145116Y72780D01*
X144961Y72000D01*
X145116Y71220D01*
X145558Y70558D01*
X146220Y70116D01*
X147000Y69961D01*
X147780Y70116D01*
X148442Y70558D01*
X148884Y71220D01*
X149039Y72000D01*
X148884Y72780D01*
X148442Y73442D01*
X147780Y73884D01*
X147000Y74039D01*
D02*
G37*
G36*
X66000Y27845D02*
X65103Y27667D01*
X64342Y27158D01*
X63833Y26397D01*
X63655Y25500D01*
X63833Y24603D01*
X64342Y23842D01*
X65103Y23333D01*
X66000Y23155D01*
X66897Y23333D01*
X67658Y23842D01*
X68167Y24603D01*
X68345Y25500D01*
X68167Y26397D01*
X67658Y27158D01*
X66897Y27667D01*
X66000Y27845D01*
D02*
G37*
G36*
X126791Y27054D02*
X125894Y26875D01*
X125133Y26367D01*
X124625Y25606D01*
X124446Y24709D01*
X124625Y23811D01*
X125133Y23051D01*
X125894Y22542D01*
X126791Y22364D01*
X127689Y22542D01*
X128449Y23051D01*
X128958Y23811D01*
X129136Y24709D01*
X128958Y25606D01*
X128449Y26367D01*
X127689Y26875D01*
X126791Y27054D01*
D02*
G37*
G36*
X97000Y26345D02*
X96103Y26167D01*
X95342Y25658D01*
X94833Y24897D01*
X94655Y24000D01*
X94833Y23103D01*
X95342Y22342D01*
X96103Y21833D01*
X97000Y21655D01*
X97897Y21833D01*
X98658Y22342D01*
X99167Y23103D01*
X99345Y24000D01*
X99167Y24897D01*
X98658Y25658D01*
X97897Y26167D01*
X97000Y26345D01*
D02*
G37*
G36*
X195400Y67974D02*
X194669Y67878D01*
X193988Y67595D01*
X193403Y67147D01*
X192954Y66562D01*
X192672Y65881D01*
X192576Y65150D01*
X192672Y64419D01*
X192954Y63737D01*
X193403Y63153D01*
X193988Y62704D01*
X194669Y62422D01*
X195400Y62326D01*
X196131Y62422D01*
X196812Y62704D01*
X197397Y63153D01*
X197846Y63737D01*
X198128Y64419D01*
X198224Y65150D01*
X198128Y65881D01*
X197846Y66562D01*
X197397Y67147D01*
X196812Y67595D01*
X196131Y67878D01*
X195400Y67974D01*
D02*
G37*
G36*
X213000Y65345D02*
X212103Y65166D01*
X211342Y64658D01*
X210833Y63897D01*
X210655Y63000D01*
X210833Y62103D01*
X211342Y61342D01*
X212103Y60834D01*
X213000Y60655D01*
X213897Y60834D01*
X214658Y61342D01*
X215167Y62103D01*
X215345Y63000D01*
X215167Y63897D01*
X214658Y64658D01*
X213897Y65166D01*
X213000Y65345D01*
D02*
G37*
G36*
X160791Y28245D02*
X159894Y28067D01*
X159133Y27558D01*
X158625Y26797D01*
X158446Y25900D01*
X158625Y25003D01*
X159133Y24242D01*
X159894Y23733D01*
X160791Y23555D01*
X161689Y23733D01*
X162450Y24242D01*
X162958Y25003D01*
X163136Y25900D01*
X162958Y26797D01*
X162450Y27558D01*
X161689Y28067D01*
X160791Y28245D01*
D02*
G37*
G36*
X211000Y106845D02*
X210103Y106667D01*
X209342Y106158D01*
X208833Y105397D01*
X208655Y104500D01*
X208833Y103603D01*
X209342Y102842D01*
X210103Y102333D01*
X211000Y102155D01*
X211897Y102333D01*
X212658Y102842D01*
X213167Y103603D01*
X213345Y104500D01*
X213167Y105397D01*
X212658Y106158D01*
X211897Y106667D01*
X211000Y106845D01*
D02*
G37*
G36*
X161591Y107324D02*
X160860Y107228D01*
X160179Y106946D01*
X159594Y106497D01*
X159145Y105912D01*
X158863Y105231D01*
X158767Y104500D01*
X158863Y103769D01*
X159145Y103088D01*
X159594Y102503D01*
X160179Y102054D01*
X160860Y101772D01*
X161591Y101676D01*
X162322Y101772D01*
X163003Y102054D01*
X163588Y102503D01*
X164037Y103088D01*
X164319Y103769D01*
X164415Y104500D01*
X164319Y105231D01*
X164037Y105912D01*
X163588Y106497D01*
X163003Y106946D01*
X162322Y107228D01*
X161591Y107324D01*
D02*
G37*
G36*
X188500Y104339D02*
X187720Y104184D01*
X187058Y103742D01*
X186616Y103080D01*
X186461Y102300D01*
X186616Y101520D01*
X187058Y100858D01*
X187720Y100416D01*
X188500Y100261D01*
X189280Y100416D01*
X189942Y100858D01*
X190384Y101520D01*
X190539Y102300D01*
X190384Y103080D01*
X189942Y103742D01*
X189280Y104184D01*
X188500Y104339D01*
D02*
G37*
G36*
X215942Y116481D02*
X215162Y116326D01*
X214500Y115884D01*
X214058Y115222D01*
X213903Y114442D01*
X214058Y113662D01*
X214500Y113000D01*
X215162Y112558D01*
X215942Y112403D01*
X216722Y112558D01*
X217384Y113000D01*
X217826Y113662D01*
X217981Y114442D01*
X217826Y115222D01*
X217384Y115884D01*
X216722Y116326D01*
X215942Y116481D01*
D02*
G37*
G36*
X207500Y112845D02*
X206603Y112667D01*
X205842Y112158D01*
X205333Y111397D01*
X205155Y110500D01*
X205333Y109603D01*
X205842Y108842D01*
X206603Y108333D01*
X207500Y108155D01*
X208397Y108333D01*
X209158Y108842D01*
X209667Y109603D01*
X209845Y110500D01*
X209667Y111397D01*
X209158Y112158D01*
X208397Y112667D01*
X207500Y112845D01*
D02*
G37*
G36*
X175100Y109945D02*
X174203Y109767D01*
X173442Y109258D01*
X172933Y108497D01*
X172755Y107600D01*
X172933Y106703D01*
X173442Y105942D01*
X174203Y105433D01*
X175100Y105255D01*
X175997Y105433D01*
X176758Y105942D01*
X177267Y106703D01*
X177445Y107600D01*
X177267Y108497D01*
X176758Y109258D01*
X175997Y109767D01*
X175100Y109945D01*
D02*
G37*
G36*
X165300Y100424D02*
X164569Y100328D01*
X163888Y100046D01*
X163303Y99597D01*
X162854Y99012D01*
X162572Y98331D01*
X162476Y97600D01*
X162572Y96869D01*
X162854Y96188D01*
X163303Y95603D01*
X163888Y95154D01*
X164569Y94872D01*
X165300Y94776D01*
X166031Y94872D01*
X166712Y95154D01*
X167297Y95603D01*
X167746Y96188D01*
X168028Y96869D01*
X168124Y97600D01*
X168028Y98331D01*
X167746Y99012D01*
X167297Y99597D01*
X166712Y100046D01*
X166031Y100328D01*
X165300Y100424D01*
D02*
G37*
G36*
X174600Y91345D02*
X173703Y91167D01*
X172942Y90658D01*
X172433Y89897D01*
X172255Y89000D01*
X172433Y88103D01*
X172942Y87342D01*
X173703Y86834D01*
X174600Y86655D01*
X175497Y86834D01*
X176258Y87342D01*
X176767Y88103D01*
X176945Y89000D01*
X176767Y89897D01*
X176258Y90658D01*
X175497Y91167D01*
X174600Y91345D01*
D02*
G37*
G36*
X170000Y86539D02*
X169220Y86384D01*
X168558Y85942D01*
X168116Y85280D01*
X167961Y84500D01*
X168116Y83720D01*
X168558Y83058D01*
X169220Y82616D01*
X170000Y82461D01*
X170780Y82616D01*
X171442Y83058D01*
X171884Y83720D01*
X172039Y84500D01*
X171884Y85280D01*
X171442Y85942D01*
X170780Y86384D01*
X170000Y86539D01*
D02*
G37*
G36*
X140969Y107071D02*
X140188Y106915D01*
X139527Y106473D01*
X139084Y105812D01*
X138929Y105032D01*
X139084Y104251D01*
X139527Y103590D01*
X140188Y103147D01*
X140245Y103136D01*
X140969Y102840D01*
X140971Y102050D01*
X140961Y102000D01*
X141116Y101220D01*
X141558Y100558D01*
X142220Y100116D01*
X143000Y99961D01*
X143780Y100116D01*
X144442Y100558D01*
X144884Y101220D01*
X145039Y102000D01*
X144884Y102780D01*
X144442Y103442D01*
X143780Y103884D01*
X143724Y103895D01*
X143000Y104191D01*
X142998Y104982D01*
X143008Y105032D01*
X142852Y105812D01*
X142410Y106473D01*
X141749Y106915D01*
X140969Y107071D01*
D02*
G37*
G36*
X148843Y106539D02*
X148062Y106384D01*
X147401Y105942D01*
X146959Y105280D01*
X146803Y104500D01*
X146959Y103720D01*
X147176Y103395D01*
X147206Y102706D01*
X146915Y102180D01*
X146558Y101942D01*
X146116Y101280D01*
X145961Y100500D01*
X146116Y99720D01*
X146558Y99058D01*
X147220Y98616D01*
X148000Y98461D01*
X148780Y98616D01*
X149442Y99058D01*
X149884Y99720D01*
X150039Y100500D01*
X149884Y101280D01*
X149667Y101605D01*
X149637Y102294D01*
X149928Y102820D01*
X150284Y103058D01*
X150726Y103720D01*
X150882Y104500D01*
X150726Y105280D01*
X150284Y105942D01*
X149623Y106384D01*
X148843Y106539D01*
D02*
G37*
G36*
X175100Y99845D02*
X174203Y99667D01*
X173442Y99158D01*
X172933Y98397D01*
X172755Y97500D01*
X172933Y96603D01*
X173442Y95842D01*
X174203Y95333D01*
X175100Y95155D01*
X175997Y95333D01*
X176758Y95842D01*
X177267Y96603D01*
X177445Y97500D01*
X177267Y98397D01*
X176758Y99158D01*
X175997Y99667D01*
X175100Y99845D01*
D02*
G37*
G36*
X154300Y258645D02*
X153403Y258467D01*
X152642Y257958D01*
X152133Y257197D01*
X151955Y256300D01*
X151000Y256145D01*
X150103Y255967D01*
X149342Y255458D01*
X148833Y254697D01*
X148733Y254191D01*
X148705Y254165D01*
X147750Y253768D01*
X147706Y253766D01*
X147380Y253984D01*
X146600Y254139D01*
X145820Y253984D01*
X145158Y253542D01*
X144716Y252880D01*
X144561Y252100D01*
X144716Y251320D01*
X145158Y250658D01*
X145820Y250216D01*
X146600Y250061D01*
X147380Y250216D01*
X148042Y250658D01*
X148484Y251320D01*
X148534Y251571D01*
X148737Y251714D01*
X149608Y251964D01*
X150103Y251633D01*
X151000Y251455D01*
X151897Y251633D01*
X152248Y251867D01*
X153055Y251204D01*
X152905Y250842D01*
X152809Y250111D01*
X152905Y249380D01*
X153187Y248699D01*
X153636Y248114D01*
X154221Y247665D01*
X154902Y247383D01*
X155633Y247287D01*
X156364Y247383D01*
X157045Y247665D01*
X157630Y248114D01*
X158079Y248699D01*
X158361Y249380D01*
X158457Y250111D01*
X158361Y250842D01*
X158079Y251523D01*
X157630Y252108D01*
X157045Y252557D01*
X156364Y252839D01*
X155633Y252935D01*
X154902Y252839D01*
X154320Y252598D01*
X153988Y252762D01*
X153456Y253230D01*
X153623Y253845D01*
X154300Y253955D01*
X155197Y254133D01*
X155958Y254642D01*
X156467Y255403D01*
X156645Y256300D01*
X156467Y257197D01*
X155958Y257958D01*
X155197Y258467D01*
X154300Y258645D01*
D02*
G37*
G36*
X23800Y251245D02*
X22903Y251067D01*
X22142Y250558D01*
X21633Y249797D01*
X21455Y248900D01*
X21633Y248003D01*
X22142Y247242D01*
X22903Y246733D01*
X23800Y246555D01*
X24697Y246733D01*
X25458Y247242D01*
X25967Y248003D01*
X26145Y248900D01*
X25967Y249797D01*
X25458Y250558D01*
X24697Y251067D01*
X23800Y251245D01*
D02*
G37*
G36*
X79500Y250945D02*
X78603Y250767D01*
X77842Y250258D01*
X77333Y249497D01*
X77155Y248600D01*
X77333Y247703D01*
X77842Y246942D01*
X78603Y246433D01*
X79500Y246255D01*
X80397Y246433D01*
X81158Y246942D01*
X81666Y247703D01*
X81845Y248600D01*
X81666Y249497D01*
X81158Y250258D01*
X80397Y250767D01*
X79500Y250945D01*
D02*
G37*
G36*
X136533Y257050D02*
X135753Y256895D01*
X135091Y256453D01*
X134952Y256245D01*
X134418Y255838D01*
X133671Y255990D01*
X133513Y256095D01*
X132733Y256250D01*
X131953Y256095D01*
X131291Y255653D01*
X130849Y254991D01*
X130694Y254211D01*
X130849Y253431D01*
X131291Y252769D01*
X131953Y252327D01*
X132733Y252172D01*
X133513Y252327D01*
X134175Y252769D01*
X134314Y252977D01*
X134842Y253380D01*
X135758Y253111D01*
X136132Y252032D01*
X136088Y251811D01*
X136267Y250914D01*
X136775Y250153D01*
X137536Y249644D01*
X138433Y249466D01*
X139330Y249644D01*
X140091Y250153D01*
X140600Y250914D01*
X140778Y251811D01*
X140600Y252708D01*
X140091Y253469D01*
X139330Y253978D01*
X139310Y253982D01*
X138444Y254223D01*
X138572Y255011D01*
X138417Y255791D01*
X137975Y256453D01*
X137313Y256895D01*
X136533Y257050D01*
D02*
G37*
G36*
X142333Y259845D02*
X141436Y259667D01*
X140675Y259158D01*
X140166Y258397D01*
X139988Y257500D01*
X140166Y256603D01*
X140675Y255842D01*
X141436Y255333D01*
X142333Y255155D01*
X143230Y255333D01*
X143991Y255842D01*
X144500Y256603D01*
X144678Y257500D01*
X144500Y258397D01*
X143991Y259158D01*
X143230Y259667D01*
X142333Y259845D01*
D02*
G37*
G36*
X205150Y259195D02*
X204252Y259017D01*
X203491Y258509D01*
X202983Y257748D01*
X202804Y256850D01*
X202983Y255953D01*
X203491Y255192D01*
X204252Y254684D01*
X205150Y254505D01*
X206047Y254684D01*
X206808Y255192D01*
X207316Y255953D01*
X207495Y256850D01*
X207316Y257748D01*
X206808Y258509D01*
X206047Y259017D01*
X205150Y259195D01*
D02*
G37*
G36*
X173833Y242156D02*
X172936Y241978D01*
X172175Y241469D01*
X171667Y240708D01*
X171488Y239811D01*
X171667Y238914D01*
X172175Y238153D01*
X172936Y237645D01*
X173833Y237466D01*
X174731Y237645D01*
X175491Y238153D01*
X176000Y238914D01*
X176178Y239811D01*
X176000Y240708D01*
X175491Y241469D01*
X174731Y241978D01*
X173833Y242156D01*
D02*
G37*
G36*
X179000Y238845D02*
X178103Y238667D01*
X177342Y238158D01*
X176833Y237397D01*
X176655Y236500D01*
X176833Y235603D01*
X177342Y234842D01*
X178103Y234333D01*
X179000Y234155D01*
X179897Y234333D01*
X180658Y234842D01*
X181167Y235603D01*
X181345Y236500D01*
X181167Y237397D01*
X180658Y238158D01*
X179897Y238667D01*
X179000Y238845D01*
D02*
G37*
G36*
X190500Y238345D02*
X189603Y238167D01*
X188842Y237658D01*
X188333Y236897D01*
X188155Y236000D01*
X188333Y235103D01*
X188842Y234342D01*
X189603Y233833D01*
X190500Y233655D01*
X191397Y233833D01*
X192158Y234342D01*
X192667Y235103D01*
X192845Y236000D01*
X192667Y236897D01*
X192158Y237658D01*
X191397Y238167D01*
X190500Y238345D01*
D02*
G37*
G36*
X106000Y248824D02*
X105269Y248728D01*
X104588Y248446D01*
X104003Y247997D01*
X103554Y247412D01*
X103272Y246731D01*
X103176Y246000D01*
X103272Y245269D01*
X103554Y244588D01*
X104003Y244003D01*
X104588Y243554D01*
X105269Y243272D01*
X106000Y243176D01*
X106731Y243272D01*
X107412Y243554D01*
X107997Y244003D01*
X108446Y244588D01*
X108728Y245269D01*
X108824Y246000D01*
X108728Y246731D01*
X108446Y247412D01*
X107997Y247997D01*
X107412Y248446D01*
X106731Y248728D01*
X106000Y248824D01*
D02*
G37*
G36*
X210000Y247845D02*
X209103Y247667D01*
X208342Y247158D01*
X207833Y246397D01*
X207655Y245500D01*
X207833Y244603D01*
X208342Y243842D01*
X209103Y243333D01*
X210000Y243155D01*
X210897Y243333D01*
X211658Y243842D01*
X212167Y244603D01*
X212345Y245500D01*
X212167Y246397D01*
X211658Y247158D01*
X210897Y247667D01*
X210000Y247845D01*
D02*
G37*
G36*
X187000Y243039D02*
X186220Y242884D01*
X185558Y242442D01*
X185116Y241780D01*
X184961Y241000D01*
X185116Y240220D01*
X185558Y239558D01*
X186220Y239116D01*
X187000Y238961D01*
X187780Y239116D01*
X188442Y239558D01*
X188884Y240220D01*
X189039Y241000D01*
X188884Y241780D01*
X188442Y242442D01*
X187780Y242884D01*
X187000Y243039D01*
D02*
G37*
G36*
X29100Y320695D02*
X28203Y320516D01*
X27442Y320008D01*
X26933Y319247D01*
X26755Y318350D01*
X26933Y317452D01*
X27442Y316691D01*
X28203Y316183D01*
X29100Y316005D01*
X29997Y316183D01*
X30758Y316691D01*
X31267Y317452D01*
X31445Y318350D01*
X31267Y319247D01*
X30758Y320008D01*
X29997Y320516D01*
X29100Y320695D01*
D02*
G37*
G36*
X142622Y298350D02*
X141842Y298195D01*
X141180Y297753D01*
X140738Y297091D01*
X140583Y296311D01*
X140738Y295531D01*
X141180Y294869D01*
X141842Y294427D01*
X142622Y294272D01*
X143402Y294427D01*
X144064Y294869D01*
X144506Y295531D01*
X144661Y296311D01*
X144506Y297091D01*
X144064Y297753D01*
X143402Y298195D01*
X142622Y298350D01*
D02*
G37*
G36*
X158122Y297850D02*
X157342Y297695D01*
X156680Y297253D01*
X156238Y296591D01*
X156083Y295811D01*
X156238Y295031D01*
X156680Y294369D01*
X157342Y293927D01*
X158122Y293772D01*
X158902Y293927D01*
X159564Y294369D01*
X160006Y295031D01*
X160161Y295811D01*
X160006Y296591D01*
X159564Y297253D01*
X158902Y297695D01*
X158122Y297850D01*
D02*
G37*
G36*
X159500Y348845D02*
X158603Y348667D01*
X157842Y348158D01*
X157333Y347397D01*
X157155Y346500D01*
X157333Y345603D01*
X157842Y344842D01*
X158603Y344333D01*
X159500Y344155D01*
X160397Y344333D01*
X161158Y344842D01*
X161667Y345603D01*
X161845Y346500D01*
X161667Y347397D01*
X161158Y348158D01*
X160397Y348667D01*
X159500Y348845D01*
D02*
G37*
G36*
X125358Y347136D02*
X124461Y346958D01*
X123700Y346449D01*
X123192Y345689D01*
X123013Y344791D01*
X123192Y343894D01*
X123700Y343133D01*
X124461Y342625D01*
X125358Y342446D01*
X126256Y342625D01*
X127016Y343133D01*
X127525Y343894D01*
X127703Y344791D01*
X127525Y345689D01*
X127016Y346449D01*
X126256Y346958D01*
X125358Y347136D01*
D02*
G37*
G36*
X87358Y346554D02*
X86461Y346375D01*
X85700Y345867D01*
X85192Y345106D01*
X85013Y344209D01*
X85192Y343311D01*
X85700Y342550D01*
X86461Y342042D01*
X87358Y341864D01*
X88256Y342042D01*
X89016Y342550D01*
X89525Y343311D01*
X89703Y344209D01*
X89525Y345106D01*
X89016Y345867D01*
X88256Y346375D01*
X87358Y346554D01*
D02*
G37*
G36*
X111000Y270345D02*
X110103Y270167D01*
X109342Y269658D01*
X108888Y268979D01*
X108673Y268863D01*
X107769Y268672D01*
X107412Y268946D01*
X106731Y269228D01*
X106000Y269324D01*
X105269Y269228D01*
X104588Y268946D01*
X104003Y268497D01*
X103554Y267912D01*
X103272Y267231D01*
X103176Y266500D01*
X103272Y265769D01*
X103554Y265088D01*
X104003Y264503D01*
X104588Y264054D01*
X105269Y263772D01*
X106000Y263676D01*
X106731Y263772D01*
X107412Y264054D01*
X107997Y264503D01*
X108446Y265088D01*
X108684Y265663D01*
X109120Y265875D01*
X109774Y266053D01*
X110103Y265833D01*
X111000Y265655D01*
X111897Y265833D01*
X112658Y266342D01*
X113167Y267103D01*
X113345Y268000D01*
X113167Y268897D01*
X112658Y269658D01*
X111897Y270167D01*
X111000Y270345D01*
D02*
G37*
G36*
X174000Y272024D02*
X173269Y271928D01*
X172588Y271646D01*
X172003Y271197D01*
X171554Y270612D01*
X171272Y269931D01*
X171176Y269200D01*
X171272Y268469D01*
X171554Y267788D01*
X172003Y267203D01*
X172588Y266754D01*
X173269Y266472D01*
X174000Y266376D01*
X174731Y266472D01*
X175412Y266754D01*
X175997Y267203D01*
X176446Y267788D01*
X176728Y268469D01*
X176824Y269200D01*
X176728Y269931D01*
X176446Y270612D01*
X175997Y271197D01*
X175412Y271646D01*
X174731Y271928D01*
X174000Y272024D01*
D02*
G37*
G36*
X86700Y268545D02*
X85803Y268367D01*
X85042Y267858D01*
X84534Y267097D01*
X84355Y266200D01*
X84534Y265303D01*
X85042Y264542D01*
X85803Y264033D01*
X86700Y263855D01*
X87597Y264033D01*
X88358Y264542D01*
X88867Y265303D01*
X89045Y266200D01*
X88867Y267097D01*
X88358Y267858D01*
X87597Y268367D01*
X86700Y268545D01*
D02*
G37*
G36*
X128122Y297850D02*
X127342Y297695D01*
X126680Y297253D01*
X126238Y296591D01*
X126083Y295811D01*
X126238Y295031D01*
X126680Y294369D01*
X127342Y293927D01*
X128122Y293772D01*
X128902Y293927D01*
X129564Y294369D01*
X130006Y295031D01*
X130161Y295811D01*
X130006Y296591D01*
X129564Y297253D01*
X128902Y297695D01*
X128122Y297850D01*
D02*
G37*
G36*
X113622D02*
X112842Y297695D01*
X112180Y297253D01*
X111738Y296591D01*
X111583Y295811D01*
X111738Y295031D01*
X112180Y294369D01*
X112842Y293927D01*
X113622Y293772D01*
X114402Y293927D01*
X115064Y294369D01*
X115506Y295031D01*
X115661Y295811D01*
X115506Y296591D01*
X115064Y297253D01*
X114402Y297695D01*
X113622Y297850D01*
D02*
G37*
G36*
X28100Y288195D02*
X27203Y288016D01*
X26442Y287508D01*
X25933Y286747D01*
X25755Y285850D01*
X25933Y284952D01*
X26442Y284191D01*
X27203Y283683D01*
X28100Y283505D01*
X28997Y283683D01*
X29758Y284191D01*
X30267Y284952D01*
X30445Y285850D01*
X30267Y286747D01*
X29758Y287508D01*
X28997Y288016D01*
X28100Y288195D01*
D02*
G37*
G36*
X173833Y235356D02*
X172936Y235178D01*
X172175Y234669D01*
X171667Y233908D01*
X171488Y233011D01*
X171667Y232114D01*
X172175Y231353D01*
X172936Y230844D01*
X173833Y230666D01*
X174731Y230844D01*
X175491Y231353D01*
X176000Y232114D01*
X176178Y233011D01*
X176000Y233908D01*
X175491Y234669D01*
X174731Y235178D01*
X173833Y235356D01*
D02*
G37*
G36*
X153500Y186196D02*
X152603Y186017D01*
X151842Y185509D01*
X151333Y184748D01*
X151155Y183850D01*
X151333Y182953D01*
X151842Y182192D01*
X152603Y181684D01*
X153500Y181505D01*
X154397Y181684D01*
X155158Y182192D01*
X155667Y182953D01*
X155845Y183850D01*
X155667Y184748D01*
X155158Y185509D01*
X154397Y186017D01*
X153500Y186196D01*
D02*
G37*
G36*
X237500Y189341D02*
X236377Y189193D01*
X235330Y188760D01*
X234430Y188070D01*
X233740Y187171D01*
X233307Y186124D01*
X233159Y185000D01*
X233307Y183876D01*
X233740Y182829D01*
X234430Y181930D01*
X235330Y181240D01*
X236377Y180807D01*
X237500Y180659D01*
X238623Y180807D01*
X239670Y181240D01*
X240570Y181930D01*
X241260Y182829D01*
X241693Y183876D01*
X241841Y185000D01*
X241693Y186124D01*
X241260Y187171D01*
X240570Y188070D01*
X239670Y188760D01*
X238623Y189193D01*
X237500Y189341D01*
D02*
G37*
G36*
X167000Y184845D02*
X166103Y184667D01*
X165342Y184158D01*
X164833Y183397D01*
X164655Y182500D01*
X164833Y181603D01*
X165342Y180842D01*
X166103Y180333D01*
X167000Y180155D01*
X167897Y180333D01*
X168658Y180842D01*
X169167Y181603D01*
X169345Y182500D01*
X169167Y183397D01*
X168658Y184158D01*
X167897Y184667D01*
X167000Y184845D01*
D02*
G37*
G36*
X72720Y203760D02*
X71940Y203604D01*
X71279Y203162D01*
X70837Y202501D01*
X70681Y201720D01*
X70837Y200940D01*
X71279Y200279D01*
X71940Y199837D01*
X72720Y199681D01*
X73501Y199837D01*
X74162Y200279D01*
X74604Y200940D01*
X74760Y201720D01*
X74604Y202501D01*
X74162Y203162D01*
X73501Y203604D01*
X72720Y203760D01*
D02*
G37*
G36*
X237500Y199341D02*
X236377Y199193D01*
X235330Y198759D01*
X234430Y198070D01*
X233740Y197170D01*
X233307Y196124D01*
X233159Y195000D01*
X233307Y193876D01*
X233740Y192830D01*
X234430Y191930D01*
X235330Y191241D01*
X236377Y190807D01*
X237500Y190659D01*
X238623Y190807D01*
X239670Y191241D01*
X240570Y191930D01*
X241260Y192830D01*
X241693Y193876D01*
X241841Y195000D01*
X241693Y196124D01*
X241260Y197170D01*
X240570Y198070D01*
X239670Y198759D01*
X238623Y199193D01*
X237500Y199341D01*
D02*
G37*
G36*
X72000Y192845D02*
X71103Y192667D01*
X70342Y192158D01*
X69833Y191397D01*
X69655Y190500D01*
X69833Y189603D01*
X70342Y188842D01*
X71103Y188333D01*
X71473Y188260D01*
Y187240D01*
X71103Y187167D01*
X70342Y186658D01*
X69833Y185897D01*
X69655Y185000D01*
X69833Y184103D01*
X70342Y183342D01*
X71103Y182833D01*
X72000Y182655D01*
X72897Y182833D01*
X73658Y183342D01*
X74167Y184103D01*
X74345Y185000D01*
X74167Y185897D01*
X73658Y186658D01*
X72897Y187167D01*
X72527Y187240D01*
Y188260D01*
X72897Y188333D01*
X73658Y188842D01*
X74167Y189603D01*
X74345Y190500D01*
X74167Y191397D01*
X73658Y192158D01*
X72897Y192667D01*
X72000Y192845D01*
D02*
G37*
G36*
X144500Y177345D02*
X143603Y177167D01*
X142842Y176658D01*
X142333Y175897D01*
X142155Y175000D01*
X142333Y174103D01*
X142842Y173342D01*
X143603Y172833D01*
X144500Y172655D01*
X145397Y172833D01*
X146158Y173342D01*
X146667Y174103D01*
X146845Y175000D01*
X146667Y175897D01*
X146158Y176658D01*
X145397Y177167D01*
X144500Y177345D01*
D02*
G37*
G36*
X78000Y192845D02*
X77103Y192667D01*
X76342Y192158D01*
X75833Y191397D01*
X75655Y190500D01*
X75833Y189603D01*
X76342Y188842D01*
X77103Y188333D01*
X77473Y188260D01*
Y187240D01*
X77103Y187167D01*
X76342Y186658D01*
X75833Y185897D01*
X75655Y185000D01*
X75833Y184103D01*
X76342Y183342D01*
X77103Y182833D01*
X77211Y182812D01*
X77178Y181799D01*
X76247Y181676D01*
X75079Y181193D01*
X74077Y180423D01*
X73307Y179421D01*
X72824Y178253D01*
X72659Y177000D01*
X72824Y175747D01*
X73307Y174579D01*
X74077Y173577D01*
X75079Y172807D01*
X76247Y172324D01*
X77500Y172159D01*
X78753Y172324D01*
X79921Y172807D01*
X80923Y173577D01*
X81693Y174579D01*
X82176Y175747D01*
X82341Y177000D01*
X82176Y178253D01*
X81693Y179421D01*
X80923Y180423D01*
X79921Y181193D01*
X78753Y181676D01*
X78424Y181720D01*
X78391Y182733D01*
X78897Y182833D01*
X79658Y183342D01*
X80167Y184103D01*
X80345Y185000D01*
X80167Y185897D01*
X79658Y186658D01*
X78897Y187167D01*
X78527Y187240D01*
Y188260D01*
X78897Y188333D01*
X79658Y188842D01*
X80167Y189603D01*
X80345Y190500D01*
X80167Y191397D01*
X79658Y192158D01*
X78897Y192667D01*
X78000Y192845D01*
D02*
G37*
G36*
X237500Y179341D02*
X236377Y179193D01*
X235330Y178760D01*
X234430Y178070D01*
X233740Y177171D01*
X233307Y176124D01*
X233159Y175000D01*
X233307Y173876D01*
X233740Y172829D01*
X234430Y171930D01*
X235330Y171240D01*
X236377Y170807D01*
X237500Y170659D01*
X238623Y170807D01*
X239670Y171240D01*
X240570Y171930D01*
X241260Y172829D01*
X241693Y173876D01*
X241841Y175000D01*
X241693Y176124D01*
X241260Y177171D01*
X240570Y178070D01*
X239670Y178760D01*
X238623Y179193D01*
X237500Y179341D01*
D02*
G37*
G36*
X25709Y184554D02*
X24811Y184375D01*
X24050Y183867D01*
X23542Y183106D01*
X23364Y182209D01*
X23542Y181311D01*
X24050Y180551D01*
X24811Y180042D01*
X25709Y179864D01*
X26606Y180042D01*
X27367Y180551D01*
X27875Y181311D01*
X28054Y182209D01*
X27875Y183106D01*
X27367Y183867D01*
X26606Y184375D01*
X25709Y184554D01*
D02*
G37*
G36*
X172500Y183345D02*
X171603Y183167D01*
X170842Y182658D01*
X170333Y181897D01*
X170155Y181000D01*
X170333Y180103D01*
X170842Y179342D01*
X171603Y178833D01*
X172500Y178655D01*
X173397Y178833D01*
X174158Y179342D01*
X174667Y180103D01*
X174845Y181000D01*
X174667Y181897D01*
X174158Y182658D01*
X173397Y183167D01*
X172500Y183345D01*
D02*
G37*
G36*
X177000Y178845D02*
X176103Y178667D01*
X175342Y178158D01*
X174833Y177397D01*
X174719Y176821D01*
X174106Y176333D01*
X173694Y176207D01*
X173000Y176345D01*
X172103Y176167D01*
X171342Y175658D01*
X170833Y174897D01*
X170655Y174000D01*
X170833Y173103D01*
X171342Y172342D01*
X172103Y171833D01*
X173000Y171655D01*
X173897Y171833D01*
X174658Y172342D01*
X175167Y173103D01*
X175281Y173679D01*
X175894Y174167D01*
X176306Y174293D01*
X177000Y174155D01*
X177897Y174333D01*
X178658Y174842D01*
X179167Y175603D01*
X179345Y176500D01*
X179167Y177397D01*
X178658Y178158D01*
X177897Y178667D01*
X177000Y178845D01*
D02*
G37*
G36*
X203500Y223845D02*
X202603Y223667D01*
X201842Y223158D01*
X201333Y222397D01*
X201155Y221500D01*
X201333Y220603D01*
X201842Y219842D01*
X202603Y219333D01*
X203500Y219155D01*
X204397Y219333D01*
X205158Y219842D01*
X205667Y220603D01*
X205845Y221500D01*
X205667Y222397D01*
X205158Y223158D01*
X204397Y223667D01*
X203500Y223845D01*
D02*
G37*
G36*
X186500Y220824D02*
X185769Y220728D01*
X185088Y220446D01*
X184503Y219997D01*
X184054Y219412D01*
X183772Y218731D01*
X183676Y218000D01*
X183772Y217269D01*
X184054Y216588D01*
X184503Y216003D01*
X185088Y215554D01*
X185769Y215272D01*
X186500Y215176D01*
X187231Y215272D01*
X187912Y215554D01*
X188497Y216003D01*
X188946Y216588D01*
X189228Y217269D01*
X189324Y218000D01*
X189228Y218731D01*
X188946Y219412D01*
X188497Y219997D01*
X187912Y220446D01*
X187231Y220728D01*
X186500Y220824D01*
D02*
G37*
G36*
X25500Y218345D02*
X24603Y218167D01*
X23842Y217658D01*
X23333Y216897D01*
X23155Y216000D01*
X23333Y215103D01*
X23842Y214342D01*
X24603Y213833D01*
X25500Y213655D01*
X26397Y213833D01*
X27158Y214342D01*
X27667Y215103D01*
X27845Y216000D01*
X27667Y216897D01*
X27158Y217658D01*
X26397Y218167D01*
X25500Y218345D01*
D02*
G37*
G36*
X147350Y233000D02*
X144350D01*
X143350Y232000D01*
Y230000D01*
X144350Y229000D01*
X147650D01*
X148350Y229700D01*
Y232000D01*
X147350Y233000D01*
D02*
G37*
G36*
X73300Y231045D02*
X72403Y230867D01*
X71642Y230358D01*
X71134Y229597D01*
X70955Y228700D01*
X71134Y227803D01*
X71642Y227042D01*
X72403Y226533D01*
X73300Y226355D01*
X74197Y226533D01*
X74958Y227042D01*
X75467Y227803D01*
X75645Y228700D01*
X75467Y229597D01*
X74958Y230358D01*
X74197Y230867D01*
X73300Y231045D01*
D02*
G37*
G36*
X190500Y226845D02*
X189603Y226667D01*
X188842Y226158D01*
X188333Y225397D01*
X188155Y224500D01*
X188333Y223603D01*
X188842Y222842D01*
X189603Y222333D01*
X190500Y222155D01*
X191397Y222333D01*
X192158Y222842D01*
X192667Y223603D01*
X192845Y224500D01*
X192667Y225397D01*
X192158Y226158D01*
X191397Y226667D01*
X190500Y226845D01*
D02*
G37*
G36*
X143933Y215350D02*
X143153Y215195D01*
X142491Y214753D01*
X142049Y214091D01*
X141894Y213311D01*
X142049Y212531D01*
X142491Y211869D01*
X142558Y210942D01*
X142116Y210280D01*
X141961Y209500D01*
X142116Y208720D01*
X142558Y208058D01*
X143220Y207616D01*
X144000Y207461D01*
X144780Y207616D01*
X145442Y208058D01*
X145884Y208720D01*
X146039Y209500D01*
X145884Y210280D01*
X145442Y210942D01*
X145375Y211869D01*
X145817Y212531D01*
X145972Y213311D01*
X145817Y214091D01*
X145375Y214753D01*
X144713Y215195D01*
X143933Y215350D01*
D02*
G37*
G36*
X161500Y206324D02*
X160769Y206228D01*
X160088Y205946D01*
X159503Y205497D01*
X159054Y204912D01*
X158772Y204231D01*
X158676Y203500D01*
X158772Y202769D01*
X159054Y202088D01*
X159503Y201503D01*
X160088Y201054D01*
X160769Y200772D01*
X161500Y200676D01*
X162231Y200772D01*
X162912Y201054D01*
X163497Y201503D01*
X163946Y202088D01*
X164228Y202769D01*
X164324Y203500D01*
X164228Y204231D01*
X163946Y204912D01*
X163497Y205497D01*
X162912Y205946D01*
X162231Y206228D01*
X161500Y206324D01*
D02*
G37*
G36*
X237500Y209341D02*
X236377Y209193D01*
X235330Y208759D01*
X234430Y208070D01*
X233740Y207171D01*
X233307Y206123D01*
X233159Y205000D01*
X233307Y203876D01*
X233740Y202830D01*
X234430Y201930D01*
X235330Y201240D01*
X236377Y200807D01*
X237500Y200659D01*
X238623Y200807D01*
X239670Y201240D01*
X240570Y201930D01*
X241260Y202830D01*
X241693Y203876D01*
X241841Y205000D01*
X241693Y206123D01*
X241260Y207171D01*
X240570Y208070D01*
X239670Y208759D01*
X238623Y209193D01*
X237500Y209341D01*
D02*
G37*
G36*
X73800Y217645D02*
X72903Y217467D01*
X72142Y216958D01*
X71633Y216197D01*
X71455Y215300D01*
X71633Y214403D01*
X72142Y213642D01*
X72903Y213133D01*
X73800Y212955D01*
X74697Y213133D01*
X75458Y213642D01*
X75967Y214403D01*
X76145Y215300D01*
X75967Y216197D01*
X75458Y216958D01*
X74697Y217467D01*
X73800Y217645D01*
D02*
G37*
G36*
X135902Y218382D02*
X135121Y218227D01*
X134460Y217784D01*
X134018Y217123D01*
X133862Y216342D01*
X134018Y215562D01*
X134460Y214901D01*
X135121Y214459D01*
X135902Y214303D01*
X136701Y214400D01*
X136949Y213631D01*
X137391Y212969D01*
X138053Y212527D01*
X138833Y212372D01*
X139613Y212527D01*
X140275Y212969D01*
X140717Y213631D01*
X140872Y214411D01*
X140717Y215191D01*
X140275Y215853D01*
X139613Y216295D01*
X138833Y216450D01*
X138034Y216354D01*
X137785Y217123D01*
X137344Y217784D01*
X136682Y218227D01*
X135902Y218382D01*
D02*
G37*
G36*
X237500Y219341D02*
X236377Y219193D01*
X235330Y218759D01*
X234430Y218070D01*
X233740Y217171D01*
X233307Y216124D01*
X233159Y215000D01*
X233307Y213877D01*
X233740Y212829D01*
X234430Y211930D01*
X235330Y211241D01*
X236377Y210807D01*
X237500Y210659D01*
X238623Y210807D01*
X239670Y211241D01*
X240570Y211930D01*
X241260Y212829D01*
X241693Y213877D01*
X241841Y215000D01*
X241693Y216124D01*
X241260Y217171D01*
X240570Y218070D01*
X239670Y218759D01*
X238623Y219193D01*
X237500Y219341D01*
D02*
G37*
%LPD*%
G54D25*
X66500Y194500D02*
D03*
X235500Y243500D02*
D03*
G54D38*
X428000Y-72683D02*
Y-52350D01*
X369000Y-73000D02*
Y-52667D01*
X-29200Y-72683D02*
X631000D01*
X-29200Y-93017D02*
X630800D01*
X-29200Y-113350D02*
X371300D01*
X-29150Y-52350D02*
X631000D01*
X-29150Y-113350D02*
Y-52350D01*
Y-113350D02*
X128400D01*
X-29200D02*
Y-52350D01*
X217300Y-113350D02*
Y-52350D01*
X631000Y-113350D02*
Y-52350D01*
X371300Y-113350D02*
X631000D01*
X490200Y-114000D02*
Y-93717D01*
G54D46*
X61200Y-80602D02*
Y-86600D01*
X65199D01*
X71197D02*
X67198D01*
X71197Y-82601D01*
Y-81602D01*
X70197Y-80602D01*
X68198D01*
X67198Y-81602D01*
X73196Y-87600D02*
X77195D01*
X83193Y-81602D02*
X82193Y-80602D01*
X80194D01*
X79194Y-81602D01*
Y-85600D01*
X80194Y-86600D01*
X82193D01*
X83193Y-85600D01*
Y-83601D01*
X81194D01*
X85192Y-86600D02*
Y-80602D01*
X89191Y-86600D01*
Y-80602D01*
X91190D02*
Y-86600D01*
X94189D01*
X95189Y-85600D01*
Y-81602D01*
X94189Y-80602D01*
X91190D01*
X97188Y-83601D02*
X101187D01*
X103186Y-86600D02*
Y-80602D01*
X106185D01*
X107185Y-81602D01*
Y-83601D01*
X106185Y-84601D01*
X103186D01*
X109185Y-80602D02*
Y-86600D01*
X113183D01*
X115182D02*
Y-82601D01*
X117182Y-80602D01*
X119181Y-82601D01*
Y-86600D01*
Y-83601D01*
X115182D01*
X121181Y-86600D02*
Y-80602D01*
X125179Y-86600D01*
Y-80602D01*
X131177D02*
X127179D01*
Y-86600D01*
X131177D01*
X127179Y-83601D02*
X129178D01*
X498200Y-65567D02*
Y-59569D01*
X502199Y-65567D01*
Y-59569D01*
X505198Y-65567D02*
X507197D01*
X508197Y-64567D01*
Y-62568D01*
X507197Y-61568D01*
X505198D01*
X504198Y-62568D01*
Y-64567D01*
X505198Y-65567D01*
X511196Y-60568D02*
Y-61568D01*
X510196D01*
X512195D01*
X511196D01*
Y-64567D01*
X512195Y-65567D01*
X521193Y-59569D02*
X523192D01*
X522192D01*
Y-65567D01*
X521193D01*
X523192D01*
X526191D02*
Y-61568D01*
X529190D01*
X530190Y-62568D01*
Y-65567D01*
X538187Y-59569D02*
Y-63567D01*
X540186Y-65567D01*
X542186Y-63567D01*
Y-59569D01*
X547184Y-65567D02*
X545185D01*
X544185Y-64567D01*
Y-62568D01*
X545185Y-61568D01*
X547184D01*
X548184Y-62568D01*
Y-63567D01*
X544185D01*
X550183Y-61568D02*
Y-65567D01*
Y-63567D01*
X551183Y-62568D01*
X552182Y-61568D01*
X553182D01*
X556181Y-65567D02*
X559180D01*
X560180Y-64567D01*
X559180Y-63567D01*
X557181D01*
X556181Y-62568D01*
X557181Y-61568D01*
X560180D01*
X562179Y-65567D02*
X564179D01*
X563179D01*
Y-61568D01*
X562179D01*
X568177Y-65567D02*
X570177D01*
X571176Y-64567D01*
Y-62568D01*
X570177Y-61568D01*
X568177D01*
X567178Y-62568D01*
Y-64567D01*
X568177Y-65567D01*
X573176D02*
Y-61568D01*
X576175D01*
X577174Y-62568D01*
Y-65567D01*
X583173Y-60568D02*
X582173Y-59569D01*
X580173D01*
X579174Y-60568D01*
Y-64567D01*
X580173Y-65567D01*
X582173D01*
X583173Y-64567D01*
X586171Y-65567D02*
X588171D01*
X589171Y-64567D01*
Y-62568D01*
X588171Y-61568D01*
X586171D01*
X585172Y-62568D01*
Y-64567D01*
X586171Y-65567D01*
X591170D02*
Y-61568D01*
X594169D01*
X595169Y-62568D01*
Y-65567D01*
X598168Y-60568D02*
Y-61568D01*
X597168D01*
X599167D01*
X598168D01*
Y-64567D01*
X599167Y-65567D01*
X602166Y-61568D02*
Y-65567D01*
Y-63567D01*
X603166Y-62568D01*
X604166Y-61568D01*
X605165D01*
X609164Y-65567D02*
X611164D01*
X612163Y-64567D01*
Y-62568D01*
X611164Y-61568D01*
X609164D01*
X608164Y-62568D01*
Y-64567D01*
X609164Y-65567D01*
X614162D02*
X616162D01*
X615162D01*
Y-59569D01*
X614162D01*
X451599Y-60568D02*
X450599Y-59569D01*
X448600D01*
X447600Y-60568D01*
Y-61568D01*
X448600Y-62568D01*
X450599D01*
X451599Y-63567D01*
Y-64567D01*
X450599Y-65567D01*
X448600D01*
X447600Y-64567D01*
X453598Y-59569D02*
Y-63567D01*
X455597Y-65567D01*
X457597Y-63567D01*
Y-59569D01*
X459596Y-65567D02*
Y-59569D01*
X463595Y-65567D01*
Y-59569D01*
X471592Y-65567D02*
Y-59569D01*
X474591D01*
X475591Y-60568D01*
Y-62568D01*
X474591Y-63567D01*
X471592D01*
X473592D02*
X475591Y-65567D01*
X481589Y-59569D02*
X477590D01*
Y-65567D01*
X481589D01*
X477590Y-62568D02*
X479590D01*
X483588Y-59569D02*
Y-63567D01*
X485588Y-65567D01*
X487587Y-63567D01*
Y-59569D01*
X489586Y-61568D02*
X490586D01*
Y-62568D01*
X489586D01*
Y-61568D01*
Y-64567D02*
X490586D01*
Y-65567D01*
X489586D01*
Y-64567D01*
X378500Y-65700D02*
Y-59702D01*
X381499D01*
X382499Y-60702D01*
Y-62701D01*
X381499Y-63701D01*
X378500D01*
X380499D02*
X382499Y-65700D01*
X388497Y-59702D02*
X384498D01*
Y-65700D01*
X388497D01*
X384498Y-62701D02*
X386497D01*
X390496Y-59702D02*
Y-63701D01*
X392495Y-65700D01*
X394495Y-63701D01*
Y-59702D01*
X396494Y-61701D02*
X397494D01*
Y-62701D01*
X396494D01*
Y-61701D01*
Y-64700D02*
X397494D01*
Y-65700D01*
X396494D01*
Y-64700D01*
X411489Y-59702D02*
X407491D01*
Y-65700D01*
X411489D01*
X407491Y-62701D02*
X409490D01*
X417487Y-65700D02*
X413489D01*
X417487Y-61701D01*
Y-60702D01*
X416488Y-59702D01*
X414488D01*
X413489Y-60702D01*
X44300Y-100401D02*
X47299D01*
X45799D01*
Y-104900D01*
X48799Y-100401D02*
X50298D01*
X49548D01*
Y-104900D01*
X48799D01*
X50298D01*
X52547Y-100401D02*
Y-104900D01*
X54797D01*
X55546Y-104150D01*
Y-101151D01*
X54797Y-100401D01*
X52547D01*
X57046Y-104900D02*
Y-101901D01*
X58545Y-100401D01*
X60045Y-101901D01*
Y-104900D01*
Y-102651D01*
X57046D01*
X61544D02*
X64543D01*
X66043Y-101151D02*
X66793Y-100401D01*
X68292D01*
X69042Y-101151D01*
Y-104150D01*
X68292Y-104900D01*
X66793D01*
X66043Y-104150D01*
Y-101151D01*
X70542Y-104900D02*
X72041D01*
X71291D01*
Y-100401D01*
X70542Y-101151D01*
X77289Y-100401D02*
X74290D01*
Y-102651D01*
X75790Y-101901D01*
X76540D01*
X77289Y-102651D01*
Y-104150D01*
X76540Y-104900D01*
X75040D01*
X74290Y-104150D01*
X78789Y-100401D02*
X81788D01*
Y-101151D01*
X78789Y-104150D01*
Y-104900D01*
X86286Y-100401D02*
X84787Y-101151D01*
X83287Y-102651D01*
Y-104150D01*
X84037Y-104900D01*
X85537D01*
X86286Y-104150D01*
Y-103401D01*
X85537Y-102651D01*
X83287D01*
X87786Y-105650D02*
X90785D01*
X92285Y-100401D02*
Y-104900D01*
X94534D01*
X95284Y-104150D01*
Y-101151D01*
X94534Y-100401D01*
X92285D01*
X96783D02*
Y-104150D01*
X97533Y-104900D01*
X99032D01*
X99782Y-104150D01*
Y-100401D01*
X101282Y-104900D02*
Y-101901D01*
X102781Y-100401D01*
X104281Y-101901D01*
Y-104900D01*
Y-102651D01*
X101282D01*
X105780Y-100401D02*
Y-104900D01*
X108779D01*
X110279Y-105650D02*
X113278D01*
X117776Y-101151D02*
X117026Y-100401D01*
X115527D01*
X114777Y-101151D01*
Y-101901D01*
X115527Y-102651D01*
X117026D01*
X117776Y-103401D01*
Y-104150D01*
X117026Y-104900D01*
X115527D01*
X114777Y-104150D01*
X119276Y-100401D02*
Y-104900D01*
X121525D01*
X122275Y-104150D01*
Y-101151D01*
X121525Y-100401D01*
X119276D01*
X126024D02*
X124524D01*
X123774Y-101151D01*
Y-104150D01*
X124524Y-104900D01*
X126024D01*
X126773Y-104150D01*
Y-101151D01*
X126024Y-100401D01*
X131272D02*
X128273D01*
Y-104900D01*
X131272D01*
X128273Y-102651D02*
X129772D01*
X132772Y-104900D02*
X134271D01*
X133521D01*
Y-100401D01*
X132772Y-101151D01*
X136520Y-104900D02*
Y-104150D01*
X137270D01*
Y-104900D01*
X136520D01*
X143268Y-101151D02*
X142518Y-100401D01*
X141019D01*
X140269Y-101151D01*
Y-104150D01*
X141019Y-104900D01*
X142518D01*
X143268Y-104150D01*
Y-102651D01*
X141769D01*
X144768Y-104900D02*
X146267D01*
X145517D01*
Y-100401D01*
X144768Y-101151D01*
X311950Y-106433D02*
X313949D01*
X312950D01*
Y-100435D01*
X311950Y-101435D01*
X316948D02*
X317948Y-100435D01*
X319947D01*
X320947Y-101435D01*
Y-105434D01*
X319947Y-106433D01*
X317948D01*
X316948Y-105434D01*
Y-101435D01*
X322946Y-106433D02*
X326945Y-102435D01*
X328944Y-106433D02*
X330944D01*
X329944D01*
Y-100435D01*
X328944Y-101435D01*
X337942Y-106433D02*
X333943D01*
X337942Y-102435D01*
Y-101435D01*
X336942Y-100435D01*
X334943D01*
X333943Y-101435D01*
X339941Y-106433D02*
X343940Y-102435D01*
X349938Y-106433D02*
X345939D01*
X349938Y-102435D01*
Y-101435D01*
X348938Y-100435D01*
X346939D01*
X345939Y-101435D01*
X351937D02*
X352937Y-100435D01*
X354936D01*
X355936Y-101435D01*
Y-105434D01*
X354936Y-106433D01*
X352937D01*
X351937Y-105434D01*
Y-101435D01*
X357935Y-106433D02*
X359934D01*
X358935D01*
Y-100435D01*
X357935Y-101435D01*
X362933Y-100435D02*
X366932D01*
Y-101435D01*
X362933Y-105434D01*
Y-106433D01*
X228999Y-101435D02*
X227999Y-100435D01*
X226000D01*
X225000Y-101435D01*
Y-105434D01*
X226000Y-106433D01*
X227999D01*
X228999Y-105434D01*
Y-103435D01*
X226999D01*
X234997Y-100435D02*
X230998D01*
Y-106433D01*
X234997D01*
X230998Y-103435D02*
X232997D01*
X236996Y-106433D02*
Y-100435D01*
X240995Y-106433D01*
Y-100435D01*
X246993D02*
X242994D01*
Y-106433D01*
X246993D01*
X242994Y-103435D02*
X244993D01*
X248992Y-106433D02*
Y-100435D01*
X251991D01*
X252991Y-101435D01*
Y-103435D01*
X251991Y-104434D01*
X248992D01*
X250992D02*
X252991Y-106433D01*
X254990D02*
Y-102435D01*
X256990Y-100435D01*
X258989Y-102435D01*
Y-106433D01*
Y-103435D01*
X254990D01*
X260988Y-100435D02*
X264987D01*
X262988D01*
Y-106433D01*
X270985Y-100435D02*
X266986D01*
Y-106433D01*
X270985D01*
X266986Y-103435D02*
X268986D01*
X272985Y-100435D02*
Y-106433D01*
X275984D01*
X276983Y-105434D01*
Y-101435D01*
X275984Y-100435D01*
X272985D01*
X302975Y-102435D02*
X303975D01*
Y-103435D01*
X302975D01*
Y-102435D01*
Y-105434D02*
X303975D01*
Y-106433D01*
X302975D01*
Y-105434D01*
X-22850Y-65567D02*
Y-61568D01*
X-20851Y-59569D01*
X-18851Y-61568D01*
Y-65567D01*
Y-62568D01*
X-22850D01*
X-16852Y-59569D02*
Y-65567D01*
X-12853D01*
X-10854Y-59569D02*
Y-65567D01*
X-6855D01*
X1142D02*
Y-61568D01*
X3142Y-59569D01*
X5141Y-61568D01*
Y-65567D01*
Y-62568D01*
X1142D01*
X7140Y-65567D02*
Y-59569D01*
X10139D01*
X11139Y-60568D01*
Y-62568D01*
X10139Y-63567D01*
X7140D01*
X9140D02*
X11139Y-65567D01*
X13138Y-59569D02*
X17137D01*
X15138D01*
Y-65567D01*
X19136Y-59569D02*
Y-65567D01*
X21136Y-63567D01*
X23135Y-65567D01*
Y-59569D01*
X28133D02*
X26134D01*
X25135Y-60568D01*
Y-64567D01*
X26134Y-65567D01*
X28133D01*
X29133Y-64567D01*
Y-60568D01*
X28133Y-59569D01*
X31133Y-65567D02*
Y-59569D01*
X34132D01*
X35131Y-60568D01*
Y-62568D01*
X34132Y-63567D01*
X31133D01*
X33132D02*
X35131Y-65567D01*
X37131Y-59569D02*
Y-65567D01*
Y-63567D01*
X41129Y-59569D01*
X38130Y-62568D01*
X41129Y-65567D01*
X49127Y-59569D02*
Y-63567D01*
X51126Y-65567D01*
X53125Y-63567D01*
Y-59569D01*
X55125D02*
X57124D01*
X56125D01*
Y-65567D01*
X55125D01*
X57124D01*
X64122Y-59569D02*
X60123D01*
Y-65567D01*
X64122D01*
X60123Y-62568D02*
X62122D01*
X66121Y-59569D02*
Y-65567D01*
X68121Y-63567D01*
X70120Y-65567D01*
Y-59569D01*
X76118D02*
X72119D01*
Y-65567D01*
X76118D01*
X72119Y-62568D02*
X74119D01*
X78117Y-59569D02*
Y-65567D01*
X81116D01*
X82116Y-64567D01*
Y-60568D01*
X81116Y-59569D01*
X78117D01*
X94112D02*
X90114D01*
Y-62568D01*
X92113D01*
X90114D01*
Y-65567D01*
X96112D02*
Y-59569D01*
X99111D01*
X100110Y-60568D01*
Y-62568D01*
X99111Y-63567D01*
X96112D01*
X98111D02*
X100110Y-65567D01*
X105109Y-59569D02*
X103109D01*
X102110Y-60568D01*
Y-64567D01*
X103109Y-65567D01*
X105109D01*
X106108Y-64567D01*
Y-60568D01*
X105109Y-59569D01*
X108108Y-65567D02*
Y-59569D01*
X110107Y-61568D01*
X112106Y-59569D01*
Y-65567D01*
X120104Y-59569D02*
X124102D01*
X122103D01*
Y-65567D01*
X129101Y-59569D02*
X127102D01*
X126102Y-60568D01*
Y-64567D01*
X127102Y-65567D01*
X129101D01*
X130101Y-64567D01*
Y-60568D01*
X129101Y-59569D01*
X132100Y-65567D02*
Y-59569D01*
X135099D01*
X136099Y-60568D01*
Y-62568D01*
X135099Y-63567D01*
X132100D01*
X148095Y-60568D02*
X147095Y-59569D01*
X145096D01*
X144096Y-60568D01*
Y-61568D01*
X145096Y-62568D01*
X147095D01*
X148095Y-63567D01*
Y-64567D01*
X147095Y-65567D01*
X145096D01*
X144096Y-64567D01*
X150094Y-59569D02*
X152093D01*
X151094D01*
Y-65567D01*
X150094D01*
X152093D01*
X155092Y-59569D02*
Y-65567D01*
X158091D01*
X159091Y-64567D01*
Y-60568D01*
X158091Y-59569D01*
X155092D01*
X165089D02*
X161091D01*
Y-65567D01*
X165089D01*
X161091Y-62568D02*
X163090D01*
X272000Y-61002D02*
X275332D01*
X273666D01*
Y-66000D01*
X276998Y-61002D02*
X278664D01*
X277831D01*
Y-66000D01*
X276998D01*
X278664D01*
X281164Y-61002D02*
Y-66000D01*
X283663D01*
X284496Y-65167D01*
Y-61835D01*
X283663Y-61002D01*
X281164D01*
X286162Y-66000D02*
Y-62668D01*
X287828Y-61002D01*
X289494Y-62668D01*
Y-66000D01*
Y-63501D01*
X286162D01*
X291160D02*
X294493D01*
X296159Y-61835D02*
X296992Y-61002D01*
X298658D01*
X299491Y-61835D01*
Y-65167D01*
X298658Y-66000D01*
X296992D01*
X296159Y-65167D01*
Y-61835D01*
X301157Y-66000D02*
X302823D01*
X301990D01*
Y-61002D01*
X301157Y-61835D01*
X308655Y-61002D02*
X305323D01*
Y-63501D01*
X306989Y-62668D01*
X307822D01*
X308655Y-63501D01*
Y-65167D01*
X307822Y-66000D01*
X306156D01*
X305323Y-65167D01*
X310321Y-61002D02*
X313653D01*
Y-61835D01*
X310321Y-65167D01*
Y-66000D01*
X318652Y-61002D02*
X316985Y-61835D01*
X315319Y-63501D01*
Y-65167D01*
X316152Y-66000D01*
X317818D01*
X318652Y-65167D01*
Y-64334D01*
X317818Y-63501D01*
X315319D01*
X320318Y-66833D02*
X323650D01*
X325316Y-61002D02*
Y-66000D01*
X327815D01*
X328648Y-65167D01*
Y-61835D01*
X327815Y-61002D01*
X325316D01*
X330314D02*
Y-65167D01*
X331148Y-66000D01*
X332814D01*
X333647Y-65167D01*
Y-61002D01*
X335313Y-66000D02*
Y-62668D01*
X336979Y-61002D01*
X338645Y-62668D01*
Y-66000D01*
Y-63501D01*
X335313D01*
X340311Y-61002D02*
Y-66000D01*
X343643D01*
X345310Y-66833D02*
X348642D01*
X353640Y-61835D02*
X352807Y-61002D01*
X351141D01*
X350308Y-61835D01*
Y-62668D01*
X351141Y-63501D01*
X352807D01*
X353640Y-64334D01*
Y-65167D01*
X352807Y-66000D01*
X351141D01*
X350308Y-65167D01*
X355306Y-61002D02*
Y-66000D01*
X357805D01*
X358639Y-65167D01*
Y-61835D01*
X357805Y-61002D01*
X355306D01*
X362804D02*
X361138D01*
X360305Y-61835D01*
Y-65167D01*
X361138Y-66000D01*
X362804D01*
X363637Y-65167D01*
Y-61835D01*
X362804Y-61002D01*
X224800Y-59569D02*
Y-65567D01*
X227799D01*
X228799Y-64567D01*
Y-63567D01*
X227799Y-62568D01*
X224800D01*
X227799D01*
X228799Y-61568D01*
Y-60568D01*
X227799Y-59569D01*
X224800D01*
X233797D02*
X231798D01*
X230798Y-60568D01*
Y-64567D01*
X231798Y-65567D01*
X233797D01*
X234797Y-64567D01*
Y-60568D01*
X233797Y-59569D01*
X236796Y-65567D02*
Y-61568D01*
X238795Y-59569D01*
X240795Y-61568D01*
Y-65567D01*
Y-62568D01*
X236796D01*
X242794Y-65567D02*
Y-59569D01*
X245793D01*
X246793Y-60568D01*
Y-62568D01*
X245793Y-63567D01*
X242794D01*
X244794D02*
X246793Y-65567D01*
X248792Y-59569D02*
Y-65567D01*
X251791D01*
X252791Y-64567D01*
Y-60568D01*
X251791Y-59569D01*
X248792D01*
X261788Y-65567D02*
Y-59569D01*
X263787D02*
Y-65567D01*
X260788Y-61568D02*
X263787D01*
X264787D01*
X260788Y-63567D02*
X264787D01*
X266786Y-61568D02*
X267786D01*
Y-62568D01*
X266786D01*
Y-61568D01*
Y-64567D02*
X267786D01*
Y-65567D01*
X266786D01*
Y-64567D01*
X-22850Y-79851D02*
Y-85849D01*
X-18851D01*
X-16852D02*
Y-81851D01*
X-14853Y-79851D01*
X-12853Y-81851D01*
Y-85849D01*
Y-82850D01*
X-16852D01*
X-10854Y-79851D02*
Y-80851D01*
X-8855Y-82850D01*
X-6855Y-80851D01*
Y-79851D01*
X-8855Y-82850D02*
Y-85849D01*
X-857Y-79851D02*
X-4856D01*
Y-85849D01*
X-857D01*
X-4856Y-82850D02*
X-2857D01*
X1142Y-85849D02*
Y-79851D01*
X4141D01*
X5141Y-80851D01*
Y-82850D01*
X4141Y-83850D01*
X1142D01*
X3142D02*
X5141Y-85849D01*
X13138D02*
Y-79851D01*
X17137Y-85849D01*
Y-79851D01*
X19136Y-85849D02*
Y-81851D01*
X21136Y-79851D01*
X23135Y-81851D01*
Y-85849D01*
Y-82850D01*
X19136D01*
X25135Y-85849D02*
Y-79851D01*
X27134Y-81851D01*
X29133Y-79851D01*
Y-85849D01*
X35131Y-79851D02*
X31133D01*
Y-85849D01*
X35131D01*
X31133Y-82850D02*
X33132D01*
X43129Y-83850D02*
X47127D01*
X43129Y-81851D02*
X47127D01*
X-22850Y-106433D02*
Y-100435D01*
X-19851D01*
X-18851Y-101435D01*
Y-103435D01*
X-19851Y-104434D01*
X-22850D01*
X-16852Y-100435D02*
Y-106433D01*
X-12853D01*
X-7855Y-100435D02*
X-9854D01*
X-10854Y-101435D01*
Y-105434D01*
X-9854Y-106433D01*
X-7855D01*
X-6855Y-105434D01*
Y-101435D01*
X-7855Y-100435D01*
X-4856D02*
X-857D01*
X-2857D01*
Y-106433D01*
X7140D02*
Y-100435D01*
X11139Y-106433D01*
Y-100435D01*
X13138Y-106433D02*
Y-102435D01*
X15138Y-100435D01*
X17137Y-102435D01*
Y-106433D01*
Y-103435D01*
X13138D01*
X19136Y-106433D02*
Y-100435D01*
X21136Y-102435D01*
X23135Y-100435D01*
Y-106433D01*
X29133Y-100435D02*
X25135D01*
Y-106433D01*
X29133D01*
X25135Y-103435D02*
X27134D01*
X37131Y-104434D02*
X41129D01*
X37131Y-102435D02*
X41129D01*
X384850Y-101435D02*
X385850Y-100435D01*
X387849D01*
X388849Y-101435D01*
Y-102435D01*
X387849Y-103435D01*
X386849D01*
X387849D01*
X388849Y-104434D01*
Y-105434D01*
X387849Y-106433D01*
X385850D01*
X384850Y-105434D01*
X390848Y-102435D02*
X391848D01*
Y-103435D01*
X390848D01*
Y-102435D01*
Y-105434D02*
X391848D01*
Y-106433D01*
X390848D01*
Y-105434D01*
X399845Y-100435D02*
X395846D01*
Y-103435D01*
X397846Y-102435D01*
X398846D01*
X399845Y-103435D01*
Y-105434D01*
X398846Y-106433D01*
X396846D01*
X395846Y-105434D01*
X404844Y-106433D02*
Y-100435D01*
X401845Y-103435D01*
X405843D01*
X407843Y-102435D02*
X408842D01*
Y-103435D01*
X407843D01*
Y-102435D01*
Y-105434D02*
X408842D01*
Y-106433D01*
X407843D01*
Y-105434D01*
X412841Y-101435D02*
X413841Y-100435D01*
X415840D01*
X416840Y-101435D01*
Y-102435D01*
X415840Y-103435D01*
X414840D01*
X415840D01*
X416840Y-104434D01*
Y-105434D01*
X415840Y-106433D01*
X413841D01*
X412841Y-105434D01*
X418839Y-101435D02*
X419839Y-100435D01*
X421838D01*
X422838Y-101435D01*
Y-105434D01*
X421838Y-106433D01*
X419839D01*
X418839Y-105434D01*
Y-101435D01*
X430835Y-106433D02*
Y-100435D01*
X433834D01*
X434834Y-101435D01*
Y-103435D01*
X433834Y-104434D01*
X430835D01*
X436833Y-106433D02*
Y-100435D01*
X438833Y-102435D01*
X440832Y-100435D01*
Y-106433D01*
X511300Y-100435D02*
X515299D01*
X513299D01*
Y-106433D01*
X521297Y-100435D02*
X517298D01*
Y-106433D01*
X521297D01*
X517298Y-103435D02*
X519297D01*
X523296Y-100435D02*
X527295Y-106433D01*
Y-100435D02*
X523296Y-106433D01*
X529294D02*
Y-102435D01*
X531293Y-100435D01*
X533293Y-102435D01*
Y-106433D01*
Y-103435D01*
X529294D01*
X539291Y-101435D02*
X538291Y-100435D01*
X536292D01*
X535292Y-101435D01*
Y-102435D01*
X536292Y-103435D01*
X538291D01*
X539291Y-104434D01*
Y-105434D01*
X538291Y-106433D01*
X536292D01*
X535292Y-105434D01*
X547288Y-100435D02*
X549288D01*
X548288D01*
Y-106433D01*
X547288D01*
X549288D01*
X552287D02*
Y-100435D01*
X556285Y-106433D01*
Y-100435D01*
X562284Y-101435D02*
X561284Y-100435D01*
X559284D01*
X558285Y-101435D01*
Y-102435D01*
X559284Y-103435D01*
X561284D01*
X562284Y-104434D01*
Y-105434D01*
X561284Y-106433D01*
X559284D01*
X558285Y-105434D01*
X564283Y-100435D02*
X568282D01*
X566282D01*
Y-106433D01*
X570281D02*
Y-100435D01*
X573280D01*
X574280Y-101435D01*
Y-103435D01*
X573280Y-104434D01*
X570281D01*
X572280D02*
X574280Y-106433D01*
X576279Y-100435D02*
Y-105434D01*
X577279Y-106433D01*
X579278D01*
X580278Y-105434D01*
Y-100435D01*
X582277Y-106433D02*
Y-100435D01*
X584276Y-102435D01*
X586276Y-100435D01*
Y-106433D01*
X592274Y-100435D02*
X588275D01*
Y-106433D01*
X592274D01*
X588275Y-103435D02*
X590274D01*
X594273Y-106433D02*
Y-100435D01*
X598272Y-106433D01*
Y-100435D01*
X600271D02*
X604270D01*
X602271D01*
Y-106433D01*
X610268Y-101435D02*
X609268Y-100435D01*
X607269D01*
X606269Y-101435D01*
Y-102435D01*
X607269Y-103435D01*
X609268D01*
X610268Y-104434D01*
Y-105434D01*
X609268Y-106433D01*
X607269D01*
X606269Y-105434D01*
G54D47*
X89500Y78000D02*
D03*
X202300Y36500D02*
D03*
X95000Y174000D02*
D03*
X91000Y176500D02*
D03*
X137000Y181000D02*
D03*
X194000Y245500D02*
D03*
Y252000D02*
D03*
X219500Y200000D02*
D03*
X214000Y204000D02*
D03*
Y196000D02*
D03*
X220000Y211500D02*
D03*
X214500D02*
D03*
X182900Y247800D02*
D03*
X183400Y252100D02*
D03*
X182400Y257200D02*
D03*
X170000Y281000D02*
D03*
X170500Y286000D02*
D03*
X175500D02*
D03*
X176000Y281000D02*
D03*
X166500Y221000D02*
D03*
X171000D02*
D03*
X94000Y253000D02*
D03*
Y259500D02*
D03*
X188600Y118800D02*
D03*
X189000Y113500D02*
D03*
X175000Y155000D02*
D03*
Y149500D02*
D03*
X201500Y178500D02*
D03*
X206500Y71000D02*
D03*
X229000Y104400D02*
D03*
X229200Y91300D02*
D03*
X223100Y83300D02*
D03*
X213500Y45000D02*
D03*
X173000Y225500D02*
D03*
X174000Y75000D02*
D03*
Y80500D02*
D03*
X101000Y141500D02*
D03*
Y151000D02*
D03*
X114100Y115200D02*
D03*
X114000Y108500D02*
D03*
X135433Y233111D02*
D03*
X129533D02*
D03*
X123933D02*
D03*
X117333D02*
D03*
X121500Y165500D02*
D03*
Y172000D02*
D03*
X127000D02*
D03*
Y165500D02*
D03*
X143000Y125000D02*
D03*
X137000D02*
D03*
X131500D02*
D03*
X224500Y243500D02*
D03*
X230000D02*
D03*
X206600Y40700D02*
D03*
X206700Y36500D02*
D03*
X202100Y40400D02*
D03*
X109000Y115200D02*
D03*
X108900Y108500D02*
D03*
X92650Y277850D02*
D03*
X212000Y144000D02*
D03*
X169500Y212500D02*
D03*
Y207500D02*
D03*
Y202000D02*
D03*
Y196500D02*
D03*
X229000Y97700D02*
D03*
X229300Y83500D02*
D03*
X188900Y136300D02*
D03*
X188600Y124100D02*
D03*
G54D48*
X237500Y225000D02*
D03*
G54D54*
X181500Y48500D02*
D03*
X175000D02*
D03*
X147500Y49000D02*
D03*
Y55500D02*
D03*
X110500Y49000D02*
D03*
X117000D02*
D03*
X86000Y55500D02*
D03*
Y49000D02*
D03*
X57000Y96500D02*
D03*
X49500D02*
D03*
X53900Y128900D02*
D03*
X48100Y128700D02*
D03*
X54100Y160400D02*
D03*
X48100Y160300D02*
D03*
X139000Y318000D02*
D03*
Y324500D02*
D03*
X174000Y317500D02*
D03*
Y324000D02*
D03*
X57000Y194500D02*
D03*
X50000D02*
D03*
X53800Y226900D02*
D03*
X54300Y232900D02*
D03*
X51100Y261350D02*
D03*
X55600D02*
D03*
X50600Y296350D02*
D03*
X55100D02*
D03*
X71150Y318500D02*
D03*
X65150D02*
D03*
X111150D02*
D03*
X103650D02*
D03*
X50000Y60500D02*
D03*
X56500D02*
D03*
X181000Y54000D02*
D03*
X175000D02*
D03*
X140500Y49000D02*
D03*
Y55500D02*
D03*
X110500D02*
D03*
X117000D02*
D03*
X79500Y49000D02*
D03*
Y55500D02*
D03*
X49500Y102500D02*
D03*
X57000D02*
D03*
X50000Y66500D02*
D03*
X56500D02*
D03*
X47900Y134300D02*
D03*
X54000D02*
D03*
X48200Y166100D02*
D03*
X54200Y166300D02*
D03*
X181000Y317500D02*
D03*
Y324000D02*
D03*
X145000Y324500D02*
D03*
Y318000D02*
D03*
X50000Y199500D02*
D03*
X57000D02*
D03*
X48300Y232900D02*
D03*
Y226900D02*
D03*
X55600Y267850D02*
D03*
X51100D02*
D03*
X50600Y303350D02*
D03*
X55100D02*
D03*
X111150Y322500D02*
D03*
X103650D02*
D03*
X65150Y323500D02*
D03*
X71150D02*
D03*
M02*
