G04 Layer_Color=8388736*
%FSLAX25Y25*%
%MOIN*%
G70*
G01*
G75*
%ADD10C,0.01000*%
%ADD11C,0.00500*%
%ADD12C,0.00600*%
%ADD13C,0.00394*%
%ADD14C,0.00800*%
%ADD15C,0.00400*%
%ADD18R,0.02953X0.11811*%
%ADD21R,0.11811X0.02953*%
G54D10*
X111550Y-114050D02*
Y-93767D01*
X384450Y-113400D02*
Y-52400D01*
X223600Y-72300D02*
Y-51967D01*
X173750Y-72733D02*
Y-52400D01*
X-29250Y-113400D02*
Y-52400D01*
X630900Y-113400D02*
Y-52400D01*
X630950Y-113400D02*
Y-52400D01*
X473350Y-113400D02*
X630900D01*
X-29250D02*
X230450D01*
X-29050Y-93067D02*
X630950D01*
X-29250Y-72733D02*
X630950D01*
X-29250Y-52400D02*
X630900D01*
X230450Y-113400D02*
X630950D01*
X141000Y-84700D02*
Y-80701D01*
X139001Y-78702D01*
X137001Y-80701D01*
Y-84700D01*
Y-81701D01*
X141000D01*
X135002Y-84700D02*
X132003D01*
X131003Y-83700D01*
X132003Y-82701D01*
X134002D01*
X135002Y-81701D01*
X134002Y-80701D01*
X131003D01*
X129004Y-84700D02*
X126005D01*
X125005Y-83700D01*
X126005Y-82701D01*
X128004D01*
X129004Y-81701D01*
X128004Y-80701D01*
X125005D01*
X120007Y-84700D02*
X122006D01*
X123006Y-83700D01*
Y-81701D01*
X122006Y-80701D01*
X120007D01*
X119007Y-81701D01*
Y-82701D01*
X123006D01*
X117008Y-84700D02*
Y-80701D01*
X116008D01*
X115008Y-81701D01*
Y-84700D01*
Y-81701D01*
X114009Y-80701D01*
X113009Y-81701D01*
Y-84700D01*
X111010Y-78702D02*
Y-84700D01*
X108011D01*
X107011Y-83700D01*
Y-82701D01*
Y-81701D01*
X108011Y-80701D01*
X111010D01*
X105012Y-84700D02*
X103012D01*
X104012D01*
Y-78702D01*
X105012D01*
X100013Y-80701D02*
Y-83700D01*
X99014Y-84700D01*
X96014D01*
Y-85700D01*
X97014Y-86699D01*
X98014D01*
X96014Y-84700D02*
Y-80701D01*
X88017Y-78702D02*
Y-84700D01*
X85018D01*
X84018Y-83700D01*
Y-82701D01*
X85018Y-81701D01*
X88017D01*
X85018D01*
X84018Y-80701D01*
Y-79702D01*
X85018Y-78702D01*
X88017D01*
X81019Y-84700D02*
X79020D01*
X78020Y-83700D01*
Y-81701D01*
X79020Y-80701D01*
X81019D01*
X82019Y-81701D01*
Y-83700D01*
X81019Y-84700D01*
X75021Y-79702D02*
Y-80701D01*
X76021D01*
X74022D01*
X75021D01*
Y-83700D01*
X74022Y-84700D01*
X70023Y-79702D02*
Y-80701D01*
X71023D01*
X69023D01*
X70023D01*
Y-83700D01*
X69023Y-84700D01*
X65025D02*
X63025D01*
X62025Y-83700D01*
Y-81701D01*
X63025Y-80701D01*
X65025D01*
X66024Y-81701D01*
Y-83700D01*
X65025Y-84700D01*
X60026D02*
Y-80701D01*
X59026D01*
X58027Y-81701D01*
Y-84700D01*
Y-81701D01*
X57027Y-80701D01*
X56028Y-81701D01*
Y-84700D01*
X0Y0D02*
X250000D01*
Y372500D01*
X0D02*
X250000D01*
X0Y0D02*
Y372500D01*
G54D11*
X187900Y273100D02*
G03*
X190400Y270600I2500J0D01*
G01*
Y335600D02*
G03*
X187900Y333100I0J-2500D01*
G01*
X207900D02*
G03*
X205400Y335600I-2500J0D01*
G01*
Y270600D02*
G03*
X207900Y273100I0J2500D01*
G01*
X187900D02*
Y333100D01*
X190400Y335600D02*
X205400D01*
X207900Y273100D02*
Y333100D01*
X190400Y270600D02*
X205400D01*
X122901Y269599D02*
X124900D01*
Y268099D01*
X123900D01*
X124900D01*
Y266600D01*
X121901Y269599D02*
Y266600D01*
X120401D01*
X119902Y267100D01*
Y267600D01*
X120401Y268099D01*
X121901D01*
X120401D01*
X119902Y268599D01*
Y269099D01*
X120401Y269599D01*
X121901D01*
X118902Y269099D02*
X118402Y269599D01*
X117402D01*
X116903Y269099D01*
Y268599D01*
X117402Y268099D01*
X117902D01*
X117402D01*
X116903Y267600D01*
Y267100D01*
X117402Y266600D01*
X118402D01*
X118902Y267100D01*
X14067Y118266D02*
X14601Y118799D01*
X15667D01*
X16200Y118266D01*
Y116133D01*
X15667Y115600D01*
X14601D01*
X14067Y116133D01*
X10868Y118799D02*
X13001D01*
Y117200D01*
X11935Y117733D01*
X11402D01*
X10868Y117200D01*
Y116133D01*
X11402Y115600D01*
X12468D01*
X13001Y116133D01*
X9802Y118799D02*
X7669D01*
Y118266D01*
X9802Y116133D01*
Y115600D01*
X13467Y82266D02*
X14001Y82799D01*
X15067D01*
X15600Y82266D01*
Y80133D01*
X15067Y79600D01*
X14001D01*
X13467Y80133D01*
X10268Y82799D02*
X11335Y82266D01*
X12401Y81200D01*
Y80133D01*
X11868Y79600D01*
X10802D01*
X10268Y80133D01*
Y80666D01*
X10802Y81200D01*
X12401D01*
X9202Y79600D02*
X8136D01*
X8669D01*
Y82799D01*
X9202Y82266D01*
X67466Y9333D02*
X67999Y8800D01*
Y7733D01*
X67466Y7200D01*
X65333D01*
X64800Y7733D01*
Y8800D01*
X65333Y9333D01*
X67999Y12532D02*
X67466Y11465D01*
X66400Y10399D01*
X65333D01*
X64800Y10932D01*
Y11998D01*
X65333Y12532D01*
X65866D01*
X66400Y11998D01*
Y10399D01*
X64800Y15731D02*
Y13598D01*
X66933Y15731D01*
X67466D01*
X67999Y15197D01*
Y14131D01*
X67466Y13598D01*
X97966Y9433D02*
X98499Y8900D01*
Y7833D01*
X97966Y7300D01*
X95833D01*
X95300Y7833D01*
Y8900D01*
X95833Y9433D01*
X98499Y12632D02*
X97966Y11565D01*
X96899Y10499D01*
X95833D01*
X95300Y11032D01*
Y12098D01*
X95833Y12632D01*
X96366D01*
X96899Y12098D01*
Y10499D01*
X97966Y13698D02*
X98499Y14231D01*
Y15297D01*
X97966Y15831D01*
X97433D01*
X96899Y15297D01*
Y14764D01*
Y15297D01*
X96366Y15831D01*
X95833D01*
X95300Y15297D01*
Y14231D01*
X95833Y13698D01*
X128766Y10433D02*
X129299Y9900D01*
Y8833D01*
X128766Y8300D01*
X126633D01*
X126100Y8833D01*
Y9900D01*
X126633Y10433D01*
X129299Y13632D02*
X128766Y12565D01*
X127699Y11499D01*
X126633D01*
X126100Y12032D01*
Y13098D01*
X126633Y13632D01*
X127166D01*
X127699Y13098D01*
Y11499D01*
X126100Y16297D02*
X129299D01*
X127699Y14698D01*
Y16831D01*
G54D12*
X141700Y158300D02*
Y164600D01*
X147300Y158300D02*
Y164700D01*
X115500Y265000D02*
X126500D01*
Y267500D01*
Y271000D01*
X115500D02*
X126500D01*
X115500Y265000D02*
Y271000D01*
X203901Y253099D02*
X204400Y253599D01*
X205400D01*
X205900Y253099D01*
Y251099D01*
X205400Y250600D01*
X204400D01*
X203901Y251099D01*
X200902Y253599D02*
X201901Y253099D01*
X202901Y252099D01*
Y251099D01*
X202401Y250600D01*
X201401D01*
X200902Y251099D01*
Y251599D01*
X201401Y252099D01*
X202901D01*
X199902Y253599D02*
X197903D01*
Y253099D01*
X199902Y251099D01*
Y250600D01*
X204401Y246599D02*
X204901Y247099D01*
X205900D01*
X206400Y246599D01*
Y244600D01*
X205900Y244100D01*
X204901D01*
X204401Y244600D01*
X203401Y247099D02*
X201402D01*
Y246599D01*
X203401Y244600D01*
Y244100D01*
X200402Y246599D02*
X199902Y247099D01*
X198902D01*
X198403Y246599D01*
Y244600D01*
X198902Y244100D01*
X199902D01*
X200402Y244600D01*
Y246599D01*
X115000Y169500D02*
Y172499D01*
X113500D01*
X113001Y171999D01*
Y171000D01*
X113500Y170500D01*
X115000D01*
X114000D02*
X113001Y169500D01*
X112001D02*
X111001D01*
X111501D01*
Y172499D01*
X112001Y171999D01*
X107502Y172499D02*
X108502Y171999D01*
X109502Y171000D01*
Y170000D01*
X109002Y169500D01*
X108002D01*
X107502Y170000D01*
Y170500D01*
X108002Y171000D01*
X109502D01*
X106503Y169500D02*
X105503D01*
X106003D01*
Y172499D01*
X106503Y171999D01*
X198899Y297100D02*
X195900D01*
Y299099D01*
X198899Y300099D02*
X195900D01*
Y301599D01*
X196400Y302098D01*
X196900D01*
X197399Y301599D01*
Y300099D01*
Y301599D01*
X197899Y302098D01*
X198399D01*
X198899Y301599D01*
Y300099D01*
Y303098D02*
X195900D01*
Y305097D01*
Y306097D02*
Y307097D01*
Y306597D01*
X198899D01*
X198399Y306097D01*
X182700Y127700D02*
Y130699D01*
X181201D01*
X180701Y130199D01*
Y129200D01*
X181201Y128700D01*
X182700D01*
X181700D02*
X180701Y127700D01*
X179701D02*
X178701D01*
X179201D01*
Y130699D01*
X179701Y130199D01*
X175702Y127700D02*
Y130699D01*
X177202Y129200D01*
X175202D01*
X172203Y127700D02*
X174203D01*
X172203Y129699D01*
Y130199D01*
X172703Y130699D01*
X173703D01*
X174203Y130199D01*
X182800Y134300D02*
Y137299D01*
X181300D01*
X180801Y136799D01*
Y135800D01*
X181300Y135300D01*
X182800D01*
X181800D02*
X180801Y134300D01*
X179801D02*
X178801D01*
X179301D01*
Y137299D01*
X179801Y136799D01*
X175802Y134300D02*
Y137299D01*
X177302Y135800D01*
X175302D01*
X174303Y136799D02*
X173803Y137299D01*
X172803D01*
X172303Y136799D01*
Y134800D01*
X172803Y134300D01*
X173803D01*
X174303Y134800D01*
Y136799D01*
X146099Y159599D02*
Y157600D01*
X144599D01*
Y158600D01*
Y157600D01*
X143100D01*
X146099Y160599D02*
X143100D01*
Y162099D01*
X143600Y162598D01*
X144100D01*
X144599Y162099D01*
Y160599D01*
Y162099D01*
X145099Y162598D01*
X145599D01*
X146099Y162099D01*
Y160599D01*
X143100Y165098D02*
X146099D01*
X144599Y163598D01*
Y165597D01*
X145299Y269099D02*
X145799Y268600D01*
Y267600D01*
X145299Y267100D01*
X143300D01*
X142800Y267600D01*
Y268600D01*
X143300Y269099D01*
X142800Y271599D02*
X145799D01*
X144299Y270099D01*
Y272098D01*
X145299Y273098D02*
X145799Y273598D01*
Y274598D01*
X145299Y275097D01*
X144799D01*
X144299Y274598D01*
Y274098D01*
Y274598D01*
X143800Y275097D01*
X143300D01*
X142800Y274598D01*
Y273598D01*
X143300Y273098D01*
X107700Y258100D02*
Y261099D01*
X106201D01*
X105701Y260599D01*
Y259599D01*
X106201Y259100D01*
X107700D01*
X106700D02*
X105701Y258100D01*
X104701D02*
X103701D01*
X104201D01*
Y261099D01*
X104701Y260599D01*
X100202Y258100D02*
X102202D01*
X100202Y260099D01*
Y260599D01*
X100702Y261099D01*
X101702D01*
X102202Y260599D01*
X99203D02*
X98703Y261099D01*
X97703D01*
X97203Y260599D01*
Y260099D01*
X97703Y259599D01*
X98203D01*
X97703D01*
X97203Y259100D01*
Y258600D01*
X97703Y258100D01*
X98703D01*
X99203Y258600D01*
X107500Y251500D02*
Y254499D01*
X106000D01*
X105501Y253999D01*
Y252999D01*
X106000Y252500D01*
X107500D01*
X106500D02*
X105501Y251500D01*
X104501D02*
X103501D01*
X104001D01*
Y254499D01*
X104501Y253999D01*
X100002Y251500D02*
X102002D01*
X100002Y253499D01*
Y253999D01*
X100502Y254499D01*
X101502D01*
X102002Y253999D01*
X97503Y251500D02*
Y254499D01*
X99003Y252999D01*
X97003D01*
X13901Y319599D02*
X14401Y320099D01*
X15400D01*
X15900Y319599D01*
Y317600D01*
X15400Y317100D01*
X14401D01*
X13901Y317600D01*
X12901Y319599D02*
X12401Y320099D01*
X11401D01*
X10902Y319599D01*
Y319099D01*
X11401Y318600D01*
X11901D01*
X11401D01*
X10902Y318100D01*
Y317600D01*
X11401Y317100D01*
X12401D01*
X12901Y317600D01*
X9902D02*
X9402Y317100D01*
X8402D01*
X7903Y317600D01*
Y319599D01*
X8402Y320099D01*
X9402D01*
X9902Y319599D01*
Y319099D01*
X9402Y318600D01*
X7903D01*
X115600Y27700D02*
X118599D01*
Y29199D01*
X118099Y29699D01*
X117099D01*
X116600Y29199D01*
Y27700D01*
Y28700D02*
X115600Y29699D01*
Y30699D02*
Y31699D01*
Y31199D01*
X118599D01*
X118099Y30699D01*
X115600Y34698D02*
X118599D01*
X117099Y33198D01*
Y35198D01*
X116100Y36197D02*
X115600Y36697D01*
Y37697D01*
X116100Y38197D01*
X118099D01*
X118599Y37697D01*
Y36697D01*
X118099Y36197D01*
X117599D01*
X117099Y36697D01*
Y38197D01*
X146600Y27800D02*
X149599D01*
Y29300D01*
X149099Y29799D01*
X148100D01*
X147600Y29300D01*
Y27800D01*
Y28800D02*
X146600Y29799D01*
Y30799D02*
Y31799D01*
Y31299D01*
X149599D01*
X149099Y30799D01*
X149599Y35298D02*
Y33298D01*
X148100D01*
X148599Y34298D01*
Y34798D01*
X148100Y35298D01*
X147100D01*
X146600Y34798D01*
Y33798D01*
X147100Y33298D01*
X149099Y36297D02*
X149599Y36797D01*
Y37797D01*
X149099Y38297D01*
X147100D01*
X146600Y37797D01*
Y36797D01*
X147100Y36297D01*
X149099D01*
X181100Y28400D02*
X184099D01*
Y29899D01*
X183599Y30399D01*
X182599D01*
X182100Y29899D01*
Y28400D01*
Y29400D02*
X181100Y30399D01*
Y31399D02*
Y32399D01*
Y31899D01*
X184099D01*
X183599Y31399D01*
X184099Y35898D02*
Y33898D01*
X182599D01*
X183099Y34898D01*
Y35398D01*
X182599Y35898D01*
X181600D01*
X181100Y35398D01*
Y34398D01*
X181600Y33898D01*
X181100Y36897D02*
Y37897D01*
Y37397D01*
X184099D01*
X183599Y36897D01*
X41000Y159100D02*
Y162099D01*
X39500D01*
X39001Y161599D01*
Y160600D01*
X39500Y160100D01*
X41000D01*
X40000D02*
X39001Y159100D01*
X38001D02*
X37001D01*
X37501D01*
Y162099D01*
X38001Y161599D01*
X35502D02*
X35002Y162099D01*
X34002D01*
X33502Y161599D01*
Y161099D01*
X34002Y160600D01*
X34502D01*
X34002D01*
X33502Y160100D01*
Y159600D01*
X34002Y159100D01*
X35002D01*
X35502Y159600D01*
X30503Y159100D02*
X32503D01*
X30503Y161099D01*
Y161599D01*
X31003Y162099D01*
X32003D01*
X32503Y161599D01*
X41000Y126000D02*
Y128999D01*
X39500D01*
X39001Y128499D01*
Y127499D01*
X39500Y127000D01*
X41000D01*
X40000D02*
X39001Y126000D01*
X38001D02*
X37001D01*
X37501D01*
Y128999D01*
X38001Y128499D01*
X34002Y126000D02*
Y128999D01*
X35502Y127499D01*
X33502D01*
X32503Y126000D02*
X31503D01*
X32003D01*
Y128999D01*
X32503Y128499D01*
X85500Y27800D02*
X88499D01*
Y29300D01*
X87999Y29799D01*
X86999D01*
X86500Y29300D01*
Y27800D01*
Y28800D02*
X85500Y29799D01*
Y30799D02*
Y31799D01*
Y31299D01*
X88499D01*
X87999Y30799D01*
X85500Y34798D02*
X88499D01*
X86999Y33298D01*
Y35298D01*
X87999Y36297D02*
X88499Y36797D01*
Y37797D01*
X87999Y38297D01*
X87499D01*
X86999Y37797D01*
X86500Y38297D01*
X86000D01*
X85500Y37797D01*
Y36797D01*
X86000Y36297D01*
X86500D01*
X86999Y36797D01*
X87499Y36297D01*
X87999D01*
X86999Y36797D02*
Y37797D01*
X41300Y58100D02*
Y61099D01*
X39801D01*
X39301Y60599D01*
Y59600D01*
X39801Y59100D01*
X41300D01*
X40300D02*
X39301Y58100D01*
X38301D02*
X37301D01*
X37801D01*
Y61099D01*
X38301Y60599D01*
X34302Y58100D02*
Y61099D01*
X35802Y59600D01*
X33802D01*
X32803Y61099D02*
X30803D01*
Y60599D01*
X32803Y58600D01*
Y58100D01*
X41300Y93500D02*
Y96499D01*
X39801D01*
X39301Y95999D01*
Y94999D01*
X39801Y94500D01*
X41300D01*
X40300D02*
X39301Y93500D01*
X38301D02*
X37301D01*
X37801D01*
Y96499D01*
X38301Y95999D01*
X34302Y93500D02*
Y96499D01*
X35802Y94999D01*
X33802D01*
X30803Y96499D02*
X31803Y95999D01*
X32803Y94999D01*
Y94000D01*
X32303Y93500D01*
X31303D01*
X30803Y94000D01*
Y94500D01*
X31303Y94999D01*
X32803D01*
X137200Y333100D02*
X140199D01*
Y334599D01*
X139699Y335099D01*
X138699D01*
X138200Y334599D01*
Y333100D01*
Y334100D02*
X137200Y335099D01*
Y336099D02*
Y337099D01*
Y336599D01*
X140199D01*
X139699Y336099D01*
X137200Y338598D02*
Y339598D01*
Y339098D01*
X140199D01*
X139699Y338598D01*
X140199Y343097D02*
X139699Y342097D01*
X138699Y341097D01*
X137700D01*
X137200Y341597D01*
Y342597D01*
X137700Y343097D01*
X138200D01*
X138699Y342597D01*
Y341097D01*
X172800Y333200D02*
X175799D01*
Y334700D01*
X175299Y335199D01*
X174300D01*
X173800Y334700D01*
Y333200D01*
Y334200D02*
X172800Y335199D01*
Y336199D02*
Y337199D01*
Y336699D01*
X175799D01*
X175299Y336199D01*
X172800Y338698D02*
Y339698D01*
Y339198D01*
X175799D01*
X175299Y338698D01*
X175799Y341197D02*
Y343197D01*
X175299D01*
X173300Y341197D01*
X172800D01*
X41800Y192600D02*
Y195599D01*
X40301D01*
X39801Y195099D01*
Y194099D01*
X40301Y193600D01*
X41800D01*
X40800D02*
X39801Y192600D01*
X38801D02*
X37801D01*
X38301D01*
Y195599D01*
X38801Y195099D01*
X36302D02*
X35802Y195599D01*
X34802D01*
X34302Y195099D01*
Y194599D01*
X34802Y194099D01*
X35302D01*
X34802D01*
X34302Y193600D01*
Y193100D01*
X34802Y192600D01*
X35802D01*
X36302Y193100D01*
X33303Y195099D02*
X32803Y195599D01*
X31803D01*
X31303Y195099D01*
Y193100D01*
X31803Y192600D01*
X32803D01*
X33303Y193100D01*
Y195099D01*
X40900Y225500D02*
Y228499D01*
X39401D01*
X38901Y227999D01*
Y226999D01*
X39401Y226500D01*
X40900D01*
X39900D02*
X38901Y225500D01*
X37901D02*
X36901D01*
X37401D01*
Y228499D01*
X37901Y227999D01*
X33402Y225500D02*
X35402D01*
X33402Y227499D01*
Y227999D01*
X33902Y228499D01*
X34902D01*
X35402Y227999D01*
X32403Y226000D02*
X31903Y225500D01*
X30903D01*
X30403Y226000D01*
Y227999D01*
X30903Y228499D01*
X31903D01*
X32403Y227999D01*
Y227499D01*
X31903Y226999D01*
X30403D01*
X103000Y329800D02*
X105999D01*
Y331299D01*
X105499Y331799D01*
X104499D01*
X104000Y331299D01*
Y329800D01*
Y330800D02*
X103000Y331799D01*
Y332799D02*
Y333799D01*
Y333299D01*
X105999D01*
X105499Y332799D01*
X103000Y335298D02*
Y336298D01*
Y335798D01*
X105999D01*
X105499Y335298D01*
X103500Y337797D02*
X103000Y338297D01*
Y339297D01*
X103500Y339797D01*
X105499D01*
X105999Y339297D01*
Y338297D01*
X105499Y337797D01*
X104999D01*
X104499Y338297D01*
Y339797D01*
X43800Y295200D02*
Y298199D01*
X42301D01*
X41801Y297699D01*
Y296700D01*
X42301Y296200D01*
X43800D01*
X42800D02*
X41801Y295200D01*
X40801D02*
X39801D01*
X40301D01*
Y298199D01*
X40801Y297699D01*
X36302Y295200D02*
X38302D01*
X36302Y297199D01*
Y297699D01*
X36802Y298199D01*
X37802D01*
X38302Y297699D01*
X35303D02*
X34803Y298199D01*
X33803D01*
X33303Y297699D01*
Y295700D01*
X33803Y295200D01*
X34803D01*
X35303Y295700D01*
Y297699D01*
X64300Y330400D02*
X67299D01*
Y331899D01*
X66799Y332399D01*
X65799D01*
X65300Y331899D01*
Y330400D01*
Y331400D02*
X64300Y332399D01*
Y333399D02*
Y334399D01*
Y333899D01*
X67299D01*
X66799Y333399D01*
X64300Y335898D02*
Y336898D01*
Y336398D01*
X67299D01*
X66799Y335898D01*
Y338397D02*
X67299Y338897D01*
Y339897D01*
X66799Y340397D01*
X66299D01*
X65799Y339897D01*
X65300Y340397D01*
X64800D01*
X64300Y339897D01*
Y338897D01*
X64800Y338397D01*
X65300D01*
X65799Y338897D01*
X66299Y338397D01*
X66799D01*
X65799Y338897D02*
Y339897D01*
X43200Y260200D02*
Y263199D01*
X41701D01*
X41201Y262699D01*
Y261700D01*
X41701Y261200D01*
X43200D01*
X42200D02*
X41201Y260200D01*
X40201D02*
X39201D01*
X39701D01*
Y263199D01*
X40201Y262699D01*
X35702Y260200D02*
X37702D01*
X35702Y262199D01*
Y262699D01*
X36202Y263199D01*
X37202D01*
X37702Y262699D01*
X34703Y260200D02*
X33703D01*
X34203D01*
Y263199D01*
X34703Y262699D01*
X125599Y357199D02*
X126099Y356699D01*
Y355700D01*
X125599Y355200D01*
X123600D01*
X123100Y355700D01*
Y356699D01*
X123600Y357199D01*
X125599Y358199D02*
X126099Y358699D01*
Y359699D01*
X125599Y360198D01*
X125099D01*
X124600Y359699D01*
Y359199D01*
Y359699D01*
X124100Y360198D01*
X123600D01*
X123100Y359699D01*
Y358699D01*
X123600Y358199D01*
X126099Y363197D02*
X125599Y362198D01*
X124600Y361198D01*
X123600D01*
X123100Y361698D01*
Y362698D01*
X123600Y363197D01*
X124100D01*
X124600Y362698D01*
Y361198D01*
X89099Y356399D02*
X89599Y355900D01*
Y354900D01*
X89099Y354400D01*
X87100D01*
X86600Y354900D01*
Y355900D01*
X87100Y356399D01*
X89099Y357399D02*
X89599Y357899D01*
Y358898D01*
X89099Y359398D01*
X88599D01*
X88099Y358898D01*
Y358399D01*
Y358898D01*
X87600Y359398D01*
X87100D01*
X86600Y358898D01*
Y357899D01*
X87100Y357399D01*
X89599Y362397D02*
Y360398D01*
X88099D01*
X88599Y361398D01*
Y361898D01*
X88099Y362397D01*
X87100D01*
X86600Y361898D01*
Y360898D01*
X87100Y360398D01*
X14501Y286799D02*
X15000Y287299D01*
X16000D01*
X16500Y286799D01*
Y284800D01*
X16000Y284300D01*
X15000D01*
X14501Y284800D01*
X12001Y284300D02*
Y287299D01*
X13501Y285800D01*
X11502D01*
X10502Y286799D02*
X10002Y287299D01*
X9002D01*
X8503Y286799D01*
Y284800D01*
X9002Y284300D01*
X10002D01*
X10502Y284800D01*
Y286799D01*
X14101Y249499D02*
X14601Y249999D01*
X15600D01*
X16100Y249499D01*
Y247500D01*
X15600Y247000D01*
X14601D01*
X14101Y247500D01*
X11601Y247000D02*
Y249999D01*
X13101Y248499D01*
X11102D01*
X8602Y247000D02*
Y249999D01*
X10102Y248499D01*
X8103D01*
X13801Y215899D02*
X14300Y216399D01*
X15300D01*
X15800Y215899D01*
Y213900D01*
X15300Y213400D01*
X14300D01*
X13801Y213900D01*
X11301Y213400D02*
Y216399D01*
X12801Y214899D01*
X10802D01*
X9802Y216399D02*
X7803D01*
Y215899D01*
X9802Y213900D01*
Y213400D01*
X198199Y356599D02*
X198699Y356100D01*
Y355100D01*
X198199Y354600D01*
X196200D01*
X195700Y355100D01*
Y356100D01*
X196200Y356599D01*
X198199Y357599D02*
X198699Y358099D01*
Y359099D01*
X198199Y359598D01*
X197699D01*
X197199Y359099D01*
Y358599D01*
Y359099D01*
X196700Y359598D01*
X196200D01*
X195700Y359099D01*
Y358099D01*
X196200Y357599D01*
X198199Y360598D02*
X198699Y361098D01*
Y362098D01*
X198199Y362597D01*
X197699D01*
X197199Y362098D01*
X196700Y362597D01*
X196200D01*
X195700Y362098D01*
Y361098D01*
X196200Y360598D01*
X196700D01*
X197199Y361098D01*
X197699Y360598D01*
X198199D01*
X197199Y361098D02*
Y362098D01*
X159599Y357499D02*
X160099Y356999D01*
Y356000D01*
X159599Y355500D01*
X157600D01*
X157100Y356000D01*
Y356999D01*
X157600Y357499D01*
X159599Y358499D02*
X160099Y358999D01*
Y359998D01*
X159599Y360498D01*
X159099D01*
X158599Y359998D01*
Y359499D01*
Y359998D01*
X158100Y360498D01*
X157600D01*
X157100Y359998D01*
Y358999D01*
X157600Y358499D01*
X160099Y361498D02*
Y363497D01*
X159599D01*
X157600Y361498D01*
X157100D01*
X162699Y9599D02*
X163199Y9099D01*
Y8100D01*
X162699Y7600D01*
X160700D01*
X160200Y8100D01*
Y9099D01*
X160700Y9599D01*
X163199Y12598D02*
X162699Y11599D01*
X161699Y10599D01*
X160700D01*
X160200Y11099D01*
Y12099D01*
X160700Y12598D01*
X161200D01*
X161699Y12099D01*
Y10599D01*
X163199Y15597D02*
Y13598D01*
X161699D01*
X162199Y14598D01*
Y15098D01*
X161699Y15597D01*
X160700D01*
X160200Y15098D01*
Y14098D01*
X160700Y13598D01*
X13501Y182099D02*
X14001Y182599D01*
X15000D01*
X15500Y182099D01*
Y180100D01*
X15000Y179600D01*
X14001D01*
X13501Y180100D01*
X10502Y182599D02*
X12501D01*
Y181099D01*
X11501Y181599D01*
X11001D01*
X10502Y181099D01*
Y180100D01*
X11001Y179600D01*
X12001D01*
X12501Y180100D01*
X9502Y179600D02*
X8502D01*
X9002D01*
Y182599D01*
X9502Y182099D01*
X13701Y150199D02*
X14200Y150699D01*
X15200D01*
X15700Y150199D01*
Y148200D01*
X15200Y147700D01*
X14200D01*
X13701Y148200D01*
X10702Y150699D02*
X12701D01*
Y149199D01*
X11701Y149699D01*
X11201D01*
X10702Y149199D01*
Y148200D01*
X11201Y147700D01*
X12201D01*
X12701Y148200D01*
X9702Y150199D02*
X9202Y150699D01*
X8202D01*
X7703Y150199D01*
Y149699D01*
X8202Y149199D01*
X8702D01*
X8202D01*
X7703Y148700D01*
Y148200D01*
X8202Y147700D01*
X9202D01*
X9702Y148200D01*
X129099Y254199D02*
X129599Y253699D01*
Y252700D01*
X129099Y252200D01*
X127100D01*
X126600Y252700D01*
Y253699D01*
X127100Y254199D01*
X126600Y256698D02*
X129599D01*
X128100Y255199D01*
Y257198D01*
X129599Y260197D02*
Y258198D01*
X128100D01*
X128599Y259198D01*
Y259698D01*
X128100Y260197D01*
X127100D01*
X126600Y259698D01*
Y258698D01*
X127100Y258198D01*
X121500Y251500D02*
Y254499D01*
X120001D01*
X119501Y253999D01*
Y252999D01*
X120001Y252500D01*
X121500D01*
X120500D02*
X119501Y251500D01*
X118501D02*
X117501D01*
X118001D01*
Y254499D01*
X118501Y253999D01*
X114002Y251500D02*
X116002D01*
X114002Y253499D01*
Y253999D01*
X114502Y254499D01*
X115502D01*
X116002Y253999D01*
X111003Y254499D02*
X113003D01*
Y252999D01*
X112003Y253499D01*
X111503D01*
X111003Y252999D01*
Y252000D01*
X111503Y251500D01*
X112503D01*
X113003Y252000D01*
X121400Y258300D02*
Y261299D01*
X119901D01*
X119401Y260799D01*
Y259800D01*
X119901Y259300D01*
X121400D01*
X120400D02*
X119401Y258300D01*
X118401D02*
X117401D01*
X117901D01*
Y261299D01*
X118401Y260799D01*
X113902Y258300D02*
X115902D01*
X113902Y260299D01*
Y260799D01*
X114402Y261299D01*
X115402D01*
X115902Y260799D01*
X110903Y258300D02*
X112903D01*
X110903Y260299D01*
Y260799D01*
X111403Y261299D01*
X112403D01*
X112903Y260799D01*
X175800Y261200D02*
Y264199D01*
X174301D01*
X173801Y263699D01*
Y262700D01*
X174301Y262200D01*
X175800D01*
X174800D02*
X173801Y261200D01*
X172801D02*
X171801D01*
X172301D01*
Y264199D01*
X172801Y263699D01*
X168302Y261200D02*
X170302D01*
X168302Y263199D01*
Y263699D01*
X168802Y264199D01*
X169802D01*
X170302Y263699D01*
X167303Y264199D02*
X165303D01*
Y263699D01*
X167303Y261700D01*
Y261200D01*
X165000Y233100D02*
X167999D01*
Y234599D01*
X167499Y235099D01*
X166499D01*
X166000Y234599D01*
Y233100D01*
Y234100D02*
X165000Y235099D01*
Y236099D02*
Y237099D01*
Y236599D01*
X167999D01*
X167499Y236099D01*
X165000Y240598D02*
Y238598D01*
X166999Y240598D01*
X167499D01*
X167999Y240098D01*
Y239098D01*
X167499Y238598D01*
Y241597D02*
X167999Y242097D01*
Y243097D01*
X167499Y243597D01*
X166999D01*
X166499Y243097D01*
X166000Y243597D01*
X165500D01*
X165000Y243097D01*
Y242097D01*
X165500Y241597D01*
X166000D01*
X166499Y242097D01*
X166999Y241597D01*
X167499D01*
X166499Y242097D02*
Y243097D01*
X158900Y233100D02*
X161899D01*
Y234599D01*
X161399Y235099D01*
X160399D01*
X159900Y234599D01*
Y233100D01*
Y234100D02*
X158900Y235099D01*
Y236099D02*
Y237099D01*
Y236599D01*
X161899D01*
X161399Y236099D01*
X158900Y240598D02*
Y238598D01*
X160899Y240598D01*
X161399D01*
X161899Y240098D01*
Y239098D01*
X161399Y238598D01*
X161899Y243597D02*
X161399Y242597D01*
X160399Y241597D01*
X159400D01*
X158900Y242097D01*
Y243097D01*
X159400Y243597D01*
X159900D01*
X160399Y243097D01*
Y241597D01*
X197400Y141800D02*
X200399D01*
Y143299D01*
X199899Y143799D01*
X198899D01*
X198400Y143299D01*
Y141800D01*
Y142800D02*
X197400Y143799D01*
Y144799D02*
Y145799D01*
Y145299D01*
X200399D01*
X199899Y144799D01*
Y147298D02*
X200399Y147798D01*
Y148798D01*
X199899Y149298D01*
X199399D01*
X198899Y148798D01*
Y148298D01*
Y148798D01*
X198400Y149298D01*
X197900D01*
X197400Y148798D01*
Y147798D01*
X197900Y147298D01*
X200399Y150297D02*
Y152297D01*
X199899D01*
X197900Y150297D01*
X197400D01*
X191899Y144299D02*
X192399Y143799D01*
Y142800D01*
X191899Y142300D01*
X189900D01*
X189400Y142800D01*
Y143799D01*
X189900Y144299D01*
X192399Y147298D02*
Y145299D01*
X190900D01*
X191399Y146299D01*
Y146799D01*
X190900Y147298D01*
X189900D01*
X189400Y146799D01*
Y145799D01*
X189900Y145299D01*
X192399Y150297D02*
Y148298D01*
X190900D01*
X191399Y149298D01*
Y149798D01*
X190900Y150297D01*
X189900D01*
X189400Y149798D01*
Y148798D01*
X189900Y148298D01*
X202200Y100700D02*
Y103699D01*
X200700D01*
X200201Y103199D01*
Y102199D01*
X200700Y101700D01*
X202200D01*
X201200D02*
X200201Y100700D01*
X199201D02*
X198201D01*
X198701D01*
Y103699D01*
X199201Y103199D01*
X195202Y100700D02*
Y103699D01*
X196702Y102199D01*
X194702D01*
X191703Y103699D02*
X193703D01*
Y102199D01*
X192703Y102699D01*
X192203D01*
X191703Y102199D01*
Y101200D01*
X192203Y100700D01*
X193203D01*
X193703Y101200D01*
X133499Y142399D02*
X133999Y141900D01*
Y140900D01*
X133499Y140400D01*
X131500D01*
X131000Y140900D01*
Y141900D01*
X131500Y142399D01*
X133999Y145398D02*
Y143399D01*
X132500D01*
X132999Y144399D01*
Y144899D01*
X132500Y145398D01*
X131500D01*
X131000Y144899D01*
Y143899D01*
X131500Y143399D01*
X133999Y148397D02*
X133499Y147398D01*
X132500Y146398D01*
X131500D01*
X131000Y146898D01*
Y147898D01*
X131500Y148397D01*
X132000D01*
X132500Y147898D01*
Y146398D01*
X127900Y140500D02*
Y143499D01*
X126400D01*
X125901Y142999D01*
Y141999D01*
X126400Y141500D01*
X127900D01*
X126900D02*
X125901Y140500D01*
X124901D02*
X123901D01*
X124401D01*
Y143499D01*
X124901Y142999D01*
X122402D02*
X121902Y143499D01*
X120902D01*
X120402Y142999D01*
Y142499D01*
X120902Y141999D01*
X121402D01*
X120902D01*
X120402Y141500D01*
Y141000D01*
X120902Y140500D01*
X121902D01*
X122402Y141000D01*
X119403D02*
X118903Y140500D01*
X117903D01*
X117403Y141000D01*
Y142999D01*
X117903Y143499D01*
X118903D01*
X119403Y142999D01*
Y142499D01*
X118903Y141999D01*
X117403D01*
X127700Y147100D02*
Y150099D01*
X126200D01*
X125701Y149599D01*
Y148600D01*
X126200Y148100D01*
X127700D01*
X126700D02*
X125701Y147100D01*
X124701D02*
X123701D01*
X124201D01*
Y150099D01*
X124701Y149599D01*
X122202D02*
X121702Y150099D01*
X120702D01*
X120202Y149599D01*
Y149099D01*
X120702Y148600D01*
X121202D01*
X120702D01*
X120202Y148100D01*
Y147600D01*
X120702Y147100D01*
X121702D01*
X122202Y147600D01*
X117203Y150099D02*
X118203Y149599D01*
X119203Y148600D01*
Y147600D01*
X118703Y147100D01*
X117703D01*
X117203Y147600D01*
Y148100D01*
X117703Y148600D01*
X119203D01*
X161600Y163500D02*
Y166499D01*
X160100D01*
X159601Y165999D01*
Y164999D01*
X160100Y164500D01*
X161600D01*
X160600D02*
X159601Y163500D01*
X158601D02*
X157601D01*
X158101D01*
Y166499D01*
X158601Y165999D01*
X156102D02*
X155602Y166499D01*
X154602D01*
X154102Y165999D01*
Y165499D01*
X154602Y164999D01*
X155102D01*
X154602D01*
X154102Y164500D01*
Y164000D01*
X154602Y163500D01*
X155602D01*
X156102Y164000D01*
X153103Y163500D02*
X152103D01*
X152603D01*
Y166499D01*
X153103Y165999D01*
X114400Y147200D02*
Y150199D01*
X112900D01*
X112401Y149699D01*
Y148699D01*
X112900Y148200D01*
X114400D01*
X113400D02*
X112401Y147200D01*
X111401D02*
X110401D01*
X110901D01*
Y150199D01*
X111401Y149699D01*
X108902D02*
X108402Y150199D01*
X107402D01*
X106902Y149699D01*
Y149199D01*
X107402Y148699D01*
X107902D01*
X107402D01*
X106902Y148200D01*
Y147700D01*
X107402Y147200D01*
X108402D01*
X108902Y147700D01*
X103903Y150199D02*
X105903D01*
Y148699D01*
X104903Y149199D01*
X104403D01*
X103903Y148699D01*
Y147700D01*
X104403Y147200D01*
X105403D01*
X105903Y147700D01*
X114300Y140500D02*
Y143499D01*
X112801D01*
X112301Y142999D01*
Y141999D01*
X112801Y141500D01*
X114300D01*
X113300D02*
X112301Y140500D01*
X111301D02*
X110301D01*
X110801D01*
Y143499D01*
X111301Y142999D01*
X108802D02*
X108302Y143499D01*
X107302D01*
X106802Y142999D01*
Y142499D01*
X107302Y141999D01*
X107802D01*
X107302D01*
X106802Y141500D01*
Y141000D01*
X107302Y140500D01*
X108302D01*
X108802Y141000D01*
X104303Y140500D02*
Y143499D01*
X105803Y141999D01*
X103803D01*
X215000Y148300D02*
Y151299D01*
X213500D01*
X213001Y150799D01*
Y149800D01*
X213500Y149300D01*
X215000D01*
X214000D02*
X213001Y148300D01*
X212001D02*
X211001D01*
X211501D01*
Y151299D01*
X212001Y150799D01*
X209502D02*
X209002Y151299D01*
X208002D01*
X207502Y150799D01*
Y150299D01*
X208002Y149800D01*
X208502D01*
X208002D01*
X207502Y149300D01*
Y148800D01*
X208002Y148300D01*
X209002D01*
X209502Y148800D01*
X206503Y150799D02*
X206003Y151299D01*
X205003D01*
X204503Y150799D01*
Y150299D01*
X205003Y149800D01*
X204503Y149300D01*
Y148800D01*
X205003Y148300D01*
X206003D01*
X206503Y148800D01*
Y149300D01*
X206003Y149800D01*
X206503Y150299D01*
Y150799D01*
X206003Y149800D02*
X205003D01*
X215000Y155800D02*
Y158799D01*
X213500D01*
X213001Y158299D01*
Y157299D01*
X213500Y156800D01*
X215000D01*
X214000D02*
X213001Y155800D01*
X212001D02*
X211001D01*
X211501D01*
Y158799D01*
X212001Y158299D01*
X209502D02*
X209002Y158799D01*
X208002D01*
X207502Y158299D01*
Y157799D01*
X208002Y157299D01*
X208502D01*
X208002D01*
X207502Y156800D01*
Y156300D01*
X208002Y155800D01*
X209002D01*
X209502Y156300D01*
X206503Y158299D02*
X206003Y158799D01*
X205003D01*
X204503Y158299D01*
Y157799D01*
X205003Y157299D01*
X205503D01*
X205003D01*
X204503Y156800D01*
Y156300D01*
X205003Y155800D01*
X206003D01*
X206503Y156300D01*
X182300Y111900D02*
Y114899D01*
X180800D01*
X180301Y114399D01*
Y113400D01*
X180800Y112900D01*
X182300D01*
X181300D02*
X180301Y111900D01*
X179301D02*
X178301D01*
X178801D01*
Y114899D01*
X179301Y114399D01*
X175302Y111900D02*
Y114899D01*
X176802Y113400D01*
X174802D01*
X173803Y114399D02*
X173303Y114899D01*
X172303D01*
X171803Y114399D01*
Y113899D01*
X172303Y113400D01*
X172803D01*
X172303D01*
X171803Y112900D01*
Y112400D01*
X172303Y111900D01*
X173303D01*
X173803Y112400D01*
X195100Y117700D02*
X198099D01*
Y119200D01*
X197599Y119699D01*
X196599D01*
X196100Y119200D01*
Y117700D01*
Y118700D02*
X195100Y119699D01*
Y120699D02*
Y121699D01*
Y121199D01*
X198099D01*
X197599Y120699D01*
X195100Y124698D02*
X198099D01*
X196599Y123198D01*
Y125198D01*
X195100Y127697D02*
X198099D01*
X196599Y126197D01*
Y128197D01*
X128601Y102899D02*
X129101Y103399D01*
X130100D01*
X130600Y102899D01*
Y100900D01*
X130100Y100400D01*
X129101D01*
X128601Y100900D01*
X125602Y103399D02*
X126601Y102899D01*
X127601Y101900D01*
Y100900D01*
X127101Y100400D01*
X126101D01*
X125602Y100900D01*
Y101400D01*
X126101Y101900D01*
X127601D01*
X124602Y102899D02*
X124102Y103399D01*
X123102D01*
X122603Y102899D01*
Y100900D01*
X123102Y100400D01*
X124102D01*
X124602Y100900D01*
Y102899D01*
X162001Y156499D02*
X162501Y156999D01*
X163500D01*
X164000Y156499D01*
Y154500D01*
X163500Y154000D01*
X162501D01*
X162001Y154500D01*
X159002Y156999D02*
X161001D01*
Y155499D01*
X160001Y155999D01*
X159501D01*
X159002Y155499D01*
Y154500D01*
X159501Y154000D01*
X160501D01*
X161001Y154500D01*
X156502Y154000D02*
Y156999D01*
X158002Y155499D01*
X156003D01*
X131201Y159599D02*
X131701Y160099D01*
X132700D01*
X133200Y159599D01*
Y157600D01*
X132700Y157100D01*
X131701D01*
X131201Y157600D01*
X128202Y160099D02*
X130201D01*
Y158599D01*
X129201Y159099D01*
X128701D01*
X128202Y158599D01*
Y157600D01*
X128701Y157100D01*
X129701D01*
X130201Y157600D01*
X125203Y157100D02*
X127202D01*
X125203Y159099D01*
Y159599D01*
X125702Y160099D01*
X126702D01*
X127202Y159599D01*
X161301Y114399D02*
X161801Y114899D01*
X162800D01*
X163300Y114399D01*
Y112400D01*
X162800Y111900D01*
X161801D01*
X161301Y112400D01*
X158302Y114899D02*
X160301D01*
Y113400D01*
X159301Y113899D01*
X158801D01*
X158302Y113400D01*
Y112400D01*
X158801Y111900D01*
X159801D01*
X160301Y112400D01*
X157302D02*
X156802Y111900D01*
X155802D01*
X155303Y112400D01*
Y114399D01*
X155802Y114899D01*
X156802D01*
X157302Y114399D01*
Y113899D01*
X156802Y113400D01*
X155303D01*
X128101Y115799D02*
X128601Y116299D01*
X129600D01*
X130100Y115799D01*
Y113800D01*
X129600Y113300D01*
X128601D01*
X128101Y113800D01*
X125102Y116299D02*
X127101D01*
Y114799D01*
X126101Y115299D01*
X125601D01*
X125102Y114799D01*
Y113800D01*
X125601Y113300D01*
X126601D01*
X127101Y113800D01*
X124102Y115799D02*
X123602Y116299D01*
X122602D01*
X122103Y115799D01*
Y115299D01*
X122602Y114799D01*
X122103Y114300D01*
Y113800D01*
X122602Y113300D01*
X123602D01*
X124102Y113800D01*
Y114300D01*
X123602Y114799D01*
X124102Y115299D01*
Y115799D01*
X123602Y114799D02*
X122602D01*
X99000Y158200D02*
X101999D01*
Y159699D01*
X101499Y160199D01*
X100499D01*
X100000Y159699D01*
Y158200D01*
Y159200D02*
X99000Y160199D01*
Y161199D02*
Y162199D01*
Y161699D01*
X101999D01*
X101499Y161199D01*
X101999Y165698D02*
Y163698D01*
X100499D01*
X100999Y164698D01*
Y165198D01*
X100499Y165698D01*
X99500D01*
X99000Y165198D01*
Y164198D01*
X99500Y163698D01*
X101999Y166697D02*
Y168697D01*
X101499D01*
X99500Y166697D01*
X99000D01*
X99200Y173450D02*
X102199D01*
Y174949D01*
X101699Y175449D01*
X100699D01*
X100200Y174949D01*
Y173450D01*
Y174449D02*
X99200Y175449D01*
Y176449D02*
Y177448D01*
Y176948D01*
X102199D01*
X101699Y176449D01*
X102199Y180947D02*
Y178948D01*
X100699D01*
X101199Y179947D01*
Y180447D01*
X100699Y180947D01*
X99700D01*
X99200Y180447D01*
Y179448D01*
X99700Y178948D01*
X102199Y183946D02*
X101699Y182947D01*
X100699Y181947D01*
X99700D01*
X99200Y182447D01*
Y183446D01*
X99700Y183946D01*
X100200D01*
X100699Y183446D01*
Y181947D01*
X101200Y271500D02*
Y274499D01*
X99700D01*
X99201Y273999D01*
Y273000D01*
X99700Y272500D01*
X101200D01*
X100200D02*
X99201Y271500D01*
X98201D02*
X97201D01*
X97701D01*
Y274499D01*
X98201Y273999D01*
X93702Y274499D02*
X95702D01*
Y273000D01*
X94702Y273499D01*
X94202D01*
X93702Y273000D01*
Y272000D01*
X94202Y271500D01*
X95202D01*
X95702Y272000D01*
X90703Y274499D02*
X92703D01*
Y273000D01*
X91703Y273499D01*
X91203D01*
X90703Y273000D01*
Y272000D01*
X91203Y271500D01*
X92203D01*
X92703Y272000D01*
X100800Y264500D02*
Y267499D01*
X99300D01*
X98801Y266999D01*
Y266000D01*
X99300Y265500D01*
X100800D01*
X99800D02*
X98801Y264500D01*
X97801D02*
X96801D01*
X97301D01*
Y267499D01*
X97801Y266999D01*
X93302Y267499D02*
X95302D01*
Y266000D01*
X94302Y266499D01*
X93802D01*
X93302Y266000D01*
Y265000D01*
X93802Y264500D01*
X94802D01*
X95302Y265000D01*
X90803Y264500D02*
Y267499D01*
X92303Y266000D01*
X90303D01*
G54D13*
X104398Y173854D02*
X116602D01*
X104398Y168146D02*
X116602D01*
Y173854D01*
X104398Y168146D02*
Y173854D01*
X195898Y249146D02*
Y254854D01*
X208102Y249146D02*
Y254854D01*
X195898Y249146D02*
X208102D01*
X195898Y254854D02*
X208102D01*
X208102Y242646D02*
Y248354D01*
X195898Y242646D02*
Y248354D01*
X208102D01*
X195898Y242646D02*
X208102D01*
X171398Y126146D02*
X183602D01*
X171398Y131854D02*
X183602D01*
X171398Y126146D02*
Y131854D01*
X183602Y126146D02*
Y131854D01*
Y133146D02*
Y138854D01*
X171398Y133146D02*
Y138854D01*
X183602D01*
X171398Y133146D02*
X183602D01*
X141646Y277102D02*
X147354D01*
X141646Y264898D02*
X147354D01*
X141646D02*
Y277102D01*
X147354Y264898D02*
Y277102D01*
X96398Y256646D02*
Y262354D01*
X108602Y256646D02*
Y262354D01*
X96398Y256646D02*
X108602D01*
X96398Y262354D02*
X108602D01*
X96398Y250146D02*
Y255854D01*
X108602Y250146D02*
Y255854D01*
X96398Y250146D02*
X108602D01*
X96398Y255854D02*
X108602D01*
X5307Y315306D02*
Y322393D01*
X18693Y315306D02*
Y322393D01*
X5307D02*
X18693D01*
X5307Y315306D02*
X18693D01*
X120543Y26307D02*
Y39693D01*
X113457Y26307D02*
Y39693D01*
X120543D01*
X113457Y26307D02*
X120543D01*
X151543D02*
Y39693D01*
X144457Y26307D02*
Y39693D01*
X151543D01*
X144457Y26307D02*
X151543D01*
X186043D02*
Y39693D01*
X178957Y26307D02*
Y39693D01*
X186043D01*
X178957Y26307D02*
X186043D01*
X29307Y156957D02*
X42693D01*
X29307Y164043D02*
X42693D01*
Y156957D02*
Y164043D01*
X29307Y156957D02*
Y164043D01*
Y123957D02*
X42693D01*
X29307Y131043D02*
X42693D01*
Y123957D02*
Y131043D01*
X29307Y123957D02*
Y131043D01*
X90543Y26307D02*
Y39693D01*
X83457Y26307D02*
Y39693D01*
X90543D01*
X83457Y26307D02*
X90543D01*
X29307Y55957D02*
X42693D01*
X29307Y63043D02*
X42693D01*
Y55957D02*
Y63043D01*
X29307Y55957D02*
Y63043D01*
Y91457D02*
X42693D01*
X29307Y98543D02*
X42693D01*
Y91457D02*
Y98543D01*
X29307Y91457D02*
Y98543D01*
X134957Y344693D02*
X142043D01*
X134957Y331307D02*
X142043D01*
Y344693D01*
X134957Y331307D02*
Y344693D01*
X170957D02*
X178043D01*
X170957Y331307D02*
X178043D01*
Y344693D01*
X170957Y331307D02*
Y344693D01*
X29807Y190457D02*
Y197543D01*
X43193Y190457D02*
Y197543D01*
X29807D02*
X43193D01*
X29807Y190457D02*
X43193D01*
X29107Y223857D02*
Y230943D01*
X42493Y223857D02*
Y230943D01*
X29107D02*
X42493D01*
X29107Y223857D02*
X42493D01*
X100606Y341693D02*
X107693D01*
X100606Y328307D02*
X107693D01*
Y341693D01*
X100606Y328307D02*
Y341693D01*
X31907Y293306D02*
Y300393D01*
X45293Y293306D02*
Y300393D01*
X31907D02*
X45293D01*
X31907Y293306D02*
X45293D01*
X62106Y342193D02*
X69193D01*
X62106Y328807D02*
X69193D01*
Y342193D01*
X62106Y328807D02*
Y342193D01*
X31907Y258806D02*
Y265893D01*
X45293Y258806D02*
Y265893D01*
X31907D02*
X45293D01*
X31907Y258806D02*
X45293D01*
X121106Y366193D02*
X128193D01*
X121106Y352807D02*
X128193D01*
Y366193D01*
X121106Y352807D02*
Y366193D01*
X84606Y352807D02*
Y366193D01*
X91693Y352807D02*
Y366193D01*
X84606Y352807D02*
X91693D01*
X84606Y366193D02*
X91693D01*
X5307Y282406D02*
X18693D01*
X5307Y289493D02*
X18693D01*
Y282406D02*
Y289493D01*
X5307Y282406D02*
Y289493D01*
Y245357D02*
Y252443D01*
X18693Y245357D02*
Y252443D01*
X5307D02*
X18693D01*
X5307Y245357D02*
X18693D01*
X5307Y211457D02*
X18693D01*
X5307Y218543D02*
X18693D01*
Y211457D02*
Y218543D01*
X5307Y211457D02*
Y218543D01*
X193457Y352807D02*
Y366193D01*
X200543Y352807D02*
Y366193D01*
X193457Y352807D02*
X200543D01*
X193457Y366193D02*
X200543D01*
X154957Y352807D02*
Y366193D01*
X162043Y352807D02*
Y366193D01*
X154957Y352807D02*
X162043D01*
X154957Y366193D02*
X162043D01*
X5307Y113457D02*
X18693D01*
X5307Y120543D02*
X18693D01*
Y113457D02*
Y120543D01*
X5307Y113457D02*
Y120543D01*
Y77957D02*
X18693D01*
X5307Y85043D02*
X18693D01*
Y77957D02*
Y85043D01*
X5307Y77957D02*
Y85043D01*
X69543Y5307D02*
Y18693D01*
X62457Y5307D02*
Y18693D01*
X69543D01*
X62457Y5307D02*
X69543D01*
X100543D02*
Y18693D01*
X93457Y5307D02*
Y18693D01*
X100543D01*
X93457Y5307D02*
X100543D01*
X131043D02*
Y18693D01*
X123957Y5307D02*
Y18693D01*
X131043D01*
X123957Y5307D02*
X131043D01*
X157957D02*
X165043D01*
X157957Y18693D02*
X165043D01*
X157957Y5307D02*
Y18693D01*
X165043Y5307D02*
Y18693D01*
X5307Y177457D02*
Y184543D01*
X18693Y177457D02*
Y184543D01*
X5307D02*
X18693D01*
X5307Y177457D02*
X18693D01*
X5307Y145957D02*
Y153043D01*
X18693Y145957D02*
Y153043D01*
X5307D02*
X18693D01*
X5307Y145957D02*
X18693D01*
X125146Y262602D02*
X130854D01*
X125146Y250398D02*
X130854D01*
X125146D02*
Y262602D01*
X130854Y250398D02*
Y262602D01*
X110031Y250457D02*
Y256165D01*
X122235Y250457D02*
Y256165D01*
X110031Y250457D02*
X122235D01*
X110031Y256165D02*
X122235D01*
X110031Y256857D02*
Y262565D01*
X122235Y256857D02*
Y262565D01*
X110031Y256857D02*
X122235D01*
X110031Y262565D02*
X122235D01*
X176902Y259546D02*
Y265254D01*
X164698Y259546D02*
Y265254D01*
X176902D01*
X164698Y259546D02*
X176902D01*
X163646Y232398D02*
X169354D01*
X163646Y244602D02*
X169354D01*
Y232398D02*
Y244602D01*
X163646Y232398D02*
Y244602D01*
X157146Y244602D02*
X162854D01*
X157146Y232398D02*
X162854D01*
X157146D02*
Y244602D01*
X162854Y232398D02*
Y244602D01*
X201854Y140898D02*
Y153102D01*
X196146Y140898D02*
Y153102D01*
Y140898D02*
X201854D01*
X196146Y153102D02*
X201854D01*
X193854Y140898D02*
Y153102D01*
X188146Y140898D02*
Y153102D01*
Y140898D02*
X193854D01*
X188146Y153102D02*
X193854D01*
X190779Y99489D02*
Y105198D01*
X202983Y99489D02*
Y105198D01*
X190779Y99489D02*
X202983D01*
X190779Y105198D02*
X202983D01*
X129646Y151102D02*
X135354D01*
X129646Y138898D02*
X135354D01*
X129646D02*
Y151102D01*
X135354Y138898D02*
Y151102D01*
X116398Y139146D02*
Y144854D01*
X128602Y139146D02*
Y144854D01*
X116398Y139146D02*
X128602D01*
X116398Y144854D02*
X128602D01*
X116398Y145646D02*
Y151354D01*
X128602Y145646D02*
Y151354D01*
X116398Y145646D02*
X128602D01*
X116398Y151354D02*
X128602D01*
X163102Y162146D02*
Y167854D01*
X150898Y162146D02*
Y167854D01*
X163102D01*
X150898Y162146D02*
X163102D01*
X102898Y145646D02*
Y151354D01*
X115102Y145646D02*
Y151354D01*
X102898Y145646D02*
X115102D01*
X102898Y151354D02*
X115102D01*
X102898Y139146D02*
Y144854D01*
X115102Y139146D02*
Y144854D01*
X102898Y139146D02*
X115102D01*
X102898Y144854D02*
X115102D01*
X215702Y146946D02*
Y152654D01*
X203498Y146946D02*
Y152654D01*
X215702D01*
X203498Y146946D02*
X215702D01*
X203498Y154346D02*
X215702D01*
X203498Y160054D02*
X215702D01*
X203498Y154346D02*
Y160054D01*
X215702Y154346D02*
Y160054D01*
X170898Y110646D02*
Y116354D01*
X183102Y110646D02*
Y116354D01*
X170898Y110646D02*
X183102D01*
X170898Y116354D02*
X183102D01*
X192563Y116012D02*
X200437D01*
X192563D02*
Y129988D01*
X200437Y116012D02*
Y129988D01*
X192563D02*
X200437D01*
X132331Y96095D02*
Y107905D01*
X120717Y96095D02*
X135284D01*
X120717Y107905D02*
X135284D01*
X120717Y96095D02*
Y107905D01*
X135284Y96095D02*
Y107905D01*
X154169Y149094D02*
Y160906D01*
X151216D02*
X165784D01*
X151216Y149094D02*
X165784D01*
Y160906D01*
X151216Y149094D02*
Y160906D01*
X134831Y152594D02*
Y164406D01*
X123216Y152594D02*
X137784D01*
X123216Y164406D02*
X137784D01*
X123216Y152594D02*
Y164406D01*
X137784Y152594D02*
Y164406D01*
X150716Y107595D02*
Y119405D01*
X165284Y107595D02*
Y119405D01*
X150716Y107595D02*
X165284D01*
X150716Y119405D02*
X165284D01*
X153669Y107595D02*
Y119405D01*
X150094Y265216D02*
X161906D01*
X150094Y279784D02*
X161906D01*
Y265216D02*
Y279784D01*
X150094Y265216D02*
Y279784D01*
Y268169D02*
X161906D01*
X127594Y269169D02*
X139406D01*
X127594Y266216D02*
Y280784D01*
X139406Y266216D02*
Y280784D01*
X127594D02*
X139406D01*
X127594Y266216D02*
X139406D01*
X123716Y214906D02*
Y226716D01*
X109150Y214906D02*
Y226716D01*
X123716D01*
X109150Y214906D02*
X123716D01*
X120764D02*
Y226716D01*
X150102Y214405D02*
Y226217D01*
X147150D02*
X161716D01*
X147150Y214405D02*
X161716D01*
Y226217D01*
X147150Y214405D02*
Y226217D01*
X134783Y109095D02*
Y120905D01*
X120217Y109095D02*
Y120905D01*
X134783D01*
X120217Y109095D02*
X134783D01*
X131831D02*
Y120905D01*
X120431Y201495D02*
Y213305D01*
X108817Y201495D02*
X123383D01*
X108817Y213305D02*
X123383D01*
X108817Y201495D02*
Y213305D01*
X123383Y201495D02*
Y213305D01*
X164369Y246495D02*
Y258306D01*
X161416D02*
X175984D01*
X161416Y246495D02*
X175984D01*
Y258306D01*
X161416Y246495D02*
Y258306D01*
X97646Y157398D02*
Y169602D01*
X103354Y157398D02*
Y169602D01*
X97646D02*
X103354D01*
X97646Y157398D02*
X103354D01*
X97646Y172547D02*
Y184752D01*
X103354Y172547D02*
Y184752D01*
X97646D02*
X103354D01*
X97646Y172547D02*
X103354D01*
X89698Y275654D02*
X101902D01*
X89698Y269946D02*
X101902D01*
Y275654D01*
X89698Y269946D02*
Y275654D01*
X89598Y263346D02*
X101802D01*
X89598Y269054D02*
X101802D01*
X89598Y263346D02*
Y269054D01*
X101802Y263346D02*
Y269054D01*
G54D14*
X103550Y-65617D02*
Y-59619D01*
X99551Y-65617D01*
Y-59619D01*
X96552Y-65617D02*
X94553D01*
X93553Y-64617D01*
Y-62618D01*
X94553Y-61618D01*
X96552D01*
X97552Y-62618D01*
Y-64617D01*
X96552Y-65617D01*
X90554Y-60618D02*
Y-61618D01*
X91554D01*
X89555D01*
X90554D01*
Y-64617D01*
X89555Y-65617D01*
X80557Y-59619D02*
X78558D01*
X79558D01*
Y-65617D01*
X80557D01*
X78558D01*
X75559D02*
Y-61618D01*
X72560D01*
X71560Y-62618D01*
Y-65617D01*
X63563Y-59619D02*
Y-63617D01*
X61564Y-65617D01*
X59564Y-63617D01*
Y-59619D01*
X54566Y-65617D02*
X56565D01*
X57565Y-64617D01*
Y-62618D01*
X56565Y-61618D01*
X54566D01*
X53566Y-62618D01*
Y-63617D01*
X57565D01*
X51567Y-61618D02*
Y-65617D01*
Y-63617D01*
X50567Y-62618D01*
X49567Y-61618D01*
X48568D01*
X45569Y-65617D02*
X42570D01*
X41570Y-64617D01*
X42570Y-63617D01*
X44569D01*
X45569Y-62618D01*
X44569Y-61618D01*
X41570D01*
X39571Y-65617D02*
X37571D01*
X38571D01*
Y-61618D01*
X39571D01*
X33573Y-65617D02*
X31573D01*
X30574Y-64617D01*
Y-62618D01*
X31573Y-61618D01*
X33573D01*
X34572Y-62618D01*
Y-64617D01*
X33573Y-65617D01*
X28574D02*
Y-61618D01*
X25575D01*
X24576Y-62618D01*
Y-65617D01*
X18577Y-60618D02*
X19577Y-59619D01*
X21576D01*
X22576Y-60618D01*
Y-64617D01*
X21576Y-65617D01*
X19577D01*
X18577Y-64617D01*
X15578Y-65617D02*
X13579D01*
X12579Y-64617D01*
Y-62618D01*
X13579Y-61618D01*
X15578D01*
X16578Y-62618D01*
Y-64617D01*
X15578Y-65617D01*
X10580D02*
Y-61618D01*
X7581D01*
X6581Y-62618D01*
Y-65617D01*
X3582Y-60618D02*
Y-61618D01*
X4582D01*
X2583D01*
X3582D01*
Y-64617D01*
X2583Y-65617D01*
X-416Y-61618D02*
Y-65617D01*
Y-63617D01*
X-1416Y-62618D01*
X-2416Y-61618D01*
X-3415D01*
X-7414Y-65617D02*
X-9414D01*
X-10413Y-64617D01*
Y-62618D01*
X-9414Y-61618D01*
X-7414D01*
X-6414Y-62618D01*
Y-64617D01*
X-7414Y-65617D01*
X-12412D02*
X-14412D01*
X-13412D01*
Y-59619D01*
X-12412D01*
X150151Y-60618D02*
X151151Y-59619D01*
X153150D01*
X154150Y-60618D01*
Y-61618D01*
X153150Y-62618D01*
X151151D01*
X150151Y-63617D01*
Y-64617D01*
X151151Y-65617D01*
X153150D01*
X154150Y-64617D01*
X148152Y-59619D02*
Y-63617D01*
X146153Y-65617D01*
X144153Y-63617D01*
Y-59619D01*
X142154Y-65617D02*
Y-59619D01*
X138155Y-65617D01*
Y-59619D01*
X130158Y-65617D02*
Y-59619D01*
X127159D01*
X126159Y-60618D01*
Y-62618D01*
X127159Y-63617D01*
X130158D01*
X128158D02*
X126159Y-65617D01*
X120161Y-59619D02*
X124160D01*
Y-65617D01*
X120161D01*
X124160Y-62618D02*
X122160D01*
X118162Y-59619D02*
Y-63617D01*
X116162Y-65617D01*
X114163Y-63617D01*
Y-59619D01*
X112164Y-61618D02*
X111164D01*
Y-62618D01*
X112164D01*
Y-61618D01*
Y-64617D02*
X111164D01*
Y-65617D01*
X112164D01*
Y-64617D01*
X624600Y-106483D02*
Y-100486D01*
X621601D01*
X620601Y-101485D01*
Y-103484D01*
X621601Y-104484D01*
X624600D01*
X618602Y-100486D02*
Y-106483D01*
X614603D01*
X609605Y-100486D02*
X611604D01*
X612604Y-101485D01*
Y-105484D01*
X611604Y-106483D01*
X609605D01*
X608605Y-105484D01*
Y-101485D01*
X609605Y-100486D01*
X606606D02*
X602607D01*
X604606D01*
Y-106483D01*
X594610D02*
Y-100486D01*
X590611Y-106483D01*
Y-100486D01*
X588612Y-106483D02*
Y-102485D01*
X586612Y-100486D01*
X584613Y-102485D01*
Y-106483D01*
Y-103484D01*
X588612D01*
X582614Y-106483D02*
Y-100486D01*
X580614Y-102485D01*
X578615Y-100486D01*
Y-106483D01*
X572617Y-100486D02*
X576615D01*
Y-106483D01*
X572617D01*
X576615Y-103484D02*
X574616D01*
X564619Y-104484D02*
X560621D01*
X564619Y-102485D02*
X560621D01*
X372751Y-101485D02*
X373751Y-100486D01*
X375750D01*
X376750Y-101485D01*
Y-105484D01*
X375750Y-106483D01*
X373751D01*
X372751Y-105484D01*
Y-103484D01*
X374751D01*
X366753Y-100486D02*
X370752D01*
Y-106483D01*
X366753D01*
X370752Y-103484D02*
X368753D01*
X364754Y-106483D02*
Y-100486D01*
X360755Y-106483D01*
Y-100486D01*
X354757D02*
X358756D01*
Y-106483D01*
X354757D01*
X358756Y-103484D02*
X356756D01*
X352758Y-106483D02*
Y-100486D01*
X349759D01*
X348759Y-101485D01*
Y-103484D01*
X349759Y-104484D01*
X352758D01*
X350758D02*
X348759Y-106483D01*
X346760D02*
Y-102485D01*
X344760Y-100486D01*
X342761Y-102485D01*
Y-106483D01*
Y-103484D01*
X346760D01*
X340762Y-100486D02*
X336763D01*
X338762D01*
Y-106483D01*
X330765Y-100486D02*
X334764D01*
Y-106483D01*
X330765D01*
X334764Y-103484D02*
X332764D01*
X328766Y-100486D02*
Y-106483D01*
X325766D01*
X324767Y-105484D01*
Y-101485D01*
X325766Y-100486D01*
X328766D01*
X298775Y-102485D02*
X297776D01*
Y-103484D01*
X298775D01*
Y-102485D01*
Y-105484D02*
X297776D01*
Y-106483D01*
X298775D01*
Y-105484D01*
X322400Y-60618D02*
X319068D01*
X320734D01*
Y-65617D01*
X317402Y-60618D02*
X315736D01*
X316569D01*
Y-65617D01*
X317402D01*
X315736D01*
X313236Y-60618D02*
Y-65617D01*
X310737D01*
X309904Y-64784D01*
Y-61451D01*
X310737Y-60618D01*
X313236D01*
X308238Y-65617D02*
Y-62284D01*
X306572Y-60618D01*
X304906Y-62284D01*
Y-65617D01*
Y-63117D01*
X308238D01*
X303239D02*
X299907D01*
X298241Y-61451D02*
X297408Y-60618D01*
X295742D01*
X294909Y-61451D01*
Y-64784D01*
X295742Y-65617D01*
X297408D01*
X298241Y-64784D01*
Y-61451D01*
X293243Y-65617D02*
X291577D01*
X292410D01*
Y-60618D01*
X293243Y-61451D01*
X285745Y-60618D02*
X289077D01*
Y-63117D01*
X287411Y-62284D01*
X286578D01*
X285745Y-63117D01*
Y-64784D01*
X286578Y-65617D01*
X288244D01*
X289077Y-64784D01*
X284079Y-60618D02*
X280747D01*
Y-61451D01*
X284079Y-64784D01*
Y-65617D01*
X275748Y-60618D02*
X277415Y-61451D01*
X279081Y-63117D01*
Y-64784D01*
X278248Y-65617D01*
X276582D01*
X275748Y-64784D01*
Y-63951D01*
X276582Y-63117D01*
X279081D01*
X274082Y-66450D02*
X270750D01*
X269084Y-60618D02*
Y-65617D01*
X266585D01*
X265752Y-64784D01*
Y-61451D01*
X266585Y-60618D01*
X269084D01*
X264086D02*
Y-64784D01*
X263252Y-65617D01*
X261586D01*
X260753Y-64784D01*
Y-60618D01*
X259087Y-65617D02*
Y-62284D01*
X257421Y-60618D01*
X255755Y-62284D01*
Y-65617D01*
Y-63117D01*
X259087D01*
X254089Y-60618D02*
Y-65617D01*
X250757D01*
X249090Y-66450D02*
X245758D01*
X240760Y-61451D02*
X241593Y-60618D01*
X243259D01*
X244092Y-61451D01*
Y-62284D01*
X243259Y-63117D01*
X241593D01*
X240760Y-63951D01*
Y-64784D01*
X241593Y-65617D01*
X243259D01*
X244092Y-64784D01*
X239094Y-60618D02*
Y-65617D01*
X236595D01*
X235761Y-64784D01*
Y-61451D01*
X236595Y-60618D01*
X239094D01*
X231596D02*
X233262D01*
X234095Y-61451D01*
Y-64784D01*
X233262Y-65617D01*
X231596D01*
X230763Y-64784D01*
Y-61451D01*
X231596Y-60618D01*
X376950Y-59619D02*
Y-65617D01*
X373951D01*
X372951Y-64617D01*
Y-63617D01*
X373951Y-62618D01*
X376950D01*
X373951D01*
X372951Y-61618D01*
Y-60618D01*
X373951Y-59619D01*
X376950D01*
X367953D02*
X369952D01*
X370952Y-60618D01*
Y-64617D01*
X369952Y-65617D01*
X367953D01*
X366953Y-64617D01*
Y-60618D01*
X367953Y-59619D01*
X364954Y-65617D02*
Y-61618D01*
X362954Y-59619D01*
X360955Y-61618D01*
Y-65617D01*
Y-62618D01*
X364954D01*
X358956Y-65617D02*
Y-59619D01*
X355957D01*
X354957Y-60618D01*
Y-62618D01*
X355957Y-63617D01*
X358956D01*
X356957D02*
X354957Y-65617D01*
X352958Y-59619D02*
Y-65617D01*
X349959D01*
X348959Y-64617D01*
Y-60618D01*
X349959Y-59619D01*
X352958D01*
X339962Y-65617D02*
Y-59619D01*
X337963D02*
Y-65617D01*
X340962Y-61618D02*
X337963D01*
X336963D01*
X340962Y-63617D02*
X336963D01*
X334964Y-61618D02*
X333964D01*
Y-62618D01*
X334964D01*
Y-61618D01*
Y-64617D02*
X333964D01*
Y-65617D01*
X334964D01*
Y-64617D01*
X216900Y-101485D02*
X215900Y-100486D01*
X213901D01*
X212901Y-101485D01*
Y-102485D01*
X213901Y-103484D01*
X214901D01*
X213901D01*
X212901Y-104484D01*
Y-105484D01*
X213901Y-106483D01*
X215900D01*
X216900Y-105484D01*
X210902Y-102485D02*
X209902D01*
Y-103484D01*
X210902D01*
Y-102485D01*
Y-105484D02*
X209902D01*
Y-106483D01*
X210902D01*
Y-105484D01*
X201905Y-100486D02*
X205904D01*
Y-103484D01*
X203904Y-102485D01*
X202905D01*
X201905Y-103484D01*
Y-105484D01*
X202905Y-106483D01*
X204904D01*
X205904Y-105484D01*
X195907Y-106483D02*
X199906D01*
X195907Y-102485D01*
Y-101485D01*
X196906Y-100486D01*
X198906D01*
X199906Y-101485D01*
X193907Y-102485D02*
X192908D01*
Y-103484D01*
X193907D01*
Y-102485D01*
Y-105484D02*
X192908D01*
Y-106483D01*
X193907D01*
Y-105484D01*
X184910Y-106483D02*
X188909D01*
X184910Y-102485D01*
Y-101485D01*
X185910Y-100486D01*
X187909D01*
X188909Y-101485D01*
X182911Y-105484D02*
X181911Y-106483D01*
X179912D01*
X178912Y-105484D01*
Y-101485D01*
X179912Y-100486D01*
X181911D01*
X182911Y-101485D01*
Y-102485D01*
X181911Y-103484D01*
X178912D01*
X170915Y-106483D02*
Y-100486D01*
X167916D01*
X166916Y-101485D01*
Y-103484D01*
X167916Y-104484D01*
X170915D01*
X164917Y-106483D02*
Y-100486D01*
X162917Y-102485D01*
X160918Y-100486D01*
Y-106483D01*
X217300Y-65500D02*
Y-59502D01*
X214301D01*
X213301Y-60502D01*
Y-62501D01*
X214301Y-63501D01*
X217300D01*
X215301D02*
X213301Y-65500D01*
X207303Y-59502D02*
X211302D01*
Y-65500D01*
X207303D01*
X211302Y-62501D02*
X209303D01*
X205304Y-59502D02*
Y-63501D01*
X203305Y-65500D01*
X201305Y-63501D01*
Y-59502D01*
X199306Y-61501D02*
X198306D01*
Y-62501D01*
X199306D01*
Y-61501D01*
Y-64500D02*
X198306D01*
Y-65500D01*
X199306D01*
Y-64500D01*
X184311Y-59502D02*
X188309D01*
Y-65500D01*
X184311D01*
X188309Y-62501D02*
X186310D01*
X178313Y-65500D02*
X182311D01*
X178313Y-61501D01*
Y-60502D01*
X179312Y-59502D01*
X181312D01*
X182311Y-60502D01*
X254785Y-79851D02*
X252786D01*
X253785D01*
Y-85849D01*
X254785D01*
X252786D01*
X245788Y-80851D02*
X246788Y-79851D01*
X248787D01*
X249787Y-80851D01*
Y-84850D01*
X248787Y-85849D01*
X246788D01*
X245788Y-84850D01*
Y-82850D01*
X247787D01*
X243789Y-85849D02*
Y-79851D01*
X239790Y-85849D01*
Y-79851D01*
X234792D02*
X236791D01*
X237791Y-80851D01*
Y-84850D01*
X236791Y-85849D01*
X234792D01*
X233792Y-84850D01*
Y-80851D01*
X234792Y-79851D01*
X231793Y-85849D02*
Y-79851D01*
X228794D01*
X227794Y-80851D01*
Y-82850D01*
X228794Y-83850D01*
X231793D01*
X229793D02*
X227794Y-85849D01*
X221796Y-79851D02*
X225795D01*
Y-85849D01*
X221796D01*
X225795Y-82850D02*
X223795D01*
X213798D02*
X209800D01*
X207800Y-85849D02*
X204801Y-82850D01*
X207800Y-79851D01*
X557900Y-100801D02*
X554901D01*
X556400D01*
Y-105300D01*
X553402Y-100801D02*
X551902D01*
X552652D01*
Y-105300D01*
X553402D01*
X551902D01*
X549653Y-100801D02*
Y-105300D01*
X547403D01*
X546654Y-104550D01*
Y-101551D01*
X547403Y-100801D01*
X549653D01*
X545154Y-105300D02*
Y-102301D01*
X543655Y-100801D01*
X542155Y-102301D01*
Y-105300D01*
Y-103051D01*
X545154D01*
X540656D02*
X537656D01*
X536157Y-101551D02*
X535407Y-100801D01*
X533908D01*
X533158Y-101551D01*
Y-104550D01*
X533908Y-105300D01*
X535407D01*
X536157Y-104550D01*
Y-101551D01*
X531659Y-105300D02*
X530159D01*
X530909D01*
Y-100801D01*
X531659Y-101551D01*
X524911Y-100801D02*
X527910D01*
Y-103051D01*
X526410Y-102301D01*
X525660D01*
X524911Y-103051D01*
Y-104550D01*
X525660Y-105300D01*
X527160D01*
X527910Y-104550D01*
X523411Y-100801D02*
X520412D01*
Y-101551D01*
X523411Y-104550D01*
Y-105300D01*
X515913Y-100801D02*
X517413Y-101551D01*
X518913Y-103051D01*
Y-104550D01*
X518163Y-105300D01*
X516663D01*
X515913Y-104550D01*
Y-103800D01*
X516663Y-103051D01*
X518913D01*
X514414Y-106050D02*
X511415D01*
X509915Y-100801D02*
Y-105300D01*
X507666D01*
X506916Y-104550D01*
Y-101551D01*
X507666Y-100801D01*
X509915D01*
X505417D02*
Y-104550D01*
X504667Y-105300D01*
X503168D01*
X502418Y-104550D01*
Y-100801D01*
X500918Y-105300D02*
Y-102301D01*
X499419Y-100801D01*
X497919Y-102301D01*
Y-105300D01*
Y-103051D01*
X500918D01*
X496420Y-100801D02*
Y-105300D01*
X493421D01*
X491921Y-106050D02*
X488922D01*
X484424Y-101551D02*
X485173Y-100801D01*
X486673D01*
X487423Y-101551D01*
Y-102301D01*
X486673Y-103051D01*
X485173D01*
X484424Y-103800D01*
Y-104550D01*
X485173Y-105300D01*
X486673D01*
X487423Y-104550D01*
X482924Y-100801D02*
Y-105300D01*
X480675D01*
X479925Y-104550D01*
Y-101551D01*
X480675Y-100801D01*
X482924D01*
X476176D02*
X477676D01*
X478426Y-101551D01*
Y-104550D01*
X477676Y-105300D01*
X476176D01*
X475427Y-104550D01*
Y-101551D01*
X476176Y-100801D01*
X470928D02*
X473927D01*
Y-105300D01*
X470928D01*
X473927Y-103051D02*
X472428D01*
X469428Y-105300D02*
X467929D01*
X468679D01*
Y-100801D01*
X469428Y-101551D01*
X465680Y-105300D02*
Y-104550D01*
X464930D01*
Y-105300D01*
X465680D01*
X458932Y-101551D02*
X459682Y-100801D01*
X461181D01*
X461931Y-101551D01*
Y-104550D01*
X461181Y-105300D01*
X459682D01*
X458932Y-104550D01*
Y-103051D01*
X460431D01*
X457432Y-105300D02*
Y-100801D01*
X455933Y-102301D01*
X454433Y-100801D01*
Y-105300D01*
X449935Y-100801D02*
X451434Y-101551D01*
X452934Y-103051D01*
Y-104550D01*
X452184Y-105300D01*
X450685D01*
X449935Y-104550D01*
Y-103800D01*
X450685Y-103051D01*
X452934D01*
X289800Y-106483D02*
X287801D01*
X288800D01*
Y-100486D01*
X289800Y-101485D01*
X284802D02*
X283802Y-100486D01*
X281803D01*
X280803Y-101485D01*
Y-105484D01*
X281803Y-106483D01*
X283802D01*
X284802Y-105484D01*
Y-101485D01*
X278804Y-106483D02*
X274805Y-102485D01*
X272806Y-106483D02*
X270806D01*
X271806D01*
Y-100486D01*
X272806Y-101485D01*
X263808Y-106483D02*
X267807D01*
X263808Y-102485D01*
Y-101485D01*
X264808Y-100486D01*
X266807D01*
X267807Y-101485D01*
X261809Y-106483D02*
X257810Y-102485D01*
X251812Y-106483D02*
X255811D01*
X251812Y-102485D01*
Y-101485D01*
X252812Y-100486D01*
X254811D01*
X255811Y-101485D01*
X249813D02*
X248813Y-100486D01*
X246814D01*
X245814Y-101485D01*
Y-105484D01*
X246814Y-106483D01*
X248813D01*
X249813Y-105484D01*
Y-101485D01*
X243815Y-106483D02*
X241815D01*
X242815D01*
Y-100486D01*
X243815Y-101485D01*
X238816Y-100486D02*
X234818D01*
Y-101485D01*
X238816Y-105484D01*
Y-106483D01*
X624600Y-65617D02*
Y-59619D01*
X621601D01*
X620601Y-60618D01*
Y-62618D01*
X621601Y-63617D01*
X624600D01*
X614603Y-60618D02*
X615603Y-59619D01*
X617602D01*
X618602Y-60618D01*
Y-64617D01*
X617602Y-65617D01*
X615603D01*
X614603Y-64617D01*
X612604Y-59619D02*
Y-65617D01*
X609605D01*
X608605Y-64617D01*
Y-63617D01*
X609605Y-62618D01*
X612604D01*
X609605D01*
X608605Y-61618D01*
Y-60618D01*
X609605Y-59619D01*
X612604D01*
X600608D02*
Y-63617D01*
X598608Y-65617D01*
X596609Y-63617D01*
Y-59619D01*
X594610D02*
X592610D01*
X593610D01*
Y-65617D01*
X594610D01*
X592610D01*
X585613Y-59619D02*
X589611D01*
Y-65617D01*
X585613D01*
X589611Y-62618D02*
X587612D01*
X583613Y-59619D02*
Y-65617D01*
X581614Y-63617D01*
X579614Y-65617D01*
Y-59619D01*
X573617D02*
X577615D01*
Y-65617D01*
X573617D01*
X577615Y-62618D02*
X575616D01*
X571617Y-59619D02*
Y-65617D01*
X568618D01*
X567618Y-64617D01*
Y-60618D01*
X568618Y-59619D01*
X571617D01*
X555622D02*
X559621D01*
Y-62618D01*
X557622D01*
X559621D01*
Y-65617D01*
X553623D02*
Y-59619D01*
X550624D01*
X549624Y-60618D01*
Y-62618D01*
X550624Y-63617D01*
X553623D01*
X551624D02*
X549624Y-65617D01*
X544626Y-59619D02*
X546625D01*
X547625Y-60618D01*
Y-64617D01*
X546625Y-65617D01*
X544626D01*
X543626Y-64617D01*
Y-60618D01*
X544626Y-59619D01*
X541627Y-65617D02*
Y-59619D01*
X539628Y-61618D01*
X537628Y-59619D01*
Y-65617D01*
X529631Y-59619D02*
Y-65617D01*
X526632D01*
X525632Y-64617D01*
Y-63617D01*
X526632Y-62618D01*
X529631D01*
X526632D01*
X525632Y-61618D01*
Y-60618D01*
X526632Y-59619D01*
X529631D01*
X520634D02*
X522633D01*
X523633Y-60618D01*
Y-64617D01*
X522633Y-65617D01*
X520634D01*
X519634Y-64617D01*
Y-60618D01*
X520634Y-59619D01*
X517635D02*
X513636D01*
X515635D01*
Y-65617D01*
X511636Y-59619D02*
X507638D01*
X509637D01*
Y-65617D01*
X502639Y-59619D02*
X504639D01*
X505639Y-60618D01*
Y-64617D01*
X504639Y-65617D01*
X502639D01*
X501640Y-64617D01*
Y-60618D01*
X502639Y-59619D01*
X499640Y-65617D02*
Y-59619D01*
X497641Y-61618D01*
X495642Y-59619D01*
Y-65617D01*
X483646Y-60618D02*
X484645Y-59619D01*
X486645D01*
X487644Y-60618D01*
Y-61618D01*
X486645Y-62618D01*
X484645D01*
X483646Y-63617D01*
Y-64617D01*
X484645Y-65617D01*
X486645D01*
X487644Y-64617D01*
X481646Y-59619D02*
X479647D01*
X480647D01*
Y-65617D01*
X481646D01*
X479647D01*
X476648Y-59619D02*
Y-65617D01*
X473649D01*
X472649Y-64617D01*
Y-60618D01*
X473649Y-59619D01*
X476648D01*
X466651D02*
X470650D01*
Y-65617D01*
X466651D01*
X470650Y-62618D02*
X468650D01*
X90450Y-100486D02*
X86451D01*
X88451D01*
Y-106483D01*
X80453Y-100486D02*
X84452D01*
Y-106483D01*
X80453D01*
X84452Y-103484D02*
X82453D01*
X78454Y-100486D02*
X74455Y-106483D01*
Y-100486D02*
X78454Y-106483D01*
X72456D02*
Y-102485D01*
X70456Y-100486D01*
X68457Y-102485D01*
Y-106483D01*
Y-103484D01*
X72456D01*
X62459Y-101485D02*
X63459Y-100486D01*
X65458D01*
X66458Y-101485D01*
Y-102485D01*
X65458Y-103484D01*
X63459D01*
X62459Y-104484D01*
Y-105484D01*
X63459Y-106483D01*
X65458D01*
X66458Y-105484D01*
X54462Y-100486D02*
X52462D01*
X53462D01*
Y-106483D01*
X54462D01*
X52462D01*
X49463D02*
Y-100486D01*
X45465Y-106483D01*
Y-100486D01*
X39467Y-101485D02*
X40466Y-100486D01*
X42465D01*
X43465Y-101485D01*
Y-102485D01*
X42465Y-103484D01*
X40466D01*
X39467Y-104484D01*
Y-105484D01*
X40466Y-106483D01*
X42465D01*
X43465Y-105484D01*
X37467Y-100486D02*
X33468D01*
X35468D01*
Y-106483D01*
X31469D02*
Y-100486D01*
X28470D01*
X27470Y-101485D01*
Y-103484D01*
X28470Y-104484D01*
X31469D01*
X29470D02*
X27470Y-106483D01*
X25471Y-100486D02*
Y-105484D01*
X24471Y-106483D01*
X22472D01*
X21472Y-105484D01*
Y-100486D01*
X19473Y-106483D02*
Y-100486D01*
X17474Y-102485D01*
X15474Y-100486D01*
Y-106483D01*
X9476Y-100486D02*
X13475D01*
Y-106483D01*
X9476D01*
X13475Y-103484D02*
X11475D01*
X7477Y-106483D02*
Y-100486D01*
X3478Y-106483D01*
Y-100486D01*
X1479D02*
X-2520D01*
X-521D01*
Y-106483D01*
X-8518Y-101485D02*
X-7518Y-100486D01*
X-5519D01*
X-4519Y-101485D01*
Y-102485D01*
X-5519Y-103484D01*
X-7518D01*
X-8518Y-104484D01*
Y-105484D01*
X-7518Y-106483D01*
X-5519D01*
X-4519Y-105484D01*
X609700Y-43400D02*
Y-39401D01*
X607701Y-37402D01*
X605701Y-39401D01*
Y-43400D01*
Y-40401D01*
X609700D01*
X599703Y-38402D02*
X600703Y-37402D01*
X602702D01*
X603702Y-38402D01*
Y-39401D01*
X602702Y-40401D01*
X600703D01*
X599703Y-41401D01*
Y-42400D01*
X600703Y-43400D01*
X602702D01*
X603702Y-42400D01*
X593705Y-38402D02*
X594705Y-37402D01*
X596704D01*
X597704Y-38402D01*
Y-39401D01*
X596704Y-40401D01*
X594705D01*
X593705Y-41401D01*
Y-42400D01*
X594705Y-43400D01*
X596704D01*
X597704Y-42400D01*
X587707Y-37402D02*
X591706D01*
Y-43400D01*
X587707D01*
X591706Y-40401D02*
X589707D01*
X585708Y-43400D02*
Y-37402D01*
X583708Y-39401D01*
X581709Y-37402D01*
Y-43400D01*
X579710Y-37402D02*
Y-43400D01*
X576711D01*
X575711Y-42400D01*
Y-41401D01*
X576711Y-40401D01*
X579710D01*
X576711D01*
X575711Y-39401D01*
Y-38402D01*
X576711Y-37402D01*
X579710D01*
X573712D02*
Y-43400D01*
X569713D01*
X567714Y-37402D02*
Y-38402D01*
X565714Y-40401D01*
X563715Y-38402D01*
Y-37402D01*
X565714Y-40401D02*
Y-43400D01*
X555718Y-37402D02*
Y-41401D01*
X553718Y-43400D01*
X551719Y-41401D01*
Y-37402D01*
X549719Y-43400D02*
Y-39401D01*
X547720Y-37402D01*
X545721Y-39401D01*
Y-43400D01*
Y-40401D01*
X549719D01*
X543721Y-43400D02*
Y-37402D01*
X540722D01*
X539723Y-38402D01*
Y-40401D01*
X540722Y-41401D01*
X543721D01*
X541722D02*
X539723Y-43400D01*
X537723Y-37402D02*
X535724D01*
X536724D01*
Y-43400D01*
X537723D01*
X535724D01*
X532725D02*
Y-39401D01*
X530726Y-37402D01*
X528726Y-39401D01*
Y-43400D01*
Y-40401D01*
X532725D01*
X526727Y-43400D02*
Y-37402D01*
X522728Y-43400D01*
Y-37402D01*
X520729D02*
X516730D01*
X518729D01*
Y-43400D01*
X514731Y-39401D02*
X513731D01*
Y-40401D01*
X514731D01*
Y-39401D01*
Y-42400D02*
X513731D01*
Y-43400D01*
X514731D01*
Y-42400D01*
X505800Y-38402D02*
X504800Y-37402D01*
X502801D01*
X501801Y-38402D01*
Y-42400D01*
X502801Y-43400D01*
X504800D01*
X505800Y-42400D01*
Y-38402D01*
X499802D02*
X498802Y-37402D01*
X496803D01*
X495803Y-38402D01*
Y-42400D01*
X496803Y-43400D01*
X498802D01*
X499802Y-42400D01*
Y-38402D01*
X493804Y-43400D02*
X491805D01*
X492804D01*
Y-37402D01*
X493804Y-38402D01*
X606201Y-26802D02*
X607201Y-25802D01*
X609200D01*
X610200Y-26802D01*
Y-30800D01*
X609200Y-31800D01*
X607201D01*
X606201Y-30800D01*
X601203Y-25802D02*
X603202D01*
X604202Y-26802D01*
Y-30800D01*
X603202Y-31800D01*
X601203D01*
X600203Y-30800D01*
Y-26802D01*
X601203Y-25802D01*
X598204Y-31800D02*
Y-25802D01*
X596205Y-27801D01*
X594205Y-25802D01*
Y-31800D01*
X592206D02*
Y-25802D01*
X589207D01*
X588207Y-26802D01*
Y-28801D01*
X589207Y-29801D01*
X592206D01*
X583209Y-25802D02*
X585208D01*
X586208Y-26802D01*
Y-30800D01*
X585208Y-31800D01*
X583209D01*
X582209Y-30800D01*
Y-26802D01*
X583209Y-25802D01*
X580210Y-31800D02*
Y-25802D01*
X576211Y-31800D01*
Y-25802D01*
X570213D02*
X574212D01*
Y-31800D01*
X570213D01*
X574212Y-28801D02*
X572212D01*
X568214Y-31800D02*
Y-25802D01*
X564215Y-31800D01*
Y-25802D01*
X562216D02*
X558217D01*
X560216D01*
Y-31800D01*
X552219Y-26802D02*
X553218Y-25802D01*
X555218D01*
X556217Y-26802D01*
Y-27801D01*
X555218Y-28801D01*
X553218D01*
X552219Y-29801D01*
Y-30800D01*
X553218Y-31800D01*
X555218D01*
X556217Y-30800D01*
X544221Y-31800D02*
Y-25802D01*
X542222Y-27801D01*
X540223Y-25802D01*
Y-31800D01*
X538223D02*
Y-27801D01*
X536224Y-25802D01*
X534225Y-27801D01*
Y-31800D01*
Y-28801D01*
X538223D01*
X532225Y-31800D02*
Y-25802D01*
X529226D01*
X528227Y-26802D01*
Y-28801D01*
X529226Y-29801D01*
X532225D01*
X530226D02*
X528227Y-31800D01*
X526227Y-25802D02*
Y-31800D01*
Y-29801D01*
X522228Y-25802D01*
X525227Y-28801D01*
X522228Y-31800D01*
X516230Y-25802D02*
X520229D01*
Y-31800D01*
X516230D01*
X520229Y-28801D02*
X518230D01*
X514231Y-25802D02*
Y-31800D01*
X511232D01*
X510232Y-30800D01*
Y-26802D01*
X511232Y-25802D01*
X514231D01*
X501235Y-24802D02*
Y-26802D01*
X502235Y-27801D01*
X498236Y-25802D02*
Y-31800D01*
X495237D01*
X494238Y-30800D01*
Y-26802D01*
X495237Y-25802D01*
X498236D01*
X492238Y-31800D02*
Y-25802D01*
X488239Y-31800D01*
Y-25802D01*
X486240Y-31800D02*
Y-25802D01*
X483241D01*
X482241Y-26802D01*
Y-28801D01*
X483241Y-29801D01*
X486240D01*
X479242Y-24802D02*
Y-26802D01*
X480242Y-27801D01*
X466247Y-26802D02*
X467246Y-25802D01*
X469246D01*
X470245Y-26802D01*
Y-27801D01*
X469246Y-28801D01*
X467246D01*
X466247Y-29801D01*
Y-30800D01*
X467246Y-31800D01*
X469246D01*
X470245Y-30800D01*
X464247Y-25802D02*
Y-31800D01*
Y-28801D01*
X460249D01*
Y-25802D01*
Y-31800D01*
X455250Y-25802D02*
X457249D01*
X458249Y-26802D01*
Y-30800D01*
X457249Y-31800D01*
X455250D01*
X454250Y-30800D01*
Y-26802D01*
X455250Y-25802D01*
X452251D02*
Y-30800D01*
X451251Y-31800D01*
X449252D01*
X448252Y-30800D01*
Y-25802D01*
X446253D02*
Y-31800D01*
X442254D01*
X440255Y-25802D02*
Y-31800D01*
X437256D01*
X436256Y-30800D01*
Y-26802D01*
X437256Y-25802D01*
X440255D01*
X428259Y-31800D02*
Y-25802D01*
X424260Y-31800D01*
Y-25802D01*
X419262D02*
X421261D01*
X422261Y-26802D01*
Y-30800D01*
X421261Y-31800D01*
X419262D01*
X418262Y-30800D01*
Y-26802D01*
X419262Y-25802D01*
X416263D02*
X412264D01*
X414263D01*
Y-31800D01*
X404267Y-25802D02*
Y-31800D01*
X401268D01*
X400268Y-30800D01*
Y-29801D01*
X401268Y-28801D01*
X404267D01*
X401268D01*
X400268Y-27801D01*
Y-26802D01*
X401268Y-25802D01*
X404267D01*
X394270D02*
X398269D01*
Y-31800D01*
X394270D01*
X398269Y-28801D02*
X396269D01*
X386272Y-31800D02*
Y-25802D01*
X383273D01*
X382274Y-26802D01*
Y-28801D01*
X383273Y-29801D01*
X386272D01*
X377275Y-25802D02*
X379275D01*
X380274Y-26802D01*
Y-30800D01*
X379275Y-31800D01*
X377275D01*
X376276Y-30800D01*
Y-26802D01*
X377275Y-25802D01*
X374276Y-31800D02*
Y-25802D01*
X371277D01*
X370278Y-26802D01*
Y-28801D01*
X371277Y-29801D01*
X374276D01*
X368278Y-25802D02*
Y-30800D01*
X367279Y-31800D01*
X365279D01*
X364280Y-30800D01*
Y-25802D01*
X362280D02*
Y-31800D01*
X358281D01*
X356282D02*
Y-27801D01*
X354283Y-25802D01*
X352283Y-27801D01*
Y-31800D01*
Y-28801D01*
X356282D01*
X350284Y-25802D02*
X346285D01*
X348285D01*
Y-31800D01*
X340287Y-25802D02*
X344286D01*
Y-31800D01*
X340287D01*
X344286Y-28801D02*
X342287D01*
X338288Y-25802D02*
Y-31800D01*
X335289D01*
X334289Y-30800D01*
Y-26802D01*
X335289Y-25802D01*
X338288D01*
X332290Y-31800D02*
Y-30800D01*
X331290D01*
Y-31800D01*
X332290D01*
G54D15*
X156933Y271866D02*
X157399Y271399D01*
Y270466D01*
X156933Y270000D01*
X155067D01*
X154600Y270466D01*
Y271399D01*
X155067Y271866D01*
X154600Y274199D02*
X157399D01*
X156000Y272799D01*
Y274665D01*
X154600Y277464D02*
Y275598D01*
X156466Y277464D01*
X156933D01*
X157399Y276998D01*
Y276065D01*
X156933Y275598D01*
X134933Y273666D02*
X135399Y273200D01*
Y272267D01*
X134933Y271800D01*
X133066D01*
X132600Y272267D01*
Y273200D01*
X133066Y273666D01*
X132600Y275999D02*
X135399D01*
X134000Y274599D01*
Y276465D01*
X132600Y277398D02*
Y278331D01*
Y277865D01*
X135399D01*
X134933Y277398D01*
X116934Y222133D02*
X117401Y222599D01*
X118333D01*
X118800Y222133D01*
Y220267D01*
X118333Y219800D01*
X117401D01*
X116934Y220267D01*
X114601Y219800D02*
Y222599D01*
X116001Y221199D01*
X114135D01*
X113202Y222133D02*
X112735Y222599D01*
X111802D01*
X111336Y222133D01*
Y221666D01*
X111802Y221199D01*
X111336Y220733D01*
Y220267D01*
X111802Y219800D01*
X112735D01*
X113202Y220267D01*
Y220733D01*
X112735Y221199D01*
X113202Y221666D01*
Y222133D01*
X112735Y221199D02*
X111802D01*
X157934Y220733D02*
X158400Y221199D01*
X159334D01*
X159800Y220733D01*
Y218866D01*
X159334Y218400D01*
X158400D01*
X157934Y218866D01*
X155601Y218400D02*
Y221199D01*
X157001Y219799D01*
X155135D01*
X154202Y218866D02*
X153735Y218400D01*
X152802D01*
X152336Y218866D01*
Y220733D01*
X152802Y221199D01*
X153735D01*
X154202Y220733D01*
Y220266D01*
X153735Y219799D01*
X152336D01*
X116734Y207733D02*
X117201Y208199D01*
X118133D01*
X118600Y207733D01*
Y205867D01*
X118133Y205400D01*
X117201D01*
X116734Y205867D01*
X113935Y208199D02*
X115801D01*
Y206800D01*
X114868Y207266D01*
X114401D01*
X113935Y206800D01*
Y205867D01*
X114401Y205400D01*
X115334D01*
X115801Y205867D01*
X113002Y207733D02*
X112535Y208199D01*
X111602D01*
X111136Y207733D01*
Y205867D01*
X111602Y205400D01*
X112535D01*
X113002Y205867D01*
Y207733D01*
X171534Y253033D02*
X172001Y253499D01*
X172933D01*
X173400Y253033D01*
Y251167D01*
X172933Y250700D01*
X172001D01*
X171534Y251167D01*
X169201Y250700D02*
Y253499D01*
X170601Y252099D01*
X168735D01*
X165936Y253499D02*
X166869Y253033D01*
X167802Y252099D01*
Y251167D01*
X167335Y250700D01*
X166402D01*
X165936Y251167D01*
Y251633D01*
X166402Y252099D01*
X167802D01*
G54D18*
X133807Y102005D02*
D03*
X152693Y154995D02*
D03*
X136307Y158505D02*
D03*
X152193Y113495D02*
D03*
X122239Y220816D02*
D03*
X148627Y220306D02*
D03*
X133307Y115005D02*
D03*
X121906Y207405D02*
D03*
X162898Y252400D02*
D03*
G54D21*
X155999Y266694D02*
D03*
X133499Y267696D02*
D03*
M02*
