G04 Layer_Color=16711935*
%FSLAX25Y25*%
%MOIN*%
G70*
G01*
G75*
%ADD10C,0.01000*%
%ADD11C,0.00500*%
%ADD12C,0.00600*%
%ADD13C,0.00394*%
%ADD14C,0.00800*%
%ADD15C,0.00400*%
%ADD16R,0.08600X0.02000*%
%ADD17R,0.02000X0.06800*%
%ADD18R,0.02953X0.11811*%
%ADD19R,0.04000X0.04000*%
%ADD20R,0.06800X0.02000*%
%ADD21R,0.11811X0.02953*%
%ADD22R,0.02000X0.08600*%
G54D10*
X115000Y193000D02*
G03*
X115000Y193000I-1000J0D01*
G01*
X150522Y340973D02*
G03*
X150522Y340973I-1000J0D01*
G01*
X150022D02*
G03*
X150022Y340973I-500J0D01*
G01*
X32839Y273513D02*
G03*
X32839Y273513I-1000J0D01*
G01*
X32339D02*
G03*
X32339Y273513I-500J0D01*
G01*
X115313Y341261D02*
G03*
X115313Y341261I-500J0D01*
G01*
X115813D02*
G03*
X115813Y341261I-1000J0D01*
G01*
X33727Y138572D02*
G03*
X33727Y138572I-1000J0D01*
G01*
X33227D02*
G03*
X33227Y138572I-500J0D01*
G01*
Y171572D02*
G03*
X33227Y171572I-500J0D01*
G01*
X33727D02*
G03*
X33727Y171572I-1000J0D01*
G01*
X172287Y31424D02*
G03*
X172287Y31424I-1000J0D01*
G01*
X171787D02*
G03*
X171787Y31424I-500J0D01*
G01*
X137787D02*
G03*
X137787Y31424I-500J0D01*
G01*
X138287D02*
G03*
X138287Y31424I-1000J0D01*
G01*
X106937Y31924D02*
G03*
X106937Y31924I-1000J0D01*
G01*
X106437D02*
G03*
X106437Y31924I-500J0D01*
G01*
X76437D02*
G03*
X76437Y31924I-500J0D01*
G01*
X76937D02*
G03*
X76937Y31924I-1000J0D01*
G01*
X34227Y70572D02*
G03*
X34227Y70572I-1000J0D01*
G01*
X33727D02*
G03*
X33727Y70572I-500J0D01*
G01*
X33227Y106327D02*
G03*
X33227Y106327I-500J0D01*
G01*
X33727D02*
G03*
X33727Y106327I-1000J0D01*
G01*
X223210Y269937D02*
G03*
X223210Y269937I-1000J0D01*
G01*
X222710D02*
G03*
X222710Y269937I-500J0D01*
G01*
X32339Y308013D02*
G03*
X32339Y308013I-500J0D01*
G01*
X32839D02*
G03*
X32839Y308013I-1000J0D01*
G01*
X77813Y341761D02*
G03*
X77813Y341761I-1000J0D01*
G01*
X77313D02*
G03*
X77313Y341761I-500J0D01*
G01*
X32921Y238822D02*
G03*
X32921Y238822I-500J0D01*
G01*
X33421D02*
G03*
X33421Y238822I-1000J0D01*
G01*
X34227Y205422D02*
G03*
X34227Y205422I-1000J0D01*
G01*
X33727D02*
G03*
X33727Y205422I-500J0D01*
G01*
X186350Y341735D02*
G03*
X186350Y341735I-500J0D01*
G01*
X186850D02*
G03*
X186850Y341735I-1000J0D01*
G01*
X490200Y-114000D02*
Y-93717D01*
X371300Y-113350D02*
X631000D01*
Y-52350D01*
X217300Y-113350D02*
Y-52350D01*
X-29200Y-113350D02*
Y-52350D01*
X-29150Y-113350D02*
X128400D01*
X-29150D02*
Y-52350D01*
Y-52350D02*
X631000D01*
X-29200Y-113350D02*
X371300D01*
X-29200Y-93017D02*
X630800D01*
X-29200Y-72683D02*
X631000D01*
X373500Y-72600D02*
Y-52267D01*
X428000Y-72683D02*
Y-52350D01*
X67100Y-85600D02*
Y-81601D01*
X69099Y-79602D01*
X71099Y-81601D01*
Y-85600D01*
Y-82601D01*
X67100D01*
X73098Y-85600D02*
X76097D01*
X77097Y-84600D01*
X76097Y-83601D01*
X74098D01*
X73098Y-82601D01*
X74098Y-81601D01*
X77097D01*
X79096Y-85600D02*
X82095D01*
X83095Y-84600D01*
X82095Y-83601D01*
X80096D01*
X79096Y-82601D01*
X80096Y-81601D01*
X83095D01*
X88093Y-85600D02*
X86094D01*
X85094Y-84600D01*
Y-82601D01*
X86094Y-81601D01*
X88093D01*
X89093Y-82601D01*
Y-83601D01*
X85094D01*
X91092Y-85600D02*
Y-81601D01*
X92092D01*
X93092Y-82601D01*
Y-85600D01*
Y-82601D01*
X94091Y-81601D01*
X95091Y-82601D01*
Y-85600D01*
X97090Y-79602D02*
Y-85600D01*
X100089D01*
X101089Y-84600D01*
Y-83601D01*
Y-82601D01*
X100089Y-81601D01*
X97090D01*
X103088Y-85600D02*
X105088D01*
X104088D01*
Y-79602D01*
X103088D01*
X108087Y-81601D02*
Y-84600D01*
X109086Y-85600D01*
X112085D01*
Y-86600D01*
X111086Y-87599D01*
X110086D01*
X112085Y-85600D02*
Y-81601D01*
X120083Y-79602D02*
X124082D01*
X122082D01*
Y-85600D01*
X127081D02*
X129080D01*
X130080Y-84600D01*
Y-82601D01*
X129080Y-81601D01*
X127081D01*
X126081Y-82601D01*
Y-84600D01*
X127081Y-85600D01*
X132079Y-87599D02*
Y-81601D01*
X135078D01*
X136078Y-82601D01*
Y-84600D01*
X135078Y-85600D01*
X132079D01*
X0Y0D02*
X250000D01*
Y372500D01*
X0D02*
X250000D01*
X0Y0D02*
Y372500D01*
G54D11*
X241830Y155000D02*
G03*
X235554Y158535I-4134J0D01*
G01*
X241232Y152857D02*
G03*
X241830Y155000I-3535J2143D01*
G01*
X235554Y158535D02*
G03*
X234162Y157143I2143J-3535D01*
G01*
X239840Y151465D02*
G03*
X241232Y152857I-2143J3535D01*
G01*
X229232Y155000D02*
G03*
X230561Y153138I1969J0D01*
G01*
Y156862D02*
G03*
X229232Y155000I640J-1862D01*
G01*
X242027D02*
G03*
X233366Y155000I-4331J0D01*
G01*
D02*
G03*
X242027Y155000I4331J0D01*
G01*
X234162Y157143D02*
G03*
X233563Y155000I3535J-2143D01*
G01*
D02*
G03*
X239840Y151465I4134J-0D01*
G01*
X209600Y59600D02*
G03*
X209600Y59600I-1100J0D01*
G01*
X191489Y100653D02*
G03*
X191193Y100354I4J-300D01*
G01*
Y94651D02*
G03*
X191489Y94353I300J2D01*
G01*
X202693Y100354D02*
G03*
X202397Y100653I-300J-2D01*
G01*
Y94353D02*
G03*
X202693Y94651I-4J300D01*
G01*
X32500Y355100D02*
G03*
X32500Y355100I-14916J0D01*
G01*
X32300Y17700D02*
G03*
X32300Y17700I-14916J0D01*
G01*
X247400Y355200D02*
G03*
X247400Y355200I-14916J0D01*
G01*
X157700Y130100D02*
G03*
X157700Y130100I-1200J0D01*
G01*
X227232Y258800D02*
G03*
X227232Y258800I-1100J0D01*
G01*
X192852Y141603D02*
G03*
X193151Y141307I300J4D01*
G01*
X198854D02*
G03*
X199153Y141603I-2J300D01*
G01*
X193151Y152807D02*
G03*
X192852Y152511I2J-300D01*
G01*
X199153D02*
G03*
X198854Y152807I-300J-4D01*
G01*
X246800Y17800D02*
G03*
X246800Y17800I-14916J0D01*
G01*
X208422Y215604D02*
G03*
X208911Y216093I-11J500D01*
G01*
X197600Y227404D02*
G03*
X197111Y226915I11J-500D01*
G01*
X208911D02*
G03*
X208422Y227404I-500J-11D01*
G01*
X199211Y219104D02*
G03*
X199211Y216304I0J-1400D01*
G01*
X197111Y216093D02*
G03*
X197600Y215604I500J11D01*
G01*
X225295Y230906D02*
X231920D01*
X236305Y155000D02*
X238312Y152993D01*
X235492Y155812D02*
X236305Y155000D01*
X239603Y154486D02*
X241232Y152857D01*
X238312Y152993D02*
X239840Y151465D01*
X242302Y149095D02*
X243443D01*
X249705D02*
Y230906D01*
X242302D02*
X243443D01*
X246795Y149095D02*
Y230906D01*
X231920D02*
X233043D01*
X242302D01*
X248523D02*
X249705D01*
X248523Y149095D02*
X249705D01*
X234162Y157143D02*
X235492Y155812D01*
X231920Y149095D02*
X233043D01*
X225295D02*
Y230906D01*
X233043Y149095D02*
X242302D01*
X236985Y157104D02*
X239089Y155000D01*
X243443Y149095D02*
X246795D01*
Y230906D02*
X248523D01*
X231200Y155094D02*
X231201Y155000D01*
X231198Y155187D02*
X231200Y155094D01*
X231194Y155280D02*
X231198Y155187D01*
X231189Y155372D02*
X231194Y155280D01*
X231183Y155463D02*
X231189Y155372D01*
X231175Y155553D02*
X231183Y155463D01*
X231166Y155642D02*
X231175Y155553D01*
X231155Y155729D02*
X231166Y155642D01*
X231143Y155815D02*
X231155Y155729D01*
X231130Y155898D02*
X231143Y155815D01*
X231115Y155979D02*
X231130Y155898D01*
X231100Y156057D02*
X231115Y155979D01*
X231083Y156133D02*
X231100Y156057D01*
X231065Y156206D02*
X231083Y156133D01*
X231045Y156276D02*
X231065Y156206D01*
X231025Y156343D02*
X231045Y156276D01*
X231004Y156407D02*
X231025Y156343D01*
X230982Y156467D02*
X231004Y156407D01*
X230959Y156523D02*
X230982Y156467D01*
X230935Y156576D02*
X230959Y156523D01*
X230910Y156624D02*
X230935Y156576D01*
X230885Y156669D02*
X230910Y156624D01*
X230858Y156709D02*
X230885Y156669D01*
X230832Y156745D02*
X230858Y156709D01*
X230804Y156777D02*
X230832Y156745D01*
X230777Y156804D02*
X230804Y156777D01*
X230749Y156827D02*
X230777Y156804D01*
X230720Y156845D02*
X230749Y156827D01*
X230692Y156859D02*
X230720Y156845D01*
X230663Y156868D02*
X230692Y156859D01*
X230634Y156872D02*
X230663Y156868D01*
X230605Y156872D02*
X230634Y156872D01*
X230561Y156862D02*
X230605Y156872D01*
X225295Y149095D02*
X231920D01*
X243443Y230906D02*
X246795D01*
X235554Y158535D02*
X236985Y157104D01*
X230561Y153138D02*
X230590Y153131D01*
X230619Y153128D01*
X230648Y153130D01*
X230677Y153136D01*
X230705Y153147D01*
X230734Y153163D01*
X230762Y153184D01*
X230790Y153208D01*
X230817Y153238D01*
X230844Y153272D01*
X230871Y153310D01*
X230896Y153352D01*
X230922Y153399D01*
X230946Y153449D01*
X230970Y153503D01*
X230992Y153561D01*
X231014Y153623D01*
X231035Y153688D01*
X231054Y153756D01*
X231073Y153828D01*
X231091Y153902D01*
X231107Y153980D01*
X231122Y154059D01*
X231136Y154141D01*
X231149Y154226D01*
X231160Y154312D01*
X231170Y154400D01*
X231179Y154489D01*
X231186Y154580D01*
X231192Y154671D01*
X231196Y154764D01*
X231199Y154857D01*
X231201Y155000D01*
X239089D02*
X239603Y154486D01*
X246795Y149095D02*
X248523D01*
X191000Y71200D02*
Y79200D01*
X176200D02*
X191000D01*
X176200Y71200D02*
Y79200D01*
Y71200D02*
X191000D01*
X178150Y107525D02*
X186050D01*
X178150Y89000D02*
Y107525D01*
X186050Y89000D02*
Y107525D01*
X10606Y146450D02*
X18100D01*
X4996Y152550D02*
X10606D01*
X18100D01*
X4996Y146450D02*
X10606D01*
X4996D02*
Y152550D01*
X207563Y57937D02*
X215437D01*
X207563Y50063D02*
Y57937D01*
Y50063D02*
X215437D01*
Y57937D01*
X202393Y94353D02*
X202397D01*
X191489Y100653D02*
X191493D01*
X202393D02*
X202397D01*
X191489Y94353D02*
X191493D01*
X202693Y100353D02*
Y100354D01*
X191193Y94651D02*
Y94652D01*
Y100353D01*
X202693Y94651D02*
Y94652D01*
X191193Y100353D02*
Y100354D01*
X191493Y100653D02*
X202393D01*
X202693Y94652D02*
Y100353D01*
X191493Y94353D02*
X202393D01*
X192405Y100787D02*
Y101785D01*
X193980Y102220D02*
Y103103D01*
Y101785D02*
Y101849D01*
Y102220D01*
X192405Y101785D02*
Y101849D01*
Y102220D01*
X193980Y100787D02*
Y101785D01*
Y100653D02*
Y100787D01*
X192405Y100653D02*
Y100787D01*
Y100653D02*
X193980D01*
X192405Y103103D02*
X193980D01*
X192405Y102220D02*
Y103103D01*
X196155Y100787D02*
Y101785D01*
X197730Y102220D02*
Y103103D01*
Y101785D02*
Y101849D01*
Y102220D01*
X196155Y101785D02*
Y101849D01*
Y102220D01*
X197730Y100787D02*
Y101785D01*
Y100653D02*
Y100787D01*
X196155Y100653D02*
Y100787D01*
Y100653D02*
X197730D01*
X196155Y103103D02*
X197730D01*
X196155Y102220D02*
Y103103D01*
X199905Y100787D02*
Y101785D01*
X201480Y102220D02*
Y103103D01*
Y101785D02*
Y101849D01*
Y102220D01*
X199905Y101785D02*
Y101849D01*
Y102220D01*
X201480Y100787D02*
Y101785D01*
Y100653D02*
Y100787D01*
X199905Y100653D02*
Y100787D01*
Y100653D02*
X201480D01*
X199905Y103103D02*
X201480D01*
X199905Y102220D02*
Y103103D01*
X193980Y93220D02*
Y94218D01*
X192405Y91903D02*
Y92785D01*
Y93156D02*
Y93220D01*
Y92785D02*
Y93156D01*
X193980D02*
Y93220D01*
Y92785D02*
Y93156D01*
X192405Y93220D02*
Y94218D01*
Y94353D01*
X193980Y94218D02*
Y94353D01*
X192405D02*
X193980D01*
X192405Y91903D02*
X193980D01*
Y92785D01*
X201480Y93220D02*
Y94218D01*
X199905Y91903D02*
Y92785D01*
Y93156D02*
Y93220D01*
Y92785D02*
Y93156D01*
X201480D02*
Y93220D01*
Y92785D02*
Y93156D01*
X199905Y93220D02*
Y94218D01*
Y94353D01*
X201480Y94218D02*
Y94353D01*
X199905D02*
X201480D01*
X199905Y91903D02*
X201480D01*
Y92785D01*
X156350Y367004D02*
X162450D01*
X156350Y361394D02*
Y367004D01*
X162450Y353900D02*
Y361394D01*
Y367004D01*
X156350Y353900D02*
Y361394D01*
X192950Y367004D02*
X199050D01*
X192950Y361394D02*
Y367004D01*
X199050Y353900D02*
Y361394D01*
Y367004D01*
X192950Y353900D02*
Y361394D01*
X4996Y212950D02*
Y219050D01*
Y212950D02*
X10606D01*
Y219050D02*
X18100D01*
X4996D02*
X10606D01*
Y212950D02*
X18100D01*
X4796Y245850D02*
Y251950D01*
Y245850D02*
X10406D01*
Y251950D02*
X17900D01*
X4796D02*
X10406D01*
Y245850D02*
X17900D01*
X129850Y10806D02*
Y18300D01*
X123750Y5196D02*
Y10806D01*
Y18300D01*
X129850Y5196D02*
Y10806D01*
X123750Y5196D02*
X129850D01*
X163750Y10606D02*
Y18100D01*
X157650Y4996D02*
Y10606D01*
Y18100D01*
X163750Y4996D02*
Y10606D01*
X157650Y4996D02*
X163750D01*
X69050Y10606D02*
Y18100D01*
X62950Y4996D02*
Y10606D01*
Y18100D01*
X69050Y4996D02*
Y10606D01*
X62950Y4996D02*
X69050D01*
X100050Y10606D02*
Y18100D01*
X93950Y4996D02*
Y10606D01*
Y18100D01*
X100050Y4996D02*
Y10606D01*
X93950Y4996D02*
X100050D01*
X10606Y179250D02*
X18100D01*
X4996Y185350D02*
X10606D01*
X18100D01*
X4996Y179250D02*
X10606D01*
X4996D02*
Y185350D01*
X122250Y366904D02*
X128350D01*
X122250Y361294D02*
Y366904D01*
X128350Y353800D02*
Y361294D01*
Y366904D01*
X122250Y353800D02*
Y361294D01*
X84350Y366904D02*
X90450D01*
X84350Y361294D02*
Y366904D01*
X90450Y353800D02*
Y361294D01*
Y366904D01*
X84350Y353800D02*
Y361294D01*
X4896Y315250D02*
Y321350D01*
Y315250D02*
X10506D01*
Y321350D02*
X18000D01*
X4896D02*
X10506D01*
Y315250D02*
X18000D01*
X4896Y282900D02*
Y289000D01*
Y282900D02*
X10506D01*
Y289000D02*
X18000D01*
X4896D02*
X10506D01*
Y282900D02*
X18000D01*
X10606Y113950D02*
X18100D01*
X4996Y120050D02*
X10606D01*
X18100D01*
X4996Y113950D02*
X10606D01*
X4996D02*
Y120050D01*
X10706Y78150D02*
X18200D01*
X5096Y84250D02*
X10706D01*
X18200D01*
X5096Y78150D02*
X10706D01*
X5096D02*
Y84250D01*
X225195Y257137D02*
X233069D01*
X225195Y249263D02*
Y257137D01*
Y249263D02*
X233069D01*
Y257137D01*
X190402Y142520D02*
X191285D01*
X190402D02*
Y144095D01*
X192852Y142520D02*
Y144095D01*
X192718Y142520D02*
X192852D01*
X192718Y144095D02*
X192852D01*
X191720D02*
X192718D01*
X191285Y142520D02*
X191656D01*
X191720D01*
X191285Y144095D02*
X191656D01*
X191720D01*
X190402D02*
X191285D01*
X191720Y142520D02*
X192718D01*
X190402Y150020D02*
X191285D01*
X190402D02*
Y151595D01*
X192852Y150020D02*
Y151595D01*
X192718Y150020D02*
X192852D01*
X192718Y151595D02*
X192852D01*
X191720D02*
X192718D01*
X191285Y150020D02*
X191656D01*
X191720D01*
X191285Y151595D02*
X191656D01*
X191720D01*
X190402D02*
X191285D01*
X191720Y150020D02*
X192718D01*
X200721Y144095D02*
X201603D01*
Y142520D02*
Y144095D01*
X199153Y142520D02*
Y144095D01*
X199287D01*
X199153Y142520D02*
X199287D01*
X200285D01*
X200349Y144095D02*
X200721D01*
X200285D02*
X200349D01*
Y142520D02*
X200721D01*
X200285D02*
X200349D01*
X200721D02*
X201603D01*
X199287Y144095D02*
X200285D01*
X200721Y147845D02*
X201603D01*
Y146270D02*
Y147845D01*
X199153Y146270D02*
Y147845D01*
X199287D01*
X199153Y146270D02*
X199287D01*
X200285D01*
X200349Y147845D02*
X200721D01*
X200285D02*
X200349D01*
Y146270D02*
X200721D01*
X200285D02*
X200349D01*
X200721D02*
X201603D01*
X199287Y147845D02*
X200285D01*
X200721Y151595D02*
X201603D01*
Y150020D02*
Y151595D01*
X199153Y150020D02*
Y151595D01*
X199287D01*
X199153Y150020D02*
X199287D01*
X200285D01*
X200349Y151595D02*
X200721D01*
X200285D02*
X200349D01*
Y150020D02*
X200721D01*
X200285D02*
X200349D01*
X200721D02*
X201603D01*
X199287Y151595D02*
X200285D01*
X192852Y141607D02*
Y152507D01*
X193152Y141307D02*
X198853D01*
X199153Y141607D02*
Y152507D01*
X198853Y152807D02*
X198854D01*
X193151Y141307D02*
X193152D01*
Y152807D02*
X198853D01*
X193151D02*
X193152D01*
X198853Y141307D02*
X198854D01*
X192852Y152507D02*
Y152511D01*
X199153Y141603D02*
Y141607D01*
Y152507D02*
Y152511D01*
X192852Y141603D02*
Y141607D01*
X172075Y206050D02*
Y213950D01*
Y206050D02*
X190600D01*
X172075Y213950D02*
X190600D01*
X187400Y196000D02*
Y204000D01*
X172600D02*
X187400D01*
X172600Y196000D02*
Y204000D01*
Y196000D02*
X187400D01*
X208911Y216093D02*
X208911Y216104D01*
X197111Y226904D02*
X197111Y226915D01*
X197600Y215604D02*
X197611Y215604D01*
X208411D02*
X208422Y215604D01*
X197111Y216104D02*
Y226904D01*
Y216104D02*
X197111Y216093D01*
X197600Y227404D02*
X197611Y227404D01*
X208911Y226915D02*
X208911Y226904D01*
Y216104D02*
Y226904D01*
X197611Y215604D02*
X208411D01*
X199211Y216304D02*
Y219104D01*
X208411Y227404D02*
X208422Y227404D01*
X197611Y227404D02*
X208411D01*
X206251Y213270D02*
Y213283D01*
Y214478D02*
Y215604D01*
X207451D01*
X206251Y211854D02*
X207451D01*
Y212798D02*
Y213270D01*
X206251Y211854D02*
Y212798D01*
X207451Y213283D02*
Y214478D01*
Y211854D02*
Y212798D01*
X206251D02*
Y213270D01*
X207451Y214478D02*
Y215604D01*
X206251Y213283D02*
Y214478D01*
X207451Y213270D02*
Y213283D01*
X203691Y213270D02*
Y213283D01*
Y214478D02*
Y215604D01*
X204891D01*
X203691Y211854D02*
X204891D01*
Y212798D02*
Y213270D01*
X203691Y211854D02*
Y212798D01*
X204891Y213283D02*
Y214478D01*
Y211854D02*
Y212798D01*
X203691D02*
Y213270D01*
X204891Y214478D02*
Y215604D01*
X203691Y213283D02*
Y214478D01*
X204891Y213270D02*
Y213283D01*
X201131Y213270D02*
Y213283D01*
Y214478D02*
Y215604D01*
X202331D01*
X201131Y211854D02*
X202331D01*
Y212798D02*
Y213270D01*
X201131Y211854D02*
Y212798D01*
X202331Y213283D02*
Y214478D01*
Y211854D02*
Y212798D01*
X201131D02*
Y213270D01*
X202331Y214478D02*
Y215604D01*
X201131Y213283D02*
Y214478D01*
X202331Y213270D02*
Y213283D01*
X198571Y213270D02*
Y213283D01*
Y214478D02*
Y215604D01*
X199771D01*
X198571Y211854D02*
X199771D01*
Y212798D02*
Y213270D01*
X198571Y211854D02*
Y212798D01*
X199771Y213283D02*
Y214478D01*
Y211854D02*
Y212798D01*
X198571D02*
Y213270D01*
X199771Y214478D02*
Y215604D01*
X198571Y213283D02*
Y214478D01*
X199771Y213270D02*
Y213283D01*
X207451Y229726D02*
Y229739D01*
Y227404D02*
Y228531D01*
X206251Y227404D02*
X207451D01*
X206251Y231154D02*
X207451D01*
X206251Y229739D02*
Y230211D01*
X207451D02*
Y231154D01*
X206251Y228531D02*
Y229726D01*
Y230211D02*
Y231154D01*
X207451Y229739D02*
Y230211D01*
X206251Y227404D02*
Y228531D01*
X207451D02*
Y229726D01*
X206251D02*
Y229739D01*
X204891Y229726D02*
Y229739D01*
Y227404D02*
Y228531D01*
X203691Y227404D02*
X204891D01*
X203691Y231154D02*
X204891D01*
X203691Y229739D02*
Y230211D01*
X204891D02*
Y231154D01*
X203691Y228531D02*
Y229726D01*
Y230211D02*
Y231154D01*
X204891Y229739D02*
Y230211D01*
X203691Y227404D02*
Y228531D01*
X204891D02*
Y229726D01*
X203691D02*
Y229739D01*
X202331Y229726D02*
Y229739D01*
Y227404D02*
Y228531D01*
X201131Y227404D02*
X202331D01*
X201131Y231154D02*
X202331D01*
X201131Y229739D02*
Y230211D01*
X202331D02*
Y231154D01*
X201131Y228531D02*
Y229726D01*
Y230211D02*
Y231154D01*
X202331Y229739D02*
Y230211D01*
X201131Y227404D02*
Y228531D01*
X202331D02*
Y229726D01*
X201131D02*
Y229739D01*
X199771Y229726D02*
Y229739D01*
Y227404D02*
Y228531D01*
X198571Y227404D02*
X199771D01*
X198571Y231154D02*
X199771D01*
X198571Y229739D02*
Y230211D01*
X199771D02*
Y231154D01*
X198571Y228531D02*
Y229726D01*
Y230211D02*
Y231154D01*
X199771Y229739D02*
Y230211D01*
X198571Y227404D02*
Y228531D01*
X199771D02*
Y229726D01*
X198571D02*
Y229739D01*
X196600Y191000D02*
Y199000D01*
Y191000D02*
X211400D01*
Y199000D01*
X196600D02*
X211400D01*
X213000Y228900D02*
X221000D01*
X213000Y214100D02*
Y228900D01*
Y214100D02*
X221000D01*
Y228900D01*
X180701Y94300D02*
X183700D01*
Y95799D01*
X183200Y96299D01*
X181201D01*
X180701Y95799D01*
Y94300D01*
X183700Y97299D02*
Y98299D01*
Y97799D01*
X180701D01*
X181201Y97299D01*
X180701Y99798D02*
Y101798D01*
X181201D01*
X183200Y99798D01*
X183700D01*
X195333Y119966D02*
X194799Y120499D01*
X193733D01*
X193200Y119966D01*
Y117833D01*
X193733Y117300D01*
X194799D01*
X195333Y117833D01*
X198532Y117300D02*
X196399D01*
X198532Y119433D01*
Y119966D01*
X197998Y120499D01*
X196932D01*
X196399Y119966D01*
X201197Y117300D02*
Y120499D01*
X199598Y118900D01*
X201731D01*
X232538Y313266D02*
X232004Y313799D01*
X230938D01*
X230405Y313266D01*
Y311133D01*
X230938Y310600D01*
X232004D01*
X232538Y311133D01*
X235737Y310600D02*
X233604D01*
X235737Y312733D01*
Y313266D01*
X235204Y313799D01*
X234137D01*
X233604Y313266D01*
X232938Y323866D02*
X232404Y324399D01*
X231338D01*
X230805Y323866D01*
Y321733D01*
X231338Y321200D01*
X232404D01*
X232938Y321733D01*
X234004Y321200D02*
X235070D01*
X234537D01*
Y324399D01*
X234004Y323866D01*
X195599Y128799D02*
X195099Y129299D01*
X194100D01*
X193600Y128799D01*
Y126800D01*
X194100Y126300D01*
X195099D01*
X195599Y126800D01*
X198598Y126300D02*
X196599D01*
X198598Y128299D01*
Y128799D01*
X198099Y129299D01*
X197099D01*
X196599Y128799D01*
X199598D02*
X200098Y129299D01*
X201098D01*
X201597Y128799D01*
Y128299D01*
X201098Y127799D01*
X200598D01*
X201098D01*
X201597Y127300D01*
Y126800D01*
X201098Y126300D01*
X200098D01*
X199598Y126800D01*
X177900Y211699D02*
Y208700D01*
X179400D01*
X179899Y209200D01*
Y211199D01*
X179400Y211699D01*
X177900D01*
X180899Y208700D02*
X181899D01*
X181399D01*
Y211699D01*
X180899Y211199D01*
X183398Y208700D02*
X184398D01*
X183898D01*
Y211699D01*
X183398Y211199D01*
G54D12*
X223618Y154500D02*
G03*
X223618Y154500I-1118J0D01*
G01*
X201500Y105500D02*
G03*
X201500Y105500I-707J0D01*
G01*
X205707Y143000D02*
G03*
X205707Y143000I-707J0D01*
G01*
X197700Y79600D02*
X204100D01*
X197700Y74000D02*
X204000D01*
X133459Y343173D02*
X153459D01*
X133459D02*
Y368763D01*
X153459D01*
Y343173D02*
Y368763D01*
X133459Y366992D02*
X153459D01*
X133459Y361480D02*
X153459D01*
X133459Y350456D02*
X153459D01*
X133459Y348094D02*
X153459D01*
X150506Y343173D02*
Y348094D01*
X146412Y343173D02*
Y348094D01*
X140506Y343173D02*
Y348094D01*
X136412Y343173D02*
Y348094D01*
X150546Y345338D02*
X153459D01*
X140703D02*
X146215D01*
X133459D02*
X136372D01*
X146609Y344157D02*
X150506D01*
X136766D02*
X140309D01*
X146609Y346125D02*
X150506D01*
X136766D02*
X140309D01*
X240000Y49000D02*
X242000Y51000D01*
Y47000D02*
Y51000D01*
X240000Y49000D02*
X242000Y47000D01*
X240000D02*
Y51500D01*
X237500Y49000D02*
X240000D01*
X242000D02*
X244500D01*
X230035Y299500D02*
X231535Y298000D01*
X230035Y296500D02*
X231535Y298000D01*
X230535Y301000D02*
X231535Y300000D01*
Y296000D02*
X232535Y295000D01*
X231535Y296000D02*
Y300000D01*
X233035Y298000D02*
X235535D01*
X228035D02*
X230035D01*
Y296500D02*
Y299500D01*
Y296500D02*
Y299500D01*
X231535Y298000D02*
X233035Y299500D01*
X231535Y298000D02*
X233035Y296500D01*
Y299500D01*
X222535Y305500D02*
X241035D01*
X222535Y289500D02*
X240535D01*
X185800Y179800D02*
Y186200D01*
X180200Y179900D02*
Y186200D01*
X29639Y257450D02*
Y277450D01*
X4049Y257450D02*
X29639D01*
X4049D02*
Y277450D01*
X29639D01*
X5820Y257450D02*
Y277450D01*
X11332Y257450D02*
Y277450D01*
X22356Y257450D02*
Y277450D01*
X24718Y257450D02*
Y277450D01*
Y274497D02*
X29639D01*
X24718Y270403D02*
X29639D01*
X24718Y264497D02*
X29639D01*
X24718Y260403D02*
X29639D01*
X27474Y274537D02*
Y277450D01*
Y264694D02*
Y270206D01*
Y257450D02*
Y260363D01*
X28655Y270600D02*
Y274497D01*
Y260757D02*
Y264300D01*
X26687Y270600D02*
Y274497D01*
Y260757D02*
Y264300D01*
X102057Y346413D02*
X105600D01*
X111900D02*
X115797D01*
X102057Y344445D02*
X105600D01*
X111900D02*
X115797D01*
X98750Y345626D02*
X101663D01*
X105994D02*
X111506D01*
X115837D02*
X118750D01*
X101703Y343461D02*
Y348382D01*
X105797Y343461D02*
Y348382D01*
X111703Y343461D02*
Y348382D01*
X115797Y343461D02*
Y348382D01*
X98750D02*
X118750D01*
X98750Y350744D02*
X118750D01*
X98750Y361768D02*
X118750D01*
X98750Y367280D02*
X118750D01*
Y343461D02*
Y369051D01*
X98750D02*
X118750D01*
X98750Y343461D02*
Y369051D01*
Y343461D02*
X118750D01*
X30527Y122509D02*
Y142509D01*
X4937Y122509D02*
X30527D01*
X4937D02*
Y142509D01*
X30527D01*
X6708Y122509D02*
Y142509D01*
X12220Y122509D02*
Y142509D01*
X23244Y122509D02*
Y142509D01*
X25606Y122509D02*
Y142509D01*
Y139556D02*
X30527D01*
X25606Y135462D02*
X30527D01*
X25606Y129556D02*
X30527D01*
X25606Y125462D02*
X30527D01*
X28362Y139596D02*
Y142509D01*
Y129753D02*
Y135265D01*
Y122509D02*
Y125422D01*
X29543Y135659D02*
Y139556D01*
Y125816D02*
Y129359D01*
X27575Y135659D02*
Y139556D01*
Y125816D02*
Y129359D01*
Y158816D02*
Y162359D01*
Y168659D02*
Y172556D01*
X29543Y158816D02*
Y162359D01*
Y168659D02*
Y172556D01*
X28362Y155509D02*
Y158422D01*
Y162753D02*
Y168265D01*
Y172596D02*
Y175509D01*
X25606Y158462D02*
X30527D01*
X25606Y162556D02*
X30527D01*
X25606Y168462D02*
X30527D01*
X25606Y172556D02*
X30527D01*
X25606Y155509D02*
Y175509D01*
X23244Y155509D02*
Y175509D01*
X12220Y155509D02*
Y175509D01*
X6708Y155509D02*
Y175509D01*
X4937D02*
X30527D01*
X4937Y155509D02*
Y175509D01*
Y155509D02*
X30527D01*
Y175509D01*
X167350Y29224D02*
X187350D01*
Y3634D02*
Y29224D01*
X167350Y3634D02*
X187350D01*
X167350D02*
Y29224D01*
Y5405D02*
X187350D01*
X167350Y10917D02*
X187350D01*
X167350Y21941D02*
X187350D01*
X167350Y24303D02*
X187350D01*
X170303D02*
Y29224D01*
X174397Y24303D02*
Y29224D01*
X180303Y24303D02*
Y29224D01*
X184397Y24303D02*
Y29224D01*
X167350Y27059D02*
X170263D01*
X174594D02*
X180106D01*
X184437D02*
X187350D01*
X170303Y28240D02*
X174200D01*
X180500D02*
X184043D01*
X170303Y26272D02*
X174200D01*
X180500D02*
X184043D01*
X146500D02*
X150043D01*
X136303D02*
X140200D01*
X146500Y28240D02*
X150043D01*
X136303D02*
X140200D01*
X150437Y27059D02*
X153350D01*
X140594D02*
X146106D01*
X133350D02*
X136263D01*
X150397Y24303D02*
Y29224D01*
X146303Y24303D02*
Y29224D01*
X140397Y24303D02*
Y29224D01*
X136303Y24303D02*
Y29224D01*
X133350Y24303D02*
X153350D01*
X133350Y21941D02*
X153350D01*
X133350Y10917D02*
X153350D01*
X133350Y5405D02*
X153350D01*
X133350Y3634D02*
Y29224D01*
Y3634D02*
X153350D01*
Y29224D01*
X133350D02*
X153350D01*
X102000Y29724D02*
X122000D01*
Y4134D02*
Y29724D01*
X102000Y4134D02*
X122000D01*
X102000D02*
Y29724D01*
Y5905D02*
X122000D01*
X102000Y11417D02*
X122000D01*
X102000Y22441D02*
X122000D01*
X102000Y24803D02*
X122000D01*
X104953D02*
Y29724D01*
X109047Y24803D02*
Y29724D01*
X114953Y24803D02*
Y29724D01*
X119047Y24803D02*
Y29724D01*
X102000Y27559D02*
X104913D01*
X109244D02*
X114756D01*
X119087D02*
X122000D01*
X104953Y28740D02*
X108850D01*
X115150D02*
X118693D01*
X104953Y26772D02*
X108850D01*
X115150D02*
X118693D01*
X85150D02*
X88693D01*
X74953D02*
X78850D01*
X85150Y28740D02*
X88693D01*
X74953D02*
X78850D01*
X89087Y27559D02*
X92000D01*
X79244D02*
X84756D01*
X72000D02*
X74913D01*
X89047Y24803D02*
Y29724D01*
X84953Y24803D02*
Y29724D01*
X79047Y24803D02*
Y29724D01*
X74953Y24803D02*
Y29724D01*
X72000Y24803D02*
X92000D01*
X72000Y22441D02*
X92000D01*
X72000Y11417D02*
X92000D01*
X72000Y5905D02*
X92000D01*
X72000Y4134D02*
Y29724D01*
Y4134D02*
X92000D01*
Y29724D01*
X72000D02*
X92000D01*
X31027Y54509D02*
Y74509D01*
X5437Y54509D02*
X31027D01*
X5437D02*
Y74509D01*
X31027D01*
X7208Y54509D02*
Y74509D01*
X12720Y54509D02*
Y74509D01*
X23744Y54509D02*
Y74509D01*
X26106Y54509D02*
Y74509D01*
Y71556D02*
X31027D01*
X26106Y67462D02*
X31027D01*
X26106Y61556D02*
X31027D01*
X26106Y57462D02*
X31027D01*
X28862Y71596D02*
Y74509D01*
Y61753D02*
Y67265D01*
Y54509D02*
Y57422D01*
X30043Y67659D02*
Y71556D01*
Y57816D02*
Y61359D01*
X28075Y67659D02*
Y71556D01*
Y57816D02*
Y61359D01*
X27575Y93571D02*
Y97114D01*
Y103414D02*
Y107311D01*
X29543Y93571D02*
Y97114D01*
Y103414D02*
Y107311D01*
X28362Y90264D02*
Y93177D01*
Y97508D02*
Y103020D01*
Y107351D02*
Y110264D01*
X25606Y93217D02*
X30527D01*
X25606Y97311D02*
X30527D01*
X25606Y103217D02*
X30527D01*
X25606Y107311D02*
X30527D01*
X25606Y90264D02*
Y110264D01*
X23244Y90264D02*
Y110264D01*
X12220Y90264D02*
Y110264D01*
X6708Y90264D02*
Y110264D01*
X4937D02*
X30527D01*
X4937Y90264D02*
Y110264D01*
Y90264D02*
X30527D01*
Y110264D01*
X224410Y266000D02*
Y286000D01*
X250000D01*
Y266000D02*
Y286000D01*
X224410Y266000D02*
X250000D01*
X248229D02*
Y286000D01*
X242717Y266000D02*
Y286000D01*
X231693Y266000D02*
Y286000D01*
X229331Y266000D02*
Y286000D01*
X224410Y268953D02*
X229331D01*
X224410Y273047D02*
X229331D01*
X224410Y278953D02*
X229331D01*
X224410Y283047D02*
X229331D01*
X226575Y266000D02*
Y268913D01*
Y273244D02*
Y278756D01*
Y283087D02*
Y286000D01*
X225394Y268953D02*
Y272850D01*
Y279150D02*
Y282693D01*
X227362Y268953D02*
Y272850D01*
Y279150D02*
Y282693D01*
X26687Y295257D02*
Y298800D01*
Y305100D02*
Y308997D01*
X28655Y295257D02*
Y298800D01*
Y305100D02*
Y308997D01*
X27474Y291950D02*
Y294863D01*
Y299194D02*
Y304706D01*
Y309037D02*
Y311950D01*
X24718Y294903D02*
X29639D01*
X24718Y298997D02*
X29639D01*
X24718Y304903D02*
X29639D01*
X24718Y308997D02*
X29639D01*
X24718Y291950D02*
Y311950D01*
X22356Y291950D02*
Y311950D01*
X11332Y291950D02*
Y311950D01*
X5820Y291950D02*
Y311950D01*
X4049D02*
X29639D01*
X4049Y291950D02*
Y311950D01*
Y291950D02*
X29639D01*
Y311950D01*
X60750Y343961D02*
X80750D01*
X60750D02*
Y369551D01*
X80750D01*
Y343961D02*
Y369551D01*
X60750Y367780D02*
X80750D01*
X60750Y362268D02*
X80750D01*
X60750Y351244D02*
X80750D01*
X60750Y348882D02*
X80750D01*
X77797Y343961D02*
Y348882D01*
X73703Y343961D02*
Y348882D01*
X67797Y343961D02*
Y348882D01*
X63703Y343961D02*
Y348882D01*
X77837Y346126D02*
X80750D01*
X67994D02*
X73506D01*
X60750D02*
X63663D01*
X73900Y344945D02*
X77797D01*
X64057D02*
X67600D01*
X73900Y346913D02*
X77797D01*
X64057D02*
X67600D01*
X27269Y226066D02*
Y229609D01*
Y235909D02*
Y239806D01*
X29237Y226066D02*
Y229609D01*
Y235909D02*
Y239806D01*
X28056Y222759D02*
Y225672D01*
Y230003D02*
Y235515D01*
Y239846D02*
Y242759D01*
X25300Y225712D02*
X30221D01*
X25300Y229806D02*
X30221D01*
X25300Y235712D02*
X30221D01*
X25300Y239806D02*
X30221D01*
X25300Y222759D02*
Y242759D01*
X22938Y222759D02*
Y242759D01*
X11914Y222759D02*
Y242759D01*
X6402Y222759D02*
Y242759D01*
X4631D02*
X30221D01*
X4631Y222759D02*
Y242759D01*
Y222759D02*
X30221D01*
Y242759D01*
X31027Y189359D02*
Y209359D01*
X5437Y189359D02*
X31027D01*
X5437D02*
Y209359D01*
X31027D01*
X7208Y189359D02*
Y209359D01*
X12720Y189359D02*
Y209359D01*
X23744Y189359D02*
Y209359D01*
X26106Y189359D02*
Y209359D01*
Y206406D02*
X31027D01*
X26106Y202312D02*
X31027D01*
X26106Y196406D02*
X31027D01*
X26106Y192312D02*
X31027D01*
X28862Y206446D02*
Y209359D01*
Y196603D02*
Y202115D01*
Y189359D02*
Y192272D01*
X30043Y202509D02*
Y206406D01*
Y192666D02*
Y196209D01*
X28075Y202509D02*
Y206406D01*
Y192666D02*
Y196209D01*
X173094Y346887D02*
X176637D01*
X182937D02*
X186834D01*
X173094Y344919D02*
X176637D01*
X182937D02*
X186834D01*
X169787Y346100D02*
X172700D01*
X177031D02*
X182543D01*
X186874D02*
X189787D01*
X172740Y343935D02*
Y348856D01*
X176834Y343935D02*
Y348856D01*
X182740Y343935D02*
Y348856D01*
X186834Y343935D02*
Y348856D01*
X169787D02*
X189787D01*
X169787Y351218D02*
X189787D01*
X169787Y362242D02*
X189787D01*
X169787Y367754D02*
X189787D01*
Y343935D02*
Y369525D01*
X169787D02*
X189787D01*
X169787Y343935D02*
Y369525D01*
Y343935D02*
X189787D01*
X194000Y179000D02*
X196500D01*
X198500D02*
X201000D01*
X198500Y176500D02*
Y181000D01*
X196500D02*
X198500Y179000D01*
X196500Y177000D02*
Y181000D01*
Y177000D02*
X198500Y179000D01*
X215000Y66000D02*
X217000Y68000D01*
Y64000D02*
Y68000D01*
X215000Y66000D02*
X217000Y64000D01*
X215000D02*
Y68500D01*
X212500Y66000D02*
X215000D01*
X217000D02*
X219500D01*
X241000Y260000D02*
X243500D01*
X236500D02*
X239000D01*
Y258000D02*
Y262500D01*
Y260000D02*
X241000Y258000D01*
Y262000D01*
X239000Y260000D02*
X241000Y262000D01*
X196800Y243800D02*
Y246799D01*
X198300D01*
X198799Y246299D01*
Y245299D01*
X198300Y244799D01*
X196800D01*
X197800D02*
X198799Y243800D01*
X199799D02*
X200799D01*
X200299D01*
Y246799D01*
X199799Y246299D01*
X204298Y246799D02*
X202298D01*
Y245299D01*
X203298Y245799D01*
X203798D01*
X204298Y245299D01*
Y244300D01*
X203798Y243800D01*
X202798D01*
X202298Y244300D01*
X205297Y246299D02*
X205797Y246799D01*
X206797D01*
X207297Y246299D01*
Y245799D01*
X206797Y245299D01*
X207297Y244799D01*
Y244300D01*
X206797Y243800D01*
X205797D01*
X205297Y244300D01*
Y244799D01*
X205797Y245299D01*
X205297Y245799D01*
Y246299D01*
X205797Y245299D02*
X206797D01*
X196700Y250200D02*
Y253199D01*
X198199D01*
X198699Y252699D01*
Y251699D01*
X198199Y251199D01*
X196700D01*
X197700D02*
X198699Y250200D01*
X199699D02*
X200699D01*
X200199D01*
Y253199D01*
X199699Y252699D01*
X204198Y253199D02*
X202198D01*
Y251699D01*
X203198Y252199D01*
X203698D01*
X204198Y251699D01*
Y250699D01*
X203698Y250200D01*
X202698D01*
X202198Y250699D01*
X205197Y252699D02*
X205697Y253199D01*
X206697D01*
X207197Y252699D01*
Y252199D01*
X206697Y251699D01*
X206197D01*
X206697D01*
X207197Y251199D01*
Y250699D01*
X206697Y250200D01*
X205697D01*
X205197Y250699D01*
X196700Y237400D02*
Y240399D01*
X198199D01*
X198699Y239899D01*
Y238899D01*
X198199Y238399D01*
X196700D01*
X197700D02*
X198699Y237400D01*
X199699D02*
X200699D01*
X200199D01*
Y240399D01*
X199699Y239899D01*
X204198Y240399D02*
X202198D01*
Y238899D01*
X203198Y239399D01*
X203698D01*
X204198Y238899D01*
Y237899D01*
X203698Y237400D01*
X202698D01*
X202198Y237899D01*
X207197Y237400D02*
X205197D01*
X207197Y239399D01*
Y239899D01*
X206697Y240399D01*
X205697D01*
X205197Y239899D01*
X201899Y204399D02*
X201399Y204899D01*
X200400D01*
X199900Y204399D01*
Y202399D01*
X200400Y201900D01*
X201399D01*
X201899Y202399D01*
X204898Y204899D02*
X203899Y204399D01*
X202899Y203399D01*
Y202399D01*
X203399Y201900D01*
X204399D01*
X204898Y202399D01*
Y202899D01*
X204399Y203399D01*
X202899D01*
X205898Y202399D02*
X206398Y201900D01*
X207398D01*
X207897Y202399D01*
Y204399D01*
X207398Y204899D01*
X206398D01*
X205898Y204399D01*
Y203899D01*
X206398Y203399D01*
X207897D01*
X202399Y196299D02*
X201900Y196799D01*
X200900D01*
X200400Y196299D01*
Y194299D01*
X200900Y193800D01*
X201900D01*
X202399Y194299D01*
X205398Y196799D02*
X204399Y196299D01*
X203399Y195299D01*
Y194299D01*
X203899Y193800D01*
X204899D01*
X205398Y194299D01*
Y194799D01*
X204899Y195299D01*
X203399D01*
X206398Y196299D02*
X206898Y196799D01*
X207898D01*
X208397Y196299D01*
Y195799D01*
X207898Y195299D01*
X208397Y194799D01*
Y194299D01*
X207898Y193800D01*
X206898D01*
X206398Y194299D01*
Y194799D01*
X206898Y195299D01*
X206398Y195799D01*
Y196299D01*
X206898Y195299D02*
X207898D01*
X215718Y219033D02*
X215135Y218449D01*
Y217283D01*
X215718Y216700D01*
X218051D01*
X218634Y217283D01*
Y218449D01*
X218051Y219033D01*
X215135Y222531D02*
X215718Y221365D01*
X216884Y220199D01*
X218051D01*
X218634Y220782D01*
Y221948D01*
X218051Y222531D01*
X217467D01*
X216884Y221948D01*
Y220199D01*
X215135Y226030D02*
X215718Y224864D01*
X216884Y223698D01*
X218051D01*
X218634Y224281D01*
Y225447D01*
X218051Y226030D01*
X217467D01*
X216884Y225447D01*
Y223698D01*
X227599Y235599D02*
X226600D01*
X227099D01*
Y233100D01*
X226600Y232600D01*
X226100D01*
X225600Y233100D01*
X228599Y232600D02*
X229599D01*
X229099D01*
Y235599D01*
X228599Y235099D01*
X231098Y232600D02*
X232098D01*
X231598D01*
Y235599D01*
X231098Y235099D01*
X130600Y235699D02*
Y232366D01*
X131266Y231700D01*
X132599D01*
X133266Y232366D01*
Y235699D01*
X134599Y231700D02*
X135932D01*
X135265D01*
Y235699D01*
X134599Y235032D01*
X181399Y76099D02*
X180900Y76599D01*
X179900D01*
X179400Y76099D01*
Y74100D01*
X179900Y73600D01*
X180900D01*
X181399Y74100D01*
X182399Y76099D02*
X182899Y76599D01*
X183899D01*
X184398Y76099D01*
Y75599D01*
X183899Y75099D01*
X183399D01*
X183899D01*
X184398Y74600D01*
Y74100D01*
X183899Y73600D01*
X182899D01*
X182399Y74100D01*
X185398Y76099D02*
X185898Y76599D01*
X186898D01*
X187397Y76099D01*
Y75599D01*
X186898Y75099D01*
X186398D01*
X186898D01*
X187397Y74600D01*
Y74100D01*
X186898Y73600D01*
X185898D01*
X185398Y74100D01*
X7400Y150799D02*
Y147800D01*
X8900D01*
X9399Y148300D01*
Y150299D01*
X8900Y150799D01*
X7400D01*
X10399Y147800D02*
X11399D01*
X10899D01*
Y150799D01*
X10399Y150299D01*
X14398Y147800D02*
Y150799D01*
X12898Y149300D01*
X14898D01*
X199199Y78499D02*
X197200D01*
Y76999D01*
X198200D01*
X197200D01*
Y75500D01*
X200199Y78499D02*
Y75500D01*
X201699D01*
X202198Y76000D01*
Y76500D01*
X201699Y76999D01*
X200199D01*
X201699D01*
X202198Y77499D01*
Y77999D01*
X201699Y78499D01*
X200199D01*
X205197Y75500D02*
X203198D01*
X205197Y77499D01*
Y77999D01*
X204698Y78499D01*
X203698D01*
X203198Y77999D01*
X127266Y349399D02*
X125933D01*
X126599D01*
Y346066D01*
X125933Y345400D01*
X125267D01*
X124600Y346066D01*
X128599Y348732D02*
X129265Y349399D01*
X130598D01*
X131264Y348732D01*
Y348066D01*
X130598Y347399D01*
X129932D01*
X130598D01*
X131264Y346733D01*
Y346066D01*
X130598Y345400D01*
X129265D01*
X128599Y346066D01*
X236000Y59999D02*
Y57000D01*
X237499D01*
X237999Y57500D01*
Y59499D01*
X237499Y59999D01*
X236000D01*
X240998Y57000D02*
X238999D01*
X240998Y58999D01*
Y59499D01*
X240498Y59999D01*
X239499D01*
X238999Y59499D01*
X241998D02*
X242498Y59999D01*
X243498D01*
X243997Y59499D01*
Y57500D01*
X243498Y57000D01*
X242498D01*
X241998Y57500D01*
Y59499D01*
X210999Y53100D02*
Y55099D01*
X210500Y55599D01*
X209500D01*
X209000Y55099D01*
Y53100D01*
X209500Y52600D01*
X210500D01*
X210000Y53600D02*
X210999Y52600D01*
X210500D02*
X210999Y53100D01*
X213998Y52600D02*
X211999D01*
X213998Y54599D01*
Y55099D01*
X213498Y55599D01*
X212499D01*
X211999Y55099D01*
X218135Y299499D02*
Y295500D01*
X220135D01*
X220801Y296166D01*
Y298832D01*
X220135Y299499D01*
X218135D01*
X222134D02*
X224800D01*
Y298832D01*
X222134Y296166D01*
Y295500D01*
X212999Y84999D02*
X212499Y85499D01*
X211500D01*
X211000Y84999D01*
Y83000D01*
X211500Y82500D01*
X212499D01*
X212999Y83000D01*
X213999Y84999D02*
X214499Y85499D01*
X215498D01*
X215998Y84999D01*
Y84499D01*
X215498Y84000D01*
X214999D01*
X215498D01*
X215998Y83500D01*
Y83000D01*
X215498Y82500D01*
X214499D01*
X213999Y83000D01*
X218997Y82500D02*
X216998D01*
X218997Y84499D01*
Y84999D01*
X218498Y85499D01*
X217498D01*
X216998Y84999D01*
X194300Y99099D02*
Y96600D01*
X194800Y96100D01*
X195800D01*
X196299Y96600D01*
Y99099D01*
X198799Y96100D02*
Y99099D01*
X197299Y97600D01*
X199298D01*
X212500Y37100D02*
Y40099D01*
X214000D01*
X214499Y39599D01*
Y38600D01*
X214000Y38100D01*
X212500D01*
X213500D02*
X214499Y37100D01*
X215499D02*
X216499D01*
X215999D01*
Y40099D01*
X215499Y39599D01*
X217998Y37100D02*
X218998D01*
X218498D01*
Y40099D01*
X217998Y39599D01*
X222497Y40099D02*
X220497D01*
Y38600D01*
X221497Y39099D01*
X221997D01*
X222497Y38600D01*
Y37600D01*
X221997Y37100D01*
X220997D01*
X220497Y37600D01*
X11500Y357299D02*
Y354300D01*
Y355800D01*
X13499D01*
Y357299D01*
Y354300D01*
X14499D02*
X15499D01*
X14999D01*
Y357299D01*
X14499Y356799D01*
X27400Y476299D02*
X28400D01*
X27900D01*
Y473300D01*
X27400D01*
X28400D01*
X29899D02*
Y475299D01*
X31399D01*
X31898Y474799D01*
Y473300D01*
X32898D02*
X34398D01*
X34898Y473800D01*
X34398Y474300D01*
X33398D01*
X32898Y474799D01*
X33398Y475299D01*
X34898D01*
X36397Y475799D02*
Y475299D01*
X35897D01*
X36897D01*
X36397D01*
Y473800D01*
X36897Y473300D01*
X38896Y475299D02*
X39896D01*
X40396Y474799D01*
Y473300D01*
X38896D01*
X38396Y473800D01*
X38896Y474300D01*
X40396D01*
X41396Y473300D02*
X42395D01*
X41895D01*
Y476299D01*
X41396D01*
X43895Y473300D02*
X44894D01*
X44394D01*
Y476299D01*
X43895D01*
X49393Y473300D02*
X50393D01*
X49893D01*
Y476299D01*
X49393D01*
X52392Y475299D02*
X53392D01*
X53891Y474799D01*
Y473300D01*
X52392D01*
X51892Y473800D01*
X52392Y474300D01*
X53891D01*
X54891Y476299D02*
Y473300D01*
X56391D01*
X56890Y473800D01*
Y474300D01*
Y474799D01*
X56391Y475299D01*
X54891D01*
X59390Y473300D02*
X58390D01*
X57890Y473800D01*
Y474799D01*
X58390Y475299D01*
X59390D01*
X59890Y474799D01*
Y474300D01*
X57890D01*
X60889Y473300D02*
X61889D01*
X61389D01*
Y476299D01*
X60889D01*
X66387Y473300D02*
X67387D01*
X66887D01*
Y475299D01*
X66387D01*
X68887Y473300D02*
Y475299D01*
X70386D01*
X70886Y474799D01*
Y473300D01*
X74885D02*
X76384D01*
X76884Y473800D01*
X76384Y474300D01*
X75384D01*
X74885Y474799D01*
X75384Y475299D01*
X76884D01*
X77884Y473300D02*
X78883D01*
X78383D01*
Y475299D01*
X77884D01*
X80383Y473300D02*
X81383D01*
X80883D01*
Y476299D01*
X80383D01*
X82882Y473300D02*
Y476299D01*
Y474300D02*
X84382Y475299D01*
X82882Y474300D02*
X84382Y473300D01*
X85881D02*
X87381D01*
X87880Y473800D01*
X87381Y474300D01*
X86381D01*
X85881Y474799D01*
X86381Y475299D01*
X87880D01*
X90879D02*
X89380D01*
X88880Y474799D01*
Y473800D01*
X89380Y473300D01*
X90879D01*
X91879Y475299D02*
Y473300D01*
Y474300D01*
X92379Y474799D01*
X92879Y475299D01*
X93379D01*
X96378Y473300D02*
X95378D01*
X94878Y473800D01*
Y474799D01*
X95378Y475299D01*
X96378D01*
X96877Y474799D01*
Y474300D01*
X94878D01*
X99377Y473300D02*
X98377D01*
X97877Y473800D01*
Y474799D01*
X98377Y475299D01*
X99377D01*
X99876Y474799D01*
Y474300D01*
X97877D01*
X100876Y473300D02*
Y475299D01*
X102376D01*
X102876Y474799D01*
Y473300D01*
X105375D02*
X104375D01*
X103875Y473800D01*
Y474799D01*
X104375Y475299D01*
X105375D01*
X105875Y474799D01*
Y474300D01*
X103875D01*
X108874Y476299D02*
Y473300D01*
X107374D01*
X106874Y473800D01*
Y474799D01*
X107374Y475299D01*
X108874D01*
X112872Y476299D02*
Y473300D01*
X114372D01*
X114872Y473800D01*
Y474300D01*
Y474799D01*
X114372Y475299D01*
X112872D01*
X116371Y473300D02*
X117371D01*
X117871Y473800D01*
Y474799D01*
X117371Y475299D01*
X116371D01*
X115871Y474799D01*
Y473800D01*
X116371Y473300D01*
X118870Y475299D02*
X120870Y473300D01*
X119870Y474300D01*
X120870Y475299D01*
X118870Y473300D01*
X125368Y475299D02*
X126368D01*
X126868Y474799D01*
Y473300D01*
X125368D01*
X124869Y473800D01*
X125368Y474300D01*
X126868D01*
X128367Y473300D02*
Y475799D01*
Y474799D01*
X127867D01*
X128867D01*
X128367D01*
Y475799D01*
X128867Y476299D01*
X130867Y475799D02*
Y475299D01*
X130367D01*
X131366D01*
X130867D01*
Y473800D01*
X131366Y473300D01*
X134365D02*
X133366D01*
X132866Y473800D01*
Y474799D01*
X133366Y475299D01*
X134365D01*
X134865Y474799D01*
Y474300D01*
X132866D01*
X135865Y475299D02*
Y473300D01*
Y474300D01*
X136365Y474799D01*
X136865Y475299D01*
X137364D01*
X142363Y473300D02*
Y475799D01*
Y474799D01*
X141863D01*
X142863D01*
X142363D01*
Y475799D01*
X142863Y476299D01*
X144362Y473300D02*
X145362D01*
X144862D01*
Y475299D01*
X144362D01*
X146861Y473300D02*
Y475299D01*
X148361D01*
X148861Y474799D01*
Y473300D01*
X150360Y475299D02*
X151360D01*
X151860Y474799D01*
Y473300D01*
X150360D01*
X149860Y473800D01*
X150360Y474300D01*
X151860D01*
X152859Y473300D02*
X153859D01*
X153359D01*
Y476299D01*
X152859D01*
X158358Y475299D02*
Y473800D01*
X158858Y473300D01*
X159357Y473800D01*
X159857Y473300D01*
X160357Y473800D01*
Y475299D01*
X161856D02*
X162856D01*
X163356Y474799D01*
Y473300D01*
X161856D01*
X161357Y473800D01*
X161856Y474300D01*
X163356D01*
X164356Y473300D02*
X165855D01*
X166355Y473800D01*
X165855Y474300D01*
X164856D01*
X164356Y474799D01*
X164856Y475299D01*
X166355D01*
X167355Y476299D02*
Y473300D01*
Y474799D01*
X167854Y475299D01*
X168854D01*
X169354Y474799D01*
Y473300D01*
X170354D02*
Y473800D01*
X170854D01*
Y473300D01*
X170354D01*
X178851Y476299D02*
X180850D01*
X179851D01*
Y473300D01*
X183350D02*
X182350D01*
X181850Y473800D01*
Y474799D01*
X182350Y475299D01*
X183350D01*
X183849Y474799D01*
Y474300D01*
X181850D01*
X184849Y475299D02*
X186848Y473300D01*
X185849Y474300D01*
X186848Y475299D01*
X184849Y473300D01*
X188348Y475799D02*
Y475299D01*
X187848D01*
X188848D01*
X188348D01*
Y473800D01*
X188848Y473300D01*
X193346D02*
X194846D01*
X195346Y473800D01*
X194846Y474300D01*
X193846D01*
X193346Y474799D01*
X193846Y475299D01*
X195346D01*
X196345Y476299D02*
Y473300D01*
Y474799D01*
X196845Y475299D01*
X197845D01*
X198345Y474799D01*
Y473300D01*
X199844Y475299D02*
X200844D01*
X201344Y474799D01*
Y473300D01*
X199844D01*
X199344Y473800D01*
X199844Y474300D01*
X201344D01*
X202343Y473300D02*
X203343D01*
X202843D01*
Y476299D01*
X202343D01*
X204843Y473300D02*
X205842D01*
X205342D01*
Y476299D01*
X204843D01*
X210341D02*
Y473300D01*
X211840D01*
X212340Y473800D01*
Y474300D01*
Y474799D01*
X211840Y475299D01*
X210341D01*
X214839Y473300D02*
X213840D01*
X213340Y473800D01*
Y474799D01*
X213840Y475299D01*
X214839D01*
X215339Y474799D01*
Y474300D01*
X213340D01*
X219338Y475799D02*
X219838Y476299D01*
X220837D01*
X221337Y475799D01*
Y475299D01*
X220837Y474799D01*
X221337Y474300D01*
Y473800D01*
X220837Y473300D01*
X219838D01*
X219338Y473800D01*
Y474300D01*
X219838Y474799D01*
X219338Y475299D01*
Y475799D01*
X219838Y474799D02*
X220837D01*
X225336Y472300D02*
Y475299D01*
X226835D01*
X227335Y474799D01*
Y473800D01*
X226835Y473300D01*
X225336D01*
X228835Y475799D02*
Y475299D01*
X228335D01*
X229335D01*
X228835D01*
Y473800D01*
X229335Y473300D01*
X234333D02*
Y475799D01*
Y474799D01*
X233833D01*
X234833D01*
X234333D01*
Y475799D01*
X234833Y476299D01*
X236832Y473300D02*
X237832D01*
X238332Y473800D01*
Y474799D01*
X237832Y475299D01*
X236832D01*
X236332Y474799D01*
Y473800D01*
X236832Y473300D01*
X239331D02*
Y475299D01*
X240831D01*
X241331Y474799D01*
Y473300D01*
X242830Y475799D02*
Y475299D01*
X242331D01*
X243330D01*
X242830D01*
Y473800D01*
X243330Y473300D01*
X244830D02*
Y473800D01*
X245329D01*
Y473300D01*
X244830D01*
X253327Y476299D02*
X255326D01*
X254327D01*
Y473300D01*
X257825D02*
X256826D01*
X256326Y473800D01*
Y474799D01*
X256826Y475299D01*
X257825D01*
X258325Y474799D01*
Y474300D01*
X256326D01*
X259325Y475299D02*
X261324Y473300D01*
X260325Y474300D01*
X261324Y475299D01*
X259325Y473300D01*
X262824Y475799D02*
Y475299D01*
X262324D01*
X263324D01*
X262824D01*
Y473800D01*
X263324Y473300D01*
X267822D02*
X269322D01*
X269822Y473800D01*
X269322Y474300D01*
X268322D01*
X267822Y474799D01*
X268322Y475299D01*
X269822D01*
X270821Y476299D02*
Y473300D01*
Y474799D01*
X271321Y475299D01*
X272321D01*
X272821Y474799D01*
Y473300D01*
X274320Y475299D02*
X275320D01*
X275820Y474799D01*
Y473300D01*
X274320D01*
X273820Y473800D01*
X274320Y474300D01*
X275820D01*
X276819Y473300D02*
X277819D01*
X277319D01*
Y476299D01*
X276819D01*
X279318Y473300D02*
X280318D01*
X279818D01*
Y476299D01*
X279318D01*
X284817D02*
Y473300D01*
X286316D01*
X286816Y473800D01*
Y474300D01*
Y474799D01*
X286316Y475299D01*
X284817D01*
X289315Y473300D02*
X288316D01*
X287816Y473800D01*
Y474799D01*
X288316Y475299D01*
X289315D01*
X289815Y474799D01*
Y474300D01*
X287816D01*
X293814Y472300D02*
Y475299D01*
X295313D01*
X295813Y474799D01*
Y473800D01*
X295313Y473300D01*
X293814D01*
X298312D02*
X297313D01*
X296813Y473800D01*
Y474799D01*
X297313Y475299D01*
X298312D01*
X298812Y474799D01*
Y474300D01*
X296813D01*
X299812Y475299D02*
Y473300D01*
Y474300D01*
X300312Y474799D01*
X300812Y475299D01*
X301311D01*
X306310Y475799D02*
Y475299D01*
X305810D01*
X306810D01*
X306310D01*
Y473800D01*
X306810Y473300D01*
X308309Y476299D02*
Y473300D01*
Y474799D01*
X308809Y475299D01*
X309809D01*
X310308Y474799D01*
Y473300D01*
X312808D02*
X311808D01*
X311308Y473800D01*
Y474799D01*
X311808Y475299D01*
X312808D01*
X313307Y474799D01*
Y474300D01*
X311308D01*
X317306Y476299D02*
Y473300D01*
X319305D01*
X320805Y475299D02*
X321805D01*
X322305Y474799D01*
Y473300D01*
X320805D01*
X320305Y473800D01*
X320805Y474300D01*
X322305D01*
X323304Y476299D02*
Y473300D01*
X324804D01*
X325304Y473800D01*
Y474300D01*
Y474799D01*
X324804Y475299D01*
X323304D01*
X327803Y473300D02*
X326803D01*
X326303Y473800D01*
Y474799D01*
X326803Y475299D01*
X327803D01*
X328303Y474799D01*
Y474300D01*
X326303D01*
X329302Y473300D02*
X330302D01*
X329802D01*
Y476299D01*
X329302D01*
X334801D02*
X336800D01*
X335800D01*
Y473300D01*
X338299Y475299D02*
X339299D01*
X339799Y474799D01*
Y473300D01*
X338299D01*
X337800Y473800D01*
X338299Y474300D01*
X339799D01*
X340799Y476299D02*
Y473300D01*
X342298D01*
X342798Y473800D01*
Y474300D01*
Y474799D01*
X342298Y475299D01*
X340799D01*
X343798Y473300D02*
X344797D01*
X344298D01*
Y476299D01*
X343798D01*
X347796Y473300D02*
X346797D01*
X346297Y473800D01*
Y474799D01*
X346797Y475299D01*
X347796D01*
X348296Y474799D01*
Y474300D01*
X346297D01*
X352295Y473300D02*
X353294D01*
X352795D01*
Y475299D01*
X352295D01*
X354794Y473300D02*
Y475299D01*
X356294D01*
X356793Y474799D01*
Y473300D01*
X361292Y475799D02*
Y475299D01*
X360792D01*
X361792D01*
X361292D01*
Y473800D01*
X361792Y473300D01*
X363291Y476299D02*
Y473300D01*
Y474799D01*
X363791Y475299D01*
X364791D01*
X365291Y474799D01*
Y473300D01*
X367790D02*
X366790D01*
X366290Y473800D01*
Y474799D01*
X366790Y475299D01*
X367790D01*
X368290Y474799D01*
Y474300D01*
X366290D01*
X372288Y473300D02*
Y476299D01*
X373788D01*
X374288Y475799D01*
Y474799D01*
X373788Y474300D01*
X372288D01*
X375287Y476299D02*
Y473300D01*
X376787D01*
X377287Y473800D01*
Y475799D01*
X376787Y476299D01*
X375287D01*
X380286D02*
X378287D01*
Y474799D01*
X379286D01*
X378287D01*
Y473300D01*
X384284D02*
X385784D01*
X386284Y473800D01*
X385784Y474300D01*
X384784D01*
X384284Y474799D01*
X384784Y475299D01*
X386284D01*
X389283D02*
X387783D01*
X387284Y474799D01*
Y473800D01*
X387783Y473300D01*
X389283D01*
X390283Y476299D02*
Y473300D01*
Y474799D01*
X390782Y475299D01*
X391782D01*
X392282Y474799D01*
Y473300D01*
X394781D02*
X393781D01*
X393282Y473800D01*
Y474799D01*
X393781Y475299D01*
X394781D01*
X395281Y474799D01*
Y474300D01*
X393282D01*
X396281Y473300D02*
Y475299D01*
X396780D01*
X397280Y474799D01*
Y473300D01*
Y474799D01*
X397780Y475299D01*
X398280Y474799D01*
Y473300D01*
X399780Y475299D02*
X400779D01*
X401279Y474799D01*
Y473300D01*
X399780D01*
X399280Y473800D01*
X399780Y474300D01*
X401279D01*
X402778Y475799D02*
Y475299D01*
X402279D01*
X403278D01*
X402778D01*
Y473800D01*
X403278Y473300D01*
X404778D02*
X405778D01*
X405278D01*
Y475299D01*
X404778D01*
X409276D02*
X407777D01*
X407277Y474799D01*
Y473800D01*
X407777Y473300D01*
X409276D01*
X410276D02*
Y473800D01*
X410776D01*
Y473300D01*
X410276D01*
X6400Y476299D02*
X8399D01*
Y475799D01*
X6400Y473800D01*
Y473300D01*
X8399D01*
X9399Y476299D02*
X11398D01*
Y475799D01*
X9399Y473800D01*
Y473300D01*
X11398D01*
X12398D02*
X13398D01*
X12898D01*
Y476299D01*
X12398Y475799D01*
X25100Y442599D02*
X27099D01*
X26100D01*
Y439600D01*
X28099Y442599D02*
Y439600D01*
Y441100D01*
X28599Y441599D01*
X29599D01*
X30098Y441100D01*
Y439600D01*
X32598D02*
X31598D01*
X31098Y440100D01*
Y441100D01*
X31598Y441599D01*
X32598D01*
X33097Y441100D01*
Y440600D01*
X31098D01*
X34097Y439600D02*
X35597D01*
X36096Y440100D01*
X35597Y440600D01*
X34597D01*
X34097Y441100D01*
X34597Y441599D01*
X36096D01*
X38596Y439600D02*
X37596D01*
X37096Y440100D01*
Y441100D01*
X37596Y441599D01*
X38596D01*
X39096Y441100D01*
Y440600D01*
X37096D01*
X43594Y441599D02*
X44594D01*
X45094Y441100D01*
Y439600D01*
X43594D01*
X43094Y440100D01*
X43594Y440600D01*
X45094D01*
X46093Y439600D02*
X47593D01*
X48093Y440100D01*
X47593Y440600D01*
X46593D01*
X46093Y441100D01*
X46593Y441599D01*
X48093D01*
X49092Y439600D02*
X50592D01*
X51092Y440100D01*
X50592Y440600D01*
X49592D01*
X49092Y441100D01*
X49592Y441599D01*
X51092D01*
X53591Y439600D02*
X52591D01*
X52091Y440100D01*
Y441100D01*
X52591Y441599D01*
X53591D01*
X54091Y441100D01*
Y440600D01*
X52091D01*
X55090Y439600D02*
Y441599D01*
X55590D01*
X56090Y441100D01*
Y439600D01*
Y441100D01*
X56590Y441599D01*
X57090Y441100D01*
Y439600D01*
X58089Y442599D02*
Y439600D01*
X59589D01*
X60089Y440100D01*
Y440600D01*
Y441100D01*
X59589Y441599D01*
X58089D01*
X61088Y439600D02*
X62088D01*
X61588D01*
Y442599D01*
X61088D01*
X63587Y439600D02*
X64587D01*
X64087D01*
Y441599D01*
X63587D01*
X67586Y439600D02*
X66587D01*
X66087Y440100D01*
Y441100D01*
X66587Y441599D01*
X67586D01*
X68086Y441100D01*
Y440600D01*
X66087D01*
X69086Y439600D02*
X70585D01*
X71085Y440100D01*
X70585Y440600D01*
X69586D01*
X69086Y441100D01*
X69586Y441599D01*
X71085D01*
X75084Y439600D02*
Y441599D01*
X75584D01*
X76083Y441100D01*
Y439600D01*
Y441100D01*
X76583Y441599D01*
X77083Y441100D01*
Y439600D01*
X78083Y441599D02*
Y440100D01*
X78583Y439600D01*
X80082D01*
Y441599D01*
X81082Y439600D02*
X82581D01*
X83081Y440100D01*
X82581Y440600D01*
X81582D01*
X81082Y441100D01*
X81582Y441599D01*
X83081D01*
X84581Y442099D02*
Y441599D01*
X84081D01*
X85081D01*
X84581D01*
Y440100D01*
X85081Y439600D01*
X91579Y441599D02*
X90079D01*
X89579Y441100D01*
Y440100D01*
X90079Y439600D01*
X91579D01*
X93078D02*
X94078D01*
X94577Y440100D01*
Y441100D01*
X94078Y441599D01*
X93078D01*
X92578Y441100D01*
Y440100D01*
X93078Y439600D01*
X95577D02*
Y441599D01*
X96077D01*
X96577Y441100D01*
Y439600D01*
Y441100D01*
X97077Y441599D01*
X97576Y441100D01*
Y439600D01*
X98576Y438600D02*
Y441599D01*
X100076D01*
X100576Y441100D01*
Y440100D01*
X100076Y439600D01*
X98576D01*
X101575D02*
X102575D01*
X102075D01*
Y442599D01*
X101575D01*
X104075Y441599D02*
Y440100D01*
X104574Y439600D01*
X106074D01*
Y439100D01*
X105574Y438600D01*
X105074D01*
X106074Y439600D02*
Y441599D01*
X110073D02*
Y440100D01*
X110572Y439600D01*
X111072Y440100D01*
X111572Y439600D01*
X112072Y440100D01*
Y441599D01*
X113072Y439600D02*
X114071D01*
X113571D01*
Y441599D01*
X113072D01*
X116071Y442099D02*
Y441599D01*
X115571D01*
X116570D01*
X116071D01*
Y440100D01*
X116570Y439600D01*
X118070Y442599D02*
Y439600D01*
Y441100D01*
X118570Y441599D01*
X119569D01*
X120069Y441100D01*
Y439600D01*
X124068Y441599D02*
Y440100D01*
X124568Y439600D01*
X125068Y440100D01*
X125567Y439600D01*
X126067Y440100D01*
Y441599D01*
X127567Y439600D02*
X128567D01*
X129066Y440100D01*
Y441100D01*
X128567Y441599D01*
X127567D01*
X127067Y441100D01*
Y440100D01*
X127567Y439600D01*
X130066Y441599D02*
Y439600D01*
Y440600D01*
X130566Y441100D01*
X131066Y441599D01*
X131566D01*
X133065Y439600D02*
Y442599D01*
Y440600D02*
X134565Y441599D01*
X133065Y440600D02*
X134565Y439600D01*
X136064D02*
Y441599D01*
X136564D01*
X137064Y441100D01*
Y439600D01*
Y441100D01*
X137564Y441599D01*
X138063Y441100D01*
Y439600D01*
X139563Y441599D02*
X140563D01*
X141062Y441100D01*
Y439600D01*
X139563D01*
X139063Y440100D01*
X139563Y440600D01*
X141062D01*
X142062Y439600D02*
Y441599D01*
X143562D01*
X144062Y441100D01*
Y439600D01*
X145061D02*
X146561D01*
X147061Y440100D01*
X146561Y440600D01*
X145561D01*
X145061Y441100D01*
X145561Y441599D01*
X147061D01*
X148060Y442599D02*
Y439600D01*
Y441100D01*
X148560Y441599D01*
X149560D01*
X150060Y441100D01*
Y439600D01*
X151059D02*
X152059D01*
X151559D01*
Y441599D01*
X151059D01*
X153558Y438600D02*
Y441599D01*
X155058D01*
X155558Y441100D01*
Y440100D01*
X155058Y439600D01*
X153558D01*
X159556D02*
X161056D01*
X161556Y440100D01*
X161056Y440600D01*
X160056D01*
X159556Y441100D01*
X160056Y441599D01*
X161556D01*
X163055Y442099D02*
Y441599D01*
X162556D01*
X163555D01*
X163055D01*
Y440100D01*
X163555Y439600D01*
X165555Y441599D02*
X166554D01*
X167054Y441100D01*
Y439600D01*
X165555D01*
X165055Y440100D01*
X165555Y440600D01*
X167054D01*
X168054Y439600D02*
Y441599D01*
X169553D01*
X170053Y441100D01*
Y439600D01*
X173052Y442599D02*
Y439600D01*
X171553D01*
X171053Y440100D01*
Y441100D01*
X171553Y441599D01*
X173052D01*
X174552D02*
X175551D01*
X176051Y441100D01*
Y439600D01*
X174552D01*
X174052Y440100D01*
X174552Y440600D01*
X176051D01*
X177051Y441599D02*
Y439600D01*
Y440600D01*
X177551Y441100D01*
X178050Y441599D01*
X178550D01*
X182049Y442599D02*
Y439600D01*
X180550D01*
X180050Y440100D01*
Y441100D01*
X180550Y441599D01*
X182049D01*
X183049Y439600D02*
X184548D01*
X185048Y440100D01*
X184548Y440600D01*
X183549D01*
X183049Y441100D01*
X183549Y441599D01*
X185048D01*
X189047Y442599D02*
X190047D01*
X189547D01*
Y439600D01*
X189047D01*
X190047D01*
X191546D02*
Y442599D01*
X193046D01*
X193545Y442099D01*
Y441100D01*
X193046Y440600D01*
X191546D01*
X196545Y442099D02*
X196045Y442599D01*
X195045D01*
X194545Y442099D01*
Y440100D01*
X195045Y439600D01*
X196045D01*
X196545Y440100D01*
X197544Y441100D02*
X199544D01*
X200543Y439600D02*
Y441599D01*
X201543Y442599D01*
X202543Y441599D01*
Y439600D01*
Y441100D01*
X200543D01*
X203542D02*
X205542D01*
X208541Y442599D02*
X207541Y442099D01*
X206541Y441100D01*
Y440100D01*
X207041Y439600D01*
X208041D01*
X208541Y440100D01*
Y440600D01*
X208041Y441100D01*
X206541D01*
X209540Y439600D02*
X210540D01*
X210040D01*
Y442599D01*
X209540Y442099D01*
X212039D02*
X212539Y442599D01*
X213539D01*
X214039Y442099D01*
Y440100D01*
X213539Y439600D01*
X212539D01*
X212039Y440100D01*
Y442099D01*
X220037D02*
X219537Y442599D01*
X218537D01*
X218038Y442099D01*
Y440100D01*
X218537Y439600D01*
X219537D01*
X220037Y440100D01*
X221037Y439600D02*
X222036D01*
X221536D01*
Y442599D01*
X221037D01*
X224036Y441599D02*
X225035D01*
X225535Y441100D01*
Y439600D01*
X224036D01*
X223536Y440100D01*
X224036Y440600D01*
X225535D01*
X226535Y439600D02*
X228034D01*
X228534Y440100D01*
X228034Y440600D01*
X227035D01*
X226535Y441100D01*
X227035Y441599D01*
X228534D01*
X229534Y439600D02*
X231033D01*
X231533Y440100D01*
X231033Y440600D01*
X230034D01*
X229534Y441100D01*
X230034Y441599D01*
X231533D01*
X237531Y439600D02*
X235532D01*
X237531Y441599D01*
Y442099D01*
X237031Y442599D01*
X236032D01*
X235532Y442099D01*
X239031Y439100D02*
X239531Y439600D01*
Y440100D01*
X239031D01*
Y439600D01*
X239531D01*
X239031Y439100D01*
X238531Y438600D01*
X244529Y441599D02*
Y440100D01*
X245029Y439600D01*
X246528D01*
Y441599D01*
X247528Y439600D02*
Y441599D01*
X249028D01*
X249527Y441100D01*
Y439600D01*
X250527D02*
X251527D01*
X251027D01*
Y442599D01*
X250527D01*
X254526Y439600D02*
X253526D01*
X253026Y440100D01*
Y441100D01*
X253526Y441599D01*
X254526D01*
X255026Y441100D01*
Y440600D01*
X253026D01*
X256025Y439600D02*
X257525D01*
X258025Y440100D01*
X257525Y440600D01*
X256525D01*
X256025Y441100D01*
X256525Y441599D01*
X258025D01*
X259024Y439600D02*
X260524D01*
X261024Y440100D01*
X260524Y440600D01*
X259524D01*
X259024Y441100D01*
X259524Y441599D01*
X261024D01*
X265522Y439600D02*
X266522D01*
X267022Y440100D01*
Y441100D01*
X266522Y441599D01*
X265522D01*
X265022Y441100D01*
Y440100D01*
X265522Y439600D01*
X268521Y442099D02*
Y441599D01*
X268021D01*
X269021D01*
X268521D01*
Y440100D01*
X269021Y439600D01*
X270521Y442599D02*
Y439600D01*
Y441100D01*
X271020Y441599D01*
X272020D01*
X272520Y441100D01*
Y439600D01*
X275019D02*
X274020D01*
X273520Y440100D01*
Y441100D01*
X274020Y441599D01*
X275019D01*
X275519Y441100D01*
Y440600D01*
X273520D01*
X276519Y441599D02*
Y439600D01*
Y440600D01*
X277018Y441100D01*
X277518Y441599D01*
X278018D01*
X279518D02*
Y440100D01*
X280017Y439600D01*
X280517Y440100D01*
X281017Y439600D01*
X281517Y440100D01*
Y441599D01*
X282517Y439600D02*
X283516D01*
X283017D01*
Y441599D01*
X282517D01*
X285016Y439600D02*
X286515D01*
X287015Y440100D01*
X286515Y440600D01*
X285516D01*
X285016Y441100D01*
X285516Y441599D01*
X287015D01*
X289514Y439600D02*
X288515D01*
X288015Y440100D01*
Y441100D01*
X288515Y441599D01*
X289514D01*
X290014Y441100D01*
Y440600D01*
X288015D01*
X294013Y439600D02*
X295513D01*
X296012Y440100D01*
X295513Y440600D01*
X294513D01*
X294013Y441100D01*
X294513Y441599D01*
X296012D01*
X297012Y438600D02*
Y441599D01*
X298512D01*
X299011Y441100D01*
Y440100D01*
X298512Y439600D01*
X297012D01*
X301511D02*
X300511D01*
X300011Y440100D01*
Y441100D01*
X300511Y441599D01*
X301511D01*
X302010Y441100D01*
Y440600D01*
X300011D01*
X305009Y441599D02*
X303510D01*
X303010Y441100D01*
Y440100D01*
X303510Y439600D01*
X305009D01*
X306009D02*
X307009D01*
X306509D01*
Y441599D01*
X306009D01*
X309008Y439600D02*
Y442099D01*
Y441100D01*
X308508D01*
X309508D01*
X309008D01*
Y442099D01*
X309508Y442599D01*
X311007Y439600D02*
X312007D01*
X311507D01*
Y441599D01*
X311007D01*
X315006Y439600D02*
X314006D01*
X313507Y440100D01*
Y441100D01*
X314006Y441599D01*
X315006D01*
X315506Y441100D01*
Y440600D01*
X313507D01*
X318505Y442599D02*
Y439600D01*
X317006D01*
X316506Y440100D01*
Y441100D01*
X317006Y441599D01*
X318505D01*
X319505Y439600D02*
Y440100D01*
X320005D01*
Y439600D01*
X319505D01*
X4100Y442599D02*
X6099D01*
Y442099D01*
X4100Y440100D01*
Y439600D01*
X6099D01*
X7099Y442599D02*
X9098D01*
Y442099D01*
X7099Y440100D01*
Y439600D01*
X9098D01*
X11598D02*
Y442599D01*
X10098Y441100D01*
X12097D01*
X25200Y454599D02*
X27199D01*
X26200D01*
Y451600D01*
X28199Y454599D02*
Y451600D01*
Y453099D01*
X28699Y453599D01*
X29699D01*
X30198Y453099D01*
Y451600D01*
X32698D02*
X31698D01*
X31198Y452100D01*
Y453099D01*
X31698Y453599D01*
X32698D01*
X33197Y453099D01*
Y452600D01*
X31198D01*
X34197Y451600D02*
X35697D01*
X36196Y452100D01*
X35697Y452600D01*
X34697D01*
X34197Y453099D01*
X34697Y453599D01*
X36196D01*
X38696Y451600D02*
X37696D01*
X37196Y452100D01*
Y453099D01*
X37696Y453599D01*
X38696D01*
X39195Y453099D01*
Y452600D01*
X37196D01*
X43694Y453599D02*
X44694D01*
X45193Y453099D01*
Y451600D01*
X43694D01*
X43194Y452100D01*
X43694Y452600D01*
X45193D01*
X46193Y451600D02*
X47693D01*
X48193Y452100D01*
X47693Y452600D01*
X46693D01*
X46193Y453099D01*
X46693Y453599D01*
X48193D01*
X49192Y451600D02*
X50692D01*
X51192Y452100D01*
X50692Y452600D01*
X49692D01*
X49192Y453099D01*
X49692Y453599D01*
X51192D01*
X53691Y451600D02*
X52691D01*
X52191Y452100D01*
Y453099D01*
X52691Y453599D01*
X53691D01*
X54191Y453099D01*
Y452600D01*
X52191D01*
X55190Y451600D02*
Y453599D01*
X55690D01*
X56190Y453099D01*
Y451600D01*
Y453099D01*
X56690Y453599D01*
X57190Y453099D01*
Y451600D01*
X58189Y454599D02*
Y451600D01*
X59689D01*
X60189Y452100D01*
Y452600D01*
Y453099D01*
X59689Y453599D01*
X58189D01*
X61188Y451600D02*
X62188D01*
X61688D01*
Y454599D01*
X61188D01*
X63687Y451600D02*
X64687D01*
X64187D01*
Y453599D01*
X63687D01*
X67686Y451600D02*
X66687D01*
X66187Y452100D01*
Y453099D01*
X66687Y453599D01*
X67686D01*
X68186Y453099D01*
Y452600D01*
X66187D01*
X69186Y451600D02*
X70685D01*
X71185Y452100D01*
X70685Y452600D01*
X69686D01*
X69186Y453099D01*
X69686Y453599D01*
X71185D01*
X75684D02*
X76683D01*
X77183Y453099D01*
Y451600D01*
X75684D01*
X75184Y452100D01*
X75684Y452600D01*
X77183D01*
X78183Y453599D02*
Y451600D01*
Y452600D01*
X78683Y453099D01*
X79182Y453599D01*
X79682D01*
X82681Y451600D02*
X81682D01*
X81182Y452100D01*
Y453099D01*
X81682Y453599D01*
X82681D01*
X83181Y453099D01*
Y452600D01*
X81182D01*
X89179Y454599D02*
X87180D01*
Y451600D01*
X89179D01*
X87180Y453099D02*
X88180D01*
X92178Y454099D02*
X91679Y454599D01*
X90679D01*
X90179Y454099D01*
Y453599D01*
X90679Y453099D01*
X91679D01*
X92178Y452600D01*
Y452100D01*
X91679Y451600D01*
X90679D01*
X90179Y452100D01*
X93178Y454599D02*
Y451600D01*
X94678D01*
X95177Y452100D01*
Y454099D01*
X94678Y454599D01*
X93178D01*
X99176Y451600D02*
X100676D01*
X101175Y452100D01*
X100676Y452600D01*
X99676D01*
X99176Y453099D01*
X99676Y453599D01*
X101175D01*
X103675Y451600D02*
X102675D01*
X102175Y452100D01*
Y453099D01*
X102675Y453599D01*
X103675D01*
X104174Y453099D01*
Y452600D01*
X102175D01*
X105174Y451600D02*
Y453599D01*
X106674D01*
X107174Y453099D01*
Y451600D01*
X108173D02*
X109673D01*
X110172Y452100D01*
X109673Y452600D01*
X108673D01*
X108173Y453099D01*
X108673Y453599D01*
X110172D01*
X111172Y451600D02*
X112172D01*
X111672D01*
Y453599D01*
X111172D01*
X114171Y454099D02*
Y453599D01*
X113671D01*
X114671D01*
X114171D01*
Y452100D01*
X114671Y451600D01*
X116171D02*
X117170D01*
X116670D01*
Y453599D01*
X116171D01*
X118670D02*
X119669Y451600D01*
X120669Y453599D01*
X123168Y451600D02*
X122169D01*
X121669Y452100D01*
Y453099D01*
X122169Y453599D01*
X123168D01*
X123668Y453099D01*
Y452600D01*
X121669D01*
X125168Y451100D02*
X125668Y451600D01*
Y452100D01*
X125168D01*
Y451600D01*
X125668D01*
X125168Y451100D01*
X124668Y450600D01*
X132665Y454599D02*
X130666D01*
Y451600D01*
X132665D01*
X130666Y453099D02*
X131666D01*
X135664Y454099D02*
X135164Y454599D01*
X134165D01*
X133665Y454099D01*
Y453599D01*
X134165Y453099D01*
X135164D01*
X135664Y452600D01*
Y452100D01*
X135164Y451600D01*
X134165D01*
X133665Y452100D01*
X136664Y454599D02*
Y451600D01*
X138163D01*
X138663Y452100D01*
Y454099D01*
X138163Y454599D01*
X136664D01*
X142662Y450600D02*
Y453599D01*
X144161D01*
X144661Y453099D01*
Y452100D01*
X144161Y451600D01*
X142662D01*
X145661Y453599D02*
Y451600D01*
Y452600D01*
X146161Y453099D01*
X146661Y453599D01*
X147160D01*
X150160Y451600D02*
X149160D01*
X148660Y452100D01*
Y453099D01*
X149160Y453599D01*
X150160D01*
X150659Y453099D01*
Y452600D01*
X148660D01*
X153658Y453599D02*
X152159D01*
X151659Y453099D01*
Y452100D01*
X152159Y451600D01*
X153658D01*
X155158Y453599D02*
X156158D01*
X156658Y453099D01*
Y451600D01*
X155158D01*
X154658Y452100D01*
X155158Y452600D01*
X156658D01*
X157657Y453599D02*
Y452100D01*
X158157Y451600D01*
X159657D01*
Y453599D01*
X161156Y454099D02*
Y453599D01*
X160656D01*
X161656D01*
X161156D01*
Y452100D01*
X161656Y451600D01*
X163155D02*
X164155D01*
X163655D01*
Y453599D01*
X163155D01*
X166154Y451600D02*
X167154D01*
X167654Y452100D01*
Y453099D01*
X167154Y453599D01*
X166154D01*
X165655Y453099D01*
Y452100D01*
X166154Y451600D01*
X168654D02*
Y453599D01*
X170153D01*
X170653Y453099D01*
Y451600D01*
X171653D02*
X173152D01*
X173652Y452100D01*
X173152Y452600D01*
X172152D01*
X171653Y453099D01*
X172152Y453599D01*
X173652D01*
X177651Y451600D02*
X179150D01*
X179650Y452100D01*
X179150Y452600D01*
X178150D01*
X177651Y453099D01*
X178150Y453599D01*
X179650D01*
X180650Y454599D02*
Y451600D01*
Y453099D01*
X181149Y453599D01*
X182149D01*
X182649Y453099D01*
Y451600D01*
X184149Y453599D02*
X185148D01*
X185648Y453099D01*
Y451600D01*
X184149D01*
X183649Y452100D01*
X184149Y452600D01*
X185648D01*
X186648Y451600D02*
X187647D01*
X187148D01*
Y454599D01*
X186648D01*
X189147Y451600D02*
X190147D01*
X189647D01*
Y454599D01*
X189147D01*
X194645D02*
Y451600D01*
X196145D01*
X196644Y452100D01*
Y452600D01*
Y453099D01*
X196145Y453599D01*
X194645D01*
X199144Y451600D02*
X198144D01*
X197644Y452100D01*
Y453099D01*
X198144Y453599D01*
X199144D01*
X199644Y453099D01*
Y452600D01*
X197644D01*
X204142Y451600D02*
X205142D01*
X205642Y452100D01*
Y453099D01*
X205142Y453599D01*
X204142D01*
X203642Y453099D01*
Y452100D01*
X204142Y451600D01*
X206641Y454599D02*
Y451600D01*
X208141D01*
X208641Y452100D01*
Y452600D01*
Y453099D01*
X208141Y453599D01*
X206641D01*
X209640Y451600D02*
X211140D01*
X211640Y452100D01*
X211140Y452600D01*
X210140D01*
X209640Y453099D01*
X210140Y453599D01*
X211640D01*
X214139Y451600D02*
X213139D01*
X212639Y452100D01*
Y453099D01*
X213139Y453599D01*
X214139D01*
X214639Y453099D01*
Y452600D01*
X212639D01*
X215638Y453599D02*
Y451600D01*
Y452600D01*
X216138Y453099D01*
X216638Y453599D01*
X217138D01*
X218637D02*
X219637Y451600D01*
X220637Y453599D01*
X223136Y451600D02*
X222136D01*
X221637Y452100D01*
Y453099D01*
X222136Y453599D01*
X223136D01*
X223636Y453099D01*
Y452600D01*
X221637D01*
X226635Y454599D02*
Y451600D01*
X225135D01*
X224636Y452100D01*
Y453099D01*
X225135Y453599D01*
X226635D01*
X227635Y451600D02*
Y452100D01*
X228134D01*
Y451600D01*
X227635D01*
X4200Y454599D02*
X6199D01*
Y454099D01*
X4200Y452100D01*
Y451600D01*
X6199D01*
X7199Y454599D02*
X9198D01*
Y454099D01*
X7199Y452100D01*
Y451600D01*
X9198D01*
X10198Y454099D02*
X10698Y454599D01*
X11698D01*
X12197Y454099D01*
Y453599D01*
X11698Y453099D01*
X11198D01*
X11698D01*
X12197Y452600D01*
Y452100D01*
X11698Y451600D01*
X10698D01*
X10198Y452100D01*
X25400Y465399D02*
X27399D01*
X26400D01*
Y462400D01*
X28399Y465399D02*
Y462400D01*
Y463900D01*
X28899Y464399D01*
X29899D01*
X30398Y463900D01*
Y462400D01*
X32898D02*
X31898D01*
X31398Y462900D01*
Y463900D01*
X31898Y464399D01*
X32898D01*
X33397Y463900D01*
Y463400D01*
X31398D01*
X34397Y462400D02*
X35897D01*
X36396Y462900D01*
X35897Y463400D01*
X34897D01*
X34397Y463900D01*
X34897Y464399D01*
X36396D01*
X38896Y462400D02*
X37896D01*
X37396Y462900D01*
Y463900D01*
X37896Y464399D01*
X38896D01*
X39395Y463900D01*
Y463400D01*
X37396D01*
X43894Y464399D02*
X44894D01*
X45393Y463900D01*
Y462400D01*
X43894D01*
X43394Y462900D01*
X43894Y463400D01*
X45393D01*
X46393Y462400D02*
X47893D01*
X48393Y462900D01*
X47893Y463400D01*
X46893D01*
X46393Y463900D01*
X46893Y464399D01*
X48393D01*
X49392Y462400D02*
X50892D01*
X51392Y462900D01*
X50892Y463400D01*
X49892D01*
X49392Y463900D01*
X49892Y464399D01*
X51392D01*
X53891Y462400D02*
X52891D01*
X52391Y462900D01*
Y463900D01*
X52891Y464399D01*
X53891D01*
X54391Y463900D01*
Y463400D01*
X52391D01*
X55390Y462400D02*
Y464399D01*
X55890D01*
X56390Y463900D01*
Y462400D01*
Y463900D01*
X56890Y464399D01*
X57390Y463900D01*
Y462400D01*
X58389Y465399D02*
Y462400D01*
X59889D01*
X60389Y462900D01*
Y463400D01*
Y463900D01*
X59889Y464399D01*
X58389D01*
X61388Y462400D02*
X62388D01*
X61888D01*
Y465399D01*
X61388D01*
X63888Y462400D02*
X64887D01*
X64387D01*
Y464399D01*
X63888D01*
X67886Y462400D02*
X66887D01*
X66387Y462900D01*
Y463900D01*
X66887Y464399D01*
X67886D01*
X68386Y463900D01*
Y463400D01*
X66387D01*
X69386Y462400D02*
X70885D01*
X71385Y462900D01*
X70885Y463400D01*
X69886D01*
X69386Y463900D01*
X69886Y464399D01*
X71385D01*
X75384Y462400D02*
Y464399D01*
X75884D01*
X76384Y463900D01*
Y462400D01*
Y463900D01*
X76883Y464399D01*
X77383Y463900D01*
Y462400D01*
X78383Y464399D02*
Y462900D01*
X78883Y462400D01*
X80382D01*
Y464399D01*
X81382Y462400D02*
X82881D01*
X83381Y462900D01*
X82881Y463400D01*
X81882D01*
X81382Y463900D01*
X81882Y464399D01*
X83381D01*
X84881Y464899D02*
Y464399D01*
X84381D01*
X85381D01*
X84881D01*
Y462900D01*
X85381Y462400D01*
X89879Y465399D02*
Y462400D01*
X91379D01*
X91878Y462900D01*
Y463400D01*
Y463900D01*
X91379Y464399D01*
X89879D01*
X94378Y462400D02*
X93378D01*
X92878Y462900D01*
Y463900D01*
X93378Y464399D01*
X94378D01*
X94877Y463900D01*
Y463400D01*
X92878D01*
X100876Y464399D02*
X99376D01*
X98876Y463900D01*
Y462900D01*
X99376Y462400D01*
X100876D01*
X101875D02*
X102875D01*
X102375D01*
Y465399D01*
X101875D01*
X105874Y462400D02*
X104874D01*
X104375Y462900D01*
Y463900D01*
X104874Y464399D01*
X105874D01*
X106374Y463900D01*
Y463400D01*
X104375D01*
X107873Y464399D02*
X108873D01*
X109373Y463900D01*
Y462400D01*
X107873D01*
X107373Y462900D01*
X107873Y463400D01*
X109373D01*
X110372Y462400D02*
Y464399D01*
X111872D01*
X112372Y463900D01*
Y462400D01*
X116870Y464399D02*
X117870D01*
X118370Y463900D01*
Y462400D01*
X116870D01*
X116371Y462900D01*
X116870Y463400D01*
X118370D01*
X119370Y462400D02*
Y464399D01*
X120869D01*
X121369Y463900D01*
Y462400D01*
X124368Y465399D02*
Y462400D01*
X122869D01*
X122369Y462900D01*
Y463900D01*
X122869Y464399D01*
X124368D01*
X128867Y462400D02*
Y464899D01*
Y463900D01*
X128367D01*
X129366D01*
X128867D01*
Y464899D01*
X129366Y465399D01*
X130866Y464399D02*
Y462400D01*
Y463400D01*
X131366Y463900D01*
X131866Y464399D01*
X132365D01*
X135364Y462400D02*
X134365D01*
X133865Y462900D01*
Y463900D01*
X134365Y464399D01*
X135364D01*
X135864Y463900D01*
Y463400D01*
X133865D01*
X138364Y462400D02*
X137364D01*
X136864Y462900D01*
Y463900D01*
X137364Y464399D01*
X138364D01*
X138863Y463900D01*
Y463400D01*
X136864D01*
X143362Y462400D02*
Y464899D01*
Y463900D01*
X142862D01*
X143862D01*
X143362D01*
Y464899D01*
X143862Y465399D01*
X145361Y464399D02*
Y462400D01*
Y463400D01*
X145861Y463900D01*
X146361Y464399D01*
X146861D01*
X148860Y462400D02*
X149860D01*
X150360Y462900D01*
Y463900D01*
X149860Y464399D01*
X148860D01*
X148360Y463900D01*
Y462900D01*
X148860Y462400D01*
X151359D02*
Y464399D01*
X151859D01*
X152359Y463900D01*
Y462400D01*
Y463900D01*
X152859Y464399D01*
X153359Y463900D01*
Y462400D01*
X157857D02*
Y464899D01*
Y463900D01*
X157357D01*
X158357D01*
X157857D01*
Y464899D01*
X158357Y465399D01*
X159856Y462400D02*
X160856D01*
X160356D01*
Y465399D01*
X159856D01*
X162356Y464399D02*
Y462900D01*
X162856Y462400D01*
X164355D01*
Y464399D01*
X165355D02*
X167354Y462400D01*
X166354Y463400D01*
X167354Y464399D01*
X165355Y462400D01*
X171853Y464399D02*
X172852D01*
X173352Y463900D01*
Y462400D01*
X171853D01*
X171353Y462900D01*
X171853Y463400D01*
X173352D01*
X174352Y462400D02*
Y464399D01*
X175851D01*
X176351Y463900D01*
Y462400D01*
X179350Y465399D02*
Y462400D01*
X177851D01*
X177351Y462900D01*
Y463900D01*
X177851Y464399D01*
X179350D01*
X183849D02*
X184848D01*
X185348Y463900D01*
Y462400D01*
X183849D01*
X183349Y462900D01*
X183849Y463400D01*
X185348D01*
X186348Y462400D02*
X187348D01*
X186848D01*
Y465399D01*
X186348D01*
X188847Y462400D02*
X189847D01*
X189347D01*
Y465399D01*
X188847D01*
X196345Y464399D02*
X194845D01*
X194345Y463900D01*
Y462900D01*
X194845Y462400D01*
X196345D01*
X197844D02*
X198844D01*
X199344Y462900D01*
Y463900D01*
X198844Y464399D01*
X197844D01*
X197344Y463900D01*
Y462900D01*
X197844Y462400D01*
X200343D02*
Y464399D01*
X201843D01*
X202343Y463900D01*
Y462400D01*
X203842Y464899D02*
Y464399D01*
X203342D01*
X204342D01*
X203842D01*
Y462900D01*
X204342Y462400D01*
X206342Y464399D02*
X207341D01*
X207841Y463900D01*
Y462400D01*
X206342D01*
X205842Y462900D01*
X206342Y463400D01*
X207841D01*
X208841Y462400D02*
Y464399D01*
X209341D01*
X209840Y463900D01*
Y462400D01*
Y463900D01*
X210340Y464399D01*
X210840Y463900D01*
Y462400D01*
X211840D02*
X212839D01*
X212339D01*
Y464399D01*
X211840D01*
X214339Y462400D02*
Y464399D01*
X215838D01*
X216338Y463900D01*
Y462400D01*
X217838Y464399D02*
X218837D01*
X219337Y463900D01*
Y462400D01*
X217838D01*
X217338Y462900D01*
X217838Y463400D01*
X219337D01*
X220337Y462400D02*
Y464399D01*
X221836D01*
X222336Y463900D01*
Y462400D01*
X223836Y464899D02*
Y464399D01*
X223336D01*
X224336D01*
X223836D01*
Y462900D01*
X224336Y462400D01*
X225835D02*
X227335D01*
X227835Y462900D01*
X227335Y463400D01*
X226335D01*
X225835Y463900D01*
X226335Y464399D01*
X227835D01*
X228834Y462400D02*
Y462900D01*
X229334D01*
Y462400D01*
X228834D01*
X234332Y465399D02*
Y462900D01*
X234832Y462400D01*
X235832D01*
X236332Y462900D01*
Y465399D01*
X237331Y462400D02*
X238831D01*
X239331Y462900D01*
X238831Y463400D01*
X237831D01*
X237331Y463900D01*
X237831Y464399D01*
X239331D01*
X241830Y462400D02*
X240830D01*
X240331Y462900D01*
Y463900D01*
X240830Y464399D01*
X241830D01*
X242330Y463900D01*
Y463400D01*
X240331D01*
X246828Y462400D02*
X247828D01*
X248328Y462900D01*
Y463900D01*
X247828Y464399D01*
X246828D01*
X246328Y463900D01*
Y462900D01*
X246828Y462400D01*
X249827D02*
Y464899D01*
Y463900D01*
X249328D01*
X250327D01*
X249827D01*
Y464899D01*
X250327Y465399D01*
X254826Y462400D02*
Y464399D01*
X256325D01*
X256825Y463900D01*
Y462400D01*
X258325D02*
X259324D01*
X259824Y462900D01*
Y463900D01*
X259324Y464399D01*
X258325D01*
X257825Y463900D01*
Y462900D01*
X258325Y462400D01*
X265822Y464399D02*
X264323D01*
X263823Y463900D01*
Y462900D01*
X264323Y462400D01*
X265822D01*
X266822D02*
X267822D01*
X267322D01*
Y465399D01*
X266822D01*
X270821Y462400D02*
X269821D01*
X269321Y462900D01*
Y463900D01*
X269821Y464399D01*
X270821D01*
X271320Y463900D01*
Y463400D01*
X269321D01*
X272820Y464399D02*
X273820D01*
X274320Y463900D01*
Y462400D01*
X272820D01*
X272320Y462900D01*
X272820Y463400D01*
X274320D01*
X275319Y462400D02*
Y464399D01*
X276819D01*
X277319Y463900D01*
Y462400D01*
X281817D02*
Y464899D01*
Y463900D01*
X281317D01*
X282317D01*
X281817D01*
Y464899D01*
X282317Y465399D01*
X283816Y462400D02*
X284816D01*
X284316D01*
Y465399D01*
X283816D01*
X286316Y464399D02*
Y462900D01*
X286815Y462400D01*
X288315D01*
Y464399D01*
X289315D02*
X291314Y462400D01*
X290314Y463400D01*
X291314Y464399D01*
X289315Y462400D01*
X295313D02*
X296312D01*
X295813D01*
Y464399D01*
X295313D01*
X297812Y462400D02*
X299311D01*
X299811Y462900D01*
X299311Y463400D01*
X298312D01*
X297812Y463900D01*
X298312Y464399D01*
X299811D01*
X303810Y462400D02*
Y464399D01*
X305309D01*
X305809Y463900D01*
Y462400D01*
X307309D02*
X308309D01*
X308808Y462900D01*
Y463900D01*
X308309Y464399D01*
X307309D01*
X306809Y463900D01*
Y462900D01*
X307309Y462400D01*
X310308Y464899D02*
Y464399D01*
X309808D01*
X310808D01*
X310308D01*
Y462900D01*
X310808Y462400D01*
X315806Y464399D02*
X316806D01*
X317305Y463900D01*
Y462400D01*
X315806D01*
X315306Y462900D01*
X315806Y463400D01*
X317305D01*
X320305Y464399D02*
X318805D01*
X318305Y463900D01*
Y462900D01*
X318805Y462400D01*
X320305D01*
X323304Y464399D02*
X321804D01*
X321304Y463900D01*
Y462900D01*
X321804Y462400D01*
X323304D01*
X325803D02*
X324803D01*
X324303Y462900D01*
Y463900D01*
X324803Y464399D01*
X325803D01*
X326303Y463900D01*
Y463400D01*
X324303D01*
X327302Y461400D02*
Y464399D01*
X328802D01*
X329302Y463900D01*
Y462900D01*
X328802Y462400D01*
X327302D01*
X330801Y464899D02*
Y464399D01*
X330301D01*
X331301D01*
X330801D01*
Y462900D01*
X331301Y462400D01*
X333300Y464399D02*
X334300D01*
X334800Y463900D01*
Y462400D01*
X333300D01*
X332801Y462900D01*
X333300Y463400D01*
X334800D01*
X335800Y465399D02*
Y462400D01*
X337299D01*
X337799Y462900D01*
Y463400D01*
Y463900D01*
X337299Y464399D01*
X335800D01*
X338799Y462400D02*
X339798D01*
X339298D01*
Y465399D01*
X338799D01*
X342797Y462400D02*
X341798D01*
X341298Y462900D01*
Y463900D01*
X341798Y464399D01*
X342797D01*
X343297Y463900D01*
Y463400D01*
X341298D01*
X344297Y462400D02*
Y462900D01*
X344797D01*
Y462400D01*
X344297D01*
X4400Y465399D02*
X6399D01*
Y464899D01*
X4400Y462900D01*
Y462400D01*
X6399D01*
X7399Y465399D02*
X9398D01*
Y464899D01*
X7399Y462900D01*
Y462400D01*
X9398D01*
X12397D02*
X10398D01*
X12397Y464399D01*
Y464899D01*
X11898Y465399D01*
X10898D01*
X10398Y464899D01*
X157701Y358300D02*
X160700D01*
Y359800D01*
X160200Y360299D01*
X158201D01*
X157701Y359800D01*
Y358300D01*
X158201Y361299D02*
X157701Y361799D01*
Y362799D01*
X158201Y363298D01*
X158701D01*
X159201Y362799D01*
Y362299D01*
Y362799D01*
X159700Y363298D01*
X160200D01*
X160700Y362799D01*
Y361799D01*
X160200Y361299D01*
X194401Y358700D02*
X197400D01*
Y360199D01*
X196900Y360699D01*
X194901D01*
X194401Y360199D01*
Y358700D01*
X197400Y363198D02*
X194401D01*
X195900Y361699D01*
Y363698D01*
X7100Y217599D02*
Y214600D01*
X8600D01*
X9099Y215100D01*
Y217099D01*
X8600Y217599D01*
X7100D01*
X10099Y214600D02*
X11099D01*
X10599D01*
Y217599D01*
X10099Y217099D01*
X12598D02*
X13098Y217599D01*
X14098D01*
X14598Y217099D01*
Y215100D01*
X14098Y214600D01*
X13098D01*
X12598Y215100D01*
Y217099D01*
X9000Y250199D02*
Y247200D01*
X10499D01*
X10999Y247700D01*
Y249699D01*
X10499Y250199D01*
X9000D01*
X11999Y249699D02*
X12499Y250199D01*
X13499D01*
X13998Y249699D01*
Y249199D01*
X13499Y248699D01*
X13998Y248200D01*
Y247700D01*
X13499Y247200D01*
X12499D01*
X11999Y247700D01*
Y248200D01*
X12499Y248699D01*
X11999Y249199D01*
Y249699D01*
X12499Y248699D02*
X13499D01*
X125201Y7000D02*
X128200D01*
Y8500D01*
X127700Y8999D01*
X125701D01*
X125201Y8500D01*
Y7000D01*
X128200Y11998D02*
Y9999D01*
X126201Y11998D01*
X125701D01*
X125201Y11499D01*
Y10499D01*
X125701Y9999D01*
Y12998D02*
X125201Y13498D01*
Y14498D01*
X125701Y14997D01*
X126201D01*
X126700Y14498D01*
Y13998D01*
Y14498D01*
X127200Y14997D01*
X127700D01*
X128200Y14498D01*
Y13498D01*
X127700Y12998D01*
X159501Y7300D02*
X162500D01*
Y8800D01*
X162000Y9299D01*
X160001D01*
X159501Y8800D01*
Y7300D01*
X162500Y12298D02*
Y10299D01*
X160501Y12298D01*
X160001D01*
X159501Y11799D01*
Y10799D01*
X160001Y10299D01*
X162500Y14798D02*
X159501D01*
X161001Y13298D01*
Y15297D01*
X64701Y7400D02*
X67700D01*
Y8900D01*
X67200Y9399D01*
X65201D01*
X64701Y8900D01*
Y7400D01*
X67700Y12398D02*
Y10399D01*
X65701Y12398D01*
X65201D01*
X64701Y11899D01*
Y10899D01*
X65201Y10399D01*
X67700Y13398D02*
Y14398D01*
Y13898D01*
X64701D01*
X65201Y13398D01*
X95801Y7300D02*
X98800D01*
Y8800D01*
X98300Y9299D01*
X96301D01*
X95801Y8800D01*
Y7300D01*
X98800Y12298D02*
Y10299D01*
X96801Y12298D01*
X96301D01*
X95801Y11799D01*
Y10799D01*
X96301Y10299D01*
X98800Y15297D02*
Y13298D01*
X96801Y15297D01*
X96301D01*
X95801Y14798D01*
Y13798D01*
X96301Y13298D01*
X7900Y183599D02*
Y180600D01*
X9399D01*
X9899Y181100D01*
Y183099D01*
X9399Y183599D01*
X7900D01*
X10899Y180600D02*
X11899D01*
X11399D01*
Y183599D01*
X10899Y183099D01*
X15398Y180600D02*
X13398D01*
X15398Y182599D01*
Y183099D01*
X14898Y183599D01*
X13898D01*
X13398Y183099D01*
X123601Y358400D02*
X126600D01*
Y359899D01*
X126100Y360399D01*
X124101D01*
X123601Y359899D01*
Y358400D01*
X126600Y363398D02*
Y361399D01*
X124601Y363398D01*
X124101D01*
X123601Y362898D01*
Y361899D01*
X124101Y361399D01*
X85801Y358300D02*
X88800D01*
Y359800D01*
X88300Y360299D01*
X86301D01*
X85801Y359800D01*
Y358300D01*
X88800Y361299D02*
Y362299D01*
Y361799D01*
X85801D01*
X86301Y361299D01*
X8000Y319699D02*
Y316700D01*
X9499D01*
X9999Y317200D01*
Y319199D01*
X9499Y319699D01*
X8000D01*
X12998D02*
X10999D01*
Y318199D01*
X11999Y318699D01*
X12499D01*
X12998Y318199D01*
Y317200D01*
X12499Y316700D01*
X11499D01*
X10999Y317200D01*
X8600Y287499D02*
Y284500D01*
X10099D01*
X10599Y285000D01*
Y286999D01*
X10099Y287499D01*
X8600D01*
X13598D02*
X12599Y286999D01*
X11599Y285999D01*
Y285000D01*
X12099Y284500D01*
X13099D01*
X13598Y285000D01*
Y285500D01*
X13099Y285999D01*
X11599D01*
X7700Y118199D02*
Y115200D01*
X9200D01*
X9699Y115700D01*
Y117699D01*
X9200Y118199D01*
X7700D01*
X10699Y115200D02*
X11699D01*
X11199D01*
Y118199D01*
X10699Y117699D01*
X15198Y118199D02*
X14198Y117699D01*
X13198Y116700D01*
Y115700D01*
X13698Y115200D01*
X14698D01*
X15198Y115700D01*
Y116200D01*
X14698Y116700D01*
X13198D01*
X7700Y82799D02*
Y79800D01*
X9200D01*
X9699Y80300D01*
Y82299D01*
X9200Y82799D01*
X7700D01*
X10699Y79800D02*
X11699D01*
X11199D01*
Y82799D01*
X10699Y82299D01*
X13198D02*
X13698Y82799D01*
X14698D01*
X15198Y82299D01*
Y81799D01*
X14698Y81300D01*
X15198Y80800D01*
Y80300D01*
X14698Y79800D01*
X13698D01*
X13198Y80300D01*
Y80800D01*
X13698Y81300D01*
X13198Y81799D01*
Y82299D01*
X13698Y81300D02*
X14698D01*
X10000Y18499D02*
Y15500D01*
Y16999D01*
X11999D01*
Y18499D01*
Y15500D01*
X12999Y17999D02*
X13499Y18499D01*
X14499D01*
X14998Y17999D01*
Y17499D01*
X14499Y16999D01*
X13999D01*
X14499D01*
X14998Y16500D01*
Y16000D01*
X14499Y15500D01*
X13499D01*
X12999Y16000D01*
X228000Y353999D02*
Y351000D01*
Y352500D01*
X229999D01*
Y353999D01*
Y351000D01*
X232998D02*
X230999D01*
X232998Y352999D01*
Y353499D01*
X232499Y353999D01*
X231499D01*
X230999Y353499D01*
X169100Y145100D02*
X166101D01*
Y146599D01*
X166601Y147099D01*
X167601D01*
X168100Y146599D01*
Y145100D01*
Y146100D02*
X169100Y147099D01*
X166101Y150098D02*
X166601Y149099D01*
X167601Y148099D01*
X168600D01*
X169100Y148599D01*
Y149599D01*
X168600Y150098D01*
X168100D01*
X167601Y149599D01*
Y148099D01*
X166601Y151098D02*
X166101Y151598D01*
Y152598D01*
X166601Y153097D01*
X167101D01*
X167601Y152598D01*
X168100Y153097D01*
X168600D01*
X169100Y152598D01*
Y151598D01*
X168600Y151098D01*
X168100D01*
X167601Y151598D01*
X167101Y151098D01*
X166601D01*
X167601Y151598D02*
Y152598D01*
X162400Y145300D02*
X159401D01*
Y146800D01*
X159901Y147299D01*
X160900D01*
X161400Y146800D01*
Y145300D01*
Y146300D02*
X162400Y147299D01*
X159401Y150298D02*
X159901Y149299D01*
X160900Y148299D01*
X161900D01*
X162400Y148799D01*
Y149799D01*
X161900Y150298D01*
X161400D01*
X160900Y149799D01*
Y148299D01*
X159401Y151298D02*
Y153297D01*
X159901D01*
X161900Y151298D01*
X162400D01*
X161000Y231500D02*
Y234499D01*
X162499D01*
X162999Y233999D01*
Y232999D01*
X162499Y232500D01*
X161000D01*
X162000D02*
X162999Y231500D01*
X165499D02*
Y234499D01*
X163999Y232999D01*
X165998D01*
X166998Y233999D02*
X167498Y234499D01*
X168498D01*
X168997Y233999D01*
Y232000D01*
X168498Y231500D01*
X167498D01*
X166998Y232000D01*
Y233999D01*
X161100Y224800D02*
Y227799D01*
X162600D01*
X163099Y227299D01*
Y226300D01*
X162600Y225800D01*
X161100D01*
X162100D02*
X163099Y224800D01*
X165599D02*
Y227799D01*
X164099Y226300D01*
X166098D01*
X169097Y227799D02*
X167098D01*
Y226300D01*
X168098Y226799D01*
X168598D01*
X169097Y226300D01*
Y225300D01*
X168598Y224800D01*
X167598D01*
X167098Y225300D01*
X195499Y111499D02*
X195000Y111999D01*
X194000D01*
X193500Y111499D01*
Y109500D01*
X194000Y109000D01*
X195000D01*
X195499Y109500D01*
X198498Y109000D02*
X196499D01*
X198498Y110999D01*
Y111499D01*
X197999Y111999D01*
X196999D01*
X196499Y111499D01*
X201497Y111999D02*
X199498D01*
Y110500D01*
X200498Y110999D01*
X200998D01*
X201497Y110500D01*
Y109500D01*
X200998Y109000D01*
X199998D01*
X199498Y109500D01*
X212000Y255900D02*
Y258899D01*
X213499D01*
X213999Y258399D01*
Y257400D01*
X213499Y256900D01*
X212000D01*
X213000D02*
X213999Y255900D01*
X216498D02*
Y258899D01*
X214999Y257400D01*
X216998D01*
X217998Y255900D02*
X218998D01*
X218498D01*
Y258899D01*
X217998Y258399D01*
X203400Y56700D02*
X200401D01*
Y58200D01*
X200901Y58699D01*
X201901D01*
X202400Y58200D01*
Y56700D01*
Y57700D02*
X203400Y58699D01*
Y59699D02*
Y60699D01*
Y60199D01*
X200401D01*
X200901Y59699D01*
Y62198D02*
X200401Y62698D01*
Y63698D01*
X200901Y64198D01*
X202900D01*
X203400Y63698D01*
Y62698D01*
X202900Y62198D01*
X200901D01*
X200401Y67197D02*
X200901Y66197D01*
X201901Y65197D01*
X202900D01*
X203400Y65697D01*
Y66697D01*
X202900Y67197D01*
X202400D01*
X201901Y66697D01*
Y65197D01*
X201101Y46299D02*
X200601Y45799D01*
Y44800D01*
X201101Y44300D01*
X203100D01*
X203600Y44800D01*
Y45799D01*
X203100Y46299D01*
X201101Y47299D02*
X200601Y47799D01*
Y48799D01*
X201101Y49298D01*
X201601D01*
X202100Y48799D01*
Y48299D01*
Y48799D01*
X202600Y49298D01*
X203100D01*
X203600Y48799D01*
Y47799D01*
X203100Y47299D01*
X203600Y51798D02*
X200601D01*
X202100Y50298D01*
Y52297D01*
X217901Y246899D02*
X217401Y246399D01*
Y245400D01*
X217901Y244900D01*
X219900D01*
X220400Y245400D01*
Y246399D01*
X219900Y246899D01*
Y247899D02*
X220400Y248399D01*
Y249398D01*
X219900Y249898D01*
X217901D01*
X217401Y249398D01*
Y248399D01*
X217901Y247899D01*
X218401D01*
X218900Y248399D01*
Y249898D01*
X65000Y61700D02*
Y64699D01*
X66500D01*
X66999Y64199D01*
Y63200D01*
X66500Y62700D01*
X65000D01*
X66000D02*
X66999Y61700D01*
X67999Y62200D02*
X68499Y61700D01*
X69499D01*
X69998Y62200D01*
Y64199D01*
X69499Y64699D01*
X68499D01*
X67999Y64199D01*
Y63699D01*
X68499Y63200D01*
X69998D01*
X70998Y64699D02*
X72997D01*
Y64199D01*
X70998Y62200D01*
Y61700D01*
X67100Y37100D02*
Y40099D01*
X68599D01*
X69099Y39599D01*
Y38600D01*
X68599Y38100D01*
X67100D01*
X68100D02*
X69099Y37100D01*
X70099D02*
X71099D01*
X70599D01*
Y40099D01*
X70099Y39599D01*
X72598Y37100D02*
X73598D01*
X73098D01*
Y40099D01*
X72598Y39599D01*
X75097Y37100D02*
X76097D01*
X75597D01*
Y40099D01*
X75097Y39599D01*
X65100Y109200D02*
X62101D01*
Y110699D01*
X62601Y111199D01*
X63600D01*
X64100Y110699D01*
Y109200D01*
Y110200D02*
X65100Y111199D01*
X62101Y112199D02*
Y114198D01*
X62601D01*
X64600Y112199D01*
X65100D01*
X62601Y115198D02*
X62101Y115698D01*
Y116698D01*
X62601Y117197D01*
X63101D01*
X63600Y116698D01*
X64100Y117197D01*
X64600D01*
X65100Y116698D01*
Y115698D01*
X64600Y115198D01*
X64100D01*
X63600Y115698D01*
X63101Y115198D01*
X62601D01*
X63600Y115698D02*
Y116698D01*
X40000Y106600D02*
X37001D01*
Y108099D01*
X37501Y108599D01*
X38500D01*
X39000Y108099D01*
Y106600D01*
Y107600D02*
X40000Y108599D01*
X37501Y109599D02*
X37001Y110099D01*
Y111099D01*
X37501Y111598D01*
X38001D01*
X38500Y111099D01*
X39000Y111598D01*
X39500D01*
X40000Y111099D01*
Y110099D01*
X39500Y109599D01*
X39000D01*
X38500Y110099D01*
X38001Y109599D01*
X37501D01*
X38500Y110099D02*
Y111099D01*
X37501Y112598D02*
X37001Y113098D01*
Y114098D01*
X37501Y114597D01*
X39500D01*
X40000Y114098D01*
Y113098D01*
X39500Y112598D01*
X37501D01*
X63800Y54400D02*
Y57399D01*
X65299D01*
X65799Y56899D01*
Y55900D01*
X65299Y55400D01*
X63800D01*
X64800D02*
X65799Y54400D01*
X66799D02*
X67799D01*
X67299D01*
Y57399D01*
X66799Y56899D01*
X69298D02*
X69798Y57399D01*
X70798D01*
X71298Y56899D01*
Y54900D01*
X70798Y54400D01*
X69798D01*
X69298Y54900D01*
Y56899D01*
X74297Y54400D02*
X72297D01*
X74297Y56399D01*
Y56899D01*
X73797Y57399D01*
X72797D01*
X72297Y56899D01*
X57700Y108900D02*
X54701D01*
Y110399D01*
X55201Y110899D01*
X56200D01*
X56700Y110399D01*
Y108900D01*
Y109900D02*
X57700Y110899D01*
X55201Y111899D02*
X54701Y112399D01*
Y113399D01*
X55201Y113898D01*
X55701D01*
X56200Y113399D01*
X56700Y113898D01*
X57200D01*
X57700Y113399D01*
Y112399D01*
X57200Y111899D01*
X56700D01*
X56200Y112399D01*
X55701Y111899D01*
X55201D01*
X56200Y112399D02*
Y113399D01*
X57700Y116897D02*
Y114898D01*
X55701Y116897D01*
X55201D01*
X54701Y116398D01*
Y115398D01*
X55201Y114898D01*
X50200Y109200D02*
X47201D01*
Y110699D01*
X47701Y111199D01*
X48700D01*
X49200Y110699D01*
Y109200D01*
Y110200D02*
X50200Y111199D01*
X47701Y112199D02*
X47201Y112699D01*
Y113699D01*
X47701Y114198D01*
X48201D01*
X48700Y113699D01*
X49200Y114198D01*
X49700D01*
X50200Y113699D01*
Y112699D01*
X49700Y112199D01*
X49200D01*
X48700Y112699D01*
X48201Y112199D01*
X47701D01*
X48700Y112699D02*
Y113699D01*
X50200Y115198D02*
Y116198D01*
Y115698D01*
X47201D01*
X47701Y115198D01*
X63900Y47300D02*
Y50299D01*
X65399D01*
X65899Y49799D01*
Y48799D01*
X65399Y48300D01*
X63900D01*
X64900D02*
X65899Y47300D01*
X66899D02*
X67899D01*
X67399D01*
Y50299D01*
X66899Y49799D01*
X69398D02*
X69898Y50299D01*
X70898D01*
X71398Y49799D01*
Y47800D01*
X70898Y47300D01*
X69898D01*
X69398Y47800D01*
Y49799D01*
X72397Y50299D02*
X74397D01*
Y49799D01*
X72397Y47800D01*
Y47300D01*
X95100Y62000D02*
Y64999D01*
X96600D01*
X97099Y64499D01*
Y63499D01*
X96600Y63000D01*
X95100D01*
X96100D02*
X97099Y62000D01*
X98099Y62500D02*
X98599Y62000D01*
X99599D01*
X100098Y62500D01*
Y64499D01*
X99599Y64999D01*
X98599D01*
X98099Y64499D01*
Y63999D01*
X98599Y63499D01*
X100098D01*
X101098Y64499D02*
X101598Y64999D01*
X102598D01*
X103097Y64499D01*
Y63999D01*
X102598Y63499D01*
X103097Y63000D01*
Y62500D01*
X102598Y62000D01*
X101598D01*
X101098Y62500D01*
Y63000D01*
X101598Y63499D01*
X101098Y63999D01*
Y64499D01*
X101598Y63499D02*
X102598D01*
X96100Y37100D02*
Y40099D01*
X97600D01*
X98099Y39599D01*
Y38600D01*
X97600Y38100D01*
X96100D01*
X97100D02*
X98099Y37100D01*
X99099D02*
X100099D01*
X99599D01*
Y40099D01*
X99099Y39599D01*
X101598Y37100D02*
X102598D01*
X102098D01*
Y40099D01*
X101598Y39599D01*
X106097Y37100D02*
X104097D01*
X106097Y39099D01*
Y39599D01*
X105597Y40099D01*
X104597D01*
X104097Y39599D01*
X65000Y73800D02*
X62001D01*
Y75300D01*
X62501Y75799D01*
X63500D01*
X64000Y75300D01*
Y73800D01*
Y74800D02*
X65000Y75799D01*
X62501Y76799D02*
X62001Y77299D01*
Y78299D01*
X62501Y78798D01*
X63001D01*
X63500Y78299D01*
X64000Y78798D01*
X64500D01*
X65000Y78299D01*
Y77299D01*
X64500Y76799D01*
X64000D01*
X63500Y77299D01*
X63001Y76799D01*
X62501D01*
X63500Y77299D02*
Y78299D01*
X62501Y79798D02*
X62001Y80298D01*
Y81298D01*
X62501Y81797D01*
X63001D01*
X63500Y81298D01*
Y80798D01*
Y81298D01*
X64000Y81797D01*
X64500D01*
X65000Y81298D01*
Y80298D01*
X64500Y79798D01*
X39900Y71200D02*
X36901D01*
Y72699D01*
X37401Y73199D01*
X38401D01*
X38900Y72699D01*
Y71200D01*
Y72200D02*
X39900Y73199D01*
X39400Y74199D02*
X39900Y74699D01*
Y75699D01*
X39400Y76198D01*
X37401D01*
X36901Y75699D01*
Y74699D01*
X37401Y74199D01*
X37901D01*
X38401Y74699D01*
Y76198D01*
X39900Y78698D02*
X36901D01*
X38401Y77198D01*
Y79197D01*
X93400Y54500D02*
Y57499D01*
X94899D01*
X95399Y56999D01*
Y55999D01*
X94899Y55500D01*
X93400D01*
X94400D02*
X95399Y54500D01*
X96399D02*
X97399D01*
X96899D01*
Y57499D01*
X96399Y56999D01*
X98898D02*
X99398Y57499D01*
X100398D01*
X100898Y56999D01*
Y55000D01*
X100398Y54500D01*
X99398D01*
X98898Y55000D01*
Y56999D01*
X101897D02*
X102397Y57499D01*
X103397D01*
X103897Y56999D01*
Y56499D01*
X103397Y55999D01*
X102897D01*
X103397D01*
X103897Y55500D01*
Y55000D01*
X103397Y54500D01*
X102397D01*
X101897Y55000D01*
X93300Y47100D02*
Y50099D01*
X94800D01*
X95299Y49599D01*
Y48599D01*
X94800Y48100D01*
X93300D01*
X94300D02*
X95299Y47100D01*
X96299D02*
X97299D01*
X96799D01*
Y50099D01*
X96299Y49599D01*
X98798D02*
X99298Y50099D01*
X100298D01*
X100798Y49599D01*
Y47600D01*
X100298Y47100D01*
X99298D01*
X98798Y47600D01*
Y49599D01*
X101797D02*
X102297Y50099D01*
X103297D01*
X103797Y49599D01*
Y49099D01*
X103297Y48599D01*
X103797Y48100D01*
Y47600D01*
X103297Y47100D01*
X102297D01*
X101797Y47600D01*
Y48100D01*
X102297Y48599D01*
X101797Y49099D01*
Y49599D01*
X102297Y48599D02*
X103297D01*
X57700Y73800D02*
X54701D01*
Y75300D01*
X55201Y75799D01*
X56200D01*
X56700Y75300D01*
Y73800D01*
Y74800D02*
X57700Y75799D01*
X57200Y76799D02*
X57700Y77299D01*
Y78299D01*
X57200Y78798D01*
X55201D01*
X54701Y78299D01*
Y77299D01*
X55201Y76799D01*
X55701D01*
X56200Y77299D01*
Y78798D01*
X54701Y81797D02*
X55201Y80798D01*
X56200Y79798D01*
X57200D01*
X57700Y80298D01*
Y81298D01*
X57200Y81797D01*
X56700D01*
X56200Y81298D01*
Y79798D01*
X50200Y73900D02*
X47201D01*
Y75400D01*
X47701Y75899D01*
X48700D01*
X49200Y75400D01*
Y73900D01*
Y74900D02*
X50200Y75899D01*
X49700Y76899D02*
X50200Y77399D01*
Y78399D01*
X49700Y78898D01*
X47701D01*
X47201Y78399D01*
Y77399D01*
X47701Y76899D01*
X48201D01*
X48700Y77399D01*
Y78898D01*
X47201Y81897D02*
Y79898D01*
X48700D01*
X48201Y80898D01*
Y81398D01*
X48700Y81897D01*
X49700D01*
X50200Y81398D01*
Y80398D01*
X49700Y79898D01*
X64800Y175000D02*
X61801D01*
Y176499D01*
X62301Y176999D01*
X63301D01*
X63800Y176499D01*
Y175000D01*
Y176000D02*
X64800Y176999D01*
X61801Y179998D02*
X62301Y178999D01*
X63301Y177999D01*
X64300D01*
X64800Y178499D01*
Y179499D01*
X64300Y179998D01*
X63800D01*
X63301Y179499D01*
Y177999D01*
X64800Y180998D02*
Y181998D01*
Y181498D01*
X61801D01*
X62301Y180998D01*
X39900Y172800D02*
X36901D01*
Y174300D01*
X37401Y174799D01*
X38401D01*
X38900Y174300D01*
Y172800D01*
Y173800D02*
X39900Y174799D01*
X36901Y177798D02*
Y175799D01*
X38401D01*
X37901Y176799D01*
Y177299D01*
X38401Y177798D01*
X39400D01*
X39900Y177299D01*
Y176299D01*
X39400Y175799D01*
X36901Y178798D02*
Y180797D01*
X37401D01*
X39400Y178798D01*
X39900D01*
X126200Y61900D02*
Y64899D01*
X127699D01*
X128199Y64399D01*
Y63399D01*
X127699Y62900D01*
X126200D01*
X127200D02*
X128199Y61900D01*
X129199Y62400D02*
X129699Y61900D01*
X130699D01*
X131198Y62400D01*
Y64399D01*
X130699Y64899D01*
X129699D01*
X129199Y64399D01*
Y63899D01*
X129699Y63399D01*
X131198D01*
X132198Y62400D02*
X132698Y61900D01*
X133698D01*
X134197Y62400D01*
Y64399D01*
X133698Y64899D01*
X132698D01*
X132198Y64399D01*
Y63899D01*
X132698Y63399D01*
X134197D01*
X127300Y36800D02*
Y39799D01*
X128799D01*
X129299Y39299D01*
Y38300D01*
X128799Y37800D01*
X127300D01*
X128300D02*
X129299Y36800D01*
X130299D02*
X131299D01*
X130799D01*
Y39799D01*
X130299Y39299D01*
X132798Y36800D02*
X133798D01*
X133298D01*
Y39799D01*
X132798Y39299D01*
X135297D02*
X135797Y39799D01*
X136797D01*
X137297Y39299D01*
Y38799D01*
X136797Y38300D01*
X136297D01*
X136797D01*
X137297Y37800D01*
Y37300D01*
X136797Y36800D01*
X135797D01*
X135297Y37300D01*
X57400Y175100D02*
X54401D01*
Y176600D01*
X54901Y177099D01*
X55901D01*
X56400Y176600D01*
Y175100D01*
Y176100D02*
X57400Y177099D01*
X54401Y180098D02*
X54901Y179099D01*
X55901Y178099D01*
X56900D01*
X57400Y178599D01*
Y179599D01*
X56900Y180098D01*
X56400D01*
X55901Y179599D01*
Y178099D01*
X54901Y181098D02*
X54401Y181598D01*
Y182598D01*
X54901Y183097D01*
X56900D01*
X57400Y182598D01*
Y181598D01*
X56900Y181098D01*
X54901D01*
X50000Y175100D02*
X47001D01*
Y176600D01*
X47501Y177099D01*
X48500D01*
X49000Y176600D01*
Y175100D01*
Y176100D02*
X50000Y177099D01*
X47001Y180098D02*
Y178099D01*
X48500D01*
X48001Y179099D01*
Y179599D01*
X48500Y180098D01*
X49500D01*
X50000Y179599D01*
Y178599D01*
X49500Y178099D01*
Y181098D02*
X50000Y181598D01*
Y182598D01*
X49500Y183097D01*
X47501D01*
X47001Y182598D01*
Y181598D01*
X47501Y181098D01*
X48001D01*
X48500Y181598D01*
Y183097D01*
X125000Y54400D02*
Y57399D01*
X126499D01*
X126999Y56899D01*
Y55900D01*
X126499Y55400D01*
X125000D01*
X126000D02*
X126999Y54400D01*
X127999D02*
X128999D01*
X128499D01*
Y57399D01*
X127999Y56899D01*
X130498D02*
X130998Y57399D01*
X131998D01*
X132498Y56899D01*
Y54900D01*
X131998Y54400D01*
X130998D01*
X130498Y54900D01*
Y56899D01*
X134997Y54400D02*
Y57399D01*
X133497Y55900D01*
X135497D01*
X124800Y47200D02*
Y50199D01*
X126300D01*
X126799Y49699D01*
Y48700D01*
X126300Y48200D01*
X124800D01*
X125800D02*
X126799Y47200D01*
X127799D02*
X128799D01*
X128299D01*
Y50199D01*
X127799Y49699D01*
X130298D02*
X130798Y50199D01*
X131798D01*
X132298Y49699D01*
Y47700D01*
X131798Y47200D01*
X130798D01*
X130298Y47700D01*
Y49699D01*
X133297Y47700D02*
X133797Y47200D01*
X134797D01*
X135297Y47700D01*
Y49699D01*
X134797Y50199D01*
X133797D01*
X133297Y49699D01*
Y49199D01*
X133797Y48700D01*
X135297D01*
X65000Y141400D02*
X62001D01*
Y142900D01*
X62501Y143399D01*
X63500D01*
X64000Y142900D01*
Y141400D01*
Y142400D02*
X65000Y143399D01*
X62001Y144399D02*
Y146398D01*
X62501D01*
X64500Y144399D01*
X65000D01*
X62501Y147398D02*
X62001Y147898D01*
Y148898D01*
X62501Y149397D01*
X63001D01*
X63500Y148898D01*
Y148398D01*
Y148898D01*
X64000Y149397D01*
X64500D01*
X65000Y148898D01*
Y147898D01*
X64500Y147398D01*
X40100Y138900D02*
X37101D01*
Y140400D01*
X37601Y140899D01*
X38601D01*
X39100Y140400D01*
Y138900D01*
Y139900D02*
X40100Y140899D01*
X37101Y143898D02*
X37601Y142899D01*
X38601Y141899D01*
X39600D01*
X40100Y142399D01*
Y143399D01*
X39600Y143898D01*
X39100D01*
X38601Y143399D01*
Y141899D01*
X39600Y144898D02*
X40100Y145398D01*
Y146398D01*
X39600Y146897D01*
X37601D01*
X37101Y146398D01*
Y145398D01*
X37601Y144898D01*
X38101D01*
X38601Y145398D01*
Y146897D01*
X158800Y62100D02*
Y65099D01*
X160300D01*
X160799Y64599D01*
Y63599D01*
X160300Y63100D01*
X158800D01*
X159800D02*
X160799Y62100D01*
X161799D02*
X162799D01*
X162299D01*
Y65099D01*
X161799Y64599D01*
X164298D02*
X164798Y65099D01*
X165798D01*
X166298Y64599D01*
Y62600D01*
X165798Y62100D01*
X164798D01*
X164298Y62600D01*
Y64599D01*
X167297D02*
X167797Y65099D01*
X168797D01*
X169297Y64599D01*
Y62600D01*
X168797Y62100D01*
X167797D01*
X167297Y62600D01*
Y64599D01*
X161700Y36800D02*
Y39799D01*
X163199D01*
X163699Y39299D01*
Y38300D01*
X163199Y37800D01*
X161700D01*
X162700D02*
X163699Y36800D01*
X164699D02*
X165699D01*
X165199D01*
Y39799D01*
X164699Y39299D01*
X167198Y36800D02*
X168198D01*
X167698D01*
Y39799D01*
X167198Y39299D01*
X171197Y36800D02*
Y39799D01*
X169697Y38300D01*
X171697D01*
X57600Y141800D02*
X54601D01*
Y143299D01*
X55101Y143799D01*
X56100D01*
X56600Y143299D01*
Y141800D01*
Y142800D02*
X57600Y143799D01*
X54601Y144799D02*
Y146798D01*
X55101D01*
X57100Y144799D01*
X57600D01*
Y149797D02*
Y147798D01*
X55601Y149797D01*
X55101D01*
X54601Y149298D01*
Y148298D01*
X55101Y147798D01*
X50000Y142300D02*
X47001D01*
Y143799D01*
X47501Y144299D01*
X48500D01*
X49000Y143799D01*
Y142300D01*
Y143300D02*
X50000Y144299D01*
X47001Y145299D02*
Y147298D01*
X47501D01*
X49500Y145299D01*
X50000D01*
Y148298D02*
Y149298D01*
Y148798D01*
X47001D01*
X47501Y148298D01*
X158800Y54700D02*
Y57699D01*
X160300D01*
X160799Y57199D01*
Y56200D01*
X160300Y55700D01*
X158800D01*
X159800D02*
X160799Y54700D01*
X161799D02*
X162799D01*
X162299D01*
Y57699D01*
X161799Y57199D01*
X164298D02*
X164798Y57699D01*
X165798D01*
X166298Y57199D01*
Y55200D01*
X165798Y54700D01*
X164798D01*
X164298Y55200D01*
Y57199D01*
X169297Y57699D02*
X167297D01*
Y56200D01*
X168297Y56699D01*
X168797D01*
X169297Y56200D01*
Y55200D01*
X168797Y54700D01*
X167797D01*
X167297Y55200D01*
X159000Y47100D02*
Y50099D01*
X160500D01*
X160999Y49599D01*
Y48599D01*
X160500Y48100D01*
X159000D01*
X160000D02*
X160999Y47100D01*
X161999D02*
X162999D01*
X162499D01*
Y50099D01*
X161999Y49599D01*
X164498Y47100D02*
X165498D01*
X164998D01*
Y50099D01*
X164498Y49599D01*
X166997D02*
X167497Y50099D01*
X168497D01*
X168997Y49599D01*
Y47600D01*
X168497Y47100D01*
X167497D01*
X166997Y47600D01*
Y49599D01*
X117600Y333500D02*
Y336499D01*
X119099D01*
X119599Y335999D01*
Y334999D01*
X119099Y334500D01*
X117600D01*
X118600D02*
X119599Y333500D01*
X122598D02*
X120599D01*
X122598Y335499D01*
Y335999D01*
X122099Y336499D01*
X121099D01*
X120599Y335999D01*
X80100Y125400D02*
Y128399D01*
X81599D01*
X82099Y127899D01*
Y126900D01*
X81599Y126400D01*
X80100D01*
X81100D02*
X82099Y125400D01*
X83099Y128399D02*
X85098D01*
Y127899D01*
X83099Y125900D01*
Y125400D01*
X88097Y128399D02*
X86098D01*
Y126900D01*
X87098Y127399D01*
X87598D01*
X88097Y126900D01*
Y125900D01*
X87598Y125400D01*
X86598D01*
X86098Y125900D01*
X210900Y75900D02*
Y78899D01*
X212400D01*
X212899Y78399D01*
Y77399D01*
X212400Y76900D01*
X210900D01*
X211900D02*
X212899Y75900D01*
X213899Y76400D02*
X214399Y75900D01*
X215399D01*
X215898Y76400D01*
Y78399D01*
X215399Y78899D01*
X214399D01*
X213899Y78399D01*
Y77899D01*
X214399Y77399D01*
X215898D01*
X216898Y78399D02*
X217398Y78899D01*
X218398D01*
X218897Y78399D01*
Y77899D01*
X218398Y77399D01*
X217898D01*
X218398D01*
X218897Y76900D01*
Y76400D01*
X218398Y75900D01*
X217398D01*
X216898Y76400D01*
X181699Y84999D02*
X181200Y85499D01*
X180200D01*
X179700Y84999D01*
Y83000D01*
X180200Y82500D01*
X181200D01*
X181699Y83000D01*
X182699Y84999D02*
X183199Y85499D01*
X184199D01*
X184698Y84999D01*
Y84499D01*
X184199Y84000D01*
X183699D01*
X184199D01*
X184698Y83500D01*
Y83000D01*
X184199Y82500D01*
X183199D01*
X182699Y83000D01*
X185698Y82500D02*
X186698D01*
X186198D01*
Y85499D01*
X185698Y84999D01*
X189700Y316100D02*
Y319099D01*
X191200D01*
X191699Y318599D01*
Y317600D01*
X191200Y317100D01*
X189700D01*
X190700D02*
X191699Y316100D01*
X192699D02*
X193699D01*
X193199D01*
Y319099D01*
X192699Y318599D01*
X197198Y319099D02*
X195198D01*
Y317600D01*
X196198Y318099D01*
X196698D01*
X197198Y317600D01*
Y316600D01*
X196698Y316100D01*
X195698D01*
X195198Y316600D01*
X58000Y208800D02*
X55001D01*
Y210299D01*
X55501Y210799D01*
X56501D01*
X57000Y210299D01*
Y208800D01*
Y209800D02*
X58000Y210799D01*
X55001Y213798D02*
Y211799D01*
X56501D01*
X56001Y212799D01*
Y213299D01*
X56501Y213798D01*
X57500D01*
X58000Y213299D01*
Y212299D01*
X57500Y211799D01*
X55501Y214798D02*
X55001Y215298D01*
Y216298D01*
X55501Y216797D01*
X56001D01*
X56501Y216298D01*
Y215798D01*
Y216298D01*
X57000Y216797D01*
X57500D01*
X58000Y216298D01*
Y215298D01*
X57500Y214798D01*
X57400Y242100D02*
X54401D01*
Y243600D01*
X54901Y244099D01*
X55901D01*
X56400Y243600D01*
Y242100D01*
Y243100D02*
X57400Y244099D01*
Y246599D02*
X54401D01*
X55901Y245099D01*
Y247098D01*
X57400Y250097D02*
Y248098D01*
X55401Y250097D01*
X54901D01*
X54401Y249598D01*
Y248598D01*
X54901Y248098D01*
X55800Y277000D02*
X52801D01*
Y278500D01*
X53301Y278999D01*
X54300D01*
X54800Y278500D01*
Y277000D01*
Y278000D02*
X55800Y278999D01*
X53301Y279999D02*
X52801Y280499D01*
Y281499D01*
X53301Y281998D01*
X53801D01*
X54300Y281499D01*
Y280999D01*
Y281499D01*
X54800Y281998D01*
X55300D01*
X55800Y281499D01*
Y280499D01*
X55300Y279999D01*
X55800Y284997D02*
Y282998D01*
X53801Y284997D01*
X53301D01*
X52801Y284498D01*
Y283498D01*
X53301Y282998D01*
X55800Y312100D02*
X52801D01*
Y313599D01*
X53301Y314099D01*
X54300D01*
X54800Y313599D01*
Y312100D01*
Y313100D02*
X55800Y314099D01*
Y317098D02*
Y315099D01*
X53801Y317098D01*
X53301D01*
X52801Y316599D01*
Y315599D01*
X53301Y315099D01*
Y318098D02*
X52801Y318598D01*
Y319598D01*
X53301Y320097D01*
X55300D01*
X55800Y319598D01*
Y318598D01*
X55300Y318098D01*
X53301D01*
X81900Y318400D02*
Y321399D01*
X83399D01*
X83899Y320899D01*
Y319900D01*
X83399Y319400D01*
X81900D01*
X82900D02*
X83899Y318400D01*
X86898Y321399D02*
X85899Y320899D01*
X84899Y319900D01*
Y318900D01*
X85399Y318400D01*
X86399D01*
X86898Y318900D01*
Y319400D01*
X86399Y319900D01*
X84899D01*
X119600Y318100D02*
Y321099D01*
X121099D01*
X121599Y320599D01*
Y319600D01*
X121099Y319100D01*
X119600D01*
X120600D02*
X121599Y318100D01*
X122599D02*
X123599D01*
X123099D01*
Y321099D01*
X122599Y320599D01*
X125098Y318100D02*
X126098D01*
X125598D01*
Y321099D01*
X125098Y320599D01*
X154300Y324000D02*
Y326999D01*
X155799D01*
X156299Y326499D01*
Y325500D01*
X155799Y325000D01*
X154300D01*
X155300D02*
X156299Y324000D01*
X157299Y326499D02*
X157799Y326999D01*
X158799D01*
X159298Y326499D01*
Y325999D01*
X158799Y325500D01*
X159298Y325000D01*
Y324500D01*
X158799Y324000D01*
X157799D01*
X157299Y324500D01*
Y325000D01*
X157799Y325500D01*
X157299Y325999D01*
Y326499D01*
X157799Y325500D02*
X158799D01*
X190100Y324000D02*
Y326999D01*
X191600D01*
X192099Y326499D01*
Y325500D01*
X191600Y325000D01*
X190100D01*
X191100D02*
X192099Y324000D01*
X193099Y324500D02*
X193599Y324000D01*
X194599D01*
X195098Y324500D01*
Y326499D01*
X194599Y326999D01*
X193599D01*
X193099Y326499D01*
Y325999D01*
X193599Y325500D01*
X195098D01*
X50400Y208600D02*
X47401D01*
Y210100D01*
X47901Y210599D01*
X48900D01*
X49400Y210100D01*
Y208600D01*
Y209600D02*
X50400Y210599D01*
X47401Y213598D02*
Y211599D01*
X48900D01*
X48401Y212599D01*
Y213099D01*
X48900Y213598D01*
X49900D01*
X50400Y213099D01*
Y212099D01*
X49900Y211599D01*
X50400Y216597D02*
Y214598D01*
X48401Y216597D01*
X47901D01*
X47401Y216098D01*
Y215098D01*
X47901Y214598D01*
X49800Y242000D02*
X46801D01*
Y243499D01*
X47301Y243999D01*
X48300D01*
X48800Y243499D01*
Y242000D01*
Y243000D02*
X49800Y243999D01*
X47301Y244999D02*
X46801Y245499D01*
Y246498D01*
X47301Y246998D01*
X47801D01*
X48300Y246498D01*
Y245999D01*
Y246498D01*
X48800Y246998D01*
X49300D01*
X49800Y246498D01*
Y245499D01*
X49300Y244999D01*
X46801Y247998D02*
Y249997D01*
X47301D01*
X49300Y247998D01*
X49800D01*
X49300Y276600D02*
X46301D01*
Y278099D01*
X46801Y278599D01*
X47800D01*
X48300Y278099D01*
Y276600D01*
Y277600D02*
X49300Y278599D01*
X46801Y279599D02*
X46301Y280099D01*
Y281099D01*
X46801Y281598D01*
X47301D01*
X47800Y281099D01*
Y280599D01*
Y281099D01*
X48300Y281598D01*
X48800D01*
X49300Y281099D01*
Y280099D01*
X48800Y279599D01*
X46801Y282598D02*
X46301Y283098D01*
Y284098D01*
X46801Y284597D01*
X48800D01*
X49300Y284098D01*
Y283098D01*
X48800Y282598D01*
X46801D01*
X49300Y312400D02*
X46301D01*
Y313899D01*
X46801Y314399D01*
X47800D01*
X48300Y313899D01*
Y312400D01*
Y313400D02*
X49300Y314399D01*
Y315399D02*
Y316399D01*
Y315899D01*
X46301D01*
X46801Y315399D01*
X46301Y317898D02*
Y319898D01*
X46801D01*
X48800Y317898D01*
X49300D01*
X81400Y324900D02*
Y327899D01*
X82899D01*
X83399Y327399D01*
Y326399D01*
X82899Y325900D01*
X81400D01*
X82400D02*
X83399Y324900D01*
X86398Y327899D02*
X84399D01*
Y326399D01*
X85399Y326899D01*
X85899D01*
X86398Y326399D01*
Y325400D01*
X85899Y324900D01*
X84899D01*
X84399Y325400D01*
X119700Y324700D02*
Y327699D01*
X121200D01*
X121699Y327199D01*
Y326200D01*
X121200Y325700D01*
X119700D01*
X120700D02*
X121699Y324700D01*
X122699Y327699D02*
X124698D01*
Y327199D01*
X122699Y325200D01*
Y324700D01*
X78900Y193700D02*
Y196699D01*
X80400D01*
X80899Y196199D01*
Y195200D01*
X80400Y194700D01*
X78900D01*
X79900D02*
X80899Y193700D01*
X83898Y196699D02*
X81899D01*
Y195200D01*
X82899Y195699D01*
X83399D01*
X83898Y195200D01*
Y194200D01*
X83399Y193700D01*
X82399D01*
X81899Y194200D01*
X86398Y193700D02*
Y196699D01*
X84898Y195200D01*
X86897D01*
X166600Y281800D02*
X163601D01*
Y283299D01*
X164101Y283799D01*
X165101D01*
X165600Y283299D01*
Y281800D01*
Y282800D02*
X166600Y283799D01*
Y286798D02*
Y284799D01*
X164601Y286798D01*
X164101D01*
X163601Y286298D01*
Y285299D01*
X164101Y284799D01*
Y287798D02*
X163601Y288298D01*
Y289298D01*
X164101Y289797D01*
X164601D01*
X165101Y289298D01*
X165600Y289797D01*
X166100D01*
X166600Y289298D01*
Y288298D01*
X166100Y287798D01*
X165600D01*
X165101Y288298D01*
X164601Y287798D01*
X164101D01*
X165101Y288298D02*
Y289298D01*
X92101Y196099D02*
X91601Y195599D01*
Y194600D01*
X92101Y194100D01*
X94100D01*
X94600Y194600D01*
Y195599D01*
X94100Y196099D01*
X94600Y197099D02*
Y198099D01*
Y197599D01*
X91601D01*
X92101Y197099D01*
X94600Y201598D02*
Y199598D01*
X92601Y201598D01*
X92101D01*
X91601Y201098D01*
Y200098D01*
X92101Y199598D01*
X160299Y277299D02*
X159800Y277799D01*
X158800D01*
X158300Y277299D01*
Y275300D01*
X158800Y274800D01*
X159800D01*
X160299Y275300D01*
X163298Y277799D02*
X162299Y277299D01*
X161299Y276300D01*
Y275300D01*
X161799Y274800D01*
X162799D01*
X163298Y275300D01*
Y275800D01*
X162799Y276300D01*
X161299D01*
X78800Y200200D02*
Y203199D01*
X80300D01*
X80799Y202699D01*
Y201699D01*
X80300Y201200D01*
X78800D01*
X79800D02*
X80799Y200200D01*
X83798Y203199D02*
X81799D01*
Y201699D01*
X82799Y202199D01*
X83299D01*
X83798Y201699D01*
Y200700D01*
X83299Y200200D01*
X82299D01*
X81799Y200700D01*
X84798Y202699D02*
X85298Y203199D01*
X86298D01*
X86797Y202699D01*
Y200700D01*
X86298Y200200D01*
X85298D01*
X84798Y200700D01*
Y202699D01*
X159500Y282800D02*
X156501D01*
Y284299D01*
X157001Y284799D01*
X158001D01*
X158500Y284299D01*
Y282800D01*
Y283800D02*
X159500Y284799D01*
Y287798D02*
Y285799D01*
X157501Y287798D01*
X157001D01*
X156501Y287298D01*
Y286299D01*
X157001Y285799D01*
X156501Y290797D02*
X157001Y289798D01*
X158001Y288798D01*
X159000D01*
X159500Y289298D01*
Y290298D01*
X159000Y290797D01*
X158500D01*
X158001Y290298D01*
Y288798D01*
X78300Y207200D02*
Y210199D01*
X79799D01*
X80299Y209699D01*
Y208699D01*
X79799Y208200D01*
X78300D01*
X79300D02*
X80299Y207200D01*
X83298Y210199D02*
X81299D01*
Y208699D01*
X82299Y209199D01*
X82799D01*
X83298Y208699D01*
Y207700D01*
X82799Y207200D01*
X81799D01*
X81299Y207700D01*
X84298Y207200D02*
X85298D01*
X84798D01*
Y210199D01*
X84298Y209699D01*
X151000Y282300D02*
X148001D01*
Y283800D01*
X148501Y284299D01*
X149501D01*
X150000Y283800D01*
Y282300D01*
Y283300D02*
X151000Y284299D01*
Y287298D02*
Y285299D01*
X149001Y287298D01*
X148501D01*
X148001Y286799D01*
Y285799D01*
X148501Y285299D01*
X148001Y288298D02*
Y290297D01*
X148501D01*
X150500Y288298D01*
X151000D01*
X92001Y209899D02*
X91501Y209400D01*
Y208400D01*
X92001Y207900D01*
X94000D01*
X94500Y208400D01*
Y209400D01*
X94000Y209899D01*
X94500Y210899D02*
Y211899D01*
Y211399D01*
X91501D01*
X92001Y210899D01*
Y213398D02*
X91501Y213898D01*
Y214898D01*
X92001Y215398D01*
X94000D01*
X94500Y214898D01*
Y213898D01*
X94000Y213398D01*
X92001D01*
X144799Y277099D02*
X144299Y277599D01*
X143300D01*
X142800Y277099D01*
Y275100D01*
X143300Y274600D01*
X144299D01*
X144799Y275100D01*
X147798Y277599D02*
X145799D01*
Y276099D01*
X146799Y276599D01*
X147299D01*
X147798Y276099D01*
Y275100D01*
X147299Y274600D01*
X146299D01*
X145799Y275100D01*
X78600Y213900D02*
Y216899D01*
X80099D01*
X80599Y216399D01*
Y215400D01*
X80099Y214900D01*
X78600D01*
X79600D02*
X80599Y213900D01*
X83099D02*
Y216899D01*
X81599Y215400D01*
X83598D01*
X86597Y216899D02*
X85598Y216399D01*
X84598Y215400D01*
Y214400D01*
X85098Y213900D01*
X86098D01*
X86597Y214400D01*
Y214900D01*
X86098Y215400D01*
X84598D01*
X78500Y220100D02*
Y223099D01*
X80000D01*
X80499Y222599D01*
Y221600D01*
X80000Y221100D01*
X78500D01*
X79500D02*
X80499Y220100D01*
X82999D02*
Y223099D01*
X81499Y221600D01*
X83498D01*
X84498Y222599D02*
X84998Y223099D01*
X85998D01*
X86497Y222599D01*
Y222099D01*
X85998Y221600D01*
X85498D01*
X85998D01*
X86497Y221100D01*
Y220600D01*
X85998Y220100D01*
X84998D01*
X84498Y220600D01*
X136800Y282900D02*
X133801D01*
Y284400D01*
X134301Y284899D01*
X135301D01*
X135800Y284400D01*
Y282900D01*
Y283900D02*
X136800Y284899D01*
Y287898D02*
Y285899D01*
X134801Y287898D01*
X134301D01*
X133801Y287399D01*
Y286399D01*
X134301Y285899D01*
X133801Y290897D02*
Y288898D01*
X135301D01*
X134801Y289898D01*
Y290398D01*
X135301Y290897D01*
X136300D01*
X136800Y290398D01*
Y289398D01*
X136300Y288898D01*
X92101Y224099D02*
X91601Y223600D01*
Y222600D01*
X92101Y222100D01*
X94100D01*
X94600Y222600D01*
Y223600D01*
X94100Y224099D01*
X92101Y225099D02*
X91601Y225599D01*
Y226599D01*
X92101Y227098D01*
X92601D01*
X93101Y226599D01*
X93600Y227098D01*
X94100D01*
X94600Y226599D01*
Y225599D01*
X94100Y225099D01*
X93600D01*
X93101Y225599D01*
X92601Y225099D01*
X92101D01*
X93101Y225599D02*
Y226599D01*
X131799Y276799D02*
X131299Y277299D01*
X130300D01*
X129800Y276799D01*
Y274800D01*
X130300Y274300D01*
X131299D01*
X131799Y274800D01*
X134299Y274300D02*
Y277299D01*
X132799Y275799D01*
X134798D01*
X78600Y227400D02*
Y230399D01*
X80099D01*
X80599Y229899D01*
Y228900D01*
X80099Y228400D01*
X78600D01*
X79600D02*
X80599Y227400D01*
X83099D02*
Y230399D01*
X81599Y228900D01*
X83598D01*
X86098Y227400D02*
Y230399D01*
X84598Y228900D01*
X86597D01*
X129600Y282400D02*
X126601D01*
Y283899D01*
X127101Y284399D01*
X128101D01*
X128600Y283899D01*
Y282400D01*
Y283400D02*
X129600Y284399D01*
Y287398D02*
Y285399D01*
X127601Y287398D01*
X127101D01*
X126601Y286898D01*
Y285899D01*
X127101Y285399D01*
Y288398D02*
X126601Y288898D01*
Y289898D01*
X127101Y290397D01*
X127601D01*
X128101Y289898D01*
Y289398D01*
Y289898D01*
X128600Y290397D01*
X129100D01*
X129600Y289898D01*
Y288898D01*
X129100Y288398D01*
X78400Y234000D02*
Y236999D01*
X79900D01*
X80399Y236499D01*
Y235500D01*
X79900Y235000D01*
X78400D01*
X79400D02*
X80399Y234000D01*
X81399Y236499D02*
X81899Y236999D01*
X82899D01*
X83398Y236499D01*
Y235999D01*
X82899Y235500D01*
X82399D01*
X82899D01*
X83398Y235000D01*
Y234500D01*
X82899Y234000D01*
X81899D01*
X81399Y234500D01*
X84398D02*
X84898Y234000D01*
X85898D01*
X86397Y234500D01*
Y236499D01*
X85898Y236999D01*
X84898D01*
X84398Y236499D01*
Y235999D01*
X84898Y235500D01*
X86397D01*
X122100Y282200D02*
X119101D01*
Y283699D01*
X119601Y284199D01*
X120600D01*
X121100Y283699D01*
Y282200D01*
Y283200D02*
X122100Y284199D01*
Y287198D02*
Y285199D01*
X120101Y287198D01*
X119601D01*
X119101Y286699D01*
Y285699D01*
X119601Y285199D01*
X122100Y290197D02*
Y288198D01*
X120101Y290197D01*
X119601D01*
X119101Y289698D01*
Y288698D01*
X119601Y288198D01*
X92101Y238199D02*
X91601Y237700D01*
Y236700D01*
X92101Y236200D01*
X94100D01*
X94600Y236700D01*
Y237700D01*
X94100Y238199D01*
X91601Y239199D02*
Y241198D01*
X92101D01*
X94100Y239199D01*
X94600D01*
X116399Y276599D02*
X115900Y277099D01*
X114900D01*
X114400Y276599D01*
Y274600D01*
X114900Y274100D01*
X115900D01*
X116399Y274600D01*
X117399Y276599D02*
X117899Y277099D01*
X118899D01*
X119398Y276599D01*
Y276099D01*
X118899Y275600D01*
X118399D01*
X118899D01*
X119398Y275100D01*
Y274600D01*
X118899Y274100D01*
X117899D01*
X117399Y274600D01*
X78500Y240600D02*
Y243599D01*
X80000D01*
X80499Y243099D01*
Y242099D01*
X80000Y241600D01*
X78500D01*
X79500D02*
X80499Y240600D01*
X81499Y243099D02*
X81999Y243599D01*
X82999D01*
X83498Y243099D01*
Y242599D01*
X82999Y242099D01*
X82499D01*
X82999D01*
X83498Y241600D01*
Y241100D01*
X82999Y240600D01*
X81999D01*
X81499Y241100D01*
X84498Y243099D02*
X84998Y243599D01*
X85998D01*
X86497Y243099D01*
Y242599D01*
X85998Y242099D01*
X85498D01*
X85998D01*
X86497Y241600D01*
Y241100D01*
X85998Y240600D01*
X84998D01*
X84498Y241100D01*
X115500Y282200D02*
X112501D01*
Y283699D01*
X113001Y284199D01*
X114000D01*
X114500Y283699D01*
Y282200D01*
Y283200D02*
X115500Y284199D01*
Y287198D02*
Y285199D01*
X113501Y287198D01*
X113001D01*
X112501Y286699D01*
Y285699D01*
X113001Y285199D01*
X115500Y288198D02*
Y289198D01*
Y288698D01*
X112501D01*
X113001Y288198D01*
X80200Y118600D02*
Y121599D01*
X81700D01*
X82199Y121099D01*
Y120099D01*
X81700Y119600D01*
X80200D01*
X81200D02*
X82199Y118600D01*
X83199Y121599D02*
X85198D01*
Y121099D01*
X83199Y119100D01*
Y118600D01*
X87698D02*
Y121599D01*
X86198Y120099D01*
X88197D01*
X80400Y132500D02*
Y135499D01*
X81899D01*
X82399Y134999D01*
Y134000D01*
X81899Y133500D01*
X80400D01*
X81400D02*
X82399Y132500D01*
X83399Y135499D02*
X85398D01*
Y134999D01*
X83399Y133000D01*
Y132500D01*
X86398Y134999D02*
X86898Y135499D01*
X87898D01*
X88397Y134999D01*
Y133000D01*
X87898Y132500D01*
X86898D01*
X86398Y133000D01*
Y134999D01*
X80100Y146000D02*
Y148999D01*
X81599D01*
X82099Y148499D01*
Y147500D01*
X81599Y147000D01*
X80100D01*
X81100D02*
X82099Y146000D01*
X85098Y148999D02*
X84099Y148499D01*
X83099Y147500D01*
Y146500D01*
X83599Y146000D01*
X84599D01*
X85098Y146500D01*
Y147000D01*
X84599Y147500D01*
X83099D01*
X88097Y148999D02*
X87098Y148499D01*
X86098Y147500D01*
Y146500D01*
X86598Y146000D01*
X87598D01*
X88097Y146500D01*
Y147000D01*
X87598Y147500D01*
X86098D01*
X80000Y159400D02*
Y162399D01*
X81499D01*
X81999Y161899D01*
Y160899D01*
X81499Y160400D01*
X80000D01*
X81000D02*
X81999Y159400D01*
X84998Y162399D02*
X83999Y161899D01*
X82999Y160899D01*
Y159900D01*
X83499Y159400D01*
X84499D01*
X84998Y159900D01*
Y160400D01*
X84499Y160899D01*
X82999D01*
X85998Y161899D02*
X86498Y162399D01*
X87498D01*
X87997Y161899D01*
Y161399D01*
X87498Y160899D01*
X86998D01*
X87498D01*
X87997Y160400D01*
Y159900D01*
X87498Y159400D01*
X86498D01*
X85998Y159900D01*
X80300Y139500D02*
Y142499D01*
X81800D01*
X82299Y141999D01*
Y140999D01*
X81800Y140500D01*
X80300D01*
X81300D02*
X82299Y139500D01*
X85298Y142499D02*
X84299Y141999D01*
X83299Y140999D01*
Y140000D01*
X83799Y139500D01*
X84799D01*
X85298Y140000D01*
Y140500D01*
X84799Y140999D01*
X83299D01*
X88297Y142499D02*
X86298D01*
Y140999D01*
X87298Y141499D01*
X87798D01*
X88297Y140999D01*
Y140000D01*
X87798Y139500D01*
X86798D01*
X86298Y140000D01*
X80300Y152600D02*
Y155599D01*
X81800D01*
X82299Y155099D01*
Y154100D01*
X81800Y153600D01*
X80300D01*
X81300D02*
X82299Y152600D01*
X85298Y155599D02*
X84299Y155099D01*
X83299Y154100D01*
Y153100D01*
X83799Y152600D01*
X84799D01*
X85298Y153100D01*
Y153600D01*
X84799Y154100D01*
X83299D01*
X87798Y152600D02*
Y155599D01*
X86298Y154100D01*
X88297D01*
X105700Y75500D02*
X102701D01*
Y76999D01*
X103201Y77499D01*
X104200D01*
X104700Y76999D01*
Y75500D01*
Y76500D02*
X105700Y77499D01*
X103201Y78499D02*
X102701Y78999D01*
Y79999D01*
X103201Y80498D01*
X103701D01*
X104200Y79999D01*
X104700Y80498D01*
X105200D01*
X105700Y79999D01*
Y78999D01*
X105200Y78499D01*
X104700D01*
X104200Y78999D01*
X103701Y78499D01*
X103201D01*
X104200Y78999D02*
Y79999D01*
X102701Y83497D02*
Y81498D01*
X104200D01*
X103701Y82498D01*
Y82998D01*
X104200Y83497D01*
X105200D01*
X105700Y82998D01*
Y81998D01*
X105200Y81498D01*
X120000Y76000D02*
X117001D01*
Y77500D01*
X117501Y77999D01*
X118500D01*
X119000Y77500D01*
Y76000D01*
Y77000D02*
X120000Y77999D01*
X117501Y78999D02*
X117001Y79499D01*
Y80499D01*
X117501Y80998D01*
X118001D01*
X118500Y80499D01*
X119000Y80998D01*
X119500D01*
X120000Y80499D01*
Y79499D01*
X119500Y78999D01*
X119000D01*
X118500Y79499D01*
X118001Y78999D01*
X117501D01*
X118500Y79499D02*
Y80499D01*
X117001Y81998D02*
Y83997D01*
X117501D01*
X119500Y81998D01*
X120000D01*
X113000Y75500D02*
X110001D01*
Y76999D01*
X110501Y77499D01*
X111501D01*
X112000Y76999D01*
Y75500D01*
Y76500D02*
X113000Y77499D01*
X110501Y78499D02*
X110001Y78999D01*
Y79999D01*
X110501Y80498D01*
X111001D01*
X111501Y79999D01*
X112000Y80498D01*
X112500D01*
X113000Y79999D01*
Y78999D01*
X112500Y78499D01*
X112000D01*
X111501Y78999D01*
X111001Y78499D01*
X110501D01*
X111501Y78999D02*
Y79999D01*
X113000Y82998D02*
X110001D01*
X111501Y81498D01*
Y83497D01*
X134500Y76000D02*
X131501D01*
Y77500D01*
X132001Y77999D01*
X133001D01*
X133500Y77500D01*
Y76000D01*
Y77000D02*
X134500Y77999D01*
X132001Y78999D02*
X131501Y79499D01*
Y80499D01*
X132001Y80998D01*
X132501D01*
X133001Y80499D01*
X133500Y80998D01*
X134000D01*
X134500Y80499D01*
Y79499D01*
X134000Y78999D01*
X133500D01*
X133001Y79499D01*
X132501Y78999D01*
X132001D01*
X133001Y79499D02*
Y80499D01*
X134000Y81998D02*
X134500Y82498D01*
Y83498D01*
X134000Y83997D01*
X132001D01*
X131501Y83498D01*
Y82498D01*
X132001Y81998D01*
X132501D01*
X133001Y82498D01*
Y83997D01*
X127000Y76000D02*
X124001D01*
Y77500D01*
X124501Y77999D01*
X125501D01*
X126000Y77500D01*
Y76000D01*
Y77000D02*
X127000Y77999D01*
X124501Y78999D02*
X124001Y79499D01*
Y80499D01*
X124501Y80998D01*
X125001D01*
X125501Y80499D01*
X126000Y80998D01*
X126500D01*
X127000Y80499D01*
Y79499D01*
X126500Y78999D01*
X126000D01*
X125501Y79499D01*
X125001Y78999D01*
X124501D01*
X125501Y79499D02*
Y80499D01*
X124001Y83997D02*
X124501Y82998D01*
X125501Y81998D01*
X126500D01*
X127000Y82498D01*
Y83498D01*
X126500Y83997D01*
X126000D01*
X125501Y83498D01*
Y81998D01*
X148700Y76600D02*
X145701D01*
Y78100D01*
X146201Y78599D01*
X147201D01*
X147700Y78100D01*
Y76600D01*
Y77600D02*
X148700Y78599D01*
X148200Y79599D02*
X148700Y80099D01*
Y81099D01*
X148200Y81598D01*
X146201D01*
X145701Y81099D01*
Y80099D01*
X146201Y79599D01*
X146701D01*
X147201Y80099D01*
Y81598D01*
X148700Y82598D02*
Y83598D01*
Y83098D01*
X145701D01*
X146201Y82598D01*
X141600Y76000D02*
X138601D01*
Y77500D01*
X139101Y77999D01*
X140101D01*
X140600Y77500D01*
Y76000D01*
Y77000D02*
X141600Y77999D01*
X139101Y78999D02*
X138601Y79499D01*
Y80499D01*
X139101Y80998D01*
X139601D01*
X140101Y80499D01*
X140600Y80998D01*
X141100D01*
X141600Y80499D01*
Y79499D01*
X141100Y78999D01*
X140600D01*
X140101Y79499D01*
X139601Y78999D01*
X139101D01*
X140101Y79499D02*
Y80499D01*
X139101Y81998D02*
X138601Y82498D01*
Y83498D01*
X139101Y83997D01*
X139601D01*
X140101Y83498D01*
X140600Y83997D01*
X141100D01*
X141600Y83498D01*
Y82498D01*
X141100Y81998D01*
X140600D01*
X140101Y82498D01*
X139601Y81998D01*
X139101D01*
X140101Y82498D02*
Y83498D01*
X156000Y76000D02*
X153001D01*
Y77500D01*
X153501Y77999D01*
X154500D01*
X155000Y77500D01*
Y76000D01*
Y77000D02*
X156000Y77999D01*
X155500Y78999D02*
X156000Y79499D01*
Y80499D01*
X155500Y80998D01*
X153501D01*
X153001Y80499D01*
Y79499D01*
X153501Y78999D01*
X154001D01*
X154500Y79499D01*
Y80998D01*
X153501Y81998D02*
X153001Y82498D01*
Y83498D01*
X153501Y83997D01*
X155500D01*
X156000Y83498D01*
Y82498D01*
X155500Y81998D01*
X153501D01*
X93901Y121699D02*
X93401Y121200D01*
Y120200D01*
X93901Y119700D01*
X95900D01*
X96400Y120200D01*
Y121200D01*
X95900Y121699D01*
X96400Y124698D02*
Y122699D01*
X94401Y124698D01*
X93901D01*
X93401Y124199D01*
Y123199D01*
X93901Y122699D01*
X96400Y127697D02*
Y125698D01*
X94401Y127697D01*
X93901D01*
X93401Y127198D01*
Y126198D01*
X93901Y125698D01*
Y135499D02*
X93401Y135000D01*
Y134000D01*
X93901Y133500D01*
X95900D01*
X96400Y134000D01*
Y135000D01*
X95900Y135499D01*
X96400Y138498D02*
Y136499D01*
X94401Y138498D01*
X93901D01*
X93401Y137999D01*
Y136999D01*
X93901Y136499D01*
Y139498D02*
X93401Y139998D01*
Y140998D01*
X93901Y141497D01*
X95900D01*
X96400Y140998D01*
Y139998D01*
X95900Y139498D01*
X93901D01*
X94001Y149099D02*
X93501Y148600D01*
Y147600D01*
X94001Y147100D01*
X96000D01*
X96500Y147600D01*
Y148600D01*
X96000Y149099D01*
X96500Y150099D02*
Y151099D01*
Y150599D01*
X93501D01*
X94001Y150099D01*
X93501Y152598D02*
Y154598D01*
X94001D01*
X96000Y152598D01*
X96500D01*
X94001Y162199D02*
X93501Y161699D01*
Y160700D01*
X94001Y160200D01*
X96000D01*
X96500Y160700D01*
Y161699D01*
X96000Y162199D01*
X96500Y163199D02*
Y164199D01*
Y163699D01*
X93501D01*
X94001Y163199D01*
X96500Y167198D02*
X93501D01*
X95000Y165698D01*
Y167698D01*
X106699Y91499D02*
X106200Y91999D01*
X105200D01*
X104700Y91499D01*
Y89500D01*
X105200Y89000D01*
X106200D01*
X106699Y89500D01*
X109698Y89000D02*
X107699D01*
X109698Y90999D01*
Y91499D01*
X109199Y91999D01*
X108199D01*
X107699Y91499D01*
X112697Y91999D02*
X111698Y91499D01*
X110698Y90500D01*
Y89500D01*
X111198Y89000D01*
X112198D01*
X112697Y89500D01*
Y90000D01*
X112198Y90500D01*
X110698D01*
X182600Y172600D02*
Y175599D01*
X184099D01*
X184599Y175099D01*
Y174100D01*
X184099Y173600D01*
X182600D01*
X183600D02*
X184599Y172600D01*
X187598Y175599D02*
X185599D01*
Y174100D01*
X186599Y174599D01*
X187099D01*
X187598Y174100D01*
Y173100D01*
X187099Y172600D01*
X186099D01*
X185599Y173100D01*
X188598Y175099D02*
X189098Y175599D01*
X190098D01*
X190597Y175099D01*
Y174599D01*
X190098Y174100D01*
X190597Y173600D01*
Y173100D01*
X190098Y172600D01*
X189098D01*
X188598Y173100D01*
Y173600D01*
X189098Y174100D01*
X188598Y174599D01*
Y175099D01*
X189098Y174100D02*
X190098D01*
X195999Y136999D02*
X195500Y137499D01*
X194500D01*
X194000Y136999D01*
Y135000D01*
X194500Y134500D01*
X195500D01*
X195999Y135000D01*
X198998Y134500D02*
X196999D01*
X198998Y136499D01*
Y136999D01*
X198499Y137499D01*
X197499D01*
X196999Y136999D01*
X199998Y134500D02*
X200998D01*
X200498D01*
Y137499D01*
X199998Y136999D01*
X177199Y144499D02*
X176699Y144999D01*
X175700D01*
X175200Y144499D01*
Y142500D01*
X175700Y142000D01*
X176699D01*
X177199Y142500D01*
X178199Y142000D02*
X179199D01*
X178699D01*
Y144999D01*
X178199Y144499D01*
X180698Y142500D02*
X181198Y142000D01*
X182198D01*
X182698Y142500D01*
Y144499D01*
X182198Y144999D01*
X181198D01*
X180698Y144499D01*
Y143999D01*
X181198Y143500D01*
X182698D01*
X80100Y166400D02*
Y169399D01*
X81599D01*
X82099Y168899D01*
Y167900D01*
X81599Y167400D01*
X80100D01*
X81100D02*
X82099Y166400D01*
X85098Y169399D02*
X84099Y168899D01*
X83099Y167900D01*
Y166900D01*
X83599Y166400D01*
X84599D01*
X85098Y166900D01*
Y167400D01*
X84599Y167900D01*
X83099D01*
X88097Y166400D02*
X86098D01*
X88097Y168399D01*
Y168899D01*
X87598Y169399D01*
X86598D01*
X86098Y168899D01*
X148399Y91499D02*
X147899Y91999D01*
X146900D01*
X146400Y91499D01*
Y89500D01*
X146900Y89000D01*
X147899D01*
X148399Y89500D01*
X151398Y89000D02*
X149399D01*
X151398Y90999D01*
Y91499D01*
X150899Y91999D01*
X149899D01*
X149399Y91499D01*
X152398Y89500D02*
X152898Y89000D01*
X153898D01*
X154397Y89500D01*
Y91499D01*
X153898Y91999D01*
X152898D01*
X152398Y91499D01*
Y90999D01*
X152898Y90500D01*
X154397D01*
X120199Y91399D02*
X119700Y91899D01*
X118700D01*
X118200Y91399D01*
Y89400D01*
X118700Y88900D01*
X119700D01*
X120199Y89400D01*
X123198Y88900D02*
X121199D01*
X123198Y90899D01*
Y91399D01*
X122699Y91899D01*
X121699D01*
X121199Y91399D01*
X124198Y91899D02*
X126197D01*
Y91399D01*
X124198Y89400D01*
Y88900D01*
X134699Y91499D02*
X134200Y91999D01*
X133200D01*
X132700Y91499D01*
Y89500D01*
X133200Y89000D01*
X134200D01*
X134699Y89500D01*
X137698Y89000D02*
X135699D01*
X137698Y90999D01*
Y91499D01*
X137199Y91999D01*
X136199D01*
X135699Y91499D01*
X138698D02*
X139198Y91999D01*
X140198D01*
X140697Y91499D01*
Y90999D01*
X140198Y90500D01*
X140697Y90000D01*
Y89500D01*
X140198Y89000D01*
X139198D01*
X138698Y89500D01*
Y90000D01*
X139198Y90500D01*
X138698Y90999D01*
Y91499D01*
X139198Y90500D02*
X140198D01*
X40600Y205800D02*
X37601D01*
Y207299D01*
X38101Y207799D01*
X39101D01*
X39600Y207299D01*
Y205800D01*
Y206800D02*
X40600Y207799D01*
Y210298D02*
X37601D01*
X39101Y208799D01*
Y210798D01*
X38101Y211798D02*
X37601Y212298D01*
Y213298D01*
X38101Y213797D01*
X38601D01*
X39101Y213298D01*
X39600Y213797D01*
X40100D01*
X40600Y213298D01*
Y212298D01*
X40100Y211798D01*
X39600D01*
X39101Y212298D01*
X38601Y211798D01*
X38101D01*
X39101Y212298D02*
Y213298D01*
X65400Y208800D02*
X62401D01*
Y210299D01*
X62901Y210799D01*
X63901D01*
X64400Y210299D01*
Y208800D01*
Y209800D02*
X65400Y210799D01*
Y213299D02*
X62401D01*
X63901Y211799D01*
Y213798D01*
X64900Y214798D02*
X65400Y215298D01*
Y216298D01*
X64900Y216797D01*
X62901D01*
X62401Y216298D01*
Y215298D01*
X62901Y214798D01*
X63401D01*
X63901Y215298D01*
Y216797D01*
X152800Y309100D02*
Y312099D01*
X154299D01*
X154799Y311599D01*
Y310599D01*
X154299Y310100D01*
X152800D01*
X153800D02*
X154799Y309100D01*
X155799D02*
X156799D01*
X156299D01*
Y312099D01*
X155799Y311599D01*
X159798Y309100D02*
Y312099D01*
X158298Y310599D01*
X160298D01*
X39900Y240400D02*
X36901D01*
Y241899D01*
X37401Y242399D01*
X38401D01*
X38900Y241899D01*
Y240400D01*
Y241400D02*
X39900Y242399D01*
X37401Y243399D02*
X36901Y243899D01*
Y244899D01*
X37401Y245398D01*
X37901D01*
X38401Y244899D01*
Y244399D01*
Y244899D01*
X38900Y245398D01*
X39400D01*
X39900Y244899D01*
Y243899D01*
X39400Y243399D01*
X36901Y248397D02*
X37401Y247398D01*
X38401Y246398D01*
X39400D01*
X39900Y246898D01*
Y247898D01*
X39400Y248397D01*
X38900D01*
X38401Y247898D01*
Y246398D01*
X64800Y242100D02*
X61801D01*
Y243600D01*
X62301Y244099D01*
X63301D01*
X63800Y243600D01*
Y242100D01*
Y243100D02*
X64800Y244099D01*
X62301Y245099D02*
X61801Y245599D01*
Y246599D01*
X62301Y247098D01*
X62801D01*
X63301Y246599D01*
Y246099D01*
Y246599D01*
X63800Y247098D01*
X64300D01*
X64800Y246599D01*
Y245599D01*
X64300Y245099D01*
X62301Y248098D02*
X61801Y248598D01*
Y249598D01*
X62301Y250097D01*
X62801D01*
X63301Y249598D01*
X63800Y250097D01*
X64300D01*
X64800Y249598D01*
Y248598D01*
X64300Y248098D01*
X63800D01*
X63301Y248598D01*
X62801Y248098D01*
X62301D01*
X63301Y248598D02*
Y249598D01*
X187900Y333900D02*
Y336899D01*
X189400D01*
X189899Y336399D01*
Y335400D01*
X189400Y334900D01*
X187900D01*
X188900D02*
X189899Y333900D01*
X192399D02*
Y336899D01*
X190899Y335400D01*
X192898D01*
X189100Y309100D02*
Y312099D01*
X190600D01*
X191099Y311599D01*
Y310599D01*
X190600Y310100D01*
X189100D01*
X190100D02*
X191099Y309100D01*
X192099D02*
X193099D01*
X192599D01*
Y312099D01*
X192099Y311599D01*
X196598Y312099D02*
X195598Y311599D01*
X194598Y310599D01*
Y309600D01*
X195098Y309100D01*
X196098D01*
X196598Y309600D01*
Y310100D01*
X196098Y310599D01*
X194598D01*
X79600Y334600D02*
Y337599D01*
X81099D01*
X81599Y337099D01*
Y336100D01*
X81099Y335600D01*
X79600D01*
X80600D02*
X81599Y334600D01*
X82599D02*
X83599D01*
X83099D01*
Y337599D01*
X82599Y337099D01*
X80700Y310300D02*
Y313299D01*
X82200D01*
X82699Y312799D01*
Y311800D01*
X82200Y311300D01*
X80700D01*
X81700D02*
X82699Y310300D01*
X83699D02*
X84699D01*
X84199D01*
Y313299D01*
X83699Y312799D01*
X86198D02*
X86698Y313299D01*
X87698D01*
X88198Y312799D01*
Y310800D01*
X87698Y310300D01*
X86698D01*
X86198Y310800D01*
Y312799D01*
X39900Y274400D02*
X36901D01*
Y275900D01*
X37401Y276399D01*
X38401D01*
X38900Y275900D01*
Y274400D01*
Y275400D02*
X39900Y276399D01*
Y279398D02*
Y277399D01*
X37901Y279398D01*
X37401D01*
X36901Y278899D01*
Y277899D01*
X37401Y277399D01*
X39400Y280398D02*
X39900Y280898D01*
Y281898D01*
X39400Y282397D01*
X37401D01*
X36901Y281898D01*
Y280898D01*
X37401Y280398D01*
X37901D01*
X38401Y280898D01*
Y282397D01*
X64000Y277300D02*
X61001D01*
Y278800D01*
X61501Y279299D01*
X62501D01*
X63000Y278800D01*
Y277300D01*
Y278300D02*
X64000Y279299D01*
X61501Y280299D02*
X61001Y280799D01*
Y281799D01*
X61501Y282298D01*
X62001D01*
X62501Y281799D01*
Y281299D01*
Y281799D01*
X63000Y282298D01*
X63500D01*
X64000Y281799D01*
Y280799D01*
X63500Y280299D01*
X64000Y283298D02*
Y284298D01*
Y283798D01*
X61001D01*
X61501Y283298D01*
X118400Y310000D02*
Y312999D01*
X119899D01*
X120399Y312499D01*
Y311500D01*
X119899Y311000D01*
X118400D01*
X119400D02*
X120399Y310000D01*
X121399D02*
X122399D01*
X121899D01*
Y312999D01*
X121399Y312499D01*
X125898Y310000D02*
X123898D01*
X125898Y311999D01*
Y312499D01*
X125398Y312999D01*
X124398D01*
X123898Y312499D01*
X40100Y309200D02*
X37101D01*
Y310700D01*
X37601Y311199D01*
X38601D01*
X39100Y310700D01*
Y309200D01*
Y310200D02*
X40100Y311199D01*
Y312199D02*
Y313199D01*
Y312699D01*
X37101D01*
X37601Y312199D01*
X39600Y314698D02*
X40100Y315198D01*
Y316198D01*
X39600Y316698D01*
X37601D01*
X37101Y316198D01*
Y315198D01*
X37601Y314698D01*
X38101D01*
X38601Y315198D01*
Y316698D01*
X62400Y312300D02*
X59401D01*
Y313800D01*
X59901Y314299D01*
X60900D01*
X61400Y313800D01*
Y312300D01*
Y313300D02*
X62400Y314299D01*
Y315299D02*
Y316299D01*
Y315799D01*
X59401D01*
X59901Y315299D01*
Y317798D02*
X59401Y318298D01*
Y319298D01*
X59901Y319798D01*
X60401D01*
X60900Y319298D01*
X61400Y319798D01*
X61900D01*
X62400Y319298D01*
Y318298D01*
X61900Y317798D01*
X61400D01*
X60900Y318298D01*
X60401Y317798D01*
X59901D01*
X60900Y318298D02*
Y319298D01*
X144000Y282400D02*
X141001D01*
Y283899D01*
X141501Y284399D01*
X142500D01*
X143000Y283899D01*
Y282400D01*
Y283400D02*
X144000Y284399D01*
Y287398D02*
Y285399D01*
X142001Y287398D01*
X141501D01*
X141001Y286898D01*
Y285899D01*
X141501Y285399D01*
X144000Y289898D02*
X141001D01*
X142500Y288398D01*
Y290397D01*
X151601Y156299D02*
X151101Y155799D01*
Y154800D01*
X151601Y154300D01*
X153600D01*
X154100Y154800D01*
Y155799D01*
X153600Y156299D01*
X154100Y157299D02*
Y158299D01*
Y157799D01*
X151101D01*
X151601Y157299D01*
X151101Y161798D02*
Y159798D01*
X152601D01*
X152101Y160798D01*
Y161298D01*
X152601Y161798D01*
X153600D01*
X154100Y161298D01*
Y160298D01*
X153600Y159798D01*
X167400Y84800D02*
X164401D01*
Y86300D01*
X164901Y86799D01*
X165901D01*
X166400Y86300D01*
Y84800D01*
Y85800D02*
X167400Y86799D01*
X166900Y87799D02*
X167400Y88299D01*
Y89299D01*
X166900Y89798D01*
X164901D01*
X164401Y89299D01*
Y88299D01*
X164901Y87799D01*
X165401D01*
X165901Y88299D01*
Y89798D01*
X167400Y92797D02*
Y90798D01*
X165401Y92797D01*
X164901D01*
X164401Y92298D01*
Y91298D01*
X164901Y90798D01*
X161100Y244500D02*
Y247499D01*
X162600D01*
X163099Y246999D01*
Y246000D01*
X162600Y245500D01*
X161100D01*
X162100D02*
X163099Y244500D01*
X164099Y246999D02*
X164599Y247499D01*
X165599D01*
X166098Y246999D01*
Y246499D01*
X165599Y246000D01*
X165099D01*
X165599D01*
X166098Y245500D01*
Y245000D01*
X165599Y244500D01*
X164599D01*
X164099Y245000D01*
X168598Y244500D02*
Y247499D01*
X167098Y246000D01*
X169097D01*
X161100Y238400D02*
Y241399D01*
X162600D01*
X163099Y240899D01*
Y239899D01*
X162600Y239400D01*
X161100D01*
X162100D02*
X163099Y238400D01*
X164099Y240899D02*
X164599Y241399D01*
X165599D01*
X166098Y240899D01*
Y240399D01*
X165599Y239899D01*
X165099D01*
X165599D01*
X166098Y239400D01*
Y238900D01*
X165599Y238400D01*
X164599D01*
X164099Y238900D01*
X169097Y241399D02*
X167098D01*
Y239899D01*
X168098Y240399D01*
X168598D01*
X169097Y239899D01*
Y238900D01*
X168598Y238400D01*
X167598D01*
X167098Y238900D01*
X156800Y196050D02*
X153801D01*
Y197550D01*
X154301Y198050D01*
X155300D01*
X155800Y197550D01*
Y196050D01*
Y197050D02*
X156800Y198050D01*
X153801Y201049D02*
Y199049D01*
X155300D01*
X154801Y200049D01*
Y200549D01*
X155300Y201049D01*
X156300D01*
X156800Y200549D01*
Y199549D01*
X156300Y199049D01*
X153801Y204048D02*
X154301Y203048D01*
X155300Y202048D01*
X156300D01*
X156800Y202548D01*
Y203548D01*
X156300Y204048D01*
X155800D01*
X155300Y203548D01*
Y202048D01*
X150800Y182800D02*
X147801D01*
Y184300D01*
X148301Y184799D01*
X149301D01*
X149800Y184300D01*
Y182800D01*
Y183800D02*
X150800Y184799D01*
X147801Y187798D02*
Y185799D01*
X149301D01*
X148801Y186799D01*
Y187299D01*
X149301Y187798D01*
X150300D01*
X150800Y187299D01*
Y186299D01*
X150300Y185799D01*
X147801Y190797D02*
Y188798D01*
X149301D01*
X148801Y189798D01*
Y190298D01*
X149301Y190797D01*
X150300D01*
X150800Y190298D01*
Y189298D01*
X150300Y188798D01*
X245000Y241100D02*
X242001D01*
Y242600D01*
X242501Y243099D01*
X243500D01*
X244000Y242600D01*
Y241100D01*
Y242100D02*
X245000Y243099D01*
Y245599D02*
X242001D01*
X243500Y244099D01*
Y246098D01*
X242001Y247098D02*
Y249097D01*
X242501D01*
X244500Y247098D01*
X245000D01*
X218400Y59100D02*
Y62099D01*
X219900D01*
X220399Y61599D01*
Y60599D01*
X219900Y60100D01*
X218400D01*
X219400D02*
X220399Y59100D01*
X221399D02*
X222399D01*
X221899D01*
Y62099D01*
X221399Y61599D01*
X223898D02*
X224398Y62099D01*
X225398D01*
X225898Y61599D01*
Y59600D01*
X225398Y59100D01*
X224398D01*
X223898Y59600D01*
Y61599D01*
X226897Y59100D02*
X227897D01*
X227397D01*
Y62099D01*
X226897Y61599D01*
X173000Y127500D02*
Y130499D01*
X174499D01*
X174999Y129999D01*
Y128999D01*
X174499Y128500D01*
X173000D01*
X174000D02*
X174999Y127500D01*
X175999Y130499D02*
X177998D01*
Y129999D01*
X175999Y128000D01*
Y127500D01*
X178998Y130499D02*
X180997D01*
Y129999D01*
X178998Y128000D01*
Y127500D01*
X173500Y120000D02*
Y122999D01*
X174999D01*
X175499Y122499D01*
Y121500D01*
X174999Y121000D01*
X173500D01*
X174500D02*
X175499Y120000D01*
X176499Y122999D02*
X178498D01*
Y122499D01*
X176499Y120500D01*
Y120000D01*
X181497Y122999D02*
X180498Y122499D01*
X179498Y121500D01*
Y120500D01*
X179998Y120000D01*
X180998D01*
X181497Y120500D01*
Y121000D01*
X180998Y121500D01*
X179498D01*
X173300Y111900D02*
Y114899D01*
X174800D01*
X175299Y114399D01*
Y113400D01*
X174800Y112900D01*
X173300D01*
X174300D02*
X175299Y111900D01*
X176299Y114899D02*
X178298D01*
Y114399D01*
X176299Y112400D01*
Y111900D01*
X179298Y112400D02*
X179798Y111900D01*
X180798D01*
X181297Y112400D01*
Y114399D01*
X180798Y114899D01*
X179798D01*
X179298Y114399D01*
Y113899D01*
X179798Y113400D01*
X181297D01*
X153000Y316800D02*
Y319799D01*
X154499D01*
X154999Y319299D01*
Y318300D01*
X154499Y317800D01*
X153000D01*
X154000D02*
X154999Y316800D01*
X155999D02*
X156999D01*
X156499D01*
Y319799D01*
X155999Y319299D01*
X158498D02*
X158998Y319799D01*
X159998D01*
X160498Y319299D01*
Y318799D01*
X159998Y318300D01*
X159498D01*
X159998D01*
X160498Y317800D01*
Y317300D01*
X159998Y316800D01*
X158998D01*
X158498Y317300D01*
X151100Y334200D02*
Y337199D01*
X152600D01*
X153099Y336699D01*
Y335700D01*
X152600Y335200D01*
X151100D01*
X152100D02*
X153099Y334200D01*
X154099Y336699D02*
X154599Y337199D01*
X155599D01*
X156098Y336699D01*
Y336199D01*
X155599Y335700D01*
X155099D01*
X155599D01*
X156098Y335200D01*
Y334700D01*
X155599Y334200D01*
X154599D01*
X154099Y334700D01*
X181301Y181399D02*
Y179400D01*
X182800D01*
Y180400D01*
Y179400D01*
X184300D01*
X181301Y182399D02*
X184300D01*
Y183899D01*
X183800Y184398D01*
X183300D01*
X182800Y183899D01*
Y182399D01*
Y183899D01*
X182301Y184398D01*
X181801D01*
X181301Y183899D01*
Y182399D01*
X184300Y185398D02*
Y186398D01*
Y185898D01*
X181301D01*
X181801Y185398D01*
X135700Y127099D02*
Y124600D01*
X136200Y124100D01*
X137199D01*
X137699Y124600D01*
Y127099D01*
X138699Y126599D02*
X139199Y127099D01*
X140199D01*
X140698Y126599D01*
Y126099D01*
X140199Y125600D01*
X139699D01*
X140199D01*
X140698Y125100D01*
Y124600D01*
X140199Y124100D01*
X139199D01*
X138699Y124600D01*
X229131Y252200D02*
Y254199D01*
X228631Y254699D01*
X227632D01*
X227132Y254199D01*
Y252200D01*
X227632Y251700D01*
X228631D01*
X228132Y252700D02*
X229131Y251700D01*
X228631D02*
X229131Y252200D01*
X230131Y251700D02*
X231131D01*
X230631D01*
Y254699D01*
X230131Y254199D01*
X33866Y264699D02*
X32533D01*
X33199D01*
Y261366D01*
X32533Y260700D01*
X31866D01*
X31200Y261366D01*
X37865Y264699D02*
X36532Y264032D01*
X35199Y262699D01*
Y261366D01*
X35865Y260700D01*
X37198D01*
X37865Y261366D01*
Y262033D01*
X37198Y262699D01*
X35199D01*
X92866Y350499D02*
X91533D01*
X92199D01*
Y347166D01*
X91533Y346500D01*
X90866D01*
X90200Y347166D01*
X96864Y346500D02*
X94199D01*
X96864Y349166D01*
Y349832D01*
X96198Y350499D01*
X94865D01*
X94199Y349832D01*
X34366Y131399D02*
X33033D01*
X33699D01*
Y128067D01*
X33033Y127400D01*
X32366D01*
X31700Y128067D01*
X35699Y127400D02*
X37032D01*
X36365D01*
Y131399D01*
X35699Y130732D01*
X41697Y127400D02*
X39031D01*
X41697Y130066D01*
Y130732D01*
X41030Y131399D01*
X39697D01*
X39031Y130732D01*
X34066Y165499D02*
X32733D01*
X33399D01*
Y162167D01*
X32733Y161500D01*
X32066D01*
X31400Y162167D01*
X35399Y161500D02*
X36732D01*
X36065D01*
Y165499D01*
X35399Y164832D01*
X38731D02*
X39397Y165499D01*
X40730D01*
X41397Y164832D01*
Y162167D01*
X40730Y161500D01*
X39397D01*
X38731Y162167D01*
Y164832D01*
X178666Y34699D02*
X177333D01*
X177999D01*
Y31366D01*
X177333Y30700D01*
X176666D01*
X176000Y31366D01*
X179999Y30700D02*
X181332D01*
X180665D01*
Y34699D01*
X179999Y34032D01*
X183331D02*
X183997Y34699D01*
X185330D01*
X185997Y34032D01*
Y33366D01*
X185330Y32699D01*
X185997Y32033D01*
Y31366D01*
X185330Y30700D01*
X183997D01*
X183331Y31366D01*
Y32033D01*
X183997Y32699D01*
X183331Y33366D01*
Y34032D01*
X183997Y32699D02*
X185330D01*
X145466Y34799D02*
X144133D01*
X144799D01*
Y31466D01*
X144133Y30800D01*
X143466D01*
X142800Y31466D01*
X146799Y30800D02*
X148132D01*
X147465D01*
Y34799D01*
X146799Y34132D01*
X150131Y34799D02*
X152797D01*
Y34132D01*
X150131Y31466D01*
Y30800D01*
X113666Y35299D02*
X112333D01*
X112999D01*
Y31966D01*
X112333Y31300D01*
X111667D01*
X111000Y31966D01*
X114999Y31300D02*
X116332D01*
X115665D01*
Y35299D01*
X114999Y34632D01*
X120997Y35299D02*
X119664Y34632D01*
X118331Y33299D01*
Y31966D01*
X118997Y31300D01*
X120330D01*
X120997Y31966D01*
Y32633D01*
X120330Y33299D01*
X118331D01*
X83566Y35199D02*
X82233D01*
X82899D01*
Y31866D01*
X82233Y31200D01*
X81566D01*
X80900Y31866D01*
X84899Y31200D02*
X86232D01*
X85565D01*
Y35199D01*
X84899Y34532D01*
X90897Y35199D02*
X88231D01*
Y33199D01*
X89564Y33866D01*
X90230D01*
X90897Y33199D01*
Y31866D01*
X90230Y31200D01*
X88897D01*
X88231Y31866D01*
X35166Y62099D02*
X33833D01*
X34499D01*
Y58766D01*
X33833Y58100D01*
X33166D01*
X32500Y58766D01*
X36499Y58100D02*
X37832D01*
X37165D01*
Y62099D01*
X36499Y61432D01*
X41830Y58100D02*
Y62099D01*
X39831Y60099D01*
X42497D01*
X35066Y96599D02*
X33733D01*
X34399D01*
Y93266D01*
X33733Y92600D01*
X33066D01*
X32400Y93266D01*
X36399Y92600D02*
X37732D01*
X37065D01*
Y96599D01*
X36399Y95932D01*
X39731D02*
X40397Y96599D01*
X41730D01*
X42397Y95932D01*
Y95266D01*
X41730Y94599D01*
X41064D01*
X41730D01*
X42397Y93933D01*
Y93266D01*
X41730Y92600D01*
X40397D01*
X39731Y93266D01*
X218304Y278599D02*
X217305D01*
X217805D01*
Y276100D01*
X217305Y275600D01*
X216805D01*
X216305Y276100D01*
X219304Y278599D02*
X221303D01*
Y278099D01*
X219304Y276100D01*
Y275600D01*
X33366Y298799D02*
X32033D01*
X32699D01*
Y295466D01*
X32033Y294800D01*
X31366D01*
X30700Y295466D01*
X37365Y298799D02*
X34699D01*
Y296799D01*
X36032Y297466D01*
X36698D01*
X37365Y296799D01*
Y295466D01*
X36698Y294800D01*
X35365D01*
X34699Y295466D01*
X56566Y354799D02*
X55233D01*
X55899D01*
Y351466D01*
X55233Y350800D01*
X54566D01*
X53900Y351466D01*
X57899Y350800D02*
X59232D01*
X58565D01*
Y354799D01*
X57899Y354132D01*
X33533Y228199D02*
X32366D01*
X32949D01*
Y225283D01*
X32366Y224700D01*
X31783D01*
X31200Y225283D01*
X34699Y227616D02*
X35282Y228199D01*
X36448D01*
X37031Y227616D01*
Y227033D01*
X36448Y226449D01*
X37031Y225866D01*
Y225283D01*
X36448Y224700D01*
X35282D01*
X34699Y225283D01*
Y225866D01*
X35282Y226449D01*
X34699Y227033D01*
Y227616D01*
X35282Y226449D02*
X36448D01*
X34933Y195499D02*
X33766D01*
X34349D01*
Y192583D01*
X33766Y192000D01*
X33183D01*
X32600Y192583D01*
X36099D02*
X36682Y192000D01*
X37848D01*
X38432Y192583D01*
Y194916D01*
X37848Y195499D01*
X36682D01*
X36099Y194916D01*
Y194333D01*
X36682Y193749D01*
X38432D01*
X164333Y348999D02*
X163166D01*
X163749D01*
Y346083D01*
X163166Y345500D01*
X162583D01*
X162000Y346083D01*
X167248Y345500D02*
Y348999D01*
X165499Y347249D01*
X167831D01*
X194501Y145500D02*
X197000D01*
X197500Y146000D01*
Y147000D01*
X197000Y147499D01*
X194501D01*
X197500Y150498D02*
Y148499D01*
X195501Y150498D01*
X195001D01*
X194501Y149999D01*
Y148999D01*
X195001Y148499D01*
X174899Y164299D02*
X174399Y164799D01*
X173400D01*
X172900Y164299D01*
Y162300D01*
X173400Y161800D01*
X174399D01*
X174899Y162300D01*
X175899Y161800D02*
X176899D01*
X176399D01*
Y164799D01*
X175899Y164299D01*
X180398Y164799D02*
X179398Y164299D01*
X178398Y163300D01*
Y162300D01*
X178898Y161800D01*
X179898D01*
X180398Y162300D01*
Y162800D01*
X179898Y163300D01*
X178398D01*
X227500Y18499D02*
Y15500D01*
Y16999D01*
X229499D01*
Y18499D01*
Y15500D01*
X231998D02*
Y18499D01*
X230499Y16999D01*
X232498D01*
X194700Y170999D02*
Y168000D01*
X196200D01*
X196699Y168500D01*
Y170499D01*
X196200Y170999D01*
X194700D01*
X197699Y168000D02*
X198699D01*
X198199D01*
Y170999D01*
X197699Y170499D01*
X200198D02*
X200698Y170999D01*
X201698D01*
X202198Y170499D01*
Y169999D01*
X201698Y169500D01*
X201198D01*
X201698D01*
X202198Y169000D01*
Y168500D01*
X201698Y168000D01*
X200698D01*
X200198Y168500D01*
X219600Y72499D02*
Y69500D01*
X221099D01*
X221599Y70000D01*
Y71999D01*
X221099Y72499D01*
X219600D01*
X222599Y69500D02*
X223599D01*
X223099D01*
Y72499D01*
X222599Y71999D01*
X225098Y70000D02*
X225598Y69500D01*
X226598D01*
X227098Y70000D01*
Y71999D01*
X226598Y72499D01*
X225598D01*
X225098Y71999D01*
Y71499D01*
X225598Y70999D01*
X227098D01*
X244201Y253500D02*
X247200D01*
Y254999D01*
X246700Y255499D01*
X244701D01*
X244201Y254999D01*
Y253500D01*
X246700Y256499D02*
X247200Y256999D01*
Y257998D01*
X246700Y258498D01*
X244701D01*
X244201Y257998D01*
Y256999D01*
X244701Y256499D01*
X245201D01*
X245701Y256999D01*
Y258498D01*
X178699Y192999D02*
X178200Y193499D01*
X177200D01*
X176700Y192999D01*
Y191000D01*
X177200Y190500D01*
X178200D01*
X178699Y191000D01*
X179699Y190500D02*
X180699D01*
X180199D01*
Y193499D01*
X179699Y192999D01*
X182198Y190500D02*
X183198D01*
X182698D01*
Y193499D01*
X182198Y192999D01*
X178099Y200899D02*
X177600Y201399D01*
X176600D01*
X176100Y200899D01*
Y198900D01*
X176600Y198400D01*
X177600D01*
X178099Y198900D01*
X179099Y198400D02*
X180099D01*
X179599D01*
Y201399D01*
X179099Y200899D01*
X181598D02*
X182098Y201399D01*
X183098D01*
X183598Y200899D01*
Y200399D01*
X183098Y199899D01*
X182598D01*
X183098D01*
X183598Y199400D01*
Y198900D01*
X183098Y198400D01*
X182098D01*
X181598Y198900D01*
X150600Y195250D02*
X147601D01*
Y196750D01*
X148101Y197250D01*
X149100D01*
X149600Y196750D01*
Y195250D01*
Y196250D02*
X150600Y197250D01*
Y198249D02*
Y199249D01*
Y198749D01*
X147601D01*
X148101Y198249D01*
X147601Y202748D02*
Y200749D01*
X149100D01*
X148601Y201748D01*
Y202248D01*
X149100Y202748D01*
X150100D01*
X150600Y202248D01*
Y201249D01*
X150100Y200749D01*
Y203748D02*
X150600Y204247D01*
Y205247D01*
X150100Y205747D01*
X148101D01*
X147601Y205247D01*
Y204247D01*
X148101Y203748D01*
X148601D01*
X149100Y204247D01*
Y205747D01*
X136001Y187999D02*
X135501Y187499D01*
Y186500D01*
X136001Y186000D01*
X138000D01*
X138500Y186500D01*
Y187499D01*
X138000Y187999D01*
X135501Y188999D02*
Y190998D01*
X136001D01*
X138000Y188999D01*
X138500D01*
Y191998D02*
Y192998D01*
Y192498D01*
X135501D01*
X136001Y191998D01*
X87999Y182499D02*
X87499Y182999D01*
X86500D01*
X86000Y182499D01*
Y180500D01*
X86500Y180000D01*
X87499D01*
X87999Y180500D01*
X88999Y182999D02*
X90998D01*
Y182499D01*
X88999Y180500D01*
Y180000D01*
X93997D02*
X91998D01*
X93997Y181999D01*
Y182499D01*
X93498Y182999D01*
X92498D01*
X91998Y182499D01*
X85000Y186500D02*
Y189499D01*
X86500D01*
X86999Y188999D01*
Y187999D01*
X86500Y187500D01*
X85000D01*
X86000D02*
X86999Y186500D01*
X87999D02*
X88999D01*
X88499D01*
Y189499D01*
X87999Y188999D01*
X92498Y189499D02*
X91498Y188999D01*
X90498Y187999D01*
Y187000D01*
X90998Y186500D01*
X91998D01*
X92498Y187000D01*
Y187500D01*
X91998Y187999D01*
X90498D01*
X93497Y188999D02*
X93997Y189499D01*
X94997D01*
X95497Y188999D01*
Y187000D01*
X94997Y186500D01*
X93997D01*
X93497Y187000D01*
Y188999D01*
X114001Y181500D02*
X117333D01*
X118000Y182167D01*
Y183499D01*
X117333Y184166D01*
X114001D01*
Y188164D02*
X114668Y186832D01*
X116001Y185499D01*
X117333D01*
X118000Y186165D01*
Y187498D01*
X117333Y188164D01*
X116667D01*
X116001Y187498D01*
Y185499D01*
G54D13*
X151650Y239114D02*
G03*
X151650Y239114I-1969J0D01*
G01*
X82750Y177000D02*
G03*
X82750Y177000I-5250J0D01*
G01*
X114642Y242657D02*
X153224D01*
X114642Y224941D02*
X153224D01*
Y242657D01*
X114642Y224941D02*
Y242657D01*
X190512Y115063D02*
Y122937D01*
Y115063D02*
X204488D01*
X190512Y122937D02*
X204488D01*
Y115063D02*
Y122937D01*
X209117Y88695D02*
Y100505D01*
X223684Y88695D02*
Y100505D01*
X209117D02*
X223684D01*
X209117Y88695D02*
X223684D01*
X212069D02*
Y100505D01*
X208798Y81346D02*
X221002D01*
X208798Y87054D02*
X221002D01*
Y81346D02*
Y87054D01*
X208798Y81346D02*
Y87054D01*
X224193Y34957D02*
Y42043D01*
X210807Y34957D02*
Y42043D01*
X224193D01*
X210807Y34957D02*
X224193D01*
X164646Y155102D02*
X170354D01*
X164646Y142898D02*
X170354D01*
Y155102D01*
X164646Y142898D02*
Y155102D01*
X157646Y142992D02*
X163354D01*
X157646Y155197D02*
X163354D01*
X157646Y142992D02*
Y155197D01*
X163354Y142992D02*
Y155197D01*
X158731Y235765D02*
X170935D01*
X158731Y230057D02*
X170935D01*
X158731D02*
Y235765D01*
X170935Y230057D02*
Y235765D01*
X159031Y229165D02*
X171235D01*
X159031Y223457D02*
X171235D01*
X159031D02*
Y229165D01*
X171235Y223457D02*
Y229165D01*
X191398Y113354D02*
X203602D01*
X191398Y107646D02*
X203602D01*
X191398D02*
Y113354D01*
X203602Y107646D02*
Y113354D01*
X209398Y254646D02*
Y260354D01*
X221602Y254646D02*
Y260354D01*
X209398D02*
X221602D01*
X209398Y254646D02*
X221602D01*
X199146Y68102D02*
X204854D01*
X199146Y55898D02*
X204854D01*
Y68102D01*
X199146Y55898D02*
Y68102D01*
Y54102D02*
X204854D01*
X199146Y41898D02*
X204854D01*
Y54102D01*
X199146Y41898D02*
Y54102D01*
X215946Y253602D02*
X221654D01*
X215946Y241398D02*
X221654D01*
Y253602D01*
X215946Y241398D02*
Y253602D01*
X62898Y60646D02*
Y66354D01*
X75102Y60646D02*
Y66354D01*
X62898D02*
X75102D01*
X62898Y60646D02*
X75102D01*
X64807Y34957D02*
Y42043D01*
X78193Y34957D02*
Y42043D01*
X64807Y34957D02*
X78193D01*
X64807Y42043D02*
X78193D01*
X60646Y119602D02*
X66354D01*
X60646Y107398D02*
X66354D01*
Y119602D01*
X60646Y107398D02*
Y119602D01*
X34957Y117693D02*
X42043D01*
X34957Y104307D02*
X42043D01*
X34957D02*
Y117693D01*
X42043Y104307D02*
Y117693D01*
X75102Y53146D02*
Y58854D01*
X62898Y53146D02*
Y58854D01*
Y53146D02*
X75102D01*
X62898Y58854D02*
X75102D01*
X53146Y107398D02*
X58854D01*
X53146Y119602D02*
X58854D01*
X53146Y107398D02*
Y119602D01*
X58854Y107398D02*
Y119602D01*
X45646Y107398D02*
X51354D01*
X45646Y119602D02*
X51354D01*
X45646Y107398D02*
Y119602D01*
X51354Y107398D02*
Y119602D01*
X75102Y45646D02*
Y51354D01*
X62898Y45646D02*
Y51354D01*
Y45646D02*
X75102D01*
X62898Y51354D02*
X75102D01*
X92398Y60646D02*
Y66354D01*
X104602Y60646D02*
Y66354D01*
X92398D02*
X104602D01*
X92398Y60646D02*
X104602D01*
X94307Y34957D02*
Y42043D01*
X107693Y34957D02*
Y42043D01*
X94307Y34957D02*
X107693D01*
X94307Y42043D02*
X107693D01*
X60646Y84102D02*
X66354D01*
X60646Y71898D02*
X66354D01*
Y84102D01*
X60646Y71898D02*
Y84102D01*
X34957Y82193D02*
X42043D01*
X34957Y68807D02*
X42043D01*
X34957D02*
Y82193D01*
X42043Y68807D02*
Y82193D01*
X104602Y53146D02*
Y58854D01*
X92398Y53146D02*
Y58854D01*
Y53146D02*
X104602D01*
X92398Y58854D02*
X104602D01*
Y45646D02*
Y51354D01*
X92398Y45646D02*
Y51354D01*
Y45646D02*
X104602D01*
X92398Y51354D02*
X104602D01*
X53146Y71898D02*
X58854D01*
X53146Y84102D02*
X58854D01*
X53146Y71898D02*
Y84102D01*
X58854Y71898D02*
Y84102D01*
X45646Y71898D02*
X51354D01*
X45646Y84102D02*
X51354D01*
X45646Y71898D02*
Y84102D01*
X51354Y71898D02*
Y84102D01*
X60646Y185102D02*
X66354D01*
X60646Y172898D02*
X66354D01*
Y185102D01*
X60646Y172898D02*
Y185102D01*
X34957Y183193D02*
X42043D01*
X34957Y169807D02*
X42043D01*
X34957D02*
Y183193D01*
X42043Y169807D02*
Y183193D01*
X123898Y60646D02*
Y66354D01*
X136102Y60646D02*
Y66354D01*
X123898D02*
X136102D01*
X123898Y60646D02*
X136102D01*
X125807Y34957D02*
Y42043D01*
X139193Y34957D02*
Y42043D01*
X125807Y34957D02*
X139193D01*
X125807Y42043D02*
X139193D01*
X53146Y172898D02*
X58854D01*
X53146Y185102D02*
X58854D01*
X53146Y172898D02*
Y185102D01*
X58854Y172898D02*
Y185102D01*
X45646Y172898D02*
X51354D01*
X45646Y185102D02*
X51354D01*
X45646Y172898D02*
Y185102D01*
X51354Y172898D02*
Y185102D01*
X136102Y53146D02*
Y58854D01*
X123898Y53146D02*
Y58854D01*
Y53146D02*
X136102D01*
X123898Y58854D02*
X136102D01*
Y45646D02*
Y51354D01*
X123898Y45646D02*
Y51354D01*
Y45646D02*
X136102D01*
X123898Y51354D02*
X136102D01*
X60646Y151602D02*
X66354D01*
X60646Y139398D02*
X66354D01*
Y151602D01*
X60646Y139398D02*
Y151602D01*
X34957Y149693D02*
X42043D01*
X34957Y136307D02*
X42043D01*
X34957D02*
Y149693D01*
X42043Y136307D02*
Y149693D01*
X157898Y60646D02*
Y66354D01*
X170102Y60646D02*
Y66354D01*
X157898D02*
X170102D01*
X157898Y60646D02*
X170102D01*
X159807Y34957D02*
Y42043D01*
X173193Y34957D02*
Y42043D01*
X159807Y34957D02*
X173193D01*
X159807Y42043D02*
X173193D01*
X53146Y139398D02*
X58854D01*
X53146Y151602D02*
X58854D01*
X53146Y139398D02*
Y151602D01*
X58854Y139398D02*
Y151602D01*
X45646Y139398D02*
X51354D01*
X45646Y151602D02*
X51354D01*
X45646Y139398D02*
Y151602D01*
X51354Y139398D02*
Y151602D01*
X170102Y53146D02*
Y58854D01*
X157898Y53146D02*
Y58854D01*
Y53146D02*
X170102D01*
X157898Y58854D02*
X170102D01*
Y45646D02*
Y51354D01*
X157898Y45646D02*
Y51354D01*
Y45646D02*
X170102D01*
X157898Y51354D02*
X170102D01*
X126342Y331457D02*
Y338543D01*
X112957Y331457D02*
Y338543D01*
X126342D01*
X112957Y331457D02*
X126342D01*
X77898Y123919D02*
Y129628D01*
X90102Y123919D02*
Y129628D01*
X77898D02*
X90102D01*
X77898Y123919D02*
X90102D01*
X221302Y74246D02*
Y79954D01*
X209098Y74246D02*
Y79954D01*
Y74246D02*
X221302D01*
X209098Y79954D02*
X221302D01*
X189502Y80846D02*
Y86554D01*
X177298Y80846D02*
Y86554D01*
Y80846D02*
X189502D01*
X177298Y86554D02*
X189502D01*
X186898Y315146D02*
Y320854D01*
X199102Y315146D02*
Y320854D01*
X186898D02*
X199102D01*
X186898Y315146D02*
X199102D01*
X53646Y206398D02*
X59354D01*
X53646Y218602D02*
X59354D01*
X53646Y206398D02*
Y218602D01*
X59354Y206398D02*
Y218602D01*
X52946Y239798D02*
X58654D01*
X52946Y252002D02*
X58654D01*
X52946Y239798D02*
Y252002D01*
X58654Y239798D02*
Y252002D01*
X51246Y274747D02*
X56954D01*
X51246Y286952D02*
X56954D01*
X51246Y274747D02*
Y286952D01*
X56954Y274747D02*
Y286952D01*
X51246Y309747D02*
X56954D01*
X51246Y321952D02*
X56954D01*
X51246Y309747D02*
Y321952D01*
X56954Y309747D02*
Y321952D01*
X78047Y317146D02*
Y322854D01*
X90252Y317146D02*
Y322854D01*
X78047D02*
X90252D01*
X78047Y317146D02*
X90252D01*
X116047Y316646D02*
Y322354D01*
X128252Y316646D02*
Y322354D01*
X116047D02*
X128252D01*
X116047Y316646D02*
X128252D01*
X150398Y322646D02*
Y328354D01*
X162602Y322646D02*
Y328354D01*
X150398D02*
X162602D01*
X150398Y322646D02*
X162602D01*
X186898D02*
Y328354D01*
X199102Y322646D02*
Y328354D01*
X186898D02*
X199102D01*
X186898Y322646D02*
X199102D01*
X46146Y206398D02*
X51854D01*
X46146Y218602D02*
X51854D01*
X46146Y206398D02*
Y218602D01*
X51854Y206398D02*
Y218602D01*
X45446Y239798D02*
X51154D01*
X45446Y252002D02*
X51154D01*
X45446Y239798D02*
Y252002D01*
X51154Y239798D02*
Y252002D01*
X44746Y274747D02*
X50454D01*
X44746Y286952D02*
X50454D01*
X44746Y274747D02*
Y286952D01*
X50454Y274747D02*
Y286952D01*
X44746Y309747D02*
X50454D01*
X44746Y321952D02*
X50454D01*
X44746Y309747D02*
Y321952D01*
X50454Y309747D02*
Y321952D01*
X78047Y323646D02*
Y329354D01*
X90252Y323646D02*
Y329354D01*
X78047D02*
X90252D01*
X78047Y323646D02*
X90252D01*
X116047Y323146D02*
Y328854D01*
X128252Y323146D02*
Y328854D01*
X116047D02*
X128252D01*
X116047Y323146D02*
X128252D01*
X88736Y192366D02*
Y198075D01*
X76531Y192366D02*
Y198075D01*
Y192366D02*
X88736D01*
X76531Y198075D02*
X88736D01*
X162268Y292413D02*
X167976D01*
X162268Y280209D02*
X167976D01*
Y292413D01*
X162268Y280209D02*
Y292413D01*
X90280Y192618D02*
X95988D01*
X90280Y204823D02*
X95988D01*
X90280Y192618D02*
Y204823D01*
X95988Y192618D02*
Y204823D01*
X167724Y273457D02*
Y279165D01*
X155520Y273457D02*
Y279165D01*
Y273457D02*
X167724D01*
X155520Y279165D02*
X167724D01*
X88736Y198866D02*
Y204575D01*
X76531Y198866D02*
Y204575D01*
Y198866D02*
X88736D01*
X76531Y204575D02*
X88736D01*
X155268Y292413D02*
X160976D01*
X155268Y280209D02*
X160976D01*
Y292413D01*
X155268Y280209D02*
Y292413D01*
X88736Y205866D02*
Y211575D01*
X76531Y205866D02*
Y211575D01*
Y205866D02*
X88736D01*
X76531Y211575D02*
X88736D01*
X146768Y292413D02*
X152476D01*
X146768Y280209D02*
X152476D01*
Y292413D01*
X146768Y280209D02*
Y292413D01*
X90280Y206118D02*
X95988D01*
X90280Y218323D02*
X95988D01*
X90280Y206118D02*
Y218323D01*
X95988Y206118D02*
Y218323D01*
X152224Y272957D02*
Y278665D01*
X140020Y272957D02*
Y278665D01*
Y272957D02*
X152224D01*
X140020Y278665D02*
X152224D01*
X88736Y212366D02*
Y218075D01*
X76531Y212366D02*
Y218075D01*
Y212366D02*
X88736D01*
X76531Y218075D02*
X88736D01*
Y218866D02*
Y224575D01*
X76531Y218866D02*
Y224575D01*
Y218866D02*
X88736D01*
X76531Y224575D02*
X88736D01*
X132268Y292413D02*
X137976D01*
X132268Y280209D02*
X137976D01*
Y292413D01*
X132268Y280209D02*
Y292413D01*
X90280Y219118D02*
X95988D01*
X90280Y231323D02*
X95988D01*
X90280Y219118D02*
Y231323D01*
X95988Y219118D02*
Y231323D01*
X138224Y272957D02*
Y278665D01*
X126020Y272957D02*
Y278665D01*
Y272957D02*
X138224D01*
X126020Y278665D02*
X138224D01*
X88736Y225866D02*
Y231575D01*
X76531Y225866D02*
Y231575D01*
Y225866D02*
X88736D01*
X76531Y231575D02*
X88736D01*
X125268Y292413D02*
X130976D01*
X125268Y280209D02*
X130976D01*
Y292413D01*
X125268Y280209D02*
Y292413D01*
X88736Y232866D02*
Y238575D01*
X76531Y232866D02*
Y238575D01*
Y232866D02*
X88736D01*
X76531Y238575D02*
X88736D01*
X117768Y292413D02*
X123476D01*
X117768Y280209D02*
X123476D01*
Y292413D01*
X117768Y280209D02*
Y292413D01*
X90280Y232618D02*
X95988D01*
X90280Y244823D02*
X95988D01*
X90280Y232618D02*
Y244823D01*
X95988Y232618D02*
Y244823D01*
X123224Y272957D02*
Y278665D01*
X111020Y272957D02*
Y278665D01*
Y272957D02*
X123224D01*
X111020Y278665D02*
X123224D01*
X88736Y239366D02*
Y245075D01*
X76531Y239366D02*
Y245075D01*
Y239366D02*
X88736D01*
X76531Y245075D02*
X88736D01*
X110768Y292413D02*
X116476D01*
X110768Y280209D02*
X116476D01*
Y292413D01*
X110768Y280209D02*
Y292413D01*
X77898Y116919D02*
Y122628D01*
X90102Y116919D02*
Y122628D01*
X77898D02*
X90102D01*
X77898Y116919D02*
X90102D01*
X77898Y131146D02*
Y136854D01*
X90102Y131146D02*
Y136854D01*
X77898D02*
X90102D01*
X77898Y131146D02*
X90102D01*
X77898Y144646D02*
Y150354D01*
X90102Y144646D02*
Y150354D01*
X77898D02*
X90102D01*
X77898Y144646D02*
X90102D01*
X77898Y158146D02*
Y163854D01*
X90102Y158146D02*
Y163854D01*
X77898D02*
X90102D01*
X77898Y158146D02*
X90102D01*
X77898Y138146D02*
Y143854D01*
X90102Y138146D02*
Y143854D01*
X77898D02*
X90102D01*
X77898Y138146D02*
X90102D01*
X77898Y151146D02*
Y156854D01*
X90102Y151146D02*
Y156854D01*
X77898D02*
X90102D01*
X77898Y151146D02*
X90102D01*
X101646Y86102D02*
X107354D01*
X101646Y73898D02*
X107354D01*
Y86102D01*
X101646Y73898D02*
Y86102D01*
X115646D02*
X121354D01*
X115646Y73898D02*
X121354D01*
Y86102D01*
X115646Y73898D02*
Y86102D01*
X108646D02*
X114354D01*
X108646Y73898D02*
X114354D01*
Y86102D01*
X108646Y73898D02*
Y86102D01*
X130146D02*
X135854D01*
X130146Y73898D02*
X135854D01*
Y86102D01*
X130146Y73898D02*
Y86102D01*
X122646D02*
X128354D01*
X122646Y73898D02*
X128354D01*
Y86102D01*
X122646Y73898D02*
Y86102D01*
X144146D02*
X149854D01*
X144146Y73898D02*
X149854D01*
Y86102D01*
X144146Y73898D02*
Y86102D01*
X137146D02*
X142854D01*
X137146Y73898D02*
X142854D01*
Y86102D01*
X137146Y73898D02*
Y86102D01*
X151646D02*
X157354D01*
X151646Y73898D02*
X157354D01*
Y86102D01*
X151646Y73898D02*
Y86102D01*
X92147Y129876D02*
X97856D01*
X92147Y117671D02*
X97856D01*
Y129876D01*
X92147Y117671D02*
Y129876D01*
X92146Y143602D02*
X97854D01*
X92146Y131398D02*
X97854D01*
Y143602D01*
X92146Y131398D02*
Y143602D01*
Y157102D02*
X97854D01*
X92146Y144898D02*
X97854D01*
Y157102D01*
X92146Y144898D02*
Y157102D01*
Y170602D02*
X97854D01*
X92146Y158398D02*
X97854D01*
Y170602D01*
X92146Y158398D02*
Y170602D01*
X114602Y87646D02*
Y93354D01*
X102398Y87646D02*
Y93354D01*
Y87646D02*
X114602D01*
X102398Y93354D02*
X114602D01*
X192602Y171146D02*
Y176854D01*
X180398Y171146D02*
Y176854D01*
Y171146D02*
X192602D01*
X180398Y176854D02*
X192602D01*
X203602Y133146D02*
Y138854D01*
X191398Y133146D02*
Y138854D01*
Y133146D02*
X203602D01*
X191398Y138854D02*
X203602D01*
X172898Y146354D02*
X185102D01*
X172898Y140646D02*
X185102D01*
X172898D02*
Y146354D01*
X185102Y140646D02*
Y146354D01*
X77898Y165146D02*
Y170854D01*
X90102Y165146D02*
Y170854D01*
X77898D02*
X90102D01*
X77898Y165146D02*
X90102D01*
X156602Y87646D02*
Y93354D01*
X144398Y87646D02*
Y93354D01*
Y87646D02*
X156602D01*
X144398Y93354D02*
X156602D01*
X128102Y87646D02*
Y93354D01*
X115898Y87646D02*
Y93354D01*
Y87646D02*
X128102D01*
X115898Y93354D02*
X128102D01*
X142602Y87646D02*
Y93354D01*
X130398Y87646D02*
Y93354D01*
Y87646D02*
X142602D01*
X130398Y93354D02*
X142602D01*
X42543Y203307D02*
Y216693D01*
X35457Y203307D02*
Y216693D01*
Y203307D02*
X42543D01*
X35457Y216693D02*
X42543D01*
X61146Y206398D02*
Y218602D01*
X66854Y206398D02*
Y218602D01*
X61146Y206398D02*
X66854D01*
X61146Y218602D02*
X66854D01*
X150398Y313354D02*
X162602D01*
X150398Y307646D02*
X162602D01*
X150398D02*
Y313354D01*
X162602Y307646D02*
Y313354D01*
X41843Y236707D02*
Y250093D01*
X34757Y236707D02*
Y250093D01*
Y236707D02*
X41843D01*
X34757Y250093D02*
X41843D01*
X60446Y239798D02*
Y252002D01*
X66154Y239798D02*
Y252002D01*
X60446Y239798D02*
X66154D01*
X60446Y252002D02*
X66154D01*
X183807Y331957D02*
X197193D01*
X183807Y339043D02*
X197193D01*
X183807Y331957D02*
Y339043D01*
X197193Y331957D02*
Y339043D01*
X186898Y313354D02*
X199102D01*
X186898Y307646D02*
X199102D01*
X186898D02*
Y313354D01*
X199102Y307646D02*
Y313354D01*
X74957Y331957D02*
X88342D01*
X74957Y339043D02*
X88342D01*
X74957Y331957D02*
Y339043D01*
X88342Y331957D02*
Y339043D01*
X78047Y314854D02*
X90252D01*
X78047Y309146D02*
X90252D01*
X78047D02*
Y314854D01*
X90252Y309146D02*
Y314854D01*
X42143Y271657D02*
Y285043D01*
X35057Y271657D02*
Y285043D01*
Y271657D02*
X42143D01*
X35057Y285043D02*
X42143D01*
X59546Y274698D02*
Y286902D01*
X65254Y274698D02*
Y286902D01*
X59546Y274698D02*
X65254D01*
X59546Y286902D02*
X65254D01*
X116047Y314354D02*
X128252D01*
X116047Y308646D02*
X128252D01*
X116047D02*
Y314354D01*
X128252Y308646D02*
Y314354D01*
X42143Y306157D02*
Y319543D01*
X35057Y306157D02*
Y319543D01*
Y306157D02*
X42143D01*
X35057Y319543D02*
X42143D01*
X58246Y309898D02*
Y322102D01*
X63954Y309898D02*
Y322102D01*
X58246Y309898D02*
X63954D01*
X58246Y322102D02*
X63954D01*
X240398Y308457D02*
Y315543D01*
X227012Y308457D02*
Y315543D01*
X240398D01*
X227012Y308457D02*
X240398D01*
Y319457D02*
Y326543D01*
X227012Y319457D02*
Y326543D01*
X240398D01*
X227012Y319457D02*
X240398D01*
X139768Y292413D02*
X145476D01*
X139768Y280209D02*
X145476D01*
Y292413D01*
X139768Y280209D02*
Y292413D01*
X149646Y151898D02*
Y164102D01*
X155354Y151898D02*
Y164102D01*
X149646Y151898D02*
X155354D01*
X149646Y164102D02*
X155354D01*
X163046Y93902D02*
X168754D01*
X163046Y81698D02*
X168754D01*
Y93902D01*
X163046Y81698D02*
Y93902D01*
X170835Y243257D02*
Y248965D01*
X158631Y243257D02*
Y248965D01*
Y243257D02*
X170835D01*
X158631Y248965D02*
X170835D01*
X158631Y242565D02*
X170835D01*
X158631Y236857D02*
X170835D01*
X158631D02*
Y242565D01*
X170835Y236857D02*
Y242565D01*
X152646Y206453D02*
X158354D01*
X152646Y194248D02*
X158354D01*
Y206453D01*
X152646Y194248D02*
Y206453D01*
X146146Y193102D02*
X151854D01*
X146146Y180898D02*
X151854D01*
Y193102D01*
X146146Y180898D02*
Y193102D01*
X240646Y251602D02*
X246354D01*
X240646Y239398D02*
X246354D01*
Y251602D01*
X240646Y239398D02*
Y251602D01*
X229102Y57646D02*
Y63354D01*
X216898Y57646D02*
Y63354D01*
Y57646D02*
X229102D01*
X216898Y63354D02*
X229102D01*
X171398Y131854D02*
X183602D01*
X171398Y126146D02*
X183602D01*
X171398D02*
Y131854D01*
X183602Y126146D02*
Y131854D01*
X171398Y124854D02*
X183602D01*
X171398Y119146D02*
X183602D01*
X171398D02*
Y124854D01*
X183602Y119146D02*
Y124854D01*
X183102Y110646D02*
Y116354D01*
X170898Y110646D02*
Y116354D01*
Y110646D02*
X183102D01*
X170898Y116354D02*
X183102D01*
X150398Y315146D02*
Y320854D01*
X162602Y315146D02*
Y320854D01*
X150398D02*
X162602D01*
X150398Y315146D02*
X162602D01*
X147307Y331957D02*
X160693D01*
X147307Y339043D02*
X160693D01*
X147307Y331957D02*
Y339043D01*
X160693Y331957D02*
Y339043D01*
X204488Y124063D02*
Y131937D01*
X190512D02*
X204488D01*
X190512Y124063D02*
X204488D01*
X190512D02*
Y131937D01*
X119709Y133358D02*
X158291D01*
X119709Y115642D02*
X158291D01*
Y133358D01*
X119709Y115642D02*
Y133358D01*
X185284Y157595D02*
Y169405D01*
X170717Y157595D02*
Y169405D01*
Y157595D02*
X185284D01*
X170717Y169405D02*
X185284D01*
X182331Y157595D02*
Y169405D01*
X136594Y152717D02*
X148406D01*
X136594Y167283D02*
X148406D01*
X136594Y152717D02*
Y167283D01*
X148406Y152717D02*
Y167283D01*
X136594Y155669D02*
X148406D01*
X186102Y189146D02*
Y194854D01*
X173898Y189146D02*
Y194854D01*
Y189146D02*
X186102D01*
X173898Y194854D02*
X186102D01*
X146146Y206453D02*
X151854D01*
X146146Y194248D02*
X151854D01*
Y206453D01*
X146146Y194248D02*
Y206453D01*
X195898Y242646D02*
Y248354D01*
X208102Y242646D02*
Y248354D01*
X195898D02*
X208102D01*
X195898Y242646D02*
X208102D01*
X208102Y249146D02*
Y254854D01*
X195898Y249146D02*
Y254854D01*
Y249146D02*
X208102D01*
X195898Y254854D02*
X208102D01*
Y236146D02*
Y241854D01*
X195898Y236146D02*
Y241854D01*
Y236146D02*
X208102D01*
X195898Y241854D02*
X208102D01*
X197898Y200646D02*
Y206354D01*
X210102Y200646D02*
Y206354D01*
X197898D02*
X210102D01*
X197898Y200646D02*
X210102D01*
X134146Y183398D02*
Y195602D01*
X139854Y183398D02*
Y195602D01*
X134146Y183398D02*
X139854D01*
X134146Y195602D02*
X139854D01*
X83898Y184354D02*
X96102D01*
X83898Y178646D02*
X96102D01*
X83898D02*
Y184354D01*
X96102Y178646D02*
Y184354D01*
X83898Y190854D02*
X96102D01*
X83898Y185146D02*
X96102D01*
X83898D02*
Y190854D01*
X96102Y185146D02*
Y190854D01*
G54D14*
X106500Y194000D02*
X111500D01*
X106500Y192000D02*
Y194000D01*
Y192000D02*
X111500D01*
X106500Y187000D02*
X111500D01*
X106500D02*
Y189000D01*
X111500D01*
X106500Y182000D02*
X111500D01*
X106500D02*
Y184000D01*
X111500D01*
X106500Y177000D02*
X111500D01*
X106500D02*
Y179000D01*
X111500D01*
X120500D02*
X125500D01*
Y177000D02*
Y179000D01*
X120500Y177000D02*
X125500D01*
X120500Y184000D02*
X125500D01*
Y182000D02*
Y184000D01*
X120500Y182000D02*
X125500D01*
X120500Y189000D02*
X125500D01*
Y187000D02*
Y189000D01*
X120500Y187000D02*
X125500D01*
X120500Y192000D02*
X125500D01*
Y194000D01*
X120500D02*
X125500D01*
X111500Y175500D02*
Y195500D01*
Y175500D02*
X120500D01*
Y195500D01*
X111500D02*
X120500D01*
X451599Y-60568D02*
X450599Y-59569D01*
X448600D01*
X447600Y-60568D01*
Y-61568D01*
X448600Y-62568D01*
X450599D01*
X451599Y-63567D01*
Y-64567D01*
X450599Y-65567D01*
X448600D01*
X447600Y-64567D01*
X453598Y-59569D02*
Y-63567D01*
X455597Y-65567D01*
X457597Y-63567D01*
Y-59569D01*
X459596Y-65567D02*
Y-59569D01*
X463595Y-65567D01*
Y-59569D01*
X471592Y-65567D02*
Y-59569D01*
X474591D01*
X475591Y-60568D01*
Y-62568D01*
X474591Y-63567D01*
X471592D01*
X473592D02*
X475591Y-65567D01*
X481589Y-59569D02*
X477590D01*
Y-65567D01*
X481589D01*
X477590Y-62568D02*
X479590D01*
X483588Y-59569D02*
Y-63567D01*
X485588Y-65567D01*
X487587Y-63567D01*
Y-59569D01*
X489586Y-61568D02*
X490586D01*
Y-62568D01*
X489586D01*
Y-61568D01*
Y-64567D02*
X490586D01*
Y-65567D01*
X489586D01*
Y-64567D01*
X498200Y-65567D02*
Y-59569D01*
X502199Y-65567D01*
Y-59569D01*
X505198Y-65567D02*
X507197D01*
X508197Y-64567D01*
Y-62568D01*
X507197Y-61568D01*
X505198D01*
X504198Y-62568D01*
Y-64567D01*
X505198Y-65567D01*
X511196Y-60568D02*
Y-61568D01*
X510196D01*
X512195D01*
X511196D01*
Y-64567D01*
X512195Y-65567D01*
X521193Y-59569D02*
X523192D01*
X522192D01*
Y-65567D01*
X521193D01*
X523192D01*
X526191D02*
Y-61568D01*
X529190D01*
X530190Y-62568D01*
Y-65567D01*
X538187Y-59569D02*
Y-63567D01*
X540186Y-65567D01*
X542186Y-63567D01*
Y-59569D01*
X547184Y-65567D02*
X545185D01*
X544185Y-64567D01*
Y-62568D01*
X545185Y-61568D01*
X547184D01*
X548184Y-62568D01*
Y-63567D01*
X544185D01*
X550183Y-61568D02*
Y-65567D01*
Y-63567D01*
X551183Y-62568D01*
X552182Y-61568D01*
X553182D01*
X556181Y-65567D02*
X559180D01*
X560180Y-64567D01*
X559180Y-63567D01*
X557181D01*
X556181Y-62568D01*
X557181Y-61568D01*
X560180D01*
X562179Y-65567D02*
X564179D01*
X563179D01*
Y-61568D01*
X562179D01*
X568177Y-65567D02*
X570177D01*
X571176Y-64567D01*
Y-62568D01*
X570177Y-61568D01*
X568177D01*
X567178Y-62568D01*
Y-64567D01*
X568177Y-65567D01*
X573176D02*
Y-61568D01*
X576175D01*
X577174Y-62568D01*
Y-65567D01*
X583173Y-60568D02*
X582173Y-59569D01*
X580173D01*
X579174Y-60568D01*
Y-64567D01*
X580173Y-65567D01*
X582173D01*
X583173Y-64567D01*
X586171Y-65567D02*
X588171D01*
X589171Y-64567D01*
Y-62568D01*
X588171Y-61568D01*
X586171D01*
X585172Y-62568D01*
Y-64567D01*
X586171Y-65567D01*
X591170D02*
Y-61568D01*
X594169D01*
X595169Y-62568D01*
Y-65567D01*
X598168Y-60568D02*
Y-61568D01*
X597168D01*
X599167D01*
X598168D01*
Y-64567D01*
X599167Y-65567D01*
X602166Y-61568D02*
Y-65567D01*
Y-63567D01*
X603166Y-62568D01*
X604166Y-61568D01*
X605165D01*
X609164Y-65567D02*
X611164D01*
X612163Y-64567D01*
Y-62568D01*
X611164Y-61568D01*
X609164D01*
X608164Y-62568D01*
Y-64567D01*
X609164Y-65567D01*
X614162D02*
X616162D01*
X615162D01*
Y-59569D01*
X614162D01*
X511300Y-100435D02*
X515299D01*
X513299D01*
Y-106433D01*
X521297Y-100435D02*
X517298D01*
Y-106433D01*
X521297D01*
X517298Y-103435D02*
X519297D01*
X523296Y-100435D02*
X527295Y-106433D01*
Y-100435D02*
X523296Y-106433D01*
X529294D02*
Y-102435D01*
X531293Y-100435D01*
X533293Y-102435D01*
Y-106433D01*
Y-103435D01*
X529294D01*
X539291Y-101435D02*
X538291Y-100435D01*
X536292D01*
X535292Y-101435D01*
Y-102435D01*
X536292Y-103435D01*
X538291D01*
X539291Y-104434D01*
Y-105434D01*
X538291Y-106433D01*
X536292D01*
X535292Y-105434D01*
X547288Y-100435D02*
X549288D01*
X548288D01*
Y-106433D01*
X547288D01*
X549288D01*
X552287D02*
Y-100435D01*
X556285Y-106433D01*
Y-100435D01*
X562284Y-101435D02*
X561284Y-100435D01*
X559284D01*
X558285Y-101435D01*
Y-102435D01*
X559284Y-103435D01*
X561284D01*
X562284Y-104434D01*
Y-105434D01*
X561284Y-106433D01*
X559284D01*
X558285Y-105434D01*
X564283Y-100435D02*
X568282D01*
X566282D01*
Y-106433D01*
X570281D02*
Y-100435D01*
X573280D01*
X574280Y-101435D01*
Y-103435D01*
X573280Y-104434D01*
X570281D01*
X572280D02*
X574280Y-106433D01*
X576279Y-100435D02*
Y-105434D01*
X577279Y-106433D01*
X579278D01*
X580278Y-105434D01*
Y-100435D01*
X582277Y-106433D02*
Y-100435D01*
X584276Y-102435D01*
X586276Y-100435D01*
Y-106433D01*
X592274Y-100435D02*
X588275D01*
Y-106433D01*
X592274D01*
X588275Y-103435D02*
X590274D01*
X594273Y-106433D02*
Y-100435D01*
X598272Y-106433D01*
Y-100435D01*
X600271D02*
X604270D01*
X602271D01*
Y-106433D01*
X610268Y-101435D02*
X609268Y-100435D01*
X607269D01*
X606269Y-101435D01*
Y-102435D01*
X607269Y-103435D01*
X609268D01*
X610268Y-104434D01*
Y-105434D01*
X609268Y-106433D01*
X607269D01*
X606269Y-105434D01*
X384850Y-101435D02*
X385850Y-100435D01*
X387849D01*
X388849Y-101435D01*
Y-102435D01*
X387849Y-103435D01*
X386849D01*
X387849D01*
X388849Y-104434D01*
Y-105434D01*
X387849Y-106433D01*
X385850D01*
X384850Y-105434D01*
X390848Y-102435D02*
X391848D01*
Y-103435D01*
X390848D01*
Y-102435D01*
Y-105434D02*
X391848D01*
Y-106433D01*
X390848D01*
Y-105434D01*
X399845Y-100435D02*
X395846D01*
Y-103435D01*
X397846Y-102435D01*
X398846D01*
X399845Y-103435D01*
Y-105434D01*
X398846Y-106433D01*
X396846D01*
X395846Y-105434D01*
X405843Y-106433D02*
X401845D01*
X405843Y-102435D01*
Y-101435D01*
X404844Y-100435D01*
X402844D01*
X401845Y-101435D01*
X407843Y-102435D02*
X408842D01*
Y-103435D01*
X407843D01*
Y-102435D01*
Y-105434D02*
X408842D01*
Y-106433D01*
X407843D01*
Y-105434D01*
X416840Y-106433D02*
X412841D01*
X416840Y-102435D01*
Y-101435D01*
X415840Y-100435D01*
X413841D01*
X412841Y-101435D01*
X418839Y-105434D02*
X419839Y-106433D01*
X421838D01*
X422838Y-105434D01*
Y-101435D01*
X421838Y-100435D01*
X419839D01*
X418839Y-101435D01*
Y-102435D01*
X419839Y-103435D01*
X422838D01*
X430835Y-106433D02*
Y-100435D01*
X433834D01*
X434834Y-101435D01*
Y-103435D01*
X433834Y-104434D01*
X430835D01*
X436833Y-106433D02*
Y-100435D01*
X438833Y-102435D01*
X440832Y-100435D01*
Y-106433D01*
X-22850D02*
Y-100435D01*
X-19851D01*
X-18851Y-101435D01*
Y-103435D01*
X-19851Y-104434D01*
X-22850D01*
X-16852Y-100435D02*
Y-106433D01*
X-12853D01*
X-7855Y-100435D02*
X-9854D01*
X-10854Y-101435D01*
Y-105434D01*
X-9854Y-106433D01*
X-7855D01*
X-6855Y-105434D01*
Y-101435D01*
X-7855Y-100435D01*
X-4856D02*
X-857D01*
X-2857D01*
Y-106433D01*
X7140D02*
Y-100435D01*
X11139Y-106433D01*
Y-100435D01*
X13138Y-106433D02*
Y-102435D01*
X15138Y-100435D01*
X17137Y-102435D01*
Y-106433D01*
Y-103435D01*
X13138D01*
X19136Y-106433D02*
Y-100435D01*
X21136Y-102435D01*
X23135Y-100435D01*
Y-106433D01*
X29133Y-100435D02*
X25135D01*
Y-106433D01*
X29133D01*
X25135Y-103435D02*
X27134D01*
X37131Y-104434D02*
X41129D01*
X37131Y-102435D02*
X41129D01*
X-22850Y-79851D02*
X-20851D01*
X-21850D01*
Y-85849D01*
X-22850D01*
X-20851D01*
X-13853Y-80851D02*
X-14853Y-79851D01*
X-16852D01*
X-17852Y-80851D01*
Y-84850D01*
X-16852Y-85849D01*
X-14853D01*
X-13853Y-84850D01*
Y-82850D01*
X-15852D01*
X-11854Y-85849D02*
Y-79851D01*
X-7855Y-85849D01*
Y-79851D01*
X-2857D02*
X-4856D01*
X-5855Y-80851D01*
Y-84850D01*
X-4856Y-85849D01*
X-2857D01*
X-1857Y-84850D01*
Y-80851D01*
X-2857Y-79851D01*
X143Y-85849D02*
Y-79851D01*
X3142D01*
X4141Y-80851D01*
Y-82850D01*
X3142Y-83850D01*
X143D01*
X2142D02*
X4141Y-85849D01*
X10139Y-79851D02*
X6141D01*
Y-85849D01*
X10139D01*
X6141Y-82850D02*
X8140D01*
X18137D02*
X22136D01*
X24135Y-85849D02*
X27134Y-82850D01*
X24135Y-79851D01*
X224800Y-59569D02*
Y-65567D01*
X227799D01*
X228799Y-64567D01*
Y-63567D01*
X227799Y-62568D01*
X224800D01*
X227799D01*
X228799Y-61568D01*
Y-60568D01*
X227799Y-59569D01*
X224800D01*
X233797D02*
X231798D01*
X230798Y-60568D01*
Y-64567D01*
X231798Y-65567D01*
X233797D01*
X234797Y-64567D01*
Y-60568D01*
X233797Y-59569D01*
X236796Y-65567D02*
Y-61568D01*
X238795Y-59569D01*
X240795Y-61568D01*
Y-65567D01*
Y-62568D01*
X236796D01*
X242794Y-65567D02*
Y-59569D01*
X245793D01*
X246793Y-60568D01*
Y-62568D01*
X245793Y-63567D01*
X242794D01*
X244794D02*
X246793Y-65567D01*
X248792Y-59569D02*
Y-65567D01*
X251791D01*
X252791Y-64567D01*
Y-60568D01*
X251791Y-59569D01*
X248792D01*
X261788Y-65567D02*
Y-59569D01*
X263787D02*
Y-65567D01*
X260788Y-61568D02*
X263787D01*
X264787D01*
X260788Y-63567D02*
X264787D01*
X266786Y-61568D02*
X267786D01*
Y-62568D01*
X266786D01*
Y-61568D01*
Y-64567D02*
X267786D01*
Y-65567D01*
X266786D01*
Y-64567D01*
X272900Y-61202D02*
X276232D01*
X274566D01*
Y-66200D01*
X277898Y-61202D02*
X279564D01*
X278731D01*
Y-66200D01*
X277898D01*
X279564D01*
X282064Y-61202D02*
Y-66200D01*
X284563D01*
X285396Y-65367D01*
Y-62035D01*
X284563Y-61202D01*
X282064D01*
X287062Y-66200D02*
Y-62868D01*
X288728Y-61202D01*
X290394Y-62868D01*
Y-66200D01*
Y-63701D01*
X287062D01*
X292060D02*
X295393D01*
X297059Y-62035D02*
X297892Y-61202D01*
X299558D01*
X300391Y-62035D01*
Y-65367D01*
X299558Y-66200D01*
X297892D01*
X297059Y-65367D01*
Y-62035D01*
X302057Y-66200D02*
X303723D01*
X302890D01*
Y-61202D01*
X302057Y-62035D01*
X309555Y-61202D02*
X306223D01*
Y-63701D01*
X307889Y-62868D01*
X308722D01*
X309555Y-63701D01*
Y-65367D01*
X308722Y-66200D01*
X307056D01*
X306223Y-65367D01*
X311221Y-61202D02*
X314553D01*
Y-62035D01*
X311221Y-65367D01*
Y-66200D01*
X319552Y-61202D02*
X317885Y-62035D01*
X316219Y-63701D01*
Y-65367D01*
X317052Y-66200D01*
X318719D01*
X319552Y-65367D01*
Y-64534D01*
X318719Y-63701D01*
X316219D01*
X321218Y-67033D02*
X324550D01*
X326216Y-61202D02*
Y-66200D01*
X328715D01*
X329548Y-65367D01*
Y-62035D01*
X328715Y-61202D01*
X326216D01*
X331214D02*
Y-65367D01*
X332048Y-66200D01*
X333714D01*
X334547Y-65367D01*
Y-61202D01*
X336213Y-66200D02*
Y-62868D01*
X337879Y-61202D01*
X339545Y-62868D01*
Y-66200D01*
Y-63701D01*
X336213D01*
X341211Y-61202D02*
Y-66200D01*
X344544D01*
X346210Y-67033D02*
X349542D01*
X354540Y-62035D02*
X353707Y-61202D01*
X352041D01*
X351208Y-62035D01*
Y-62868D01*
X352041Y-63701D01*
X353707D01*
X354540Y-64534D01*
Y-65367D01*
X353707Y-66200D01*
X352041D01*
X351208Y-65367D01*
X356206Y-61202D02*
Y-66200D01*
X358705D01*
X359539Y-65367D01*
Y-62035D01*
X358705Y-61202D01*
X356206D01*
X363704D02*
X362038D01*
X361205Y-62035D01*
Y-65367D01*
X362038Y-66200D01*
X363704D01*
X364537Y-65367D01*
Y-62035D01*
X363704Y-61202D01*
X-22850Y-65567D02*
Y-59569D01*
X-19851D01*
X-18851Y-60568D01*
Y-62568D01*
X-19851Y-63567D01*
X-22850D01*
X-12853Y-60568D02*
X-13853Y-59569D01*
X-15852D01*
X-16852Y-60568D01*
Y-64567D01*
X-15852Y-65567D01*
X-13853D01*
X-12853Y-64567D01*
X-10854Y-59569D02*
Y-65567D01*
X-7855D01*
X-6855Y-64567D01*
Y-63567D01*
X-7855Y-62568D01*
X-10854D01*
X-7855D01*
X-6855Y-61568D01*
Y-60568D01*
X-7855Y-59569D01*
X-10854D01*
X1142D02*
Y-63567D01*
X3142Y-65567D01*
X5141Y-63567D01*
Y-59569D01*
X7140D02*
X9140D01*
X8140D01*
Y-65567D01*
X7140D01*
X9140D01*
X16137Y-59569D02*
X12139D01*
Y-65567D01*
X16137D01*
X12139Y-62568D02*
X14138D01*
X18137Y-59569D02*
Y-65567D01*
X20136Y-63567D01*
X22136Y-65567D01*
Y-59569D01*
X28133D02*
X24135D01*
Y-65567D01*
X28133D01*
X24135Y-62568D02*
X26134D01*
X30133Y-59569D02*
Y-65567D01*
X33132D01*
X34132Y-64567D01*
Y-60568D01*
X33132Y-59569D01*
X30133D01*
X46128D02*
X42129D01*
Y-62568D01*
X44128D01*
X42129D01*
Y-65567D01*
X48127D02*
Y-59569D01*
X51126D01*
X52126Y-60568D01*
Y-62568D01*
X51126Y-63567D01*
X48127D01*
X50126D02*
X52126Y-65567D01*
X57124Y-59569D02*
X55125D01*
X54125Y-60568D01*
Y-64567D01*
X55125Y-65567D01*
X57124D01*
X58124Y-64567D01*
Y-60568D01*
X57124Y-59569D01*
X60123Y-65567D02*
Y-59569D01*
X62122Y-61568D01*
X64122Y-59569D01*
Y-65567D01*
X72119Y-59569D02*
X76118D01*
X74119D01*
Y-65567D01*
X81116Y-59569D02*
X79117D01*
X78117Y-60568D01*
Y-64567D01*
X79117Y-65567D01*
X81116D01*
X82116Y-64567D01*
Y-60568D01*
X81116Y-59569D01*
X84115Y-65567D02*
Y-59569D01*
X87114D01*
X88114Y-60568D01*
Y-62568D01*
X87114Y-63567D01*
X84115D01*
X100110Y-60568D02*
X99111Y-59569D01*
X97111D01*
X96112Y-60568D01*
Y-61568D01*
X97111Y-62568D01*
X99111D01*
X100110Y-63567D01*
Y-64567D01*
X99111Y-65567D01*
X97111D01*
X96112Y-64567D01*
X102110Y-59569D02*
X104109D01*
X103109D01*
Y-65567D01*
X102110D01*
X104109D01*
X107108Y-59569D02*
Y-65567D01*
X110107D01*
X111107Y-64567D01*
Y-60568D01*
X110107Y-59569D01*
X107108D01*
X117105D02*
X113106D01*
Y-65567D01*
X117105D01*
X113106Y-62568D02*
X115105D01*
X228999Y-101435D02*
X227999Y-100435D01*
X226000D01*
X225000Y-101435D01*
Y-105434D01*
X226000Y-106433D01*
X227999D01*
X228999Y-105434D01*
Y-103435D01*
X226999D01*
X234997Y-100435D02*
X230998D01*
Y-106433D01*
X234997D01*
X230998Y-103435D02*
X232997D01*
X236996Y-106433D02*
Y-100435D01*
X240995Y-106433D01*
Y-100435D01*
X246993D02*
X242994D01*
Y-106433D01*
X246993D01*
X242994Y-103435D02*
X244993D01*
X248992Y-106433D02*
Y-100435D01*
X251991D01*
X252991Y-101435D01*
Y-103435D01*
X251991Y-104434D01*
X248992D01*
X250992D02*
X252991Y-106433D01*
X254990D02*
Y-102435D01*
X256990Y-100435D01*
X258989Y-102435D01*
Y-106433D01*
Y-103435D01*
X254990D01*
X260988Y-100435D02*
X264987D01*
X262988D01*
Y-106433D01*
X270985Y-100435D02*
X266986D01*
Y-106433D01*
X270985D01*
X266986Y-103435D02*
X268986D01*
X272985Y-100435D02*
Y-106433D01*
X275984D01*
X276983Y-105434D01*
Y-101435D01*
X275984Y-100435D01*
X272985D01*
X302975Y-102435D02*
X303975D01*
Y-103435D01*
X302975D01*
Y-102435D01*
Y-105434D02*
X303975D01*
Y-106433D01*
X302975D01*
Y-105434D01*
X311950Y-106433D02*
X313949D01*
X312950D01*
Y-100435D01*
X311950Y-101435D01*
X316948D02*
X317948Y-100435D01*
X319947D01*
X320947Y-101435D01*
Y-105434D01*
X319947Y-106433D01*
X317948D01*
X316948Y-105434D01*
Y-101435D01*
X322946Y-106433D02*
X326945Y-102435D01*
X328944Y-106433D02*
X330944D01*
X329944D01*
Y-100435D01*
X328944Y-101435D01*
X337942Y-106433D02*
X333943D01*
X337942Y-102435D01*
Y-101435D01*
X336942Y-100435D01*
X334943D01*
X333943Y-101435D01*
X339941Y-106433D02*
X343940Y-102435D01*
X349938Y-106433D02*
X345939D01*
X349938Y-102435D01*
Y-101435D01*
X348938Y-100435D01*
X346939D01*
X345939Y-101435D01*
X351937D02*
X352937Y-100435D01*
X354936D01*
X355936Y-101435D01*
Y-105434D01*
X354936Y-106433D01*
X352937D01*
X351937Y-105434D01*
Y-101435D01*
X357935Y-106433D02*
X359934D01*
X358935D01*
Y-100435D01*
X357935Y-101435D01*
X362933Y-100435D02*
X366932D01*
Y-101435D01*
X362933Y-105434D01*
Y-106433D01*
X44300Y-100501D02*
X47299D01*
X45799D01*
Y-105000D01*
X48799Y-100501D02*
X50298D01*
X49548D01*
Y-105000D01*
X48799D01*
X50298D01*
X52547Y-100501D02*
Y-105000D01*
X54797D01*
X55546Y-104250D01*
Y-101251D01*
X54797Y-100501D01*
X52547D01*
X57046Y-105000D02*
Y-102001D01*
X58545Y-100501D01*
X60045Y-102001D01*
Y-105000D01*
Y-102751D01*
X57046D01*
X61544D02*
X64543D01*
X66043Y-101251D02*
X66793Y-100501D01*
X68292D01*
X69042Y-101251D01*
Y-104250D01*
X68292Y-105000D01*
X66793D01*
X66043Y-104250D01*
Y-101251D01*
X70542Y-105000D02*
X72041D01*
X71291D01*
Y-100501D01*
X70542Y-101251D01*
X77289Y-100501D02*
X74290D01*
Y-102751D01*
X75790Y-102001D01*
X76540D01*
X77289Y-102751D01*
Y-104250D01*
X76540Y-105000D01*
X75040D01*
X74290Y-104250D01*
X78789Y-100501D02*
X81788D01*
Y-101251D01*
X78789Y-104250D01*
Y-105000D01*
X86286Y-100501D02*
X84787Y-101251D01*
X83287Y-102751D01*
Y-104250D01*
X84037Y-105000D01*
X85537D01*
X86286Y-104250D01*
Y-103500D01*
X85537Y-102751D01*
X83287D01*
X87786Y-105750D02*
X90785D01*
X92285Y-100501D02*
Y-105000D01*
X94534D01*
X95284Y-104250D01*
Y-101251D01*
X94534Y-100501D01*
X92285D01*
X96783D02*
Y-104250D01*
X97533Y-105000D01*
X99032D01*
X99782Y-104250D01*
Y-100501D01*
X101282Y-105000D02*
Y-102001D01*
X102781Y-100501D01*
X104281Y-102001D01*
Y-105000D01*
Y-102751D01*
X101282D01*
X105780Y-100501D02*
Y-105000D01*
X108779D01*
X110279Y-105750D02*
X113278D01*
X117776Y-101251D02*
X117026Y-100501D01*
X115527D01*
X114777Y-101251D01*
Y-102001D01*
X115527Y-102751D01*
X117026D01*
X117776Y-103500D01*
Y-104250D01*
X117026Y-105000D01*
X115527D01*
X114777Y-104250D01*
X119276Y-100501D02*
Y-105000D01*
X121525D01*
X122275Y-104250D01*
Y-101251D01*
X121525Y-100501D01*
X119276D01*
X126024D02*
X124524D01*
X123774Y-101251D01*
Y-104250D01*
X124524Y-105000D01*
X126024D01*
X126773Y-104250D01*
Y-101251D01*
X126024Y-100501D01*
X131272D02*
X128273D01*
Y-105000D01*
X131272D01*
X128273Y-102751D02*
X129772D01*
X132772Y-105000D02*
X134271D01*
X133521D01*
Y-100501D01*
X132772Y-101251D01*
X136520Y-105000D02*
Y-104250D01*
X137270D01*
Y-105000D01*
X136520D01*
X143268Y-101251D02*
X142518Y-100501D01*
X141019D01*
X140269Y-101251D01*
Y-104250D01*
X141019Y-105000D01*
X142518D01*
X143268Y-104250D01*
Y-102751D01*
X141769D01*
X144768Y-105000D02*
Y-100501D01*
X146267Y-102001D01*
X147767Y-100501D01*
Y-105000D01*
X152265Y-100501D02*
X149266D01*
Y-102751D01*
X150766Y-102001D01*
X151515D01*
X152265Y-102751D01*
Y-104250D01*
X151515Y-105000D01*
X150016D01*
X149266Y-104250D01*
X380500Y-66000D02*
Y-60002D01*
X383499D01*
X384499Y-61002D01*
Y-63001D01*
X383499Y-64001D01*
X380500D01*
X382499D02*
X384499Y-66000D01*
X390497Y-60002D02*
X386498D01*
Y-66000D01*
X390497D01*
X386498Y-63001D02*
X388497D01*
X392496Y-60002D02*
Y-64001D01*
X394496Y-66000D01*
X396495Y-64001D01*
Y-60002D01*
X398494Y-62001D02*
X399494D01*
Y-63001D01*
X398494D01*
Y-62001D01*
Y-65000D02*
X399494D01*
Y-66000D01*
X398494D01*
Y-65000D01*
X413489Y-60002D02*
X409491D01*
Y-66000D01*
X413489D01*
X409491Y-63001D02*
X411490D01*
X419487Y-66000D02*
X415489D01*
X419487Y-62001D01*
Y-61002D01*
X418488Y-60002D01*
X416488D01*
X415489Y-61002D01*
X218900Y-38402D02*
X219900Y-37402D01*
X221899D01*
X222899Y-38402D01*
Y-42400D01*
X221899Y-43400D01*
X219900D01*
X218900Y-42400D01*
Y-38402D01*
X224898D02*
X225898Y-37402D01*
X227897D01*
X228897Y-38402D01*
Y-42400D01*
X227897Y-43400D01*
X225898D01*
X224898Y-42400D01*
Y-38402D01*
X230896Y-43400D02*
X232895D01*
X231896D01*
Y-37402D01*
X230896Y-38402D01*
X115300Y-43400D02*
Y-39401D01*
X117299Y-37402D01*
X119299Y-39401D01*
Y-43400D01*
Y-40401D01*
X115300D01*
X125297Y-38402D02*
X124297Y-37402D01*
X122298D01*
X121298Y-38402D01*
Y-39401D01*
X122298Y-40401D01*
X124297D01*
X125297Y-41401D01*
Y-42400D01*
X124297Y-43400D01*
X122298D01*
X121298Y-42400D01*
X131295Y-38402D02*
X130295Y-37402D01*
X128296D01*
X127296Y-38402D01*
Y-39401D01*
X128296Y-40401D01*
X130295D01*
X131295Y-41401D01*
Y-42400D01*
X130295Y-43400D01*
X128296D01*
X127296Y-42400D01*
X137293Y-37402D02*
X133294D01*
Y-43400D01*
X137293D01*
X133294Y-40401D02*
X135293D01*
X139292Y-43400D02*
Y-37402D01*
X141292Y-39401D01*
X143291Y-37402D01*
Y-43400D01*
X145290Y-37402D02*
Y-43400D01*
X148289D01*
X149289Y-42400D01*
Y-41401D01*
X148289Y-40401D01*
X145290D01*
X148289D01*
X149289Y-39401D01*
Y-38402D01*
X148289Y-37402D01*
X145290D01*
X151288D02*
Y-43400D01*
X155287D01*
X157286Y-37402D02*
Y-38402D01*
X159286Y-40401D01*
X161285Y-38402D01*
Y-37402D01*
X159286Y-40401D02*
Y-43400D01*
X169282Y-37402D02*
Y-41401D01*
X171282Y-43400D01*
X173281Y-41401D01*
Y-37402D01*
X175281Y-43400D02*
Y-39401D01*
X177280Y-37402D01*
X179279Y-39401D01*
Y-43400D01*
Y-40401D01*
X175281D01*
X181279Y-43400D02*
Y-37402D01*
X184278D01*
X185277Y-38402D01*
Y-40401D01*
X184278Y-41401D01*
X181279D01*
X183278D02*
X185277Y-43400D01*
X187277Y-37402D02*
X189276D01*
X188276D01*
Y-43400D01*
X187277D01*
X189276D01*
X192275D02*
Y-39401D01*
X194274Y-37402D01*
X196274Y-39401D01*
Y-43400D01*
Y-40401D01*
X192275D01*
X198273Y-43400D02*
Y-37402D01*
X202272Y-43400D01*
Y-37402D01*
X204271D02*
X208270D01*
X206271D01*
Y-43400D01*
X210269Y-39401D02*
X211269D01*
Y-40401D01*
X210269D01*
Y-39401D01*
Y-42400D02*
X211269D01*
Y-43400D01*
X210269D01*
Y-42400D01*
X119349Y-26852D02*
X118349Y-25852D01*
X116350D01*
X115350Y-26852D01*
Y-30850D01*
X116350Y-31850D01*
X118349D01*
X119349Y-30850D01*
X124347Y-25852D02*
X122348D01*
X121348Y-26852D01*
Y-30850D01*
X122348Y-31850D01*
X124347D01*
X125347Y-30850D01*
Y-26852D01*
X124347Y-25852D01*
X127346Y-31850D02*
Y-25852D01*
X129346Y-27851D01*
X131345Y-25852D01*
Y-31850D01*
X133344D02*
Y-25852D01*
X136343D01*
X137343Y-26852D01*
Y-28851D01*
X136343Y-29851D01*
X133344D01*
X142341Y-25852D02*
X140342D01*
X139342Y-26852D01*
Y-30850D01*
X140342Y-31850D01*
X142341D01*
X143341Y-30850D01*
Y-26852D01*
X142341Y-25852D01*
X145340Y-31850D02*
Y-25852D01*
X149339Y-31850D01*
Y-25852D01*
X155337D02*
X151338D01*
Y-31850D01*
X155337D01*
X151338Y-28851D02*
X153338D01*
X157336Y-31850D02*
Y-25852D01*
X161335Y-31850D01*
Y-25852D01*
X163335D02*
X167333D01*
X165334D01*
Y-31850D01*
X173331Y-26852D02*
X172332Y-25852D01*
X170332D01*
X169333Y-26852D01*
Y-27851D01*
X170332Y-28851D01*
X172332D01*
X173331Y-29851D01*
Y-30850D01*
X172332Y-31850D01*
X170332D01*
X169333Y-30850D01*
X181329Y-31850D02*
Y-25852D01*
X183328Y-27851D01*
X185327Y-25852D01*
Y-31850D01*
X187327D02*
Y-27851D01*
X189326Y-25852D01*
X191325Y-27851D01*
Y-31850D01*
Y-28851D01*
X187327D01*
X193325Y-31850D02*
Y-25852D01*
X196324D01*
X197324Y-26852D01*
Y-28851D01*
X196324Y-29851D01*
X193325D01*
X195324D02*
X197324Y-31850D01*
X199323Y-25852D02*
Y-31850D01*
Y-29851D01*
X203322Y-25852D01*
X200323Y-28851D01*
X203322Y-31850D01*
X209320Y-25852D02*
X205321D01*
Y-31850D01*
X209320D01*
X205321Y-28851D02*
X207320D01*
X211319Y-25852D02*
Y-31850D01*
X214318D01*
X215318Y-30850D01*
Y-26852D01*
X214318Y-25852D01*
X211319D01*
X224315Y-24852D02*
Y-26852D01*
X223315Y-27851D01*
X227314Y-25852D02*
Y-31850D01*
X230313D01*
X231312Y-30850D01*
Y-26852D01*
X230313Y-25852D01*
X227314D01*
X233312Y-31850D02*
Y-25852D01*
X237311Y-31850D01*
Y-25852D01*
X239310Y-31850D02*
Y-25852D01*
X242309D01*
X243309Y-26852D01*
Y-28851D01*
X242309Y-29851D01*
X239310D01*
X246308Y-24852D02*
Y-26852D01*
X245308Y-27851D01*
X259303Y-26852D02*
X258304Y-25852D01*
X256304D01*
X255305Y-26852D01*
Y-27851D01*
X256304Y-28851D01*
X258304D01*
X259303Y-29851D01*
Y-30850D01*
X258304Y-31850D01*
X256304D01*
X255305Y-30850D01*
X261303Y-25852D02*
Y-31850D01*
Y-28851D01*
X265301D01*
Y-25852D01*
Y-31850D01*
X270300Y-25852D02*
X268301D01*
X267301Y-26852D01*
Y-30850D01*
X268301Y-31850D01*
X270300D01*
X271300Y-30850D01*
Y-26852D01*
X270300Y-25852D01*
X273299D02*
Y-30850D01*
X274299Y-31850D01*
X276298D01*
X277298Y-30850D01*
Y-25852D01*
X279297D02*
Y-31850D01*
X283296D01*
X285295Y-25852D02*
Y-31850D01*
X288294D01*
X289294Y-30850D01*
Y-26852D01*
X288294Y-25852D01*
X285295D01*
X297291Y-31850D02*
Y-25852D01*
X301290Y-31850D01*
Y-25852D01*
X306288D02*
X304289D01*
X303289Y-26852D01*
Y-30850D01*
X304289Y-31850D01*
X306288D01*
X307288Y-30850D01*
Y-26852D01*
X306288Y-25852D01*
X309287D02*
X313286D01*
X311287D01*
Y-31850D01*
X321283Y-25852D02*
Y-31850D01*
X324282D01*
X325282Y-30850D01*
Y-29851D01*
X324282Y-28851D01*
X321283D01*
X324282D01*
X325282Y-27851D01*
Y-26852D01*
X324282Y-25852D01*
X321283D01*
X331280D02*
X327281D01*
Y-31850D01*
X331280D01*
X327281Y-28851D02*
X329281D01*
X339278Y-31850D02*
Y-25852D01*
X342277D01*
X343276Y-26852D01*
Y-28851D01*
X342277Y-29851D01*
X339278D01*
X348275Y-25852D02*
X346275D01*
X345276Y-26852D01*
Y-30850D01*
X346275Y-31850D01*
X348275D01*
X349274Y-30850D01*
Y-26852D01*
X348275Y-25852D01*
X351274Y-31850D02*
Y-25852D01*
X354273D01*
X355272Y-26852D01*
Y-28851D01*
X354273Y-29851D01*
X351274D01*
X357272Y-25852D02*
Y-30850D01*
X358271Y-31850D01*
X360271D01*
X361270Y-30850D01*
Y-25852D01*
X363270D02*
Y-31850D01*
X367268D01*
X369268D02*
Y-27851D01*
X371267Y-25852D01*
X373267Y-27851D01*
Y-31850D01*
Y-28851D01*
X369268D01*
X375266Y-25852D02*
X379265D01*
X377265D01*
Y-31850D01*
X385263Y-25852D02*
X381264D01*
Y-31850D01*
X385263D01*
X381264Y-28851D02*
X383263D01*
X387262Y-25852D02*
Y-31850D01*
X390261D01*
X391261Y-30850D01*
Y-26852D01*
X390261Y-25852D01*
X387262D01*
X393260Y-31850D02*
Y-30850D01*
X394260D01*
Y-31850D01*
X393260D01*
G54D15*
X236850Y55575D02*
X243150D01*
Y52425D02*
Y55575D01*
X236850Y52425D02*
X243150D01*
X236850D02*
Y55575D01*
X201650Y172425D02*
Y175575D01*
X195350D02*
X201650D01*
X195350Y172425D02*
Y175575D01*
Y172425D02*
X201650D01*
X211850Y72575D02*
X218150D01*
Y69425D02*
Y72575D01*
X211850Y69425D02*
X218150D01*
X211850D02*
Y72575D01*
X236850Y253925D02*
Y257075D01*
Y253925D02*
X243150D01*
Y257075D01*
X236850D02*
X243150D01*
X72900Y179432D02*
X74566D01*
X73733D01*
Y176933D01*
X75399D02*
Y179432D01*
X76649D01*
X77065Y179016D01*
Y178183D01*
X76649Y177766D01*
X75399D01*
X79564Y176933D02*
X77898D01*
X79564Y178599D01*
Y179016D01*
X79148Y179432D01*
X78315D01*
X77898Y179016D01*
X82064Y179432D02*
X80398D01*
Y178183D01*
X81231Y178599D01*
X81647D01*
X82064Y178183D01*
Y177350D01*
X81647Y176933D01*
X80814D01*
X80398Y177350D01*
X215666Y95433D02*
X215199Y95899D01*
X214266D01*
X213800Y95433D01*
Y93567D01*
X214266Y93100D01*
X215199D01*
X215666Y93567D01*
X216599Y95433D02*
X217066Y95899D01*
X217999D01*
X218465Y95433D01*
Y94966D01*
X217999Y94499D01*
X217532D01*
X217999D01*
X218465Y94033D01*
Y93567D01*
X217999Y93100D01*
X217066D01*
X216599Y93567D01*
X219398Y95433D02*
X219865Y95899D01*
X220798D01*
X221264Y95433D01*
Y93567D01*
X220798Y93100D01*
X219865D01*
X219398Y93567D01*
Y95433D01*
X141667Y159266D02*
X141201Y158800D01*
Y157867D01*
X141667Y157400D01*
X143534D01*
X144000Y157867D01*
Y158800D01*
X143534Y159266D01*
X144000Y160199D02*
Y161132D01*
Y160666D01*
X141201D01*
X141667Y160199D01*
Y162532D02*
X141201Y162998D01*
Y163931D01*
X141667Y164398D01*
X142134D01*
X142601Y163931D01*
X143067Y164398D01*
X143534D01*
X144000Y163931D01*
Y162998D01*
X143534Y162532D01*
X143067D01*
X142601Y162998D01*
X142134Y162532D01*
X141667D01*
X142601Y162998D02*
Y163931D01*
X201100Y223399D02*
Y221317D01*
X201517Y220900D01*
X202350D01*
X202766Y221317D01*
Y223399D01*
X205265D02*
X203599D01*
Y222150D01*
X204432Y222566D01*
X204849D01*
X205265Y222150D01*
Y221317D01*
X204849Y220900D01*
X204016D01*
X203599Y221317D01*
G54D16*
X182100Y89400D02*
D03*
G54D17*
X18100Y149500D02*
D03*
X18100Y216000D02*
D03*
X17900Y248900D02*
D03*
X18100Y182300D02*
D03*
X18000Y318300D02*
D03*
X18000Y285950D02*
D03*
X18103Y117000D02*
D03*
X18200Y81200D02*
D03*
G54D18*
X210594Y94605D02*
D03*
X183807Y163495D02*
D03*
G54D19*
X20900Y475100D02*
D03*
X20600Y441600D02*
D03*
X20700Y453600D02*
D03*
X20900Y464400D02*
D03*
G54D20*
X159400Y353900D02*
D03*
X196000D02*
D03*
X126800Y18300D02*
D03*
X160700Y18100D02*
D03*
X66000Y18100D02*
D03*
X97000D02*
D03*
X125300Y353789D02*
D03*
X87400Y353817D02*
D03*
G54D21*
X142493Y154193D02*
D03*
G54D22*
X190200Y210000D02*
D03*
M02*
