%FSLAX25Y25*%
%MOIN*%
G70*
G01*
G75*
G04 Layer_Physical_Order=1*
G04 Layer_Color=255*
%ADD10R,0.04134X0.01575*%
%ADD11R,0.03937X0.03740*%
%ADD12R,0.03740X0.03937*%
%ADD13O,0.02756X0.05118*%
%ADD14R,0.02756X0.05118*%
%ADD15R,0.10039X0.09055*%
%ADD16R,0.04488X0.05512*%
%ADD17R,0.07874X0.06496*%
%ADD18C,0.02000*%
%ADD19C,0.01500*%
%ADD20C,0.01000*%
%ADD21C,0.06000*%
%ADD22C,0.08700*%
%ADD23C,0.12500*%
%ADD24C,0.05000*%
G36*
X158000Y2000D02*
X2000D01*
Y188000D01*
X158000D01*
Y2000D01*
D02*
G37*
%LPC*%
G36*
X91000Y122993D02*
X89708Y122823D01*
X88504Y122324D01*
X87470Y121530D01*
X86676Y120496D01*
X86177Y119292D01*
X86007Y118000D01*
X86177Y116708D01*
X86676Y115504D01*
X87470Y114470D01*
X88504Y113676D01*
X89369Y113318D01*
Y106128D01*
X85030D01*
Y95872D01*
X89018D01*
Y92470D01*
X88282D01*
Y87530D01*
X89219D01*
Y85470D01*
X88282D01*
Y80530D01*
X89219D01*
Y79189D01*
X88877Y78677D01*
X88723Y77905D01*
Y75543D01*
X88877Y74772D01*
X89109Y74425D01*
Y69575D01*
X88877Y69228D01*
X88723Y68457D01*
Y66094D01*
X88877Y65323D01*
X89314Y64669D01*
X89968Y64231D01*
X90740Y64078D01*
X91512Y64231D01*
X92166Y64669D01*
X92603Y65323D01*
X92757Y66094D01*
Y68457D01*
X92603Y69228D01*
X92371Y69575D01*
Y74425D01*
X92603Y74772D01*
X92757Y75543D01*
Y77905D01*
X92603Y78677D01*
X92482Y78859D01*
Y80530D01*
X93419D01*
Y85470D01*
X92482D01*
Y87530D01*
X93419D01*
Y92470D01*
X92281D01*
Y95872D01*
X96269D01*
Y106128D01*
X92631D01*
Y113318D01*
X93496Y113676D01*
X94530Y114470D01*
X95324Y115504D01*
X95823Y116708D01*
X95993Y118000D01*
X95823Y119292D01*
X95324Y120496D01*
X94530Y121530D01*
X93496Y122324D01*
X92292Y122823D01*
X91000Y122993D01*
D02*
G37*
G36*
X140000Y26883D02*
X138657Y26751D01*
X137366Y26359D01*
X136176Y25723D01*
X135133Y24867D01*
X134277Y23824D01*
X133641Y22634D01*
X133249Y21343D01*
X133117Y20000D01*
X133249Y18657D01*
X133641Y17366D01*
X134277Y16176D01*
X135133Y15133D01*
X136176Y14277D01*
X137366Y13641D01*
X138657Y13249D01*
X140000Y13117D01*
X141343Y13249D01*
X142634Y13641D01*
X143824Y14277D01*
X144867Y15133D01*
X145723Y16176D01*
X146359Y17366D01*
X146751Y18657D01*
X146883Y20000D01*
X146751Y21343D01*
X146359Y22634D01*
X145723Y23824D01*
X144867Y24867D01*
X143824Y25723D01*
X142634Y26359D01*
X141343Y26751D01*
X140000Y26883D01*
D02*
G37*
G36*
X20000D02*
X18657Y26751D01*
X17366Y26359D01*
X16176Y25723D01*
X15133Y24867D01*
X14277Y23824D01*
X13641Y22634D01*
X13249Y21343D01*
X13117Y20000D01*
X13249Y18657D01*
X13641Y17366D01*
X14277Y16176D01*
X15133Y15133D01*
X16176Y14277D01*
X17366Y13641D01*
X18657Y13249D01*
X20000Y13117D01*
X21343Y13249D01*
X22634Y13641D01*
X23824Y14277D01*
X24867Y15133D01*
X25723Y16176D01*
X26359Y17366D01*
X26751Y18657D01*
X26883Y20000D01*
X26751Y21343D01*
X26359Y22634D01*
X25723Y23824D01*
X24867Y24867D01*
X23824Y25723D01*
X22634Y26359D01*
X21343Y26751D01*
X20000Y26883D01*
D02*
G37*
G36*
Y176883D02*
X18657Y176751D01*
X17366Y176359D01*
X16176Y175723D01*
X15133Y174867D01*
X14277Y173824D01*
X13641Y172634D01*
X13249Y171343D01*
X13117Y170000D01*
X13249Y168657D01*
X13641Y167366D01*
X14277Y166176D01*
X15133Y165133D01*
X16176Y164277D01*
X17366Y163641D01*
X18657Y163249D01*
X20000Y163117D01*
X21343Y163249D01*
X22634Y163641D01*
X23824Y164277D01*
X24867Y165133D01*
X25723Y166176D01*
X26359Y167366D01*
X26751Y168657D01*
X26883Y170000D01*
X26751Y171343D01*
X26359Y172634D01*
X25723Y173824D01*
X24867Y174867D01*
X23824Y175723D01*
X22634Y176359D01*
X21343Y176751D01*
X20000Y176883D01*
D02*
G37*
G36*
X140000D02*
X138657Y176751D01*
X137366Y176359D01*
X136176Y175723D01*
X135133Y174867D01*
X134277Y173824D01*
X133641Y172634D01*
X133249Y171343D01*
X133117Y170000D01*
X133249Y168657D01*
X133641Y167366D01*
X134277Y166176D01*
X135133Y165133D01*
X136176Y164277D01*
X137366Y163641D01*
X138657Y163249D01*
X140000Y163117D01*
X141343Y163249D01*
X142634Y163641D01*
X143824Y164277D01*
X144867Y165133D01*
X145723Y166176D01*
X146359Y167366D01*
X146751Y168657D01*
X146883Y170000D01*
X146751Y171343D01*
X146359Y172634D01*
X145723Y173824D01*
X144867Y174867D01*
X143824Y175723D01*
X142634Y176359D01*
X141343Y176751D01*
X140000Y176883D01*
D02*
G37*
G36*
X73000Y100993D02*
X71708Y100823D01*
X70504Y100324D01*
X69470Y99530D01*
X68676Y98496D01*
X68177Y97292D01*
X68007Y96000D01*
X68177Y94708D01*
X68676Y93504D01*
X69470Y92470D01*
X70504Y91676D01*
X71708Y91177D01*
X73000Y91007D01*
X74292Y91177D01*
X75157Y91536D01*
X81629Y85064D01*
Y83740D01*
Y79024D01*
X81397Y78677D01*
X81243Y77905D01*
Y77015D01*
X77595Y73367D01*
X77470Y73419D01*
Y73419D01*
X77470Y73419D01*
X72530D01*
Y72482D01*
X70470D01*
Y73419D01*
X65530D01*
Y71935D01*
X64407D01*
Y71947D01*
X59073D01*
Y69172D01*
X59593D01*
X60526Y68548D01*
X60520Y68552D01*
X60598Y68025D01*
Y67975D01*
X60520Y67448D01*
X59593Y66828D01*
X59073D01*
Y64053D01*
X61181D01*
X62208Y63027D01*
X62208Y63027D01*
X62654Y62728D01*
X62654Y62728D01*
X62654Y62728D01*
D01*
X62654Y62728D01*
X62654Y62728D01*
X63181Y62624D01*
X63181Y62624D01*
X65530D01*
Y61581D01*
X70470D01*
Y62624D01*
X72530D01*
Y61581D01*
X77470D01*
Y62624D01*
X79984D01*
X80511Y62728D01*
X80958Y63027D01*
X81026Y63095D01*
X81883Y62740D01*
X81988Y62213D01*
X82287Y61767D01*
X90027Y54027D01*
X90027D01*
X90027Y54027D01*
X90027Y54027D01*
Y54027D01*
X90473Y53728D01*
X91000Y53624D01*
X101212D01*
X101676Y52504D01*
X102470Y51470D01*
X103504Y50676D01*
X104708Y50177D01*
X106000Y50007D01*
X107292Y50177D01*
X108496Y50676D01*
X109530Y51470D01*
X110324Y52504D01*
X110823Y53708D01*
X110993Y55000D01*
X110823Y56292D01*
X110324Y57496D01*
X109530Y58530D01*
X108496Y59324D01*
X107292Y59823D01*
X106000Y59993D01*
X104708Y59823D01*
X103504Y59324D01*
X102470Y58530D01*
X101676Y57496D01*
X101212Y56376D01*
X91570D01*
X84754Y63193D01*
X85137Y64117D01*
X85238D01*
Y70435D01*
X81282D01*
Y67244D01*
X79414Y65376D01*
X77470D01*
Y66718D01*
X72530D01*
Y65376D01*
X70470D01*
Y66718D01*
X65530D01*
Y65376D01*
X64407D01*
Y66828D01*
X63779D01*
X63556Y66978D01*
X63044Y67601D01*
X63080Y67782D01*
X62994Y68211D01*
X62942Y68290D01*
X63413Y69172D01*
X64407D01*
Y69183D01*
X65530D01*
Y68282D01*
X70470D01*
Y69219D01*
X72530D01*
Y68282D01*
X77470D01*
Y69236D01*
X78010Y69343D01*
X78539Y69697D01*
X82517Y73674D01*
X83260Y73527D01*
X84032Y73680D01*
X84686Y74117D01*
X85123Y74772D01*
X85277Y75543D01*
Y77905D01*
X85123Y78677D01*
X84891Y79024D01*
Y83740D01*
Y85740D01*
X84767Y86364D01*
X84413Y86894D01*
X77464Y93843D01*
X77823Y94708D01*
X77993Y96000D01*
X77823Y97292D01*
X77324Y98496D01*
X76530Y99530D01*
X75496Y100324D01*
X74292Y100823D01*
X73000Y100993D01*
D02*
G37*
G36*
X44000Y96993D02*
X42708Y96823D01*
X41504Y96324D01*
X40470Y95530D01*
X39676Y94496D01*
X39177Y93292D01*
X39007Y92000D01*
X39177Y90708D01*
X39676Y89504D01*
X40369Y88601D01*
Y82848D01*
X39240D01*
Y82844D01*
X38334D01*
Y82844D01*
X32646D01*
Y76132D01*
X34113D01*
Y74510D01*
X34218Y73983D01*
X34517Y73537D01*
X38468Y69586D01*
X38468Y69586D01*
X38735Y69407D01*
X38914Y69287D01*
X39441Y69183D01*
X46929D01*
X47312Y68259D01*
X44508Y65455D01*
X44210Y65008D01*
X44105Y64481D01*
Y59402D01*
X42637D01*
Y52690D01*
X48325D01*
Y59402D01*
X46858D01*
Y63911D01*
X49570Y66624D01*
X51593D01*
Y66613D01*
Y64053D01*
X52883D01*
Y58394D01*
Y48740D01*
X52883Y48740D01*
X52883D01*
X52988Y48213D01*
X53286Y47767D01*
X58641Y42412D01*
X58177Y41292D01*
X58007Y40000D01*
X58177Y38708D01*
X58676Y37504D01*
X59470Y36470D01*
X60504Y35676D01*
X61708Y35177D01*
X63000Y35007D01*
X64292Y35177D01*
X65496Y35676D01*
X66530Y36470D01*
X67324Y37504D01*
X67823Y38708D01*
X67993Y40000D01*
X67823Y41292D01*
X67324Y42496D01*
X66530Y43530D01*
X65496Y44324D01*
X64292Y44823D01*
X63000Y44993D01*
X61708Y44823D01*
X60588Y44359D01*
X55636Y49310D01*
Y58394D01*
Y64053D01*
X56927D01*
Y66613D01*
Y69172D01*
Y71947D01*
X51593D01*
Y71935D01*
X40011D01*
X36866Y75080D01*
Y76132D01*
X38334D01*
Y76132D01*
X38533D01*
X39240Y75425D01*
Y75152D01*
X48314D01*
Y82848D01*
X47631D01*
Y88601D01*
X48324Y89504D01*
X48823Y90708D01*
X48993Y92000D01*
X48823Y93292D01*
X48324Y94496D01*
X47530Y95530D01*
X46496Y96324D01*
X45292Y96823D01*
X44000Y96993D01*
D02*
G37*
%LPD*%
D10*
X61740Y65441D02*
D03*
Y68000D02*
D03*
Y70559D02*
D03*
X54260D02*
D03*
Y68000D02*
D03*
Y65441D02*
D03*
D11*
X97150Y90000D02*
D03*
X90850D02*
D03*
X97150Y83000D02*
D03*
X90850D02*
D03*
D12*
X68000Y77150D02*
D03*
Y70850D02*
D03*
X75000Y77150D02*
D03*
Y70850D02*
D03*
Y64150D02*
D03*
Y57850D02*
D03*
X68000Y64150D02*
D03*
Y57850D02*
D03*
D13*
X83260Y76724D02*
D03*
X90740D02*
D03*
Y67276D02*
D03*
X87000D02*
D03*
D14*
X83260D02*
D03*
D15*
X90650Y101000D02*
D03*
X109350D02*
D03*
D16*
X35490Y79488D02*
D03*
X45481Y56046D02*
D03*
D17*
X43777Y79000D02*
D03*
X37194Y56533D02*
D03*
D18*
X91000Y101350D02*
Y118000D01*
X90740Y67276D02*
Y76724D01*
X77386Y70850D02*
X83260Y76724D01*
X68000Y70850D02*
X75000D01*
X77386D01*
X90650Y90201D02*
Y101000D01*
X90850Y76835D02*
Y83000D01*
Y90000D01*
X83260Y76724D02*
Y83740D01*
Y85740D01*
X73000Y96000D02*
X83260Y85740D01*
D19*
X54260Y48740D02*
X63000Y40000D01*
X54260Y48740D02*
Y58394D01*
X91000Y55000D02*
X106000D01*
X83260Y62740D02*
X91000Y55000D01*
X83260Y62740D02*
Y67276D01*
X54260Y58394D02*
Y65441D01*
X61740Y70559D02*
X67709D01*
X61740Y65441D02*
X63181Y64000D01*
X79984D01*
X83260Y67276D01*
X35490Y74510D02*
Y79488D01*
Y74510D02*
X39441Y70559D01*
X54260D01*
X45481Y56046D02*
Y64481D01*
X49000Y68000D01*
X54260D01*
D20*
X160000Y0D02*
Y190000D01*
X0Y0D02*
X160000D01*
X0D02*
Y190000D01*
X160000D01*
X67709Y70559D02*
X68000Y70850D01*
X90650Y90201D02*
X90850Y90000D01*
X61740Y68000D02*
X61958Y67782D01*
D21*
X44000Y79223D02*
Y92000D01*
D22*
D03*
X106000Y55000D02*
D03*
X127000Y101000D02*
D03*
X91000Y40000D02*
D03*
X55000Y118000D02*
D03*
X37000Y44000D02*
D03*
X91000Y118000D02*
D03*
X73000Y96000D02*
D03*
X63000Y40000D02*
D03*
D23*
X140000Y20000D02*
D03*
X20000D02*
D03*
X140000Y170000D02*
D03*
X20000D02*
D03*
D24*
X75000Y83000D02*
D03*
X68000D02*
D03*
X58000Y77000D02*
D03*
X103000Y90000D02*
D03*
Y83000D02*
D03*
X98000Y66000D02*
D03*
X75000Y52000D02*
D03*
X68000D02*
D03*
M02*
