%FSLAX25Y25*%
%MOIN*%
G70*
G01*
G75*
G04 Layer_Physical_Order=2*
G04 Layer_Color=16711680*
%ADD10R,0.04134X0.01575*%
%ADD11R,0.03937X0.03740*%
%ADD12R,0.03740X0.03937*%
%ADD13O,0.02756X0.05118*%
%ADD14R,0.02756X0.05118*%
%ADD15R,0.10039X0.09055*%
%ADD16R,0.04488X0.05512*%
%ADD17R,0.07874X0.06496*%
%ADD18C,0.02000*%
%ADD19C,0.01500*%
%ADD20C,0.01000*%
%ADD21C,0.06000*%
%ADD22C,0.08700*%
%ADD23C,0.12500*%
%ADD24C,0.05000*%
G36*
X158000Y2000D02*
X2000D01*
Y188000D01*
X158000D01*
Y2000D01*
D02*
G37*
%LPC*%
G36*
X63000Y44993D02*
X61708Y44823D01*
X60504Y44324D01*
X59470Y43530D01*
X58676Y42496D01*
X58177Y41292D01*
X58007Y40000D01*
X58177Y38708D01*
X58676Y37504D01*
X59470Y36470D01*
X60504Y35676D01*
X61708Y35177D01*
X63000Y35007D01*
X64292Y35177D01*
X65496Y35676D01*
X66530Y36470D01*
X67324Y37504D01*
X67823Y38708D01*
X67993Y40000D01*
X67823Y41292D01*
X67324Y42496D01*
X66530Y43530D01*
X65496Y44324D01*
X64292Y44823D01*
X63000Y44993D01*
D02*
G37*
G36*
X106000Y59993D02*
X104708Y59823D01*
X103504Y59324D01*
X102470Y58530D01*
X101676Y57496D01*
X101177Y56292D01*
X101007Y55000D01*
X101177Y53708D01*
X101676Y52504D01*
X102470Y51470D01*
X103504Y50676D01*
X104708Y50177D01*
X106000Y50007D01*
X107292Y50177D01*
X108496Y50676D01*
X109530Y51470D01*
X110324Y52504D01*
X110823Y53708D01*
X110993Y55000D01*
X110823Y56292D01*
X110324Y57496D01*
X109530Y58530D01*
X108496Y59324D01*
X107292Y59823D01*
X106000Y59993D01*
D02*
G37*
G36*
X20000Y26883D02*
X18657Y26751D01*
X17366Y26359D01*
X16176Y25723D01*
X15133Y24867D01*
X14277Y23824D01*
X13641Y22634D01*
X13249Y21343D01*
X13117Y20000D01*
X13249Y18657D01*
X13641Y17366D01*
X14277Y16176D01*
X15133Y15133D01*
X16176Y14277D01*
X17366Y13641D01*
X18657Y13249D01*
X20000Y13117D01*
X21343Y13249D01*
X22634Y13641D01*
X23824Y14277D01*
X24867Y15133D01*
X25723Y16176D01*
X26359Y17366D01*
X26751Y18657D01*
X26883Y20000D01*
X26751Y21343D01*
X26359Y22634D01*
X25723Y23824D01*
X24867Y24867D01*
X23824Y25723D01*
X22634Y26359D01*
X21343Y26751D01*
X20000Y26883D01*
D02*
G37*
G36*
X140000D02*
X138657Y26751D01*
X137366Y26359D01*
X136176Y25723D01*
X135133Y24867D01*
X134277Y23824D01*
X133641Y22634D01*
X133249Y21343D01*
X133117Y20000D01*
X133249Y18657D01*
X133641Y17366D01*
X134277Y16176D01*
X135133Y15133D01*
X136176Y14277D01*
X137366Y13641D01*
X138657Y13249D01*
X140000Y13117D01*
X141343Y13249D01*
X142634Y13641D01*
X143824Y14277D01*
X144867Y15133D01*
X145723Y16176D01*
X146359Y17366D01*
X146751Y18657D01*
X146883Y20000D01*
X146751Y21343D01*
X146359Y22634D01*
X145723Y23824D01*
X144867Y24867D01*
X143824Y25723D01*
X142634Y26359D01*
X141343Y26751D01*
X140000Y26883D01*
D02*
G37*
G36*
X20000Y176883D02*
X18657Y176751D01*
X17366Y176359D01*
X16176Y175723D01*
X15133Y174867D01*
X14277Y173824D01*
X13641Y172634D01*
X13249Y171343D01*
X13117Y170000D01*
X13249Y168657D01*
X13641Y167366D01*
X14277Y166176D01*
X15133Y165133D01*
X16176Y164277D01*
X17366Y163641D01*
X18657Y163249D01*
X20000Y163117D01*
X21343Y163249D01*
X22634Y163641D01*
X23824Y164277D01*
X24867Y165133D01*
X25723Y166176D01*
X26359Y167366D01*
X26751Y168657D01*
X26883Y170000D01*
X26751Y171343D01*
X26359Y172634D01*
X25723Y173824D01*
X24867Y174867D01*
X23824Y175723D01*
X22634Y176359D01*
X21343Y176751D01*
X20000Y176883D01*
D02*
G37*
G36*
X140000D02*
X138657Y176751D01*
X137366Y176359D01*
X136176Y175723D01*
X135133Y174867D01*
X134277Y173824D01*
X133641Y172634D01*
X133249Y171343D01*
X133117Y170000D01*
X133249Y168657D01*
X133641Y167366D01*
X134277Y166176D01*
X135133Y165133D01*
X136176Y164277D01*
X137366Y163641D01*
X138657Y163249D01*
X140000Y163117D01*
X141343Y163249D01*
X142634Y163641D01*
X143824Y164277D01*
X144867Y165133D01*
X145723Y166176D01*
X146359Y167366D01*
X146751Y168657D01*
X146883Y170000D01*
X146751Y171343D01*
X146359Y172634D01*
X145723Y173824D01*
X144867Y174867D01*
X143824Y175723D01*
X142634Y176359D01*
X141343Y176751D01*
X140000Y176883D01*
D02*
G37*
G36*
X91000Y122993D02*
X89708Y122823D01*
X88504Y122324D01*
X87470Y121530D01*
X86676Y120496D01*
X86177Y119292D01*
X86007Y118000D01*
X86177Y116708D01*
X86676Y115504D01*
X87470Y114470D01*
X88504Y113676D01*
X89708Y113177D01*
X91000Y113007D01*
X92292Y113177D01*
X93496Y113676D01*
X94530Y114470D01*
X95324Y115504D01*
X95823Y116708D01*
X95993Y118000D01*
X95823Y119292D01*
X95324Y120496D01*
X94530Y121530D01*
X93496Y122324D01*
X92292Y122823D01*
X91000Y122993D01*
D02*
G37*
G36*
X44000Y96993D02*
X42708Y96823D01*
X41504Y96324D01*
X40470Y95530D01*
X39676Y94496D01*
X39177Y93292D01*
X39007Y92000D01*
X39177Y90708D01*
X39676Y89504D01*
X40470Y88470D01*
X41504Y87676D01*
X42708Y87177D01*
X44000Y87007D01*
X45292Y87177D01*
X46496Y87676D01*
X47530Y88470D01*
X48324Y89504D01*
X48823Y90708D01*
X48993Y92000D01*
X48823Y93292D01*
X48324Y94496D01*
X47530Y95530D01*
X46496Y96324D01*
X45292Y96823D01*
X44000Y96993D01*
D02*
G37*
G36*
X73000Y100993D02*
X71708Y100823D01*
X70504Y100324D01*
X69470Y99530D01*
X68676Y98496D01*
X68177Y97292D01*
X68007Y96000D01*
X68177Y94708D01*
X68676Y93504D01*
X69470Y92470D01*
X70504Y91676D01*
X71708Y91177D01*
X73000Y91007D01*
X74292Y91177D01*
X75496Y91676D01*
X76530Y92470D01*
X77324Y93504D01*
X77823Y94708D01*
X77993Y96000D01*
X77823Y97292D01*
X77324Y98496D01*
X76530Y99530D01*
X75496Y100324D01*
X74292Y100823D01*
X73000Y100993D01*
D02*
G37*
%LPD*%
D20*
X0Y190000D02*
X160000D01*
Y0D02*
Y190000D01*
X0Y0D02*
X160000D01*
X0D02*
Y190000D01*
D22*
X44000Y92000D02*
D03*
X106000Y55000D02*
D03*
X127000Y101000D02*
D03*
X91000Y40000D02*
D03*
X55000Y118000D02*
D03*
X37000Y44000D02*
D03*
X91000Y118000D02*
D03*
X73000Y96000D02*
D03*
X63000Y40000D02*
D03*
D23*
X140000Y20000D02*
D03*
X20000D02*
D03*
X140000Y170000D02*
D03*
X20000D02*
D03*
D24*
X75000Y83000D02*
D03*
X68000D02*
D03*
X58000Y77000D02*
D03*
X103000Y90000D02*
D03*
Y83000D02*
D03*
X98000Y66000D02*
D03*
X75000Y52000D02*
D03*
X68000D02*
D03*
M02*
