%FSLAX24Y24*%
%MOIN*%
G70*
G01*
G75*
G04 Layer_Physical_Order=2*
G04 Layer_Color=16711680*
%ADD10R,0.0394X0.0374*%
%ADD11R,0.0374X0.0394*%
%ADD12R,0.1299X0.0945*%
%ADD13R,0.0394X0.0945*%
%ADD14R,0.0965X0.1004*%
%ADD15O,0.0236X0.0748*%
%ADD16R,0.0591X0.0236*%
%ADD17C,0.0450*%
%ADD18C,0.0250*%
%ADD19C,0.0500*%
%ADD20C,0.1000*%
%ADD21C,0.0200*%
%ADD22C,0.0800*%
%ADD23C,0.3937*%
%ADD24R,0.0750X0.0750*%
%ADD25C,0.0748*%
%ADD26C,0.0591*%
%ADD27R,0.0591X0.0591*%
%ADD28C,0.0950*%
%ADD29C,0.1000*%
%ADD30C,0.0500*%
%ADD31C,0.0250*%
G36*
X29847Y153D02*
X153D01*
Y29847D01*
X29847D01*
Y153D01*
D02*
G37*
%LPC*%
G36*
X7827Y12375D02*
X7625D01*
Y12173D01*
X7677Y12194D01*
X7750Y12250D01*
X7806Y12323D01*
X7827Y12375D01*
D02*
G37*
G36*
X12385D02*
X12183D01*
X12204Y12323D01*
X12260Y12250D01*
X12333Y12194D01*
X12385Y12173D01*
Y12375D01*
D02*
G37*
G36*
X12837D02*
X12635D01*
Y12173D01*
X12687Y12194D01*
X12760Y12250D01*
X12816Y12323D01*
X12837Y12375D01*
D02*
G37*
G36*
X7375D02*
X7173D01*
X7194Y12323D01*
X7250Y12250D01*
X7323Y12194D01*
X7375Y12173D01*
Y12375D01*
D02*
G37*
G36*
X20527Y12275D02*
X20325D01*
Y12073D01*
X20377Y12094D01*
X20450Y12150D01*
X20506Y12223D01*
X20527Y12275D01*
D02*
G37*
G36*
X2375Y12375D02*
X2173D01*
X2194Y12323D01*
X2250Y12250D01*
X2323Y12194D01*
X2375Y12173D01*
Y12375D01*
D02*
G37*
G36*
X2827D02*
X2625D01*
Y12173D01*
X2677Y12194D01*
X2750Y12250D01*
X2806Y12323D01*
X2827Y12375D01*
D02*
G37*
G36*
X26375Y12875D02*
X25911D01*
X25943Y12769D01*
X25999Y12665D01*
X26074Y12574D01*
X26165Y12499D01*
X26269Y12443D01*
X26375Y12411D01*
Y12875D01*
D02*
G37*
G36*
X27089D02*
X26625D01*
Y12411D01*
X26731Y12443D01*
X26835Y12499D01*
X26926Y12574D01*
X27001Y12665D01*
X27057Y12769D01*
X27089Y12875D01*
D02*
G37*
G36*
X27375Y12627D02*
X27323Y12606D01*
X27250Y12550D01*
X27194Y12477D01*
X27173Y12425D01*
X27375D01*
Y12627D01*
D02*
G37*
G36*
X25089Y12875D02*
X24625D01*
Y12411D01*
X24731Y12443D01*
X24835Y12499D01*
X24926Y12574D01*
X25001Y12665D01*
X25057Y12769D01*
X25089Y12875D01*
D02*
G37*
G36*
X22675Y12575D02*
X22473D01*
X22494Y12523D01*
X22550Y12450D01*
X22623Y12394D01*
X22675Y12373D01*
Y12575D01*
D02*
G37*
G36*
X23127D02*
X22925D01*
Y12373D01*
X22977Y12394D01*
X23050Y12450D01*
X23106Y12523D01*
X23127Y12575D01*
D02*
G37*
G36*
X24375Y12875D02*
X23911D01*
X23943Y12769D01*
X23999Y12665D01*
X24074Y12574D01*
X24165Y12499D01*
X24269Y12443D01*
X24375Y12411D01*
Y12875D01*
D02*
G37*
G36*
X25500Y11304D02*
X25369Y11287D01*
X25248Y11237D01*
X25143Y11157D01*
X25063Y11052D01*
X25013Y10931D01*
X24996Y10800D01*
X25013Y10669D01*
X25063Y10548D01*
X25143Y10443D01*
X25248Y10363D01*
X25369Y10313D01*
X25500Y10296D01*
X25631Y10313D01*
X25752Y10363D01*
X25857Y10443D01*
X25937Y10548D01*
X25987Y10669D01*
X26004Y10800D01*
X25987Y10931D01*
X25937Y11052D01*
X25857Y11157D01*
X25752Y11237D01*
X25631Y11287D01*
X25500Y11304D01*
D02*
G37*
G36*
X17390Y11375D02*
X17188D01*
X17209Y11323D01*
X17265Y11250D01*
X17338Y11194D01*
X17390Y11173D01*
Y11375D01*
D02*
G37*
G36*
X17842D02*
X17640D01*
Y11173D01*
X17691Y11194D01*
X17765Y11250D01*
X17821Y11323D01*
X17842Y11375D01*
D02*
G37*
G36*
X4625Y12065D02*
Y10125D01*
X6565D01*
X6555Y10271D01*
X6502Y10537D01*
X6415Y10793D01*
X6295Y11036D01*
X6145Y11262D01*
X5966Y11466D01*
X5762Y11645D01*
X5536Y11795D01*
X5293Y11915D01*
X5037Y12002D01*
X4771Y12055D01*
X4625Y12065D01*
D02*
G37*
G36*
X875Y10488D02*
X869Y10487D01*
X748Y10437D01*
X643Y10357D01*
X563Y10252D01*
X513Y10131D01*
X512Y10125D01*
X875D01*
Y10488D01*
D02*
G37*
G36*
X1125D02*
Y10125D01*
X1488D01*
X1487Y10131D01*
X1437Y10252D01*
X1357Y10357D01*
X1252Y10437D01*
X1131Y10487D01*
X1125Y10488D01*
D02*
G37*
G36*
X4375Y12065D02*
X4229Y12055D01*
X3963Y12002D01*
X3707Y11915D01*
X3464Y11795D01*
X3238Y11645D01*
X3034Y11466D01*
X2855Y11262D01*
X2705Y11036D01*
X2585Y10793D01*
X2498Y10537D01*
X2445Y10271D01*
X2435Y10125D01*
X4375D01*
Y12065D01*
D02*
G37*
G36*
X17600Y12799D02*
X17497Y12785D01*
X17401Y12745D01*
X17318Y12682D01*
X17255Y12599D01*
X17215Y12503D01*
X17201Y12400D01*
X17215Y12297D01*
X17255Y12201D01*
X17318Y12118D01*
X17401Y12055D01*
X17497Y12015D01*
X17600Y12001D01*
X17703Y12015D01*
X17799Y12055D01*
X17882Y12118D01*
X17945Y12201D01*
X17985Y12297D01*
X17999Y12400D01*
X17985Y12503D01*
X17945Y12599D01*
X17882Y12682D01*
X17799Y12745D01*
X17703Y12785D01*
X17600Y12799D01*
D02*
G37*
G36*
X16995Y12795D02*
X16205D01*
Y12005D01*
X16995D01*
Y12795D01*
D02*
G37*
G36*
X20075Y12275D02*
X19873D01*
X19894Y12223D01*
X19950Y12150D01*
X20023Y12094D01*
X20075Y12073D01*
Y12275D01*
D02*
G37*
G36*
X27827Y12175D02*
X27625D01*
Y11973D01*
X27677Y11994D01*
X27750Y12050D01*
X27806Y12123D01*
X27827Y12175D01*
D02*
G37*
G36*
X17390Y11827D02*
X17338Y11806D01*
X17265Y11750D01*
X17209Y11677D01*
X17188Y11625D01*
X17390D01*
Y11827D01*
D02*
G37*
G36*
X17640D02*
Y11625D01*
X17842D01*
X17821Y11677D01*
X17765Y11750D01*
X17691Y11806D01*
X17640Y11827D01*
D02*
G37*
G36*
X27375Y12175D02*
X27173D01*
X27194Y12123D01*
X27250Y12050D01*
X27323Y11994D01*
X27375Y11973D01*
Y12175D01*
D02*
G37*
G36*
X27625Y12627D02*
Y12425D01*
X27827D01*
X27806Y12477D01*
X27750Y12550D01*
X27677Y12606D01*
X27625Y12627D01*
D02*
G37*
G36*
X25500Y14580D02*
X25350Y14560D01*
X25210Y14502D01*
X25090Y14410D01*
X24998Y14290D01*
X24940Y14150D01*
X24920Y14000D01*
X24940Y13850D01*
X24998Y13710D01*
X25090Y13590D01*
X25210Y13498D01*
X25350Y13440D01*
X25500Y13420D01*
X25650Y13440D01*
X25790Y13498D01*
X25910Y13590D01*
X26002Y13710D01*
X26060Y13850D01*
X26080Y14000D01*
X26060Y14150D01*
X26002Y14290D01*
X25910Y14410D01*
X25790Y14502D01*
X25650Y14560D01*
X25500Y14580D01*
D02*
G37*
G36*
X17975Y13587D02*
X17937Y13562D01*
X17912Y13525D01*
X17975D01*
Y13587D01*
D02*
G37*
G36*
X18225D02*
Y13525D01*
X18287D01*
X18262Y13562D01*
X18225Y13587D01*
D02*
G37*
G36*
X17100Y14404D02*
X16969Y14387D01*
X16848Y14337D01*
X16743Y14257D01*
X16663Y14152D01*
X16613Y14031D01*
X16596Y13900D01*
X16613Y13769D01*
X16663Y13648D01*
X16743Y13543D01*
X16848Y13463D01*
X16969Y13413D01*
X17100Y13396D01*
X17231Y13413D01*
X17352Y13463D01*
X17457Y13543D01*
X17537Y13648D01*
X17587Y13769D01*
X17604Y13900D01*
X17587Y14031D01*
X17537Y14152D01*
X17457Y14257D01*
X17352Y14337D01*
X17231Y14387D01*
X17100Y14404D01*
D02*
G37*
G36*
X17975Y13275D02*
X17912D01*
X17937Y13238D01*
X17975Y13213D01*
Y13275D01*
D02*
G37*
G36*
X18287D02*
X18225D01*
Y13213D01*
X18262Y13238D01*
X18287Y13275D01*
D02*
G37*
G36*
X12770Y14344D02*
X12639Y14327D01*
X12518Y14277D01*
X12413Y14197D01*
X12333Y14092D01*
X12283Y13971D01*
X12266Y13840D01*
X12283Y13709D01*
X12333Y13588D01*
X12413Y13483D01*
X12518Y13403D01*
X12639Y13353D01*
X12770Y13336D01*
X12901Y13353D01*
X13022Y13403D01*
X13127Y13483D01*
X13207Y13588D01*
X13257Y13709D01*
X13274Y13840D01*
X13257Y13971D01*
X13207Y14092D01*
X13127Y14197D01*
X13022Y14277D01*
X12901Y14327D01*
X12770Y14344D01*
D02*
G37*
G36*
X25089Y14875D02*
X24625D01*
Y14411D01*
X24731Y14443D01*
X24835Y14499D01*
X24926Y14574D01*
X25001Y14665D01*
X25057Y14769D01*
X25089Y14875D01*
D02*
G37*
G36*
X26375D02*
X25911D01*
X25943Y14769D01*
X25999Y14665D01*
X26074Y14574D01*
X26165Y14499D01*
X26269Y14443D01*
X26375Y14411D01*
Y14875D01*
D02*
G37*
G36*
X27089D02*
X26625D01*
Y14411D01*
X26731Y14443D01*
X26835Y14499D01*
X26926Y14574D01*
X27001Y14665D01*
X27057Y14769D01*
X27089Y14875D01*
D02*
G37*
G36*
X24375D02*
X23911D01*
X23943Y14769D01*
X23999Y14665D01*
X24074Y14574D01*
X24165Y14499D01*
X24269Y14443D01*
X24375Y14411D01*
Y14875D01*
D02*
G37*
G36*
X19200Y16250D02*
X18700D01*
Y15300D01*
X18650Y15250D01*
Y14050D01*
X19200D01*
Y16250D01*
D02*
G37*
G36*
X17975Y14190D02*
X17912D01*
X17937Y14153D01*
X17975Y14128D01*
Y14190D01*
D02*
G37*
G36*
X18287D02*
X18225D01*
Y14128D01*
X18262Y14153D01*
X18287Y14190D01*
D02*
G37*
G36*
X7375Y12827D02*
X7323Y12806D01*
X7250Y12750D01*
X7194Y12677D01*
X7173Y12625D01*
X7375D01*
Y12827D01*
D02*
G37*
G36*
X7625D02*
Y12625D01*
X7827D01*
X7806Y12677D01*
X7750Y12750D01*
X7677Y12806D01*
X7625Y12827D01*
D02*
G37*
G36*
X12385D02*
X12333Y12806D01*
X12260Y12750D01*
X12204Y12677D01*
X12183Y12625D01*
X12385D01*
Y12827D01*
D02*
G37*
G36*
X2625D02*
Y12625D01*
X2827D01*
X2806Y12677D01*
X2750Y12750D01*
X2677Y12806D01*
X2625Y12827D01*
D02*
G37*
G36*
X20075Y12727D02*
X20023Y12706D01*
X19950Y12650D01*
X19894Y12577D01*
X19873Y12525D01*
X20075D01*
Y12727D01*
D02*
G37*
G36*
X20325D02*
Y12525D01*
X20527D01*
X20506Y12577D01*
X20450Y12650D01*
X20377Y12706D01*
X20325Y12727D01*
D02*
G37*
G36*
X2375Y12827D02*
X2323Y12806D01*
X2250Y12750D01*
X2194Y12677D01*
X2173Y12625D01*
X2375D01*
Y12827D01*
D02*
G37*
G36*
X24625Y13589D02*
Y13125D01*
X25089D01*
X25057Y13231D01*
X25001Y13335D01*
X24926Y13426D01*
X24835Y13501D01*
X24731Y13557D01*
X24625Y13589D01*
D02*
G37*
G36*
X26375D02*
X26269Y13557D01*
X26165Y13501D01*
X26074Y13426D01*
X25999Y13335D01*
X25943Y13231D01*
X25911Y13125D01*
X26375D01*
Y13589D01*
D02*
G37*
G36*
X26625D02*
Y13125D01*
X27089D01*
X27057Y13231D01*
X27001Y13335D01*
X26926Y13426D01*
X26835Y13501D01*
X26731Y13557D01*
X26625Y13589D01*
D02*
G37*
G36*
X24375D02*
X24269Y13557D01*
X24165Y13501D01*
X24074Y13426D01*
X23999Y13335D01*
X23943Y13231D01*
X23911Y13125D01*
X24375D01*
Y13589D01*
D02*
G37*
G36*
X12635Y12827D02*
Y12625D01*
X12837D01*
X12816Y12677D01*
X12760Y12750D01*
X12687Y12806D01*
X12635Y12827D01*
D02*
G37*
G36*
X22675Y13027D02*
X22623Y13006D01*
X22550Y12950D01*
X22494Y12877D01*
X22473Y12825D01*
X22675D01*
Y13027D01*
D02*
G37*
G36*
X22925D02*
Y12825D01*
X23127D01*
X23106Y12877D01*
X23050Y12950D01*
X22977Y13006D01*
X22925Y13027D01*
D02*
G37*
G36*
X17375Y2827D02*
X17323Y2806D01*
X17250Y2750D01*
X17194Y2677D01*
X17173Y2625D01*
X17375D01*
Y2827D01*
D02*
G37*
G36*
X17625D02*
Y2625D01*
X17827D01*
X17806Y2677D01*
X17750Y2750D01*
X17677Y2806D01*
X17625Y2827D01*
D02*
G37*
G36*
X22365D02*
X22313Y2806D01*
X22240Y2750D01*
X22184Y2677D01*
X22163Y2625D01*
X22365D01*
Y2827D01*
D02*
G37*
G36*
X12625D02*
Y2625D01*
X12827D01*
X12806Y2677D01*
X12750Y2750D01*
X12677Y2806D01*
X12625Y2827D01*
D02*
G37*
G36*
X7375D02*
X7323Y2806D01*
X7250Y2750D01*
X7194Y2677D01*
X7173Y2625D01*
X7375D01*
Y2827D01*
D02*
G37*
G36*
X7625D02*
Y2625D01*
X7827D01*
X7806Y2677D01*
X7750Y2750D01*
X7677Y2806D01*
X7625Y2827D01*
D02*
G37*
G36*
X12375D02*
X12323Y2806D01*
X12250Y2750D01*
X12194Y2677D01*
X12173Y2625D01*
X12375D01*
Y2827D01*
D02*
G37*
G36*
X25988Y6875D02*
X25625D01*
Y6512D01*
X25631Y6513D01*
X25752Y6563D01*
X25857Y6643D01*
X25937Y6748D01*
X25987Y6869D01*
X25988Y6875D01*
D02*
G37*
G36*
X9375Y6876D02*
X9012D01*
X9013Y6870D01*
X9063Y6749D01*
X9143Y6644D01*
X9248Y6564D01*
X9369Y6514D01*
X9375Y6513D01*
Y6876D01*
D02*
G37*
G36*
X9988D02*
X9625D01*
Y6513D01*
X9631Y6514D01*
X9752Y6564D01*
X9857Y6644D01*
X9937Y6749D01*
X9987Y6870D01*
X9988Y6876D01*
D02*
G37*
G36*
X25375Y6875D02*
X25012D01*
X25013Y6869D01*
X25063Y6748D01*
X25143Y6643D01*
X25248Y6563D01*
X25369Y6513D01*
X25375Y6512D01*
Y6875D01*
D02*
G37*
G36*
X22615Y2827D02*
Y2625D01*
X22817D01*
X22796Y2677D01*
X22740Y2750D01*
X22667Y2806D01*
X22615Y2827D01*
D02*
G37*
G36*
X27375D02*
X27323Y2806D01*
X27250Y2750D01*
X27194Y2677D01*
X27173Y2625D01*
X27375D01*
Y2827D01*
D02*
G37*
G36*
X27625D02*
Y2625D01*
X27827D01*
X27806Y2677D01*
X27750Y2750D01*
X27677Y2806D01*
X27625Y2827D01*
D02*
G37*
G36*
X12375Y2375D02*
X12173D01*
X12194Y2323D01*
X12250Y2250D01*
X12323Y2194D01*
X12375Y2173D01*
Y2375D01*
D02*
G37*
G36*
X12827D02*
X12625D01*
Y2173D01*
X12677Y2194D01*
X12750Y2250D01*
X12806Y2323D01*
X12827Y2375D01*
D02*
G37*
G36*
X17375D02*
X17173D01*
X17194Y2323D01*
X17250Y2250D01*
X17323Y2194D01*
X17375Y2173D01*
Y2375D01*
D02*
G37*
G36*
X7827D02*
X7625D01*
Y2173D01*
X7677Y2194D01*
X7750Y2250D01*
X7806Y2323D01*
X7827Y2375D01*
D02*
G37*
G36*
X2375D02*
X2173D01*
X2194Y2323D01*
X2250Y2250D01*
X2323Y2194D01*
X2375Y2173D01*
Y2375D01*
D02*
G37*
G36*
X2827D02*
X2625D01*
Y2173D01*
X2677Y2194D01*
X2750Y2250D01*
X2806Y2323D01*
X2827Y2375D01*
D02*
G37*
G36*
X7375D02*
X7173D01*
X7194Y2323D01*
X7250Y2250D01*
X7323Y2194D01*
X7375Y2173D01*
Y2375D01*
D02*
G37*
G36*
X27827D02*
X27625D01*
Y2173D01*
X27677Y2194D01*
X27750Y2250D01*
X27806Y2323D01*
X27827Y2375D01*
D02*
G37*
G36*
X2375Y2827D02*
X2323Y2806D01*
X2250Y2750D01*
X2194Y2677D01*
X2173Y2625D01*
X2375D01*
Y2827D01*
D02*
G37*
G36*
X2625D02*
Y2625D01*
X2827D01*
X2806Y2677D01*
X2750Y2750D01*
X2677Y2806D01*
X2625Y2827D01*
D02*
G37*
G36*
X27375Y2375D02*
X27173D01*
X27194Y2323D01*
X27250Y2250D01*
X27323Y2194D01*
X27375Y2173D01*
Y2375D01*
D02*
G37*
G36*
X17827D02*
X17625D01*
Y2173D01*
X17677Y2194D01*
X17750Y2250D01*
X17806Y2323D01*
X17827Y2375D01*
D02*
G37*
G36*
X22365D02*
X22163D01*
X22184Y2323D01*
X22240Y2250D01*
X22313Y2194D01*
X22365Y2173D01*
Y2375D01*
D02*
G37*
G36*
X22817D02*
X22615D01*
Y2173D01*
X22667Y2194D01*
X22740Y2250D01*
X22796Y2323D01*
X22817Y2375D01*
D02*
G37*
G36*
X25375Y7488D02*
X25369Y7487D01*
X25248Y7437D01*
X25143Y7357D01*
X25063Y7252D01*
X25013Y7131D01*
X25012Y7125D01*
X25375D01*
Y7488D01*
D02*
G37*
G36*
X17625Y7827D02*
Y7625D01*
X17827D01*
X17806Y7677D01*
X17750Y7750D01*
X17677Y7806D01*
X17625Y7827D01*
D02*
G37*
G36*
X22365D02*
X22313Y7806D01*
X22240Y7750D01*
X22184Y7677D01*
X22163Y7625D01*
X22365D01*
Y7827D01*
D02*
G37*
G36*
X22615D02*
Y7625D01*
X22817D01*
X22796Y7677D01*
X22740Y7750D01*
X22667Y7806D01*
X22615Y7827D01*
D02*
G37*
G36*
X17375D02*
X17323Y7806D01*
X17250Y7750D01*
X17194Y7677D01*
X17173Y7625D01*
X17375D01*
Y7827D01*
D02*
G37*
G36*
X2625D02*
Y7625D01*
X2827D01*
X2806Y7677D01*
X2750Y7750D01*
X2677Y7806D01*
X2625Y7827D01*
D02*
G37*
G36*
X12375D02*
X12323Y7806D01*
X12250Y7750D01*
X12194Y7677D01*
X12173Y7625D01*
X12375D01*
Y7827D01*
D02*
G37*
G36*
X12625D02*
Y7625D01*
X12827D01*
X12806Y7677D01*
X12750Y7750D01*
X12677Y7806D01*
X12625Y7827D01*
D02*
G37*
G36*
X875Y9875D02*
X512D01*
X513Y9869D01*
X563Y9748D01*
X643Y9643D01*
X748Y9563D01*
X869Y9513D01*
X875Y9512D01*
Y9875D01*
D02*
G37*
G36*
X1488D02*
X1125D01*
Y9512D01*
X1131Y9513D01*
X1252Y9563D01*
X1357Y9643D01*
X1437Y9748D01*
X1487Y9869D01*
X1488Y9875D01*
D02*
G37*
G36*
X18935Y10944D02*
X18805Y10927D01*
X18683Y10877D01*
X18578Y10797D01*
X18498Y10692D01*
X18448Y10571D01*
X18431Y10440D01*
X18448Y10309D01*
X18498Y10188D01*
X18578Y10083D01*
X18683Y10003D01*
X18805Y9953D01*
X18935Y9936D01*
X19066Y9953D01*
X19187Y10003D01*
X19292Y10083D01*
X19372Y10188D01*
X19422Y10309D01*
X19439Y10440D01*
X19422Y10571D01*
X19372Y10692D01*
X19292Y10797D01*
X19187Y10877D01*
X19066Y10927D01*
X18935Y10944D01*
D02*
G37*
G36*
X6565Y9875D02*
X4625D01*
Y7935D01*
X4771Y7945D01*
X5037Y7998D01*
X5293Y8085D01*
X5536Y8205D01*
X5762Y8355D01*
X5966Y8534D01*
X6145Y8738D01*
X6295Y8964D01*
X6415Y9207D01*
X6502Y9463D01*
X6555Y9729D01*
X6565Y9875D01*
D02*
G37*
G36*
X27375Y7827D02*
X27323Y7806D01*
X27250Y7750D01*
X27194Y7677D01*
X27173Y7625D01*
X27375D01*
Y7827D01*
D02*
G37*
G36*
X27625D02*
Y7625D01*
X27827D01*
X27806Y7677D01*
X27750Y7750D01*
X27677Y7806D01*
X27625Y7827D01*
D02*
G37*
G36*
X4375Y9875D02*
X2435D01*
X2445Y9729D01*
X2498Y9463D01*
X2585Y9207D01*
X2705Y8964D01*
X2855Y8738D01*
X3034Y8534D01*
X3238Y8355D01*
X3464Y8205D01*
X3707Y8085D01*
X3963Y7998D01*
X4229Y7945D01*
X4375Y7935D01*
Y9875D01*
D02*
G37*
G36*
X2827Y7375D02*
X2625D01*
Y7173D01*
X2677Y7194D01*
X2750Y7250D01*
X2806Y7323D01*
X2827Y7375D01*
D02*
G37*
G36*
X12375D02*
X12173D01*
X12194Y7323D01*
X12250Y7250D01*
X12323Y7194D01*
X12375Y7173D01*
Y7375D01*
D02*
G37*
G36*
X12827D02*
X12625D01*
Y7173D01*
X12677Y7194D01*
X12750Y7250D01*
X12806Y7323D01*
X12827Y7375D01*
D02*
G37*
G36*
X2375D02*
X2173D01*
X2194Y7323D01*
X2250Y7250D01*
X2323Y7194D01*
X2375Y7173D01*
Y7375D01*
D02*
G37*
G36*
X25625Y7488D02*
Y7125D01*
X25988D01*
X25987Y7131D01*
X25937Y7252D01*
X25857Y7357D01*
X25752Y7437D01*
X25631Y7487D01*
X25625Y7488D01*
D02*
G37*
G36*
X9375Y7489D02*
X9369Y7488D01*
X9248Y7438D01*
X9143Y7358D01*
X9063Y7253D01*
X9013Y7132D01*
X9012Y7126D01*
X9375D01*
Y7489D01*
D02*
G37*
G36*
X9625D02*
Y7126D01*
X9988D01*
X9987Y7132D01*
X9937Y7253D01*
X9857Y7358D01*
X9752Y7438D01*
X9631Y7488D01*
X9625Y7489D01*
D02*
G37*
G36*
X27375Y7375D02*
X27173D01*
X27194Y7323D01*
X27250Y7250D01*
X27323Y7194D01*
X27375Y7173D01*
Y7375D01*
D02*
G37*
G36*
X27827D02*
X27625D01*
Y7173D01*
X27677Y7194D01*
X27750Y7250D01*
X27806Y7323D01*
X27827Y7375D01*
D02*
G37*
G36*
X2375Y7827D02*
X2323Y7806D01*
X2250Y7750D01*
X2194Y7677D01*
X2173Y7625D01*
X2375D01*
Y7827D01*
D02*
G37*
G36*
X22817Y7375D02*
X22615D01*
Y7173D01*
X22667Y7194D01*
X22740Y7250D01*
X22796Y7323D01*
X22817Y7375D01*
D02*
G37*
G36*
X17375D02*
X17173D01*
X17194Y7323D01*
X17250Y7250D01*
X17323Y7194D01*
X17375Y7173D01*
Y7375D01*
D02*
G37*
G36*
X17827D02*
X17625D01*
Y7173D01*
X17677Y7194D01*
X17750Y7250D01*
X17806Y7323D01*
X17827Y7375D01*
D02*
G37*
G36*
X22365D02*
X22163D01*
X22184Y7323D01*
X22240Y7250D01*
X22313Y7194D01*
X22365Y7173D01*
Y7375D01*
D02*
G37*
G36*
X27375Y22375D02*
X27173D01*
X27194Y22323D01*
X27250Y22250D01*
X27323Y22194D01*
X27375Y22173D01*
Y22375D01*
D02*
G37*
G36*
X27827D02*
X27625D01*
Y22173D01*
X27677Y22194D01*
X27750Y22250D01*
X27806Y22323D01*
X27827Y22375D01*
D02*
G37*
G36*
X2375Y22827D02*
X2323Y22806D01*
X2250Y22750D01*
X2194Y22677D01*
X2173Y22625D01*
X2375D01*
Y22827D01*
D02*
G37*
G36*
X7827Y22375D02*
X7625D01*
Y22173D01*
X7677Y22194D01*
X7750Y22250D01*
X7806Y22323D01*
X7827Y22375D01*
D02*
G37*
G36*
X2375D02*
X2173D01*
X2194Y22323D01*
X2250Y22250D01*
X2323Y22194D01*
X2375Y22173D01*
Y22375D01*
D02*
G37*
G36*
X2827D02*
X2625D01*
Y22173D01*
X2677Y22194D01*
X2750Y22250D01*
X2806Y22323D01*
X2827Y22375D01*
D02*
G37*
G36*
X7375D02*
X7173D01*
X7194Y22323D01*
X7250Y22250D01*
X7323Y22194D01*
X7375Y22173D01*
Y22375D01*
D02*
G37*
G36*
X27625Y22827D02*
Y22625D01*
X27827D01*
X27806Y22677D01*
X27750Y22750D01*
X27677Y22806D01*
X27625Y22827D01*
D02*
G37*
G36*
X18168Y22722D02*
X18106D01*
X18131Y22685D01*
X18168Y22660D01*
Y22722D01*
D02*
G37*
G36*
X18480D02*
X18418D01*
Y22660D01*
X18455Y22685D01*
X18480Y22722D01*
D02*
G37*
G36*
X27375Y22827D02*
X27323Y22806D01*
X27250Y22750D01*
X27194Y22677D01*
X27173Y22625D01*
X27375D01*
Y22827D01*
D02*
G37*
G36*
X2625D02*
Y22625D01*
X2827D01*
X2806Y22677D01*
X2750Y22750D01*
X2677Y22806D01*
X2625Y22827D01*
D02*
G37*
G36*
X7375D02*
X7323Y22806D01*
X7250Y22750D01*
X7194Y22677D01*
X7173Y22625D01*
X7375D01*
Y22827D01*
D02*
G37*
G36*
X7625D02*
Y22625D01*
X7827D01*
X7806Y22677D01*
X7750Y22750D01*
X7677Y22806D01*
X7625Y22827D01*
D02*
G37*
G36*
X14976Y20774D02*
X14914D01*
X14939Y20737D01*
X14976Y20712D01*
Y20774D01*
D02*
G37*
G36*
X15288D02*
X15226D01*
Y20712D01*
X15263Y20737D01*
X15288Y20774D01*
D02*
G37*
G36*
X17575Y20887D02*
X17538Y20862D01*
X17513Y20825D01*
X17575D01*
Y20887D01*
D02*
G37*
G36*
X17887Y20575D02*
X17825D01*
Y20513D01*
X17862Y20538D01*
X17887Y20575D01*
D02*
G37*
G36*
X25375Y20774D02*
X25012D01*
X25013Y20769D01*
X25063Y20647D01*
X25143Y20543D01*
X25248Y20463D01*
X25369Y20412D01*
X25375Y20412D01*
Y20774D01*
D02*
G37*
G36*
X25988D02*
X25625D01*
Y20412D01*
X25631Y20412D01*
X25752Y20463D01*
X25857Y20543D01*
X25937Y20647D01*
X25987Y20769D01*
X25988Y20774D01*
D02*
G37*
G36*
X17575Y20575D02*
X17513D01*
X17538Y20538D01*
X17575Y20513D01*
Y20575D01*
D02*
G37*
G36*
X15226Y21087D02*
Y21024D01*
X15288D01*
X15263Y21062D01*
X15226Y21087D01*
D02*
G37*
G36*
X25375Y21387D02*
X25369Y21387D01*
X25248Y21336D01*
X25143Y21256D01*
X25063Y21152D01*
X25013Y21030D01*
X25012Y21024D01*
X25375D01*
Y21387D01*
D02*
G37*
G36*
X25625D02*
Y21024D01*
X25988D01*
X25987Y21030D01*
X25937Y21152D01*
X25857Y21256D01*
X25752Y21336D01*
X25631Y21387D01*
X25625Y21387D01*
D02*
G37*
G36*
X14976Y21087D02*
X14939Y21062D01*
X14914Y21024D01*
X14976D01*
Y21087D01*
D02*
G37*
G36*
X17825Y20887D02*
Y20825D01*
X17887D01*
X17862Y20862D01*
X17825Y20887D01*
D02*
G37*
G36*
X9375Y21387D02*
X9369Y21387D01*
X9248Y21336D01*
X9143Y21256D01*
X9063Y21152D01*
X9013Y21030D01*
X9012Y21024D01*
X9375D01*
Y21387D01*
D02*
G37*
G36*
X9625D02*
Y21024D01*
X9988D01*
X9987Y21030D01*
X9937Y21152D01*
X9857Y21256D01*
X9752Y21336D01*
X9631Y21387D01*
X9625Y21387D01*
D02*
G37*
G36*
X18168Y23034D02*
X18131Y23009D01*
X18106Y22972D01*
X18168D01*
Y23034D01*
D02*
G37*
G36*
X27375Y27375D02*
X27173D01*
X27194Y27323D01*
X27250Y27250D01*
X27323Y27194D01*
X27375Y27173D01*
Y27375D01*
D02*
G37*
G36*
X27827D02*
X27625D01*
Y27173D01*
X27677Y27194D01*
X27750Y27250D01*
X27806Y27323D01*
X27827Y27375D01*
D02*
G37*
G36*
X2375Y27827D02*
X2323Y27806D01*
X2250Y27750D01*
X2194Y27677D01*
X2173Y27625D01*
X2375D01*
Y27827D01*
D02*
G37*
G36*
X22817Y27375D02*
X22615D01*
Y27173D01*
X22667Y27194D01*
X22740Y27250D01*
X22796Y27323D01*
X22817Y27375D01*
D02*
G37*
G36*
X7375D02*
X7173D01*
X7194Y27323D01*
X7250Y27250D01*
X7323Y27194D01*
X7375Y27173D01*
Y27375D01*
D02*
G37*
G36*
X7827D02*
X7625D01*
Y27173D01*
X7677Y27194D01*
X7750Y27250D01*
X7806Y27323D01*
X7827Y27375D01*
D02*
G37*
G36*
X22365D02*
X22163D01*
X22184Y27323D01*
X22240Y27250D01*
X22313Y27194D01*
X22365Y27173D01*
Y27375D01*
D02*
G37*
G36*
X22615Y27827D02*
Y27625D01*
X22817D01*
X22796Y27677D01*
X22740Y27750D01*
X22667Y27806D01*
X22615Y27827D01*
D02*
G37*
G36*
X27375D02*
X27323Y27806D01*
X27250Y27750D01*
X27194Y27677D01*
X27173Y27625D01*
X27375D01*
Y27827D01*
D02*
G37*
G36*
X27625D02*
Y27625D01*
X27827D01*
X27806Y27677D01*
X27750Y27750D01*
X27677Y27806D01*
X27625Y27827D01*
D02*
G37*
G36*
X22365D02*
X22313Y27806D01*
X22240Y27750D01*
X22184Y27677D01*
X22163Y27625D01*
X22365D01*
Y27827D01*
D02*
G37*
G36*
X2625D02*
Y27625D01*
X2827D01*
X2806Y27677D01*
X2750Y27750D01*
X2677Y27806D01*
X2625Y27827D01*
D02*
G37*
G36*
X7375D02*
X7323Y27806D01*
X7250Y27750D01*
X7194Y27677D01*
X7173Y27625D01*
X7375D01*
Y27827D01*
D02*
G37*
G36*
X7625D02*
Y27625D01*
X7827D01*
X7806Y27677D01*
X7750Y27750D01*
X7677Y27806D01*
X7625Y27827D01*
D02*
G37*
G36*
X12088Y26675D02*
X11725D01*
Y26312D01*
X11731Y26313D01*
X11852Y26363D01*
X11957Y26443D01*
X12037Y26548D01*
X12087Y26669D01*
X12088Y26675D01*
D02*
G37*
G36*
X16805Y27296D02*
X15855D01*
Y26346D01*
X16805D01*
Y27296D01*
D02*
G37*
G36*
X14205Y26696D02*
X13869D01*
X13916Y26582D01*
X13992Y26483D01*
X14091Y26407D01*
X14205Y26360D01*
Y26696D01*
D02*
G37*
G36*
X11475Y26675D02*
X11112D01*
X11113Y26669D01*
X11163Y26548D01*
X11243Y26443D01*
X11348Y26363D01*
X11469Y26313D01*
X11475Y26312D01*
Y26675D01*
D02*
G37*
G36*
X18418Y23034D02*
Y22972D01*
X18480D01*
X18455Y23009D01*
X18418Y23034D01*
D02*
G37*
G36*
X17400Y24553D02*
X17309Y24541D01*
X17223Y24506D01*
X17150Y24450D01*
X17135Y24429D01*
X15535D01*
X15520Y24450D01*
X15447Y24506D01*
X15361Y24541D01*
X15270Y24553D01*
X15179Y24541D01*
X15093Y24506D01*
X15020Y24450D01*
X14964Y24377D01*
X14929Y24291D01*
X14917Y24200D01*
X14929Y24109D01*
X14964Y24023D01*
X15020Y23950D01*
X15093Y23894D01*
X15179Y23859D01*
X15270Y23847D01*
X15361Y23859D01*
X15447Y23894D01*
X15520Y23950D01*
X15535Y23971D01*
X17135D01*
X17150Y23950D01*
X17223Y23894D01*
X17309Y23859D01*
X17400Y23847D01*
X17491Y23859D01*
X17577Y23894D01*
X17650Y23950D01*
X17706Y24023D01*
X17741Y24109D01*
X17753Y24200D01*
X17741Y24291D01*
X17706Y24377D01*
X17650Y24450D01*
X17577Y24506D01*
X17491Y24541D01*
X17400Y24553D01*
D02*
G37*
G36*
X18915Y27304D02*
X18784Y27287D01*
X18663Y27237D01*
X18558Y27157D01*
X18478Y27052D01*
X18428Y26931D01*
X18411Y26800D01*
X18428Y26669D01*
X18478Y26548D01*
X18558Y26443D01*
X18663Y26363D01*
X18784Y26313D01*
X18915Y26296D01*
X19045Y26313D01*
X19167Y26363D01*
X19272Y26443D01*
X19352Y26548D01*
X19402Y26669D01*
X19419Y26800D01*
X19402Y26931D01*
X19352Y27052D01*
X19272Y27157D01*
X19167Y27237D01*
X19045Y27287D01*
X18915Y27304D01*
D02*
G37*
G36*
X14455Y27282D02*
Y26946D01*
X14791D01*
X14744Y27060D01*
X14668Y27159D01*
X14569Y27235D01*
X14455Y27282D01*
D02*
G37*
G36*
X2375Y27375D02*
X2173D01*
X2194Y27323D01*
X2250Y27250D01*
X2323Y27194D01*
X2375Y27173D01*
Y27375D01*
D02*
G37*
G36*
X2827D02*
X2625D01*
Y27173D01*
X2677Y27194D01*
X2750Y27250D01*
X2806Y27323D01*
X2827Y27375D01*
D02*
G37*
G36*
X14205Y27282D02*
X14091Y27235D01*
X13992Y27159D01*
X13916Y27060D01*
X13869Y26946D01*
X14205D01*
Y27282D01*
D02*
G37*
G36*
X14791Y26696D02*
X14455D01*
Y26360D01*
X14569Y26407D01*
X14668Y26483D01*
X14744Y26582D01*
X14791Y26696D01*
D02*
G37*
G36*
X11475Y27288D02*
X11469Y27287D01*
X11348Y27237D01*
X11243Y27157D01*
X11163Y27052D01*
X11113Y26931D01*
X11112Y26925D01*
X11475D01*
Y27288D01*
D02*
G37*
G36*
X11725D02*
Y26925D01*
X12088D01*
X12087Y26931D01*
X12037Y27052D01*
X11957Y27157D01*
X11852Y27237D01*
X11731Y27287D01*
X11725Y27288D01*
D02*
G37*
G36*
X9988Y20774D02*
X9625D01*
Y20412D01*
X9631Y20412D01*
X9752Y20463D01*
X9857Y20543D01*
X9937Y20647D01*
X9987Y20769D01*
X9988Y20774D01*
D02*
G37*
G36*
X7475Y15727D02*
X7423Y15706D01*
X7350Y15650D01*
X7294Y15577D01*
X7273Y15525D01*
X7475D01*
Y15727D01*
D02*
G37*
G36*
X8425D02*
Y15525D01*
X8627D01*
X8606Y15577D01*
X8550Y15650D01*
X8477Y15706D01*
X8425Y15727D01*
D02*
G37*
G36*
X8175D02*
X8123Y15706D01*
X8050Y15650D01*
X7994Y15577D01*
X7975Y15530D01*
X7925D01*
X7906Y15577D01*
X7850Y15650D01*
X7777Y15706D01*
X7725Y15727D01*
Y15400D01*
Y15073D01*
X7777Y15094D01*
X7850Y15150D01*
X7906Y15223D01*
X7925Y15270D01*
X7975D01*
X7994Y15223D01*
X8050Y15150D01*
X8123Y15094D01*
X8175Y15073D01*
Y15400D01*
Y15727D01*
D02*
G37*
G36*
X20927Y15650D02*
X20725D01*
Y15448D01*
X20777Y15469D01*
X20850Y15525D01*
X20906Y15598D01*
X20927Y15650D01*
D02*
G37*
G36*
X15885Y15455D02*
X15823D01*
X15848Y15418D01*
X15885Y15393D01*
Y15455D01*
D02*
G37*
G36*
X16197D02*
X16135D01*
Y15393D01*
X16172Y15418D01*
X16197Y15455D01*
D02*
G37*
G36*
X20475Y15650D02*
X20273D01*
X20294Y15598D01*
X20350Y15525D01*
X20423Y15469D01*
X20475Y15448D01*
Y15650D01*
D02*
G37*
G36*
Y16102D02*
X20423Y16081D01*
X20350Y16024D01*
X20294Y15951D01*
X20273Y15900D01*
X20475D01*
Y16102D01*
D02*
G37*
G36*
X20725D02*
Y15900D01*
X20927D01*
X20906Y15951D01*
X20850Y16024D01*
X20777Y16081D01*
X20725Y16102D01*
D02*
G37*
G36*
X14175Y16275D02*
X14113D01*
X14138Y16238D01*
X14175Y16213D01*
Y16275D01*
D02*
G37*
G36*
X16135Y15767D02*
Y15705D01*
X16197D01*
X16172Y15742D01*
X16135Y15767D01*
D02*
G37*
G36*
X17552Y15757D02*
X17514Y15732D01*
X17489Y15695D01*
X17552D01*
Y15757D01*
D02*
G37*
G36*
X17802D02*
Y15695D01*
X17864D01*
X17839Y15732D01*
X17802Y15757D01*
D02*
G37*
G36*
X15885Y15767D02*
X15848Y15742D01*
X15823Y15705D01*
X15885D01*
Y15767D01*
D02*
G37*
G36*
X4375Y15111D02*
X4323Y15090D01*
X4250Y15033D01*
X4194Y14960D01*
X4173Y14909D01*
X4375D01*
Y15111D01*
D02*
G37*
G36*
X4625D02*
Y14909D01*
X4827D01*
X4806Y14960D01*
X4750Y15033D01*
X4677Y15090D01*
X4625Y15111D01*
D02*
G37*
G36*
X7475Y15275D02*
X7273D01*
X7294Y15223D01*
X7350Y15150D01*
X7423Y15094D01*
X7475Y15073D01*
Y15275D01*
D02*
G37*
G36*
X4827Y14659D02*
X4625D01*
Y14457D01*
X4677Y14478D01*
X4750Y14534D01*
X4806Y14607D01*
X4827Y14659D01*
D02*
G37*
G36*
X17975Y14502D02*
X17937Y14477D01*
X17912Y14440D01*
X17975D01*
Y14502D01*
D02*
G37*
G36*
X18225D02*
Y14440D01*
X18287D01*
X18262Y14477D01*
X18225Y14502D01*
D02*
G37*
G36*
X4375Y14659D02*
X4173D01*
X4194Y14607D01*
X4250Y14534D01*
X4323Y14478D01*
X4375Y14457D01*
Y14659D01*
D02*
G37*
G36*
X26625Y15589D02*
Y15125D01*
X27089D01*
X27057Y15231D01*
X27001Y15335D01*
X26926Y15426D01*
X26835Y15501D01*
X26731Y15557D01*
X26625Y15589D01*
D02*
G37*
G36*
X17552Y15445D02*
X17489D01*
X17514Y15408D01*
X17552Y15383D01*
Y15445D01*
D02*
G37*
G36*
X17864D02*
X17802D01*
Y15383D01*
X17839Y15408D01*
X17864Y15445D01*
D02*
G37*
G36*
X26375Y15589D02*
X26269Y15557D01*
X26165Y15501D01*
X26074Y15426D01*
X25999Y15335D01*
X25943Y15231D01*
X25911Y15125D01*
X26375D01*
Y15589D01*
D02*
G37*
G36*
X8627Y15275D02*
X8425D01*
Y15073D01*
X8477Y15094D01*
X8550Y15150D01*
X8606Y15223D01*
X8627Y15275D01*
D02*
G37*
G36*
X24375Y15589D02*
X24269Y15557D01*
X24165Y15501D01*
X24074Y15426D01*
X23999Y15335D01*
X23943Y15231D01*
X23911Y15125D01*
X24375D01*
Y15589D01*
D02*
G37*
G36*
X24625D02*
Y15125D01*
X25089D01*
X25057Y15231D01*
X25001Y15335D01*
X24926Y15426D01*
X24835Y15501D01*
X24731Y15557D01*
X24625Y15589D01*
D02*
G37*
G36*
X14487Y16275D02*
X14425D01*
Y16213D01*
X14462Y16238D01*
X14487Y16275D01*
D02*
G37*
G36*
X12300Y19153D02*
X12209Y19141D01*
X12123Y19106D01*
X12050Y19050D01*
X11994Y18977D01*
X11959Y18891D01*
X11947Y18800D01*
X11959Y18709D01*
X11994Y18623D01*
X12050Y18550D01*
X12150Y18450D01*
X12223Y18394D01*
X12309Y18359D01*
X12400Y18347D01*
X15270D01*
X15361Y18359D01*
X15447Y18394D01*
X15520Y18450D01*
X15576Y18523D01*
X15611Y18609D01*
X15623Y18700D01*
X15611Y18791D01*
X15576Y18877D01*
X15520Y18950D01*
X15447Y19006D01*
X15361Y19041D01*
X15270Y19053D01*
X12545D01*
X12477Y19106D01*
X12391Y19141D01*
X12300Y19153D01*
D02*
G37*
G36*
X10750Y19236D02*
X10647Y19222D01*
X10551Y19182D01*
X10468Y19119D01*
X10405Y19036D01*
X10365Y18940D01*
X10351Y18837D01*
X10365Y18734D01*
X10405Y18638D01*
X10468Y18555D01*
X10551Y18492D01*
X10647Y18452D01*
X10750Y18438D01*
X10853Y18452D01*
X10949Y18492D01*
X11032Y18555D01*
X11095Y18638D01*
X11135Y18734D01*
X11149Y18837D01*
X11135Y18940D01*
X11095Y19036D01*
X11032Y19119D01*
X10949Y19182D01*
X10853Y19222D01*
X10750Y19236D01*
D02*
G37*
G36*
X10145Y19232D02*
X9355D01*
Y18442D01*
X10145D01*
Y19232D01*
D02*
G37*
G36*
X1000Y19254D02*
X869Y19237D01*
X748Y19187D01*
X643Y19107D01*
X563Y19002D01*
X513Y18881D01*
X496Y18750D01*
X513Y18619D01*
X563Y18498D01*
X643Y18393D01*
X748Y18313D01*
X869Y18263D01*
X1000Y18246D01*
X1131Y18263D01*
X1252Y18313D01*
X1357Y18393D01*
X1437Y18498D01*
X1487Y18619D01*
X1504Y18750D01*
X1487Y18881D01*
X1437Y19002D01*
X1357Y19107D01*
X1252Y19187D01*
X1131Y19237D01*
X1000Y19254D01*
D02*
G37*
G36*
X16505Y18357D02*
Y18155D01*
X16707D01*
X16686Y18207D01*
X16630Y18280D01*
X16557Y18336D01*
X16505Y18357D01*
D02*
G37*
G36*
X13925Y18237D02*
X13888Y18212D01*
X13863Y18175D01*
X13925D01*
Y18237D01*
D02*
G37*
G36*
X14175D02*
Y18175D01*
X14237D01*
X14212Y18212D01*
X14175Y18237D01*
D02*
G37*
G36*
X13925Y20287D02*
X13888Y20262D01*
X13863Y20225D01*
X13925D01*
Y20287D01*
D02*
G37*
G36*
X14175D02*
Y20225D01*
X14237D01*
X14212Y20262D01*
X14175Y20287D01*
D02*
G37*
G36*
X9375Y20774D02*
X9012D01*
X9013Y20769D01*
X9063Y20647D01*
X9143Y20543D01*
X9248Y20463D01*
X9369Y20412D01*
X9375Y20412D01*
Y20774D01*
D02*
G37*
G36*
X14237Y19975D02*
X14175D01*
Y19913D01*
X14212Y19938D01*
X14237Y19975D01*
D02*
G37*
G36*
X16300Y20004D02*
X16169Y19987D01*
X16048Y19937D01*
X15943Y19857D01*
X15863Y19752D01*
X15813Y19631D01*
X15796Y19500D01*
X15813Y19369D01*
X15863Y19248D01*
X15943Y19143D01*
X16048Y19063D01*
X16169Y19013D01*
X16300Y18996D01*
X16431Y19013D01*
X16552Y19063D01*
X16657Y19143D01*
X16737Y19248D01*
X16787Y19369D01*
X16804Y19500D01*
X16787Y19631D01*
X16737Y19752D01*
X16657Y19857D01*
X16552Y19937D01*
X16431Y19987D01*
X16300Y20004D01*
D02*
G37*
G36*
X21400Y20904D02*
X21269Y20887D01*
X21148Y20837D01*
X21043Y20757D01*
X20963Y20652D01*
X20913Y20531D01*
X20896Y20400D01*
X20913Y20269D01*
X20963Y20148D01*
X21043Y20043D01*
X21148Y19963D01*
X21269Y19913D01*
X21400Y19896D01*
X21531Y19913D01*
X21652Y19963D01*
X21757Y20043D01*
X21837Y20148D01*
X21887Y20269D01*
X21904Y20400D01*
X21887Y20531D01*
X21837Y20652D01*
X21757Y20757D01*
X21652Y20837D01*
X21531Y20887D01*
X21400Y20904D01*
D02*
G37*
G36*
X13925Y19975D02*
X13863D01*
X13888Y19938D01*
X13925Y19913D01*
Y19975D01*
D02*
G37*
G36*
X22365Y17375D02*
X22163D01*
X22184Y17323D01*
X22240Y17250D01*
X22313Y17194D01*
X22365Y17173D01*
Y17375D01*
D02*
G37*
G36*
X22817D02*
X22615D01*
Y17173D01*
X22667Y17194D01*
X22740Y17250D01*
X22796Y17323D01*
X22817Y17375D01*
D02*
G37*
G36*
X19700Y19350D02*
X19150D01*
Y18050D01*
X19250Y17950D01*
Y17200D01*
X19600D01*
Y18000D01*
X19700Y18100D01*
Y19350D01*
D02*
G37*
G36*
X27480Y17853D02*
X27389Y17841D01*
X27303Y17806D01*
X27230Y17750D01*
X27174Y17677D01*
X27139Y17591D01*
X27127Y17500D01*
X27139Y17409D01*
X27174Y17323D01*
X27230Y17250D01*
X27303Y17194D01*
X27389Y17159D01*
X27480Y17147D01*
X27571Y17159D01*
X27657Y17194D01*
X27730Y17250D01*
X27786Y17323D01*
X27821Y17409D01*
X27833Y17500D01*
X27821Y17591D01*
X27786Y17677D01*
X27730Y17750D01*
X27657Y17806D01*
X27571Y17841D01*
X27480Y17853D01*
D02*
G37*
G36*
X14175Y16587D02*
X14138Y16562D01*
X14113Y16525D01*
X14175D01*
Y16587D01*
D02*
G37*
G36*
X14425D02*
Y16525D01*
X14487D01*
X14462Y16562D01*
X14425Y16587D01*
D02*
G37*
G36*
X4500Y20823D02*
X4229Y20805D01*
X3963Y20752D01*
X3707Y20665D01*
X3464Y20545D01*
X3238Y20395D01*
X3034Y20216D01*
X2855Y20012D01*
X2705Y19786D01*
X2585Y19543D01*
X2498Y19287D01*
X2445Y19021D01*
X2427Y18750D01*
X2445Y18479D01*
X2498Y18213D01*
X2585Y17957D01*
X2705Y17714D01*
X2855Y17488D01*
X3034Y17284D01*
X3238Y17105D01*
X3464Y16955D01*
X3707Y16835D01*
X3963Y16748D01*
X4229Y16695D01*
X4500Y16677D01*
X4771Y16695D01*
X5037Y16748D01*
X5293Y16835D01*
X5536Y16955D01*
X5762Y17105D01*
X5966Y17284D01*
X6145Y17488D01*
X6295Y17714D01*
X6415Y17957D01*
X6502Y18213D01*
X6555Y18479D01*
X6573Y18750D01*
X6555Y19021D01*
X6502Y19287D01*
X6415Y19543D01*
X6295Y19786D01*
X6145Y20012D01*
X5966Y20216D01*
X5762Y20395D01*
X5536Y20545D01*
X5293Y20665D01*
X5037Y20752D01*
X4771Y20805D01*
X4500Y20823D01*
D02*
G37*
G36*
X13925Y17925D02*
X13863D01*
X13888Y17888D01*
X13925Y17863D01*
Y17925D01*
D02*
G37*
G36*
X14237D02*
X14175D01*
Y17863D01*
X14212Y17888D01*
X14237Y17925D01*
D02*
G37*
G36*
X16255Y18357D02*
X16203Y18336D01*
X16130Y18280D01*
X16074Y18207D01*
X16053Y18155D01*
X16255D01*
Y18357D01*
D02*
G37*
G36*
X16707Y17905D02*
X16505D01*
Y17703D01*
X16557Y17724D01*
X16630Y17780D01*
X16686Y17853D01*
X16707Y17905D01*
D02*
G37*
G36*
X22365Y17827D02*
X22313Y17806D01*
X22240Y17750D01*
X22184Y17677D01*
X22163Y17625D01*
X22365D01*
Y17827D01*
D02*
G37*
G36*
X22615D02*
Y17625D01*
X22817D01*
X22796Y17677D01*
X22740Y17750D01*
X22667Y17806D01*
X22615Y17827D01*
D02*
G37*
G36*
X16255Y17905D02*
X16053D01*
X16074Y17853D01*
X16130Y17780D01*
X16203Y17724D01*
X16255Y17703D01*
Y17905D01*
D02*
G37*
%LPD*%
D18*
X15270Y24200D02*
X17400D01*
D19*
X12300Y18800D02*
X12400Y18700D01*
X15270D01*
D22*
X12770Y13840D02*
D03*
X17100Y13900D02*
D03*
X25500Y10800D02*
D03*
X21400Y20400D02*
D03*
X1000Y10000D02*
D03*
Y18750D02*
D03*
X18935Y10440D02*
D03*
X16300Y19500D02*
D03*
X18915Y26800D02*
D03*
X25500Y7000D02*
D03*
X9500Y7001D02*
D03*
Y20899D02*
D03*
X25500D02*
D03*
X11600Y26800D02*
D03*
D23*
X4500Y10000D02*
D03*
Y18750D02*
D03*
D24*
X16330Y26821D02*
D03*
D25*
X14330D02*
D03*
D26*
X10750Y18837D02*
D03*
X17600Y12400D02*
D03*
D27*
X9750Y18837D02*
D03*
X16600Y12400D02*
D03*
D28*
X25500Y14000D02*
D03*
D29*
X24500Y15000D02*
D03*
X26500D02*
D03*
Y13000D02*
D03*
X24500D02*
D03*
D30*
X16380Y18030D02*
D03*
X12300Y18800D02*
D03*
X15270Y18700D02*
D03*
X17400Y24200D02*
D03*
X27480Y17500D02*
D03*
X12510Y12500D02*
D03*
X15270Y24200D02*
D03*
X2500Y27500D02*
D03*
X7500D02*
D03*
X22490D02*
D03*
X27500D02*
D03*
X2500Y22500D02*
D03*
X7500D02*
D03*
X27500D02*
D03*
X22490Y17500D02*
D03*
X2500Y12500D02*
D03*
X7500D02*
D03*
X17515Y11500D02*
D03*
X22800Y12700D02*
D03*
X2500Y7500D02*
D03*
X12500D02*
D03*
X17500D02*
D03*
X22490D02*
D03*
X27500D02*
D03*
Y2500D02*
D03*
X22490D02*
D03*
X17500D02*
D03*
X12500D02*
D03*
X7500D02*
D03*
X2500D02*
D03*
X4500Y14784D02*
D03*
X7600Y15400D02*
D03*
X8300D02*
D03*
X20600Y15775D02*
D03*
X27500Y12300D02*
D03*
X20200Y12400D02*
D03*
D31*
X14300Y16400D02*
D03*
X14050Y18050D02*
D03*
Y20100D02*
D03*
X17700Y20700D02*
D03*
X15101Y20899D02*
D03*
X18100Y14315D02*
D03*
X18293Y22847D02*
D03*
X18100Y13400D02*
D03*
X17677Y15570D02*
D03*
X16010Y15580D02*
D03*
M02*
