M48
;Layer_Color=9474304
;FILE_FORMAT=2:4
INCH,LZ
;TYPE=PLATED
T1F00S00C0.0150
T2F00S00C0.0280
T3F00S00C0.0354
T4F00S00C0.0400
T5F00S00C0.0512
T6F00S00C0.0620
T7F00S00C0.0670
T8F00S00C0.2146
%
T01
X0181Y0134
Y014315
X017677Y01557
X0177Y0207
X015101Y020899
X01405Y0201
Y01805
X0143Y0164
X01601Y01558
X018293Y022847
T02
X0025Y0025
X0075
X0125
X0175
X02249
X0275
Y0075
Y0123
X0228Y0127
X0202Y0124
X017515Y0115
X0175Y0075
X02249
Y0175
X0206Y015775
X01638Y01803
X02748Y0175
X01527Y0187
X0123Y0188
X01251Y0125
X0075
X0076Y0154
X0083
X0045Y014784
X0025Y0125
Y0075
X0125
X01527Y0242
X0075Y0225
Y0275
X0025
Y0225
X0174Y0242
X02249Y0275
X0275
Y0225
T03
X0166Y0124
X0176
X01075Y018837
X00975
T04
X018935Y01044
X0171Y0139
X0163Y0195
X0214Y0204
X0255Y020899
Y0108
Y007
X0095Y007001
X01277Y01384
X0095Y020899
X001Y01875
Y01
X0116Y0268
X018915
T05
X01433Y026821
X01633
T06
X0255Y014
T07
X0245Y013
Y015
X0265
Y013
T08
X0045Y01
Y01875
M30
