%FSLAX24Y24*%
%MOIN*%
G70*
G01*
G75*
G04 Layer_Color=65535*
%ADD10R,0.0394X0.0374*%
%ADD11R,0.0374X0.0394*%
%ADD12R,0.1299X0.0945*%
%ADD13R,0.0394X0.0945*%
%ADD14R,0.0965X0.1004*%
%ADD15O,0.0236X0.0748*%
%ADD16R,0.0591X0.0236*%
%ADD17C,0.0450*%
%ADD18C,0.0250*%
%ADD19C,0.0500*%
%ADD20C,0.1000*%
%ADD21C,0.0200*%
%ADD22C,0.0800*%
%ADD23C,0.3937*%
%ADD24R,0.0750X0.0750*%
%ADD25C,0.0748*%
%ADD26C,0.0591*%
%ADD27R,0.0591X0.0591*%
%ADD28C,0.0950*%
%ADD29C,0.1000*%
%ADD30C,0.0500*%
%ADD31C,0.0250*%
%ADD32C,0.0070*%
%ADD33C,0.0098*%
%ADD34C,0.0098*%
%ADD35C,0.0079*%
%ADD36C,0.0150*%
%ADD37C,0.0100*%
D32*
X13350Y13840D02*
G03*
X13350Y13840I-580J0D01*
G01*
X17680Y13900D02*
G03*
X17680Y13900I-580J0D01*
G01*
X26080Y10800D02*
G03*
X26080Y10800I-580J0D01*
G01*
X21980Y20400D02*
G03*
X21980Y20400I-580J0D01*
G01*
X1580Y10000D02*
G03*
X1580Y10000I-580J0D01*
G01*
Y18750D02*
G03*
X1580Y18750I-580J0D01*
G01*
X19515Y10440D02*
G03*
X19515Y10440I-580J0D01*
G01*
X16880Y19500D02*
G03*
X16880Y19500I-580J0D01*
G01*
X19495Y26800D02*
G03*
X19495Y26800I-580J0D01*
G01*
X26080Y7000D02*
G03*
X26080Y7000I-580J0D01*
G01*
X10080Y7001D02*
G03*
X10080Y7001I-580J0D01*
G01*
Y20899D02*
G03*
X10080Y20899I-580J0D01*
G01*
X26080D02*
G03*
X26080Y20899I-580J0D01*
G01*
X12180Y26800D02*
G03*
X12180Y26800I-580J0D01*
G01*
X14134Y22910D02*
X14394D01*
Y23455D01*
X14134D02*
X14394D01*
X13194D02*
X13454D01*
X13194Y22910D02*
Y23455D01*
Y22910D02*
X13454D01*
X13227Y22540D02*
Y22800D01*
X13772D01*
Y22540D02*
Y22800D01*
Y21600D02*
Y21860D01*
X13227Y21600D02*
X13772D01*
X13227D02*
Y21860D01*
X22027Y14010D02*
Y14270D01*
X22572D01*
Y14010D02*
Y14270D01*
Y13070D02*
Y13330D01*
X22027Y13070D02*
X22572D01*
X22027D02*
Y13330D01*
X19223Y13400D02*
Y13660D01*
X18678Y13400D02*
X19223D01*
X18678D02*
Y13660D01*
Y14340D02*
Y14600D01*
X19223D01*
Y14340D02*
Y14600D01*
X18500Y18673D02*
X18760D01*
X18500Y18128D02*
Y18673D01*
Y18128D02*
X18760D01*
X19440D02*
X19700D01*
Y18673D01*
X19440D02*
X19700D01*
X19177Y19740D02*
Y20000D01*
X19722D01*
Y19740D02*
Y20000D01*
Y18800D02*
Y19060D01*
X19177Y18800D02*
X19722D01*
X19177D02*
Y19060D01*
X18512Y19740D02*
Y20000D01*
X19057D01*
Y19740D02*
Y20000D01*
Y18800D02*
Y19060D01*
X18512Y18800D02*
X19057D01*
X18512D02*
Y19060D01*
X18650Y12127D02*
X18910D01*
X18650D02*
Y12672D01*
X18910D01*
X19590D02*
X19850D01*
Y12127D02*
Y12672D01*
X19590Y12127D02*
X19850D01*
X4773Y15184D02*
Y15444D01*
X4228Y15184D02*
X4773D01*
X4228D02*
Y15444D01*
Y16124D02*
Y16384D01*
X4773D01*
Y16124D02*
Y16384D01*
X8856Y16129D02*
Y19121D01*
X7044Y16129D02*
Y19121D01*
X8585D02*
X8856D01*
X8585Y16129D02*
X8856D01*
X7044Y19121D02*
X7315D01*
X7044Y16129D02*
X7315D01*
X13250Y24711D02*
Y28691D01*
Y24711D02*
X17360D01*
X17370Y27961D02*
X17680D01*
X17370Y24711D02*
Y27961D01*
Y28481D02*
Y28691D01*
Y28481D02*
X17680D01*
X13250Y28691D02*
X17360D01*
X17680Y27961D02*
Y28481D01*
X16900Y18053D02*
X17160D01*
X16900D02*
Y18597D01*
X17160D01*
X17840D02*
X18100D01*
Y18053D02*
Y18597D01*
X17840Y18053D02*
X18100D01*
X16900Y17353D02*
X17160D01*
X16900D02*
Y17897D01*
X17160D01*
X17840D02*
X18100D01*
Y17353D02*
Y17897D01*
X17840Y17353D02*
X18100D01*
X16200Y14727D02*
X16460D01*
X16200D02*
Y15272D01*
X16460D01*
X17140D02*
X17400D01*
Y14727D02*
Y15272D01*
X17140Y14727D02*
X17400D01*
X18940Y15273D02*
X19200D01*
Y14728D02*
Y15273D01*
X18940Y14728D02*
X19200D01*
X18000D02*
X18260D01*
X18000D02*
Y15273D01*
X18260D01*
X23473Y13070D02*
Y13330D01*
X22928Y13070D02*
X23473D01*
X22928D02*
Y13330D01*
Y14010D02*
Y14270D01*
X23473D01*
Y14010D02*
Y14270D01*
D33*
X17698Y23183D02*
G03*
X17698Y23183I-49J0D01*
G01*
X8698Y19373D02*
G03*
X8698Y19373I-49J0D01*
G01*
X18165Y15775D02*
G03*
X18165Y15775I-49J0D01*
G01*
X14975Y15309D02*
G03*
X14975Y15309I-49J0D01*
G01*
D34*
X15597Y7398D02*
G03*
X15597Y7398I-175J0D01*
G01*
X15132Y7118D02*
Y7148D01*
X15662Y7138D02*
X15842Y7148D01*
X14932Y5848D02*
X15242Y7008D01*
X16132Y7098D02*
X16242Y7128D01*
X16452Y7098D01*
X15842Y7148D02*
X15962Y7118D01*
X13902Y6628D02*
Y7988D01*
X13822Y6548D02*
X13902D01*
X12782D02*
X13822D01*
X12782D02*
X12802Y6508D01*
X12852Y6388D01*
X12962Y6278D01*
X13132Y6178D01*
X13292Y6048D01*
X13352Y5728D02*
X13572Y5508D01*
X13662Y5458D01*
X13762Y5448D01*
X13982D01*
X14122Y5588D01*
X14312D01*
X14372Y5528D01*
X14592Y5308D01*
Y5218D02*
Y5308D01*
Y5218D02*
X14752Y4908D01*
X14882Y4678D01*
X15122Y4438D01*
X15222Y4378D01*
X15282Y4328D01*
X15312Y4308D01*
X15432Y4228D01*
X15742Y4198D01*
X15712Y4218D02*
X15742Y4198D01*
X15692Y4378D02*
X15712Y4218D01*
X15662Y4518D02*
X15692Y4378D01*
X15642Y4728D02*
X15662Y4518D01*
X15642Y4728D02*
X15672Y4958D01*
X15792Y5118D02*
X15812Y5138D01*
X16032Y5318D01*
X16312Y5448D01*
X16512Y5508D01*
X16612Y5528D01*
X16712Y5668D01*
X16682Y5888D02*
X16712Y5668D01*
X16682Y5888D02*
X16712Y5928D01*
X16772Y6038D01*
X16542Y6598D02*
X16722Y6388D01*
X16542Y6598D02*
Y7058D01*
X16452Y7098D02*
X16542Y7058D01*
X16032Y7108D02*
X16132Y7098D01*
X15962Y7118D02*
X16032Y7108D01*
X14822Y7258D02*
X15132Y7148D01*
X14822Y7968D02*
Y7988D01*
X13902D02*
X14822D01*
Y7258D02*
Y7968D01*
X13902Y6548D02*
Y6628D01*
X15082Y6868D02*
X15132Y7108D01*
X14812Y6868D02*
X15082D01*
X14782Y6648D02*
X14812Y6868D01*
X14782Y6648D02*
X15032D01*
X14792Y5738D02*
X15032Y6648D01*
X14772Y5678D02*
X14792Y5738D01*
X15212Y5558D02*
X15292Y5588D01*
X15342Y5608D01*
X15422Y5688D01*
X15482Y5778D01*
X15382Y5748D02*
X15482Y5778D01*
X15332Y5758D02*
X15382Y5748D01*
X15332Y5758D02*
X15342Y5818D01*
X15562Y6648D01*
X15812D01*
X15862Y6868D01*
X15612D02*
X15862D01*
X15612D02*
X15662Y7138D01*
X14892Y5548D02*
X15002Y5528D01*
X15102D01*
X15242Y7008D02*
X15512D01*
X15202Y5848D02*
X15512Y7008D01*
X14932Y5848D02*
X15202D01*
X15102Y5528D02*
X15192Y5548D01*
X14772Y5668D02*
X14812Y5588D01*
X14882Y5548D01*
X13292Y6048D02*
X13352Y5728D01*
X15672Y4958D02*
X15792Y5118D01*
X16712Y6138D02*
X16722Y6388D01*
X16712Y6138D02*
X16772Y6038D01*
D35*
X15011Y21490D02*
Y22592D01*
X17649Y21490D02*
Y22592D01*
X15011Y21490D02*
X17649D01*
X15011Y22592D02*
X17649D01*
X9250Y19337D02*
X11250D01*
X9250Y18337D02*
Y19337D01*
Y18337D02*
X11250D01*
Y19337D01*
X18216Y16306D02*
X20184D01*
X18216Y17094D02*
X20184D01*
X18216Y16306D02*
Y17094D01*
X20184Y16306D02*
Y17094D01*
X15576Y14009D02*
Y14324D01*
X15379Y14009D02*
X15576D01*
Y14876D02*
Y15191D01*
X15379D02*
X15576D01*
X16100Y12900D02*
X18100D01*
X16100Y11900D02*
Y12900D01*
Y11900D02*
X18100D01*
Y12900D01*
D36*
X0Y30000D02*
X30000D01*
Y0D02*
Y30000D01*
X0Y0D02*
X30000D01*
X0D02*
Y30000D01*
D37*
X9100Y14180D02*
Y13780D01*
X9300Y13580D01*
X9500Y13780D01*
Y14180D01*
X9700Y13480D02*
X10100D01*
X10300Y13580D02*
Y14180D01*
X10600D01*
X10699Y14080D01*
Y13880D01*
X10600Y13780D01*
X10300D01*
X10500D02*
X10699Y13580D01*
X10899D02*
X11199D01*
X11299Y13680D01*
X11199Y13780D01*
X10999D01*
X10899Y13880D01*
X10999Y13980D01*
X11299D01*
X11899Y13580D02*
X11499D01*
X11899Y13980D01*
Y14080D01*
X11799Y14180D01*
X11599D01*
X11499Y14080D01*
X20430Y18600D02*
X20330Y18700D01*
X20130D01*
X20030Y18600D01*
Y18200D01*
X20130Y18100D01*
X20330D01*
X20430Y18200D01*
X20630Y18700D02*
X21030D01*
Y18600D01*
X20630Y18200D01*
Y18100D01*
X11410Y22900D02*
Y23500D01*
X11710D01*
X11810Y23400D01*
Y23200D01*
X11710Y23100D01*
X11410D01*
X11610D02*
X11810Y22900D01*
X12010D02*
X12310D01*
X12410Y23000D01*
X12310Y23100D01*
X12110D01*
X12010Y23200D01*
X12110Y23300D01*
X12410D01*
X12610Y23400D02*
X12710Y23500D01*
X12910D01*
X13009Y23400D01*
Y23300D01*
X12910Y23200D01*
X12810D01*
X12910D01*
X13009Y23100D01*
Y23000D01*
X12910Y22900D01*
X12710D01*
X12610Y23000D01*
X20100Y21800D02*
Y21400D01*
X20300Y21200D01*
X20500Y21400D01*
Y21800D01*
X20700Y21100D02*
X21100D01*
X21300Y21200D02*
Y21800D01*
X21600D01*
X21699Y21700D01*
Y21500D01*
X21600Y21400D01*
X21300D01*
X21500D02*
X21699Y21200D01*
X21899D02*
X22199D01*
X22299Y21300D01*
X22199Y21400D01*
X21999D01*
X21899Y21500D01*
X21999Y21600D01*
X22299D01*
X22499Y21700D02*
X22599Y21800D01*
X22799D01*
X22899Y21700D01*
Y21600D01*
X22799Y21500D01*
X22699D01*
X22799D01*
X22899Y21400D01*
Y21300D01*
X22799Y21200D01*
X22599D01*
X22499Y21300D01*
X20540Y17000D02*
Y16500D01*
X20640Y16400D01*
X20840D01*
X20940Y16500D01*
Y17000D01*
X21140Y16400D02*
X21340D01*
X21240D01*
Y17000D01*
X21140Y16900D01*
X7950Y20275D02*
X7850Y20375D01*
X7650D01*
X7550Y20275D01*
Y19875D01*
X7650Y19775D01*
X7850D01*
X7950Y19875D01*
X8150Y19775D02*
X8350D01*
X8250D01*
Y20375D01*
X8150Y20275D01*
X3290Y15984D02*
X3190Y16084D01*
X2990D01*
X2890Y15984D01*
Y15584D01*
X2990Y15484D01*
X3190D01*
X3290Y15584D01*
X3890Y15484D02*
X3490D01*
X3890Y15884D01*
Y15984D01*
X3790Y16084D01*
X3590D01*
X3490Y15984D01*
X17430Y19250D02*
X17330Y19350D01*
X17130D01*
X17030Y19250D01*
Y18850D01*
X17130Y18750D01*
X17330D01*
X17430Y18850D01*
X17630Y19250D02*
X17730Y19350D01*
X17930D01*
X18030Y19250D01*
Y19150D01*
X17930Y19050D01*
X17830D01*
X17930D01*
X18030Y18950D01*
Y18850D01*
X17930Y18750D01*
X17730D01*
X17630Y18850D01*
X17360Y17120D02*
X17260Y17220D01*
X17060D01*
X16960Y17120D01*
Y16720D01*
X17060Y16620D01*
X17260D01*
X17360Y16720D01*
X17860Y16620D02*
Y17220D01*
X17560Y16920D01*
X17960D01*
X23100Y14945D02*
X23000Y15045D01*
X22800D01*
X22700Y14945D01*
Y14545D01*
X22800Y14445D01*
X23000D01*
X23100Y14545D01*
X23700Y15045D02*
X23300D01*
Y14745D01*
X23500Y14845D01*
X23600D01*
X23700Y14745D01*
Y14545D01*
X23600Y14445D01*
X23400D01*
X23300Y14545D01*
X19850Y15100D02*
X19750Y15200D01*
X19550D01*
X19450Y15100D01*
Y14700D01*
X19550Y14600D01*
X19750D01*
X19850Y14700D01*
X20450Y15200D02*
X20250Y15100D01*
X20050Y14900D01*
Y14700D01*
X20150Y14600D01*
X20350D01*
X20450Y14700D01*
Y14800D01*
X20350Y14900D01*
X20050D01*
X3700Y21660D02*
Y21260D01*
X3900Y21060D01*
X4100Y21260D01*
Y21660D01*
X4700Y21460D02*
X4400D01*
X4300Y21360D01*
Y21160D01*
X4400Y21060D01*
X4700D01*
X5299Y21460D02*
X5000D01*
X4900Y21360D01*
Y21160D01*
X5000Y21060D01*
X5299D01*
X10250Y20280D02*
X10050D01*
X10150D01*
Y19780D01*
X10050Y19680D01*
X9950D01*
X9850Y19780D01*
X10450Y19680D02*
X10650D01*
X10550D01*
Y20280D01*
X10450Y20180D01*
X4050Y7550D02*
X3950Y7650D01*
X3750D01*
X3650Y7550D01*
Y7150D01*
X3750Y7050D01*
X3950D01*
X4050Y7150D01*
Y7350D01*
X3850D01*
X4250Y7050D02*
Y7650D01*
X4650Y7050D01*
Y7650D01*
X4850D02*
Y7050D01*
X5150D01*
X5249Y7150D01*
Y7550D01*
X5150Y7650D01*
X4850D01*
X24040Y16460D02*
Y16060D01*
X24240Y15860D01*
X24440Y16060D01*
Y16460D01*
X24640Y15860D02*
X24840D01*
X24740D01*
Y16260D01*
X24640D01*
X25140Y15860D02*
Y16260D01*
X25440D01*
X25540Y16160D01*
Y15860D01*
X18430Y21900D02*
Y22300D01*
X18330Y22400D01*
X18130D01*
X18030Y22300D01*
Y21900D01*
X18130Y21800D01*
X18330D01*
X18230Y22000D02*
X18430Y21800D01*
X18330D02*
X18430Y21900D01*
X19030Y21800D02*
X18630D01*
X19030Y22200D01*
Y22300D01*
X18930Y22400D01*
X18730D01*
X18630Y22300D01*
X15300Y15700D02*
Y16100D01*
X15200Y16200D01*
X15000D01*
X14900Y16100D01*
Y15700D01*
X15000Y15600D01*
X15200D01*
X15100Y15800D02*
X15300Y15600D01*
X15200D02*
X15300Y15700D01*
X15500Y15600D02*
X15700D01*
X15600D01*
Y16200D01*
X15500Y16100D01*
X21600Y14445D02*
Y15045D01*
X21900D01*
X22000Y14945D01*
Y14745D01*
X21900Y14645D01*
X21600D01*
X21800D02*
X22000Y14445D01*
X22200D02*
X22400D01*
X22300D01*
Y15045D01*
X22200Y14945D01*
X19240Y20150D02*
Y20750D01*
X19540D01*
X19640Y20650D01*
Y20450D01*
X19540Y20350D01*
X19240D01*
X19440D02*
X19640Y20150D01*
X20140D02*
Y20750D01*
X19840Y20450D01*
X20240D01*
X18030Y20150D02*
Y20750D01*
X18330D01*
X18430Y20650D01*
Y20450D01*
X18330Y20350D01*
X18030D01*
X18230D02*
X18430Y20150D01*
X19030Y20750D02*
X18630D01*
Y20450D01*
X18830Y20550D01*
X18930D01*
X19030Y20450D01*
Y20250D01*
X18930Y20150D01*
X18730D01*
X18630Y20250D01*
X16330Y15400D02*
Y16000D01*
X16630D01*
X16730Y15900D01*
Y15700D01*
X16630Y15600D01*
X16330D01*
X16530D02*
X16730Y15400D01*
X16930Y15900D02*
X17030Y16000D01*
X17230D01*
X17330Y15900D01*
Y15800D01*
X17230Y15700D01*
X17130D01*
X17230D01*
X17330Y15600D01*
Y15500D01*
X17230Y15400D01*
X17030D01*
X16930Y15500D01*
X19400Y13660D02*
Y14260D01*
X19700D01*
X19800Y14160D01*
Y13960D01*
X19700Y13860D01*
X19400D01*
X19600D02*
X19800Y13660D01*
X20400D02*
X20000D01*
X20400Y14060D01*
Y14160D01*
X20300Y14260D01*
X20100D01*
X20000Y14160D01*
X400Y20150D02*
Y19750D01*
X600Y19550D01*
X800Y19750D01*
Y20150D01*
X1400Y19950D02*
X1100D01*
X1000Y19850D01*
Y19650D01*
X1100Y19550D01*
X1400D01*
X1999Y19950D02*
X1700D01*
X1600Y19850D01*
Y19650D01*
X1700Y19550D01*
X1999D01*
X25100Y22329D02*
X25000Y22429D01*
X24800D01*
X24700Y22329D01*
Y21929D01*
X24800Y21829D01*
X25000D01*
X25100Y21929D01*
Y22129D01*
X24900D01*
X25300Y21829D02*
Y22429D01*
X25700Y21829D01*
Y22429D01*
X25900D02*
Y21829D01*
X26200D01*
X26299Y21929D01*
Y22329D01*
X26200Y22429D01*
X25900D01*
X9100Y22329D02*
X9000Y22429D01*
X8800D01*
X8700Y22329D01*
Y21929D01*
X8800Y21829D01*
X9000D01*
X9100Y21929D01*
Y22129D01*
X8900D01*
X9300Y21829D02*
Y22429D01*
X9700Y21829D01*
Y22429D01*
X9900D02*
Y21829D01*
X10200D01*
X10299Y21929D01*
Y22329D01*
X10200Y22429D01*
X9900D01*
X700Y11300D02*
X600Y11400D01*
X400D01*
X300Y11300D01*
Y10900D01*
X400Y10800D01*
X600D01*
X700Y10900D01*
Y11100D01*
X500D01*
X900Y10800D02*
Y11400D01*
X1300Y10800D01*
Y11400D01*
X1500D02*
Y10800D01*
X1800D01*
X1899Y10900D01*
Y11300D01*
X1800Y11400D01*
X1500D01*
X9470Y27000D02*
X9370Y27100D01*
X9170D01*
X9070Y27000D01*
Y26600D01*
X9170Y26500D01*
X9370D01*
X9470Y26600D01*
Y26800D01*
X9270D01*
X9670Y26500D02*
Y27100D01*
X10070Y26500D01*
Y27100D01*
X10270D02*
Y26500D01*
X10570D01*
X10669Y26600D01*
Y27000D01*
X10570Y27100D01*
X10270D01*
X9100Y8431D02*
X9000Y8531D01*
X8800D01*
X8700Y8431D01*
Y8031D01*
X8800Y7931D01*
X9000D01*
X9100Y8031D01*
Y8231D01*
X8900D01*
X9300Y7931D02*
Y8531D01*
X9700Y7931D01*
Y8531D01*
X9900D02*
Y7931D01*
X10200D01*
X10299Y8031D01*
Y8431D01*
X10200Y8531D01*
X9900D01*
X24800Y9900D02*
Y9500D01*
X25000Y9300D01*
X25200Y9500D01*
Y9900D01*
X25400Y9300D02*
X25600D01*
X25500D01*
Y9700D01*
X25400D01*
X25900Y9300D02*
Y9700D01*
X26200D01*
X26300Y9600D01*
Y9300D01*
X14400Y13800D02*
Y13400D01*
X14600Y13200D01*
X14800Y13400D01*
Y13800D01*
X15100Y13200D02*
X15300D01*
X15400Y13300D01*
Y13500D01*
X15300Y13600D01*
X15100D01*
X15000Y13500D01*
Y13300D01*
X15100Y13200D01*
X15700Y13600D02*
X15900D01*
X15999Y13500D01*
Y13200D01*
X15700D01*
X15600Y13300D01*
X15700Y13400D01*
X15999D01*
X16199Y13200D02*
X16399D01*
X16299D01*
Y13800D01*
X16199Y13700D01*
X19755Y27100D02*
Y26500D01*
X20155D01*
X20455D02*
X20655D01*
X20755Y26600D01*
Y26800D01*
X20655Y26900D01*
X20455D01*
X20355Y26800D01*
Y26600D01*
X20455Y26500D01*
X21055Y26900D02*
X21254D01*
X21354Y26800D01*
Y26500D01*
X21055D01*
X20955Y26600D01*
X21055Y26700D01*
X21354D01*
X21954Y27100D02*
Y26500D01*
X21654D01*
X21554Y26600D01*
Y26800D01*
X21654Y26900D01*
X21954D01*
X22354Y26500D02*
X22154Y26700D01*
Y26900D01*
X22354Y27100D01*
X22654Y26800D02*
X23054D01*
X22854Y27000D02*
Y26600D01*
X23254Y26500D02*
X23454Y26700D01*
Y26900D01*
X23254Y27100D01*
X18135Y9700D02*
Y9300D01*
X18335Y9100D01*
X18535Y9300D01*
Y9700D01*
X18735Y9000D02*
X19135D01*
X19335Y9100D02*
Y9700D01*
X19635D01*
X19735Y9600D01*
Y9400D01*
X19635Y9300D01*
X19335D01*
X19535D02*
X19735Y9100D01*
X19934D02*
X20234D01*
X20334Y9200D01*
X20234Y9300D01*
X20034D01*
X19934Y9400D01*
X20034Y9500D01*
X20334D01*
X20534Y9100D02*
X20734D01*
X20634D01*
Y9700D01*
X20534Y9600D01*
X13340Y19810D02*
Y19410D01*
X13540Y19210D01*
X13740Y19410D01*
Y19810D01*
X14040Y19210D02*
X14240D01*
X14340Y19310D01*
Y19510D01*
X14240Y19610D01*
X14040D01*
X13940Y19510D01*
Y19310D01*
X14040Y19210D01*
X14640Y19610D02*
X14840D01*
X14939Y19510D01*
Y19210D01*
X14640D01*
X14540Y19310D01*
X14640Y19410D01*
X14939D01*
X15539Y19210D02*
X15139D01*
X15539Y19610D01*
Y19710D01*
X15439Y19810D01*
X15239D01*
X15139Y19710D01*
X18580Y11340D02*
Y11940D01*
X18880D01*
X18980Y11840D01*
Y11640D01*
X18880Y11540D01*
X18580D01*
X18780D02*
X18980Y11340D01*
X19180D02*
X19480D01*
X19580Y11440D01*
X19480Y11540D01*
X19280D01*
X19180Y11640D01*
X19280Y11740D01*
X19580D01*
X19780Y11340D02*
X19980D01*
X19880D01*
Y11940D01*
X19780Y11840D01*
X11410Y21910D02*
Y22510D01*
X11710D01*
X11810Y22410D01*
Y22210D01*
X11710Y22110D01*
X11410D01*
X11610D02*
X11810Y21910D01*
X12010D02*
X12310D01*
X12410Y22010D01*
X12310Y22110D01*
X12110D01*
X12010Y22210D01*
X12110Y22310D01*
X12410D01*
X13009Y21910D02*
X12610D01*
X13009Y22310D01*
Y22410D01*
X12910Y22510D01*
X12710D01*
X12610Y22410D01*
X25100Y8430D02*
X25000Y8530D01*
X24800D01*
X24700Y8430D01*
Y8030D01*
X24800Y7930D01*
X25000D01*
X25100Y8030D01*
Y8230D01*
X24900D01*
X25300Y7930D02*
Y8530D01*
X25700Y7930D01*
Y8530D01*
X25900D02*
Y7930D01*
X26200D01*
X26299Y8030D01*
Y8430D01*
X26200Y8530D01*
X25900D01*
X15300Y12700D02*
X15100D01*
X15200D01*
Y12200D01*
X15100Y12100D01*
X15000D01*
X14900Y12200D01*
X15900Y12100D02*
X15500D01*
X15900Y12500D01*
Y12600D01*
X15800Y12700D01*
X15600D01*
X15500Y12600D01*
X6270Y1910D02*
Y1310D01*
Y1610D01*
X6670D01*
Y1910D01*
Y1310D01*
X6870D02*
X7070D01*
X6970D01*
Y1710D01*
X6870D01*
X7570Y1110D02*
X7670D01*
X7770Y1210D01*
Y1710D01*
X7470D01*
X7370Y1610D01*
Y1410D01*
X7470Y1310D01*
X7770D01*
X7969Y1910D02*
Y1310D01*
Y1610D01*
X8069Y1710D01*
X8269D01*
X8369Y1610D01*
Y1310D01*
X9569Y1810D02*
X9469Y1910D01*
X9269D01*
X9169Y1810D01*
Y1710D01*
X9269Y1610D01*
X9469D01*
X9569Y1510D01*
Y1410D01*
X9469Y1310D01*
X9269D01*
X9169Y1410D01*
X9769Y1310D02*
X9969D01*
X9869D01*
Y1710D01*
X9769D01*
X10669Y1910D02*
Y1310D01*
X10369D01*
X10269Y1410D01*
Y1610D01*
X10369Y1710D01*
X10669D01*
X11168Y1310D02*
X10968D01*
X10869Y1410D01*
Y1610D01*
X10968Y1710D01*
X11168D01*
X11268Y1610D01*
Y1510D01*
X10869D01*
X12068Y1910D02*
Y1510D01*
X12268Y1310D01*
X12468Y1510D01*
Y1910D01*
X12668Y1610D02*
X13068D01*
X13268Y1910D02*
X13468D01*
X13368D01*
Y1310D01*
X13268D01*
X13468D01*
X14767Y1810D02*
X14667Y1910D01*
X14467D01*
X14367Y1810D01*
Y1410D01*
X14467Y1310D01*
X14667D01*
X14767Y1410D01*
X15067Y1310D02*
X15267D01*
X15367Y1410D01*
Y1610D01*
X15267Y1710D01*
X15067D01*
X14967Y1610D01*
Y1410D01*
X15067Y1310D01*
X15567D02*
Y1710D01*
X15867D01*
X15967Y1610D01*
Y1310D01*
X16167Y1710D02*
X16367Y1310D01*
X16567Y1710D01*
X17067Y1310D02*
X16867D01*
X16767Y1410D01*
Y1610D01*
X16867Y1710D01*
X17067D01*
X17166Y1610D01*
Y1510D01*
X16767D01*
X17366Y1710D02*
Y1310D01*
Y1510D01*
X17466Y1610D01*
X17566Y1710D01*
X17666D01*
X18066Y1810D02*
Y1710D01*
X17966D01*
X18166D01*
X18066D01*
Y1410D01*
X18166Y1310D01*
X18766D02*
X18566D01*
X18466Y1410D01*
Y1610D01*
X18566Y1710D01*
X18766D01*
X18866Y1610D01*
Y1510D01*
X18466D01*
X19066Y1710D02*
Y1310D01*
Y1510D01*
X19166Y1610D01*
X19266Y1710D01*
X19366D01*
X19766Y1210D02*
X19866Y1310D01*
Y1410D01*
X19766D01*
Y1310D01*
X19866D01*
X19766Y1210D01*
X19666Y1110D01*
X20865Y1310D02*
Y1910D01*
X21165D01*
X21265Y1810D01*
Y1610D01*
X21165Y1510D01*
X20865D01*
X21065D02*
X21265Y1310D01*
X21765D02*
X21565D01*
X21465Y1410D01*
Y1610D01*
X21565Y1710D01*
X21765D01*
X21865Y1610D01*
Y1510D01*
X21465D01*
X22065Y1710D02*
X22265Y1310D01*
X22465Y1710D01*
X22665Y1310D02*
Y1410D01*
X22765D01*
Y1310D01*
X22665D01*
X23165Y1910D02*
Y1310D01*
X23464D01*
X23564Y1410D01*
Y1510D01*
X23464Y1610D01*
X23165D01*
X23464D01*
X23564Y1710D01*
Y1810D01*
X23464Y1910D01*
X23165D01*
X12460Y1000D02*
Y400D01*
X12760D01*
X12860Y500D01*
Y900D01*
X12760Y1000D01*
X12460D01*
X13060Y400D02*
Y500D01*
X13160D01*
Y400D01*
X13060D01*
X13960Y900D02*
X13860Y1000D01*
X13660D01*
X13560Y900D01*
Y500D01*
X13660Y400D01*
X13860D01*
X13960Y500D01*
X14159Y400D02*
Y500D01*
X14259D01*
Y400D01*
X14159D01*
X15659D02*
X15259D01*
X15659Y800D01*
Y900D01*
X15559Y1000D01*
X15359D01*
X15259Y900D01*
X15859D02*
X15959Y1000D01*
X16159D01*
X16259Y900D01*
Y500D01*
X16159Y400D01*
X15959D01*
X15859Y500D01*
Y900D01*
X16459Y400D02*
X16659D01*
X16559D01*
Y1000D01*
X16459Y900D01*
X17358Y400D02*
X16959D01*
X17358Y800D01*
Y900D01*
X17258Y1000D01*
X17059D01*
X16959Y900D01*
X10600Y3700D02*
X11000D01*
X10800D01*
Y3100D01*
X11500D02*
X11300D01*
X11200Y3200D01*
Y3400D01*
X11300Y3500D01*
X11500D01*
X11600Y3400D01*
Y3300D01*
X11200D01*
X11800Y3500D02*
X12199Y3100D01*
X12000Y3300D01*
X12199Y3500D01*
X11800Y3100D01*
X12499Y3500D02*
X12699D01*
X12799Y3400D01*
Y3100D01*
X12499D01*
X12399Y3200D01*
X12499Y3300D01*
X12799D01*
X12999Y3100D02*
X13299D01*
X13399Y3200D01*
X13299Y3300D01*
X13099D01*
X12999Y3400D01*
X13099Y3500D01*
X13399D01*
X14199Y3700D02*
X14399D01*
X14299D01*
Y3100D01*
X14199D01*
X14399D01*
X14699D02*
Y3500D01*
X14999D01*
X15099Y3400D01*
Y3100D01*
X15298D02*
X15598D01*
X15698Y3200D01*
X15598Y3300D01*
X15398D01*
X15298Y3400D01*
X15398Y3500D01*
X15698D01*
X15998Y3600D02*
Y3500D01*
X15898D01*
X16098D01*
X15998D01*
Y3200D01*
X16098Y3100D01*
X16398Y3500D02*
Y3100D01*
Y3300D01*
X16498Y3400D01*
X16598Y3500D01*
X16698D01*
X16998D02*
Y3200D01*
X17098Y3100D01*
X17398D01*
Y3500D01*
X17598Y3100D02*
Y3500D01*
X17698D01*
X17798Y3400D01*
Y3100D01*
Y3400D01*
X17898Y3500D01*
X17998Y3400D01*
Y3100D01*
X18497D02*
X18298D01*
X18198Y3200D01*
Y3400D01*
X18298Y3500D01*
X18497D01*
X18597Y3400D01*
Y3300D01*
X18198D01*
X18797Y3100D02*
Y3500D01*
X19097D01*
X19197Y3400D01*
Y3100D01*
X19497Y3600D02*
Y3500D01*
X19397D01*
X19597D01*
X19497D01*
Y3200D01*
X19597Y3100D01*
X19897D02*
X20197D01*
X20297Y3200D01*
X20197Y3300D01*
X19997D01*
X19897Y3400D01*
X19997Y3500D01*
X20297D01*
X11000Y29600D02*
Y29000D01*
X11400D01*
X11700D02*
X11900D01*
X12000Y29100D01*
Y29300D01*
X11900Y29400D01*
X11700D01*
X11600Y29300D01*
Y29100D01*
X11700Y29000D01*
X12300Y29400D02*
X12500D01*
X12599Y29300D01*
Y29000D01*
X12300D01*
X12200Y29100D01*
X12300Y29200D01*
X12599D01*
X13199Y29600D02*
Y29000D01*
X12899D01*
X12799Y29100D01*
Y29300D01*
X12899Y29400D01*
X13199D01*
X13599Y29000D02*
X13399Y29200D01*
Y29400D01*
X13599Y29600D01*
X13899Y29300D02*
X14299D01*
X14499Y29000D02*
X14699Y29200D01*
Y29400D01*
X14499Y29600D01*
X15800D02*
Y29000D01*
X16200D01*
X16500D02*
X16700D01*
X16800Y29100D01*
Y29300D01*
X16700Y29400D01*
X16500D01*
X16400Y29300D01*
Y29100D01*
X16500Y29000D01*
X17100Y29400D02*
X17300D01*
X17399Y29300D01*
Y29000D01*
X17100D01*
X17000Y29100D01*
X17100Y29200D01*
X17399D01*
X17999Y29600D02*
Y29000D01*
X17699D01*
X17599Y29100D01*
Y29300D01*
X17699Y29400D01*
X17999D01*
X18399Y29000D02*
X18199Y29200D01*
Y29400D01*
X18399Y29600D01*
X18699Y29300D02*
X19099D01*
X18899Y29500D02*
Y29100D01*
X19299Y29000D02*
X19499Y29200D01*
Y29400D01*
X19299Y29600D01*
M02*
