M48
;Layer_Color=9474304
;FILE_FORMAT=2:5
INCH
;TYPE=PLATED
T1F00S00C0.00600
T2F00S00C0.00800
T3F00S00C0.04000
T4F00S00C0.05000
%
T01
X0200789Y0255469
X0200826Y0257456
Y0259449
X0205625Y0259460
X0205617Y0257446
X0205625Y0255485
T02
X0175123Y0257371
X0183092Y0257474
X0192704Y0258866
X0195804Y0259154
X0201400Y0252400
X0203200
X0205000
X0207000Y0246100
X0199800Y0237300
Y0234700
X0203200Y0264400
X0203223Y0267900
X0203276Y0272268
X0203223Y0276552
X0210590Y0277533
Y0280032
X0210568Y0282509
X0210525Y0275013
X0215399Y0270822
X0218547Y0271013
X0221728Y0273100
X0225049
X0229862
X0233183
X0237859
X0241179
X0245979Y0273200
X0249300
X0231200Y0258094
X0223388Y0258369
X0211263Y0259126
X0191200Y0270400
X0188200
X0184829Y0272135
X0181151Y0272084
X0176655Y0272288
X0172875Y0272186
X0195775Y0275040
X0195795Y0277542
X0195805Y0280033
X0195815Y0282514
X0140363Y0282658
X0137614
X0134728Y0282645
T03
X0159200Y0173400
X0169200
X0196700
X0206700
X0234200
X0244200
X0309200Y0238400
Y0248400
Y0258400
Y0268400
Y0278400
Y0288400
X0089200
Y0278400
Y0268400
Y0258400
Y0248400
Y0238400
X0149200Y0173400
T04
X0274200Y0173400
X0288000
X0123000
X0109200
M30
